<svg id="Layer" xmlns="http://www.w3.org/2000/svg" viewBox="0 0 24 24"><defs><style>.cls-1{fill:#25314c;}</style></defs><path id="receipt-text-alt" class="cls-1" d="M18.4,4.579,17.041,5.6a1.5,1.5,0,0,1-1.961-.139l-2.019-2.02a1.5,1.5,0,0,0-2.122,0L8.92,5.459A1.5,1.5,0,0,1,6.959,5.6L5.6,4.579a1,1,0,0,0-1.6.8V18.621a1,1,0,0,0,1.6.8L6.959,18.4a1.5,1.5,0,0,1,1.961.139l2.019,2.02a1.5,1.5,0,0,0,2.122,0l2.019-2.02a1.5,1.5,0,0,1,1.961-.139L18.4,19.421a1,1,0,0,0,1.6-.8V5.379A1,1,0,0,0,18.4,4.579ZM13,14.75H8a.75.75,0,0,1,0-1.5h5a.75.75,0,0,1,0,1.5Zm3-4H8a.75.75,0,0,1,0-1.5h8a.75.75,0,0,1,0,1.5Z"/></svg>