<?xml version="1.0" encoding="UTF-8"?>
<svg id="Layer_6" data-name="Layer 6" xmlns="http://www.w3.org/2000/svg" viewBox="0 0 24 24">
  <defs>
    <style>
      .cls-1 {
        fill: #25314c;
      }
    </style>
  </defs>
  <path id="face-expressionless" class="cls-1" d="m12,2C6.477,2,2,6.477,2,12s4.477,10,10,10,10-4.477,10-10S17.523,2,12,2Zm-4.75,8c0-.414.336-.75.75-.75h2c.414,0,.75.336.75.75s-.336.75-.75.75h-2c-.414,0-.75-.336-.75-.75Zm7.75,6.75h-6c-.414,0-.75-.336-.75-.75s.336-.75.75-.75h6c.414,0,.75.336.75.75s-.336.75-.75.75Zm1-6h-2c-.414,0-.75-.336-.75-.75s.336-.75.75-.75h2c.414,0,.75.336.75.75s-.336.75-.75.75Z"/>
</svg>