<?xml version="1.0" encoding="UTF-8"?>
<svg id="Layer_6" data-name="Layer 6" xmlns="http://www.w3.org/2000/svg" viewBox="0 0 24 24">
  <defs>
    <style>
      .cls-1 {
        fill: #25314c;
      }
    </style>
  </defs>
  <path id="blogger" class="cls-1" d="m19.823,9.958h-1.094c-.589,0-1.094-.505-1.094-1.093,0-3.112-2.523-5.865-5.635-5.865h-3.365c-3.112,0-5.635,2.523-5.635,5.635v6.729c0,3.112,2.523,5.635,5.635,5.635h6.729c3.112,0,5.635-2.523,5.635-5.635v-4.229c0-.673-.505-1.178-1.177-1.178Zm-11.271-2.145h4.037c.589,0,1.093.505,1.093,1.093s-.505,1.093-1.093,1.093h-4.037c-.589,0-1.093-.505-1.093-1.093s.505-1.093,1.093-1.093Zm6.813,8.78h-6.813c-.589,0-1.093-.505-1.093-1.093s.505-1.093,1.093-1.093h6.813c.589,0,1.094.505,1.094,1.093s-.505,1.093-1.094,1.093Z"/>
</svg>