<?xml version="1.0" encoding="UTF-8"?>
<svg id="_23-Food_Cooking" data-name="23-Food &amp;amp; Cooking" xmlns="http://www.w3.org/2000/svg" viewBox="0 0 24 24">
  <defs>
    <style>
      .cls-1 {
        fill: #25314c;
      }
    </style>
  </defs>
  <g id="egg">
    <path id="egg-2" data-name="egg" class="cls-1" d="m12,2.5c-4.351,0-7.5,6.869-7.5,11.5,0,3.015,1.997,7.5,7.5,7.5s7.5-4.485,7.5-7.5c0-4.631-3.149-11.5-7.5-11.5Zm0,18c-4.769,0-6.5-3.887-6.5-6.5,0-4.13,2.791-10.5,6.5-10.5s6.5,6.37,6.5,10.5c0,2.613-1.731,6.5-6.5,6.5Zm-2.28-12.228c-.013.019-1.22,1.905-1.22,3.728,0,.276-.224.5-.5.5s-.5-.224-.5-.5c0-2.124,1.324-4.186,1.381-4.272.151-.232.461-.294.69-.147.232.15.298.46.148.691Z"/>
  </g>
</svg>