<svg id="Layer" xmlns="http://www.w3.org/2000/svg" viewBox="0 0 24 24"><defs><style>.cls-1{fill:#25314c;}</style></defs><path id="pause" class="cls-1" d="M8.5,2.5h-2a1.821,1.821,0,0,0-2,2v15a1.821,1.821,0,0,0,2,2h2a1.821,1.821,0,0,0,2-2V4.5A1.821,1.821,0,0,0,8.5,2.5Zm1,17c0,.72-.28,1-1,1h-2c-.72,0-1-.28-1-1V4.5c0-.72.28-1,1-1h2c.72,0,1,.28,1,1Zm8-17h-2a1.821,1.821,0,0,0-2,2v15a1.821,1.821,0,0,0,2,2h2a1.821,1.821,0,0,0,2-2V4.5A1.821,1.821,0,0,0,17.5,2.5Zm1,17c0,.72-.28,1-1,1h-2c-.72,0-1-.28-1-1V4.5c0-.72.28-1,1-1h2c.72,0,1,.28,1,1Z"/></svg>