<?xml version="1.0" encoding="UTF-8"?>
<svg id="Layer_6" data-name="Layer 6" xmlns="http://www.w3.org/2000/svg" viewBox="0 0 24 24">
  <defs>
    <style>
      .cls-1 {
        fill: #25314c;
      }
    </style>
  </defs>
  <path id="youtube" class="cls-1" d="m21.582,7.191c-.23-.862-.908-1.541-1.768-1.772-1.56-.419-7.814-.419-7.814-.419,0,0-6.254,0-7.814.419-.86.23-1.538.91-1.768,1.772-.418,1.563-.418,4.824-.418,4.824,0,0,0,3.261.418,4.824.23.862.908,1.513,1.768,1.743,1.56.419,7.814.419,7.814.419,0,0,6.254,0,7.814-.419.86-.23,1.538-.881,1.768-1.743.418-1.563.418-4.824.418-4.824,0,0,0-3.261-.418-4.824Zm-11.582,7.809v-6l5,3-5,3Z"/>
</svg>