<?xml version="1.0" encoding="UTF-8"?>
<svg id="_29-Emoji" data-name="29-Emoji" xmlns="http://www.w3.org/2000/svg" viewBox="0 0 24 24">
  <defs>
    <style>
      .cls-1 {
        fill: #25314c;
      }
    </style>
  </defs>
  <g id="face-frown">
    <path id="face-frown-2" data-name="face-frown" class="cls-1" d="m12,22.5c-5.79,0-10.5-4.71-10.5-10.5S6.21,1.5,12,1.5s10.5,4.71,10.5,10.5-4.71,10.5-10.5,10.5Zm0-20C6.762,2.5,2.5,6.762,2.5,12s4.262,9.5,9.5,9.5,9.5-4.262,9.5-9.5S17.238,2.5,12,2.5Zm4,7.5c0-.869-.421-1.5-1-1.5s-1,.631-1,1.5.421,1.5,1,1.5,1-.631,1-1.5Zm-6,0c0-.869-.421-1.5-1-1.5s-1,.631-1,1.5.421,1.5,1,1.5,1-.631,1-1.5Zm6.301,7.399c.221-.166.265-.479.099-.7-1.036-1.377-2.677-2.199-4.39-2.199-1.733,0-3.336.801-4.398,2.197-.167.22-.124.534.096.701s.533.125.701-.095c.87-1.146,2.184-1.803,3.602-1.803,1.4,0,2.742.673,3.591,1.801.098.13.248.199.399.199.105,0,.211-.033.301-.101Z"/>
  </g>
</svg>