<?xml version="1.0" encoding="UTF-8"?>
<svg id="_07-Sports_Fitness" data-name="07-Sports &amp;amp; Fitness" xmlns="http://www.w3.org/2000/svg" viewBox="0 0 24 24">
  <defs>
    <style>
      .cls-1 {
        fill: #25314c;
      }
    </style>
  </defs>
  <g id="bowling-ball">
    <path id="bowling-ball-2" data-name="bowling-ball" class="cls-1" d="m12,1.5C6.21,1.5,1.5,6.21,1.5,12s4.71,10.5,10.5,10.5,10.5-4.71,10.5-10.5S17.79,1.5,12,1.5Zm0,20c-5.238,0-9.5-4.262-9.5-9.5S6.762,2.5,12,2.5s9.5,4.262,9.5,9.5-4.262,9.5-9.5,9.5Zm2.02-14.5c0,.552-.448,1-1,1s-1.005-.448-1.005-1,.442-1,.995-1h.01c.552,0,1,.448,1,1Zm3,3c0,.552-.448,1-1,1s-1.005-.448-1.005-1,.442-1,.995-1h.01c.552,0,1,.448,1,1Zm-4,1c0,.552-.448,1-1,1s-1.005-.448-1.005-1,.442-1,.995-1h.01c.552,0,1,.448,1,1Z"/>
  </g>
</svg>