<svg xmlns="http://www.w3.org/2000/svg" width="24" height="24" viewBox="0 0 24 24">
  <g fill="none" fill-rule="evenodd">
    <rect width="24" height="24"/>
    <g fill="#000" fill-rule="nonzero" transform="translate(3 3)">
      <path d="M6.80000003 9.25000004L6.80000003 12.8000001 7.05000003 12.8000001 10.65 12.8000001C11.65 12.8000001 12.4500001 12 12.4500001 11 12.4500001 10 11.65 9.20000004 10.65 9.20000004L6.80000003 9.20000004 6.80000003 9.25000004zM10.65 5.20000002L7.05000003 5.20000002 6.80000003 5.20000002 6.80000003 8.75000004 10.65 8.75000004C11.65 8.75000004 12.4500001 7.95000003 12.4500001 6.95000003 12.4500001 5.95000002 11.65 5.20000002 10.65 5.20000002z"/>
      <path d="M9,0 C4.05000002,0 0,4.05000002 0,9 C0,13.9500001 4.05000002,18 9,18 C13.9500001,18 18,13.9500001 18,9 C18,4.05000002 13.9500001,0 9,0 Z M12.9000001,11.05 C12.9000001,12.3000001 11.9,13.3500001 10.6,13.3500001 L10.55,13.3500001 L10.55,14.8500001 C10.55,15.0000001 10.45,15.1000001 10.3,15.1000001 C10.15,15.1000001 10.05,15.0000001 10.05,14.8500001 L10.05,13.3500001 L8.00000003,13.3500001 L8.00000003,14.8500001 C8.00000003,15.0000001 7.90000003,15.1000001 7.75000003,15.1000001 C7.60000003,15.1000001 7.50000003,14.95 7.50000003,14.8000001 L7.50000003,13.3000001 L7.05000002,13.3000001 L6.55000002,13.3000001 L5.30000002,13.3000001 C5.15000002,13.3000001 5.05000002,13.2000001 5.05000002,13.0500001 C5.05000002,12.9000001 5.15000002,12.8000001 5.30000002,12.8000001 L6.30000003,12.8000001 L6.30000003,9.00000004 L6.30000003,5.20000002 L5.30000002,5.20000002 C5.15000002,5.20000002 5.05000002,5.10000002 5.05000002,4.95000001 C5.05000002,4.80000002 5.15000002,4.70000002 5.30000002,4.70000002 L6.55000002,4.70000002 L7.05000002,4.70000002 L7.50000003,4.70000002 L7.50000003,3.20000001 C7.50000003,3.05000001 7.60000003,2.95000001 7.75000003,2.95000001 C7.90000003,2.95000001 8.00000003,3.05000001 8.00000003,3.20000001 L8.00000003,4.70000002 L10.05,4.70000002 L10.05,3.20000001 C10.05,3.05000001 10.15,2.95000001 10.3,2.95000001 C10.45,2.95000001 10.55,3.05000001 10.55,3.20000001 L10.55,4.70000002 L10.6,4.70000002 C11.85,4.70000002 12.9000001,5.70000002 12.9000001,7.00000003 C12.9000001,7.90000003 12.4000001,8.65000004 11.65,9.05000004 C12.4000001,9.35000004 12.9000001,10.15 12.9000001,11.05 Z"/>
    </g>
  </g>
</svg>
