<svg xmlns="http://www.w3.org/2000/svg" width="24" height="24" viewBox="0 0 24 24">
  <g fill="none" fill-rule="evenodd">
    <g fill="#000" fill-rule="nonzero" transform="translate(3 3)">
      <path d="M9.40000004 6.15000003L7.20000003 6.15000003 7.10000003 6.15000003 7.10000003 8.20000003 9.35000004 8.20000003C9.90000004 8.20000003 10.35 7.75000003 10.35 7.20000003 10.35 6.65000003 9.95000004 6.15000003 9.40000004 6.15000003zM9.40000004 8.60000004L7.15000003 8.60000004 7.15000003 10.65 7.25000003 10.65 9.45000004 10.65C10 10.65 10.45 10.2 10.45 9.65000004 10.45 9.10000004 9.95000004 8.60000004 9.40000004 8.60000004z"/>
      <path d="M14.9000001,3.10000001 C13.3500001,1.20000001 11,0 8.40000003,0 C3.75000002,0 0,3.75000002 0,8.40000003 C0,11.05 1.20000001,13.3500001 3.10000001,14.9000001 C4.65000002,16.8000001 7,18 9.60000004,18 C14.2500001,18 18,14.2500001 18,9.60000004 C18,7 16.8000001,4.65000002 14.9000001,3.10000001 Z M13.3000001,3.95000002 C13.4000001,3.85000002 13.5500001,3.85000002 13.6500001,4.00000002 C14.1500001,4.60000002 14.5500001,5.30000002 14.8500001,6.05000003 C14.9000001,6.20000003 14.8500001,6.30000003 14.7000001,6.35000003 C14.6500001,6.35000003 14.6500001,6.35000003 14.6000001,6.35000003 C14.5000001,6.35000003 14.4000001,6.30000003 14.3500001,6.20000003 C14.1000001,5.50000002 13.7000001,4.85000002 13.2500001,4.30000002 C13.1500001,4.20000002 13.1500001,4.00000002 13.3000001,3.95000002 Z M9.59056095,1.65550236 C10.3888733,1.8011872 11.1,2.05000001 11.8,2.45000001 C11.9,2.50000001 11.95,2.65000001 11.9,2.80000001 C11.85,2.90000001 11.7462678,2.95000001 11.7,2.95000001 C11.6537323,2.95000001 11.630539,2.95000001 11.5915375,2.92359928 C10.9415375,2.57359928 10.2246552,2.31427006 9.49119572,2.1451569 C9.3456879,2.09455875 9.25000004,2.00000001 9.30000004,1.85000001 C9.35000004,1.70000001 9.46089481,1.65550236 9.59056095,1.65550236 Z M4.95000002,2.45000001 C5.65000002,2.05000001 6.40000003,1.75000001 7.20000003,1.65000001 C7.35000003,1.65000001 7.45000003,1.70000001 7.50000003,1.85000001 C7.50000003,2.00000001 7.45000003,2.10000001 7.30000003,2.15000001 C6.55000003,2.30000001 5.85000002,2.55000001 5.25000002,2.90000001 C5.20000002,2.90000001 5.15000002,2.95000001 5.10000002,2.95000001 C5.00000002,2.95000001 4.95000002,2.90000001 4.90000002,2.85000001 C4.80000002,2.70000001 4.80000002,2.55000001 4.95000002,2.45000001 Z M2.25000001,10.9 C2.20000001,10.9 2.20000001,10.9 2.15000001,10.9 C2.05000001,10.9 1.95000001,10.85 1.90000001,10.75 C1.65000001,10 1.50000001,9.20000004 1.50000001,8.40000003 C1.50000001,8.25000003 1.60000001,8.15000003 1.75000001,8.15000003 L1.75000001,8.15000003 C1.90000001,8.15000003 2.00000001,8.25000003 2.00000001,8.40000003 C2.00000001,9.15000003 2.15000001,9.90000004 2.40000001,10.55 C2.45000001,10.7 2.40000001,10.85 2.25000001,10.9 Z M2.40000001,6.25000003 C2.35000001,6.35000003 2.25000001,6.40000003 2.15000001,6.40000003 C2.10000001,6.40000003 2.10000001,6.40000003 2.05000001,6.40000003 C1.90000001,6.35000003 1.85000001,6.20000003 1.90000001,6.10000003 C2.15000001,5.35000002 2.55000001,4.65000002 3.10000001,4.05000002 C3.20000001,3.95000002 3.35000001,3.95000002 3.45000001,4.00000002 C3.55000001,4.10000002 3.55000001,4.25000002 3.50000001,4.35000002 C3.05000001,4.90000002 2.65000001,5.55000002 2.40000001,6.25000003 Z M5.30000002,14.2500001 C5.25000002,14.3500001 5.15000002,14.3500001 5.10000002,14.3500001 C5.05000002,14.3500001 5.00000002,14.3500001 4.95000002,14.3000001 C4.25000002,13.9000001 3.65000002,13.4000001 3.10000001,12.7500001 C3.00000001,12.6500001 3.00000001,12.5000001 3.15000001,12.4000001 C3.25000001,12.3000001 3.40000001,12.3500001 3.50000001,12.4500001 C4.00000002,13.0000001 4.55000002,13.5000001 5.20000002,13.8500001 C5.35000002,14.0000001 5.40000002,14.1500001 5.30000002,14.2500001 Z M9.60000004,15.1500001 C9.20000004,15.2000001 8.80000004,15.2500001 8.40000003,15.2500001 C8.00000003,15.2500001 7.60000003,15.2000001 7.20000003,15.1500001 C7.05000003,15.1500001 6.95000003,15.0000001 7.00000003,14.8500001 C7.00000003,14.7000001 7.15000003,14.6000001 7.30000003,14.6500001 C8.05000003,14.8000001 8.80000004,14.7500001 9.50000004,14.6500001 C9.65000004,14.6000001 9.75000004,14.7000001 9.80000004,14.8500001 C9.85000004,15.0000001 9.70000004,15.1000001 9.60000004,15.1500001 Z M10.85,9.65000004 C10.85,10.45 10.2,11.1 9.40000002,11.1 L9.40000002,11.95 C9.40000002,12.0500001 9.30000004,12.2000001 9.15000004,12.2000001 C9.00000004,12.2000001 9.00000004,12.0500001 9.00000004,11.95 L9.00000004,11.1 L7.90000002,11.1 L7.90000002,11.95 C7.90000002,12.0500001 7.80000003,12.2000001 7.65000003,12.2000001 C7.50000003,12.2000001 7.40000002,12.1000001 7.40000002,11.95 L7.40000002,11.1 L7.20000003,11.1 L6.90000002,11.1 L6.15000003,11.1 C6.05000003,11.1 5.90000002,11 5.90000002,10.85 C5.90000002,10.7 6.00000002,10.6 6.15000003,10.6 L6.70000003,10.6 L6.70000003,8.35000003 L6.70000003,6.10000003 L6.15000003,6.10000003 C6.05000003,6.10000003 5.90000002,6.00000002 5.90000002,5.85000002 C5.90000002,5.70000002 6.00000002,5.60000002 6.15000003,5.60000002 L6.90000002,5.60000002 L7.20000003,5.60000002 L7.40000002,5.60000002 L7.40000002,4.75000002 C7.40000002,4.65000002 7.50000003,4.50000002 7.65000003,4.50000002 C7.80000003,4.50000002 7.90000002,4.60000002 7.90000002,4.75000002 L7.90000002,5.60000002 L9.00000004,5.60000002 L9.00000004,4.75000002 C9.00000004,4.65000002 9.10000004,4.50000002 9.25000004,4.50000002 C9.40000002,4.50000002 9.50000004,4.60000002 9.50000004,4.75000002 L9.50000004,5.60000002 C10.3,5.60000002 10.95,6.25000003 10.95,7.05000003 C10.95,7.55000003 10.65,8.05000003 10.25,8.30000003 C10.6,8.65000004 10.85,9.10000004 10.85,9.65000004 Z M13.6500001,12.8000001 C13.1500001,13.4000001 12.5000001,13.9500001 11.85,14.3500001 C11.8,14.3500001 11.75,14.4000001 11.7,14.4000001 C11.6,14.4000001 11.55,14.3500001 11.5,14.3000001 C11.45,14.2000001 11.45,14.0500001 11.6,13.9500001 C12.2500001,13.6000001 12.8000001,13.1000001 13.3000001,12.5500001 C13.4000001,12.4500001 13.5500001,12.4500001 13.6500001,12.5000001 C13.7000001,12.5500001 13.7500001,12.7000001 13.6500001,12.8000001 Z M15.2500001,8.40000003 C15.2500001,9.20000004 15.1000001,10 14.8500001,10.75 C14.8000001,10.85 14.7000001,10.9 14.6000001,10.9 C14.5500001,10.9 14.5500001,10.9 14.5000001,10.9 C14.3500001,10.85 14.3000001,10.7 14.3500001,10.6 C14.6000001,9.90000004 14.7500001,9.15000003 14.7500001,8.40000003 C14.7500001,8.25000003 14.8500001,8.15000003 15.0000001,8.15000003 C15.1500001,8.15000003 15.2500001,8.25000003 15.2500001,8.40000003 L15.2500001,8.40000003 Z"/>
    </g>
    <rect width="24" height="24"/>
  </g>
</svg>
