<svg xmlns="http://www.w3.org/2000/svg" width="24" height="24" viewBox="0 0 24 24">
  <g fill="none" fill-rule="evenodd">
    <path fill="#000" fill-rule="nonzero" d="M18.4000001,3.00000001 L5.60000002,3.00000001 C5.00000002,3.00000001 4.50000002,3.50000001 4.50000002,4.10000002 L4.50000002,19.8500001 C4.50000002,20.5 5.00000002,21 5.60000002,21 L18.3500001,21 C18.9500001,21 19.4500001,20.5 19.4500001,19.9000001 L19.4500001,4.10000002 C19.5,3.50000001 19,3.00000001 18.4000001,3.00000001 Z M8.85000004,16.6000001 C8.85000004,17.3500001 8.25000003,18.0000001 7.45000003,18.0000001 L7.40000003,18.0000001 C6.65000003,18.0000001 6.00000002,17.4000001 6.00000002,16.6000001 L6.00000002,16.5500001 C6.00000002,15.8000001 6.60000003,15.1500001 7.40000003,15.1500001 L7.45000003,15.1500001 C8.20000003,15.1500001 8.85000004,15.7500001 8.85000004,16.5500001 L8.85000004,16.6000001 Z M8.85000004,11.4 C8.85000004,12.1500001 8.25000003,12.8000001 7.45000003,12.8000001 L7.40000003,12.8000001 C6.65000003,12.8000001 6.00000002,12.2000001 6.00000002,11.4 L6.00000002,11.35 C6.00000002,10.6 6.60000003,9.95000004 7.40000003,9.95000004 L7.45000003,9.95000004 C8.20000003,9.95000004 8.85000004,10.55 8.85000004,11.35 L8.85000004,11.4 Z M13.4000001,16.6000001 C13.4000001,17.3500001 12.8000001,18.0000001 12,18.0000001 L11.95,18.0000001 C11.2,18.0000001 10.55,17.4000001 10.55,16.6000001 L10.55,16.5500001 C10.55,15.8000001 11.15,15.1500001 11.95,15.1500001 L12,15.1500001 C12.7500001,15.1500001 13.4000001,15.7500001 13.4000001,16.5500001 L13.4000001,16.6000001 Z M13.4000001,11.4 C13.4000001,12.1500001 12.8000001,12.8000001 12,12.8000001 L11.95,12.8000001 C11.2,12.8000001 10.55,12.2000001 10.55,11.4 L10.55,11.35 C10.55,10.6 11.15,9.95000004 11.95,9.95000004 L12,9.95000004 C12.7500001,9.95000004 13.4000001,10.55 13.4000001,11.35 L13.4000001,11.4 Z M17.9500001,16.5000001 C17.9500001,17.3500001 17.2500001,18.0000001 16.4500001,18.0000001 C15.6000001,18.0000001 14.9500001,17.3000001 14.9500001,16.5000001 L14.9500001,11.45 C14.9500001,10.6 15.6500001,9.95000004 16.4500001,9.95000004 C17.3000001,9.95000004 17.9500001,10.65 17.9500001,11.45 L17.9500001,16.5000001 Z M16.6000001,7.95000003 L7.40000003,7.95000003 C6.65000003,7.95000003 6.00000002,7.35000003 6.00000002,6.55000003 C6.00000002,5.75000002 6.60000003,5.15000002 7.40000003,5.15000002 L16.6000001,5.15000002 C17.3500001,5.15000002 18,5.75000002 18,6.55000003 C18,7.35000003 17.4000001,7.95000003 16.6000001,7.95000003 Z"/>
    <rect width="24" height="24"/>
  </g>
</svg>
