<svg xmlns="http://www.w3.org/2000/svg" width="24" height="24" viewBox="0 0 24 24">
  <g fill="none" fill-rule="evenodd">
    <g fill="#000" fill-rule="nonzero" transform="translate(3.5 3.5)">
      <path d="M3.95000002 0C1.75000001 0 0 1.75000001 0 3.95000002 0 6.15000003 1.75000001 7.90000003 3.95000002 7.90000003 6.15000003 7.90000003 7.90000003 6.15000003 7.90000003 3.95000002 7.90000003 1.75000001 6.15000003 0 3.95000002 0zM5.95000002 4.20000001L4.20000001 4.20000001 4.20000001 5.95000002C4.20000001 6.10000003 4.10000002 6.20000001 3.95000002 6.20000001 3.80000002 6.20000001 3.70000001 6.10000003 3.70000001 5.95000002L3.70000001 4.20000001 1.95000001 4.20000001C1.80000001 4.20000001 1.70000001 4.10000002 1.70000001 3.95000002 1.70000001 3.80000002 1.80000001 3.70000001 1.95000001 3.70000001L3.70000001 3.70000001 3.70000001 1.95000001C3.70000001 1.80000001 3.80000002 1.70000001 3.95000002 1.70000001 4.10000002 1.70000001 4.20000001 1.80000001 4.20000001 1.95000001L4.20000001 3.70000001 5.95000002 3.70000001C6.10000003 3.70000001 6.20000001 3.80000002 6.20000001 3.95000002 6.20000001 4.10000002 6.10000003 4.20000001 5.95000002 4.20000001zM3.95000002 9.10000004C1.75000001 9.10000004 0 10.85 0 13.0500001 0 15.2500001 1.75000001 17.0000001 3.95000002 17.0000001 6.15000003 17.0000001 7.90000003 15.2500001 7.90000003 13.0500001 7.90000003 10.85 6.15000003 9.10000004 3.95000002 9.10000004zM5.55000002 14.3000001C5.65000002 14.4000001 5.65000002 14.5500001 5.55000002 14.6500001 5.50000002 14.7000001 5.45000002 14.7000001 5.35000002 14.7000001 5.25000002 14.7000001 5.15000002 14.617566 5.10000002 14.567566L3.90000002 13.4000001 2.69000248 14.5230103C2.64000248 14.5730103 2.55000001 14.7000001 2.45000001 14.7000001 2.35000001 14.7000001 2.30000001 14.7000001 2.25000001 14.6500001 2.15000001 14.5500001 2.15000001 14.4000001 2.25000001 14.3000001L3.50000001 13.0500001 2.25000001 11.8C2.15000001 11.7 2.15000001 11.55 2.25000001 11.45 2.35000001 11.35 2.50000001 11.35 2.60000001 11.45L3.85000002 12.7000001 5.10000002 11.45C5.20000002 11.35 5.35000002 11.35 5.45000002 11.45 5.55000002 11.55 5.55000002 11.7 5.45000002 11.8L4.20000002 13.0500001 5.55000002 14.3000001zM13.0500001 0C10.85 0 9.10000004 1.75000001 9.10000004 3.95000002 9.10000004 6.15000003 10.85 7.90000003 13.0500001 7.90000003 15.2500001 7.90000003 17.0000001 6.15000003 17.0000001 3.95000002 17.0000001 1.75000001 15.2500001 0 13.0500001 0zM15.0500001 4.20000002L11.05 4.20000002C10.9 4.20000002 10.8 4.10000002 10.8 3.95000002 10.8 3.80000002 10.9 3.70000002 11.05 3.70000002L15.0500001 3.70000002C15.2000001 3.70000002 15.3 3.80000002 15.3 3.95000002 15.3 4.10000002 15.2000001 4.20000002 15.0500001 4.20000002z"/>
      <g transform="translate(9 9)">
        <path d="M4.05000002,5.30000002 C3.85000002,5.30000002 3.65000002,5.45000002 3.65000002,5.70000002 C3.65000002,5.95000002 3.80000002,6.10000003 4.05000002,6.10000003 C4.30000002,6.10000003 4.45000002,5.95000002 4.45000002,5.70000002 C4.45000002,5.45000002 4.25000002,5.30000002 4.05000002,5.30000002 Z"/>
        <circle cx="4.05" cy="2.4" r="1"/>
        <path d="M4.05000002,0.1 C1.85000001,0.1 0.1,1.85000001 0.1,4.05000002 C0.1,6.25000003 1.85000001,8.00000003 4.05000002,8.00000003 C6.25000003,8.00000003 8.00000003,6.25000003 8.00000003,4.05000002 C8.00000003,1.85000001 6.25000003,0.1 4.05000002,0.1 Z M4.05000002,1.55000001 C4.55000002,1.55000001 4.95000002,1.95000001 4.95000002,2.45000001 C4.95000002,2.95000001 4.55000002,3.35000001 4.05000002,3.35000001 C3.55000001,3.35000001 3.15000001,2.95000001 3.15000001,2.45000001 C3.15000001,1.95000001 3.55000001,1.55000001 4.05000002,1.55000001 Z M4.05000002,6.60000003 C3.55000001,6.60000003 3.15000001,6.20000003 3.15000001,5.70000002 C3.15000001,5.20000002 3.55000001,4.80000002 4.05000002,4.80000002 C4.55000002,4.80000002 4.95000002,5.20000002 4.95000002,5.70000002 C4.95000002,6.20000003 4.55000002,6.60000003 4.05000002,6.60000003 Z M6.05000003,4.30000002 L2.05000001,4.30000002 C1.90000001,4.30000002 1.80000001,4.20000002 1.80000001,4.05000002 C1.80000001,3.90000002 1.90000001,3.80000002 2.05000001,3.80000002 L6.05000003,3.80000002 C6.20000003,3.80000002 6.30000001,3.90000002 6.30000001,4.05000002 C6.30000001,4.20000002 6.20000003,4.30000002 6.05000003,4.30000002 Z"/>
      </g>
    </g>
    <rect width="24" height="24"/>
  </g>
</svg>
