<svg xmlns="http://www.w3.org/2000/svg" width="24" height="24" viewBox="0 0 24 24">
  <g fill="none" fill-rule="evenodd">
    <path fill="#1A1A1A" fill-rule="nonzero" d="M19.3500001,5.30000002 L16.7500001,5.30000002 L16.7500001,3.95000002 C16.7500001,3.80000002 16.6500001,3.70000002 16.5,3.70000002 C16.3500001,3.70000002 16.2500001,3.80000002 16.2500001,3.95000002 L16.2500001,5.30000002 L12.2500001,5.30000002 L12.2500001,3.95000002 C12.2500001,3.80000002 12.1500001,3.70000002 12,3.70000002 C11.85,3.70000002 11.75,3.80000002 11.75,3.95000002 L11.75,5.30000002 L7.75000003,5.30000002 L7.75000003,3.95000002 C7.75000003,3.80000002 7.65000003,3.70000002 7.50000001,3.70000002 C7.35000003,3.70000002 7.25000003,3.80000002 7.25000003,3.95000002 L7.25000003,5.30000002 L4.65000002,5.30000002 C3.75000002,5.30000002 3.00000001,6.05000003 3.00000001,6.95000003 L3.00000001,18.6000001 C3.00000001,19.5000001 3.75000002,20.2500001 4.65000002,20.2500001 L19.3000001,20.2500001 C20.2000001,20.2500001 20.9500001,19.5000001 20.9500001,18.6000001 L20.9500001,6.95000003 C21,6.05000003 20.2500001,5.30000002 19.3500001,5.30000002 Z M16.3500001,10.45 C16.8000001,10.45 17.2000001,10.8 17.2000001,11.3 C17.2000001,11.75 16.8500001,12.1500001 16.3500001,12.1500001 C15.9000001,12.1500001 15.5000001,11.8 15.5000001,11.3 C15.5000001,10.85 15.9000001,10.45 16.3500001,10.45 Z M7.50000003,16.4500001 C7.05000003,16.4500001 6.65000003,16.1000001 6.65000003,15.6000001 C6.65000003,15.1500001 7.00000003,14.7500001 7.50000003,14.7500001 C7.95000003,14.7500001 8.35000003,15.1000001 8.35000003,15.6000001 C8.35000003,16.1000001 7.95000003,16.4500001 7.50000003,16.4500001 Z M7.55000003,12.1000001 C7.10000003,12.1000001 6.70000003,11.75 6.70000003,11.25 C6.70000003,10.8 7.05000003,10.4 7.55000003,10.4 C8.05000003,10.4 8.40000004,10.75 8.40000004,11.25 C8.35000003,11.75 8.00000003,12.1000001 7.55000003,12.1000001 Z M12.0000001,16.4500001 C11.55,16.4500001 11.15,16.1000001 11.15,15.6000001 C11.15,15.1500001 11.5,14.7500001 12.0000001,14.7500001 C12.5000001,14.7500001 12.8500001,15.1000001 12.8500001,15.6000001 C12.8500001,16.1000001 12.4500001,16.4500001 12.0000001,16.4500001 Z M12.0000001,12.1000001 C11.55,12.1000001 11.15,11.75 11.15,11.25 C11.15,10.8 11.5,10.4 12.0000001,10.4 C12.5000001,10.4 12.8500001,10.75 12.8500001,11.25 C12.8500001,11.75 12.5000001,12.1000001 12.0000001,12.1000001 Z M17.5500001,16.5000001 C17.6500001,16.6000001 17.6500001,16.7500001 17.5500001,16.8500001 C17.5000001,16.9000001 17.4500001,16.9000001 17.3500001,16.9000001 C17.2500001,16.9000001 17.189206,16.8184937 17.139206,16.7684937 L16.2500001,15.9500001 L15.3851624,16.7684937 C15.3351624,16.8184937 15.2500001,16.9000001 15.1500001,16.9000001 C15.0500001,16.9000001 15.0000001,16.9000001 14.9500001,16.8500001 C14.8500001,16.7500001 14.8500001,16.6000001 14.9500001,16.5000001 L15.8500001,15.6000001 L14.9500001,14.7000001 C14.8500001,14.6000001 14.8500001,14.4500001 14.9500001,14.3500001 C15.0500001,14.2500001 15.2000001,14.2500001 15.3000001,14.3500001 L16.2000001,15.2500001 L17.1000001,14.3500001 C17.2000001,14.2500001 17.3500001,14.2500001 17.4500001,14.3500001 C17.5500001,14.4500001 17.5500001,14.6000001 17.4500001,14.7000001 L16.5500001,15.6000001 L17.5500001,16.5000001 Z"/>
    <rect width="24" height="24"/>
  </g>
</svg>
