<svg xmlns="http://www.w3.org/2000/svg" width="24" height="24" viewBox="0 0 24 24">
  <g fill="none" fill-rule="evenodd">
    <g fill="#000" fill-rule="nonzero" transform="translate(2.5 3.5)">
      <circle cx="8.05" cy="15.85" r="1"/>
      <path d="M14.5500001 15.2000001C14.2000001 15.5500001 14.2000001 16.1000001 14.5500001 16.4500001 14.9000001 16.8000001 15.4500001 16.8000001 15.8000001 16.4500001 16.1500001 16.1000001 16.1500001 15.5500001 15.8000001 15.2000001 15.5000001 14.8500001 14.9000001 14.8500001 14.5500001 15.2000001zM18.4500001 3.75C18.2500001 3.45000001 17.9000001 3.30000001 17.5500001 3.30000001L4.75000002 3.30000001 4.60000002 2.60000001C4.25000002 1.25 3.00000001.250000001 1.55000001.250000001L.550000002.250000001C.400000002.250000001.300000001.350000001.300000001.500000002.300000001.650000003.400000002.750000001.550000002.750000001L1.55000001.750000001C2.75000001.750000001 3.8 1.55000001 4.10000002 2.75L4.3 3.65000002C4.3 3.65000002 4.3 3.65000002 4.3 3.65000002L6.45000003 12.4500001C6.60000003 12.9500001 7.05000003 13.3500001 7.55000003 13.3500001L15.6500001 13.3500001C16.2000001 13.3500001 16.6500001 13.0000001 16.7500001 12.4500001L18.6500001 4.75C18.7500001 4.40000002 18.6500001 4.05000002 18.4500001 3.75zM14.2500001 6.55000003L13.8500001 10.1C13.8500001 10.25 13.7500001 10.3 13.6000001 10.3 13.6000001 10.3 13.6000001 10.3 13.5500001 10.3 13.4000001 10.3 13.3000001 10.15 13.3500001 10L13.7500001 6.45000003C13.7500001 6.30000003 13.9000001 6.20000003 14.0500001 6.25000003 14.2000001 6.30000003 14.3000001 6.40000003 14.2500001 6.55000003zM9.85000004 10.05C9.85000004 10.2 9.75000004 10.3 9.65000004 10.35 9.65000004 10.35 9.65000004 10.35 9.60000004 10.35 9.45000004 10.35 9.35000004 10.25 9.35000004 10.15L8.95000004 6.60000003C8.95000004 6.45000003 9.05000004 6.35000003 9.15000004 6.30000003 9.30000004 6.30000003 9.40000004 6.40000003 9.45000004 6.50000003L9.85000004 10.05z"/>
    </g>
    <rect width="24" height="24"/>
  </g>
</svg>
