<svg xmlns="http://www.w3.org/2000/svg" width="24" height="24" viewBox="0 0 24 24">
  <g fill="none" fill-rule="evenodd">
    <g fill="#000" fill-rule="nonzero" transform="translate(2.5 2.5)">
      <path d="M9.50000004,8.25000003 C8.50000004,8.25000003 7.65000003,9.10000004 7.65000003,10.1 C7.65000003,11.1 8.50000004,11.95 9.50000004,11.95 C10.5,11.95 11.35,11.1 11.35,10.1 C11.35,9.10000004 10.55,8.25000003 9.50000004,8.25000003 Z"/>
      <path d="M16.5000001,0.400000002 L2.50000001,0.400000002 C1.25,0.400000002 0.250000001,1.4 0.250000001,2.65000001 C0.250000001,3.9 1.25,4.9 2.50000001,4.9 L3.95000002,4.9 L3.95000002,17.5000001 C3.95000002,18.1000001 4.45000002,18.6500001 5.10000002,18.6500001 L14.0000001,18.6500001 C14.6000001,18.6500001 15.1500001,18.1500001 15.1500001,17.5000001 L15.1500001,4.9 L16.5000001,4.9 C17.75,4.9 18.75,3.9 18.75,2.65000001 C18.75,1.4 17.75,0.400000002 16.5000001,0.400000002 Z M12.7000001,14.1000001 C11.6,14.15 10.7,15.0000001 10.6,16.1000001 L8.40000003,16.1000001 C8.30000003,15.0000001 7.40000003,14.15 6.30000003,14.1000001 L6.30000003,6.05000003 C7.35000003,6.00000002 8.20000003,5.20000002 8.40000003,4.15000002 L10.65,4.15000002 C10.8,5.15000002 11.65,5.95000002 12.7500001,6.05000003 L12.7500001,14.1000001 L12.7000001,14.1000001 Z"/>
    </g>
    <rect width="24" height="24"/>
  </g>
</svg>
