<svg xmlns="http://www.w3.org/2000/svg" width="24" height="24" viewBox="0 0 24 24">
  <g fill="none" fill-rule="evenodd">
    <g fill="#000" fill-rule="nonzero" transform="translate(2.5 4)">
      <path d="M17.2000001,13.0500001 L13.9,13.0500001 C12.9500001,13.0500001 12,12.8000001 11.15,12.3000001 C11.6,11.85 11.6,11.15 11.15,10.7 L8.15000003,7.70000003 C7.30000003,6.85000003 6.15000003,6.40000003 4.95000002,6.40000003 L3.65000002,6.40000003 C3.65000002,5.85000002 3.20000001,5.60000002 2.65000001,5.60000002 L1.4,5.60000002 C0.850000004,5.60000002 0.400000002,6.05000003 0.400000002,6.60000002 L0.400000002,11.45 C0.400000002,12 0.850000004,12.4500001 1.4,12.4500001 L2.65000001,12.4500001 C3.20000001,12.4500001 3.65000002,12.3000001 3.65000002,11.75 C3.65000002,11.75 5.60000002,12.3000001 6.65000003,13.3000001 L6.70000003,13.3500001 C8.30000003,14.9500001 10.4,15.8000001 12.6500001,15.8000001 L17.2000001,15.8000001 C17.9500001,15.8000001 18.6000001,15.2000001 18.6000001,14.4000001 C18.6000001,13.7000001 17.9500001,13.0500001 17.2000001,13.0500001 Z"/>
      <path d="M4.60000002,0.900000004 L4.60000002,0.900000004 C3.55000001,-0.0500000002 1.90000001,-0.0500000002 0.850000004,0.900000004 L0.650000003,1.15 C-0.250000001,2.25000001 -0.200000001,3.85000002 0.850000004,4.90000002 C1.95000001,6.00000002 3.15000001,7.05000003 4.45000002,7.90000003 L4.65000002,8.05000003 L4.65000002,8.05000003 C6.05000003,7.10000003 7.30000003,6.05000003 8.45000004,4.85000002 C9.50000004,3.75000002 9.50000004,2.00000001 8.40000003,0.950000004 C8.40000003,0.950000004 8.40000003,0.950000004 8.35000003,0.900000004 C7.35000003,-0.0500000002 5.70000002,-0.1 4.65000002,0.850000004 L4.60000002,0.900000004 Z" transform="translate(9)"/>
    </g>
    <rect width="24" height="24"/>
  </g>
</svg>
