<svg xmlns="http://www.w3.org/2000/svg" width="24" height="24" viewBox="0 0 24 24">
  <g fill="none" fill-rule="evenodd">
    <g transform="translate(3.5 2.5)">
      <path d="M4.20000002,11.3 L4.20000002,5.40000002 L1.80000001,5.40000002 C1.15,5.40000002 0.600000003,5.95000002 0.600000003,6.60000003 L0.600000003,17.7500001 C0.600000003,17.9500001 0.700000003,18.1000001 0.900000004,18.2000001 C1.1,18.3000001 1.25000001,18.2500001 1.40000001,18.1000001 L3.25000001,16.2500001 C3.6,15.9 4.00000002,15.7500001 4.45000002,15.7500001 L9.65000004,15.7500001 C10.3,15.7500001 10.85,15.2000001 10.85,14.5500001 L10.85,13.0500001 L5.85000002,13.0500001 C4.95000002,13.0000001 4.20000002,12.2500001 4.20000002,11.3 Z"/>
      <path fill="#000" fill-rule="nonzero" d="M15.2000001,0.250000001 L5.85000002,0.250000001 C4.90000002,0.250000001 4.15000002,1 4.15000002,1.95000001 L4.15000002,4.90000002 L1.75000001,4.90000002 C0.800000003,4.90000002 0.0500000002,5.65000002 0.0500000002,6.60000003 L0.0500000002,17.75 C0.0500000002,18.1500001 0.300000001,18.5000001 0.650000003,18.6500001 C0.750000003,18.7000001 0.900000004,18.75 1.05,18.75 C1.30000001,18.75 1.55,18.6500001 1.75000001,18.4500001 L3.60000001,16.6000001 C3.85000002,16.3500001 4.15000002,16.25 4.45000002,16.25 L9.65000004,16.25 C10.6,16.25 11.35,15.5000001 11.35,14.5500001 L11.35,13.0500001 L12.0000001,13.0500001 C12.4500001,13.0500001 12.9000001,13.25 13.2500001,13.5500001 L15.4500001,15.75 C16.0000001,16.3000001 16.9000001,15.9000001 16.9000001,15.1500001 L16.9000001,13.0000001 L16.9000001,1.95000001 C16.9000001,1.05 16.1500001,0.250000001 15.2000001,0.250000001 Z M9.70000004,15.7000001 L4.50000002,15.7000001 C4.05000002,15.7000001 3.60000002,15.9 3.30000001,16.2000001 L1.45000001,18.0500001 C1.30000001,18.2000001 1.1,18.2500001 0.950000004,18.1500001 C0.750000003,18.1000001 0.650000003,17.9 0.650000003,17.7000001 L0.650000003,6.60000003 C0.650000003,5.95000002 1.2,5.40000002 1.85000001,5.40000002 L4.25000002,5.40000002 L4.25000002,11.3 C4.25000002,12.2500001 5.00000002,13.0000001 5.95000002,13.0000001 L10.95,13.0000001 L10.95,14.5000001 C10.95,15.1500001 10.35,15.7000001 9.70000004,15.7000001 Z M10.15,6.35000003 L10.95,6.35000003 C11.7,6.35000003 12.3,6.95000003 12.3,7.70000001 C12.3,8.45000004 11.7,9.05000004 10.95,9.05000004 L10.8,9.05000004 L10.8,9.75000004 C10.8,9.90000004 10.7,10 10.55,10 C10.4,10 10.3,9.90000004 10.3,9.75000004 L10.3,9.05000004 L9.05000004,9.05000004 C8.90000004,9.05000004 8.80000004,8.95000004 8.80000004,8.80000004 C8.80000004,8.65000004 8.90000004,8.55000004 9.05000004,8.55000004 L10.95,8.55000004 C11.4,8.55000004 11.8,8.15000003 11.8,7.70000001 C11.8,7.25000003 11.4,6.85000003 10.95,6.85000003 L10.15,6.85000003 C9.40000004,6.85000003 8.80000004,6.25000003 8.80000004,5.50000002 C8.80000004,4.75000002 9.40000004,4.15000002 10.15,4.15000002 L10.3,4.15000002 L10.3,3.45000001 C10.3,3.30000001 10.4,3.20000001 10.55,3.20000001 C10.7,3.20000001 10.8,3.30000001 10.8,3.45000001 L10.8,4.15000002 L12.0500001,4.15000002 C12.2000001,4.15000002 12.3,4.25000002 12.3,4.40000002 C12.3,4.55000002 12.2000001,4.65000002 12.0500001,4.65000002 L10.15,4.65000002 C9.70000004,4.65000002 9.30000004,5.05000002 9.30000004,5.50000002 C9.30000004,5.95000002 9.70000004,6.35000003 10.15,6.35000003 Z"/>
    </g>
    <rect width="24" height="24"/>
  </g>
</svg>
