<svg xmlns="http://www.w3.org/2000/svg" width="24" height="24" viewBox="0 0 24 24">
  <g fill="none" fill-rule="evenodd">
    <g transform="translate(3.5 2.5)">
      <path d="M3.65000002,9.00000004 C3.65000002,9.00000004 3.65000002,9.00000004 3.65000002,9.00000004 L3.30000001,9.00000004 C1.95000001,9.00000004 0.900000004,10.1 0.900000004,11.4 C0.900000004,12.7000001 2.00000001,13.8000001 3.30000001,13.8000001 L4.05000002,13.8000001 C3.80000002,13.1500001 3.65000002,12.4500001 3.65000002,11.75 L3.65000002,9.00000004 Z"/>
      <path fill="#000" fill-rule="nonzero" d="M15.1000001,7.4 L14.3500001,7.4 L13.0500001,7.4 L13.0500001,5.80000002 C13.0500001,5.10000002 12.5000001,4.55000002 11.8,4.55000002 L10.1,4.55000002 C9.70000004,4.55000002 9.35000004,4.20000002 9.35000004,3.80000002 C9.35000004,3.4 9.70000004,3.05000001 10.1,3.05000001 L13.95,3.05000001 C14.6500001,3.05000001 15.2000001,2.50000001 15.2000001,1.80000001 L15.2000001,1.65000001 C15.2000001,0.950000004 14.6500001,0.400000002 13.95,0.400000002 L12.7500001,0.400000002 C12.6000001,0.400000002 12.5000001,0.500000002 12.5000001,0.650000003 C12.5000001,0.800000003 12.6000001,0.900000002 12.7500001,0.900000002 L13.95,0.900000002 C14.3500001,0.900000002 14.7000001,1.25000001 14.7000001,1.65000001 L14.7000001,1.75000001 C14.7000001,2.15000001 14.3500001,2.50000001 13.95,2.50000001 L10.1,2.50000001 C9.40000004,2.50000001 8.85000004,3.05000001 8.85000004,3.75000002 C8.85000004,4.45000002 9.40000004,5.00000002 10.1,5.00000002 L11.8,5.00000002 C12.2000001,5.00000002 12.5500001,5.35000002 12.5500001,5.75000002 L12.5500001,7.35000003 L11.25,7.35000003 L7.70000003,7.35000003 C7.70000003,7.35000003 7.70000003,7.35000003 7.70000003,7.4 L7.70000003,10 L8.00000003,10 C8.35000003,10 8.65000004,10.3 8.65000004,10.65 L8.65000004,11.7 C8.65000004,12.0500001 8.35000003,12.3500001 8.00000003,12.3500001 L6.95,12.3500001 C6.60000003,12.3500001 6.30000003,12.0500001 6.30000003,11.7 L6.30000003,10.65 C6.30000003,10.3 6.60000003,10 6.95,10 L7.25000003,10 L7.25000003,7.4 C7.25000003,7.4 7.25000003,7.4 7.25000003,7.35000003 L5.25000002,7.35000003 C4.55000002,7.35000003 3.95,7.85000003 3.75000002,8.50000004 C3.75000002,8.50000004 3.70000002,8.50000004 3.70000002,8.50000004 L3.35000001,8.50000004 C1.75000001,8.50000004 0.450000002,9.80000004 0.450000002,11.4 C0.450000002,13.0000001 1.75000001,14.3000001 3.35000001,14.3000001 L4.35000002,14.3000001 C5.30000002,16.1000001 7.15000003,17.3500001 9.30000004,17.3500001 L7.30000003,17.3500001 C7.00000003,17.3500001 6.70000003,17.6000001 6.70000003,17.9500001 L6.70000003,18.0500001 C6.70000003,18.3500001 6.95,18.6500001 7.30000003,18.6500001 L13.0000001,18.6500001 C13.3000001,18.6500001 13.6000001,18.4 13.6000001,18.0500001 L13.6000001,17.9500001 C13.6000001,17.6500001 13.3500001,17.3500001 13.0000001,17.3500001 L11,17.3500001 C14.1000001,17.3500001 16.6000001,14.8500001 16.6000001,11.75 L16.6000001,8.85000004 C16.6000001,8.05000003 15.95,7.4 15.1000001,7.4 Z M3.30000001,13.8500001 C1.95000001,13.8500001 0.900000004,12.7500001 0.900000004,11.45 C0.900000004,10.15 2.00000001,9.05000004 3.30000001,9.05000004 L3.65000002,9.05000004 C3.65000002,9.05000004 3.65000002,9.05000004 3.65000002,9.05000004 L3.65000002,11.8 C3.65000002,12.55 3.80000002,13.2500001 4.05000002,13.8500001 L3.30000001,13.8500001 Z"/>
    </g>
    <rect width="24" height="24"/>
  </g>
</svg>
