<svg xmlns="http://www.w3.org/2000/svg" width="24" height="24" viewBox="0 0 24 24">
  <g fill="none" fill-rule="evenodd">
    <path fill="#000" fill-rule="nonzero" d="M21.0000001,3.00000001 C20.9000001,2.90000001 20.7500001,2.90000001 20.6500001,3.00000001 L19.1500001,4.50000002 C18.95,4.40000002 18.7500001,4.35000002 18.5000001,4.35000002 L12.8500001,4.65000002 C12.6000001,4.65000002 12.3500001,4.80000002 12.1500001,4.95000002 L3.25000001,13.8500001 C2.85000001,14.2500001 2.85000001,14.9500001 3.25000001,15.4000001 L8.60000004,20.7500001 C9.00000004,21.1500001 9.70000004,21.1500001 10.15,20.7500001 L19.0500001,11.85 C19.2500001,11.65 19.3500001,11.4 19.3500001,11.15 L19.6500001,5.50000002 C19.6500001,5.25000002 19.6000001,5.05000002 19.5000001,4.85000002 L21.0000001,3.35000001 C21.1000001,3.25000001 21.1000001,3.10000001 21.0000001,3.00000001 Z M13.8000001,14.3000001 L10.15,17.9500001 C9.75000002,18.3500001 9.15000004,18.3500001 8.75000002,17.9500001 L6.05000003,15.2500001 C5.65000002,14.8500001 5.65000002,14.2500001 6.05000003,13.8500001 L9.70000004,10.2 C10.1,9.80000004 10.7,9.80000004 11.1,10.2 L13.8000001,12.9 C14.2000001,13.3000001 14.2000001,13.9 13.8000001,14.3000001 Z M16.8000001,9.90000004 C16.0500001,10.65 14.8500001,10.65 14.1000001,9.90000004 C13.3500001,9.15000004 13.3500001,7.95000003 14.1000001,7.20000003 C14.8500001,6.45000003 16.0500001,6.45000003 16.8000001,7.20000003 C17.5500001,7.95000003 17.5500001,9.15000004 16.8000001,9.90000004 Z"/>
    <rect width="24" height="24"/>
  </g>
</svg>
