<svg xmlns="http://www.w3.org/2000/svg" width="24" height="24" viewBox="0 0 24 24">
  <g fill="none" fill-rule="evenodd">
    <path fill="#000" fill-rule="nonzero" d="M10.9473684 16.1578947C10.9473684 15.0526316 10.0526316 14.1578947 8.94736842 14.1578947L4.73684211 14.1578947C3.63157895 14.1578947 2.73684211 15.0526316 2.73684211 16.1578947 1.31578947 16.5789474.263157895 17.8947368.263157895 19.4210526.263157895 19.5789474.368421053 19.6842105.526315789 19.6842105L13.1578947 19.6842105C13.3157895 19.6842105 13.4210526 19.5789474 13.4210526 19.4210526 13.4210526 17.8947368 12.3684211 16.5789474 10.9473684 16.1578947zM19.2631579 12.3157895L14.6315789 8.36842105C14.9473684 7.94736842 14.9473684 7.36842105 14.5789474 7L14.2105263 6.63157895 14.8421053 6C15.0526316 6.15789474 15.3684211 6.26315789 15.6315789 6.26315789 16 6.26315789 16.3157895 6.10526316 16.5789474 5.84210526 17.1052632 5.31578947 17.1052632 4.42105263 16.5789474 3.89473684L13.3157895.631578947C12.7894737.105263158 11.8947368.105263158 11.3684211.631578947 11.1052632.894736842 10.9473684 1.21052632 10.9473684 1.57894737 10.9473684 1.89473684 11.0526316 2.15789474 11.2105263 2.36842105L7.47368421 6.10526316C6.94736842 5.73684211 6.15789474 5.78947368 5.73684211 6.26315789 5.47368421 6.52631579 5.31578947 6.84210526 5.31578947 7.21052632 5.31578947 7.57894737 5.47368421 7.89473684 5.73684211 8.15789474L9 11.4210526C9.26315789 11.6842105 9.57894737 11.8421053 9.94736842 11.8421053 10.3157895 11.8421053 10.6315789 11.6842105 10.8947368 11.4210526 11.1578947 11.1578947 11.3157895 10.8421053 11.3157895 10.4736842 11.3157895 10.1578947 11.2105263 9.89473684 11.0526316 9.68421053L11.6842105 9.05263158 12.0526316 9.42105263C12.2631579 9.63157895 12.5263158 9.73684211 12.7894737 9.73684211 13 9.73684211 13.2631579 9.68421053 13.4210526 9.52631579L17.3684211 14.2105263C17.6315789 14.5263158 17.9473684 14.6842105 18.3684211 14.6842105 18.3684211 14.6842105 18.4210526 14.6842105 18.4210526 14.6842105 18.7894737 14.6842105 19.1052632 14.5263158 19.3684211 14.2631579 19.6315789 14 19.7894737 13.6315789 19.7894737 13.2631579 19.7368421 12.8947368 19.5789474 12.5263158 19.2631579 12.3157895z" transform="translate(2 2)"/>
    <rect width="24" height="24"/>
  </g>
</svg>
