<svg xmlns="http://www.w3.org/2000/svg" width="24" height="24" viewBox="0 0 24 24">
  <g fill="none" fill-rule="evenodd">
    <g transform="translate(2.5 2.5)">
      <path d="M.750000003 7.05000003L.750000003 8.30000003 2.00000001 8.30000003C3.15000001 8.30000003 4.10000002 7.35000003 4.10000002 6.20000003L4.10000002 4.95000002 2.85000001 4.95000002C1.70000001 4.90000002.750000003 5.85000002.750000003 7.05000003zM16.1500001 4.90000002L14.9000001 4.90000002 14.9000001 6.15000003C14.9000001 7.30000003 15.8500001 8.25000003 17.0000001 8.25000003L18.2500001 8.25000003 18.2500001 7.00000003C18.2500001 5.85000002 17.3000001 4.90000002 16.1500001 4.90000002z"/>
      <g fill="#000" fill-rule="nonzero">
        <path d="M5.55000002 8.40000003C5.55000002 8.25 5.65000002 8.15000003 5.80000002 8.15000003L7.00000003 8.15000003C6.50000003 6.75 5.60000002 5.45000002 4.40000002 4.40000002 2.40000001 4.25.800000003 2.55000001.800000003.500000002.800000003.350000001.700000003.250000001.550000002.250000001.400000002.250000001.250000001.350000001.250000001.500000002.250000001 2.20000001 1.25 3.70000002 2.65000001 4.45000002 1.30000001 4.55000002.250000001 5.65000002.250000001 7.05000003L.250000001 8.80000004 2.00000001 8.80000004C3.00000001 8.80000004 3.85000002 8.20000003 4.30000002 7.40000003L4.90000002 15.5500001C5.55000002 14.7000001 6.40000003 14.0500001 7.35000003 13.6500001L7.35000003 10.6C7.35000003 9.95000004 7.25 9.30000004 7.10000003 8.70000004L5.80000002 8.70000004C5.65000002 8.70000004 5.55000002 8.55000004 5.55000002 8.40000003zM4.10000002 6.15000003C4.10000002 7.30000003 3.15000001 8.25000003 2.00000001 8.25000003L.750000003 8.25000003.750000003 7.00000003C.750000003 5.85000002 1.70000001 4.90000002 2.85000001 4.90000002L4.10000002 4.90000002 4.10000002 6.15000003zM16.3500001 4.45000002C17.8000001 3.70000002 18.7500001 2.25 18.7500001.500000002 18.7500001.350000001 18.65.250000001 18.5000001.250000001 18.3500001.250000001 18.2500001.350000001 18.2500001.500000002 18.2500001 2.55000001 16.65 4.25 14.65 4.40000002 13.4000001 5.45000002 12.5000001 6.75 12.0500001 8.15000003L13.2500001 8.15000003C13.4000001 8.15000003 13.5000001 8.25 13.5000001 8.40000003 13.5000001 8.55000004 13.4000001 8.65000004 13.2500001 8.65000004L11.9 8.65000004C11.75 9.25 11.65 9.90000004 11.65 10.55L11.65 13.6000001C12.6000001 14.0000001 13.5000001 14.6000001 14.15 15.4500001L14.7500001 7.35000003C15.2000001 8.20000003 16.0500001 8.75 17.0500001 8.75L18.8000001 8.75 18.8000001 7.00000003C18.7500001 5.65000002 17.7000001 4.55000002 16.3500001 4.45000002zM18.2500001 8.30000003L17.0000001 8.30000003C15.8500001 8.30000003 14.9000001 7.35000003 14.9000001 6.20000003L14.9000001 4.95000002 16.1500001 4.95000002C17.3000001 4.95000002 18.2500001 5.90000002 18.2500001 7.05000003L18.2500001 8.30000003z"/>
        <path d="M7.85000003,10.55 L7.85000003,13.45 C8.40000004,13.3000001 8.95000004,13.2000001 9.50000004,13.2000001 C10.05,13.2000001 10.6,13.3000001 11.1,13.45 L11.1,10.6 C11.1,8.35000003 12.1,6.15000003 13.8500001,4.45000002 L5.10000002,4.45000002 C6.85000003,6.15000003 7.85000003,8.30000003 7.85000003,10.55 Z"/>
      </g>
      <path fill="#000" fill-rule="nonzero" d="M7.90000003 15.6500001C7.70000003 15.6500001 7.55000003 15.8000001 7.55000003 16.0000001 7.55000003 16.2000001 7.70000003 16.3500001 7.90000003 16.3500001 8.10000003 16.3500001 8.25000003 16.2000001 8.25000003 16.0000001 8.25000003 15.8000001 8.10000003 15.6500001 7.90000003 15.6500001zM11.1 15.6500001C10.9 15.6500001 10.75 15.8000001 10.75 16.0000001 10.75 16.2000001 10.9 16.3500001 11.1 16.3500001 11.3 16.3500001 11.45 16.2000001 11.45 16.0000001 11.45 15.8000001 11.3 15.6500001 11.1 15.6500001z"/>
      <path fill="#000" fill-rule="nonzero" d="M9.55000004,13.7000001 C7.65000003,13.7000001 5.95000002,14.7000001 5.00000002,16.3000001 C5.15000002,17.7000001 6.35000003,18.7500001 7.75000003,18.7500001 L11.3,18.7500001 C12.7500001,18.7500001 13.9500001,17.6500001 14.0500001,16.2000001 C13.0500001,14.6500001 11.35,13.7000001 9.55000004,13.7000001 Z M7.90000003,16.8500001 C7.40000003,16.8500001 7.05000003,16.4500001 7.05000003,16.0000001 C7.05000003,15.5500001 7.45000003,15.1500001 7.90000003,15.1500001 C8.35000003,15.1500001 8.75000004,15.5500001 8.75000004,16.0000001 C8.75000004,16.4500001 8.35000003,16.8500001 7.90000003,16.8500001 Z M11.1,16.8500001 C10.6,16.8500001 10.25,16.4500001 10.25,16.0000001 C10.25,15.5500001 10.65,15.1500001 11.1,15.1500001 C11.55,15.1500001 11.95,15.5500001 11.95,16.0000001 C11.95,16.4500001 11.6,16.8500001 11.1,16.8500001 Z"/>
    </g>
    <rect width="24" height="24"/>
  </g>
</svg>
