<svg xmlns="http://www.w3.org/2000/svg" width="24" height="24" viewBox="0 0 24 24">
  <g fill="none" fill-rule="evenodd">
    <g fill="#000" fill-rule="nonzero" transform="translate(3 5)">
      <path d="M14.0000001.200000001L1.95.200000001C1.15.200000001.450000002.850000004.450000002 1.7L.450000002 2.50000001 15.5000001 2.50000001 15.5000001 1.65000001C15.5000001.850000004 14.8500001.200000001 14.0000001.200000001zM.450000002 10C.450000002 10.8 1.1 11.5 1.95 11.5L14.0000001 11.5C14.8000001 11.5 15.5000001 10.85 15.5000001 10L15.5000001 4.15000002.450000002 4.15000002.450000002 10zM9.10000004 7.15000003C9.10000004 6.60000003 9.55000004 6.10000003 10.15 6.10000003L12.8000001 6.10000003C13.3500001 6.10000003 13.8500001 6.55000003 13.8500001 7.15000003L13.8500001 7.90000003C13.8500001 8.45000004 13.4000001 8.95000004 12.8000001 8.95000004L10.15 8.95000004C9.60000004 8.95000004 9.10000004 8.50000004 9.10000004 7.90000003L9.10000004 7.15000003zM2.35000001 6.05000003L6.80000003 6.05000003C6.95000003 6.05000003 7.05000003 6.15000003 7.05000003 6.30000003 7.05000003 6.45000003 6.95000003 6.55000003 6.80000003 6.55000003L2.35000001 6.55000003C2.20000001 6.55000003 2.10000001 6.45000003 2.10000001 6.30000003 2.10000001 6.15000003 2.25000001 6.05000003 2.35000001 6.05000003zM2.35000001 7.25000003L6.80000003 7.25000003C6.95000003 7.25000003 7.05000003 7.35000003 7.05000003 7.50000003 7.05000003 7.65000003 6.95000003 7.75000003 6.80000003 7.75000003L2.35000001 7.75000003C2.20000001 7.75000003 2.10000001 7.65000003 2.10000001 7.50000003 2.10000001 7.35000003 2.25000001 7.25000003 2.35000001 7.25000003zM2.35000001 8.50000004L4.50000002 8.50000004C4.65000001 8.50000004 4.75000002 8.60000004 4.75000002 8.75000004 4.75000002 8.90000004 4.70000002 9.00000004 4.55000002 9.00000004L2.40000001 9.00000004C2.25000001 9.00000004 2.15000001 8.90000004 2.15000001 8.75000004 2.15000001 8.60000004 2.25000001 8.50000004 2.35000001 8.50000004z"/>
      <path d="M15.55,13.8000001 L5.05000002,13.8000001 C4.75000002,13.8000001 4.55000002,13.6000001 4.55000002,13.3000001 C4.55000002,13.0000001 4.75000002,12.8000001 5.05000002,12.8000001 L15.55,12.8000001 C16.1000001,12.8000001 16.55,12.3500001 16.55,11.8 L16.55,1.7 C16.55,1.40000001 16.7500001,1.2 17.05,1.2 C17.3500001,1.2 17.55,1.40000001 17.55,1.7 L17.55,11.8 C17.55,12.9000001 16.6500001,13.8000001 15.55,13.8000001 Z"/>
    </g>
    <rect width="24" height="24"/>
  </g>
</svg>
