<svg xmlns="http://www.w3.org/2000/svg" width="24" height="24" viewBox="0 0 24 24">
  <g fill="none" fill-rule="evenodd">
    <g fill="#000" fill-rule="nonzero" transform="translate(3 5)">
      <path d="M14.0000001,0.300000001 L1.95,0.300000001 C1.15,0.300000001 0.450000002,0.950000004 0.450000002,1.8 L0.450000002,10.15 C0.450000002,10.95 1.1,11.65 1.95,11.65 L14.0000001,11.65 C14.8000001,11.65 15.5000001,11 15.5000001,10.15 L15.5000001,1.8 C15.5000001,1 14.8500001,0.300000001 14.0000001,0.300000001 Z M4.55000002,5.10000002 L2.40000001,5.10000002 C2.25000001,5.10000002 2.15000001,5.00000002 2.15000001,4.85000002 C2.15000001,4.70000002 2.25000001,4.60000002 2.40000001,4.60000002 L4.55000002,4.60000002 C4.70000002,4.60000002 4.80000002,4.70000002 4.80000002,4.85000002 C4.80000002,5.00000002 4.70000002,5.10000002 4.55000002,5.10000002 Z M6.80000003,3.90000001 L2.35000001,3.90000001 C2.20000001,3.90000001 2.10000001,3.80000002 2.10000001,3.65000002 C2.10000001,3.50000001 2.20000001,3.40000001 2.35000001,3.40000001 L6.80000003,3.40000001 C6.95000003,3.40000001 7.05000003,3.50000001 7.05000003,3.65000002 C7.05000003,3.80000002 6.95000003,3.90000001 6.80000003,3.90000001 Z M6.80000003,2.65000001 L2.35000001,2.65000001 C2.20000001,2.65000001 2.10000001,2.55000001 2.10000001,2.40000001 C2.10000001,2.25000001 2.20000001,2.15000001 2.35000001,2.15000001 L6.80000003,2.15000001 C6.95000003,2.15000001 7.05000003,2.25000001 7.05000003,2.40000001 C7.05000003,2.55000001 6.95000003,2.65000001 6.80000003,2.65000001 Z M12.1500001,9.20000004 C11.75,9.20000004 11.35,9.05000004 11.1,8.80000004 C10.8,9.10000004 10.4,9.25000004 9.95000004,9.25000004 C9.10000004,9.25000004 8.40000003,8.55000004 8.40000003,7.70000003 C8.40000003,6.85000003 9.10000004,6.15000003 9.95000004,6.15000003 C10.4,6.15000003 10.8,6.30000003 11.1,6.60000003 C11.4,6.30000003 11.75,6.15000003 12.2000001,6.15000003 C13.0500001,6.15000003 13.7500001,6.85000003 13.7500001,7.70000003 C13.7000001,8.50000004 13.0000001,9.20000004 12.1500001,9.20000004 Z"/>
      <path d="M17.05,1.1 C16.7500001,1.1 16.55,1.30000001 16.55,1.6 L16.55,11.7 C16.55,12.2500001 16.1000001,12.7000001 15.55,12.7000001 L5.05000002,12.7000001 C4.75000002,12.7000001 4.55000002,12.9000001 4.55000002,13.2000001 C4.55000002,13.5000001 4.75000002,13.7000001 5.05000002,13.7000001 L15.55,13.7000001 C16.6500001,13.7000001 17.55,12.8000001 17.55,11.7 L17.55,1.6 C17.55,1.30000001 17.3000001,1.1 17.05,1.1 Z"/>
    </g>
    <rect width="24" height="24"/>
  </g>
</svg>
