<svg xmlns="http://www.w3.org/2000/svg" width="24" height="24" viewBox="0 0 24 24">
  <g fill="none" fill-rule="evenodd">
    <path fill="#000" fill-rule="nonzero" d="M15.0000001,6.25 L15.0000001,5.95000002 C16.5000001,5.95000002 17.7000001,4.70000002 17.7000001,3.20000001 C17.7000001,2.55000001 17.1500001,2.00000001 16.5000001,2.00000001 L15.0000001,2.00000001 L15.0000001,0.500000002 C15.0000001,0.350000001 14.9000001,0.250000001 14.7500001,0.250000001 L3.25000001,0.250000001 C3.10000001,0.250000001 3.00000001,0.350000001 3.00000001,0.500000002 L3.00000001,2.05000001 L1.50000001,2.05000001 C0.850000004,2.05000001 0.300000001,2.60000001 0.300000001,3.25 C0.300000001,4.75 1.50000001,5.95000002 3.00000001,6.00000002 L3.00000001,6.30000003 C3.00000001,9.15000004 4.95000002,11.5 7.60000003,12.1500001 C7.55000003,13.5000001 6.45000003,14.6000001 5.05000002,14.6000001 L4.8371735,14.6000001 L4.60000002,14.6000001 C3.55000001,14.75 2.60000001,15.6500001 2.60000001,16.75 L2.60000001,18.5000001 C2.60000001,18.6500001 2.70000001,18.75 2.85000001,18.75 L15.1500001,18.75 C15.3,18.75 15.4000001,18.6500001 15.4000001,18.5000001 L15.4000001,16.7000001 C15.4000001,15.6000001 14.4500001,14.6500001 13.4000001,14.5500001 L13.2500001,14.5500001 L12.9500001,14.5500001 C11.6,14.5500001 10.45,13.4500001 10.4,12.1000001 C13.0500001,11.45 15.0000001,9.10000004 15.0000001,6.25 Z M15.0000001,2.55000001 L16.5000001,2.55000001 C16.9000001,2.55000001 17.2000001,2.85000001 17.2000001,3.25000001 C17.2000001,4.45000002 16.2000001,5.45000002 15.0000001,5.50000002 L15.0000001,2.55000001 Z M3.00000001,5.45000002 C1.8,5.45000002 0.800000003,4.45000002 0.800000003,3.20000001 C0.800000003,2.80000001 1.1,2.50000001 1.50000001,2.50000001 L3.00000001,2.50000001 L3.00000001,5.45000002 Z M11.25,14.5500001 L6.70000003,14.5500001 C7.50000003,14.0500001 8.00000003,13.1500001 8.05000003,12.2000001 C8.35000003,12.2500001 8.65000004,12.3000001 8.95000004,12.3000001 C9.25000004,12.3000001 9.55000004,12.2500001 9.85000004,12.2000001 C9.95000004,13.2000001 10.5,14.0500001 11.25,14.5500001 Z" transform="translate(3 2.5)"/>
    <rect width="24" height="24"/>
  </g>
</svg>
