<svg xmlns="http://www.w3.org/2000/svg" width="24" height="24" viewBox="0 0 24 24">
  <g fill="none" fill-rule="evenodd">
    <path fill="#000" fill-rule="nonzero" d="M15.5500001 13.55L16.4500001 13.55C17.3000001 13.55 17.9500001 12.9000001 17.9500001 12.05L17.9500001 8.55000005C17.9500001 7.70000005 17.3000001 7.05000005 16.4500001 7.05000005L15.5500001 7.05000005C14.7000001 7.05000005 14.0500001 7.70000005 14.0500001 8.55000005L14.0500001 12.05C14.0500001 12.9000001 14.7000001 13.55 15.5500001 13.55zM8.55000003 13.5500001L9.45000004 13.5500001C10.3 13.5500001 10.95 12.9000001 10.95 12.0500001L10.95 5.95000004C10.95 5.10000004 10.3 4.45000004 9.45000004 4.45000004L8.55000003 4.45000004C7.70000003 4.45000004 7.05000003 5.10000004 7.05000003 5.95000004L7.05000003 12.0500001C7.05000003 12.9000001 7.75000003 13.5500001 8.55000003 13.5500001zM1.55 13.5500001L2.45000001 13.5500001C3.30000001 13.5500001 3.95000002 12.9000001 3.95000002 12.0500001L3.95000002 1.80000002C3.95000002.950000021 3.30000001.300000018 2.45000001.300000018L1.55.300000018C.700000003.300000018.0500000002.950000021.0500000002 1.80000002L.0500000002 12.0500001C.0500000002 12.9000001.700000003 13.5500001 1.55 13.5500001z" transform="translate(3 7)"/>
    <rect width="24" height="24"/>
    <path fill="#000" fill-rule="nonzero" d="M9.08500004,8.00000003 C8.97175682,7.99827642 8.87265702,7.92344596 8.84000004,7.81500003 C8.83752119,7.79340427 8.83752119,7.7715958 8.84000004,7.75000003 C8.83104068,7.64016693 8.89651254,7.53786715 9.00000004,7.50000003 L11.215,6.88000003 L0.500000002,0.735000003 C0.413040717,0.695699286 0.356039702,0.610322313 0.353079609,0.514940442 C0.350119516,0.419558571 0.40171674,0.330811347 0.486071702,0.286194042 C0.570426664,0.241576738 0.672823485,0.248872926 0.750000003,0.305000001 L11.485,6.45500003 L10.83,4.11500002 C10.7946222,3.98130875 10.872257,3.84378435 11.005,3.80500002 C11.0693266,3.78661551 11.1383379,3.7947808 11.1965979,3.8276695 C11.2548579,3.86055819 11.297505,3.91542592 11.315,3.98000002 L12.1300001,6.90500003 C12.1350799,6.93813983 12.1350799,6.97186023 12.1300001,7.00500003 C12.1256337,7.04516657 12.1100378,7.08328996 12.0850001,7.11500003 L12.0850001,7.11500003 L12.0850001,7.14500003 L12.0850001,7.14500003 C12.0540618,7.17515529 12.016339,7.19744605 11.975,7.21000003 L11.975,7.21000003 L9.15000004,8.00000003 L9.08500004,8.00000003 Z" transform="translate(7 3.5)"/>
  </g>
</svg>
