<svg xmlns="http://www.w3.org/2000/svg" width="24" height="24" viewBox="0 0 24 24">
  <g fill="none" fill-rule="evenodd">
    <rect width="24" height="24"/>
    <path fill="#000" fill-rule="nonzero" d="M12.4650001,11.76 L9.84000004,11.76 C9.70367012,11.7414909 9.60199666,11.6250807 9.60199666,11.4875 C9.60199666,11.3499194 9.70367012,11.2335092 9.84000004,11.215 L12.4650001,11.215 C13.155356,11.215 13.7150001,10.655356 13.7150001,9.96500004 C13.7150001,9.2746441 13.155356,8.71500004 12.4650001,8.71500004 L11.365,8.71500004 C10.3736489,8.71500004 9.57000004,7.91135116 9.57000004,6.92000003 C9.57000004,5.9286489 10.3736489,5.12500002 11.365,5.12500002 L14.0000001,5.12500002 C14.13633,5.14350918 14.2380034,5.25991937 14.2380034,5.39750002 C14.2380034,5.53508068 14.13633,5.65149086 14.0000001,5.67000002 L11.365,5.67000002 C10.6746441,5.67000002 10.115,6.22964409 10.115,6.92000003 C10.115,7.61035597 10.6746441,8.17000003 11.365,8.17000003 L12.4650001,8.17000003 C13.4563512,8.17000003 14.2600001,8.97364891 14.2600001,9.96500004 C14.2600001,10.9563512 13.4563512,11.76 12.4650001,11.76 L12.4650001,11.76 Z"/>
    <path fill="#000" fill-rule="nonzero" d="M11.915 5.67000002C11.7631217 5.67000002 11.64 5.54687833 11.64 5.39500002L11.64 4.11500002C11.64 3.96312171 11.7631217 3.84000002 11.915 3.84000002 12.0668784 3.84000002 12.1900001 3.96312171 12.1900001 4.11500002L12.1900001 5.39500002C12.1900001 5.54687833 12.0668784 5.67000002 11.915 5.67000002zM11.915 13.0400001C11.7650531 13.0400248 11.6427264 12.9199222 11.64 12.7700001L11.64 11.675C11.64 11.5231217 11.7631217 11.4 11.915 11.4 12.0668784 11.4 12.1900001 11.5231217 12.1900001 11.675L12.1900001 12.7700001C12.1872737 12.9199222 12.064947 13.0400248 11.915 13.0400001z"/>
    <g fill="#000" fill-rule="nonzero" transform="translate(2.5 10)">
      <path d="M18.3700001,11.365 L15.3700001,11.365 C15.2319289,11.365 15.1200001,11.2530712 15.1200001,11.115 C15.1200001,10.9769289 15.2319289,10.865 15.3700001,10.865 L17.7450001,10.865 L11.395,4.50000002 C11.3462132,4.45442112 11.2817622,4.42935684 11.215,4.43000002 C11.1470899,4.42840008 11.0816824,4.45565318 11.035,4.50500002 L8.28000003,7.45500003 C8.14110975,7.6029205 7.94789433,7.68779082 7.74500003,7.69000003 L7.74500003,7.69000003 C7.54582163,7.6915108 7.35455869,7.61211864 7.21500003,7.47000003 L0.285000001,0.545000002 C0.237671838,0.498058352 0.21105042,0.434159386 0.21105042,0.367500002 C0.21105042,0.300840617 0.237671838,0.236941651 0.285000001,0.190000001 C0.382210879,0.0947142813 0.537789125,0.0947142813 0.635000003,0.190000001 L7.55500003,7.10500003 C7.6001402,7.1535692 7.6636981,7.1808083 7.73000003,7.18000003 L7.73000003,7.18000003 C7.79841984,7.17909037 7.8634765,7.1501763 7.91000003,7.10000003 L10.665,4.15500002 C10.8024723,4.00508623 10.9965972,3.91981644 11.2,3.92000002 L11.2,3.92000002 C11.3991784,3.91848925 11.5904414,3.99788141 11.73,4.14000002 L18.5450001,10.935 C18.6191731,11.0060712 18.6411324,11.1158678 18.6000001,11.21 C18.5605911,11.3024884 18.4705182,11.3631898 18.3700001,11.365 L18.3700001,11.365 Z"/>
      <path d="M18.3700001,11.365 C18.2319289,11.365 18.1200001,11.2530712 18.1200001,11.115 L18.1200001,8.06500003 C18.1200001,7.92692885 18.2319289,7.81500003 18.3700001,7.81500003 C18.5080713,7.81500003 18.6200001,7.92692885 18.6200001,8.06500003 L18.6200001,11.115 C18.6200001,11.2530712 18.5080713,11.365 18.3700001,11.365 Z"/>
    </g>
  </g>
</svg>
