<svg xmlns="http://www.w3.org/2000/svg" width="24" height="24" viewBox="0 0 24 24">
  <g fill="none" fill-rule="evenodd">
    <g fill="#000" fill-rule="nonzero" transform="translate(3 3)">
      <path d="M2.55 17.8000001L1.45000001 17.8000001C.650000003 17.8000001.0500000002 17.1500001.0500000002 16.4L.0500000002 8.80000004C.0500000002 8.00000003.700000003 7.40000003 1.45000001 7.40000003L2.50000001 7.40000003C3.30000001 7.40000003 3.90000002 8.05000003 3.90000002 8.80000004L3.90000002 16.4C3.95000002 17.1500001 3.30000001 17.8000001 2.55 17.8000001zM9.55000004 17.8000001L8.50000004 17.8000001C7.70000003 17.8000001 7.10000003 17.1500001 7.10000003 16.4000001L7.10000003 5.95000002C7.10000003 5.15000002 7.75000003 4.55000002 8.50000004 4.55000002L9.55000004 4.55000002C10.35 4.55000002 10.95 5.20000002 10.95 5.95000002L10.95 16.3500001C10.95 17.1500001 10.3 17.8000001 9.55000004 17.8000001zM16.5500001 17.8000001L15.5000001 17.8000001C14.7000001 17.8000001 14.1000001 17.1500001 14.1000001 16.4000001L14.1000001 11.1C14.1000001 10.3 14.7500001 9.70000004 15.5000001 9.70000004L16.5500001 9.70000004C17.3500001 9.70000004 17.9500001 10.35 17.9500001 11.1L17.9500001 16.4000001C17.9500001 17.1500001 17.3000001 17.8000001 16.5500001 17.8000001z"/>
      <path d="M16.0000001,5.35000002 C15.8500001,5.35000002 15.7500001,5.45000002 15.7500001,5.60000002 L15.7500001,6.95000003 L10,0.750000003 C9.40000004,0.150000001 8.50000004,-2.77555756e-17 7.75000003,0.450000002 L1.85000001,4.30000002 C1.75000001,4.35000002 1.70000001,4.55000002 1.75000001,4.65000002 C1.80000001,4.75000002 2.00000001,4.80000002 2.10000001,4.75000002 L8.05000003,0.900000004 C8.55000004,0.550000002 9.25000004,0.650000003 9.65000004,1.1 L15.4000001,7.25000003 L14.1000001,7.25000003 C13.9500001,7.25000003 13.8500001,7.35000003 13.8500001,7.50000003 C13.8500001,7.65000003 13.9500001,7.75000003 14.1000001,7.75000003 L16.0000001,7.75000003 C16.1500001,7.75000003 16.2500001,7.65000003 16.2500001,7.50000003 L16.2500001,5.55000002 C16.2500001,5.45000002 16.1500001,5.35000002 16.0000001,5.35000002 Z"/>
    </g>
    <rect width="24" height="24"/>
  </g>
</svg>
