<svg xmlns="http://www.w3.org/2000/svg" width="24" height="24" viewBox="0 0 24 24">
  <g fill="none" fill-rule="evenodd">
    <path fill="#000" fill-rule="nonzero" d="M18.5000001,4.45000002 C18.9000001,4.45000002 19.2000001,4.15000002 19.2000001,3.75000002 L19.2000001,3.60000001 C19.2000001,3.20000001 18.9000001,2.90000001 18.5000001,2.90000001 L5.50000002,2.90000001 C5.10000002,2.90000001 4.80000002,3.20000001 4.80000002,3.60000002 L4.80000002,3.75000002 C4.80000002,4.15000002 5.10000002,4.45000002 5.50000002,4.45000002 L6.00000003,4.45000002 L6.00000003,5.80000002 L5.50000002,5.80000002 C5.10000002,5.80000002 4.80000002,6.10000003 4.80000002,6.50000003 L4.80000002,6.65000003 C4.80000002,7.05000003 5.10000002,7.35000003 5.50000002,7.35000003 L6.00000003,7.35000003 L6.00000003,16.7000001 L5.50000002,16.7000001 C5.10000002,16.7000001 4.80000002,17.0000001 4.80000002,17.4 L4.80000002,17.5000001 C4.80000002,17.9 5.10000002,18.2000001 5.50000002,18.2000001 L6.00000003,18.2000001 L6.00000003,19.5500001 L5.50000002,19.5500001 C5.10000002,19.5500001 4.80000002,19.8500001 4.80000002,20.2500001 L4.80000002,20.4 C4.80000002,20.8000001 5.10000002,21.1000001 5.50000002,21.1000001 L18.5000001,21.1000001 C18.9000001,21.1000001 19.2000001,20.8000001 19.2000001,20.4 L19.2000001,20.2500001 C19.2000001,19.8500001 18.9000001,19.5500001 18.5000001,19.5500001 L18.0000001,19.5500001 L18.0000001,18.2000001 L18.5000001,18.2000001 C18.9000001,18.2000001 19.2000001,17.9 19.2000001,17.5000001 L19.2000001,17.3500001 C19.2000001,16.9500001 18.9000001,16.6500001 18.5000001,16.6500001 L18.0000001,16.6500001 L18.0000001,7.35000003 L18.5000001,7.35000003 C18.9000001,7.35000003 19.2000001,7.05000003 19.2000001,6.65000003 L19.2000001,6.50000003 C19.2000001,6.10000003 18.9000001,5.80000002 18.5000001,5.80000002 L18.0000001,5.80000002 L18.0000001,4.45000002 L18.5000001,4.45000002 Z M13.0000001,13.8000001 C12.4500001,14.3500001 11.6,14.3500001 11.05,13.8000001 C10.6,13.3500001 10.5,12.7000001 10.8,12.2000001 L12.0500001,9.75000004 L13.3000001,12.2000001 C13.5000001,12.75 13.4000001,13.4000001 13.0000001,13.8000001 Z"/>
    <rect width="24" height="24"/>
  </g>
</svg>
