<svg xmlns="http://www.w3.org/2000/svg" width="24" height="24" viewBox="0 0 24 24">
  <g fill="none" fill-rule="evenodd">
    <path fill="#000" fill-rule="nonzero" d="M19.4500001,7.05000003 L16.8000001,7.05000003 C17.25,6.65000003 17.5500001,6.10000003 17.5500001,5.40000002 L17.5500001,5.25000002 C17.5500001,4.00000001 16.5500001,3.00000001 15.3000001,3.00000001 L14.0000001,3.00000001 C13.1000001,3.00000001 12.3000001,3.55000001 11.95,4.30000002 C11.55,3.55000001 10.8,3.00000001 9.90000004,3.00000001 L8.60000004,3.00000001 C7.35000003,3.00000001 6.35000003,4.00000001 6.35000003,5.25000002 L6.35000003,5.40000002 C6.35000003,6.05000003 6.65000003,6.65000003 7.10000003,7.05000003 L4.55000002,7.05000003 C3.55000001,7.05000003 2.75000001,7.85000003 2.75000001,8.85000004 L2.75000001,11.25 L4.15000002,11.25 L4.15000002,19.2000001 C4.15000002,20.2000001 4.95000002,21 5.95000002,21 L10.5,21 L10.5,11 L10.5,7.60000003 L10.5,7.60000003 C10.5,7.60000003 10.5,7.60000003 10.5,7.60000003 L13.6000001,7.60000003 L13.6000001,10 L13.6000001,21 L18.1500001,21 C19.1500001,21 19.9500001,20.2000001 19.9500001,19.2000001 L19.9500001,11.25 L21.3500001,11.25 L21.3500001,8.85000004 C21.25,7.85000003 20.4500001,7.05000003 19.4500001,7.05000003 Z"/>
    <rect width="24" height="24"/>
  </g>
</svg>
