<svg xmlns="http://www.w3.org/2000/svg" width="24" height="24" viewBox="0 0 24 24">
  <g fill="none" fill-rule="evenodd">
    <path fill="#000" fill-rule="nonzero" d="M20.5500001,14.7500001 L17.8500001,5.50000002 C17.7000001,4.95000002 17.2500001,4.55000002 16.7000001,4.40000002 C16.1500001,4.25000002 15.5500001,4.40000002 15.1500001,4.85000002 C15.0500001,4.95000002 15.0500001,5.10000002 15.1500001,5.20000002 C15.2500001,5.30000002 15.4000001,5.30000002 15.5000001,5.20000002 C15.8000001,4.90000002 16.2000001,4.80000002 16.5500001,4.90000002 C16.9500001,5.00000002 17.2500001,5.30000002 17.3500001,5.65000002 L19.8500001,14.2000001 C19.7000001,14.1500001 19.5500001,14.1000001 19.3500001,14.1000001 L14.7000001,14.1000001 C14.3000001,14.1000001 13.9000001,14.3000001 13.6000001,14.6000001 C13.4500001,14.8000001 13.3500001,15.0500001 13.3000001,15.3000001 C12.4500001,14.8500001 11.45,14.8500001 10.6,15.3000001 C10.55,15.0500001 10.45,14.8500001 10.3,14.6500001 C10.05,14.3000001 9.65000004,14.1500001 9.20000004,14.1500001 L4.65000002,14.1500001 C4.50000002,14.1500001 4.30000002,14.2000001 4.15000002,14.2500001 L6.65000003,5.70000002 C6.75000003,5.30000002 7.05000003,5.05000002 7.45000003,4.95000002 C7.85000003,4.85000002 8.25000003,4.95000002 8.50000004,5.25000002 C8.60000004,5.35000002 8.75000004,5.35000002 8.85000004,5.25000002 C8.95000004,5.15000002 8.95000004,5.00000002 8.85000004,4.90000002 C8.45000004,4.50000002 7.85000003,4.35000002 7.30000003,4.45000002 C6.75000003,4.60000002 6.30000003,5.00000002 6.15000003,5.55000002 L3.45000001,14.7500001 C3.30000001,15.0000001 3.20000001,15.3000001 3.25000001,15.6000001 L3.55000001,18.4000001 C3.65000002,19.1000001 4.20000002,19.6500001 4.90000002,19.6500001 L8.60000004,19.6500001 C9.25000004,19.6500001 9.80000004,19.2000001 9.95000004,18.5500001 L10.55,15.8500001 C11.4,15.3000001 12.5000001,15.3000001 13.3000001,15.8500001 L13.9000001,18.5500001 C14.0500001,19.2000001 14.6000001,19.6500001 15.2500001,19.6500001 L18.9500001,19.6500001 C19.6500001,19.6500001 20.2500001,19.1000001 20.3000001,18.4000001 L20.6000001,15.6000001 C20.7000001,15.3000001 20.6000001,15.0308838 20.5500001,14.7500001 Z"/>
    <rect width="24" height="24"/>
  </g>
</svg>
