<svg xmlns="http://www.w3.org/2000/svg" width="24" height="24" viewBox="0 0 24 24">
  <g fill="none" fill-rule="evenodd">
    <g fill="#000" fill-rule="nonzero" transform="translate(6 3)">
      <path d="M7.45000003 6.90000003C7.20000003 6.90000003 6.95000003 7.10000003 6.95000003 7.40000003L6.95000003 7.90000003 7.45000003 7.90000003C7.70000003 7.90000003 7.95000003 7.70000003 7.95000003 7.40000003 7.95000003 7.10000003 7.75000003 6.90000003 7.45000003 6.90000003zM4.55000002 6.90000003C4.30000002 6.90000003 4.05000002 7.10000003 4.05000002 7.40000003 4.05000002 7.70000003 4.25000002 7.90000003 4.55000002 7.90000003L5.05000002 7.90000003 5.05000002 7.40000003C5.00000002 7.10000003 4.80000002 6.90000003 4.55000002 6.90000003z"/>
      <path d="M6,0.250000001 C2.70000001,0.250000001 0,2.95000001 0,6.25 C0,8.00000003 0.750000003,9.55000004 1.90000001,10.65 L2,10.75 L2.30000001,11.1 C3,11.8 3.45000001,12.75 3.55000001,13.7000001 L2.75000001,13.7000001 C2.60000001,13.7000001 2.5,13.8000001 2.5,13.9500001 C2.5,14.1000001 2.60000001,14.2000001 2.75000001,14.2000001 L3.35000001,14.2000001 L3.35000001,15.1000001 C3.35000001,16.5500001 4.55000002,17.75 6,17.75 C7.45000003,17.75 8.65000004,16.5500001 8.65000004,15.1000001 L8.65000004,14.2000001 L9.25000004,14.2000001 C9.40000004,14.2000001 9.5,14.1000001 9.5,13.9500001 C9.5,13.8000001 9.40000004,13.7000001 9.25000004,13.7000001 L8.45000004,13.7000001 C8.55000004,12.7000001 9,11.8 9.70000004,11.1 L10,10.75 L10.1,10.65 C11.25,9.55000004 12,8.00000003 12,6.25 C12,2.95000001 9.30000004,0.250000001 6,0.250000001 Z M7.45000003,8.35000003 L6.95000003,8.35000003 L6.95000003,13.7500001 C6.95000003,13.9000001 6.85000003,14.0000001 6.70000003,14.0000001 C6.55000003,14.0000001 6.50000001,13.9500001 6.50000001,13.8000001 L6.50000001,8.35000003 L5.50000001,8.35000003 L5.50000001,13.7500001 C5.50000001,13.9000001 5.40000002,14.0000001 5.25000002,14.0000001 C5.10000002,14.0000001 5.00000001,13.9500001 5.00000001,13.8000001 L5.00000001,8.35000003 L4.50000001,8.35000003 C3.95000002,8.35000003 3.50000001,7.90000003 3.50000001,7.35000003 C3.50000001,6.80000003 3.95000002,6.35000003 4.50000001,6.35000003 C5.05000002,6.35000003 5.50000001,6.80000003 5.50000001,7.35000003 L5.50000001,7.85000003 L6.50000001,7.85000003 L6.50000001,7.35000003 C6.50000001,6.80000003 6.95000003,6.35000003 7.50000001,6.35000003 C8.05000003,6.35000003 8.50000001,6.80000003 8.50000001,7.35000003 C8.45000004,7.95000003 8.00000001,8.35000003 7.45000003,8.35000003 Z"/>
    </g>
    <rect width="24" height="24"/>
  </g>
</svg>
