<svg xmlns="http://www.w3.org/2000/svg" width="24" height="24" viewBox="0 0 24 24">
  <g fill="none" fill-rule="evenodd">
    <path fill="#000" fill-rule="nonzero" d="M15.5000001 17.8000001L16.5000001 17.8000001C17.3000001 17.8000001 17.9500001 17.1500001 17.9500001 16.3500001L17.9500001 5.65000002C17.9500001 4.85000002 17.3000001 4.20000002 16.5000001 4.20000002L15.5000001 4.20000002C14.7000001 4.20000002 14.0500001 4.85000002 14.0500001 5.65000002L14.0500001 16.3500001C14.0500001 17.1500001 14.7000001 17.8000001 15.5000001 17.8000001zM8.55000003 17.8000001L9.45000004 17.8000001C10.3 17.8000001 10.95 17.1500001 10.95 16.3000001L10.95 11.9C10.95 11.05 10.3 10.4 9.45000004 10.4L8.55000003 10.4C7.70000003 10.4 7.05000003 11.05 7.05000003 11.9L7.05000003 16.3000001C7.05000003 17.1000001 7.75000003 17.8000001 8.55000003 17.8000001zM1.50000001 17.8000001L2.50000001 17.8000001C3.30000001 17.8000001 3.95000002 17.15 3.95000002 16.3500001L3.95000002 8.60000004C3.95000002 7.80000003 3.30000001 7.15000003 2.50000001 7.15000003L1.50000001 7.15000003C.700000003 7.15000003.0500000002 7.80000003.0500000002 8.60000004L.0500000002 16.3500001C.0500000002 17.15.700000003 17.8000001 1.50000001 17.8000001zM16.0500001.200000001L14.1500001.200000001C14.0000001.200000001 13.9000001.300000001 13.9000001.450000002 13.9000001.600000002 14.0000001.700000001 14.1500001.700000001L15.4500001.700000001 9.70000004 6.90000003C9.30000004 7.35000003 8.60000004 7.45000003 8.10000003 7.10000003L2.15000001 3.25000001C2.05000001 3.2 1.90000001 3.2 1.80000001 3.35000001 1.75000001 3.45000001 1.75000001 3.60000001 1.90000001 3.7L7.80000003 7.50000003C8.10000003 7.7 8.40000003 7.80000003 8.75000004 7.80000003 9.20000004 7.80000003 9.70000004 7.60000003 10.05 7.25000003L15.8000001 1.05 15.8000001 2.40000001C15.8000001 2.55000001 15.9000001 2.65000001 16.0500001 2.65000001 16.2000001 2.65000001 16.3000001 2.55000001 16.3000001 2.40000001L16.3000001.450000002C16.3000001.300000001 16.1500001.200000001 16.0500001.200000001z" transform="translate(3 3)"/>
    <rect width="24" height="24"/>
  </g>
</svg>
