<svg xmlns="http://www.w3.org/2000/svg" width="24" height="24" viewBox="0 0 24 24">
  <g fill="none" fill-rule="evenodd">
    <path fill="#000" fill-rule="nonzero" d="M18.4500001,9.40000003 L19.3000001,9.65000003 C19.3000001,9.65000003 19.3500001,9.65000003 19.3500001,9.65000003 C19.4500001,9.65000003 19.5500001,9.60000003 19.6000001,9.45000003 C19.6500001,9.30000003 19.5500001,9.20000003 19.4500001,9.15000003 L13.5500001,7.35000002 C13.5500001,7.30000002 13.5500001,7.20000002 13.5500001,7.15000002 C13.5500001,6.30000002 12.8500001,5.60000001 12.0000001,5.60000001 C11.4,5.60000001 10.85,5.95000002 10.6,6.45000002 L4.70000002,4.75000001 C4.60000002,4.70000001 4.45000002,4.80000001 4.40000002,4.95000001 C4.35000002,5.05000001 4.45000002,5.20000001 4.55000002,5.25000001 L5.65000002,5.60000001 L6.55000003,5.80000002 L10.55,7.00000002 C10.55,7.05000002 10.55,7.15000002 10.55,7.20000002 C10.55,7.95000002 11.1,8.60000003 11.85,8.75000003 L11.85,17.7000001 L11.7,17.7000001 C10.45,17.7000001 9.45000004,18.7000001 9.40000004,19.9000001 C8.05000003,20.3000001 7.10000003,21.5500001 7.10000003,23.0000001 C7.10000003,23.1500001 7.20000003,23.2500001 7.35000003,23.2500001 L16.9500001,23.2500001 C17.1000001,23.2500001 17.2000001,23.1500001 17.2000001,23.0000001 C17.2000001,21.5500001 16.2000001,20.3000001 14.9000001,19.9000001 C14.8500001,18.6500001 13.8500001,17.7000001 12.6000001,17.7000001 L12.4000001,17.7000001 L12.4000001,8.75000003 C12.9000001,8.65000003 13.3500001,8.35000003 13.5500001,7.90000002 L17.8500001,9.20000003 L18.4500001,9.40000003 Z"/>
    <g fill="#000" fill-rule="nonzero" transform="translate(3.36 5.21)">
      <path d="M14.5550001 11.8347119C14.4617366 11.8398199 14.3682635 11.8398199 14.2750001 11.8347119 13.4599219 11.7486442 12.7387988 11.2685182 12.3450001 10.5497119 11.9139494 9.77843293 11.8859597 8.84544359 12.2700001 8.04971189L14.3300001 3.78971187C14.3764879 3.70943001 14.4622299 3.66000002 14.5550001 3.66000002 14.6477702 3.66000002 14.7335122 3.70943001 14.7800001 3.78971187L16.8400001 8.04471189C17.2240404 8.84044359 17.1960507 9.77343293 16.7650001 10.5447119 16.3712013 11.2635182 15.6500782 11.7436442 14.8350001 11.8297119 14.7418279 11.8364861 14.6483547 11.8381553 14.5550001 11.8347119zM14.5550001 4.45971188L12.7200001 8.24971189C12.4058394 8.89923033 12.4301277 9.66151069 12.7850001 10.2897119 13.0975589 10.8663663 13.6730057 11.2531114 14.3250001 11.3247119 14.477966 11.339723 14.6320341 11.339723 14.7850001 11.3247119 15.4388406 11.2581917 16.0164479 10.8699946 16.3250001 10.2897119 16.6798724 9.66151069 16.7041607 8.89923033 16.3900001 8.24971189L14.5550001 4.45971188zM2.55500001 8.16971189L2.27500001 8.16971189C1.4599219 8.08364423.738798756 7.6035182.345000001 6.88471189-.0843753537 6.11297046-.112340324 5.18080477.270000001 4.38471188L2.33000001.129711858C2.3764879.0494299966 2.46222986 1.77635684e-14 2.55500001 1.77635684e-14 2.64777016 1.77635684e-14 2.73351212.0494299966 2.78000001.129711858L4.84000002 4.38471188C5.22234035 5.18080477 5.19437537 6.11297046 4.76500002 6.88471189 4.37120127 7.6035182 3.65007812 8.08364423 2.83500001 8.16971189L2.55500001 8.16971189zM2.55500001.789711861L.720000003 4.58971188C.405839343 5.23923032.430127688 6.00151067.785000003 6.62971189 1.09478753 7.20806844 1.67217645 7.59424415 2.32500001 7.65971189 2.47796595 7.674723 2.63203407 7.674723 2.78500001 7.65971189 3.43782357 7.59424415 4.01521249 7.20806844 4.32500002 6.62971189 4.67987233 6.00151067 4.70416068 5.23923032 4.39000002 4.58971188L2.55500001.789711861z"/>
      <path d="M4.85500002 5.84471188L.250000001 5.84471188C.111928813 5.84471188-4.4408921e-15 5.73278307-4.4408921e-15 5.59471188-4.4408921e-15 5.45664069.111928813 5.34471188.250000001 5.34471188L4.85500002 5.34471188C4.99307121 5.34471188 5.10500002 5.45664069 5.10500002 5.59471188 5.10500002 5.73278307 4.99307121 5.84471188 4.85500002 5.84471188zM16.8550001 9.5047119L12.2550001 9.5047119C12.1169289 9.5047119 12.0050001 9.39278308 12.0050001 9.2547119 12.0050001 9.11664071 12.1169289 9.0047119 12.2550001 9.0047119L16.8550001 9.0047119C16.9930713 9.0047119 17.1050001 9.11664071 17.1050001 9.2547119 17.1050001 9.39278308 16.9930713 9.5047119 16.8550001 9.5047119z"/>
    </g>
    <rect width="24" height="24"/>
  </g>
</svg>
