<svg xmlns="http://www.w3.org/2000/svg" width="24" height="24" viewBox="0 0 24 24">
  <g fill="none" fill-rule="evenodd">
    <g fill="#000" fill-rule="nonzero" transform="translate(5 3)">
      <path d="M13.6000001,5.45000002 C13.0000001,2.35000001 10.3,0 7.00000003,0 C3.30000001,0 0.250000001,3 0.250000001,6.75000003 C0.250000001,12.3000001 6.30000003,17.7000001 6.55000003,17.9000001 C6.65000003,18 6.80000003,18.0500001 6.95000003,18.0500001 C7.10000003,18.0500001 7.25,18 7.35000003,17.9000001 C7.60000003,17.7000001 13.3000001,12.6000001 13.6500001,7.25000003 C13.6833334,6.31666669 13.6666667,5.71666669 13.6000001,5.45000002 Z M7.00000003,10.8 C4.55000002,10.8 2.60000001,8.85000004 2.60000001,6.40000003 C2.60000001,3.95000002 4.55000002,2.00000001 7.00000003,2.00000001 C9.45000004,2.00000001 11.4,3.95000002 11.4,6.40000003 C11.4,8.80000004 9.45000004,10.8 7.00000003,10.8 Z"/>
      <path d="M7.40000003,6.15000003 L6.75000003,6.15000003 C6.40000003,6.15000003 6.10000003,5.85000002 6.10000003,5.50000002 C6.10000003,5.15000002 6.40000003,4.85000002 6.75000003,4.85000002 L8.35000003,4.85000002 C8.50000004,4.85000002 8.60000004,4.75000002 8.60000004,4.60000001 C8.60000004,4.45000002 8.50000004,4.35000002 8.35000003,4.35000002 L7.35000003,4.35000002 L7.35000003,3.85000002 C7.35000003,3.70000002 7.25000003,3.60000001 7.10000003,3.60000001 C6.95000003,3.60000001 6.85000003,3.70000002 6.85000003,3.85000002 L6.85000003,4.35000002 L6.75000003,4.35000002 C6.10000003,4.35000002 5.60000002,4.85000002 5.60000002,5.50000002 C5.60000002,6.15000003 6.10000003,6.65000003 6.75000003,6.65000003 L7.40000003,6.65000003 C7.75000003,6.65000003 8.05000002,6.95000003 8.05000002,7.30000003 C8.05000002,7.65000003 7.75000003,7.95000003 7.40000003,7.95000003 L5.80000002,7.95000003 C5.65000002,7.95000003 5.55000002,8.05000003 5.55000002,8.20000003 C5.55000002,8.35000003 5.65000002,8.45000004 5.80000002,8.45000004 L6.80000003,8.45000004 L6.80000003,8.95000004 C6.80000003,9.10000001 6.90000003,9.20000004 7.05000002,9.20000004 C7.20000003,9.20000004 7.30000003,9.10000001 7.30000003,8.95000004 L7.30000003,8.45000004 L7.40000003,8.45000004 C8.05000002,8.45000004 8.55000002,7.95000003 8.55000002,7.30000003 C8.55000002,6.65000003 8.05000002,6.15000003 7.40000003,6.15000003 Z"/>
    </g>
    <rect width="24" height="24"/>
  </g>
</svg>
