<svg xmlns="http://www.w3.org/2000/svg" width="24" height="24" viewBox="0 0 24 24">
  <g fill="none" fill-rule="evenodd">
    <path fill="#000" fill-rule="nonzero" d="M19,4.90000002 L5.00000001,4.90000002 C3.90000002,4.90000002 3.00000001,5.80000002 3.00000001,6.90000002 L3.00000001,17.1000001 C3.00000001,18.2000001 3.90000002,19.1000001 5.00000001,19.1000001 L19,19.1000001 C20.1000001,19.1000001 21,18.2000001 21,17.1000001 L21,6.90000002 C21,5.80000002 20.1000001,4.90000002 19,4.90000002 Z M18.8000001,9.40000004 L15.6000001,12.2000001 L17.7500001,13.8500001 C17.8500001,13.9500001 17.9000001,14.1000001 17.8000001,14.2000001 C17.7500001,14.2500001 17.7000001,14.3000001 17.6000001,14.3000001 C17.5500001,14.3000001 17.5000001,14.3000001 17.4500001,14.2500001 L15.2500001,12.5500001 L14.8000001,12.9500001 C14.0000001,13.6500001 13.0500001,13.9500001 12.0500001,13.9500001 C11.05,13.9500001 10.1,13.6000001 9.30000004,12.9500001 L8.75000004,12.5000001 C8.75000004,12.5000001 8.75000004,12.5000001 8.75000004,12.5000001 L6.45000003,14.2500001 C6.40000003,14.3000001 6.35000003,14.3000001 6.30000003,14.3000001 C6.20000003,14.3000001 6.15000003,14.2500001 6.10000003,14.2000001 C6.00000003,14.1000001 6.05000003,13.9500001 6.15000003,13.8500001 L8.40000004,12.1500001 L5.30000002,9.45000004 C5.20000002,9.35000004 5.20000002,9.20000004 5.30000002,9.10000004 C5.40000002,9.00000004 5.55000002,9.00000004 5.65000002,9.10000004 L9.70000004,12.6000001 C11.1,13.8000001 13.2000001,13.8000001 14.5500001,12.6000001 L18.6000001,9.10000004 C18.7000001,9.00000004 18.8500001,9.00000004 18.9500001,9.10000004 C18.9000001,9.20000004 18.9000001,9.35000004 18.8000001,9.40000004 Z"/>
    <rect width="24" height="24"/>
  </g>
</svg>
