<svg xmlns="http://www.w3.org/2000/svg" width="24" height="24" viewBox="0 0 24 24">
  <g fill="none" fill-rule="evenodd">
    <g fill="#000" fill-rule="nonzero" transform="translate(6 2.5)">
      <path d="M11.0487778,6.04363839 L11.0487778,6.04363839 C11.035423,6.01718363 11.0162076,5.99412512 10.9925947,5.97621877 L10.9925947,5.97621877 C10.9667882,5.95982814 10.9370096,5.95076509 10.9064474,5.95000002 L9.45692541,5.95000002 C9.36176972,5.95000002 9.2846308,6.02713894 9.2846308,6.12229463 C9.2846308,6.21745031 9.36176972,6.29458924 9.45692541,6.29458924 L10.4719654,6.29458924 L7.54670257,9.20861545 C7.51977772,9.23236573 7.48521926,9.24565745 7.44931866,9.2460708 C7.41268783,9.24574772 7.37767492,9.23093457 7.35193475,9.20486991 L6.11965375,7.8864416 C6.03137188,7.79190159 5.90815552,7.73774055 5.77881007,7.7366202 C5.64862318,7.73318399 5.52272053,7.7832743 5.43047531,7.875205 L2.15313221,11.1525481 C2.08598127,11.2198102 2.08598127,11.3287458 2.15313221,11.3960079 C2.18439472,11.4289118 2.22760631,11.4478169 2.27298933,11.4484454 C2.31949976,11.4479815 2.36393642,11.4291296 2.39659199,11.3960079 L5.67393509,8.11866477 C5.69981555,8.0932429 5.73507348,8.07968216 5.771319,8.08120942 C5.80729637,8.08439624 5.8413625,8.09880883 5.86870291,8.1224103 L7.10098391,9.44083861 C7.19026528,9.53395942 7.31285195,9.58784367 7.44182759,9.59066001 C7.57148073,9.59119105 7.69630926,9.54152809 7.79016235,9.45207522 L10.7154252,6.52306687 L10.7154252,7.57181666 C10.7154252,7.66697235 10.7925641,7.74411127 10.8877198,7.74411127 C10.9337244,7.74514548 10.9781517,7.72732537 11.0106901,7.69478696 C11.0432285,7.66224856 11.0610486,7.61782129 11.060057,7.57181666 L11.060057,6.10731249 C11.0602322,6.08557608 11.0564224,6.06398731 11.0487778,6.04363839 L11.0487778,6.04363839 Z"/>
      <path d="M11.55,14.9000001 C11.55,14.9000001 11.55,14.9000001 11.55,14.9000001 L11.55,10.5 C11.55,10.35 11.45,10.25 11.3,10.25 C11.15,10.25 11,10.35 11,10.5 L11,13.8500001 L1,13.9000001 L0.950000002,3.65000002 L10.95,3.60000001 L10.95,4.35000002 C10.95,4.50000002 11.05,4.60000002 11.2,4.60000002 C11.2,4.60000002 11.2,4.60000002 11.2,4.60000002 C11.35,4.60000002 11.45,4.50000002 11.45,4.35000002 L11.45,3.35000001 C11.45,3.35000001 11.45,3.35000001 11.45,3.35000001 C11.45,3.35000001 11.45,3.35000001 11.45,3.35000001 L11.45,2.40000001 C11.45,1.2 10.45,0.200000001 9.20000004,0.200000001 C9.20000004,0.200000001 9.20000004,0.200000001 9.20000004,0.200000001 L2.65000001,0.300000001 C2.05000001,0.300000001 1.50000001,0.550000002 1.1,0.950000004 C0.700000003,1.35000001 0.450000002,1.90000001 0.450000002,2.50000001 L0.450000002,3.45000001 C0.450000002,3.45000001 0.450000002,3.45000001 0.450000002,3.45000001 C0.450000002,3.45000001 0.450000002,3.45000001 0.450000002,3.45000001 L0.500000002,14.7 C0.500000002,14.7 0.500000002,14.7 0.500000002,14.7 L0.500000002,16.5500001 C0.500000002,17.7500001 1.50000001,18.7500001 2.75000001,18.7500001 C2.75000001,18.7500001 2.75000001,18.7500001 2.75000001,18.7500001 L9.30000004,18.7 C9.90000004,18.7 10.45,18.4500001 10.85,18.0500001 C11.25,17.6500001 11.5,17.1000001 11.5,16.5000001 L11.55,14.9000001 Z M6.00000002,15.5 C6.55228477,15.5 7.00000002,15.9477153 7.00000002,16.5 C7.00000002,17.0522848 6.55228477,17.5 6.00000002,17.5 C5.44771528,17.5 5.00000002,17.0522848 5.00000002,16.5 C5.00000002,15.9477153 5.44771528,15.5 6.00000002,15.5 Z M6.95000003,1.70000001 C7.10000003,1.70000001 7.20000003,1.80000001 7.20000003,1.95000001 C7.20000003,2.10000001 7.10000003,2.20000001 6.95000003,2.20000001 L5.00000002,2.20000001 L5.00000002,2.20000001 C4.85000002,2.20000001 4.75000002,2.10000001 4.75000002,1.95000001 C4.75000002,1.80000001 4.85000002,1.70000001 5.00000002,1.70000001 L6.95000003,1.70000001 L6.95000003,1.70000001 Z"/>
    </g>
    <rect width="24" height="24"/>
  </g>
</svg>
