<svg xmlns="http://www.w3.org/2000/svg" width="24" height="24" viewBox="0 0 24 24">
  <g fill="none" fill-rule="evenodd">
    <g fill="#000" fill-rule="nonzero" transform="translate(2.5 4)">
      <path d="M12.8000001,2.65000001 L10.3,2.65000001 C10.1,2.65000001 9.90000004,2.75000001 9.80000004,2.85000001 C9.75000004,2.90000001 9.75000004,3.00000001 9.75000004,3.05000001 L10.65,5.65000001 C10.7,5.80000002 10.95,5.95000002 11.2,5.95000002 L13.7000001,5.95000002 L13.9500001,5.95000002 L14.25,5.95000002 C14.1500001,5.75000002 14.0500001,5.60000002 14.0000001,5.40000002 L13.3000001,2.65000001 L13.0500001,2.65000001 L12.8000001,2.65000001 Z"/>
      <path d="M18.75,9.65000004 L18.5000001,9.65000004 L18.25,9.65000004 L16.2000001,9.65000004 C16.0500001,9.65000004 15.9500001,9.55000004 15.9500001,9.40000004 C15.9500001,9.25000004 16.0500001,9.15000004 16.2000001,9.15000004 L17.7000001,9.15000004 L18.1500001,9.15000004 L18.5000001,9.15000004 C18.4500001,9.10000004 18.4000001,9.05000004 18.3000001,9.00000004 L15.0000001,6.85000003 C14.8500001,6.75000003 14.7000001,6.60000003 14.5500001,6.45000003 L14.2000001,6.45000003 L13.9000001,6.45000003 L11.15,6.45000003 C10.65,6.45000003 10.25,6.20000003 10.15,5.85000002 L9.25,3.25000001 C9.15000004,3.00000001 9.20000004,2.8 9.35000004,2.60000001 C9.55000004,2.35000001 9.90000004,2.20000001 10.25,2.20000001 L12.6500001,2.20000001 L12.9000001,2.20000001 L13.1500001,2.20000001 L12.8500001,1 C12.75,0.600000002 12.4000001,0.300000001 11.95,0.300000001 L3.15000001,0.300000001 C1.55000001,0.300000001 0.250000001,1.60000001 0.250000001,3.20000001 L0.250000001,13.2000001 C0.250000001,13.7000001 0.650000003,14.1000001 1.15,14.1000001 L2.65000001,14.1000001 C2.75,15.0500001 3.55000001,15.7500001 4.55000002,15.7500001 C5.50000002,15.7500001 6.30000003,15.0000001 6.45000003,14.1000001 L12.6000001,14.1000001 C12.7000001,15.0500001 13.5000001,15.7500001 14.5000001,15.7500001 C15.4500001,15.7500001 16.25,15.0000001 16.4000001,14.1000001 L17.9000001,14.1000001 C18.4000001,14.1000001 18.8000001,13.7000001 18.8000001,13.2000001 L18.8000001,9.8 C18.75,9.70000004 18.75,9.70000004 18.75,9.65000004 Z M5.05000002,6.25000003 L5.80000002,6.25000003 C6.50000003,6.25000003 7.05000003,6.80000003 7.05000003,7.50000003 C7.05000003,8.20000003 6.50000003,8.75000004 5.80000002,8.75000004 L5.70000002,8.75000004 L5.70000002,9.35000004 C5.70000002,9.50000004 5.60000002,9.60000004 5.45000002,9.60000004 C5.30000002,9.60000004 5.20000002,9.50000004 5.20000002,9.35000004 L5.20000002,8.75000004 L4.00000002,8.75000004 C3.85000002,8.75000004 3.75000002,8.65000004 3.75000002,8.50000004 C3.75000002,8.35000003 3.85000002,8.25000003 4.00000002,8.25000003 L5.75000002,8.25000003 C6.15000003,8.25000003 6.50000003,7.90000001 6.50000003,7.50000003 C6.50000003,7.10000003 6.15000003,6.75000003 5.75000002,6.75000003 L5.00000002,6.75000003 C4.30000002,6.75000003 3.75000002,6.20000003 3.75000002,5.50000002 C3.75000002,4.80000002 4.30000002,4.25000002 5.00000002,4.25000002 L5.10000002,4.25000002 L5.10000002,3.65000002 C5.10000002,3.50000001 5.20000002,3.40000001 5.35000002,3.40000001 C5.50000002,3.40000001 5.60000002,3.50000001 5.60000002,3.65000002 L5.60000002,4.25000002 L6.75000002,4.25000002 C6.90000003,4.25000002 7.00000003,4.35000002 7.00000003,4.50000002 C7.00000003,4.65000002 6.90000003,4.75000002 6.75000002,4.75000002 L5.00000002,4.75000002 C4.55000002,4.75000002 4.25000002,5.10000002 4.25000002,5.50000002 C4.25000002,5.90000001 4.60000002,6.25000003 5.05000002,6.25000003 Z"/>
    </g>
    <rect width="24" height="24"/>
  </g>
</svg>
