<svg xmlns="http://www.w3.org/2000/svg" width="24" height="24" viewBox="0 0 24 24">
  <g fill="none" fill-rule="evenodd">
    <g fill="#000" fill-rule="nonzero" transform="translate(2.5 5.5)">
      <path d="M15.9000001,0.150000001 L1.1,0.150000001 C0.600000002,0.150000001 0.200000001,0.550000002 0.200000001,1.05 L0.200000001,9.95000004 C0.200000001,10.45 0.600000002,10.85 1.1,10.85 L15.8500001,10.85 C16.3500001,10.85 16.7500001,10.45 16.7500001,9.95000004 L16.7500001,1.05 C16.7500001,0.550000002 16.3500001,0.150000001 15.9000001,0.150000001 Z M14.8000001,6.80000003 C13.7000001,6.80000003 12.8000001,7.70000003 12.8000001,8.80000004 L12.8000001,8.90000004 L4.25000001,8.90000004 L4.25000001,8.80000004 C4.25000001,7.70000003 3.35000001,6.80000003 2.25000001,6.80000003 L2.25000001,4.15000002 C3.35000001,4.15000002 4.25000001,3.25000001 4.25000001,2.15000001 L4.25000001,2.00000001 L12.8000001,2.00000001 L12.8000001,2.10000001 C12.8000001,3.20000001 13.7000001,4.10000002 14.8000001,4.10000002 L14.8000001,6.80000003 Z"/>
      <circle cx="8.5" cy="5.45" r="1.6"/>
      <path d="M17.25,12.8500001 L4.75000002,12.8500001 C4.45000002,12.8500001 4.25000002,12.6500001 4.25000002,12.3500001 C4.25000002,12.0500001 4.45000002,11.85 4.75000002,11.85 L17.25,11.85 C17.5500001,11.85 17.75,11.65 17.75,11.35 L17.75,2.60000001 C17.75,2.30000001 17.9500001,2.10000001 18.25,2.10000001 C18.5500001,2.10000001 18.75,2.30000001 18.75,2.60000001 L18.75,11.35 C18.75,12.2000001 18.1000001,12.8500001 17.25,12.8500001 Z"/>
    </g>
    <rect width="24" height="24"/>
  </g>
</svg>
