<svg xmlns="http://www.w3.org/2000/svg" width="24" height="24" viewBox="0 0 24 24">
  <g fill="none" fill-rule="evenodd">
    <path fill="#000" fill-rule="nonzero" d="M12.4000001,7.45000003 C12.4000001,7.45000003 12.4000001,7.45000003 12.4000001,7.45000003 L12.4000001,6.75000003 C12.4000001,6.25000003 12.8000001,5.85000002 13.3000001,5.85000002 L14.9000001,5.85000002 C15.7,5.85000002 16.3000001,5.20000002 16.3000001,4.45000002 C16.3000001,3.70000002 15.6500001,3.05000001 14.9000001,3.05000001 L10.05,3.05000001 C9.90000004,3.05000001 9.80000004,3.15000001 9.80000004,3.30000001 C9.80000004,3.45000001 9.90000004,3.55000001 10.05,3.55000001 L14.9000001,3.55000001 C15.4000001,3.55000001 15.8000001,3.95000002 15.8000001,4.45000002 C15.8000001,4.95000002 15.4000001,5.35000002 14.9000001,5.35000002 L13.3000001,5.35000002 C12.5000001,5.35000002 11.9,6.00000003 11.9,6.75000003 L11.9,7.45000003 C11.9,7.45000003 11.9,7.45000003 11.9,7.45000003 C9.55000004,7.50000003 7.70000003,9.40000004 7.70000003,11.75 L7.70000003,16.7000001 C7.70000003,19.05 9.60000004,21.0000001 12,21.0000001 C14.3500001,21.0000001 16.3000001,19.1000001 16.3000001,16.7000001 L16.3000001,11.75 C16.2500001,9.50000004 14.5500001,7.70000003 12.4000001,7.45000003 Z M12.2,12.8000001 C12.2,12.9500001 12.1000001,13.0500001 11.95,13.0500001 C11.8,13.0500001 11.7,12.9500001 11.7,12.8000001 L11.7,10.75 C11.7,10.6 11.8,10.5 11.95,10.5 C12.1000001,10.5 12.2,10.6 12.2,10.75 L12.2,12.8000001 Z"/>
    <rect width="24" height="24"/>
  </g>
</svg>
