<svg xmlns="http://www.w3.org/2000/svg" width="24" height="24" viewBox="0 0 24 24">
  <g fill="none" fill-rule="evenodd">
    <path fill="#000" fill-rule="nonzero" d="M18.3500001,15.5000001 L18.3,15.5000001 L18.3,11.1 C18.3,8.10000003 16.1500001,5.55000002 13.3,4.95000002 C13.3500001,4.80000002 13.3500001,4.70000001 13.3500001,4.55000002 C13.3500001,3.80000002 12.7500001,3.20000001 12,3.20000001 C11.25,3.20000001 10.65,3.80000002 10.65,4.55000002 C10.65,4.70000001 10.65,4.85000002 10.7,4.95000002 C7.85000003,5.55000002 5.70000002,8.05000003 5.70000002,11.1 L5.70000002,15.5000001 L5.65000002,15.5000001 C4.90000002,15.5000001 4.30000002,16.1000001 4.30000002,16.8500001 C4.30000002,17.6000001 4.90000002,18.2 5.65000002,18.2 L9.00000004,18.2 C9.00000004,18.2 9.00000004,18.2 9.00000004,18.2500001 C9.20000004,19.7500001 10.45,20.9000001 12,20.9000001 C13.5000001,20.9000001 14.8,19.7500001 15.0000001,18.2500001 C15.0000001,18.2500001 15.0000001,18.2500001 15.0000001,18.2 L18.3500001,18.2 C19.1000001,18.2 19.7000001,17.6000001 19.7000001,16.8500001 C19.7000001,16.1000001 19.1000001,15.5000001 18.3500001,15.5000001 Z M12,20.2500001 C10.75,20.2500001 9.75000004,19.3500001 9.55000004,18.1500001 L14.4000001,18.1500001 C14.2500001,19.3500001 13.2500001,20.2500001 12,20.2500001 Z"/>
    <rect width="24" height="24"/>
  </g>
</svg>
