<svg xmlns="http://www.w3.org/2000/svg" width="24" height="24" viewBox="0 0 24 24">
  <g fill="none" fill-rule="evenodd">
    <path fill="#000" fill-rule="nonzero" d="M18.3500001,17.7000001 L17.0000001,17.7000001 C18.9500001,15.2500001 20.05,12.2000001 20.05,9.10000004 C20.05,8.15000003 19.6000001,7.30000001 18.8500001,6.75000003 L16.9500001,5.40000002 C16.9500001,5.40000002 16.9500001,5.40000002 16.9500001,5.40000002 L16.9500001,4.40000002 C16.9500001,3.50000001 16.2500001,2.80000001 15.3500001,2.80000001 L8.25000003,2.80000001 C7.35000003,2.80000001 6.65000003,3.50000001 6.65000003,4.40000002 L6.65000003,17.7500001 L5.20000002,17.7500001 C4.55000002,17.7500001 4.05000002,18.2500001 4.05000002,18.9000001 L4.05000002,20.1500001 C4.05000002,20.8 4.55000002,21.3 5.20000002,21.3 L18.3500001,21.3 C19.0000001,21.3 19.5000001,20.8 19.5000001,20.1500001 L19.5000001,18.9000001 C19.5000001,18.2000001 19.0000001,17.7000001 18.3500001,17.7000001 Z M12.7500001,15.1000001 C12.2000001,15.6500001 11.35,15.6500001 10.8,15.1000001 C10.35,14.6500001 10.25,14.0000001 10.55,13.5000001 L11.8,11.05 L13.0000001,13.5000001 C13.2500001,14.05 13.1500001,14.7000001 12.7500001,15.1000001 Z M14.8500001,7.85000003 C14.8500001,8.35000003 14.4500001,8.75000004 13.9500001,8.75000004 L9.55000004,8.75000004 C9.05000004,8.75000004 8.65000004,8.35000003 8.65000004,7.85000003 L8.65000004,5.90000002 C8.65000004,5.40000002 9.05000004,5.00000002 9.55000004,5.00000002 L13.9500001,5.00000002 C14.4500001,5.00000002 14.8500001,5.40000002 14.8500001,5.90000002 L14.8500001,7.85000003 Z M18.5000001,7.10000003 C19.1500001,7.55000003 19.5000001,8.30000003 19.5000001,9.05000004 C19.5000001,11.9 18.5500001,14.6500001 16.9000001,16.95 L16.9000001,5.95000002 L18.5000001,7.10000003 Z"/>
    <rect width="24" height="24"/>
  </g>
</svg>
