<svg xmlns="http://www.w3.org/2000/svg" width="24" height="24" viewBox="0 0 24 24">
  <g fill="none" fill-rule="evenodd">
    <g transform="translate(3 3)">
      <path fill="#1A1A1A" fill-rule="nonzero" d="M17.0500001,0.200000001 L0.950000004,0.200000001 C0.400000002,0.200000001 0,0.650000003 0,1.2 C0,1.75000001 0.450000002,2.15000001 0.950000004,2.15000001 L1.5,2.15000001 L1.5,12.9000001 C1.5,13.5500001 2.05000001,14.1000001 2.70000001,14.1000001 L15.4000001,14.1000001 C16.0500001,14.1000001 16.6000001,13.5500001 16.6000001,12.9000001 L16.6000001,2.15000001 L17.1500001,2.15000001 C17.7000001,2.15000001 18.1000001,1.7 18.1000001,1.2 C18.1000001,0.700000001 17.6000001,0.200000001 17.0500001,0.200000001 Z M14.7500001,6.75000003 C14.6000001,6.75000003 14.5000001,6.65000003 14.5000001,6.50000003 L14.5000001,5.15000002 L10.65,9.00000004 C10.5,9.15000004 10.35,9.20000004 10.15,9.20000004 C9.95000004,9.20000004 9.80000004,9.10000004 9.70000004,9.00000004 L8.0964661,7.32031254 C8.04550175,7.27031254 8.02939456,7.27264408 7.95000003,7.19168095 C7.87060551,7.11071781 7.72708134,7.2471619 7.62301639,7.32031254 L3.62515263,11.363617 C3.57515263,11.413617 3.38885502,11.640094 3.27560429,11.690094 C3.16235355,11.740094 3.10000001,11.740094 3.05000001,11.690094 C2.95000001,11.590094 2.95000001,11.4 3.05000001,11.3 L7.45000003,6.90000003 C7.60000003,6.75000003 7.75000003,6.70000003 7.95000003,6.70000003 C8.15000003,6.70000003 8.30000003,6.80000002 8.40000004,6.90000003 L10.15,8.70000004 L14.1000001,4.80000002 L12.8000001,4.80000002 C12.6500001,4.80000002 12.5500001,4.70000002 12.5500001,4.55000002 C12.5500001,4.40000002 12.6500001,4.30000002 12.8000001,4.30000002 L14.7000001,4.30000002 C14.9551087,4.30000002 14.9188843,4.30000002 14.9551087,4.3225098 C14.9551087,4.3725098 14.9551087,4.50000002 14.9551087,4.55000002 L14.9551087,6.50000003 C14.9551087,6.65000003 14.9000001,6.75000003 14.7500001,6.75000003 Z"/>
      <polyline stroke="#1A1A1A" stroke-linecap="round" stroke-linejoin="round" points="5.55 17.8 9 14.05 12.45 17.8"/>
    </g>
    <rect width="24" height="24"/>
  </g>
</svg>
