<svg xmlns="http://www.w3.org/2000/svg" width="24" height="24" viewBox="0 0 24 24">
  <g fill="none" fill-rule="evenodd">
    <g transform="translate(3 3)">
      <path fill="#1A1A1A" fill-rule="nonzero" d="M17.0500001,0.200000001 L0.950000004,0.200000001 C0.400000002,0.200000001 0,0.650000003 0,1.2 C0,1.75000001 0.450000002,2.15000001 0.950000004,2.15000001 L1.5,2.15000001 L1.5,12.9000001 C1.5,13.5500001 2.05000001,14.1000001 2.70000001,14.1000001 L15.5,14.1000001 C16.0500001,14.1000001 16.5,13.6500001 16.5,13.1000001 L16.5,2.15000001 L17.0500001,2.15000001 C17.6000001,2.15000001 18,1.7 18,1.2 C18,0.700000001 17.6000001,0.200000001 17.0500001,0.200000001 Z M15.3500001,11.7 C15.3500001,11.7 15.3500001,11.622696 15.3500001,11.622696 C15.3500001,11.622696 15.3500001,11.6696625 15.3500001,11.6696625 C15.3500001,11.7196625 15.3500001,11.7 15.2222901,11.7 C15.1722901,11.7 15.1000001,11.7 15.1000001,11.7 L13.2000001,11.7 C13.0500001,11.7 12.9500001,11.6 12.9500001,11.45 C12.9500001,11.3 13.0500001,11.2 13.2000001,11.2 L14.5000001,11.2 L10.65,7.35000003 C10.6,7.30000003 10.5460053,7.28892215 10.5460053,7.2832642 C10.5460053,7.27760625 10.5,7.30000003 10.43573,7.35000003 L8.80000004,9.10000004 C8.70000004,9.25000004 8.50000004,9.30000004 8.35000003,9.30000004 C8.15000003,9.30000004 8.00000003,9.25000004 7.85000003,9.10000004 L3.45000001,4.70000002 C3.35000001,4.60000002 3.35000001,4.45000002 3.45000001,4.35000002 C3.55000001,4.25000002 3.70000002,4.25000002 3.80000002,4.35000002 L8.20000003,8.75000004 C8.25000003,8.80000004 8.27308964,8.82601932 8.32308964,8.82601932 C8.32308964,8.82601932 8.39755253,8.78288273 8.45301823,8.72749332 L10.05,7.00000003 C10.15,6.85000003 10.35,6.80000003 10.5,6.80000003 C10.7,6.80000003 10.85,6.85000003 11,7.00000003 L14.8500001,10.85 L14.8500001,9.50000004 C14.8500001,9.35000004 14.9500001,9.25000004 15.1000001,9.25000004 C15.2500001,9.25000004 15.3500001,9.35000004 15.3500001,9.50000004 L15.3500001,11.45 C15.3500001,11.5833334 15.3500001,11.6666667 15.3500001,11.7 Z"/>
      <polyline stroke="#1A1A1A" stroke-linecap="round" stroke-linejoin="round" points="5.55 17.8 9 14.05 12.45 17.8"/>
    </g>
    <rect width="24" height="24"/>
  </g>
</svg>
