<svg xmlns="http://www.w3.org/2000/svg" width="24" height="24" viewBox="0 0 24 24">
  <g fill="none" fill-rule="evenodd">
    <path fill="#000" fill-rule="nonzero" d="M21.0000001,11.75 L18.25,11.75 C18.2000001,11.75 18.1000001,11.8 18.0500001,11.85 C18.0000001,11.9 18.0000001,11.95 18.0000001,12 L18.0000001,12.0500001 C18.0000001,12.0500001 18.0000001,12.1000001 18.0000001,12.1000001 C18.0000001,12.9500001 17.3000001,13.6500001 16.4500001,13.6500001 C15.6000001,13.6500001 14.9000001,12.9500001 14.9000001,12.1000001 C14.9000001,12.1000001 14.9000001,12.0500001 14.9000001,12.0500001 L14.9000001,12 C14.9000001,11.95 14.9000001,11.85 14.8500001,11.8 C14.8000001,11.75 14.75,11.7 14.6500001,11.7 L12.1500001,11.7 L12.1500001,9.35000004 C13.25,9.30000004 14.1000001,8.40000003 14.1000001,7.30000003 C14.1000001,6.20000003 13.25,5.30000002 12.1500001,5.25000001 L12.1500001,3.00000001 C12.1500001,2.85000001 12.0500001,2.75000001 11.9,2.75000001 L4.60000002,2.75000001 C3.60000001,2.75000001 2.75000001,3.60000001 2.75000001,4.60000002 L2.75000001,11.75 L2.75000001,12 L2.75000001,19.4000001 C2.75000001,20.4000001 3.60000001,21.25 4.60000002,21.25 L12,21.25 L19.4000001,21.25 C20.4000001,21.25 21.25,20.4000001 21.25,19.4000001 L21.25,12 C21.25,11.85 21.1500001,11.75 21.0000001,11.75 Z M7.50000003,9.80000004 C6.40000003,9.80000004 5.50000002,10.65 5.45000002,11.75 L3.25000001,11.75 L3.25000001,4.60000002 C3.25000001,3.85000002 3.85000002,3.25000001 4.60000002,3.25000001 L11.75,3.25000001 L11.75,5.60000002 C11.75,5.65000002 11.8,5.75000001 11.85,5.80000002 C11.9,5.85000002 11.95,5.85000002 12.0500001,5.85000002 L12.1000001,5.85000002 C12.1000001,5.85000002 12.1500001,5.85000002 12.1500001,5.85000002 C13.0000001,5.85000002 13.7000001,6.55000003 13.7000001,7.40000003 C13.7000001,8.25000001 13.0000001,8.95000004 12.1500001,8.95000004 C12.1500001,8.95000004 12.1000001,8.95000004 12.1000001,8.95000004 L12.0500001,8.95000004 C12,8.95000004 11.9,8.95000004 11.85,9.00000004 C11.8,9.05000004 11.75,9.10000004 11.75,9.20000004 L11.75,11.8 L9.55000004,11.8 C9.50000004,10.65 8.60000004,9.80000004 7.50000003,9.80000004 Z M19.4000001,20.7500001 L12.25,20.7500001 L12.25,18.2500001 C12.25,18.2000001 12.2000001,18.1000001 12.1500001,18.0500001 C12.1000001,18.0000001 12.0500001,18.0000001 12,18.0000001 C12,18.0000001 12,18.0000001 11.95,18.0000001 L11.9,18.0000001 C11.85,18.0000001 11.85,18.0000001 11.8,18.0000001 C10.95,18.0000001 10.25,17.3000001 10.25,16.4500001 C10.25,15.6000001 10.95,14.9000001 11.8,14.9000001 C11.85,14.9000001 11.85,14.9000001 11.9,14.9000001 L11.95,14.9000001 C12,14.9000001 12.0500001,14.9000001 12.1000001,14.8500001 C12.1500001,14.8000001 12.2000001,14.7500001 12.2000001,14.6500001 L12.2000001,12.1500001 L14.4000001,12.1500001 C14.4500001,13.2500001 15.3500001,14.1000001 16.4500001,14.1000001 C17.5500001,14.1000001 18.4500001,13.2500001 18.5000001,12.1500001 L20.7000001,12.1500001 L20.7000001,19.4000001 C20.7000001,20.1500001 20.1500001,20.7500001 19.4000001,20.7500001 Z"/>
    <rect width="24" height="24"/>
  </g>
</svg>
