<svg xmlns="http://www.w3.org/2000/svg" width="24" height="24" viewBox="0 0 24 24">
  <g fill="none" fill-rule="evenodd">
    <g fill="#000" fill-rule="nonzero" transform="translate(3 3)">
      <path d="M10.3 6.00000002L7.45000003 6.00000002 7.30000003 6.00000002 7.30000003 8.75000004 10.3 8.75000004C11.05 8.75000004 11.7 8.15000003 11.7 7.35000003 11.7 6.55000003 11.1 6.00000002 10.3 6.00000002zM7.30000003 9.25000004L7.30000003 12 7.45000003 12 10.3 12C11.05 12 11.7 11.4 11.7 10.6 11.7 9.80000004 11.1 9.20000004 10.3 9.20000004L7.30000003 9.20000004 7.30000003 9.25000004z"/>
      <path d="M17.9500001,4.50000002 C17.9500001,3.70000002 17.3000001,3.05 16.5000001,3.05 C15.6500001,3.05 15.0000001,2.40000001 15.0000001,1.55 C15.0000001,0.700000003 14.3500001,0.0500000002 13.5000001,0.0500000002 L4.65000002,0.0500000002 C3.80000002,0.0500000002 3.10000001,0.700000003 3.10000001,1.55 L3.10000001,1.60000001 C3.05,2.40000001 2.40000001,3.05 1.60000001,3.05 L1.50000001,3.05 C0.700000003,3.05 0.0500000002,3.70000002 0.0500000002,4.50000002 L0.0500000002,9.10000004 C0.0500000002,11 0.850000004,12.8500001 2.20000001,14.2000001 L2.20000001,14.2000001 C2.75000001,14.7500001 3.40000001,15.1500001 4.05,15.5000001 L9.00000004,17.8500001 L13.9500001,15.5000001 C14.6500001,15.1500001 15.2500001,14.7500001 15.8000001,14.2000001 C17.2000001,12.8500001 17.9500001,11 17.9500001,9.10000004 L17.9500001,4.50000002 Z M12.2000001,10.65 C12.2000001,11.7 11.35,12.5500001 10.3,12.5500001 L10.3,12.5500001 L10.3,13.7000001 C10.3,13.8500001 10.2,13.9500001 10.05,13.9500001 C9.90000004,13.9500001 9.80000002,13.8500001 9.80000002,13.7000001 L9.80000002,12.5000001 L8.25000003,12.5000001 L8.25000003,13.6500001 C8.25000003,13.8000001 8.15000003,13.9000001 8.00000003,13.9000001 C7.85000003,13.9000001 7.75000003,13.8000001 7.75000003,13.6500001 L7.75000003,12.5000001 L7.45000003,12.5000001 L7.05000003,12.5000001 L6.05000003,12.5000001 C5.90000002,12.5000001 5.80000002,12.4000001 5.80000002,12.2500001 C5.80000002,12.1 5.90000002,12.0000001 6.05000003,12.0000001 L6.80000002,12.0000001 L6.80000002,9.00000004 L6.80000002,6.00000003 L6.05000003,6.00000003 C5.90000002,6.00000003 5.80000002,5.90000002 5.80000002,5.75000002 C5.80000002,5.60000002 5.90000002,5.50000002 6.05000003,5.50000002 L7.05000003,5.50000002 L7.45000003,5.50000002 L7.75000003,5.50000002 L7.75000003,4.35000002 C7.75000003,4.20000002 7.85000003,4.10000002 8.00000003,4.10000002 C8.15000003,4.10000002 8.25000003,4.20000002 8.25000003,4.35000002 L8.25000003,5.50000002 L9.80000002,5.50000002 L9.80000002,4.35000002 C9.80000002,4.20000002 9.90000004,4.10000002 10.05,4.10000002 C10.2,4.10000002 10.3,4.20000002 10.3,4.35000002 L10.3,5.50000002 L10.3,5.50000002 C11.35,5.50000002 12.2000001,6.35000003 12.2000001,7.40000003 C12.2000001,8.10000002 11.8,8.70000004 11.25,9.00000004 C11.8,9.30000004 12.2000001,9.95000004 12.2000001,10.65 Z"/>
    </g>
    <rect width="24" height="24"/>
  </g>
</svg>
