<svg xmlns="http://www.w3.org/2000/svg" width="24" height="24" viewBox="0 0 24 24">
  <g fill="none" fill-rule="evenodd">
    <path fill="#000" fill-rule="nonzero" d="M18.7000001,4.35000002 L18.7000001,4.35000002 C14.5000001,2.25000001 9.50000004,2.25000001 5.30000002,4.35000002 C4.45000002,4.80000002 3.90000002,5.65000002 3.90000002,6.65000003 L3.90000002,11.4 C3.90000002,12.6000001 4.15000002,13.8000001 4.55000002,14.9000001 C5.40000002,16.9500001 6.90000002,18.7000001 8.90000002,19.7000001 L11.7,21.2000001 C11.9,21.3000001 12.1500001,21.3000001 12.3500001,21.2000001 L15.1000001,19.7500001 C17.0500001,18.7000001 18.6000001,17.0500001 19.4500001,15.0000001 L19.4500001,14.9500001 C19.9,13.8000001 20.1500001,12.6000001 20.1500001,11.4 L20.1500001,6.70000003 C20.1500001,5.65000002 19.6000001,4.80000002 18.7000001,4.35000002 Z M11.45,10.7 L12.5000001,10.7 C13.4500001,10.7 14.2000001,11.45 14.2000001,12.4000001 C14.2000001,13.3500001 13.4500001,14.1000001 12.5000001,14.1000001 L12.2000001,14.1000001 L12.2000001,15.1000001 C12.2000001,15.2500001 12.1000001,15.3500001 11.95,15.3500001 C11.8,15.3500001 11.7,15.2500001 11.7,15.1000001 L11.7,14.1000001 L10,14.1000001 C9.85000004,14.1000001 9.75000004,14.0000001 9.75000004,13.8500001 C9.75000004,13.7000001 9.85000004,13.6000001 10,13.6000001 L12.5500001,13.6000001 C13.2000001,13.6000001 13.75,13.05 13.75,12.4000001 C13.75,11.75 13.2000001,11.2 12.5500001,11.2 L11.5,11.2 C10.55,11.2 9.80000004,10.45 9.80000004,9.50000004 C9.80000004,8.55000003 10.55,7.80000003 11.5,7.80000003 L11.8,7.80000003 L11.8,6.80000003 C11.8,6.65000003 11.9,6.55000003 12.0500001,6.55000003 C12.2000001,6.55000003 12.3000001,6.65000003 12.3000001,6.80000003 L12.3000001,7.80000003 L14.0000001,7.80000003 C14.1500001,7.80000003 14.25,7.90000003 14.25,8.05000003 C14.25,8.20000003 14.1500001,8.30000003 14.0000001,8.30000003 L11.45,8.30000003 C10.8,8.30000003 10.25,8.85000004 10.25,9.50000004 C10.25,10.15 10.8,10.7 11.45,10.7 Z"/>
    <rect width="24" height="24"/>
  </g>
</svg>
