<svg xmlns="http://www.w3.org/2000/svg" width="24" height="24" viewBox="0 0 24 24">
  <g fill="none" fill-rule="evenodd">
    <path fill="#000" fill-rule="nonzero" d="M18.9500001,13.1000001 C18.9000001,13 18.8500001,12.8500001 18.8500001,12.7500001 L18.8500001,11.25 C18.8500001,11.1 18.9000001,11 18.9500001,10.9 L20.3000001,9.10000004 C20.4500001,8.90000004 20.4500001,8.65000004 20.3500001,8.45000004 L19.2500001,6.60000003 C19.1500001,6.40000003 18.9000001,6.30000003 18.6500001,6.30000003 L16.4500001,6.50000001 C16.3000001,6.50000001 16.2000001,6.50000001 16.1000001,6.40000003 L14.8000001,5.65000002 C14.7000001,5.60000002 14.6000001,5.50000001 14.5500001,5.35000002 L13.6500001,3.30000001 C13.5500001,3.15000001 13.3000001,3.00000001 13.1000001,3.00000001 L10.95,3.00000001 C10.7,3.00000001 10.5,3.15000001 10.4,3.35000001 L9.50000004,5.40000002 C9.45000004,5.50000001 9.35000004,5.60000002 9.25000004,5.70000002 L7.95000003,6.45000003 C7.85000003,6.50000001 7.70000003,6.55000003 7.60000003,6.55000003 L5.35000002,6.30000003 C5.10000002,6.25000003 4.90000002,6.40000003 4.75000002,6.60000003 L3.65000002,8.45000004 C3.55000001,8.65000004 3.55000001,8.90000004 3.70000002,9.10000004 L5.05000002,10.9 C5.10000002,11 5.15000002,11.15 5.15000002,11.25 L5.15000002,12.7500001 C5.15000002,12.9000001 5.10000002,13 5.05000002,13.1000001 L3.70000002,14.9000001 C3.55000001,15.1000001 3.55000001,15.3500001 3.65000002,15.5500001 L4.75000002,17.4000001 C4.85000002,17.6000001 5.10000002,17.7000001 5.35000002,17.7000001 L7.60000003,17.4500001 C7.75000003,17.4500001 7.85000003,17.4500001 7.95000003,17.5500001 L9.25000004,18.3000001 C9.35000004,18.3500001 9.45000004,18.4500001 9.50000004,18.6000001 L10.4,20.6500001 C10.5,20.8500001 10.7,21 10.95,21 L13.1000001,21 C13.3500001,21 13.5500001,20.8500001 13.6500001,20.6500001 L14.5500001,18.6000001 C14.6000001,18.5 14.7000001,18.4000001 14.8000001,18.3000001 L16.1000001,17.5500001 C16.2000001,17.5 16.3500001,17.4500001 16.4500001,17.4500001 L18.7000001,17.7000001 C18.9500001,17.7500001 19.1500001,17.6000001 19.3000001,17.4000001 L20.4000001,15.5500001 C20.5000001,15.3500001 20.5000001,15.1000001 20.3500001,14.9000001 L18.9500001,13.1000001 Z M12.0000001,14.8500001 C10.45,14.8500001 9.15000004,13.6000001 9.15000004,12.0000001 C9.15000004,10.45 10.4,9.15000004 12.0000001,9.15000004 C13.5500001,9.15000004 14.8500001,10.4 14.8500001,12.0000001 C14.8500001,13.5500001 13.5500001,14.8500001 12.0000001,14.8500001 Z"/>
    <rect width="24" height="24"/>
  </g>
</svg>
