<svg xmlns="http://www.w3.org/2000/svg" width="24" height="24" viewBox="0 0 24 24">
  <g fill="none" fill-rule="evenodd">
    <path fill="#000" fill-rule="nonzero" d="M12.2500001,4.20000002 C12.2500001,4.14831548 12.2500001,4.10000002 12.2500001,4.05000002 L12.2500001,3.00000001 C12.2500001,2.85000001 12.1500001,2.75000001 12,2.75000001 C11.85,2.75000001 11.8,2.85000001 11.8,3.00000001 L11.8,4.05000002 C11.8,4.10000002 11.8,4.15000002 11.8,4.20000002 C7.45000003,4.30000002 4.10000002,7.75000001 4.10000002,12.1000001 C5.75000002,11.2 7.70000003,11.25 9.30000004,12.1000001 L9.40000004,12.0500001 C10.15,11.65 10.95,11.45 11.75,11.4 L11.75,19.4000001 C11.75,20.1000001 11.15,20.7000001 10.45,20.7000001 C9.75000004,20.7000001 9.15000004,20.1000001 9.15000004,19.4000001 L9.15000004,18.0000001 C9.15000004,17.8500001 9.05000004,17.75 8.90000004,17.75 C8.75000004,17.75 8.65000004,17.8500001 8.65000004,18.0000001 L8.65000004,19.4500001 C8.65000004,20.4500001 9.45000004,21.25 10.45,21.25 C11.45,21.25 12.2500001,20.4500001 12.2500001,19.4500001 L12.2500001,11.5 C13.0500001,11.55 13.8500001,11.75 14.5500001,12.1500001 L14.6500001,12.2000001 C16.3000001,11.3 18.2500001,11.3 19.9000001,12.2000001 C19.9500001,7.85000003 16.5500001,4.35000002 12.2500001,4.20000002 Z"/>
    <rect width="24" height="24"/>
  </g>
</svg>
