<svg xmlns="http://www.w3.org/2000/svg" width="24" height="24" viewBox="0 0 24 24">
  <g fill="none" fill-rule="evenodd">
    <g fill="#000" fill-rule="nonzero" transform="translate(2.5 2)">
      <path d="M9.05000004,1.35000001 C4.05000002,1.35000001 0,5.40000002 0,10.45 C0,15.5000001 4.05000002,19.5000001 9.05000004,19.5000001 C14.0500001,19.5000001 18.1500001,15.4500001 18.1500001,10.4 C18.1500001,5.35000001 14.1000001,1.35000001 9.05000004,1.35000001 Z M9.10000001,16.4 C5.80000002,16.4 3.10000001,13.7000001 3.10000001,10.4 C3.10000001,7.10000003 5.80000002,4.40000002 9.10000001,4.40000002 C12.4000001,4.40000002 15.1,7.10000003 15.1,10.4 C15.1,13.7500001 12.4000001,16.4 9.10000001,16.4 Z"/>
      <polygon points="18.75 3.75 15.75 3.75 15.75 .75 12.85 3.65 12.85 6.65 15.85 6.65"/>
      <path d="M19.0000001,3.65000002 C18.9500001,3.55000001 18.85,3.50000001 18.7500001,3.50000001 L16.0000001,3.50000001 L16.0000001,0.750000003 C16.0000001,0.650000003 15.9500001,0.550000002 15.85,0.500000002 C15.7500001,0.450000002 15.6500001,0.500000002 15.6000001,0.550000002 L12.7000001,3.45000001 C12.6500001,3.50000001 12.6500001,3.55000001 12.6500001,3.65000002 L12.6500001,6.55000003 L9.80000004,9.40000004 C9.60000004,9.25000004 9.35000003,9.20000004 9.10000004,9.20000004 C8.40000003,9.20000004 7.85000003,9.75000004 7.85000003,10.45 C7.85000003,11.15 8.40000003,11.7 9.10000004,11.7 C9.80000004,11.7 10.35,11.15 10.35,10.45 C10.35,10.2 10.25,9.95000004 10.15,9.75000004 L13.0000001,6.90000003 L15.9000001,6.90000003 C15.9500001,6.90000003 16.0500001,6.85000003 16.1000001,6.85000003 L19.0000001,3.95000002 C19.0000001,3.85000002 19.0500001,3.75000002 19.0000001,3.65000002 Z M15.7500001,6.40000003 L13.1000001,6.40000003 L13.1000001,3.75000002 L15.5000001,1.35000001 L15.5000001,3.75000002 C15.5000001,3.90000002 15.6000001,4.00000002 15.7500001,4.00000002 L18.1500001,4.00000002 L15.7500001,6.40000003 Z"/>
    </g>
    <rect width="24" height="24"/>
  </g>
</svg>
