<svg xmlns="http://www.w3.org/2000/svg" width="24" height="24" viewBox="0 0 24 24">
  <g fill="none" fill-rule="evenodd">
    <g fill="#000" fill-rule="nonzero" transform="translate(2.5 2.5)">
      <path d="M18.5000001,9.25 L17.5500001,9.25 C17.5000001,4.95000002 14.0500001,1.50000001 9.75,1.35000001 L9.75,0.500000002 C9.75,0.350000001 9.65000004,0.250000001 9.50000004,0.250000001 C9.35000004,0.250000001 9.25,0.350000001 9.25,0.500000002 L9.25,1.35000001 C4.95000002,1.50000001 1.55000001,4.95000002 1.45000001,9.25 L0.500000002,9.25 C0.350000001,9.25 0.250000001,9.35000004 0.250000001,9.50000004 C0.250000001,9.65000004 0.350000001,9.75 0.500000002,9.75 L1.45000001,9.75 C1.65000001,13.9500001 5.00000002,17.3500001 9.25,17.4500001 L9.25,18.5000001 C9.25,18.6500001 9.35000004,18.75 9.50000004,18.75 C9.65000004,18.75 9.75,18.6500001 9.75,18.5000001 L9.75,17.4500001 C14.0000001,17.3500001 17.4000001,13.9500001 17.5500001,9.75 L18.5000001,9.75 C18.6500001,9.75 18.75,9.65000004 18.75,9.50000004 C18.75,9.35000004 18.6500001,9.25 18.5000001,9.25 Z M9.50000004,15.65 C6.05000003,15.65 3.25000001,12.8500001 3.25000001,9.40000004 C3.25000001,5.95000002 6.05000003,3.15000001 9.50000004,3.15000001 C12.9500001,3.15000001 15.75,5.95000002 15.75,9.40000004 C15.75,12.8500001 12.9500001,15.65 9.50000004,15.65 Z"/>
      <circle cx="9.5" cy="9.5" r="1.25"/>
    </g>
    <rect width="24" height="24"/>
  </g>
</svg>
