<svg xmlns="http://www.w3.org/2000/svg" width="24" height="24" viewBox="0 0 24 24">
  <g fill="none" fill-rule="evenodd">
    <g transform="translate(4 2.5)">
      <path d="M8.65000004,0.750000003 L7.40000002,0.750000003 C6.65000003,0.750000003 6.00000002,1.30000001 5.90000002,2.00000001 L10.2,2.00000001 C10,1.30000001 9.40000002,0.750000003 8.65000004,0.750000003 Z"/>
      <path fill="#000" fill-rule="nonzero" d="M12.6500001,2.00000001 L10.65,2.00000001 C10.5,1 9.65000004,0.250000001 8.65000004,0.250000001 L7.40000003,0.250000001 C6.35000003,0.250000001 5.50000002,1 5.40000002,2.00000001 L3.40000001,2.00000001 C1.70000001,2.00000001 0.300000001,3.40000001 0.300000001,5.10000002 C0.300000001,5.25 0.400000002,5.35000002 0.550000002,5.35000002 L1.8,5.35000002 L1.8,17.0000001 C1.8,18.0000001 2.60000001,18.75 3.55000001,18.75 L12.6500001,18.75 C13.6000001,18.75 14.4000001,17.9500001 14.4000001,17.0000001 L14.4000001,5.35000002 L15.5000001,5.35000002 C15.6500001,5.35000002 15.7500001,5.25 15.7500001,5.10000002 C15.7500001,3.40000001 14.3500001,2.00000001 12.6500001,2.00000001 Z M5.25000002,15.1000001 C5.25000002,15.2500001 5.15000002,15.3500001 5.00000002,15.3500001 C4.85000002,15.3500001 4.75000002,15.2500001 4.75000002,15.1000001 L4.75000002,7.70000003 C4.75000002,7.55000003 4.85000002,7.45000003 5.00000002,7.45000003 C5.15000002,7.45000003 5.25000002,7.55000003 5.25000002,7.70000003 L5.25000002,15.1000001 Z M8.25000003,15.1000001 C8.25000003,15.2500001 8.15000003,15.3500001 8.00000003,15.3500001 C7.85000003,15.3500001 7.75000003,15.2500001 7.75000003,15.1000001 L7.75000003,7.70000003 C7.75000003,7.55000003 7.85000003,7.45000003 8.00000003,7.45000003 C8.15000003,7.45000003 8.25000003,7.55000003 8.25000003,7.70000003 L8.25000003,15.1000001 Z M5.85000002,2.00000001 C6.00000003,1.30000001 6.60000003,0.750000003 7.35000002,0.750000003 L8.60000004,0.750000003 C9.35000002,0.750000003 10,1.30000001 10.1,2.00000001 L5.85000002,2.00000001 Z M11.25,15.1000001 C11.25,15.2500001 11.15,15.3500001 11,15.3500001 C10.85,15.3500001 10.75,15.2500001 10.75,15.1000001 L10.75,7.70000003 C10.75,7.55000003 10.85,7.45000003 11,7.45000003 C11.15,7.45000003 11.25,7.55000003 11.25,7.70000003 L11.25,15.1000001 Z"/>
    </g>
    <rect width="24" height="24"/>
  </g>
</svg>
