<svg xmlns="http://www.w3.org/2000/svg" width="24" height="24" viewBox="0 0 24 24">
  <g fill="none" fill-rule="evenodd" transform="translate(1 1)">
    <path fill="#000" fill-rule="nonzero" d="M8.73611111 8.26388889L12.5138889 8.26388889C12.5138889 6.8 12.2777778 5.28888889 11.9 3.87222222 10.8611111 4.06111111 9.82222222 4.15555556 8.78333333 4.20277778L8.78333333 8.26388889 8.73611111 8.26388889zM3.825 8.73611111L0 8.73611111C.0472222222 10.7194444.802777778 12.5138889 1.98333333 13.9305556 2.78611111 13.6472222 3.63611111 13.4111111 4.43888889 13.2222222 4.06111111 11.7583333 3.825 10.2472222 3.825 8.73611111zM8.26388889 4.15555556C7.17777778 4.15555556 6.04444444 4.06111111 4.95833333 3.825 4.53333333 5.28888889 4.34444444 6.75277778 4.34444444 8.21666667L8.26388889 8.21666667 8.26388889 4.15555556zM11.7583333 3.35277778C11.4277778 2.31388889 11.0027778 1.22777778 10.4361111.236111111 9.91666667.0944444444 9.35.0472222222 8.73611111 0L8.73611111 3.63611111C9.775 3.63611111 10.7666667 3.54166667 11.7583333 3.35277778zM2.36111111 14.3555556C3.30555556 15.3472222 4.43888889 16.0555556 5.76111111 16.5277778 5.28888889 15.6305556 4.91111111 14.6861111 4.62777778 13.7416667 3.87222222 13.9305556 3.11666667 14.1194444 2.36111111 14.3555556zM8.73611111 12.8444444C9.775 12.8444444 10.8138889 12.9861111 11.8527778 13.175 12.2777778 11.7111111 12.4666667 10.2472222 12.5138889 8.78333333L8.73611111 8.78333333 8.73611111 12.8444444zM5.66666667.472222222C4.39166667.897222222 3.25833333 1.65277778 2.36111111 2.59722222 3.11666667 2.83333333 3.825 3.06944444 4.58055556 3.21111111 4.86388889 2.31388889 5.24166667 1.36944444 5.66666667.472222222zM4.43888889 3.73055556C3.58888889 3.54166667 2.78611111 3.30555556 1.98333333 3.02222222.802777778 4.43888889.0472222222 6.23333333-4.19417587e-16 8.21666667L3.77777778 8.21666667C3.825 6.70555556 4.01388889 5.19444444 4.43888889 3.73055556zM4.29722222 8.73611111C4.34444444 10.2 4.53333333 11.7111111 4.95833333 13.1277778 6.04444444 12.9388889 7.13055556 12.8444444 8.21666667 12.7972222L8.21666667 8.68888889 4.29722222 8.68888889 4.29722222 8.73611111zM12.9861111 8.21666667L16.9527778 8.26388889C16.9055556 6.28055556 16.1972222 4.43888889 15.0166667 2.975 14.1666667 3.25833333 13.3166667 3.49444444 12.4194444 3.68333333 12.7972222 5.19444444 12.9861111 6.70555556 12.9861111 8.21666667zM11.05 16.6222222C12.4194444 16.1972222 13.6472222 15.4416667 14.5916667 14.4027778 13.7888889 14.1194444 13.0333333 13.9305556 12.2305556 13.7416667 11.9 14.7333333 11.5222222 15.6777778 11.05 16.6222222zM12.3722222 13.2694444C13.2694444 13.4583333 14.1194444 13.6944444 14.9694444 14.025 16.1972222 12.6083333 16.9055556 10.7666667 17 8.78333333L13.0333333 8.78333333C12.9861111 10.2472222 12.7972222 11.7583333 12.3722222 13.2694444zM14.5916667 2.59722222C13.6472222 1.60555556 12.4666667.85 11.0972222.425 11.5694444 1.36944444 11.9472222 2.31388889 12.2305556 3.25833333 13.0333333 3.06944444 13.8361111 2.88055556 14.5916667 2.59722222zM5.1 13.6472222C5.43055556 14.6861111 5.85555556 15.725 6.42222222 16.7166667 6.98888889 16.8583333 7.60277778 16.9527778 8.21666667 16.9527778L8.21666667 13.3166667C7.17777778 13.3638889 6.13888889 13.4583333 5.1 13.6472222zM8.73611111 13.3638889L8.73611111 17C9.30277778 17 9.82222222 16.9055556 10.3416667 16.8111111 10.9083333 15.8194444 11.3333333 14.7333333 11.6638889 13.6944444 10.7194444 13.4583333 9.72777778 13.3638889 8.73611111 13.3638889zM8.26388889 3.63611111L8.26388889 0C7.60277778 0 6.98888889.0944444444 6.375.283333333 5.85555556 1.275 5.43055556 2.31388889 5.1 3.35277778 6.13888889 3.54166667 7.17777778 3.63611111 8.26388889 3.63611111z" transform="translate(2 3)"/>
    <rect width="22" height="22"/>
  </g>
</svg>
