<svg xmlns="http://www.w3.org/2000/svg" width="24" height="24" viewBox="0 0 24 24">
  <g fill="none" fill-rule="evenodd">
    <rect width="24" height="24"/>
    <path fill="#000" fill-rule="nonzero" d="M12,3.00000001 C7.05000003,3.00000001 3.00000001,7.05000003 3.00000001,12 C3.00000001,16.9500001 7.05000003,21 12,21 C16.9500001,21 21,16.9500001 21,12 C21,7.05000003 16.9500001,3.00000001 12,3.00000001 Z M16.4000001,7.00000003 L12.2500001,11.15 L12.2500001,12.9500001 L14.7000001,12.9500001 C14.8500001,12.9500001 14.9500001,13.0500001 14.9500001,13.2000001 C14.9500001,13.3500001 14.8500001,13.4500001 14.7000001,13.4500001 L12.2500001,13.4500001 L12.2500001,15.2000001 L14.7000001,15.2000001 C14.8500001,15.2000001 14.9500001,15.3000001 14.9500001,15.4500001 C14.9500001,15.6000001 14.8500001,15.7000001 14.7000001,15.7000001 L12.2500001,15.7000001 L12.2500001,17.1500001 C12.2500001,17.3000001 12.1500001,17.4000001 12,17.4000001 C11.85,17.4000001 11.75,17.3000001 11.75,17.1500001 L11.75,15.7000001 L9.20000004,15.7000001 C9.05000004,15.7000001 8.95000004,15.6000001 8.95000004,15.4500001 C8.95000004,15.3000001 9.05000004,15.2000001 9.20000004,15.2000001 L11.75,15.2000001 L11.75,13.4500001 L9.20000004,13.4500001 C9.05000004,13.4500001 8.95000004,13.3500001 8.95000004,13.2000001 C8.95000004,13.0500001 9.05000004,12.9500001 9.20000004,12.9500001 L11.75,12.9500001 L11.75,11.2 L7.60000003,7.05000003 C7.50000003,6.95000003 7.50000003,6.80000003 7.60000003,6.70000003 C7.70000003,6.60000003 7.85000003,6.60000003 7.95000003,6.70000003 L11.95,10.7 L16.0000001,6.65000003 C16.1000001,6.55000003 16.2500001,6.55000003 16.3500001,6.65000003 C16.4500001,6.75000003 16.4500001,6.90000003 16.4000001,7.00000003 Z"/>
  </g>
</svg>
