<?xml version="1.0" encoding="UTF-8"?>
<svg id="Layer_466" data-name="Layer 466" xmlns="http://www.w3.org/2000/svg" viewBox="0 0 24 24">
  <defs>
    <style>
      .cls-1 {
        fill: #25314c;
      }
    </style>
  </defs>
  <path id="bowling-ball" class="cls-1" d="m12,1.25C6.072,1.25,1.25,6.072,1.25,12s4.822,10.75,10.75,10.75,10.75-4.822,10.75-10.75S17.928,1.25,12,1.25Zm0,20c-5.101,0-9.25-4.149-9.25-9.25S6.899,2.75,12,2.75s9.25,4.149,9.25,9.25-4.149,9.25-9.25,9.25Zm2.27-14.25c0,.69-.56,1.25-1.25,1.25s-1.255-.56-1.255-1.25.555-1.25,1.245-1.25h.01c.69,0,1.25.56,1.25,1.25Zm3,3c0,.69-.56,1.25-1.25,1.25s-1.255-.56-1.255-1.25.555-1.25,1.245-1.25h.01c.69,0,1.25.56,1.25,1.25Zm-4,1c0,.69-.56,1.25-1.25,1.25s-1.255-.56-1.255-1.25.555-1.25,1.245-1.25h.01c.69,0,1.25.56,1.25,1.25Z"/>
</svg>