<svg xmlns="http://www.w3.org/2000/svg" width="24" height="24" viewBox="0 0 24 24">
  <g fill="none" fill-rule="evenodd">
    <rect width="24" height="24"/>
    <path fill="#CCC" fill-rule="nonzero" d="M5.2,18.755 L18.63,18.755 C19.8919707,18.755 20.915,19.7780293 20.915,21.04 L20.915,21.04 L2.915,21.04 L2.915,21.04 C2.915,20.4339803 3.15574038,19.8527816 3.584261,19.424261 C4.01278163,18.9957404 4.59398032,18.755 5.2,18.755 Z"/>
    <path fill="#000" fill-rule="nonzero" d="M20.915,21.295 L2.915,21.295 C2.77692881,21.295 2.665,21.1830712 2.665,21.045 C2.665,19.6433313 3.79834213,18.5055075 5.2,18.5 L18.63,18.5 C20.0297091,18.5054972 21.1622609,19.6402827 21.1650501,21.04 C21.1663436,21.1071662 21.1405987,21.1720467 21.0935682,21.2200179 C21.0465377,21.267989 20.9821796,21.295 20.915,21.295 Z M3.18,20.795 L20.65,20.795 C20.5249937,19.782025 19.6705846,19.0173289 18.65,19.005 L5.2,19.005 C4.17177929,19.0073307 3.30600512,19.7745266 3.18,20.795 L3.18,20.795 Z"/>
    <rect width="2" height="9.135" x="5.15" y="9.545" fill="#CCC" fill-rule="nonzero"/>
    <path fill="#000" fill-rule="nonzero" d="M7.15,18.935 L5.15,18.935 C5.01304577,18.9323399 4.90266005,18.8219542 4.9,18.685 L4.9,9.545 C4.90266005,9.40804577 5.01304577,9.29766005 5.15,9.295 L7.15,9.295 C7.28807119,9.295 7.4,9.40692881 7.4,9.545 L7.4,18.685 C7.4,18.8230712 7.28807119,18.935 7.15,18.935 Z M5.4,18.435 L6.9,18.435 L6.9,9.795 L5.4,9.795 L5.4,18.435 Z"/>
    <rect width="2" height="9.135" x="10.915" y="9.545" fill="#CCC" fill-rule="nonzero"/>
    <path fill="#000" fill-rule="nonzero" d="M12.915,18.935 L10.915,18.935 C10.7780458,18.9323399 10.6676601,18.8219542 10.665,18.685 L10.665,9.545 C10.6676601,9.40804577 10.7780458,9.29766005 10.915,9.295 L12.915,9.295 C13.0530712,9.295 13.165,9.40692881 13.165,9.545 L13.165,18.685 C13.165,18.8230712 13.0530712,18.935 12.915,18.935 Z M11.165,18.435 L12.665,18.435 L12.665,9.795 L11.165,9.795 L11.165,18.435 Z"/>
    <rect width="2" height="9.135" x="16.68" y="9.545" fill="#CCC" fill-rule="nonzero"/>
    <path fill="#000" fill-rule="nonzero" d="M18.68,18.935 L16.68,18.935 C16.5419288,18.935 16.43,18.8230712 16.43,18.685 L16.43,9.545 C16.43,9.40692881 16.5419288,9.295 16.68,9.295 L18.68,9.295 C18.8169542,9.29766005 18.9273399,9.40804577 18.93,9.545 L18.93,18.685 C18.9273399,18.8219542 18.8169542,18.9323399 18.68,18.935 L18.68,18.935 Z M16.93,18.435 L18.43,18.435 L18.43,9.795 L16.93,9.795 L16.93,18.435 Z"/>
    <polyline fill="#CCC" fill-rule="nonzero" points="5.15 7.26 11.915 2.96 18.68 7.26"/>
    <path fill="#000" fill-rule="nonzero" d="M5.15,7.5 C5.06523657,7.49895479 4.98653388,7.4558557 4.94,7.385 C4.86917546,7.27485326 4.89534889,7.12871827 5,7.05 L11.78,2.745 C11.8629458,2.69460648 11.9670542,2.69460648 12.05,2.745 L18.815,7.05 C18.8953261,7.09582095 18.9437969,7.1822411 18.9411282,7.27467545 C18.9382322,7.36710979 18.8846511,7.45045806 18.8017144,7.4913646 C18.7187776,7.53227113 18.6200339,7.52405336 18.545,7.47 L11.915,3.255 L5.285,7.47 C5.2445319,7.49459459 5.19707587,7.50514038 5.15,7.5 Z"/>
    <rect width="13.525" height="2.285" x="5.15" y="7.26" fill="#CCC" fill-rule="nonzero"/>
    <path fill="#000" fill-rule="nonzero" d="M18.68,9.795 L5.15,9.795 C5.01192881,9.795 4.9,9.68307119 4.9,9.545 L4.9,7.26 C4.90266005,7.12304577 5.01304577,7.01266005 5.15,7.01 L18.68,7.01 C18.8169542,7.01266005 18.9273399,7.12304577 18.93,7.26 L18.93,9.545 C18.93,9.68307119 18.8180712,9.795 18.68,9.795 L18.68,9.795 Z M5.4,9.295 L18.43,9.295 L18.43,7.5 L5.4,7.5 L5.4,9.295 Z"/>
  </g>
</svg>
