<svg xmlns="http://www.w3.org/2000/svg" width="24" height="24" viewBox="0 0 24 24">
  <g fill="none" fill-rule="evenodd">
    <rect width="24" height="24"/>
    <g fill-rule="nonzero" transform="translate(2.5 2.5)">
      <path fill="#CCC" d="M5.58500001,0.500000002 L13.585,0.500000002 C14.6895696,0.500000002 15.585,1.39543051 15.585,2.5 L15.585,18.5 L3.58500001,18.5 L3.58500001,2.5 C3.58500001,1.39543051 4.48043052,0.500000002 5.58500001,0.500000002 Z"/>
      <path fill="#1A1A1A" d="M15.5850001,18.7450001 L3.58500001,18.7450001 C3.44692883,18.7450001 3.33500001,18.6330713 3.33500001,18.4950001 L3.33500001,2.50000001 C3.33500001,1.25930932 4.3393124,0.252757091 5.58000002,0.250000001 L13.5800001,0.250000001 C14.8215,0.252749734 15.8272503,1.25850008 15.8300001,2.50000001 L15.8300001,18.5000001 C15.827342,18.6341934 15.7191934,18.742342 15.5850001,18.7450001 Z M3.84000002,18.2450001 L15.34,18.2450001 L15.34,2.50000001 C15.34,1.53350169 14.5564984,0.750000003 13.5900001,0.750000003 L5.59000002,0.750000003 C5.12587116,0.750000003 4.68075181,0.934374475 4.35256315,1.26256314 C4.02437449,1.5907518 3.84000002,2.03587115 3.84000002,2.50000001 L3.84000002,18.2450001 Z"/>
      <circle cx="9.585" cy="5.665" r="3.775" fill="#CCC"/>
      <path fill="#1A1A1A" d="M9.58500004,9.69007774 C7.95253366,9.70010848 6.47564502,8.72317331 5.84624869,7.21688353 C5.21685236,5.71059375 5.55962222,3.97332255 6.7139724,2.81897238 C7.86832257,1.6646222 9.60559376,1.32185234 11.1118835,1.95124868 C12.6181733,2.58064501 13.5951085,4.05753365 13.5850778,5.69000002 C13.5686656,7.8923376 11.7873376,9.67366559 9.58500004,9.69007774 Z M9.58500004,2.13500001 C7.63608812,2.13776051 6.05816192,3.71941563 6.05999999,5.66832864 C6.06184128,7.61724164 7.64275069,9.19591497 9.59166435,9.19499651 C11.540578,9.19407724 13.1200001,7.6139139 13.1200001,5.66500002 C13.1172414,3.71462633 11.5353757,2.13500001 9.58500004,2.13500001 Z"/>
      <path fill="#CCC" d="M1.59,9.44500004 L3.59,9.44500004 L3.59,18.5000001 L1.25500001,18.5000001 C0.887730645,18.5000001 0.590000002,18.2022694 0.590000002,17.8350001 L0.590000002,10.445 C0.590000002,9.89271529 1.03771525,9.44500004 1.59,9.44500004 Z"/>
      <path fill="#1A1A1A" d="M3.59000001,18.7450001 L1.25500001,18.7450001 C0.749659457,18.7450001 0.340000001,18.3353406 0.340000001,17.8300001 L0.340000001,10.445 C0.340000001,9.7546441 0.899644066,9.19500004 1.59000001,9.19500004 L3.59000001,9.19500004 C3.7280712,9.19500004 3.84,9.30692885 3.84,9.44500004 L3.84,18.5000001 C3.83727718,18.6361148 3.72614192,18.7450001 3.59000001,18.7450001 Z M1.59000001,9.69500004 C1.17578644,9.69500004 0.840000003,10.0307865 0.840000003,10.445 L0.840000003,17.8300001 C0.840000003,18.0591982 1.02580183,18.2450001 1.25500001,18.2450001 L3.34,18.2450001 L3.34,9.69500004 L1.59000001,9.69500004 Z"/>
      <path fill="#CCC" d="M15.5850001,9.44500004 L17.5850001,9.44500004 C18.1372848,9.44500004 18.5850189,9.89271529 18.5850189,10.445 L18.5850189,17.8300001 C18.5863327,18.0072338 18.5168591,18.1776665 18.3920027,18.3034617 C18.2671463,18.4292568 18.0972388,18.5000001 17.9200001,18.5000001 L15.5850001,18.5000001 L15.5850001,9.44500004 Z"/>
      <path fill="#1A1A1A" d="M17.9200001,18.7450001 L15.5850001,18.7450001 C15.4469289,18.7450001 15.3350001,18.6330713 15.3350001,18.4950001 L15.3350001,9.44500004 C15.3350001,9.30692885 15.4469289,9.19500004 15.5850001,9.19500004 L17.5850001,9.19500004 C18.275356,9.19500004 18.8350001,9.7546441 18.8350001,10.445 L18.8350001,17.8300001 C18.8350001,18.3353406 18.4253406,18.7450001 17.9200001,18.7450001 L17.9200001,18.7450001 Z M15.8350001,18.2450001 L17.9200001,18.2450001 C18.1491982,18.2450001 18.3350001,18.0591982 18.3350001,17.8300001 L18.3350001,10.445 C18.3350001,10.0307865 17.9992136,9.69500004 17.5850001,9.69500004 L15.8350001,9.69500004 L15.8350001,18.2450001 Z"/>
      <path fill="#CCC" d="M7.67000003,11.945 L11.67,11.945 C12.2222848,11.945 12.67,12.3927153 12.67,12.945 L12.67,18.5000001 L6.67000003,18.5000001 L6.67000003,12.945 C6.67000003,12.3927153 7.11771528,11.945 7.67000003,11.945 Z"/>
      <path fill="#1A1A1A" d="M12.6950001,18.7450001 L6.69500003,18.7450001 C6.55692884,18.7450001 6.44500003,18.6330713 6.44500003,18.4950001 L6.44500003,12.9450001 C6.44500003,12.256592 7.00159752,11.6977537 7.69000003,11.695 L11.715,11.695 C12.405356,11.695 12.9650001,12.2546441 12.9650001,12.9450001 L12.9650001,18.5000001 C12.963841,18.5690469 12.9341733,18.634539 12.8830327,18.6809443 C12.8318922,18.7273496 12.7638345,18.7505343 12.6950001,18.7450001 L12.6950001,18.7450001 Z M6.92500003,18.2450001 L12.425,18.2450001 L12.425,12.9450001 C12.425,12.5307865 12.0892136,12.1950001 11.675,12.1950001 L7.67500003,12.1950001 C7.26274042,12.1977485 6.92999087,12.5327313 6.93000003,12.9450001 L6.92500003,18.2450001 Z"/>
      <rect width="3" height="1" x=".59" y="12.095" fill="#1A1A1A"/>
      <rect width="3" height="1" x=".59" y="15.11" fill="#1A1A1A"/>
      <rect width="3" height="1" x="15.585" y="12.095" fill="#1A1A1A"/>
      <rect width="3" height="1" x="15.585" y="15.11" fill="#1A1A1A"/>
    </g>
    <path fill="#000" fill-rule="nonzero" d="M12.3450001,9.70000004 L11.115,9.70000004 C10.9780458,9.69733999 10.8676601,9.58695427 10.865,9.45000004 C10.865,9.31192885 10.9769289,9.20000004 11.115,9.20000004 L12.3450001,9.20000004 C12.5818892,9.17533621 12.7618467,8.9756697 12.7618467,8.73750004 C12.7618467,8.49933038 12.5818892,8.29966386 12.3450001,8.27500003 L11.845,8.27500003 C11.4845729,8.30099469 11.1398268,8.12343947 10.9516874,7.81491551 C10.763548,7.50639156 10.763548,7.1186085 10.9516874,6.81008455 C11.1398268,6.50156059 11.4845729,6.32400538 11.845,6.35000003 L13.0700001,6.35000003 C13.2080712,6.35000003 13.3200001,6.46192884 13.3200001,6.60000003 C13.3200001,6.73807122 13.2080712,6.85000003 13.0700001,6.85000003 L11.83,6.85000003 C11.6532825,6.831601 11.4815271,6.91551041 11.387424,7.06621615 C11.2933209,7.21692189 11.2933209,7.40807817 11.387424,7.55878391 C11.4815271,7.70948965 11.6532825,7.79339906 11.83,7.77500003 L12.3300001,7.77500003 C12.8347093,7.81140056 13.2255828,8.23147989 13.2255828,8.73750004 C13.2255828,9.24352018 12.8347093,9.66359951 12.3300001,9.70000004 L12.3450001,9.70000004 Z"/>
    <path fill="#000" fill-rule="nonzero" d="M12.0850001 6.85000003C11.9480458 6.84733998 11.8376601 6.73695425 11.835 6.60000003L11.835 6.00000002C11.835 5.86192884 11.9469289 5.75000002 12.0850001 5.75000002 12.2230712 5.75000002 12.335 5.86192884 12.335 6.00000002L12.335 6.60000003C12.335 6.73807122 12.2230712 6.85000003 12.0850001 6.85000003zM12.0850001 10.295C11.9469289 10.295 11.835 10.1830712 11.835 10.045L11.835 9.54500004C11.835 9.40692885 11.9469289 9.29500004 12.0850001 9.29500004 12.2230712 9.29500004 12.335 9.40692885 12.335 9.54500004L12.335 10.045C12.335 10.1830712 12.2230712 10.295 12.0850001 10.295z"/>
  </g>
</svg>
