<svg xmlns="http://www.w3.org/2000/svg" width="24" height="24" viewBox="0 0 24 24">
  <g fill="none" fill-rule="evenodd">
    <rect width="24" height="24"/>
    <path fill="#1A1A1A" fill-rule="nonzero" d="M18.8950001,7.12500003 L17.8950001,7.12500003 C17.7569289,7.12500003 17.6450001,7.01307122 17.6450001,6.87500003 C17.6450001,6.73692884 17.7569289,6.62500003 17.8950001,6.62500003 L18.8950001,6.62500003 C19.5488982,6.65979119 20.1685779,6.33072323 20.5059856,5.76951983 C20.8433932,5.20831643 20.8433932,4.50668361 20.5059856,3.94548021 C20.1685779,3.38427681 19.5488982,3.05520885 18.8950001,3.09000001 L4.93500002,3.09000001 C4.28110189,3.05520885 3.66142221,3.38427681 3.32401455,3.94548021 C2.98660688,4.50668361 2.98660688,5.20831643 3.32401455,5.76951983 C3.66142221,6.33072323 4.28110189,6.65979119 4.93500002,6.62500003 L5.93500002,6.62500003 C6.07307121,6.62500003 6.18500003,6.73692884 6.18500003,6.87500003 C6.18500003,7.01307122 6.07307121,7.12500003 5.93500002,7.12500003 L4.93500002,7.12500003 C4.09949762,7.16424452 3.31010608,6.7408496 2.88061287,6.02311709 C2.45111967,5.30538457 2.45111967,4.40961547 2.88061287,3.69188296 C3.31010608,2.97415044 4.09949762,2.55075552 4.93500002,2.59000001 L18.8950001,2.59000001 C19.7305025,2.55075552 20.519894,2.97415044 20.9493872,3.69188296 C21.3788804,4.40961547 21.3788804,5.30538457 20.9493872,6.02311709 C20.519894,6.7408496 19.7305025,7.16424452 18.8950001,7.12500003 L18.8950001,7.12500003 Z"/>
    <path fill="#CCC" fill-rule="nonzero" d="M16.7850001,20.5900001 L15.6850001,19.3650001 C15.4781453,19.1201502 15.1781298,18.9732163 14.8578746,18.9599119 C14.5376195,18.9466076 14.2264506,19.068151 14.0000001,19.2950001 L12.7350001,20.5000001 C12.5189912,20.7183265 12.2246258,20.8411776 11.9175,20.8411776 C11.6103743,20.8411776 11.3160089,20.7183265 11.1,20.5000001 L9.88000004,19.3000001 C9.65388893,19.0700313 9.34160286,18.9455767 9.01929599,18.9569858 C8.69698913,18.9683949 8.39428461,19.114619 8.18500003,19.3600001 L7.04000003,20.6150001 C6.84148363,20.8164312 6.5366943,20.8689951 6.28217472,20.7456945 C6.02765514,20.6223939 5.87998135,20.3506368 5.91500002,20.0700001 L5.91500002,4.85500002 L17.9150001,4.85500002 L17.9150001,20.0550001 C17.9476465,20.3360322 17.7975425,20.6066119 17.5418322,20.7276783 C17.2861219,20.8487447 16.9816919,20.7933647 16.7850001,20.5900001 Z"/>
    <path fill="#1A1A1A" fill-rule="nonzero" d="M11.92,21.1000001 C11.5450498,21.0986165 11.1857535,20.9495085 10.92,20.6850001 L9.69500004,19.5000001 C9.51937626,19.3221992 9.27741116,19.2259267 9.02764363,19.2344738 C8.7778761,19.243021 8.54305832,19.3556093 8.38000003,19.5450001 L7.24000003,20.8000001 C7.00148038,21.0793333 6.61255625,21.1775667 6.27000003,21.0450001 C5.88106167,20.8856047 5.63331692,20.500002 5.65000002,20.0800001 L5.65000002,4.85500002 C5.65000002,4.70864456 5.76864457,4.59000002 5.91500002,4.59000002 L17.9150001,4.59000002 C18.0613555,4.59000002 18.1800001,4.70864456 18.1800001,4.85500002 L18.1800001,20.0550001 C18.1874165,20.4690202 17.9388954,20.8447841 17.5550001,21.0000001 C17.2123501,21.1310029 16.8243449,21.0330016 16.5850001,20.7550001 L15.5000001,19.5400001 C15.333252,19.3500241 15.0973443,19.2347714 14.8450001,19.2200001 C14.5975139,19.2115373 14.3579156,19.3077397 14.1850001,19.4850001 L12.9250001,20.6950001 C12.656396,20.9570652 12.2952593,21.1025979 11.92,21.1000001 Z M9.06000004,18.6900001 C9.4352237,18.6948432 9.79384701,18.845465 10.06,19.1100001 L11.285,20.3050001 C11.4513,20.4735608 11.6782124,20.5684496 11.915,20.5684496 C12.1517877,20.5684496 12.3787001,20.4735608 12.5450001,20.3050001 L13.8050001,19.0950001 C14.0851321,18.8183156 14.4675692,18.6703637 14.8609756,18.6864791 C15.254382,18.7025946 15.6234367,18.8813304 15.8800001,19.1800001 L17.0000001,20.4100001 L17.0000001,20.4100001 C17.0898914,20.5277651 17.2464617,20.5724995 17.3850001,20.5200001 C17.5636143,20.435018 17.6753402,20.2527283 17.6700001,20.0550001 L17.6700001,5.12000002 L6.18000003,5.12000002 L6.18000003,20.0700001 C6.17264325,20.2695166 6.28468381,20.4542853 6.46500003,20.5400001 C6.60103317,20.5911275 6.75451615,20.5487177 6.84500003,20.4350001 L8.00000003,19.1800001 C8.25871706,18.8771617 8.63201609,18.6959486 9.03000004,18.6800001 L9.06000004,18.6900001 Z"/>
    <path fill="#1A1A1A" fill-rule="nonzero" d="M19.2350001,5.11500003 L4.64000002,5.11500003 C4.57149453,5.11501319 4.50586488,5.08746193 4.45789674,5.03855324 C4.4099286,4.98964454 4.38365677,4.92349234 4.38495093,4.85500002 C4.38495093,4.71333616 4.49836235,4.59772432 4.64000002,4.59500002 L19.2350001,4.59500002 C19.3785941,4.59500002 19.4950001,4.71140598 19.4950001,4.85500002 C19.4950001,4.99859406 19.3785941,5.11500003 19.2350001,5.11500003 Z"/>
    <path fill="#000" fill-rule="nonzero" d="M15.5000001 11.5L8.34500003 11.5C8.20804581 11.49734 8.09766009 11.3869543 8.09500003 11.25 8.09500003 11.1119289 8.20692885 11 8.34500003 11L15.5000001 11C15.6380713 11 15.7500001 11.1119289 15.7500001 11.25 15.74734 11.3869543 15.6369543 11.49734 15.5000001 11.5L15.5000001 11.5zM15.5000001 14.4000001L8.34500003 14.4000001C8.20804581 14.39734 8.09766009 14.2869543 8.09500003 14.1500001 8.09500003 14.0119289 8.20692885 13.9000001 8.34500003 13.9000001L15.5000001 13.9000001C15.6380713 13.9000001 15.7500001 14.0119289 15.7500001 14.1500001 15.74734 14.2869543 15.6369543 14.39734 15.5000001 14.4000001L15.5000001 14.4000001z"/>
  </g>
</svg>
