<svg xmlns="http://www.w3.org/2000/svg" width="24" height="24" viewBox="0 0 24 24">
  <g fill="none" fill-rule="evenodd">
    <rect width="24" height="24"/>
    <path fill="#CCC" fill-rule="nonzero" d="M20.0000001,17.0400001 L20.0000001,3.75500002 C19.9973949,3.55033609 19.9128828,3.35525172 19.7653604,3.2133671 C19.617838,3.07148248 19.4196102,2.99463231 19.2150001,3.00000001 L7.24000003,3.00000001 C5.55472081,2.99999776 4.18775825,4.36472306 4.18500002,6.05000003 L4.18500002,18.5500001"/>
    <path fill="#000" fill-rule="nonzero" d="M4.18500002,18.8200014 C4.04692883,18.8200014 3.93500002,18.7080713 3.93500002,18.5700001 L3.93500002,6.07000003 C3.93500002,4.24469892 5.41469892,2.76500001 7.24000003,2.76500001 L19.2400001,2.76500001 C19.7922848,2.76500001 20.2400001,3.21271526 20.2400001,3.76500001 L20.2400001,17.0400001 C20.2400001,17.1780713 20.1280713,17.2900001 19.9900001,17.2900001 C19.8519289,17.2900001 19.7400001,17.1780713 19.7400001,17.0400001 L19.7400001,3.75500002 C19.7400001,3.47885764 19.5161425,3.25500001 19.2400001,3.25500001 L7.24000003,3.25500001 C5.69473816,3.25499019 4.44050897,4.50474797 4.43500002,6.05000003 L4.43500002,18.5500001 C4.44059396,18.6196957 4.41674561,18.688549 4.36924157,18.7398534 C4.32173754,18.7911577 4.2549194,18.8202242 4.18500002,18.8200014 Z"/>
    <path fill="#CCC" fill-rule="nonzero" d="M20.000069,16.6700001 L6.40000003,16.6700001 C5.24957995,16.6452736 4.27988021,17.52283 4.19000002,18.6700001 C4.15837074,19.243945 4.36452267,19.8055808 4.75995409,20.2227704 C5.15538551,20.63996 5.70518491,20.8758709 6.28000003,20.8750001 L19.2150001,20.8750001 C19.4230801,20.8804607 19.6244011,20.8008954 19.772527,20.6546564 C19.9206529,20.5084175 20.0027927,20.308133 20.000069,20.1000001 L20.000069,16.6700001 Z"/>
    <path fill="#000" fill-rule="nonzero" d="M19.2150001,21.1100001 L6.28000003,21.1100001 C5.63665986,21.109543 5.02176088,20.8447965 4.57930702,20.3777619 C4.13685315,19.9107272 3.90570666,19.2824257 3.94000002,18.6400001 C4.05008898,17.3689646 5.12437067,16.3994908 6.40000003,16.4200001 L20.0000001,16.4200001 C20.1380713,16.4200001 20.2500565,16.5319289 20.2500565,16.6700001 L20.2500565,20.1000001 C20.2528994,20.3731246 20.1439522,20.6355487 19.9484667,20.8263124 C19.7529811,21.0170761 19.4879721,21.1195754 19.2150001,21.1100001 Z M6.40000003,16.9200001 C5.39077821,16.9018969 4.53629638,17.6607116 4.43500002,18.6650001 C4.40644768,19.1709543 4.58725963,19.666379 4.93500002,20.0350001 C5.28236685,20.4045335 5.76784076,20.6128525 6.27500003,20.610029 L19.2150001,20.610029 C19.4911425,20.610029 19.7150001,20.3861425 19.7150001,20.1100001 L19.7150001,16.9200001 L6.40000003,16.9200001 Z"/>
    <path fill="#000" fill-rule="nonzero" d="M20.0000001 19.0000001L8.04500003 19.0000001C7.90692885 19.0000001 7.79500003 18.8880713 7.79500003 18.7500001 7.79766009 18.6130459 7.90804581 18.5026601 8.04500003 18.5000001L20.0000001 18.5000001C20.1369543 18.5026601 20.24734 18.6130459 20.2500001 18.7500001 20.2500001 18.8163042 20.2236609 18.8798927 20.1767768 18.9267768 20.1298927 18.9736609 20.0663042 19.0000001 20.0000001 19.0000001zM7.65500003 16.9200001C7.51692884 16.9200001 7.40500003 16.8080713 7.40500003 16.6700001L7.40500003 3.12939458C7.40500003 2.99132339 7.51692884 2.87939458 7.65500003 2.87939458 7.79307122 2.87939458 7.90500003 2.99132339 7.90500003 3.12939458L7.90500003 16.6700001C7.90500003 16.8080713 7.79307122 16.9200001 7.65500003 16.9200001zM14.0000001 9.58000004L13.0000001 9.58000004C12.5829147 9.60791448 12.1849952 9.40123508 11.9679743 9.04396581 11.7509534 8.68669653 11.7509534 8.23830354 11.9679743 7.88103427 12.1849952 7.52376499 12.5829147 7.31708559 13.0000001 7.34500003L15.3550001 7.34500003C15.4930713 7.34500003 15.6050001 7.23307122 15.6050001 7.09500003 15.6050001 6.95692884 15.4930713 6.84500003 15.3550001 6.84500003L13.7600001 6.84500003 13.7600001 5.94500002C13.7600001 5.80692884 13.6480712 5.69500002 13.5100001 5.69500002 13.3719289 5.69500002 13.2600001 5.80692884 13.2600001 5.94500002L13.2600001 6.84500003 13.0000001 6.84500003C12.4006635 6.81166496 11.8320227 7.11246096 11.5223153 7.62665633 11.2126079 8.14085171 11.2126079 8.78414836 11.5223153 9.29834374 11.8320227 9.81253911 12.4006635 10.1133351 13.0000001 10.08L14.0000001 10.08C14.618559 10.08 15.1200001 10.5814411 15.1200001 11.2 15.1200001 11.818559 14.618559 12.3200001 14.0000001 12.3200001L11.65 12.3200001C11.5119289 12.3200001 11.4 12.4319289 11.4 12.5700001 11.4 12.7080712 11.5119289 12.8200001 11.65 12.8200001L13.2600001 12.8200001 13.2600001 13.7200001C13.2626601 13.8569543 13.3730458 13.96734 13.5100001 13.9700001 13.6480712 13.9700001 13.7600001 13.8580712 13.7600001 13.7200001L13.7600001 12.8200001 14.0000001 12.8200001C14.8947014 12.8200001 15.6200001 12.0947013 15.6200001 11.2 15.6200001 10.3052987 14.8947014 9.58000004 14.0000001 9.58000004L14.0000001 9.58000004z"/>
  </g>
</svg>
