<svg xmlns="http://www.w3.org/2000/svg" width="24" height="24" viewBox="0 0 24 24">
  <g fill="none" fill-rule="evenodd">
    <rect width="24" height="24"/>
    <rect width="15" height="18" x="4.585" y="3" fill="#CCC" fill-rule="nonzero" rx="1"/>
    <path fill="#000" fill-rule="nonzero" d="M18.4650001,21.25 L5.70500002,21.25 C4.94836991,21.25 4.33500002,20.6366302 4.33500002,19.8800001 L4.33500002,4.12000002 C4.33500002,3.36336991 4.94836991,2.75000001 5.70500002,2.75000001 L18.4650001,2.75000001 C18.8283467,2.75000001 19.1768115,2.89433888 19.4337364,3.15126372 C19.6906612,3.40818856 19.835,3.75665342 19.835,4.12000002 L19.835,19.8800001 C19.835,20.2433467 19.6906612,20.5918115 19.4337364,20.8487364 C19.1768115,21.1056612 18.8283467,21.25 18.4650001,21.25 Z M5.70500002,3.25000001 C5.22451229,3.25000001 4.83500002,3.63951228 4.83500002,4.12000002 L4.83500002,19.8800001 C4.83500002,20.3604878 5.22451229,20.75 5.70500002,20.75 L18.4650001,20.75 C18.6957384,20.75 18.9170263,20.6583396 19.080183,20.495183 C19.2433396,20.3320263 19.335,20.1107384 19.335,19.8800001 L19.335,4.12000002 C19.335,3.88926167 19.2433396,3.66797376 19.080183,3.50481711 C18.9170263,3.34166047 18.6957384,3.25000001 18.4650001,3.25000001 L5.70500002,3.25000001 Z"/>
    <rect width="12" height="2.78" x="6.085" y="5.16" fill="#FFF" fill-rule="nonzero" rx="1.39"/>
    <path fill="#000" fill-rule="nonzero" d="M16.6950001,8.18500003 L7.50000003,8.18500003 C6.89338606,8.21853304 6.31793613,7.91396827 6.00453302,7.3935036 C5.69112991,6.87303894 5.69112991,6.22196112 6.00453302,5.70149645 C6.31793613,5.18103179 6.89338606,4.87646702 7.50000003,4.91000002 L16.6950001,4.91000002 C17.301614,4.87646702 17.877064,5.18103179 18.1904671,5.70149645 C18.5038702,6.22196112 18.5038702,6.87303894 18.1904671,7.3935036 C17.877064,7.91396827 17.301614,8.21853304 16.6950001,8.18500003 Z M7.50000003,5.41000002 C7.07561062,5.38184782 6.67084046,5.59228735 6.4500991,5.95584225 C6.22935775,6.31939716 6.22935775,6.7756029 6.4500991,7.1391578 C6.67084046,7.50271271 7.07561062,7.71315223 7.50000003,7.68500003 L16.6950001,7.68500003 C17.1193895,7.71315223 17.5241596,7.50271271 17.744901,7.1391578 C17.9656424,6.7756029 17.9656424,6.31939716 17.744901,5.95584225 C17.5241596,5.59228735 17.1193895,5.38184782 16.6950001,5.41000002 L7.50000003,5.41000002 Z"/>
    <rect width="2.85" height="2.85" x="6.085" y="9.95" fill="#FFF" fill-rule="nonzero" rx="1.425"/>
    <path fill="#000" fill-rule="nonzero" d="M7.54500003,13.0500001 L7.50000003,13.0500001 C6.59425304,13.0500001 5.86000002,12.315747 5.86000002,11.41 L5.86000002,11.34 C5.86000002,10.4342531 6.59425304,9.70000004 7.50000003,9.70000004 L7.57000003,9.70000004 C8.47574703,9.70000004 9.21000005,10.4342531 9.21000005,11.34 L9.21000005,11.41 C9.21005109,11.8493215 9.0338383,12.2702958 8.72085027,12.5785843 C8.40786223,12.8868728 7.98427041,13.056697 7.54500003,13.0500001 Z M7.50000003,10.2 C6.87153321,10.2027385 6.36273848,10.7115332 6.36000003,11.34 L6.36000003,11.41 C6.36000003,12.0396047 6.87039541,12.5500001 7.50000003,12.5500001 L7.57000003,12.5500001 C7.87234683,12.5500001 8.16231029,12.4298933 8.37610177,12.2161018 C8.58989324,12.0023103 8.71000004,11.7123468 8.71000004,11.41 L8.71000004,11.34 C8.70726158,10.7115332 8.19846685,10.2027385 7.57000003,10.2 L7.50000003,10.2 Z"/>
    <rect width="2.85" height="2.85" x="10.66" y="9.95" fill="#FFF" fill-rule="nonzero" rx="1.425"/>
    <path fill="#000" fill-rule="nonzero" d="M12.1200001,13.0500001 L12.0500001,13.0500001 C11.1442531,13.0500001 10.41,12.315747 10.41,11.41 L10.41,11.34 C10.41,10.4342531 11.1442531,9.70000004 12.0500001,9.70000004 L12.1200001,9.70000004 C12.5549551,9.70000004 12.9720955,9.87278526 13.2796552,10.1803449 C13.5872148,10.4879046 13.7600001,10.905045 13.7600001,11.34 L13.7600001,11.41 C13.7600001,11.8449551 13.5872148,12.2620955 13.2796552,12.5696552 C12.9720955,12.8772148 12.5549551,13.0500001 12.1200001,13.0500001 Z M12.0500001,10.2 C11.4215332,10.2027385 10.9127385,10.7115332 10.91,11.34 L10.91,11.41 C10.91,11.7123468 11.0301068,12.0023103 11.2438983,12.2161018 C11.4576898,12.4298933 11.7476533,12.5500001 12.0500001,12.5500001 L12.1200001,12.5500001 C12.4223469,12.5500001 12.7123103,12.4298933 12.9261018,12.2161018 C13.1398933,12.0023103 13.2600001,11.7123468 13.2600001,11.41 L13.2600001,11.34 C13.2572616,10.7115332 12.7484669,10.2027385 12.1200001,10.2 L12.0500001,10.2 Z"/>
    <rect width="2.85" height="2.85" x="6.085" y="15.15" fill="#FFF" fill-rule="nonzero" rx="1.425"/>
    <path fill="#000" fill-rule="nonzero" d="M7.54500003,18.2500001 L7.50000003,18.2500001 C6.59425304,18.2500001 5.86000002,17.5157471 5.86000002,16.6100001 L5.86000002,16.5400001 C5.86000002,15.6342531 6.59425304,14.9000001 7.50000003,14.9000001 L7.57000003,14.9000001 C8.47574703,14.9000001 9.21000005,15.6342531 9.21000005,16.5400001 L9.21000005,16.6100001 C9.21005109,17.0493215 9.0338383,17.4702958 8.72085027,17.7785843 C8.40786223,18.0868728 7.98427041,18.2566971 7.54500003,18.2500001 L7.54500003,18.2500001 Z M7.50000003,15.4000001 C6.87153321,15.4027385 6.36273848,15.9115333 6.36000003,16.5400001 L6.36000003,16.6100001 C6.36000003,16.9123469 6.48010683,17.2023103 6.6938983,17.4161018 C6.90768977,17.6298933 7.19765323,17.7500001 7.50000003,17.7500001 L7.57000003,17.7500001 C7.87234683,17.7500001 8.16231029,17.6298933 8.37610177,17.4161018 C8.58989324,17.2023103 8.71000004,16.9123469 8.71000004,16.6100001 L8.71000004,16.5400001 C8.70726158,15.9115333 8.19846685,15.4027385 7.57000003,15.4000001 L7.50000003,15.4000001 Z"/>
    <rect width="2.85" height="2.85" x="10.66" y="15.15" fill="#FFF" fill-rule="nonzero" rx="1.425"/>
    <path fill="#000" fill-rule="nonzero" d="M12.1200001,18.2500001 L12.0500001,18.2500001 C11.1442531,18.2500001 10.41,17.5157471 10.41,16.6100001 L10.41,16.5400001 C10.41,15.6342531 11.1442531,14.9000001 12.0500001,14.9000001 L12.1200001,14.9000001 C13.025747,14.9000001 13.7600001,15.6342531 13.7600001,16.5400001 L13.7600001,16.6100001 C13.7600001,17.0449551 13.5872148,17.4620955 13.2796552,17.7696552 C12.9720955,18.0772149 12.5549551,18.2500001 12.1200001,18.2500001 L12.1200001,18.2500001 Z M12.0500001,15.4000001 C11.4215332,15.4027385 10.9127385,15.9115333 10.91,16.5400001 L10.91,16.6100001 C10.91,16.9123469 11.0301068,17.2023103 11.2438983,17.4161018 C11.4576898,17.6298933 11.7476533,17.7500001 12.0500001,17.7500001 L12.1200001,17.7500001 C12.4223469,17.7500001 12.7123103,17.6298933 12.9261018,17.4161018 C13.1398933,17.2023103 13.2600001,16.9123469 13.2600001,16.6100001 L13.2600001,16.5400001 C13.2572616,15.9115333 12.7484669,15.4027385 12.1200001,15.4000001 L12.0500001,15.4000001 Z"/>
    <rect width="3.015" height="8.05" x="15.04" y="10" fill="#FFF" fill-rule="nonzero" rx="1.508"/>
    <path fill="#000" fill-rule="nonzero" d="M16.5450001,18.2500001 C15.5788217,18.2472708 14.7954859,17.4661667 14.7900001,16.5000001 L14.7900001,11.46 C14.7182841,10.7901147 15.0352702,10.1380675 15.6063816,9.78068613 C16.1774929,9.42330476 16.9025072,9.42330476 17.4736186,9.78068613 C18.0447299,10.1380675 18.3617161,10.7901147 18.2900001,11.46 L18.2900001,16.5000001 C18.2818925,17.461176 17.5061489,18.2391424 16.5450001,18.2500001 Z M16.5450001,10.2 C15.8510747,10.2027537 15.2899946,10.7660692 15.2900001,11.46 L15.2900001,16.2569959 C15.2286137,16.7413302 15.4525407,17.2175356 15.8647137,17.4791871 C16.2768866,17.7408386 16.8031136,17.7408386 17.2152865,17.4791871 C17.6274594,17.2175356 17.8513865,16.7413302 17.7900001,16.2569959 L17.7900001,11.46 C17.790049,10.7699373 17.2350139,10.2082151 16.5450001,10.2 Z"/>
  </g>
</svg>
