<svg xmlns="http://www.w3.org/2000/svg" width="24" height="24" viewBox="0 0 24 24">
  <g fill="none" fill-rule="evenodd">
    <rect width="24" height="24"/>
    <g fill-rule="nonzero" transform="translate(2.5 3.5)">
      <rect width="17.98" height="14.985" x=".595" y="1.675" fill="#CCC" rx="2"/>
      <path fill="#1A1A1A" d="M16.9100001,16.9100001 L2.26000001,16.9100001 C1.20545733,16.9072681 0.350488891,16.054532 0.345000001,15.0000001 L0.345000001,3.34000001 C0.347747701,2.28351494 1.20351494,1.42774771 2.26000001,1.42500001 L16.9100001,1.42500001 C17.9664851,1.42774771 18.8222524,2.28351494 18.8250001,3.34000001 L18.8250001,15.0000001 C18.8195112,16.054532 17.9645428,16.9072681 16.9100001,16.9100001 L16.9100001,16.9100001 Z M2.26000001,1.91000001 C1.47851709,1.91000001 0.845000004,2.54351709 0.845000004,3.32500001 L0.845000004,15.0000001 C0.845000004,15.781483 1.47851709,16.4150001 2.26000001,16.4150001 L16.9100001,16.4150001 C17.691483,16.4150001 18.3250001,15.781483 18.3250001,15.0000001 L18.3250001,3.34000001 C18.3250001,2.55851709 17.691483,1.92500001 16.9100001,1.92500001 L2.26000001,1.91000001 Z"/>
      <path fill="#1A1A1A" d="M9.58500004 3.59C9.44692885 3.59 9.33500004 3.4780712 9.33500004 3.34000001L9.33500004.340000001C9.33500004.201928813 9.44692885.0900000004 9.58500004.0900000004 9.72307123.0900000004 9.83500004.201928813 9.83500004.340000001L9.83500004 3.34000001C9.83500004 3.4780712 9.72307123 3.59 9.58500004 3.59zM14.0800001 3.59C13.9419289 3.59 13.8300001 3.4780712 13.8300001 3.34000001L13.8300001.340000001C13.8300001.201928813 13.9419289.0900000004 14.0800001.0900000004 14.2180712.0900000004 14.3300001.201928813 14.3300001.340000001L14.3300001 3.34000001C14.3300001 3.4780712 14.2180712 3.59 14.0800001 3.59zM12.8550001 13.3050175C12.7886981 13.3058083 12.7251402 13.2785692 12.6800001 13.2300001 12.6316614 13.1846334 12.6042407 13.121293 12.6042407 13.0550001 12.6042407 12.9887071 12.6316614 12.9253667 12.6800001 12.8800001L14.7950001 10.76C14.8419417 10.7126719 14.9058407 10.6860505 14.9725001 10.6860505 15.0391594 10.6860505 15.1030584 10.7126719 15.1500001 10.76 15.2458917 10.8589069 15.2458917 11.0160932 15.1500001 11.115L13.0300001 13.2300001C12.9841635 13.2775706 12.9210591 13.3046153 12.8550001 13.3050175L12.8550001 13.3050175z"/>
      <path fill="#1A1A1A" d="M15.0000001 13.3050001C14.9324333 13.3048345 14.8676942 13.2778599 14.8200001 13.2300001L12.7050001 11.115C12.6576719 11.0680584 12.6310505 11.0041594 12.6310505 10.9375 12.6310505 10.8708407 12.6576719 10.8069417 12.7050001 10.76 12.7503667 10.7116614 12.8137071 10.6842407 12.8800001 10.6842407 12.946293 10.6842407 13.0096334 10.7116614 13.0550001 10.76L15.1750001 12.8800001C15.24503 12.9514251 15.2657439 13.0577179 15.2276581 13.1502122 15.1895722 13.2427065 15.1000189 13.303595 15.0000001 13.3050001L15.0000001 13.3050001zM5.09000002 3.59C4.95192883 3.59 4.84000002 3.4780712 4.84000002 3.34000001L4.84000002.340000001C4.84000002.201928813 4.95192883.0900000004 5.09000002.0900000004 5.22807121.0900000004 5.34000002.201928813 5.34000002.340000001L5.34000002 3.34000001C5.34000002 3.4780712 5.22807121 3.59 5.09000002 3.59zM5.11000002 8.75001163C4.67070448 8.75001163 4.27476146 8.48509934 4.10712126 8.07904844 3.93948106 7.67299754 4.03322916 7.20593001 4.34457457 6.89601937 4.65591998 6.58610873 5.12341555 6.49451897 5.5286878 6.6640329 5.93396005 6.83354683 6.19702443 7.23070916 6.19501163 7.67000003 6.19501163 7.95730226 6.08053162 8.23276494 5.87690963 8.43544858 5.67328765 8.63813221 5.39729917 8.75133014 5.11000002 8.75001163zM5.11000002 7.08500003C4.78691344 7.08500003 4.52500002 7.34691345 4.52500002 7.67000003 4.52500002 7.99308661 4.78691344 8.25500003 5.11000002 8.25500003 5.4330866 8.25500003 5.69500002 7.99308661 5.69500002 7.67000003 5.69634695 7.51443938 5.63514581 7.36485847 5.5251437 7.25485636 5.41514158 7.14485424 5.26556067 7.08365311 5.11000002 7.08500003zM9.60500004 8.75001163C9.1657045 8.75001163 8.76976148 8.48509934 8.60212128 8.07904844 8.43448107 7.67299754 8.52822918 7.20593001 8.83957459 6.89601937 9.15092 6.58610873 9.61841557 6.49451897 10.0236878 6.6640329 10.4289601 6.83354683 10.6920244 7.23070916 10.6900116 7.67000003 10.6900116 7.95730226 10.5755316 8.23276494 10.3719097 8.43544858 10.1682877 8.63813221 9.89229919 8.75133014 9.60500004 8.75001163L9.60500004 8.75001163zM9.60500004 7.08500003C9.28191346 7.08500003 9.02000004 7.34691345 9.02000004 7.67000003 9.02000004 7.99308661 9.28191346 8.25500003 9.60500004 8.25500003 9.92808662 8.25500003 10.19 7.99308661 10.19 7.67000003 10.191347 7.51443938 10.1301458 7.36485847 10.0201437 7.25485636 9.9101416 7.14485424 9.76056069 7.08365311 9.60500004 7.08500003zM5.09000002 13.0800116C4.65025504 13.0820219 4.25277778 12.8184141 4.08355936 12.4125264 3.91434093 12.0066386 4.00685068 11.5387506 4.31780063 11.2278007 4.62875057 10.9168507 5.09663858 10.824341 5.50252633 10.9935594 5.90841407 11.1627778 6.17202187 11.5602551 6.17001157 12.0000001 6.16726283 12.5953301 5.68533008 13.0772629 5.09000002 13.0800116zM5.09000002 11.415C4.85294512 11.4129739 4.63810314 11.5542127 4.54597874 11.772644 4.45385435 11.9910753 4.50266275 12.2435099 4.66957102 12.411857 4.8364793 12.5802041 5.08848565 12.6311775 5.30769964 12.5409314 5.52691363 12.4506853 5.66999136 12.2370636 5.67000002 12.0000001 5.67133361 11.84531 5.61081587 11.696497 5.50189989 11.5866421 5.39298392 11.4767871 5.24469582 11.4149943 5.09000002 11.415zM9.58500004 13.0800116C9.14525506 13.0820219 8.7477778 12.8184141 8.57855938 12.4125264 8.40934095 12.0066386 8.5018507 11.5387506 8.81280065 11.2278007 9.12375059 10.9168507 9.5916386 10.824341 9.99752634 10.9935594 10.4034141 11.1627778 10.6670219 11.5602551 10.6650116 12.0000001 10.6622629 12.5953301 10.1803301 13.0772629 9.58500004 13.0800116zM9.58500004 11.415C9.34794514 11.4129739 9.13310316 11.5542127 9.04097876 11.772644 8.94885437 11.9910753 8.99766277 12.2435099 9.16457104 12.411857 9.33147932 12.5802041 9.58348567 12.6311775 9.80269966 12.5409314 10.0219136 12.4506853 10.1649914 12.2370636 10.165 12.0000001 10.1663336 11.84531 10.1058159 11.696497 9.99689991 11.5866421 9.88798394 11.4767871 9.73969584 11.4149943 9.58500004 11.415zM13.9350001 8.75000004C13.493975 8.75812657 13.091926 8.4984462 12.917959 8.09310109 12.7439921 7.68775598 12.8327376 7.21743529 13.1424537 6.90335706 13.4521697 6.58927883 13.9212033 6.49396439 14.3289417 6.66224541 14.7366802 6.83052644 15.0019579 7.22890445 15.0000108 7.67000003 14.9973832 8.25955849 14.5244643 8.7391383 13.9350001 8.75000004zM13.9350001 7.08500003C13.6967386 7.07684962 13.4773657 7.21409686 13.3804838 7.43192444 13.2836019 7.64975202 13.3285942 7.90457939 13.4942123 8.07606003 13.6598303 8.24754066 13.9129391 8.30136661 14.1340038 8.21211766 14.3550684 8.12286871 14.4998607 7.90840081 14.5000002 7.67000003 14.5001845 7.35456547 14.2502503 7.09578406 13.9350001 7.08500003z"/>
    </g>
  </g>
</svg>
