<svg xmlns="http://www.w3.org/2000/svg" width="24" height="24" viewBox="0 0 24 24">
  <g fill="none" fill-rule="evenodd">
    <rect width="24" height="24"/>
    <g fill-rule="nonzero" transform="translate(2.5 4)">
      <path fill="#CCC" d="M1.31000001,6.96000003 C0.796281824,6.16064092 0.52374592,5.23019988 0.524995694,4.28000002 L0.524995694,4.28000002 C0.523885514,3.01449104 1.02570685,1.80040716 1.92000001,0.905000004 L2.23500001,0.590000002 C2.42872431,0.39678319 2.69770313,0.298676984 2.97033343,0.321797575 C3.24296373,0.344918165 3.49158009,0.486919369 3.65000002,0.710000003 L3.84500002,0.950000004 L5.69500002,3.54500001 C5.95927164,3.91490457 5.91918313,4.42128563 5.60000002,4.74500002 L4.79000002,5.55500002 C4.47194022,5.87169603 4.38782056,6.35438265 4.58000002,6.76000003 L4.58000002,6.76000003 C5.66670838,9.03938709 7.50456963,10.8754829 9.78500004,11.96 L9.78500004,11.96 C10.1922063,12.1582469 10.680383,12.0758796 11,11.755 L11.81,10.945 C12.1324414,10.6242475 12.6389161,10.5820413 13.0100001,10.845 L15.6000001,12.6950001 C15.8232993,12.8544132 15.9653131,13.103858 15.9884164,13.3772466 C16.0115197,13.6506352 15.9133806,13.9203746 15.7200001,14.1150001 L15.4300001,14.4050001 C14.5202311,15.3144868 13.286408,15.8252823 12,15.8250002 L12,15.8250002 C11.0595591,15.8236006 10.1394702,15.551046 9.35000004,15.0400001 L8.35000003,14.3750001 C5.78748271,12.7165124 3.6074796,10.5313959 1.95500001,7.96500003 L1.31000001,6.96000003 Z"/>
      <path fill="#000" d="M12,16.0750258 C11.0113246,16.0757606 10.0437427,15.789134 9.21500004,15.2500001 L8.21500003,14.5850001 C5.62966694,12.9020068 3.43394617,10.685829 1.77500001,8.08500003 L1.13,7.08500003 L1.13,7.08500003 C0.591067442,6.24504799 0.304715895,5.2679818 0.304884339,4.27000002 C0.295987814,2.94414599 0.81395997,1.66899925 1.74500001,0.725000003 L2.06000001,0.415000002 C2.30772264,0.167941587 2.65127081,0.0418520995 3.00000001,0.0700000003 C3.34836169,0.0996751789 3.66541423,0.282942544 3.86500002,0.570000002 L4.05000002,0.800000003 L5.90000002,3.40000001 C6.22817379,3.8639982 6.17544696,4.49672023 5.77500002,4.90000002 L4.96500002,5.71000002 C4.72520798,5.95338525 4.66145794,6.319948 4.80500002,6.63000003 C5.868314,8.86170579 7.6624854,10.6629339 9.89000004,11.735 C10.1983978,11.884423 10.5675861,11.8222228 10.81,11.58 L11.62,10.77 C12.0284285,10.360177 12.6730974,10.3052216 13.1450001,10.64 L15.7350001,12.5000001 C16.0193159,12.7012899 16.2001608,13.0179215 16.2290904,13.3650759 C16.2580199,13.7122302 16.1320773,14.0544275 15.8850001,14.3000001 L15.5950001,14.5900001 C14.642696,15.544677 13.3484334,16.0793029 12,16.0750258 Z M1.50000001,6.82500003 L2.14500001,7.82500003 C3.7727574,10.3636422 5.92410698,12.5252201 8.45500004,14.1650001 L9.45500004,14.8300001 C10.1995858,15.3130705 11.067445,15.5716925 11.955,15.575011 C13.1767325,15.5776687 14.3487797,15.0915662 15.2100001,14.2250001 L15.5000001,13.9350001 C15.6401334,13.7937791 15.7113928,13.5982726 15.6950001,13.4000001 C15.6793717,13.199155 15.5748523,13.0157875 15.4100001,12.9000001 L12.8200001,11.05 C12.5487357,10.8560085 12.1771849,10.8855637 11.94,11.12 L11.13,11.93 C10.7364009,12.3278387 10.132954,12.4304247 9.63000004,12.1850001 C7.31809979,11.0627753 5.45754607,9.18634952 4.35500002,6.86500003 C4.11116642,6.36181847 4.2135878,5.75933979 4.61000002,5.36500002 L5.42000002,4.55500002 C5.65529417,4.32535274 5.68918524,3.9589055 5.50000002,3.69000002 L3.45500001,0.865000004 C3.34079211,0.696888391 3.15737657,0.588673221 2.95500001,0.570000002 C2.75445419,0.554780499 2.55724945,0.627819292 2.41500001,0.770000003 L2.10500001,1.08 C1.25409676,1.92717493 0.777054019,3.07927814 0.780000003,4.28000002 C0.770588354,5.17987766 1.02055064,6.06342491 1.50000001,6.82500003 Z"/>
    </g>
    <path fill="#000" fill-rule="nonzero" d="M17.825,12.2500001 C17.6869289,12.2500001 17.5750001,12.1380712 17.5750001,12 C17.5750001,8.96243391 15.1125662,6.50000003 12.0750001,6.50000003 C11.9369289,6.50000003 11.825,6.38807121 11.825,6.25000003 C11.825,6.11192884 11.9369289,6.00000003 12.0750001,6.00000003 C15.3887086,6.00000003 18.0750001,8.68629154 18.0750001,12 C18.0750001,12.1380712 17.9630713,12.2500001 17.825,12.2500001 Z"/>
    <path fill="#000" fill-rule="nonzero" d="M20.9250001,12.2500001 C20.7869289,12.2500001 20.6750001,12.1380712 20.6750001,12 C20.6694895,7.25815846 16.8268416,3.41551059 12.0850001,3.41000001 C11.9469289,3.41000001 11.835,3.2980712 11.835,3.16000001 C11.835,3.02192883 11.9469289,2.91000001 12.0850001,2.91000001 C17.1029838,2.91551126 21.1694888,6.98201626 21.1750001,12 C21.1750001,12.1380712 21.0630713,12.2500001 20.9250001,12.2500001 Z"/>
  </g>
</svg>
