<svg xmlns="http://www.w3.org/2000/svg" width="24" height="24" viewBox="0 0 24 24">
  <g fill="none" fill-rule="evenodd">
    <rect width="24" height="24"/>
    <path fill="#1A1A1A" fill-rule="nonzero" d="M18.9450001,7.33000003 L17.3100001,7.33000003 C17.1719289,7.33000003 17.0600001,7.21807122 17.0600001,7.08000003 C17.0600001,6.94192884 17.1719289,6.83000003 17.3100001,6.83000003 L18.9450001,6.83000003 C19.8846713,6.78000409 20.6209589,6.00350035 20.6209589,5.06250002 C20.6209589,4.12149969 19.8846713,3.34499595 18.9450001,3.29500001 L5.00000002,3.29500001 C4.34610189,3.26020885 3.72642221,3.58927681 3.38901455,4.15048021 C3.05160688,4.71168361 3.05160688,5.41331644 3.38901455,5.97451983 C3.72642221,6.53572323 4.34610189,6.86479119 5.00000002,6.83000003 L6.68000003,6.83000003 C6.81807122,6.83000003 6.93000003,6.94192884 6.93000003,7.08000003 C6.93000003,7.21807122 6.81807122,7.33000003 6.68000003,7.33000003 L5.00000002,7.33000003 C4.16449762,7.36924452 3.37510608,6.94584961 2.94561287,6.22811709 C2.51611967,5.51038457 2.51611967,4.61461548 2.94561287,3.89688296 C3.37510608,3.17915044 4.16449762,2.75575552 5.00000002,2.79500001 L18.9450001,2.79500001 C20.1559419,2.85187932 21.108493,3.85022313 21.108493,5.06250002 C21.108493,6.27477691 20.1559419,7.27312072 18.9450001,7.33000003 Z"/>
    <path fill="#1A1A1A" fill-rule="nonzero" d="M19.2800001,5.32500002 L4.68500002,5.32500002 C4.54336235,5.32227572 4.42995093,5.20666388 4.42995093,5.06500002 C4.42865677,4.9965077 4.4549286,4.9303555 4.50289674,4.88144681 C4.55086488,4.83253811 4.61649453,4.80498685 4.68500002,4.80500002 L19.2800001,4.80500002 C19.3489564,4.80500002 19.4150884,4.8323928 19.4638478,4.88115226 C19.5126073,4.92991172 19.5400001,4.99604373 19.5400001,5.06500002 C19.5400001,5.13395631 19.5126073,5.20008833 19.4638478,5.24884778 C19.4150884,5.29760724 19.3489564,5.32500002 19.2800001,5.32500002 L19.2800001,5.32500002 Z"/>
    <path fill="#CCC" fill-rule="nonzero" d="M5.01011316,7.60011317 L19.8451132,7.60011317 L19.8451132,18.2501132 L5.01011316,18.2501132 C4.77539657,18.2501132 4.55029335,18.1568724 4.38432366,17.9909027 C4.21835396,17.8249331 4.12511316,17.5998298 4.12511316,17.3651132 L4.12511316,8.50511321 C4.11972957,8.26695077 4.21058829,8.03667513 4.37714507,7.86635436 C4.54370186,7.69603358 4.77188989,7.60011317 5.01011316,7.60011317 Z" transform="rotate(-90 11.985 12.925)"/>
    <path fill="#000" fill-rule="nonzero" d="M16.4250001,21.0000001 L7.54500003,21.0000001 C7.24397931,21.0000001 6.95528762,20.8804201 6.74243383,20.6675663 C6.52958004,20.4547125 6.41000003,20.1660208 6.41000003,19.8650001 L6.41000003,5.06500002 C6.41000003,4.92692883 6.52192884,4.81500002 6.66000003,4.81500002 L17.3100001,4.81500002 C17.4480713,4.81500002 17.5600001,4.92692883 17.5600001,5.06500002 L17.5600001,19.8850001 C17.5490906,20.504019 17.0441151,21.0000001 16.4250001,21.0000001 Z M6.92500003,5.29500002 L6.92500003,19.8850001 C6.93553315,20.2221283 7.20779763,20.492197 7.54500003,20.5000001 L16.425,20.5000001 C16.5934125,20.5000001 16.7549273,20.4330985 16.8740129,20.3140129 C16.9930985,20.1949273 17.0600001,20.0334126 17.0600001,19.8650001 L17.0600001,5.31500002 L6.92500003,5.29500002 Z"/>
    <path fill="#CCC" fill-rule="nonzero" d="M13.3150001,6.22500003 L13.3150001,6.22500003 C13.3150001,7.32956953 14.2104306,8.22500003 15.3150001,8.22500003 L15.4250001,8.22500003 L15.4250001,16.7700001 L15.3150001,16.7700001 C14.2104306,16.7700001 13.3150001,17.6654306 13.3150001,18.7700001 L10.65,18.7700001 C10.65,17.6654306 9.75456954,16.7700001 8.65000004,16.7700001 L8.54000004,16.7700001 L8.54000004,8.23500003 L8.65000004,8.23500003 C9.75456954,8.23500003 10.65,7.33956953 10.65,6.23500003 L13.3150001,6.23500003 L13.3150001,6.22500003 Z"/>
    <path fill="#000" fill-rule="nonzero" d="M13.3150001,19.0250001 L10.65,19.0250001 C10.5119289,19.0250001 10.4,18.9130713 10.4,18.7750001 C10.4053441,18.3060896 10.2228047,17.8545432 9.89309738,17.5210785 C9.56339003,17.1876138 9.11394101,16.9999696 8.64500004,17.0000001 L8.53500004,17.0000001 C8.39692885,17.0000001 8.28500003,16.8880713 8.28500003,16.7500001 L8.28500003,8.23500003 C8.28500003,8.09692885 8.39692885,7.98500003 8.53500004,7.98500003 L8.64500004,7.98500003 C9.61506801,7.98224415 10.400004,7.19507191 10.4,6.22500003 C10.4026601,6.0880458 10.5130458,5.97766008 10.65,5.97500002 L13.3150001,5.97500002 C13.4530712,5.97500002 13.5650001,6.08692884 13.5650001,6.22500003 C13.5610051,6.69350919 13.7439815,7.14427424 14.0733972,7.47744399 C14.4028129,7.81061374 14.8514757,7.99868603 15.3200001,8.00000003 L15.4350001,8.00000003 C15.5730713,8.00000003 15.6850001,8.11192885 15.6850001,8.25000003 L15.6850001,16.7700001 C15.6850001,16.9080713 15.5730713,17.0200001 15.4350001,17.0200001 L15.3200001,17.0200001 C14.3518802,17.0227465 13.5677465,17.8068802 13.5650001,18.7750001 C13.5650001,18.8413042 13.5386608,18.9048927 13.4917768,18.9517768 C13.4448927,18.9986609 13.3813042,19.0250001 13.3150001,19.0250001 Z M10.885,18.5250001 L13.0800001,18.5250001 C13.2020131,17.4351781 14.0903655,16.5911379 15.1850001,16.5250001 L15.1850001,8.50000003 C14.0912316,8.43187247 13.203956,7.58885525 13.0800001,6.50000003 L10.885,6.50000003 C10.7633363,7.58806291 9.87770044,8.4315256 8.78500004,8.50000003 L8.78500004,16.5250001 C9.87857078,16.5914793 10.7652867,17.4359706 10.885,18.5250001 L10.885,18.5250001 Z"/>
    <circle cx="11.985" cy="12.5" r="1.59" fill="#CCC" fill-rule="nonzero"/>
    <path fill="#000" fill-rule="nonzero" d="M12.0000001,14.3400001 C11.2544546,14.3460781 10.5789339,13.9016506 10.2894046,13.2145933 C9.99987534,12.527536 10.1535738,11.7336716 10.6786095,11.2043206 C11.2036452,10.6749695 11.9962249,10.5147781 12.6856291,10.7986738 C13.3750333,11.0825696 13.8250001,11.7544298 13.8250001,12.5000001 C13.8250001,13.5103748 13.0103413,14.3317633 12.0000001,14.3400001 Z M12.0000001,11.16 C11.456697,11.1539179 10.9634996,11.4765139 10.7513585,11.9767253 C10.5392175,12.4769367 10.6501301,13.0557374 11.0321589,13.4420911 C11.4141877,13.8284448 11.9917033,13.9458657 12.494271,13.7393688 C12.9968387,13.532872 13.324966,13.0433372 13.3250001,12.5000001 C13.3223556,11.7668653 12.7330585,11.170897 12.0000001,11.16 L12.0000001,11.16 Z"/>
  </g>
</svg>
