<svg xmlns="http://www.w3.org/2000/svg" width="24" height="24" viewBox="0 0 24 24">
  <g fill="none" fill-rule="evenodd">
    <rect width="24" height="24"/>
    <g fill-rule="nonzero" transform="translate(2.5 8)">
      <rect width="3.255" height="6.835" x=".5" y=".555" fill="#CCC" rx="1.628"/>
      <path fill="#000" d="M2.75500001,7.64500003 L1.50000001,7.64500003 C0.809644066,7.64500003 0.250000001,7.08535597 0.250000001,6.39500003 L0.250000001,1.56000001 C0.250000001,0.868830578 0.808836063,0.307753664 1.50000001,0.305000001 L2.75500001,0.305000001 C3.44420896,0.31049188 4.00000002,0.870769179 4.00000002,1.56000001 L4.00000002,6.39500003 C4.00000002,7.08340805 3.44340253,7.6422464 2.75500001,7.64500003 Z M1.50000001,0.805000003 C1.08497896,0.807748547 0.750000003,1.14496986 0.750000003,1.56000001 L0.750000003,6.39500003 C0.750000003,6.80921359 1.08578644,7.14500003 1.50000001,7.14500003 L2.75500001,7.14500003 C3.16921358,7.14500003 3.50500001,6.80921359 3.50500001,6.39500003 L3.50500001,1.56000001 C3.50500001,1.14496986 3.17002106,0.807748547 2.75500001,0.805000003 L1.50000001,0.805000003 Z"/>
      <path fill="#CCC" d="M7.25500003,4.89000002 L9.64000004,7.27500003 C10.08094,7.7142555 10.79406,7.7142555 11.235,7.27500003 L11.235,7.27500003 C11.6742555,6.83406002 11.6742555,6.12094003 11.235,5.68000002 L8.23500002,2.68000001 C7.38782511,1.82909676 6.23572189,1.35205402 5.03500002,1.35498644 L3.73500002,1.35498644 L3.73500002,6.71500003 C3.73500002,6.71500003 5.70500002,7.27000003 6.73500002,8.29000003 L6.76500003,8.32000003 C8.33961052,9.89710244 10.4764021,10.783835 12.7050001,10.785 L17.2800001,10.785 C18.0449145,10.785 18.6650818,10.1649144 18.6650818,9.40000004 L18.6650818,9.40000004 C18.6689974,9.03181018 18.5262162,8.67718378 18.2682074,8.41448392 C18.0101986,8.15178406 17.6582022,8.0026369 17.2900001,8.00000003 L14.0000001,8.00000003 C13.0372774,8.00012921 12.0917641,7.74477159 11.26,7.26000003 L11.26,7.26000003"/>
      <path fill="#000" d="M17.2900001,11.035009 L12.7150001,11.035009 C10.4188962,11.0383043 8.21624831,10.1259329 6.59500003,8.50000004 C5.59500002,7.50000003 3.70500002,6.96500003 3.69000002,6.96000003 C3.58135117,6.93074712 3.50563156,6.83251628 3.50500001,6.72000003 L3.50500001,1.37500001 C3.50500001,1.23692882 3.61692883,1.125 3.75500002,1.125 L5.05500002,1.125 C6.31828319,1.11526155 7.53318648,1.61022215 8.43000004,2.50000001 L11.43,5.50000002 C11.6887766,5.76723941 11.8277546,6.12822117 11.815,6.50000003 C11.8163364,6.75301806 11.7451998,7.00112873 11.61,7.21500003 C12.3514872,7.58608036 13.1708977,7.77464762 14.0000001,7.76500003 L17.3150001,7.76500003 C18.2179856,7.76500003 18.9500001,8.49701447 18.9500001,9.40000004 C18.9500001,10.3029856 18.2179856,11.035009 17.3150001,11.035009 L17.2900001,11.035009 Z M4.00000002,6.53000003 C5.07356051,6.84445659 6.06745441,7.38487575 6.91500003,8.11500003 C8.44520761,9.66432933 10.5323969,10.5359424 12.7100001,10.5350008 L17.2850001,10.5350008 C17.9118433,10.5350008 18.4200001,10.0268432 18.4200001,9.40000004 C18.4200001,8.77315685 17.9118433,8.26500003 17.2850001,8.26500003 L14,8.26500003 C13.0537879,8.26534262 12.1224009,8.02991822 11.29,7.58000003 C10.7392878,7.99007517 9.97126432,7.93476046 9.48500004,7.45000003 L7.10000003,5.07000002 C7.00410838,4.97109318 7.00410838,4.81390686 7.10000003,4.71500002 C7.14694168,4.66767186 7.21084065,4.64105044 7.27750003,4.64105044 C7.34415941,4.64105044 7.40805838,4.66767186 7.45500003,4.71500002 L9.84000004,7.10000003 C10.1831394,7.44066696 10.7368606,7.44066696 11.08,7.10000003 L11.08,7.10000003 C11.2448798,6.93580262 11.3375658,6.71269321 11.3375658,6.48000003 C11.3375658,6.24730684 11.2448798,6.02419743 11.08,5.86000002 L8.08000003,2.86000001 C7.28509761,2.06233553 6.2061132,1.61275869 5.08000002,1.61000001 L4.00000002,1.61000001 L4.00000002,6.53000003 Z"/>
    </g>
    <g fill-rule="nonzero" transform="translate(11 2.5)">
      <path fill="#CCC" d="M5.18000002,1.37000001 L5.18000002,1.37000001 C4.12428108,0.394196402 2.49571895,0.394196402 1.44000001,1.37000001 L1.24000001,1.61000001 C0.318095655,2.72111633 0.396171332,4.35203049 1.42000001,5.37000002 C2.5137057,6.48320698 3.71263346,7.48789505 5.00000002,8.37000003 L5.20000002,8.50500004 L5.20000002,8.50500004 C6.57284019,7.57874704 7.84627228,6.51308545 9.00000004,5.32500002 C9.52085178,4.79949122 9.80889659,4.08685981 9.79949587,3.34702357 C9.79009516,2.60718734 9.4840362,1.90210489 8.95000004,1.39000001 L8.95000004,1.39000001 C7.90844321,0.424351317 6.30467241,0.404898571 5.24000002,1.34500001 L5.18000002,1.37000001 Z"/>
      <path fill="#000" d="M5.20000002,8.76000004 C5.1538027,8.75893742 5.10880382,8.74509161 5.07000002,8.72000004 L4.87000002,8.58000004 C3.56874697,7.6832263 2.35802046,6.66172813 1.25500001,5.53000002 C0.141866556,4.43162363 0.0591730396,2.6624176 1.065,1.46500001 L1.26500001,1.22500001 C2.35141025,0.210620234 4.01679473,0.144685471 5.18000002,1.07 C6.33799536,0.134909116 8.00650223,0.190242252 9.10000004,1.2 C9.69575123,1.7552063 10.0373939,2.53068088 10.045,3.34500001 C10.0589662,4.1496035 9.74909448,4.92608428 9.18500004,5.50000002 C8.01476511,6.70813833 6.72291541,7.79221973 5.33000002,8.73500004 C5.2897004,8.75486352 5.24479255,8.76349965 5.20000002,8.76000004 Z M3.31000001,0.869972551 C2.67391431,0.867020809 2.06061287,1.10661962 1.59500001,1.54000001 L1.41500001,1.75500001 C0.570124176,2.77851652 0.641561044,4.27652598 1.58000001,5.21500002 C2.66465598,6.32624335 3.85343685,7.3308469 5.13000002,8.21500003 L5.20000002,8.26500003 C6.52000342,7.36165883 7.74464618,6.32632474 8.85500004,5.17500002 C9.33284957,4.6932849 9.59764,4.04011155 9.59012223,3.36163301 C9.58260447,2.68315447 9.30340607,2.0360087 8.81500004,1.56500001 C7.85907956,0.667856482 6.37927207,0.639772545 5.39000002,1.50000001 L5.33000002,1.55000001 C5.24384367,1.62941996 5.11115637,1.62941996 5.02500002,1.55000001 C4.56093366,1.11297615 3.94745383,0.869730503 3.31000001,0.869972551 Z"/>
    </g>
  </g>
</svg>
