<svg xmlns="http://www.w3.org/2000/svg" width="24" height="24" viewBox="0 0 24 24">
  <g fill="none" fill-rule="evenodd">
    <rect width="24" height="24"/>
    <rect width="12" height="12" x="5.915" y="6" fill="#CCC" fill-rule="nonzero"/>
    <path fill="#1A1A1A" fill-rule="nonzero" d="M17.9150001,18.25 L5.91500002,18.25 C5.77692884,18.25 5.66500002,18.1380713 5.66500002,18.0000001 L5.66500002,6.00000002 C5.66500002,5.86192884 5.77692884,5.75000002 5.91500002,5.75000002 L17.9150001,5.75000002 C18.0530713,5.75000002 18.165,5.86192884 18.165,6.00000002 L18.165,18.0000001 C18.165,18.1380713 18.0530713,18.25 17.9150001,18.25 Z M6.16500003,17.75 L17.665,17.75 L17.665,6.25000003 L6.16500003,6.25000003 L6.16500003,17.75 Z"/>
    <path fill="#1A1A1A" fill-rule="nonzero" d="M11.915 6.25000001C11.7769289 6.25000001 11.665 6.13807121 11.665 6.00000002L11.665 3.00000001C11.665 2.86192882 11.7769289 2.75000001 11.915 2.75000001 12.0530712 2.75000001 12.165 2.86192882 12.165 3.00000001L12.165 6.00000002C12.165 6.13807121 12.0530712 6.25000001 11.915 6.25000001zM14.9150001 6.25000001C14.7769289 6.25000001 14.6650001 6.13807121 14.6650001 6.00000002L14.6650001 3.00000001C14.6650001 2.86192882 14.7769289 2.75000001 14.9150001 2.75000001 15.0530713 2.75000001 15.1650001 2.86192882 15.1650001 3.00000001L15.1650001 6.00000002C15.1650001 6.13807121 15.0530713 6.25000001 14.9150001 6.25000001zM8.91500004 6.25000001C8.77692885 6.25000001 8.66500004 6.13807121 8.66500004 6.00000002L8.66500004 3.00000001C8.66500004 2.86192882 8.77692885 2.75000001 8.91500004 2.75000001 9.05307123 2.75000001 9.16500004 2.86192882 9.16500004 3.00000001L9.16500004 6.00000002C9.16500004 6.13807121 9.05307123 6.25000001 8.91500004 6.25000001zM11.915 21.2500001C11.7769289 21.2500001 11.665 21.1380713 11.665 21.0000001L11.665 18.0000001C11.665 17.8619289 11.7769289 17.7500001 11.915 17.7500001 12.0530712 17.7500001 12.165 17.8619289 12.165 18.0000001L12.165 21.0000001C12.165 21.1380713 12.0530712 21.2500001 11.915 21.2500001zM14.9150001 21.2500001C14.7769289 21.2500001 14.6650001 21.1380713 14.6650001 21.0000001L14.6650001 18.0000001C14.6650001 17.8619289 14.7769289 17.7500001 14.9150001 17.7500001 15.0530713 17.7500001 15.1650001 17.8619289 15.1650001 18.0000001L15.1650001 21.0000001C15.1650001 21.1380713 15.0530713 21.2500001 14.9150001 21.2500001zM8.91500004 21.2500001C8.77692885 21.2500001 8.66500004 21.1380713 8.66500004 21.0000001L8.66500004 18.0000001C8.66500004 17.8619289 8.77692885 17.7500001 8.91500004 17.7500001 9.05307123 17.7500001 9.16500004 17.8619289 9.16500004 18.0000001L9.16500004 21.0000001C9.16500004 21.1380713 9.05307123 21.2500001 8.91500004 21.2500001zM5.91500002 12.25L2.91500001 12.25C2.77692882 12.25 2.66500001 12.1380712 2.66500001 12 2.66500001 11.8619289 2.77692882 11.75 2.91500001 11.75L5.91500002 11.75C6.05307121 11.75 6.16500001 11.8619289 6.16500001 12 6.16500001 12.1380712 6.05307121 12.25 5.91500002 12.25zM5.91500002 9.25000004L2.91500001 9.25000004C2.77692882 9.25000004 2.66500001 9.13807123 2.66500001 9.00000004 2.66500001 8.86192885 2.77692882 8.75000004 2.91500001 8.75000004L5.91500002 8.75000004C6.05307121 8.75000004 6.16500001 8.86192885 6.16500001 9.00000004 6.16500001 9.13807123 6.05307121 9.25000004 5.91500002 9.25000004zM5.91500002 15.2500001L2.91500001 15.2500001C2.77692882 15.2500001 2.66500001 15.1380713 2.66500001 15.0000001 2.66500001 14.8619289 2.77692882 14.7500001 2.91500001 14.7500001L5.91500002 14.7500001C6.05307121 14.7500001 6.16500001 14.8619289 6.16500001 15.0000001 6.16500001 15.1380713 6.05307121 15.2500001 5.91500002 15.2500001zM20.9150001 12.25L17.9150001 12.25C17.7769289 12.25 17.6650001 12.1380712 17.6650001 12 17.6650001 11.8619289 17.7769289 11.75 17.9150001 11.75L20.9150001 11.75C21.0530713 11.75 21.1650001 11.8619289 21.1650001 12 21.1650001 12.1380712 21.0530713 12.25 20.9150001 12.25zM20.9150001 9.25000004L17.9150001 9.25000004C17.7769289 9.25000004 17.6650001 9.13807123 17.6650001 9.00000004 17.6650001 8.86192885 17.7769289 8.75000004 17.9150001 8.75000004L20.9150001 8.75000004C21.0530713 8.75000004 21.1650001 8.86192885 21.1650001 9.00000004 21.1650001 9.13807123 21.0530713 9.25000004 20.9150001 9.25000004zM20.9150001 15.2500001L17.9150001 15.2500001C17.7769289 15.2500001 17.6650001 15.1380713 17.6650001 15.0000001 17.6650001 14.8619289 17.7769289 14.7500001 17.9150001 14.7500001L20.9150001 14.7500001C21.0530713 14.7500001 21.1650001 14.8619289 21.1650001 15.0000001 21.1650001 15.1380713 21.0530713 15.2500001 20.9150001 15.2500001z"/>
    <path fill="#000" fill-rule="nonzero" d="M12.8550001 9.38000004C12.7180458 9.37733999 12.6076601 9.26695426 12.6050001 9.13000004L12.6050001 7.89500003C12.6076601 7.75804581 12.7180458 7.64766008 12.8550001 7.64500003 12.9930712 7.64500003 13.1050001 7.75692884 13.1050001 7.89500003L13.1050001 9.13000004C13.1050001 9.26807123 12.9930712 9.38000004 12.8550001 9.38000004L12.8550001 9.38000004zM11.035 9.38000004C10.8980458 9.37733999 10.7876601 9.26695426 10.785 9.13000004L10.785 7.89500003C10.7876601 7.75804581 10.8980458 7.64766008 11.035 7.64500003 11.1730712 7.64500003 11.285 7.75692884 11.285 7.89500003L11.285 9.13000004C11.285 9.26807123 11.1730712 9.38000004 11.035 9.38000004L11.035 9.38000004z"/>
    <path fill="#000" fill-rule="nonzero" d="M10.545 9.38000004L9.31000004 9.38000004C9.17304581 9.37733999 9.06266009 9.26695426 9.06000004 9.13000004 9.06000004 8.99192885 9.17192885 8.88000004 9.31000004 8.88000004L10.545 8.88000004C10.6830712 8.88000004 10.795 8.99192885 10.795 9.13000004 10.795 9.26807123 10.6830712 9.38000004 10.545 9.38000004zM10.545 15.1200001L9.31000004 15.1200001C9.17192885 15.1200001 9.06000004 15.0080712 9.06000004 14.8700001 9.06266009 14.7330458 9.17304581 14.6226601 9.31000004 14.6200001L10.545 14.6200001C10.6830712 14.6200001 10.795 14.7319289 10.795 14.8700001 10.795 15.0080712 10.6830712 15.1200001 10.545 15.1200001L10.545 15.1200001zM12.8550001 16.3550001C12.7180458 16.35234 12.6076601 16.2419543 12.6050001 16.1050001L12.6050001 14.8700001C12.6076601 14.7330458 12.7180458 14.6226601 12.8550001 14.6200001 12.9930712 14.6200001 13.1050001 14.7319289 13.1050001 14.8700001L13.1050001 16.1050001C13.1050001 16.2430713 12.9930712 16.3550001 12.8550001 16.3550001L12.8550001 16.3550001z"/>
    <path fill="#000" fill-rule="nonzero" d="M11.035,16.3550001 C10.8980458,16.35234 10.7876601,16.2419543 10.785,16.1050001 L10.785,14.8700001 C10.7876601,14.7330458 10.8980458,14.6226601 11.035,14.6200001 C11.1730712,14.6200001 11.285,14.7319289 11.285,14.8700001 L11.285,16.1050001 C11.285,16.2430713 11.1730712,16.3550001 11.035,16.3550001 L11.035,16.3550001 Z"/>
    <path fill="#000" fill-rule="nonzero" d="M13.0850001,15.1200001 L10.19,15.1200001 C10.0519289,15.1200001 9.94000004,15.0080712 9.94000004,14.8700001 L9.94000004,12 C9.94000004,11.8619289 10.0519289,11.75 10.19,11.75 L13.0850001,11.75 C14.0155999,11.75 14.7700001,12.5044002 14.7700001,13.4350001 C14.7700001,14.3655999 14.0155999,15.1200001 13.0850001,15.1200001 L13.0850001,15.1200001 Z M10.44,14.6200001 L13.0850001,14.6200001 C13.7394575,14.6200001 14.27,14.0894575 14.27,13.4350001 C14.27,12.7805426 13.7394575,12.2500001 13.0850001,12.2500001 L10.44,12.2500001 L10.44,14.6200001 Z"/>
    <path fill="#000" fill-rule="nonzero" d="M13.0850001,12.2500001 L10.19,12.2500001 C10.0519289,12.2500001 9.94000004,12.1380712 9.94000004,12.0000001 L9.94000004,9.13000004 C9.94000004,8.99192885 10.0519289,8.88000004 10.19,8.88000004 L13.0850001,8.88000004 C14.0155998,8.88000004 14.77,9.63440026 14.77,10.565 C14.77,11.4955998 14.0155998,12.2500001 13.0850001,12.2500001 L13.0850001,12.2500001 Z M10.44,11.75 L13.0850001,11.75 C13.7394575,11.75 14.2700001,11.2194575 14.2700001,10.565 C14.2700001,9.91054261 13.7394575,9.38000004 13.0850001,9.38000004 L10.44,9.38000004 L10.44,11.75 Z"/>
  </g>
</svg>
