<svg xmlns="http://www.w3.org/2000/svg" width="24" height="24" viewBox="0 0 24 24">
  <g fill="none" fill-rule="evenodd">
    <rect width="24" height="24"/>
    <g fill-rule="nonzero" transform="translate(3.5 2.5)">
      <path fill="#000" d="M12.6750001,7.63500011 C12.5369289,7.63500011 12.4250001,7.52307122 12.4250001,7.38500003 L12.4250001,5.68000002 C12.4250001,5.25474076 12.0802593,4.91000002 11.655,4.91000002 L9.93000004,4.91000002 C9.26084457,4.86795137 8.7396477,4.31297532 8.7396477,3.64250002 C8.7396477,2.97202471 9.26084457,2.41704866 9.93000004,2.37500001 L13.7600001,2.37500001 C14.1833054,2.37225122 14.525009,2.02831427 14.5250001,1.60500001 L14.5250001,1.50000001 C14.525009,1.07668574 14.1833054,0.732748797 13.7600001,0.730000001 L12.5650001,0.730000001 C12.4269289,0.730000001 12.3150001,0.61807119 12.3150001,0.480000002 C12.3150001,0.341928814 12.4269289,0.230000001 12.5650001,0.230000001 L13.7600001,0.230000001 C14.4594483,0.232753755 15.0250001,0.800546362 15.0250001,1.50000001 L15.0250001,1.59500001 C15.0250001,2.29445365 14.4594483,2.86224626 13.7600001,2.86500001 L9.93000004,2.86500001 C9.53008399,2.89730488 9.22199802,3.2312813 9.22199802,3.63250002 C9.22199802,4.03371873 9.53008399,4.36769515 9.93000004,4.40000002 L11.655,4.40000002 C12.3564017,4.40000002 12.9250001,4.96859839 12.9250001,5.67000002 L12.9250001,7.37500003 C12.927723,7.44301924 12.9025909,7.50920753 12.8554084,7.55827729 C12.8082259,7.60734705 12.7430737,7.63500011 12.6750001,7.63500011 Z"/>
      <rect width="6.905" height="1.25" x="6.565" y="17.26" fill="#CCC" rx=".625" transform="rotate(-180 10.018 17.885)"/>
      <path fill="#000" d="M12.8850001,18.7600001 L7.14500003,18.7600001 C6.92354426,18.7600001 6.71115874,18.6720271 6.55456587,18.5154342 C6.39797299,18.3588414 6.30993951,18.1464558 6.30993951,17.9250001 L6.30993951,17.8400001 C6.30731224,17.6172733 6.39425944,17.4028131 6.55129166,17.2448406 C6.70832387,17.086868 6.92226119,16.998642 7.14500003,16.9999846 L12.8850001,16.9999846 C13.1059948,16.9986688 13.3183953,17.0855269 13.4751336,17.2413266 C13.6318719,17.3971263 13.72006,17.6090013 13.72006,17.8300001 L13.72006,17.9150001 C13.7226731,18.1381834 13.6358816,18.353147 13.4789981,18.5119094 C13.3221145,18.6706717 13.1081994,18.7600001 12.8850001,18.7600001 L12.8850001,18.7600001 Z M7.14500003,17.5000001 C6.9619198,17.4999797 6.81273257,17.6469402 6.81000003,17.8300001 L6.81000003,17.9150001 C6.81000003,18.0038476 6.84529457,18.0890562 6.90811926,18.1518808 C6.97094394,18.2147055 7.05615251,18.2500001 7.14500003,18.2500001 L12.8850001,18.2500001 C12.9738476,18.2500001 13.0590561,18.2147055 13.1218808,18.1518808 C13.1847055,18.0890562 13.2200001,18.0038476 13.2200001,17.9150001 L13.2200001,17.8300001 C13.2172675,17.6469402 13.0680803,17.4999797 12.8850001,17.5000001 L7.14500003,17.5000001 Z"/>
      <path fill="#000" d="M10.895,17.5 L9.13500004,17.5 C5.91388691,17.4945045 3.3032546,14.8861073 3.29499296,11.665 L3.29499296,8.78500004 C3.29367207,8.31291412 3.47993487,7.85963629 3.81281235,7.52488344 C4.14568982,7.1901306 4.59791409,7.00132425 5.07000002,7.00000003 L11.12,7.00000003 C11.2580712,7.00000003 11.37,7.11192884 11.37,7.25000003 C11.37,7.38807122 11.2580712,7.50000003 11.12,7.50000003 L5.07000002,7.50000003 C4.36502894,7.50275385 3.79499296,8.07502358 3.79499296,8.78000004 L3.79499296,11.66 C3.80050315,14.6069181 6.18808194,16.9944969 9.13500004,17 L10.895,17 C13.840789,16.9945196 16.2290031,14.6107736 16.2400001,11.665 L16.2400001,8.78500004 C16.2413295,8.44465744 16.1070599,8.11779845 15.8668691,7.87666939 C15.6266783,7.63554033 15.3003453,7.50000003 14.9600001,7.50000003 L14.2200001,7.50000003 C14.0819289,7.50000003 13.9700001,7.38807122 13.9700001,7.25000003 C13.9700001,7.11192884 14.0819289,7.00000003 14.2200001,7.00000003 L14.9600001,7.00000003 C15.941927,7.00274669 16.7372534,7.79807313 16.7400001,8.78000004 L16.7400001,11.66 C16.7317455,14.8838687 14.1188746,17.4945044 10.895,17.5 L10.895,17.5 Z"/>
      <path fill="#000" d="M3.94529728 14.2355652L3.18000001 14.2300001C1.61565992 14.1652256.380804596 12.8781806.380804596 11.3125.380804596 9.74681947 1.61565992 8.45977449 3.18000001 8.39500003L3.54500001 8.39500003C3.68195424 8.39766009 3.79233996 8.50804581 3.79500002 8.64500004 3.79500002 8.78307122 3.6830712 8.89500003 3.54500001 8.89500003L3.18000001 8.89500003C1.88756937 8.95379245.869971591 10.0187329.869971591 11.3125.869971591 12.6062672 1.88756937 13.6712076 3.18000001 13.7300001L3.94529728 13.7355652C4.0822515 13.7382253 4.19263722 13.848611 4.19529728 13.9855652 4.19529728 14.1236364 4.08336846 14.2355652 3.94529728 14.2355652zM7.31500003 10.35C7.17692884 10.35 7.06500003 10.2380712 7.06500003 10.1L7.06500003 7.28500003C7.06500003 7.14692884 7.17692884 7.03500003 7.31500003 7.03500003 7.45307122 7.03500003 7.56500003 7.14692884 7.56500003 7.28500003L7.56500003 10.1C7.56500003 10.2380712 7.45307122 10.35 7.31500003 10.35z"/>
      <rect width="2.395" height="2.395" x="6.055" y="10.3" fill="#CCC" rx="1.198" transform="rotate(-180 7.253 11.498)"/>
      <path fill="#000" d="M7.78500003,12.9450001 L6.73000003,12.9450001 C6.22189806,12.9450001 5.81000002,12.533102 5.81000002,12.0250001 L5.81000002,10.97 C5.81000002,10.4618981 6.22189806,10.05 6.73000003,10.05 L7.78500003,10.05 C8.02854192,10.05 8.2620367,10.147084 8.43377694,10.3197627 C8.60551719,10.4924414 8.70133087,10.7264618 8.70001372,10.97 L8.70001372,12.0250001 C8.70001372,12.5311558 8.2911483,12.9422492 7.78500003,12.9450001 L7.78500003,12.9450001 Z M6.73000003,10.55 C6.61819912,10.5486447 6.51058121,10.5924593 6.43152022,10.6715202 C6.35245924,10.7505812 6.30864471,10.8581991 6.31000003,10.97 L6.31000003,12.0250001 C6.31000003,12.2569596 6.49804043,12.4450001 6.73000003,12.4450001 L7.78500003,12.4450001 C8.01500465,12.4422617 8.2000302,12.255021 8.20000003,12.0250001 L8.20000003,10.97 C8.20133662,10.8590714 8.15820429,10.7522255 8.08023136,10.6733131 C8.00225842,10.5944008 7.89593668,10.549992 7.78500003,10.55 L6.73000003,10.55 Z"/>
    </g>
  </g>
</svg>
