<svg xmlns="http://www.w3.org/2000/svg" width="24" height="24" viewBox="0 0 24 24">
  <g fill="none" fill-rule="evenodd">
    <rect width="24" height="24"/>
    <circle cx="7.705" cy="7.61" r="4.705" fill="#CCC" fill-rule="nonzero"/>
    <path fill="#000" fill-rule="nonzero" d="M7.70500003,12.5650001 C4.96842909,12.5650001 2.75000001,10.346571 2.75000001,7.61000003 C2.75000001,4.87342908 4.96842909,2.65500001 7.70500003,2.65500001 C10.441571,2.65500001 12.6600001,4.87342908 12.6600001,7.61000003 C12.6600001,10.346571 10.441571,12.5650001 7.70500003,12.5650001 Z M7.70500003,3.16000001 C5.90266596,3.16000001 4.27789587,4.24596885 3.58864051,5.91130219 C2.89938514,7.57663554 3.28145335,9.49320215 4.55661137,10.766929 C5.83176939,12.0406559 7.74876384,12.4205716 9.41332213,11.7294466 C11.0778804,11.0383215 12.1620229,9.41233297 12.1600029,7.61000003 C12.1544919,5.15266658 10.1623381,3.1627487 7.70500003,3.16000001 Z"/>
    <path fill="#000" fill-rule="nonzero" d="M8.10500003,7.36000003 L7.30500003,7.36000003 C6.98484593,7.38453667 6.67793559,7.22762952 6.51035203,6.95373822 C6.34276846,6.67984693 6.34276846,6.33515313 6.51035203,6.06126183 C6.67793559,5.78737054 6.98484593,5.63046339 7.30500003,5.65500002 L9.20500004,5.65500002 C9.34307123,5.65500002 9.45500004,5.54307121 9.45500004,5.40500002 C9.45500004,5.26692883 9.34307123,5.15500002 9.20500004,5.15500002 L7.95500003,5.15500002 L7.95500003,4.50000002 C7.95500003,4.36192883 7.84307122,4.25000002 7.70500003,4.25000002 C7.56692884,4.25000002 7.45500003,4.36192883 7.45500003,4.50000002 L7.45500003,5.18000002 L7.30500003,5.18000002 C6.80217311,5.14941312 6.32388442,5.40030022 6.06322339,5.83137596 C5.80256235,6.26245169 5.80256235,6.80254836 6.06322339,7.2336241 C6.32388442,7.66469983 6.80217311,7.91558693 7.30500003,7.88500003 L8.10500003,7.88500003 C8.57720348,7.88500005 8.96,8.26779659 8.96,8.74000004 C8.96,9.21220349 8.57720348,9.59500002 8.10500003,9.59500004 L6.20000003,9.59500004 C6.06192884,9.59500004 5.95000002,9.70692885 5.95000002,9.84500004 C5.95266008,9.98195427 6.0630458,10.09234 6.20000003,10.095 L7.45500003,10.095 L7.45500003,10.77 C7.45500003,10.9080712 7.56692884,11.02 7.70500003,11.02 C7.84307122,11.02 7.95500003,10.9080712 7.95500003,10.77 L7.95500003,10.07 L8.10500003,10.07 C8.85334587,10.07 9.46000004,9.46334588 9.46000004,8.71500004 C9.46000004,7.9666542 8.85334587,7.36000003 8.10500003,7.36000003 Z"/>
    <circle cx="16.295" cy="16.205" r="4.705" fill="#CCC" fill-rule="nonzero"/>
    <path fill="#000" fill-rule="nonzero" d="M16.2950001,21.1600001 C13.5584291,21.1600001 11.34,18.941571 11.34,16.2050001 C11.34,13.4684291 13.5584291,11.25 16.2950001,11.25 C19.031571,11.25 21.2500001,13.4684291 21.2500001,16.2050001 C21.247244,18.9404286 19.0304286,21.157244 16.2950001,21.1600001 L16.2950001,21.1600001 Z M16.2950001,11.75 C13.8345715,11.75 11.84,13.7445715 11.84,16.2050001 C11.84,18.6654286 13.8345715,20.6600001 16.2950001,20.6600001 C18.7554286,20.6600001 20.7500001,18.6654286 20.7500001,16.2050001 C20.7472446,13.7457138 18.7542864,11.7527556 16.2950001,11.75 Z"/>
    <path fill="#000" fill-rule="nonzero" d="M16.2950001,19.6350001 C15.2996185,19.621326 14.4999061,18.8104756 14.5000001,17.8150001 L14.5000001,14.6800001 C14.4647374,14.007924 14.8032323,13.3712458 15.3800994,13.0246133 C15.9569664,12.6779808 16.6780337,12.6779808 17.2549008,13.0246133 C17.8317678,13.3712458 18.1702628,14.007924 18.1350001,14.6800001 C18.1350001,14.8180712 18.0230713,14.9300001 17.8850001,14.9300001 C17.7469289,14.9300001 17.6350001,14.8180712 17.6350001,14.6800001 C17.6652046,14.1899327 17.420905,13.7235976 17.0008153,13.4694265 C16.5807256,13.2152554 16.0542745,13.2152554 15.6341849,13.4694265 C15.2140952,13.7235976 14.9697956,14.1899327 15.0000001,14.6800001 L15.0000001,17.8150001 C14.9697956,18.3050674 15.2140952,18.7714025 15.6341849,19.0255736 C16.0542745,19.2797448 16.5807256,19.2797448 17.0008153,19.0255736 C17.420905,18.7714025 17.6652046,18.3050674 17.6350001,17.8150001 C17.6350001,17.6769289 17.7469289,17.5650001 17.8850001,17.5650001 C18.0219543,17.5676601 18.13234,17.6780458 18.1350001,17.8150001 C18.1350294,18.3011794 17.940537,18.7671604 17.5948829,19.1090574 C17.2492288,19.4509544 16.78115,19.6403427 16.2950001,19.6350001 L16.2950001,19.6350001 Z"/>
    <path fill="#000" fill-rule="nonzero" d="M16.2950001 15.6000001L13.4300001 15.6000001C13.2919289 15.6000001 13.1800001 15.4880713 13.1800001 15.3500001 13.1800001 15.2119289 13.2919289 15.1000001 13.4300001 15.1000001L16.2950001 15.1000001C16.4330713 15.1000001 16.5450001 15.2119289 16.5450001 15.3500001 16.5450001 15.4880713 16.4330713 15.6000001 16.2950001 15.6000001zM16.2950001 17.3050001L13.4300001 17.3050001C13.2919289 17.3050001 13.1800001 17.1930713 13.1800001 17.0550001 13.1800001 16.9169289 13.2919289 16.8050001 13.4300001 16.8050001L16.2950001 16.8050001C16.4330713 16.8050001 16.5450001 16.9169289 16.5450001 17.0550001 16.5450001 17.1930713 16.4330713 17.3050001 16.2950001 17.3050001zM18.7250001 9.45500004C18.6935487 9.46022208 18.6614515 9.46022208 18.6300001 9.45500004 18.5349483 9.41596461 18.4734621 9.32274363 18.4750001 9.22000004 18.4763268 7.87800439 17.9444932 6.59044642 16.9964966 5.64057452 16.0485001 4.69070262 14.7619957 4.15632544 13.4200001 4.15500002 13.2830458 4.15233996 13.1726601 4.04195424 13.1700001 3.90500002 13.1700001 3.76692883 13.2819289 3.65500002 13.4200001 3.65500002 16.2514223 3.66473725 18.6215678 5.80433229 18.9200001 8.62000004L19.8000001 7.71500003C19.8596687 7.64268843 19.9547792 7.60983845 20.0463563 7.62991173 20.1379335 7.64998501 20.2105826 7.71960712 20.2345329 7.81024758 20.2584831 7.90088804 20.2297083 7.99730976 20.1600001 8.06000003L18.8850001 9.38000004C18.8423103 9.42327067 18.7855677 9.44986876 18.7250001 9.45500004zM10.5 20.1600001C7.66862467 20.1454278 5.3004182 18.0054304 5.00000002 15.1900001L4.09000002 16.1000001C4.04305837 16.1473282 3.9791594 16.1739496 3.91250002 16.1739496 3.84584063 16.1739496 3.78194167 16.1473282 3.73500002 16.1000001 3.63910837 16.0010932 3.63910837 15.8439069 3.73500002 15.7450001L5.00000002 14.4300001C5.07264229 14.3613058 5.17872693 14.3414001 5.27133065 14.3790877 5.36393436 14.4167752 5.4259708 14.5051023 5.43000002 14.6050001 5.43132434 15.9478633 5.96638799 17.2351266 6.91734186 18.183267 7.86829573 19.1314074 9.15713876 19.6626546 10.5 19.6600001 10.6380712 19.6600001 10.75 19.7719289 10.75 19.9100001 10.75 20.0480713 10.6380712 20.1600001 10.5 20.1600001z"/>
  </g>
</svg>
