<svg xmlns="http://www.w3.org/2000/svg" width="24" height="24" viewBox="0 0 24 24">
  <g fill="none" fill-rule="evenodd">
    <rect width="24" height="24"/>
    <path fill="#CCC" fill-rule="nonzero" d="M6.00000001,17.9150001 L12,17.9150001 C13.6568543,17.9150001 15,19.2581458 15,20.9150001 L15,20.9150001 L3.00000001,20.9150001 L3.00000001,20.9150001 C3.00000001,19.2581458 4.34314577,17.9150001 6.00000001,17.9150001 Z"/>
    <path fill="#000" fill-rule="nonzero" d="M15.0000001,21.1650001 L3.00000001,21.1650001 C2.86192882,21.1650001 2.75000001,21.0530713 2.75000001,20.9150001 C2.75275333,19.1212163 4.20621628,17.6677534 6.00000002,17.6650001 L12,17.6650001 C13.7937838,17.6677534 15.2472467,19.1212163 15.25,20.9150001 C15.25,21.0530713 15.1380713,21.1650001 15.0000001,21.1650001 Z M3.26000001,20.6650001 L14.76,20.6650001 C14.6261784,19.2506892 13.4406223,18.1689775 12.0200001,18.1650001 L6.00000003,18.1650001 C4.57937773,18.1689775 3.39382171,19.2506892 3.26000001,20.6650001 Z"/>
    <path fill="#CCC" fill-rule="nonzero" d="M7.00000003,16.1600001 L11,16.1600001 C11.9223156,16.1600001 12.6700001,16.9076845 12.6700001,17.8300001 L12.6700001,17.9300001 L5.33500002,17.9300001 L5.33500002,17.8300001 C5.33500002,16.9096336 6.07963772,16.1627557 7.00000003,16.1600001 Z"/>
    <path fill="#000" fill-rule="nonzero" d="M12.6650001,18.1750001 L5.33500002,18.1750001 C5.19692883,18.1750001 5.08500002,18.0630713 5.08500002,17.9250001 L5.08500002,17.8250001 C5.08774772,16.768515 5.94351496,15.9127478 7.00000003,15.9100001 L11,15.9100001 C12.0584372,15.9100001 12.9172437,16.7665665 12.9200001,17.8250001 L12.9200001,17.9250001 C12.9200001,17.9921797 12.892989,18.0565378 12.8450179,18.1035683 C12.7970468,18.1505988 12.7321662,18.1763437 12.6650001,18.1750001 Z M5.59500002,17.6750001 L12.4100001,17.6750001 C12.3310074,16.9556461 11.7236777,16.4107723 11,16.4099979 L7.00000003,16.4099979 C6.27647149,16.4087299 5.66940444,16.9553063 5.59500002,17.6750001 Z"/>
    <polygon fill="#CCC" fill-rule="nonzero" points="10.372 6.112 15.842 6.112 15.842 10.402 10.372 10.402" transform="rotate(-45 13.107 8.257)"/>
    <path fill="#000" fill-rule="nonzero" d="M12.6950001,11.955 C12.6284216,11.9546579 12.5643172,11.9297284 12.5150001,11.885 L9.50000004,8.85000004 C9.40471432,8.75278916 9.40471432,8.59721091 9.50000004,8.50000004 L13.3500001,4.63000002 C13.4489069,4.53410837 13.6060932,4.53410837 13.7050001,4.63000002 L16.7400001,7.66000003 C16.7847284,7.70931716 16.8096579,7.77342161 16.8100046,7.84000003 C16.8103919,7.90523194 16.7852714,7.96803339 16.7400001,8.01500003 L12.8700001,11.885 C12.8219693,11.9285974 12.7598481,11.9534459 12.6950001,11.955 L12.6950001,11.955 Z M10,8.67500002 L12.6800001,11.355 L16.1800001,7.85500003 L13.5050001,5.17500002 L10,8.67500002 Z"/>
    <path fill="#CCC" fill-rule="nonzero" d="M15.7823364,2.35001084 C16.3580933,2.35001084 16.8248365,2.81675399 16.8248365,3.39251085 L16.8248365,7.77251086 C16.8248365,8.34826772 16.3580933,8.81501087 15.7823364,8.81501087 C15.2065796,8.81501087 14.7398364,8.34826772 14.7398364,7.77251086 L14.7398364,3.39251085 C14.7398364,2.81675399 15.2065796,2.35001084 15.7823364,2.35001084 Z" transform="rotate(-45 15.782 5.583)"/>
    <path fill="#000" fill-rule="nonzero" d="M17.3300001,8.42500915 C16.986356,8.42629574 16.6566241,8.28935793 16.4150001,8.04500003 L13.3200001,4.95000002 C13.0763408,4.70785153 12.9393267,4.37851963 12.9393267,4.03500002 C12.9393267,3.6914804 13.0763408,3.3621485 13.3200001,3.12000001 C13.8340523,2.63614815 14.6359479,2.63614815 15.1500001,3.12000001 L18.2450001,6.22000003 C18.4883593,6.46129177 18.6252522,6.78979695 18.6252522,7.13250003 C18.6252522,7.47520311 18.4883593,7.80370829 18.2450001,8.04500003 L18.2450001,8.04500003 C18.0030568,8.2888831 17.6735331,8.42573445 17.3300001,8.42500915 Z M14.2350001,3.24500001 C14.0212765,3.24966902 13.8188358,3.34185183 13.6750001,3.50000001 C13.5244547,3.64845819 13.4397016,3.85106746 13.4397016,4.06250002 C13.4397016,4.27393258 13.5244547,4.47654184 13.6750001,4.62500002 L16.7700001,7.72000003 C16.9668039,7.93943596 17.2688651,8.03197164 17.5548108,7.96042475 C17.8407564,7.88887786 18.0636457,7.6649935 18.1339182,7.37873201 C18.2041907,7.09247052 18.1103105,6.79082444 17.8900001,6.59500003 L14.7950001,3.50000001 C14.6508135,3.34233371 14.4485905,3.25025004 14.2350001,3.24500001 Z"/>
    <path fill="#CCC" fill-rule="nonzero" d="M10.4373364,7.69398235 C11.0130933,7.69398235 11.4798364,8.16072551 11.4798364,8.73648236 L11.4798364,13.1164824 C11.4798364,13.6922392 11.0130933,14.1589824 10.4373364,14.1589824 C9.86157957,14.1589824 9.39483642,13.6922392 9.39483642,13.1164824 L9.39483642,8.73648236 C9.39483642,8.16072551 9.86157957,7.69398235 10.4373364,7.69398235 Z" transform="rotate(-45 10.437 10.926)"/>
    <path fill="#000" fill-rule="nonzero" d="M12,13.7700001 C11.656467,13.7707345 11.3269433,13.6338831 11.085,13.3900001 L8.00000003,10.295 C7.52787875,9.78433892 7.54340961,8.99194739 8.0351785,8.5001785 C8.52694739,8.00840961 9.31933892,7.99287875 9.83000004,8.46500004 L12.9250001,11.56 C13.1686593,11.8021485 13.3056734,12.1314804 13.3056734,12.4750001 C13.3056734,12.8185197 13.1686593,13.1478516 12.9250001,13.3900001 L12.9250001,13.3900001 C12.6806238,13.6363678 12.3469944,13.7734264 12,13.7700001 L12,13.7700001 Z M8.89000004,8.5849975 C8.56978509,8.58672405 8.28186268,8.78039668 8.15955476,9.07633815 C8.03724684,9.37227963 8.10443191,9.71271255 8.33000003,9.94000004 L11.425,13.0350001 C11.7398728,13.3353179 12.2351273,13.3353179 12.5500001,13.0350001 L12.5500001,13.0350001 C12.8576113,12.7250314 12.8576113,12.2249687 12.5500001,11.915 L9.45000004,8.82000004 C9.30274626,8.66922975 9.10074885,8.58446298 8.89000004,8.5849975 Z"/>
    <path fill="#CCC" fill-rule="nonzero" d="M13.7039222,9.5616933 L16.5739223,9.5616933 L16.5739223,10.2966933 C16.5604428,10.6900657 16.2375254,11.0019242 15.8439223,11.0016934 L14.4289223,11.0016934 C14.0257544,11.0016934 13.6989222,10.6748612 13.6989222,10.2716933 L13.6989222,9.5616933 L13.7039222,9.5616933 Z" transform="rotate(-45 15.136 10.282)"/>
    <path fill="#000" fill-rule="nonzero" d="M14.6450001,11.7700214 C14.3889124,11.7716724 14.1419426,11.675032 13.9550001,11.5 L13.4550001,11 C13.4076719,10.9530584 13.3810505,10.8891594 13.3810505,10.8225 C13.3810505,10.7558407 13.4076719,10.6919417 13.4550001,10.645 L15.4850001,8.61500004 C15.5319417,8.56767187 15.5958407,8.54105045 15.6625001,8.54105045 C15.7291594,8.54105045 15.7930584,8.56767187 15.8400001,8.61500004 L16.3400001,9.11500004 C16.5244357,9.29723376 16.6282376,9.54572099 16.6282376,9.80500004 C16.6282376,10.0642791 16.5244357,10.3127663 16.3400001,10.495 L15.3400001,11.495 C15.1525866,11.6730526 14.9035033,11.7716107 14.6450001,11.7700214 Z M13.9650001,10.77 L14.3050001,11.11 C14.4967766,11.2878586 14.7932235,11.2878586 14.9850001,11.11 L15.9850001,10.11 C16.1628587,9.91822346 16.1628587,9.62177662 15.9850001,9.43000004 L15.6400001,9.09000004 L13.9650001,10.77 Z"/>
    <path fill="#CCC" fill-rule="nonzero" d="M20.7200001,15.8650001 L20.7200001,15.8650001 C20.5132616,16.0709576 20.2298213,16.1810871 19.9382619,16.1687409 C19.6467024,16.1563947 19.3735871,16.0226978 19.1850001,15.8000001 L15.2700001,11.195 L16.0500001,10.415 L20.6550001,14.3300001 C20.8776978,14.518587 21.0113948,14.7917024 21.0237409,15.0832619 C21.0360871,15.3748213 20.9259577,15.6582616 20.7200001,15.8650001 L20.7200001,15.8650001 Z"/>
    <path fill="#000" fill-rule="nonzero" d="M20.0000001,16.4200001 L19.9450001,16.4200001 C19.5802315,16.4071603 19.2375101,16.2421463 19.0000001,15.9650001 L15.0900001,11.355 C14.9991773,11.2618008 14.9991773,11.1131993 15.0900001,11.02 L15.8700001,10.24 C15.9631993,10.1491773 16.1118008,10.1491773 16.2050001,10.24 L20.8150001,14.1550001 C21.2128093,14.5062991 21.3560057,15.0647636 21.1763187,15.564139 C20.9966318,16.0635144 20.5304377,16.4027059 20.0000001,16.4200001 Z M15.6100001,11.21 L19.3750001,15.6400001 C19.5170808,15.8094521 19.724043,15.9111178 19.9450001,15.9200001 C20.1685831,15.9351412 20.3871048,15.8488343 20.5400001,15.6850001 C20.7003553,15.5297579 20.7859974,15.3129193 20.7750001,15.0900001 C20.7717393,14.8630987 20.6716705,14.6484054 20.5000001,14.5000001 L16.0700001,10.735 L15.6100001,11.21 Z"/>
    <line x1="18.7" x2="19.91" y1="15.025" y2="13.815" fill="#CCC" fill-rule="nonzero"/>
    <path fill="#000" fill-rule="nonzero" d="M18.7000001,15.2750046 C18.5999813,15.273595 18.510428,15.2127065 18.4723421,15.1202122 C18.4342562,15.0277179 18.4549701,14.9214251 18.5250001,14.8500001 L19.7350001,13.6400001 C19.7819417,13.5926719 19.8458407,13.5660505 19.9125001,13.5660505 C19.9791595,13.5660505 20.0430584,13.5926719 20.0900001,13.6400001 C20.1852858,13.7372109 20.1852858,13.8927892 20.0900001,13.9900001 L18.8750001,15.2050001 C18.8280334,15.2502714 18.765232,15.2753919 18.7000001,15.2750046 Z"/>
  </g>
</svg>
