<svg xmlns="http://www.w3.org/2000/svg" width="24" height="24" viewBox="0 0 24 24">
  <g fill="none" fill-rule="evenodd">
    <rect width="24" height="24"/>
    <path fill="#000" fill-rule="nonzero" d="M4.58500002 11.275L2.83500001 11.275 2.83500001 9.53000004C2.83775139 8.08415518 4.00915516 6.91275141 5.45500002 6.91000003L7.20000003 6.91000003 7.20000003 8.66000004C7.19724867 10.1030835 6.02808346 11.2722487 4.58500002 11.275zM3.33500001 10.775L4.58500002 10.775C5.7519417 10.7722511 6.69725104 9.82694172 6.70000003 8.66000004L6.70000003 7.41000003 5.45500002 7.41000003C4.28415635 7.41000003 3.33500001 8.35915637 3.33500001 9.53000004L3.33500001 10.775zM21.3350001 11.275L19.5850001 11.275C18.1419166 11.2722487 16.9727514 10.1030835 16.9700001 8.66000004L16.9700001 6.91000003 18.7150001 6.91000003C20.1608449 6.91275141 21.3322487 8.08415518 21.3350001 9.53000004L21.3350001 11.275zM17.4700001 7.41000003L17.4700001 8.66000004C17.4727491 9.82694172 18.4180584 10.7722511 19.5850001 10.775L20.8350001 10.775 20.8350001 9.53000004C20.8350001 8.35915637 19.8858438 7.41000003 18.7150001 7.41000003L17.4700001 7.41000003z"/>
    <path fill="#000" fill-rule="nonzero" d="M16.9250001,7.41000003 L7.24500003,7.41000003 C4.81056653,7.40724459 2.83775546,5.43443351 2.83500001,3.00000001 C2.83500001,2.86192882 2.94692882,2.75000001 3.08500001,2.75000001 C3.2230712,2.75000001 3.33500001,2.86192882 3.33500001,3.00000001 C3.3377547,5.15829134 5.08670871,6.90724535 7.24500003,6.91000003 L16.9250001,6.91000003 C19.0832914,6.90724535 20.8322454,5.15829134 20.835,3.00000001 C20.835,2.86192882 20.9469289,2.75000001 21.0850001,2.75000001 C21.2230713,2.75000001 21.335,2.86192882 21.335,3.00000001 C21.3322446,5.43443351 19.3594336,7.40724459 16.9250001,7.41000003 Z"/>
    <path fill="#CCC" fill-rule="nonzero" d="M13.8600001,21.0000005 L10.31,21.0000005 C8.97926674,21.0007343 7.87448978,19.9723747 7.78000003,18.645 L6.95000003,7.14500003 L17.2200001,7.14500003 L16.3900001,18.645 C16.2955103,19.9723747 15.1907334,21.0007343 13.8600001,21.0000005 Z"/>
    <path fill="#000" fill-rule="nonzero" d="M13.8600001,21.2500001 L10.31,21.2500001 C8.85055852,21.2462925 7.6396496,20.1203214 7.53000003,18.6650001 L6.70000003,7.16500003 C6.69484616,7.09453614 6.72036246,7.0252776 6.77000003,6.97500003 C6.81578856,6.92380541 6.88131686,6.89468172 6.95000003,6.89499745 L17.2200001,6.89499745 C17.2886832,6.89468172 17.3542115,6.92380541 17.4000001,6.97500003 C17.4496376,7.0252776 17.4751539,7.09453614 17.4700001,7.16500003 L16.6400001,18.6650001 C16.5303505,20.1203214 15.3194416,21.2462925 13.8600001,21.2500001 Z M7.22000003,7.41000003 L8.03000003,18.6300001 C8.12122255,19.8229386 9.11358663,20.7456631 10.31,20.7500001 L13.8600001,20.7500001 C15.0564135,20.7456631 16.0487775,19.8229386 16.1400001,18.6300001 L16.9500001,7.41000003 L7.22000003,7.41000003 Z"/>
    <path fill="#000" fill-rule="nonzero" d="M10.5 19.3600001C10.150067 19.3701768 9.82888915 19.1672198 9.68786493 18.8468 9.54684072 18.5263801 9.61411915 18.1524545 9.85798619 17.901286 10.1018532 17.6501176 10.473632 17.5718406 10.7980716 17.7033536 11.1225112 17.8348666 11.3348521 18.1499191 11.3350001 18.5000001 11.3351967 18.9653707 10.965174 19.3464719 10.5 19.3600001zM10.5 18.1400001C10.3011775 18.1400001 10.14 18.3011776 10.14 18.5000001 10.14 18.6988226 10.3011775 18.8600001 10.5 18.8600001 10.6988226 18.8600001 10.86 18.6988226 10.86 18.5000001 10.86 18.3011776 10.6988226 18.1400001 10.5 18.1400001L10.5 18.1400001zM13.6900001 19.3600001C13.2150352 19.3600001 12.8300001 18.974965 12.8300001 18.5000001 12.8300001 18.0250352 13.2150352 17.6400001 13.6900001 17.6400001 14.1649649 17.6400001 14.5500001 18.0250352 14.5500001 18.5000001 14.5500001 18.974965 14.1649649 19.3600001 13.6900001 19.3600001L13.6900001 19.3600001zM13.6900001 18.1400001C13.5443936 18.1400001 13.4131246 18.2277113 13.3574034 18.362234 13.3016823 18.4967568 13.3324823 18.6515992 13.4354416 18.7545585 13.5384009 18.8575178 13.6932433 18.8883179 13.8277661 18.8325967 13.9622889 18.7768755 14.0500001 18.6456065 14.0500001 18.5000001 14.0500001 18.3011776 13.8888226 18.1400001 13.6900001 18.1400001L13.6900001 18.1400001z"/>
    <path fill="#000" fill-rule="nonzero" d="M7.84000003,18.9000001 C7.80872951,18.9070837 7.77627056,18.9070837 7.74500003,18.9000001 C7.61845779,18.8470499 7.5582163,18.7020241 7.61000003,18.5750001 C8.33605048,16.7605427 10.080201,15.5591301 12.034274,15.5274542 C13.9883471,15.4957783 15.7705212,16.6400286 16.5550001,18.4300001 C16.5834691,18.4901669 16.5862324,18.5593273 16.5626542,18.6215736 C16.5390761,18.6838199 16.4911863,18.7337936 16.4300001,18.7600001 C16.3042756,18.8134615 16.1587544,18.7583398 16.1000001,18.6350001 C15.398509,17.0249494 13.7976652,15.9946597 12.0416627,16.0230881 C10.2856603,16.0515166 8.71900594,17.1330858 8.07000003,18.7650001 C8.02574143,18.85055 7.93627165,18.9030649 7.84000003,18.9000001 L7.84000003,18.9000001 Z"/>
    <path fill="#000" fill-rule="nonzero" d="M13.6900001,16.1650001 C13.5519289,16.1650001 13.4400001,16.0530713 13.4400001,15.9150001 L13.4400001,13.2700001 C13.5016595,10.8419299 14.7231421,8.59046046 16.7250001,7.21500003 L17.0700001,6.96000003 C17.1404795,6.89502842 17.2419034,6.87607695 17.3310886,6.91121454 C17.4202739,6.94635214 17.4815151,7.02939109 17.4887378,7.12497611 C17.4959605,7.22056114 17.4478926,7.31185978 17.3650001,7.36000003 L17.0200001,7.61500003 C15.1490315,8.89985304 14.0045021,11.0012537 13.9400001,13.2700001 L13.9400001,15.9150001 C13.9400001,15.9813042 13.9136608,16.0448927 13.8667768,16.0917768 C13.8198927,16.1386609 13.7563042,16.1650001 13.6900001,16.1650001 Z"/>
    <path fill="#000" fill-rule="nonzero" d="M15.8100001 11.16L14.4450001 11.16C14.3069289 11.16 14.1950001 11.0480712 14.1950001 10.91 14.1950001 10.7719289 14.3069289 10.66 14.4450001 10.66L15.8100001 10.66C15.8763042 10.66 15.9398927 10.6863393 15.9867768 10.7332233 16.0336609 10.7801074 16.0600001 10.8436959 16.0600001 10.91 16.05734 11.0469543 15.9469543 11.15734 15.8100001 11.16zM10.5 16.1650001C10.3619289 16.1650001 10.25 16.0530713 10.25 15.9150001L10.25 13.2700001C10.1809219 10.9975937 9.02856362 8.89546919 7.15000003 7.61500003L6.80500003 7.36000003C6.72210745 7.31185978 6.67403963 7.22056114 6.68126229 7.12497611 6.68848495 7.02939109 6.74972618 6.94635214 6.83891145 6.91121454 6.92809673 6.87607695 7.02952058 6.89502842 7.10000003 6.96000003L7.44500003 7.21500003C9.44685801 8.59046046 10.6683406 10.8419299 10.7300014 13.2700001L10.7300014 15.9150001C10.7304187 16.0456235 10.6302055 16.1545508 10.5 16.1650001z"/>
    <path fill="#000" fill-rule="nonzero" d="M9.72500004,11.16 L8.36000003,11.16 C8.22304581,11.15734 8.11266009,11.0469543 8.11000003,10.91 C8.11000003,10.7719289 8.22192885,10.66 8.36000003,10.66 L9.72500004,10.66 C9.86307123,10.66 9.97500004,10.7719289 9.97500004,10.91 C9.97500004,11.0480712 9.86307123,11.16 9.72500004,11.16 Z"/>
  </g>
</svg>
