<svg xmlns="http://www.w3.org/2000/svg" width="24" height="24" viewBox="0 0 24 24">
  <g fill="none" fill-rule="evenodd">
    <rect width="24" height="24"/>
    <path fill="#000" fill-rule="nonzero" d="M18.2900001,19.1200001 L18.0500001,19.1200001 L6.05000003,17.4700001 C5.96068363,17.4574958 5.88482283,17.3982916 5.85099367,17.3146892 C5.81716451,17.2310868 5.83050644,17.1357873 5.88599367,17.0646892 C5.94148091,16.9935911 6.03068363,16.9574958 6.12000003,16.9700001 L18.1200001,18.6150001 C18.7957272,18.6976106 19.4117014,18.2200075 19.5000001,17.5450001 L20.6350001,9.29500004 C20.7239739,8.61524484 20.2488461,7.99066373 19.5700001,7.89500003 L17.9100001,7.66500003 C17.8447254,7.65635382 17.7856784,7.62179734 17.7461715,7.56912146 C17.7066646,7.51644558 17.6900235,7.45008469 17.7000001,7.38500003 C17.7206207,7.24986928 17.8441268,7.15503428 17.9800001,7.17000003 L19.6400001,7.40000003 C20.0985041,7.46120746 20.5130285,7.70451524 20.7900001,8.07500003 C21.0687176,8.44348264 21.1908874,8.90700921 21.1300001,9.36500004 L20.0000001,17.6150001 C19.8812117,18.4708364 19.1539927,19.1108742 18.2900001,19.1200001 Z"/>
    <rect width="15.055" height="11.315" x="2.915" y="5.89" fill="#CCC" fill-rule="nonzero" rx="2"/>
    <path fill="#000" fill-rule="nonzero" d="M16.5000001,17.4550001 L4.41000002,17.4550001 C3.44626313,17.4550001 2.66500001,16.673737 2.66500001,15.7100001 L2.66500001,7.38500003 C2.66500001,6.42126314 3.44626313,5.64000002 4.41000002,5.64000002 L16.5000001,5.64000002 C17.463737,5.64000002 18.2450001,6.42126314 18.2450001,7.38500003 L18.2450001,15.7100001 C18.2450001,16.673737 17.463737,17.4550001 16.5000001,17.4550001 Z M4.41000002,6.14000003 C3.72354381,6.1427404 3.16774039,6.69854382 3.16500001,7.38500003 L3.16500001,15.7100001 C3.16774039,16.3964563 3.72354381,16.9522597 4.41000002,16.9550001 L16.5000001,16.9550001 C17.1864563,16.9522597 17.7422597,16.3964563 17.7450001,15.7100001 L17.7450001,7.38500003 C17.7422597,6.69854382 17.1864563,6.1427404 16.5000001,6.14000003 L4.41000002,6.14000003 Z"/>
    <path fill="#000" fill-rule="nonzero" d="M7.00000003 10.7L4.83500002 10.7C4.69692883 10.7 4.58500002 10.5880712 4.58500002 10.45 4.58500002 10.3119289 4.69692883 10.2 4.83500002 10.2L7.00000003 10.2C7.13695426 10.2026601 7.24733998 10.3130458 7.25000003 10.45 7.25000003 10.5880712 7.13807122 10.7 7.00000003 10.7zM9.26000004 9.47000004L4.83500002 9.47000004C4.69692883 9.47000004 4.58500002 9.35807123 4.58500002 9.22000004 4.58500002 9.08192885 4.69692883 8.97000004 4.83500002 8.97000004L9.26000004 8.97000004C9.39807123 8.97000004 9.51000004 9.08192885 9.51000004 9.22000004 9.51000004 9.35807123 9.39807123 9.47000004 9.26000004 9.47000004zM9.26000004 8.23500003L4.83500002 8.23500003C4.69692883 8.23500003 4.58500002 8.12307122 4.58500002 7.98500003 4.58500002 7.84692885 4.69692883 7.73500003 4.83500002 7.73500003L9.26000004 7.73500003C9.39807123 7.73500003 9.51000004 7.84692885 9.51000004 7.98500003 9.51000004 8.12307122 9.39807123 8.23500003 9.26000004 8.23500003zM12.3800001 15.0000001C11.3858875 15.0000001 10.58 14.1941126 10.58 13.2000001 10.58 12.2058875 11.3858875 11.4 12.3800001 11.4 13.3741126 11.4 14.1800001 12.2058875 14.1800001 13.2000001 14.1772532 14.1929726 13.3729726 14.9972532 12.3800001 15.0000001zM11.08 13.2000001C11.08 13.9179702 11.6620299 14.5000001 12.3800001 14.5000001 13.0979702 14.5000001 13.6800001 13.9179702 13.6800001 13.2000001 13.6690734 12.4898524 13.0902317 11.899916 12.3800001 11.9 11.6620299 11.9 11.08 12.4820299 11.08 13.2000001z"/>
    <path fill="#000" fill-rule="nonzero" d="M14.6050001,15.0000001 C14.1440254,15.0000001 13.7011227,14.8207109 13.3700001,14.5000001 C13.2920885,14.4026525 13.2978185,14.2627783 13.3834312,14.1721295 C13.469044,14.0814807 13.6083628,14.0677738 13.7100001,14.1400001 C13.9529958,14.3667987 14.2726109,14.4935734 14.6050001,14.4950001 C15.3229702,14.4950001 15.9050001,13.9129702 15.9050001,13.1950001 C15.9050001,12.4770299 15.3229702,11.895 14.6050001,11.895 C14.2598456,11.8934864 13.9284802,12.0303547 13.6850001,12.2750001 C13.5869695,12.3730306 13.4280306,12.3730306 13.3300001,12.275 C13.2319695,12.1769695 13.2319695,12.0180306 13.3300001,11.92 C13.9076077,11.3489386 14.7961081,11.2354626 15.4987015,11.6430215 C16.201295,12.0505805 16.5438928,12.8781894 16.3349335,13.6630956 C16.1259742,14.4480019 15.4172337,14.9957214 14.6050001,15.0000001 L14.6050001,15.0000001 Z"/>
  </g>
</svg>
