<svg xmlns="http://www.w3.org/2000/svg" width="24" height="24" viewBox="0 0 24 24">
  <g fill="none" fill-rule="evenodd">
    <rect width="24" height="24"/>
    <path fill="#000" fill-rule="nonzero" d="M18.2950001,18.7700001 C18.2134101,18.7750069 18.13159,18.7750069 18.0500001,18.7700001 L6.05000003,17.1200001 C5.91486927,17.0993794 5.82003427,16.9758734 5.83500002,16.8400001 C5.85801158,16.7041305 5.98303474,16.6098147 6.12000003,16.6250001 L18.1200001,18.2750001 C18.7991682,18.3573324 19.4166961,17.8740497 19.5000001,17.1950001 L20.6550001,8.95000004 C20.7468325,8.26948717 20.2703392,7.64311098 19.5900001,7.55000003 L17.9300001,7.32000003 C17.7919289,7.30067006 17.6956701,7.17307122 17.7150001,7.03500003 C17.73433,6.89692884 17.8619289,6.80067007 18.0000001,6.82000003 L19.6600001,7.05000003 C20.1198395,7.11089644 20.5365111,7.35237012 20.8179658,7.7210758 C21.0994205,8.08978147 21.222495,8.55537517 21.1600001,9.01500004 L20.0000001,17.2650001 C19.9387927,17.7235041 19.6954849,18.1380284 19.3250001,18.4150001 C19.0297297,18.6427924 18.6679179,18.7674945 18.2950001,18.7700001 Z"/>
    <rect width="15.055" height="11.315" x="2.915" y="5.545" fill="#CCC" fill-rule="nonzero" rx="2"/>
    <path fill="#000" fill-rule="nonzero" d="M16.5000001,17.1100001 L4.41000002,17.1100001 C3.94719724,17.1100001 3.50334966,16.9261524 3.17609868,16.5989014 C2.8488477,16.2716504 2.66500001,15.8278028 2.66500001,15.3650001 L2.66500001,7.04000003 C2.66500001,6.07626314 3.44626313,5.29500002 4.41000002,5.29500002 L16.5000001,5.29500002 C17.463737,5.29500002 18.2450001,6.07626314 18.2450001,7.04000003 L18.2450001,15.3650001 C18.2450001,16.328737 17.463737,17.1100001 16.5000001,17.1100001 Z M4.41000002,5.79500002 C3.72354381,5.7977404 3.16774039,6.35354382 3.16500001,7.04000003 L3.16500001,15.3650001 C3.16774039,16.0514563 3.72354381,16.6072597 4.41000002,16.6100001 L16.5000001,16.6100001 C17.1864563,16.6072597 17.7422597,16.0514563 17.7450001,15.3650001 L17.7450001,7.04000003 C17.7422597,6.35354382 17.1864563,5.7977404 16.5000001,5.79500002 L4.41000002,5.79500002 Z"/>
    <rect width="15.055" height="1.595" x="2.915" y="7.905" fill="#FFF" fill-rule="nonzero"/>
    <path fill="#000" fill-rule="nonzero" d="M17.9700001 9.75000004L2.91500001 9.75000004C2.77692882 9.75000004 2.66500001 9.63807123 2.66500001 9.50000004L2.66500001 7.90500003C2.66500001 7.76692884 2.77692882 7.65500003 2.91500001 7.65500003L17.9700001 7.65500003C18.1080713 7.65500003 18.2200001 7.76692884 18.2200001 7.90500003L18.2200001 9.50000004C18.2200001 9.63807123 18.1080713 9.75000004 17.9700001 9.75000004zM3.16500001 9.25000004L17.7200001 9.25000004 17.7200001 8.15500003 3.16500001 8.15500003 3.16500001 9.25000004zM7.00000003 14.3550001L4.83500002 14.3550001C4.69692883 14.3550001 4.58500002 14.2430712 4.58500002 14.1050001 4.58500002 13.9669289 4.69692883 13.8550001 4.83500002 13.8550001L7.00000003 13.8550001C7.13807122 13.8550001 7.25000003 13.9669289 7.25000003 14.1050001 7.24733998 14.2419543 7.13695426 14.35234 7.00000003 14.3550001zM9.26000004 13.1200001L4.83500002 13.1200001C4.69692883 13.1200001 4.58500002 13.0080712 4.58500002 12.8700001 4.58500002 12.7319289 4.69692883 12.6200001 4.83500002 12.6200001L9.26000004 12.6200001C9.39807123 12.6200001 9.51000004 12.7319289 9.51000004 12.8700001 9.51000004 13.0080712 9.39807123 13.1200001 9.26000004 13.1200001zM9.26000004 11.89L4.83500002 11.89C4.69692883 11.89 4.58500002 11.7780712 4.58500002 11.64 4.58500002 11.5019289 4.69692883 11.39 4.83500002 11.39L9.26000004 11.39C9.39807123 11.39 9.51000004 11.5019289 9.51000004 11.64 9.51000004 11.7780712 9.39807123 11.89 9.26000004 11.89z"/>
    <rect width="4.72" height="2.795" x="11.58" y="11.5" fill="#FFF" fill-rule="nonzero" rx="1.398"/>
    <path fill="#000" fill-rule="nonzero" d="M15.2750001,14.5450001 L12.6100001,14.5450001 C11.9030756,14.5450001 11.33,13.9719245 11.33,13.2650001 L11.33,12.5300001 C11.33,11.8230756 11.9030756,11.25 12.6100001,11.25 L15.2750001,11.25 C15.9799711,11.2527539 16.5500001,11.8250236 16.5500001,12.5300001 L16.5500001,13.2650001 C16.5500001,13.9699765 15.9799711,14.5422462 15.2750001,14.5450001 Z M12.6100001,11.75 C12.1792179,11.75 11.83,12.0992179 11.83,12.5300001 L11.83,13.2650001 C11.83,13.6957822 12.1792179,14.0450001 12.6100001,14.0450001 L15.2750001,14.0450001 C15.7038283,14.0422511 16.0500001,13.6938371 16.0500001,13.2650001 L16.0500001,12.5300001 C16.0500001,12.101163 15.7038283,11.752749 15.2750001,11.75 L12.6100001,11.75 Z"/>
  </g>
</svg>
