<svg xmlns="http://www.w3.org/2000/svg" width="24" height="24" viewBox="0 0 24 24">
  <g fill="none" fill-rule="evenodd">
    <rect width="24" height="24"/>
    <rect width="3.905" height="6.5" x="17.095" y="14.37" fill="#CCC" fill-rule="nonzero" rx="1.953" transform="rotate(-180 19.047 17.62)"/>
    <path fill="#1A1A1A" fill-rule="nonzero" d="M19.5000001,21.1200001 L18.5900001,21.1200001 C17.6235018,21.1200001 16.8400001,20.3364984 16.8400001,19.3700001 L16.8400001,15.8700001 C16.8400001,14.9035017 17.6235018,14.1200001 18.5900001,14.1200001 L19.5000001,14.1200001 C20.4664984,14.1200001 21.2500001,14.9035017 21.2500001,15.8700001 L21.2500001,19.3700001 C21.2500001,20.3364984 20.4664984,21.1200001 19.5000001,21.1200001 L19.5000001,21.1200001 Z M18.5900001,14.6200001 C17.9007825,14.6227405 17.3427405,15.1807825 17.3400001,15.8700001 L17.3400001,19.3700001 C17.3427405,20.0592177 17.9007825,20.6172596 18.5900001,20.6200001 L19.5000001,20.6200001 C20.1892177,20.6172596 20.7472596,20.0592177 20.7500001,19.3700001 L20.7500001,15.8700001 C20.7472596,15.1807825 20.1892177,14.6227405 19.5000001,14.6200001 L18.5900001,14.6200001 Z"/>
    <rect width="3.905" height="9.095" x="10.1" y="11.775" fill="#CCC" fill-rule="nonzero" rx="1.953" transform="rotate(-180 12.053 16.323)"/>
    <path fill="#1A1A1A" fill-rule="nonzero" d="M12.5000001,21.1200001 L11.6,21.1200001 C10.6335017,21.1200001 9.85000004,20.3364984 9.85000004,19.3700001 L9.85000004,13.2750001 C9.85000004,12.3085017 10.6335017,11.525 11.6,11.525 L12.5000001,11.525 C13.4664984,11.525 14.2500001,12.3085017 14.2500001,13.2750001 L14.2500001,19.3700001 C14.2500001,20.3364984 13.4664984,21.1200001 12.5000001,21.1200001 L12.5000001,21.1200001 Z M11.6,12.0250001 C10.9096441,12.0250001 10.35,12.5846441 10.35,13.2750001 L10.35,19.3700001 C10.35,20.060356 10.9096441,20.6200001 11.6,20.6200001 L12.5000001,20.6200001 C12.8315207,20.6200001 13.1494631,20.488304 13.3838835,20.2538836 C13.618304,20.0194631 13.7500001,19.7015207 13.7500001,19.3700001 L13.7500001,13.2750001 C13.7500001,12.5846441 13.190356,12.0250001 12.5000001,12.0250001 L11.6,12.0250001 Z"/>
    <rect width="3.905" height="13.235" x="3.085" y="7.635" fill="#CCC" fill-rule="nonzero" rx="1.953" transform="rotate(-180 5.037 14.252)"/>
    <path fill="#1A1A1A" fill-rule="nonzero" d="M5.50000002,21.1200001 L4.58500002,21.1200001 C3.6185017,21.1200001 2.83500001,20.3364984 2.83500001,19.3700001 L2.83500001,9.13500004 C2.83500001,8.16850172 3.6185017,7.38500003 4.58500002,7.38500003 L5.50000002,7.38500003 C6.46649834,7.38500003 7.25000003,8.16850172 7.25000003,9.13500004 L7.25000003,19.3700001 C7.25000003,20.3364984 6.46649834,21.1200001 5.50000002,21.1200001 L5.50000002,21.1200001 Z M4.58500002,7.88500003 C3.89464408,7.88500003 3.33500001,8.4446441 3.33500001,9.13500004 L3.33500001,19.3700001 C3.33500001,20.060356 3.89464408,20.6200001 4.58500002,20.6200001 L5.50000002,20.6200001 C5.83152064,20.6200001 6.14946303,20.488304 6.3838835,20.2538836 C6.61830398,20.0194631 6.75000003,19.7015207 6.75000003,19.3700001 L6.75000003,9.13500004 C6.75000003,8.4446441 6.19035596,7.88500003 5.50000002,7.88500003 L4.58500002,7.88500003 Z"/>
    <path fill="#000" fill-rule="nonzero" d="M9.08500004,8.00000003 C8.97175682,7.99827642 8.87265702,7.92344596 8.84000004,7.81500003 C8.83752119,7.79340427 8.83752119,7.7715958 8.84000004,7.75000003 C8.83104068,7.64016693 8.89651254,7.53786715 9.00000004,7.50000003 L11.215,6.88000003 L0.500000002,0.735000003 C0.413040717,0.695699286 0.356039702,0.610322313 0.353079609,0.514940442 C0.350119516,0.419558571 0.40171674,0.330811347 0.486071702,0.286194042 C0.570426664,0.241576738 0.672823485,0.248872926 0.750000003,0.305000001 L11.485,6.45500003 L10.83,4.11500002 C10.7946222,3.98130875 10.872257,3.84378435 11.005,3.80500002 C11.0693266,3.78661551 11.1383379,3.7947808 11.1965979,3.8276695 C11.2548579,3.86055819 11.297505,3.91542592 11.315,3.98000002 L12.1300001,6.90500003 C12.1350799,6.93813983 12.1350799,6.97186023 12.1300001,7.00500003 C12.1256337,7.04516657 12.1100378,7.08328996 12.0850001,7.11500003 L12.0850001,7.11500003 L12.0850001,7.14500003 L12.0850001,7.14500003 C12.0540618,7.17515529 12.016339,7.19744605 11.975,7.21000003 L11.975,7.21000003 L9.15000004,8.00000003 L9.08500004,8.00000003 Z" transform="translate(7 3.5)"/>
  </g>
</svg>
