<svg xmlns="http://www.w3.org/2000/svg" width="24" height="24" viewBox="0 0 24 24">
  <g fill="none" fill-rule="evenodd">
    <rect width="24" height="24"/>
    <g fill-rule="nonzero" transform="translate(3 3)">
      <path fill="#1A1A1A" d="M16.6500001,8.19000003 C16.5119289,8.19000003 16.4000001,8.07807122 16.4000001,7.94000003 L16.4000001,1.37000001 C16.4000001,1.1490861 16.220914,0.970000002 16.0000001,0.970000002 L8.57500004,0.970000002 C8.46891344,0.970000002 8.36717187,1.01214274 8.29215732,1.08715729 C8.21714277,1.16217184 8.17500003,1.26391341 8.17500003,1.37000001 L8.17500003,7.92000003 C8.17500003,8.05807122 8.06307122,8.17000003 7.92500003,8.17000003 C7.78692884,8.17000003 7.67500003,8.05807122 7.67500003,7.92000003 L7.67500003,1.37000001 C7.67773244,0.874079937 8.07907997,0.472732406 8.57500004,0.470000002 L16.0000001,0.470000002 C16.4959201,0.472732406 16.8972677,0.874079937 16.9000001,1.37000001 L16.9000001,7.94000003 C16.9000001,8.00630416 16.8736609,8.06989263 16.8267768,8.11677673 C16.7798927,8.16366082 16.7163042,8.19000003 16.6500001,8.19000003 Z"/>
      <path fill="#CCC" d="M1.53500001,5.11999032 L5.20500002,5.11999032 C5.67065827,5.11954202 6.10127895,5.36724418 6.33500003,5.77000002 L7.20500003,7.27000003 C7.43554898,7.67348472 7.86529633,7.92178319 8.33000003,7.92000003 L16.4650001,7.92000003 C16.8106496,7.91999748 17.1420696,8.05764751 17.3860112,8.30252728 C17.6299527,8.54740705 17.7663295,8.8793531 17.7650097,9.22500004 L17.7650097,15.5250001 C17.7663295,15.870647 17.6299527,16.2025931 17.3860112,16.4474728 C17.1420696,16.6923526 16.8106496,16.8300001 16.4650001,16.8300001 L1.53500001,16.8300001 C1.18935051,16.8300001 0.857930427,16.6923526 0.613988894,16.4474728 C0.370047361,16.2025931 0.23367058,15.870647 0.234990297,15.5250001 L0.234990297,6.42000003 C0.233664632,6.07481095 0.370199665,5.74337442 0.614287031,5.49928705 C0.858374396,5.25519969 1.18981093,5.11866465 1.53500001,5.11999032 Z"/>
      <path fill="#1A1A1A" d="M16.4650001,17.0850001 L1.53500001,17.0850001 C0.684017851,17.0740541 0,16.3810526 0,15.5300001 L0,6.42000003 C0,5.56395866 0.693958641,4.86999773 1.55000001,4.86999773 L5.22000002,4.86999773 C5.774712,4.86904831 6.28764445,5.16460418 6.56500003,5.64500002 L7.43500003,7.14500003 C7.62343554,7.46932747 7.9699059,7.66921422 8.34500003,7.67000003 L16.4650001,7.67000003 C17.3190906,7.67824778 18.0055504,8.37588776 18.0000335,9.23000004 L18.0000335,15.5300001 C18.0000335,16.3810526 17.3159822,17.0740541 16.4650001,17.0850001 Z M1.53500001,5.37000002 C0.960967312,5.37820132 0.500000002,5.84590875 0.500000002,6.42000003 L0.500000002,15.5300001 C0.500000002,16.1107134 0.969293164,16.5822479 1.55000001,16.5850001 L16.4650001,16.5850001 C17.0398352,16.5741008 17.5,16.1049385 17.5,15.5300001 L17.5,9.23000004 C17.5,8.64928667 17.0307069,8.17775223 16.4500001,8.17500003 L8.33000003,8.17500003 C7.78065183,8.1706165 7.27466539,7.87577478 7,7.40000003 L6.12500003,5.90000002 C5.93731536,5.57492047 5.59036943,5.37475936 5.21500002,5.37500002 L1.53500001,5.37000002 Z"/>
      <path fill="#1A1A1A" d="M8.22000003 11.955L2.38000001 11.955C2.24192882 11.955 2.13000001 11.8430712 2.13000001 11.705 2.13000001 11.5669289 2.24192882 11.455 2.38000001 11.455L8.22000003 11.455C8.35807122 11.455 8.47000004 11.5669289 8.47000004 11.705 8.47000004 11.8430712 8.35807122 11.955 8.22000003 11.955zM8.22000003 13.5800001L2.38000001 13.5800001C2.24192882 13.5800001 2.13000001 13.4680712 2.13000001 13.3300001 2.13000001 13.1919289 2.24192882 13.0800001 2.38000001 13.0800001L8.22000003 13.0800001C8.35807122 13.0800001 8.47000004 13.1919289 8.47000004 13.3300001 8.47000004 13.4680712 8.35807122 13.5800001 8.22000003 13.5800001z"/>
    </g>
    <path fill="#000" fill-rule="nonzero" d="M15.4450001,7.22000003 L14.9450001,7.22000003 C14.7664343,7.23849153 14.5929317,7.15364922 14.497878,7.00135853 C14.4028243,6.84906783 14.4028243,6.65593222 14.497878,6.50364153 C14.5929317,6.35135084 14.7664343,6.26650852 14.9450001,6.28500003 L16.1800001,6.28500003 C16.3180713,6.28500003 16.4300001,6.17307121 16.4300001,6.03500003 C16.4300001,5.89692884 16.3180713,5.78500002 16.1800001,5.78500002 L15.4400001,5.78500002 L15.4400001,5.43000002 C15.4400001,5.29192883 15.3280713,5.18000002 15.1900001,5.18000002 C15.0519289,5.18000002 14.9400001,5.29192883 14.9400001,5.43000002 L14.9400001,5.78500002 L14.9400001,5.78500002 C14.5777437,5.75894113 14.2312799,5.93743534 14.0422074,6.24753267 C13.8531349,6.55763001 13.8531349,6.94737005 14.0422074,7.25746739 C14.2312799,7.56756472 14.5777437,7.74605893 14.9400001,7.72000003 L15.4400001,7.72000003 C15.6968125,7.72000003 15.9050001,7.92818762 15.9050001,8.18500003 C15.9050001,8.44181244 15.6968125,8.65000004 15.4400001,8.65000004 L14.2100001,8.65000004 C14.0730458,8.65266009 13.9626601,8.76304581 13.9600001,8.90000004 C13.9600001,9.03807123 14.0719289,9.15000004 14.2100001,9.15000004 L14.9400001,9.15000004 L14.9400001,9.50000004 C14.9400001,9.63807123 15.0519289,9.75000004 15.1900001,9.75000004 C15.3269543,9.74733999 15.43734,9.63695427 15.4400001,9.50000004 L15.4400001,9.15000004 L15.4400001,9.15000004 C15.9729549,9.15000004 16.4050001,8.71795482 16.4050001,8.18500003 C16.4050001,7.65204525 15.9729549,7.22000003 15.4400001,7.22000003 L15.4450001,7.22000003 Z"/>
  </g>
</svg>
