<svg xmlns="http://www.w3.org/2000/svg" width="24" height="24" viewBox="0 0 24 24">
  <g fill="none" fill-rule="evenodd">
    <path fill="#000" fill-rule="nonzero" d="M12.095 18.215C12.1610158 18.2099609 12.2221818 18.1784181 12.264567 18.1275558 12.3069522 18.0766936 12.3269479 18.0108423 12.32 17.945 12.3042714 17.8079686 12.1824325 17.7082822 12.045 17.72 11.3065265 17.7936229 10.5609115 17.7412101 9.84 17.565 9.77631475 17.5484147 9.70863482 17.5581475 9.65220368 17.5920061 9.59577255 17.6258648 9.55533546 17.6810023 9.54 17.745 9.52330595 17.8093203 9.53290635 17.8776404 9.56668051 17.9348689 9.60045468 17.9920973 9.65562333 18.0335247 9.72 18.05 10.2662925 18.1858094 10.8270794 18.2546485 11.39 18.255 11.625546 18.2542757 11.8608837 18.2409232 12.095 18.215zM17.5 9.65C17.532657 9.75844592 17.6317568 9.83327639 17.745 9.835L17.81 9.835C17.8824242 9.82039595 17.9449542 9.77509828 17.9814031 9.7108331 18.017852 9.64656792 18.0246364 9.56965331 18 9.5 17.7797395 8.73033162 17.4278757 8.00461251 16.96 7.355 16.877196 7.24537987 16.7224349 7.22106027 16.61 7.3 16.5550263 7.33815433 16.518051 7.39713427 16.507663 7.4632399 16.497275 7.52934554 16.5143782 7.59682352 16.555 7.65 16.9855799 8.2556626 17.3055183 8.93278097 17.5 9.65zM14.93 6.11499998L14.955 6.11499998C14.9925542 6.13817125 15.0358737 6.1503007 15.08 6.1500107 15.1647634 6.14895476 15.2434661 6.10585567 15.29 6.03499998 15.3620702 5.91695509 15.3291117 5.76314873 15.215 5.68499997 14.5538543 5.24410966 13.821372 4.92100545 13.05 4.72999997 12.9119288 4.69686288 12.7731371 4.78192878 12.74 4.91999997 12.7068629 5.05807116 12.7919288 5.18186289 12.93 5.21499997 13.6437865 5.39682714 14.3205288 5.70136117 14.93 6.11499998zM5.03 11.39C5.03 11.24 5.03 11.09 5.03 10.94 5.03409985 10.8736665 5.01161846 10.8084306 4.96752306 10.758706 4.92342765 10.7089814 4.86134782 10.678861 4.795 10.675 4.72884664 10.6680274 4.66276658 10.6888235 4.61252958 10.7324254 4.56229257 10.7760273 4.53240521 10.8385237 4.53 10.905 4.53 11.065 4.53 11.23 4.53 11.405 4.5283517 12.0423827 4.61586624 12.6768631 4.79 13.29 4.81925291 13.3986488 4.91748375 13.4743685 5.03 13.475L5.1 13.475C5.23073124 13.4340992 5.30579353 13.2972209 5.27 13.165 5.1075159 12.5874414 5.02673108 11.9899703 5.03 11.39L5.03 11.39zM17.74 11.85C17.6883878 12.5929339 17.5055626 13.320849 17.2 14 17.1436739 14.1256533 17.1995616 14.2731969 17.325 14.33 17.3579606 14.3453155 17.3936741 14.3538187 17.43 14.355 17.5283007 14.354666 17.6168838 14.2956106 17.655 14.205 17.984433 13.4757113 18.1808552 12.6934087 18.235 11.895 18.244665 11.7569288 18.1405712 11.637165 18.0025 11.6275 17.8644288 11.617835 17.744665 11.7219288 17.735 11.86L17.74 11.85zM14.17 17.115C14.0319288 17.1453757 13.9446244 17.2819288 13.975 17.42 14.0053757 17.5580712 14.1419288 17.6453757 14.28 17.615 14.3160751 17.6243146 14.3539249 17.6243146 14.39 17.615 14.6812549 17.4680122 14.9619323 17.3009423 15.23 17.115 15.624426 16.8490824 15.9897715 16.5423933 16.32 16.2 16.4032984 16.0990517 16.3946408 15.9509445 16.3001481 15.860389 16.2056554 15.7698334 16.0573139 15.7674833 15.96 15.855 15.6569921 16.1707111 15.3218409 16.4539138 14.96 16.7 14.7072145 16.8575446 14.4431667 16.9962533 14.17 17.115zM10.95 4.79C10.9436915 4.72356144 10.9110808 4.66240312 10.8594289 4.62014248 10.807777 4.57788184 10.7413722 4.55802743 10.675 4.565 9.87941089 4.64863693 9.10448418 4.87028628 8.385 5.22 8.32524087 5.24908242 8.27952115 5.30076266 8.25794255 5.36362207 8.23636394 5.42648148 8.24070264 5.49534595 8.27 5.555 8.31010307 5.64259612 8.39869878 5.69772234 8.495 5.695 8.53293343 5.69382 8.57028282 5.68533151 8.605 5.67 9.27027301 5.34440582 9.98808694 5.13955798 10.725 5.065 10.7914386 5.0586915 10.8525969 5.02608077 10.8948575 4.97442888 10.9371182 4.92277699 10.9569726 4.85637215 10.95 4.79zM6.81 6.615C6.76305835 6.56767184 6.69915938 6.54105042 6.6325 6.54105042 6.56584062 6.54105042 6.50194165 6.56767184 6.455 6.615 5.89871639 7.19923647 5.44863425 7.87605171 5.125 8.615 5.09653096 8.67516679 5.09376771 8.74432725 5.11734585 8.80657354 5.14092399 8.86881983 5.18881381 8.91879353 5.25 8.945 5.28291132 8.95250119 5.31708868 8.95250119 5.35 8.945 5.44784389 8.94379788 5.53672701 8.88776286 5.58 8.8 5.88101693 8.12221412 6.2990709 7.50274952 6.815 6.97 6.86167321 6.92239496 6.88739889 6.85811975 6.88646 6.79145831 6.8855211 6.72479687 6.85799542 6.66127168 6.81 6.615L6.81 6.615zM6.24 15.125C6.20096828 15.0711769 6.14210478 15.0351184 6.07642472 15.0247973 6.01074465 15.0144761 5.94365865 15.0307426 5.89 15.07 5.78037987 15.152804 5.75606027 15.3075651 5.835 15.42 6.30484851 16.0665384 6.88345198 16.6265318 7.545 17.075 7.58623517 17.1034225 7.63492689 17.1190734 7.685 17.12 7.76861597 17.1192361 7.84676149 17.0783027 7.895 17.01 7.9708158 16.8937266 7.93970434 16.7381693 7.825 16.66 7.21094254 16.2449893 6.67447384 15.7254439 6.24 15.125L6.24 15.125z"/>
    <path fill="#000" fill-rule="nonzero" d="M18.06,5.91 C15.9729113,3.3592778 12.6152851,2.21997927 9.40689095,2.97385587 C6.19849678,3.72773247 3.69961593,6.24313484 2.9668981,9.45642718 C2.23418028,12.6697195 3.39557986,16.0197651 5.96,18.09 L5.96,18.09 C8.04146322,20.6623838 11.4099131,21.8190479 14.6325801,21.0680054 C17.8552471,20.316963 20.3653009,17.7903138 21.0950906,14.5627676 C21.8248803,11.3352214 20.6460442,7.97446675 18.06,5.91 L18.06,5.91 Z M3.25997524,11.41 C3.25190578,8.11743679 5.22933605,5.14467093 8.26914217,3.87951608 C11.3089483,2.61436124 14.8116256,3.3063288 17.1419752,5.63237885 C19.4723248,7.9584289 20.1707596,11.4598223 18.9112206,14.5019597 C17.6516816,17.544097 14.6825725,19.5270138 11.39,19.5250015 C6.89911631,19.5222398 3.25997524,15.8808845 3.25997524,11.39 L3.25997524,11.41 Z M12.61,20.76 C11.0075497,20.7582253 9.44158562,20.2814762 8.11,19.39 C11.335564,20.7246382 15.0475617,19.9834036 17.5131749,17.5123161 C19.9787882,15.0412286 20.7117885,11.3275961 19.37,8.105 C21.0375112,10.5975864 21.1954082,13.8063336 19.7806723,16.4505922 C18.3659364,19.0948507 15.6089272,20.7440597 12.61,20.74 L12.61,20.76 Z"/>
    <path d="M3.25999153,11.39 C3.25724466,13.2934591 3.92657777,15.1367812 5.15,16.595 C4.6305168,15.3938097 4.36332775,14.0987086 4.365,12.79 C4.36303225,8.14474055 7.66601134,4.15512817 12.23,3.29 C11.955,3.29 11.675,3.25 11.39,3.25 C9.23246373,3.25132568 7.1638212,4.10967521 5.63915035,5.63622142 C4.11447951,7.16276763 3.25867351,9.23246373 3.25999153,11.39 L3.25999153,11.39 Z"/>
    <polygon fill="#CCC" fill-rule="nonzero" points="5.955 18.09 5.955 18.095 5.955 18.09"/>
    <path fill="#CCC" fill-rule="nonzero" d="M20.7400804,12.61 C20.7382253,11.0075497 20.2614762,9.44158562 19.37,8.11 C19.8030454,9.15102514 20.0256602,10.2674978 20.025,11.395 C20.0347741,14.2796875 18.6017606,16.9782764 16.2064995,18.5858342 C13.8112384,20.193392 10.7708934,20.4970571 8.105,19.395 C10.601318,21.0650464 13.8156095,21.2207574 16.4616648,19.7998246 C19.1077202,18.3788919 20.7533308,15.6134116 20.7400804,12.61 Z"/>
    <path fill="#000" fill-rule="nonzero" d="M5.945 18.1L5.99 18.15C5.98134177 18.1299171 5.96952573 18.111349 5.955 18.095L5.945 18.1zM13.425 12.91C13.2869288 12.91 13.175 13.0219288 13.175 13.16 13.175 13.9980921 12.4955921 14.6775 11.6575 14.6775 10.8194079 14.6775 10.14 13.9980921 10.14 13.16L10.14 12.55 11.64 12.55C11.7780712 12.55 11.89 12.4380712 11.89 12.3 11.8873399 12.1630458 11.7769542 12.0526601 11.64 12.05L10.14 12.05 10.14 10.63 11.64 10.63C11.7780712 10.63 11.89 10.5180712 11.89 10.38 11.89 10.2419288 11.7780712 10.13 11.64 10.13L10.14 10.13 10.14 9.63C10.14 8.79190789 10.8194079 8.1125 11.6575 8.1125 12.4955921 8.1125 13.175 8.79190789 13.175 9.63 13.1776601 9.76695423 13.2880458 9.87733995 13.425 9.88 13.5630712 9.88 13.675 9.76807119 13.675 9.63 13.675 8.51576552 12.7717345 7.6125 11.6575 7.6125 10.5432655 7.6125 9.64 8.51576552 9.64 9.63L9.64 10.13 8.425 10.13C8.28692881 10.13 8.175 10.2419288 8.175 10.38 8.175 10.5180712 8.28692881 10.63 8.425 10.63L9.64 10.63 9.64 12.05 8.425 12.05C8.28804577 12.0526601 8.17766005 12.1630458 8.175 12.3 8.175 12.4380712 8.28692881 12.55 8.425 12.55L9.64 12.55 9.64 13.16C9.64 14.2742345 10.5432655 15.1775 11.6575 15.1775 12.7717345 15.1775 13.675 14.2742345 13.675 13.16 13.675 13.0219288 13.5630712 12.91 13.425 12.91z"/>
    <rect width="24" height="24"/>
  </g>
</svg>
