<svg xmlns="http://www.w3.org/2000/svg" width="24" height="24" viewBox="0 0 24 24">
  <g fill="none" fill-rule="evenodd">
    <rect width="24" height="24"/>
    <circle cx="12" cy="12" r="9" fill="#CCC" fill-rule="nonzero"/>
    <path fill="#000" fill-rule="nonzero" d="M12.0000001,21.25 C6.89136609,21.25 2.75000001,17.108634 2.75000001,12.0000001 C2.75000001,6.89136609 6.89136609,2.75000001 12,2.75000001 C17.108634,2.75000001 21.25,6.89136609 21.25,12 C21.2444886,17.1063493 17.1063493,21.2444886 12.0000001,21.25 L12.0000001,21.25 Z M12.0000001,3.25000001 C7.16750847,3.25000001 3.25000001,7.16750847 3.25000001,12 C3.25000001,16.8324916 7.16750847,20.75 12,20.75 C16.8324916,20.75 20.75,16.8324916 20.75,12.0000001 C20.7444893,7.16979296 16.8302071,3.25551081 12.0000001,3.25000001 Z"/>
    <path fill="#000" fill-rule="nonzero" d="M15.0000001,14.835 C14.8619289,14.835 14.75,14.9469289 14.75,15.0850001 C14.75,16.6037831 13.5187831,17.835 12.0000001,17.835 C10.481217,17.835 9.25000003,16.6037831 9.25000003,15.0850001 L9.25000003,13.8800001 L12,13.8800001 C12.1380712,13.8800001 12.25,13.7680712 12.25,13.6300001 C12.25,13.4919289 12.1380712,13.3800001 12,13.3800001 L9.25000003,13.3800001 L9.25000003,10.62 L12,10.62 C12.1380712,10.62 12.25,10.5080712 12.25,10.37 C12.25,10.2319289 12.1380712,10.12 12,10.12 L9.25000003,10.12 L9.25000003,9.08500004 C9.25000003,7.56621697 10.481217,6.33500002 12.0000001,6.33500002 C13.5187831,6.33500002 14.75,7.56621697 14.75,9.08500004 C14.75,9.22307123 14.8619289,9.33500002 15.0000001,9.33500002 C15.1380713,9.33500002 15.25,9.22307123 15.25,9.08500004 C15.25,7.29007459 13.7949255,5.83500002 12.0000001,5.83500002 C10.2050746,5.83500002 8.75000003,7.29007459 8.75000003,9.08500004 L8.75000003,10.12 L6.50000003,10.12 C6.36192884,10.12 6.25000003,10.2319289 6.25000003,10.37 C6.25266008,10.5069543 6.3630458,10.61734 6.50000003,10.62 L8.75000003,10.62 L8.75000003,13.3800001 L6.50000003,13.3800001 C6.3630458,13.3826601 6.25266008,13.4930458 6.25000003,13.6300001 C6.25000003,13.7680712 6.36192884,13.8800001 6.50000003,13.8800001 L8.75000003,13.8800001 L8.75000003,15.0850001 C8.75000003,16.8799255 10.2050746,18.335 12,18.335 C13.7949255,18.335 15.25,16.8799255 15.25,15.0850001 C15.25,15.0186959 15.2236609,14.9551075 15.1767768,14.9082234 C15.1298927,14.8613393 15.0663042,14.835 15.0000001,14.835 Z"/>
  </g>
</svg>
