<svg xmlns="http://www.w3.org/2000/svg" width="24" height="24" viewBox="0 0 24 24">
  <g fill="none" fill-rule="evenodd">
    <rect width="24" height="24"/>
    <g fill-rule="nonzero" transform="translate(3.5 2.5)">
      <path fill="#CCC" d="M0.620000003,3.85000002 L6.76000003,10.925 C6.98848573,11.1868442 7.11457237,11.5224833 7.11500003,11.87 L7.11500003,17.5000001 C7.11564177,17.7302754 7.23363202,17.9443361 7.42799053,18.0678347 C7.62234905,18.1913333 7.8662568,18.2072287 8.07500003,18.1100001 L10.31,17.0700001 C10.533994,16.9650731 10.6833452,16.7467906 10.7,16.5000001 L10.7,11.62 C10.6982605,11.2768877 10.8208141,10.9447495 11.045,10.685 L16.6750001,4.06500002"/>
      <path fill="#000" d="M7.79000003,18.4450001 C7.5415957,18.4436969 7.30403654,18.343071 7.1302743,18.1655517 C6.95651205,17.9880325 6.86099003,17.7483755 6.86500003,17.5000001 L6.86500003,11.87 C6.86402628,11.5838118 6.76122533,11.3073127 6.57500003,11.09 L0.435000002,4.00000002 C0.339108356,3.90109318 0.339108356,3.74390685 0.435000002,3.64500002 C0.481081796,3.59796798 0.544155155,3.5714643 0.610000003,3.5714643 C0.67584485,3.5714643 0.73891821,3.59796798 0.785000003,3.64500002 L6.95000003,10.765 C7.2186329,11.070295 7.36624957,11.4633466 7.36500003,11.87 L7.36500003,17.5000001 C7.36216388,17.6459434 7.43621083,17.7826455 7.56000003,17.8600001 C7.6832987,17.9382089 7.83811249,17.9476488 7.97000003,17.8850001 L10.2,16.8450001 C10.3505941,16.7756029 10.447868,16.6258011 10.45,16.4600001 L10.45,11.62 C10.4475011,11.2179209 10.5914657,10.8286833 10.855,10.525 L16.5000001,3.90500002 C16.541908,3.853801 16.6027421,3.82172842 16.6686639,3.81607798 C16.7345857,3.81042753 16.7999904,3.83167966 16.8500001,3.87500002 C16.9547109,3.96556918 16.968027,4.12314316 16.8800001,4.23000002 L11.235,10.845 C11.0509287,11.0612614 10.9498927,11.3360085 10.95,11.62 L10.95,16.5000001 C10.9492461,16.8599385 10.7408604,17.1871234 10.415,17.3400001 L8.18000003,18.3800001 C8.05591832,18.4284925 7.9231019,18.4506286 7.79000003,18.4450001 L7.79000003,18.4450001 Z"/>
      <ellipse cx="8.745" cy="3.215" fill="#CCC" rx="8.35" ry="2.725"/>
      <path fill="#000" d="M8.74500004,6.18500003 C4.51500002,6.18500003 0.140000001,5.07500002 0.140000001,3.21500001 C0.140000001,1.35500001 4.50000002,0.240000001 8.74500004,0.240000001 C12.9900001,0.240000001 17.3450001,1.35000001 17.3450001,3.21500001 C17.3450001,5.08000002 12.9700001,6.18500003 8.74500004,6.18500003 Z M8.74500004,0.740000003 C3.97000002,0.740000003 0.640000003,2.04500001 0.640000003,3.21500001 C0.640000003,4.38500002 3.97000002,5.68500002 8.74500004,5.68500002 C13.5200001,5.68500002 16.8450001,4.38500002 16.8450001,3.21500001 C16.8450001,2.04500001 13.5000001,0.740000003 8.74500004,0.740000003 Z"/>
    </g>
  </g>
</svg>
