<svg xmlns="http://www.w3.org/2000/svg" width="24" height="24" viewBox="0 0 24 24">
  <g fill="none" fill-rule="evenodd">
    <rect width="24" height="24"/>
    <path fill="#CCC" fill-rule="nonzero" d="M8.57000004,2.91500001 L15.6000001,2.91500001 C16.3538688,2.91500001 16.9650001,3.52613133 16.9650001,4.28000002 L16.9650001,18.0000001 L7.20500003,18.0000001 L7.20500003,4.28000002 C7.20500003,3.52613133 7.81613135,2.91500001 8.57000004,2.91500001 Z"/>
    <path fill="#000" fill-rule="nonzero" d="M16.9650001,18.2500001 L7.20500003,18.2500001 C7.06692884,18.2500001 6.95500003,18.1380713 6.95500003,18.0000001 L6.95500003,4.28000002 C6.95500003,3.38806014 7.67806016,2.66500001 8.57000004,2.66500001 L15.6000001,2.66500001 C16.0283247,2.66500001 16.4391063,2.83515131 16.7419775,3.13802256 C17.0448488,3.44089381 17.2150001,3.85167538 17.2150001,4.28000002 L17.2150001,18.0000001 C17.2150001,18.0663042 17.1886609,18.1298927 17.1417768,18.1767768 C17.0948927,18.2236609 17.0313042,18.2500001 16.9650001,18.2500001 Z M7.46500003,17.7500001 L16.7150001,17.7500001 L16.7150001,4.28000002 C16.7150001,3.98428363 16.5975272,3.70067902 16.3884241,3.49157595 C16.1793211,3.28247289 15.8957165,3.16500001 15.6000001,3.16500001 L8.57000004,3.16500001 C7.95420254,3.16500001 7.45500003,3.66420252 7.45500003,4.28000002 L7.46500003,17.7500001 Z"/>
    <rect width="15" height="3.085" x="4.585" y="17.875" fill="#CCC" fill-rule="nonzero" rx="1.543"/>
    <path fill="#000" fill-rule="nonzero" d="M18.6700001,21.2050109 L5.50000002,21.2050109 C5.19148349,21.2063299 4.89514682,21.0847033 4.67652201,20.8670168 C4.45789721,20.6493303 4.33500002,20.3535195 4.33500002,20.0450001 L4.33500002,18.7850001 C4.33500002,18.1415883 4.85658829,17.6200001 5.50000002,17.6200001 L18.6700001,17.6200001 C19.3134118,17.6200001 19.835,18.1415883 19.835,18.7850001 L19.835,20.0450001 C19.835,20.3535195 19.7121029,20.6493303 19.4934781,20.8670168 C19.2748533,21.0847033 18.9785166,21.2063299 18.6700001,21.2050109 L18.6700001,21.2050109 Z M5.50000002,18.1200001 C5.13273066,18.1200001 4.83500002,18.4177307 4.83500002,18.7850001 L4.83500002,20.0450001 C4.83500002,20.2209127 4.90521642,20.3895485 5.03007395,20.5134673 C5.15493148,20.637386 5.32409243,20.7063328 5.50000002,20.7050191 L18.6700001,20.7050191 C18.8459077,20.7063328 19.0150686,20.637386 19.1399261,20.5134673 C19.2647837,20.3895485 19.335,20.2209127 19.335,20.0450001 L19.335,18.7850001 C19.335,18.4177307 19.0372694,18.1200001 18.6700001,18.1200001 L5.50000002,18.1200001 Z"/>
    <rect width="6.19" height="3.72" x="8.99" y="4.945" fill="#FFF" fill-rule="nonzero" rx="1"/>
    <path fill="#000" fill-rule="nonzero" d="M14.2900001 8.91500004L9.88000004 8.91500004C9.25153322 8.91226158 8.74273849 8.40346685 8.74000004 7.77500003L8.74000004 5.83500002C8.74000004 5.20539541 9.25039542 4.69500002 9.88000004 4.69500002L14.2900001 4.69500002C14.9196047 4.69500002 15.4300001 5.20539541 15.4300001 5.83500002L15.4300001 7.77500003C15.4272616 8.40346685 14.9184669 8.91226158 14.2900001 8.91500004zM9.88000004 5.19500002C9.5265378 5.19500002 9.24000004 5.48153778 9.24000004 5.83500002L9.24000004 7.77500003C9.24000004 8.12846227 9.5265378 8.41500004 9.88000004 8.41500004L14.2900001 8.41500004C14.6434623 8.41500004 14.9300001 8.12846227 14.9300001 7.77500003L14.9300001 5.83500002C14.9300001 5.48153778 14.6434623 5.19500002 14.2900001 5.19500002L9.88000004 5.19500002zM17.0850001 17.7500292C17.0286769 17.7492891 16.9741741 17.7299494 16.9300001 17.6950001 16.822773 17.6091366 16.8049108 17.4528426 16.8900001 17.3450001 18.7929448 14.9796513 19.8318484 12.0357971 19.8350001 9.00000004 19.8360842 8.22803587 19.4634638 7.50328918 18.8350001 7.05500003L16.9450001 5.70500002C16.8317817 5.62491873 16.8049188 5.4682184 16.8850001 5.35500002 16.9650814 5.24178165 17.1217817 5.21491873 17.2350001 5.29500002L19.1300001 6.64500003C19.8852455 7.19205708 20.3331603 8.06744244 20.3350001 9.00000004 20.3319915 12.148717 19.2542317 15.2020758 17.2800001 17.6550001 17.2338342 17.7159092 17.1614186 17.7511886 17.0850001 17.7500292L17.0850001 17.7500292z"/>
    <path fill="#FFF" fill-rule="nonzero" d="M13.0650001,15.0400001 L13.0650001,15.0400001 C12.8058666,15.3013748 12.4530583,15.4484034 12.0850001,15.4484034 C11.7169418,15.4484034 11.3641335,15.3013748 11.105,15.0400001 L11.105,15.0400001 C10.6797483,14.615471 10.5767489,13.9651616 10.85,13.4300001 L12.0850001,11 L13.3200001,13.4300001 C13.5932512,13.9651616 13.4902518,14.615471 13.0650001,15.0400001 L13.0650001,15.0400001 Z"/>
    <path fill="#000" fill-rule="nonzero" d="M12.0850001,15.6950001 C11.5135988,15.699495 10.9815676,15.404449 10.6827738,14.9173742 C10.38398,14.4302993 10.3620595,13.8223283 10.625,13.3150001 L11.86,10.885 C11.9083702,10.8072622 11.9934422,10.76 12.0850001,10.76 C12.1765579,10.76 12.2616299,10.8072622 12.3100001,10.885 L13.5450001,13.3150001 C13.868356,13.9479213 13.7472268,14.7170919 13.2450001,15.2200001 L13.2450001,15.2200001 C12.9358713,15.5247602 12.5190959,15.6954226 12.0850001,15.6950001 L12.0850001,15.6950001 Z M12.0850001,11.55 L11.085,13.55 C10.8397564,14.0296066 10.9636857,14.6154169 11.382149,14.954615 C11.8006123,15.2938131 12.3993878,15.2938131 12.8178511,14.954615 C13.2363144,14.6154169 13.3602437,14.0296066 13.1150001,13.55 L12.0850001,11.55 Z"/>
  </g>
</svg>
