<svg xmlns="http://www.w3.org/2000/svg" width="24" height="24" viewBox="0 0 24 24">
  <g fill="none" fill-rule="evenodd">
    <rect width="24" height="24"/>
    <path fill="#CCC" fill-rule="nonzero" d="M19.615,10.895 L19.615,19.09 C19.615,19.9385697 18.9285652,20.6272449 18.08,20.63 L5.925,20.63 C5.07448149,20.63 4.385,19.9405185 4.385,19.09 L4.385,10.895"/>
    <path fill="#000" fill-rule="nonzero" d="M18.075,20.88 L5.925,20.88 C4.9364103,20.88 4.135,20.0785897 4.135,19.09 L4.135,10.895 C4.135,10.7569288 4.24692881,10.645 4.385,10.645 C4.52307119,10.645 4.635,10.7569288 4.635,10.895 L4.635,19.09 C4.635,19.8024473 5.21255267,20.38 5.925,20.38 L18.075,20.38 C18.7863088,20.3772589 19.3622589,19.8013088 19.365,19.09 L19.365,10.895 C19.365,10.7569288 19.4769288,10.645 19.615,10.645 C19.7530712,10.645 19.865,10.7569288 19.865,10.895 L19.865,19.09 C19.865,20.0785897 19.0635897,20.88 18.075,20.88 L18.075,20.88 Z"/>
    <path fill="#CCC" fill-rule="nonzero" d="M13.55,10.9 L21.0000082,10.9 L21.0000082,8.765 C21.0013289,8.35702706 20.840193,7.96530807 20.5521805,7.67635742 C20.264168,7.38740676 19.8729751,7.225 19.465,7.225 L13.55,7.225"/>
    <path fill="#000" fill-rule="nonzero" d="M21,11.15 L13.55,11.15 C13.4119288,11.15 13.3,11.0380712 13.3,10.9 C13.3,10.7619288 13.4119288,10.65 13.55,10.65 L20.755,10.65 L20.755,8.765 C20.7414223,8.06427502 20.1708517,7.50258496 19.47,7.5 L13.55,7.5 C13.4119288,7.5 13.3,7.38807119 13.3,7.25 C13.3,7.11192881 13.4119288,7 13.55,7 L19.47,7 C19.944279,7 20.3990601,7.1887463 20.7339567,7.52458092 C21.0688532,7.86041554 21.2563285,8.31572285 21.255007,8.79 L21.255007,10.9 C21.255007,10.9671796 21.227989,11.0315377 21.1800179,11.0785682 C21.1320467,11.1255987 21.0671662,11.1513436 21,11.15 Z"/>
    <path fill="#CCC" fill-rule="nonzero" d="M10.45,7.225 L4.53,7.225 C4.12289202,7.22632392 3.73298429,7.38931775 3.44605316,7.67812425 C3.15912204,7.96693074 2.99867176,8.35789203 2.99999182,8.765 L2.99999182,10.9 L10.45,10.9"/>
    <path fill="#000" fill-rule="nonzero" d="M10.45,11.15 L3,11.15 C2.86192881,11.15 2.75,11.0380712 2.75,10.9 L2.75,8.765 C2.76093332,7.78893592 3.55387835,7.00267301 4.53,7 L10.45,7 C10.5880712,7 10.7,7.11192881 10.7,7.25 C10.7,7.38807119 10.5880712,7.5 10.45,7.5 L4.53,7.5 C3.81950607,7.50275387 3.24499466,8.07950074 3.245,8.79 L3.245,10.65 L10.45,10.65 C10.5880712,10.65 10.7,10.7619288 10.7,10.9 C10.7,11.0380712 10.5880712,11.15 10.45,11.15 Z"/>
    <path fill="#000" fill-rule="nonzero" d="M13.55,7.5 L10.45,7.5 C10.3119288,7.5 10.2,7.38807119 10.2,7.25 C10.2,7.11192881 10.3119288,7 10.45,7 L13.55,7 C13.6880712,7 13.8,7.11192881 13.8,7.25 C13.8,7.38807119 13.6880712,7.5 13.55,7.5 L13.55,7.5 Z"/>
    <path fill="#000" fill-rule="nonzero" d="M15.46,7.5 L12,7.5 C11.8619288,7.5 11.75,7.38807119 11.75,7.25 L11.75,5.27 C11.75,3.99064946 12.7856524,2.95275722 14.065,2.95 L15.35,2.95 C16.5859771,2.95274968 17.5872503,3.95402291 17.59,5.19 L17.59,5.35 C17.595337,5.91836843 17.3732853,6.46529447 16.9732528,6.86908305 C16.5732204,7.27287164 16.0283935,7.5 15.46,7.5 Z M12.25,7 L15.46,7 C16.3582751,7 17.0872446,6.2732709 17.09,5.375 L17.09,5.215 C17.0966931,4.74920702 16.9163312,4.30018149 16.5892897,3.96844105 C16.2622481,3.63670062 15.8158411,3.44995191 15.35,3.44999999 L14.065,3.44999999 C13.0617949,3.45275607 12.25,4.26679114 12.25,5.27 L12.25,7 Z"/>
    <path fill="#000" fill-rule="nonzero" d="M12,7.50000315 L8.54,7.50000315 C7.36558334,7.50000315 6.41275685,6.54941342 6.41,5.375 L6.41,5.215 C6.40467094,4.61699695 6.63815565,4.04158253 7.05867131,3.61637362 C7.47918698,3.1911647 8.05197464,2.95130816 8.65,2.95 L9.935,2.95 C11.2143476,2.95275722 12.250003,3.99064946 12.25,5.27 L12.25,7.225 C12.2570882,7.29551749 12.2339127,7.36572969 12.1862385,7.41817134 C12.1385642,7.47061299 12.0708719,7.50035534 12,7.50000315 Z M8.65,3.5 C7.68902454,3.5 6.91,4.27902454 6.91,5.24 L6.91,5.4 C6.92635528,6.28848686 7.65136263,7.00015052 8.54,7.00000002 L11.75,7.00000002 L11.75,5.27 C11.75,4.26679114 10.9382051,3.45275607 9.935,3.45 L8.65,3.5 Z"/>
    <rect width="3.095" height="13.345" x="10.45" y="7.285" fill="#CCC" fill-rule="nonzero"/>
    <path fill="#000" fill-rule="nonzero" d="M13.55,20.88 L10.45,20.88 C10.3130458,20.8773399 10.2026601,20.7669542 10.2,20.63 L10.2,7.285 C10.2027228,7.14888532 10.3138581,7.03999999 10.45,7.03999999 L13.55,7.03999999 C13.6861419,7.03999999 13.7972772,7.14888532 13.8,7.285 L13.8,20.63 C13.7973399,20.7669542 13.6869542,20.8773399 13.55,20.88 Z M10.7,20.38 L13.3,20.38 L13.3,7.535 L10.7,7.535 L10.7,20.38 Z"/>
  </g>
</svg>
