<svg xmlns="http://www.w3.org/2000/svg" width="24" height="24" viewBox="0 0 24 24">
  <g fill="none" fill-rule="evenodd">
    <rect width="24" height="24"/>
    <circle cx="12.085" cy="16.64" r="4.37" fill="#CCC" fill-rule="nonzero"/>
    <path fill="#000" fill-rule="nonzero" d="M12.0850001,21.2600001 C9.5334445,21.2600001 7.46500003,19.1915556 7.46500003,16.6400001 C7.46500003,14.0884445 9.5334445,12.0200001 12.0850001,12.0200001 C14.6365556,12.0200001 16.7050001,14.0884445 16.7050001,16.6400001 C16.7022444,19.1904133 14.6354133,21.2572444 12.0850001,21.2600001 L12.0850001,21.2600001 Z M7.96500003,16.6400001 C7.96500003,18.9154132 9.80958687,20.7600001 12.0850001,20.7600001 C14.3604132,20.7600001 16.2050543,18.9154132 16.2050543,16.6400001 C16.2089854,15.5442513 15.7768349,14.4919429 15.0038968,13.7152526 C14.2309586,12.9385623 13.1807552,12.501321 12.0850001,12.5000001 C9.80958687,12.5000001 7.96500003,14.3645869 7.96500003,16.6400001 Z"/>
    <path fill="#000" fill-rule="nonzero" d="M12.3600001,18.4150001 L11.05,18.4150001 C10.9119289,18.4150001 10.8,18.3030713 10.8,18.1650001 C10.8,18.0269289 10.9119289,17.9150001 11.05,17.9150001 L12.3600001,17.9150001 C12.6361424,17.9150001 12.8600001,17.6911424 12.8600001,17.4150001 C12.8600001,17.1388577 12.6361424,16.9150001 12.3600001,16.9150001 L11.81,16.9150001 C11.2577153,16.9150001 10.81,16.4672848 10.81,15.9150001 C10.81,15.3627153 11.2577153,14.9150001 11.81,14.9150001 L13.1200001,14.9150001 C13.2580712,14.9150001 13.3700001,15.0269289 13.3700001,15.1650001 C13.3700001,15.3030713 13.2580712,15.4150001 13.1200001,15.4150001 L11.81,15.4150001 C11.5338577,15.4150001 11.31,15.6388577 11.31,15.9150001 C11.31,16.1911424 11.5338577,16.4150001 11.81,16.4150001 L12.3600001,16.4150001 C12.9122848,16.4150001 13.3600001,16.8627153 13.3600001,17.4150001 C13.3600001,17.9672848 12.9122848,18.4150001 12.3600001,18.4150001 L12.3600001,18.4150001 Z"/>
    <path fill="#000" fill-rule="nonzero" d="M12.0850001 15.3700014C11.9469289 15.3700014 11.835 15.2580713 11.835 15.1200001L11.835 14.5000001C11.835 14.3619289 11.9469289 14.2500001 12.0850001 14.2500001 12.2230712 14.2500001 12.335 14.3619289 12.335 14.5000001L12.335 15.1400001C12.3245508 15.2702055 12.2156235 15.3704187 12.0850001 15.3700014zM12.0850001 19.0500001C11.9469289 19.0500001 11.835 18.9380713 11.835 18.8000001L11.835 18.2550001C11.835 18.1169289 11.9469289 18.0050001 12.0850001 18.0050001 12.2230712 18.0050001 12.335 18.1169289 12.335 18.2550001L12.335 18.8000001C12.335 18.9380713 12.2230712 19.0500001 12.0850001 19.0500001z"/>
    <rect width="1" height="1.305" x="11.835" y="10.965" fill="#000" fill-rule="nonzero"/>
    <path fill="#CCC" fill-rule="nonzero" d="M9.13500004,8.06500003 L10.26,8.06500003 C11.2430669,8.06500003 12.0400001,8.86193318 12.0400001,9.84500004 L12.0400001,10.97 L10.915,10.97 C9.93193319,10.97 9.13500004,10.1730669 9.13500004,9.19000004 L9.13500004,8.06500003 Z" transform="rotate(-180 10.587 9.518)"/>
    <path fill="#000" fill-rule="nonzero" d="M12.2850001,11.215 L10.91,11.215 C9.788862,11.215 8.88000004,10.3061381 8.88000004,9.18500004 L8.88000004,7.81000003 L10.255,7.81000003 C11.3761381,7.81000003 12.2850001,8.71886199 12.2850001,9.84000004 L12.2850001,11.215 Z M9.38000004,8.31000003 L9.38000004,9.18500004 C9.38000004,10.0299957 10.0650044,10.715 10.91,10.715 L11.785,10.715 L11.785,9.84000004 C11.785,8.99500437 11.0999957,8.31000003 10.255,8.31000003 L9.38000004,8.31000003 Z"/>
    <path fill="#CCC" fill-rule="nonzero" d="M12.1550001,8.06000003 L13.2800001,8.06000003 C14.2630669,8.06000003 15.0600001,8.85693318 15.0600001,9.84000004 L15.0600001,10.965 L13.9350001,10.965 C12.9519332,10.965 12.1550001,10.1680669 12.1550001,9.18500004 L12.1550001,8.06000003 L12.1550001,8.06000003 Z" transform="rotate(-90 13.607 9.512)"/>
    <path fill="#000" fill-rule="nonzero" d="M13.2800001,11.215 L11.905,11.215 L11.905,9.84000004 C11.905,8.71886199 12.813862,7.81000003 13.9350001,7.81000003 L15.3100001,7.81000003 L15.3100001,9.18500004 C15.3100001,9.72338951 15.0961257,10.239728 14.7154268,10.6204268 C14.334728,11.0011257 13.8183895,11.215 13.2800001,11.215 L13.2800001,11.215 Z M12.4050001,10.715 L13.2800001,10.715 C14.1249957,10.715 14.8100001,10.0299957 14.8100001,9.18500004 L14.8100001,8.31000003 L13.9350001,8.31000003 C13.0900044,8.31000003 12.4050001,8.99500437 12.4050001,9.84000004 L12.4050001,10.715 Z"/>
    <path fill="#CCC" fill-rule="nonzero" d="M9.9349312,3.90429548 L11.5949312,3.90429548 C13.0407909,3.90152282 14.2166718,5.06846169 14.2249312,6.51430044 L14.2249312,8.17430045 L12.5649312,8.17430045 C11.1151837,8.17430045 9.9399312,6.99904791 9.9399312,5.54930044 L9.9399312,3.90429548 L9.9349312,3.90429548 Z" transform="rotate(-135 12.08 6.04)"/>
    <path fill="#000" fill-rule="nonzero" d="M12.0850001,9.42000004 L10.735,8.07000003 C10.1945667,7.53066569 9.89086193,6.79851144 9.89086193,6.03500003 C9.89086193,5.27148861 10.1945667,4.53933436 10.735,4.00000002 L12.0850001,2.64500001 L13.4350001,4.00000002 C13.9754334,4.53933436 14.2791382,5.27148861 14.2791382,6.03500003 C14.2791382,6.79851144 13.9754334,7.53066569 13.4350001,8.07000003 L12.0850001,9.42000004 Z M12.0850001,3.35500001 L11.085,4.35500001 C10.1588535,5.28548971 10.1588535,6.78951034 11.085,7.72000003 L12.0850001,8.72000004 L13.0850001,7.72000003 C14.0111466,6.78951034 14.0111466,5.28548971 13.0850001,4.35500001 L12.0850001,3.35500001 Z"/>
  </g>
</svg>
