<svg xmlns="http://www.w3.org/2000/svg" width="24" height="24" viewBox="0 0 24 24">
  <g fill="none" fill-rule="evenodd">
    <rect width="24" height="24"/>
    <rect width="3.905" height="6.5" x="3.085" y="14.37" fill="#CCC" fill-rule="nonzero" rx="1.953"/>
    <path fill="#1A1A1A" fill-rule="nonzero" d="M5.50000002,21.1200001 L4.58500002,21.1200001 C3.6185017,21.1200001 2.83500001,20.3364984 2.83500001,19.3700001 L2.83500001,15.8700001 C2.83500001,14.9035017 3.6185017,14.1200001 4.58500002,14.1200001 L5.50000002,14.1200001 C6.46535845,14.1227465 7.24725362,14.9046416 7.25000003,15.8700001 L7.25000003,19.3700001 C7.24725362,20.3353585 6.46535845,21.1172537 5.50000002,21.1200001 Z M4.59000002,14.6200001 C3.90078241,14.6227405 3.34274047,15.1807825 3.34000001,15.8700001 L3.34000001,19.3700001 C3.34274047,20.0592177 3.90078241,20.6172596 4.59000002,20.6200001 L5.50000002,20.6200001 C6.18921764,20.6172596 6.74725957,20.0592177 6.75000003,19.3700001 L6.75000003,15.8700001 C6.74725957,15.1807825 6.18921764,14.6227405 5.50000002,14.6200001 L4.59000002,14.6200001 Z"/>
    <rect width="3.905" height="9.095" x="10.08" y="11.775" fill="#CCC" fill-rule="nonzero" rx="1.953"/>
    <path fill="#1A1A1A" fill-rule="nonzero" d="M12.5000001,21.1200001 L11.58,21.1200001 C10.6135017,21.1200001 9.83000004,20.3364984 9.83000004,19.3700001 L9.83000004,13.2750001 C9.83000004,12.3085017 10.6135017,11.525 11.58,11.525 L12.5000001,11.525 C13.4664984,11.525 14.2500001,12.3085017 14.2500001,13.2750001 L14.2500001,19.3700001 C14.2500001,20.3364984 13.4664984,21.1200001 12.5000001,21.1200001 L12.5000001,21.1200001 Z M11.58,12.0250001 C10.8896441,12.0250001 10.33,12.5846441 10.33,13.2750001 L10.33,19.3700001 C10.33,20.060356 10.8896441,20.6200001 11.58,20.6200001 L12.5000001,20.6200001 C12.8315207,20.6200001 13.1494631,20.488304 13.3838835,20.2538836 C13.618304,20.0194631 13.7500001,19.7015207 13.7500001,19.3700001 L13.7500001,13.2750001 C13.7500001,12.5846441 13.190356,12.0250001 12.5000001,12.0250001 L11.58,12.0250001 Z"/>
    <rect width="3.905" height="13.235" x="17.095" y="7.635" fill="#CCC" fill-rule="nonzero" rx="1.953"/>
    <path fill="#1A1A1A" fill-rule="nonzero" d="M19.5000001,21.1200001 L18.5950001,21.1200001 C17.6285018,21.1200001 16.8450001,20.3364984 16.8450001,19.3700001 L16.8450001,9.13500004 C16.8450001,8.16850172 17.6285018,7.38500003 18.5950001,7.38500003 L19.5000001,7.38500003 C20.4664984,7.38500003 21.2500001,8.16850172 21.2500001,9.13500004 L21.2500001,19.3700001 C21.2500001,20.3364984 20.4664984,21.1200001 19.5000001,21.1200001 L19.5000001,21.1200001 Z M18.5950001,7.88500003 C17.9046441,7.88500003 17.3450001,8.4446441 17.3450001,9.13500004 L17.3450001,19.3700001 C17.3450001,20.060356 17.9046441,20.6200001 18.5950001,20.6200001 L19.5000001,20.6200001 C19.8315207,20.6200001 20.1494631,20.488304 20.3838836,20.2538836 C20.618304,20.0194631 20.7500001,19.7015207 20.7500001,19.3700001 L20.7500001,9.13500004 C20.7500001,8.4446441 20.190356,7.88500003 19.5000001,7.88500003 L18.5950001,7.88500003 Z"/>
    <path fill="#000" fill-rule="nonzero" d="M0.275000001,8.17500316 C0.162877258,8.17385562 0.0652312735,8.09819768 0.0361225744,7.98991332 C0.00701387533,7.88162896 0.053563579,7.76720874 0.150000001,7.71000003 L10.89,1.55500001 L8.68000004,0.940000004 C8.57255521,0.906937689 8.49943669,0.80741526 8.50000004,0.695000003 C8.49760574,0.673399482 8.49760574,0.651600524 8.50000004,0.630000003 C8.5365323,0.497942037 8.67255522,0.419896096 8.80500004,0.455000002 L11.6,1.23500001 L11.6,1.23500001 C11.6559998,1.25011776 11.7042196,1.28583615 11.735,1.33500001 L11.735,1.33500001 C11.7451911,1.34888996 11.7535906,1.36400913 11.76,1.38000001 L11.76,1.38000001 C11.77495,1.42717731 11.77495,1.47782271 11.76,1.52500001 C11.76,1.52500001 11.76,1.52500001 11.76,1.52500001 L10.945,4.44500002 C10.9091015,4.58307121 10.7680712,4.66589853 10.63,4.63000002 C10.4919289,4.59410151 10.4091015,4.45307121 10.445,4.31500002 L11.13,2.00000001 L0.395000002,8.14500003 C0.358144395,8.16489384 0.316881444,8.17520957 0.275000001,8.17500316 Z" transform="translate(5 3)"/>
  </g>
</svg>
