<svg xmlns="http://www.w3.org/2000/svg" width="24" height="24" viewBox="0 0 24 24">
  <g fill="none" fill-rule="evenodd">
    <rect width="24" height="24"/>
    <path fill="#CCC" fill-rule="nonzero" d="M10.115,18.0000001 L13.7150001,18.0000001 C15.3718543,18.0000001 16.7150001,19.3431458 16.7150001,21.0000001 L16.7150001,21.0000001 L7.11500003,21.0000001 L7.11500003,21.0000001 C7.11500003,19.3431458 8.45814579,18.0000001 10.115,18.0000001 Z"/>
    <path fill="#000" fill-rule="nonzero" d="M16.7150001,21.2500001 L7.11500003,21.2500001 C6.97692884,21.2500001 6.86500003,21.1380713 6.86500003,21.0000001 C6.86775335,19.2062163 8.3212163,17.7527534 10.115,17.7500001 L13.7150001,17.7500001 C15.5087838,17.7527534 16.9622468,19.2062163 16.9650001,21.0000001 C16.9650001,21.1380713 16.8530713,21.2500001 16.7150001,21.2500001 Z M7.37500003,20.7499997 L16.4550001,20.7499997 C16.325687,19.3334446 15.1374454,18.2492826 13.7150001,18.2499997 L10.115,18.2499997 C8.69255466,18.2492826 7.50431308,19.3334446 7.37500003,20.7499997 Z"/>
    <path fill="#CCC" fill-rule="nonzero" d="M11.5,15.9250001 L12.3450001,15.9250001 C13.4870837,15.9305041 14.41,16.8579031 14.41,18.0000001 L14.41,18.0000001 L9.41000004,18.0000001 L9.41000004,18.0000001 C9.41000004,17.4470671 9.63065891,16.9169967 10.0230472,16.5274246 C10.4154354,16.1378526 10.9470815,15.921003 11.5,15.9250001 L11.5,15.9250001 Z"/>
    <path fill="#000" fill-rule="nonzero" d="M14.4100001,18.2500001 L9.41000004,18.2500001 C9.27192885,18.2500001 9.16000004,18.1380713 9.16000004,18.0000001 C9.16000004,17.380764 9.40699981,16.7871065 9.84627149,16.3506507 C10.2855432,15.9141948 10.8807769,15.671005 11.5,15.6750001 L12.3400001,15.6750001 C13.622109,15.6777573 14.66,16.7178881 14.66,18.0000001 C14.66,18.1380713 14.5480712,18.2500001 14.4100001,18.2500001 Z M9.68500004,17.7500001 L14.1450001,17.7500001 C14.0180102,16.8475476 13.2463429,16.1760691 12.3350001,16.1749978 L11.5,16.1749978 C10.5867577,16.1735762 9.81225416,16.8456661 9.68500004,17.7500001 L9.68500004,17.7500001 Z"/>
    <path fill="#000" fill-rule="nonzero" d="M11.905 16.1750001C11.7669289 16.1750001 11.655 16.0630713 11.655 15.9250001L11.655 6.50000003C11.655 6.36192884 11.7669289 6.25000003 11.905 6.25000003 12.0430712 6.25000003 12.155 6.36192884 12.155 6.50000003L12.155 15.9250001C12.155 16.0630713 12.0430712 16.1750001 11.905 16.1750001zM19.2700001 7.68000003C19.2452356 7.68485302 19.2197646 7.68485302 19.1950001 7.68000003L4.50000002 3.24000001C4.36745168 3.20134008 4.29134009 3.06254835 4.33000002 2.93000001 4.34849406 2.86519966 4.39236503 2.81060964 4.45166778 2.77860498 4.51097053 2.74660032 4.58068228 2.73989174 4.64500002 2.76000001L19.3500001 7.19000003C19.4745483 7.23692981 19.5404914 7.3732124 19.5000001 7.50000003 19.4686886 7.6023108 19.3768373 7.67419443 19.2700001 7.68000003L19.2700001 7.68000003z"/>
    <circle cx="11.915" cy="5.215" r="1.3" fill="#CCC" fill-rule="nonzero"/>
    <path fill="#000" fill-rule="nonzero" d="M11.915 6.77000812C11.2856102 6.7720238 10.717068 6.39444602 10.4748074 5.81354548 10.2325467 5.23264493 10.3643489 4.56299326 10.8086798 4.11722905 11.2530107 3.67146483 11.9222344 3.53750664 12.5039122 3.77789519 13.0855899 4.01828373 13.4650001 4.58560692 13.4650001 5.21500002 13.4650001 6.07185397 12.7718496 6.76724487 11.915 6.77000812L11.915 6.77000812zM11.915 4.16498814C11.4873891 4.16297818 11.1008511 4.41927664 10.9362761 4.81395408 10.7717012 5.20863151 10.8616442 5.66361592 11.1640142 5.96598589 11.4663842 6.26835585 11.9213686 6.35829892 12.316046 6.19372396 12.7107234 6.029149 12.9670219 5.64261095 12.9650119 5.21500002 12.9650119 4.63510103 12.494899 4.16498814 11.915 4.16498814L11.915 4.16498814zM17.9150001 15.0450001C17.8217366 15.0501081 17.7282635 15.0501081 17.6350001 15.0450001 16.819922 14.9589324 16.0987988 14.4788064 15.7050001 13.7600001 15.2739494 12.9887211 15.2459597 12.0557317 15.6300001 11.26L17.6900001 7.00000003C17.736488 6.91971817 17.8222299 6.87028817 17.9150001 6.87028817 18.0077702 6.87028817 18.0935122 6.91971817 18.1400001 7.00000003L20.2000001 11.255C20.5840404 12.0507317 20.5560508 12.9837211 20.1250001 13.7550001 19.7312013 14.4738064 19.0100782 14.9539324 18.1950001 15.0400001 18.1018279 15.0467743 18.0083547 15.0484434 17.9150001 15.0450001zM17.9150001 7.67000003L16.0800001 11.46C15.7658394 12.1095185 15.7901278 12.8717988 16.1450001 13.5000001 16.4575589 14.0766544 17.0330057 14.4633995 17.6850001 14.5350001 17.837966 14.5500112 17.9920341 14.5500112 18.1450001 14.5350001 18.7988406 14.4684799 19.376448 14.0802827 19.6850001 13.5000001 20.0398724 12.8717988 20.0641607 12.1095185 19.7500001 11.46L17.9150001 7.67000003zM5.91500002 11.38L5.63500002 11.38C4.81992191 11.2939324 4.09879877 10.8138064 3.70500002 10.095 3.27562466 9.32325862 3.24765969 8.39109293 3.63000002 7.59500003L5.69000002 3.34000001C5.73648791 3.25971815 5.82222987 3.21028816 5.91500002 3.21028816 6.00777018 3.21028816 6.09351214 3.25971815 6.14000003 3.34000001L8.20000003 7.59500003C8.58234036 8.39109293 8.55437539 9.32325862 8.12500003 10.095 7.73120128 10.8138064 7.01007814 11.2939324 6.19500003 11.38L5.91500002 11.38zM5.91500002 4.00000002L4.08000002 7.80000003C3.76583936 8.44951847 3.7901277 9.21179883 4.14500002 9.84000004 4.45478755 10.4183566 5.03217647 10.8045323 5.68500002 10.87 5.83796597 10.8850112 5.99203408 10.8850112 6.14500003 10.87 6.79782358 10.8045323 7.3752125 10.4183566 7.68500003 9.84000004 8.03987235 9.21179883 8.06416069 8.44951847 7.75000003 7.80000003L5.91500002 4.00000002z"/>
    <path fill="#000" fill-rule="nonzero" d="M8.21500003 9.05500004L3.61000002 9.05500004C3.47192883 9.05500004 3.36000001 8.94307122 3.36000001 8.80500004 3.36000001 8.66692885 3.47192883 8.55500004 3.61000002 8.55500004L8.21500003 8.55500004C8.35307122 8.55500004 8.46500004 8.66692885 8.46500004 8.80500004 8.46500004 8.94307122 8.35307122 9.05500004 8.21500003 9.05500004zM20.2150001 12.7150001L15.6150001 12.7150001C15.4769289 12.7150001 15.3650001 12.6030712 15.3650001 12.4650001 15.3650001 12.3269289 15.4769289 12.2150001 15.6150001 12.2150001L20.2150001 12.2150001C20.3530713 12.2150001 20.4650001 12.3269289 20.4650001 12.4650001 20.4650001 12.6030712 20.3530713 12.7150001 20.2150001 12.7150001z"/>
  </g>
</svg>
