<svg xmlns="http://www.w3.org/2000/svg" width="24" height="24" viewBox="0 0 24 24">
  <g fill="none" fill-rule="evenodd">
    <rect width="24" height="24"/>
    <rect width="18" height="14.215" x="3" y="4.615" fill="#CCC" fill-rule="nonzero" rx="2"/>
    <path fill="#000" fill-rule="nonzero" d="M19.0000001,19.0800001 L5.00000002,19.0800001 C3.75850009,19.0772503 2.75274974,18.0715 2.75000001,16.8300001 L2.75000001,6.61500003 C2.75274974,5.3735001 3.75850009,4.36774975 5.00000002,4.36500002 L19.0000001,4.36500002 C20.2415,4.36774975 21.2472504,5.3735001 21.25,6.61500003 L21.25,16.8300001 C21.2472504,18.0715 20.2415,19.0772503 19.0000001,19.0800001 Z M5.00000002,4.86500002 C4.0335017,4.86500002 3.25000001,5.64850171 3.25000001,6.61500003 L3.25000001,16.8300001 C3.25000001,17.7964984 4.0335017,18.5800001 5.00000002,18.5800001 L19.0000001,18.5800001 C19.9664984,18.5800001 20.75,17.7964984 20.75,16.8300001 L20.75,6.61500003 C20.75,5.64850171 19.9664984,4.86500002 19.0000001,4.86500002 L5.00000002,4.86500002 Z"/>
    <path fill="#000" fill-rule="nonzero" d="M12.0000001,13.6800001 C10.9898954,13.6881567 10.0104516,13.3332858 9.24000004,12.6800001 L5.19500002,9.18000004 C5.11474444,9.1261123 5.07274849,9.03078468 5.08715284,8.93519513 C5.10155719,8.83960558 5.16978014,8.76088681 5.26235191,8.73304236 C5.35492369,8.70519791 5.45525248,8.7332184 5.52000002,8.80500004 L9.57000004,12.3050001 C10.9661189,13.5094708 13.0338812,13.5094708 14.4300001,12.3050001 L18.4800001,8.80500004 C18.5847983,8.73463312 18.7256119,8.75342938 18.8082842,8.84882047 C18.8909565,8.94421156 18.8895478,9.08626717 18.8050001,9.18000004 L14.7600001,12.6800001 C13.9895485,13.3332858 13.0101047,13.6881567 12.0000001,13.6800001 Z"/>
    <path fill="#000" fill-rule="nonzero" d="M6.23500003 14.0000057C6.12915645 13.9993905 6.03516728 13.9321927 6.00035135 13.8322372 5.96553541 13.7322818 5.99743891 13.6212337 6.08000003 13.5550001L8.38500003 11.79C8.49432487 11.7158719 8.64245201 11.7395808 8.72317844 11.8441281 8.80390488 11.9486755 8.78937225 12.0979824 8.69000004 12.1850001L6.38500003 13.9500001C6.3418999 13.9827862 6.28915178 14.0003689 6.23500003 14.0000057zM17.5900001 14.0000001C17.5357258 14.0011592 17.482724 13.983492 17.4400001 13.9500001L15.1350001 12.1850001C15.0356279 12.0979824 15.0210952 11.9486755 15.1018217 11.8441281 15.1825481 11.7395808 15.3306752 11.7158719 15.4400001 11.79L17.7400001 13.5550001C17.8479674 13.6393006 17.8700446 13.7938406 17.7900001 13.9050001 17.7417553 13.9660719 17.6678198 14.0011913 17.5900001 14.0000001L17.5900001 14.0000001z"/>
  </g>
</svg>
