<svg xmlns="http://www.w3.org/2000/svg" width="24" height="24" viewBox="0 0 24 24">
  <g fill="none" fill-rule="evenodd">
    <rect width="24" height="24"/>
    <g fill="#000" fill-rule="nonzero" transform="translate(8 8.5)">
      <path d="M0.340000001,6.12501752 C0.273698071,6.1258083 0.210140168,6.0985692 0.165000001,6.05000003 C0.116661388,6.00463336 0.0892406774,5.94129298 0.0892406774,5.87500002 C0.0892406774,5.80870707 0.116661388,5.74536669 0.165000001,5.70000002 L3.56500001,2.29500001 C3.67512726,2.18895704 3.82211744,2.12980246 3.97500002,2.13000001 C4.12953715,2.12928381 4.27697582,2.19481211 4.38000002,2.31000001 L5.66000002,3.67500002 C5.66000002,3.67500002 5.69000002,3.67500002 5.71000002,3.67500002 C5.72609836,3.68115537 5.74390168,3.68115537 5.76000002,3.67500002 L8.67500004,0.7549954 L7.79000003,0.7549954 C7.65192884,0.7549954 7.54000003,0.64307119 7.54000003,0.505000002 C7.54266008,0.368045775 7.65304581,0.257660054 7.79000003,0.2549954 L9.29000004,0.2549954 C9.39222842,0.25438203 9.484533,0.31606785 9.52306918,0.410756746 C9.56160536,0.505445642 9.53860769,0.614056798 9.46500004,0.685000003 L6.12500003,4.02500002 C6.01901426,4.13780934 5.86971493,4.19971394 5.71500002,4.19500002 C5.56010898,4.19067555 5.41301501,4.12609771 5.30500002,4.01500002 L4.00000002,2.65000001 C3.98429662,2.6419864 3.96570341,2.6419864 3.95000002,2.65000001 C3.93584764,2.64286858 3.91915239,2.64286858 3.90500002,2.65000001 L0.500000002,6.05000003 C0.458454847,6.09486333 0.401059531,6.12176739 0.340000001,6.12501752 L0.340000001,6.12501752 Z"/>
      <path d="M9.28000004,2.28500001 C9.14192885,2.28500001 9.03000004,2.1730712 9.03000004,2.03500001 L9.03000004,0.500000002 C9.03000004,0.361928814 9.14192885,0.250000001 9.28000004,0.250000001 C9.41695427,0.252660054 9.52733999,0.363045775 9.53000004,0.500000002 L9.53000004,2.02500001 C9.5313392,2.09263394 9.5057493,2.15802845 9.45886244,2.20679078 C9.41197558,2.25555311 9.34763448,2.28368685 9.28000004,2.28500001 L9.28000004,2.28500001 Z"/>
    </g>
    <g fill-rule="nonzero" transform="translate(6.5 2.5)">
      <path fill="#CCC" d="M10.86,14.1000001 L10.86,16.5250001 C10.856037,17.0448292 10.6457271,17.5417914 10.2753394,17.9065529 C9.90495174,18.2713144 9.40482891,18.4739936 8.88500004,18.4700001 L2.355,18.5000001 C1.27160785,18.5195212 0.376881508,17.6583471 0.355000001,16.5750001 L0.355000001,14.1450001"/>
      <path fill="#000" d="M2.34500001,18.7500001 C1.12827041,18.7639162 0.129191155,17.7916579 0.11,16.5750001 L0.11,14.1450001 C0.11,14.0069289 0.221928813,13.8950001 0.360000002,13.8950001 L0.360000002,13.8950001 C0.49807119,13.8950001 0.61,14.0069289 0.61,14.1450001 L0.61,16.5700001 C0.626434502,17.5124857 1.40247393,18.2639245 2.34500001,18.2500001 L2.34500001,18.2500001 L8.89500004,18.2200001 C9.35292738,18.2195342 9.7925364,18.040102 10.12,17.7200001 C10.4411401,17.4054892 10.6214723,16.9744952 10.62,16.5250001 L10.62,14.1000001 C10.62,13.9619289 10.7319289,13.8500001 10.87,13.8500001 L10.87,13.8500001 C10.93584,13.8486561 10.999449,13.873874 11.0464826,13.9199669 C11.0935161,13.9660598 11.1200027,14.0291464 11.1200027,14.0950001 L11.1200027,16.5250001 C11.1209126,17.108119 10.8865634,17.6669517 10.47,18.0750001 C10.0497032,18.4879274 9.48420135,18.7195138 8.89500004,18.7200001 L2.35000001,18.7500001 L2.34500001,18.7500001 Z"/>
      <path fill="#000" d="M5.61500002 17.2550001C5.32856621 17.2550001 5.05386399 17.1412147 4.8513247 16.9386754 4.64878541 16.7361361 4.53500002 16.4614339 4.53500002 16.1750001L4.53500002 16.1750001C4.53233166 15.8881637 4.64441119 15.6121572 4.84630274 15.4083875 5.04819428 15.2046179 5.3231512 15.0899877 5.61000002 15.0900001 5.89774103 15.0783622 6.17653166 15.1913361 6.37500003 15.4000001 6.68575987 15.7084718 6.78064614 16.1735027 6.61557962 16.5790635 6.4505131 16.9846242 6.05784955 17.2512184 5.62000002 17.2550001L5.61500002 17.2550001zM5.03500002 16.1750001C5.03500002 16.4953252 5.29467487 16.7550001 5.61500002 16.7550001L5.61500002 16.7550001C5.76906943 16.7514855 5.91587922 16.6888228 6.02500003 16.5800001 6.13490572 16.4724144 6.19474403 16.3237253 6.19000003 16.1700001 6.19071292 16.0145762 6.12954625 15.8652576 6.02000003 15.7550001 5.91637794 15.6393063 5.76487588 15.578336 5.61000002 15.5900001 5.45446429 15.5872164 5.30454812 15.6481224 5.19502324 15.7585915 5.08549836 15.8690605 5.02588141 16.019494 5.03000002 16.1750001L5.03500002 16.1750001zM.355000001 14.9600001C.216928813 14.9600001.105 14.8480712.105 14.7100001L.0450000002 2.46000001C.045453553 1.88107638.277748452 1.3264498.690000003.920000004 1.10743043.509504034 1.66954722.279628797 2.25500001.280000001L8.81500004.250000001 8.81500004.250000001C10.0317296.236083843 11.0308089 1.20834218 11.05 2.42500001L11.05 4.35500002C11.04734 4.49195424 10.9369543 4.60233997 10.8 4.60500002L10.8 4.60500002C10.6619289 4.60500002 10.55 4.49307121 10.55 4.35500002L10.55 2.43000001C10.5335693 1.49146129 9.76364518.741622133 8.82500004.750000003L8.82500004.750000003 2.26000001.780000003C1.80522049.78148064 1.36909506.960956128 1.045 1.28000001.726339308 1.59208413.546217217 2.01897349.545 2.46500001L.605000003 14.7150001C.60233995 14.8519543.491954228 14.96234.355000001 14.9650001L.355000001 14.9600001zM10.865 15.1450001C10.7280458 15.14234 10.6176601 15.0319543 10.615 14.8950001L10.615 10.5C10.615 10.3619289 10.7269289 10.25 10.865 10.25 11.0030712 10.25 11.115 10.3619289 11.115 10.5L11.115 14.8950001C11.115 15.0330713 11.0030712 15.1450001 10.865 15.1450001L10.865 15.1450001z"/>
      <path fill="#000" d="M4.57500002 2.2C4.43692883 2.2 4.32500002 2.0880712 4.32500002 1.95000001 4.32500002 1.81192882 4.43692883 1.7 4.57500002 1.7L6.53500003 1.7C6.67114193 1.69997278 6.78227719 1.80888533 6.78500003 1.94500001 6.78244997 2.08283671 6.67275921 2.19472128 6.53500003 2.2L4.57500002 2.2zM.300000001 3.65500002C.163045774 3.65233996.0526600531 3.54195424.0500000002 3.40500001.0500000002 3.26692883.161928813 3.15500001.300000001 3.15500001L10.8 3.10500001 10.8 3.10500001C10.9380712 3.10500001 11.05 3.21692883 11.05 3.35500001 11.05 3.4930712 10.9380712 3.60500001 10.8 3.60500001L.300000001 3.65500002.300000001 3.65500002zM.350000001 14.3950001C.211928813 14.3950001.1 14.2830712.1 14.1450001.1 14.0069289.211928813 13.8950001.350000001 13.8950001L10.85 13.8500001 10.85 13.8500001C10.91584 13.8486561 10.979449 13.873874 11.0264826 13.9199669 11.0735161 13.9660598 11.1000511 14.0291464 11.1000511 14.0950001 11.1013395 14.161308 11.0762764 14.2254309 11.0303272 14.2732556 10.984378 14.3210803 10.9213085 14.3486872 10.855 14.3500001L.355000001 14.3950001.350000001 14.3950001z"/>
    </g>
  </g>
</svg>
