<svg xmlns="http://www.w3.org/2000/svg" width="24" height="24" viewBox="0 0 24 24">
  <g fill="none" fill-rule="evenodd">
    <rect width="24" height="24"/>
    <g fill-rule="nonzero" transform="translate(2.5 4)">
      <path fill="#CCC" d="M16.2500001,13.8350001 L17.9200001,13.8350001 C18.2880767,13.8322531 18.585,13.533087 18.585,13.1650001 L18.585,9.76000004 C18.5843751,9.53381769 18.4696737,9.32321839 18.2800001,9.20000004 L15.0000001,7.07500003 C14.4355605,6.71193225 14.0285506,6.14961603 13.8600001,5.49999721 L12.7500001,0.999997206 C12.6725435,0.704714956 12.4052737,0.499122813 12.1000001,0.499997206 L3.25000001,0.499997206 C1.77816115,0.499997206 0.585000002,1.69316115 0.585000002,3.16500001 L0.585000002,13.1650001 C0.585000002,13.533087 0.88192333,13.8322531 1.25000001,13.8350001 L2.96000001,13.8350001"/>
      <path fill="#000" d="M17.9200001,14.0850001 L16.2500001,14.0850001 C16.1130458,14.08234 16.0026601,13.9719543 16.0000001,13.8350001 C16.0000001,13.6969289 16.1119289,13.5850001 16.2500001,13.5850001 L17.9200001,13.5850001 C18.1500047,13.5822617 18.3350164,13.395021 18.335,13.1650001 L18.335,9.76000004 C18.3345203,9.61881408 18.2631355,9.48731579 18.1450001,9.41000004 L14.8600001,7.28500003 C14.2370465,6.88174867 13.7916855,6.25573923 13.6150001,5.53500002 L12.5000001,1.065 C12.4538549,0.879128604 12.2865111,0.748972349 12.0950001,0.750000003 L3.25000001,0.750000003 C1.91737331,0.752750531 0.837750532,1.83237331 0.835000001,3.16500001 L0.835000001,13.1650001 C0.834983703,13.395021 1.01999538,13.5822617 1.25000001,13.5850001 L2.96000001,13.5850001 C3.0980712,13.5850001 3.21000001,13.6969289 3.21000001,13.8350001 C3.21000001,13.9730712 3.0980712,14.0850001 2.96000001,14.0850001 L1.25000001,14.0850001 C0.743851742,14.0822492 0.335000001,13.6711558 0.335000001,13.1650001 L0.335000001,3.16500001 C0.337752392,1.55623142 1.64123142,0.252752391 3.25000001,0.249862502 L12.1000001,0.249862502 C12.5256311,0.242641567 12.8994874,0.531341702 13.0000001,0.945000004 L14.1100001,5.41500002 C14.2568334,6.01155286 14.6250599,6.52992999 15.1400001,6.86500003 L18.4150001,9.00000004 C18.6776175,9.16781239 18.8360908,9.4583469 18.835,9.77000004 L18.835,13.1750001 C18.8295478,13.6772506 18.422273,14.0822999 17.9200001,14.0850001 Z"/>
      <path fill="#000" d="M12.8750001,14.0850001 L6.29500003,14.0850001 C6.15692884,14.0850001 6.04500003,13.9730712 6.04500003,13.8350001 C6.04500003,13.6969289 6.15692884,13.5850001 6.29500003,13.5850001 L12.8750001,13.5850001 C13.0130712,13.5850001 13.1250001,13.6969289 13.1250001,13.8350001 C13.1250001,13.9730712 13.0130712,14.0850001 12.8750001,14.0850001 Z"/>
      <circle cx="4.625" cy="13.835" r="1.665" fill="#CCC"/>
      <path fill="#000" d="M4.62500002,15.7500001 C3.84797807,15.7500001 3.14756215,15.2816616 2.85067798,14.5635927 C2.5537938,13.8455239 2.71897936,13.0193068 3.26913273,12.4705861 C3.8192861,11.9218654 4.64593109,11.7588349 5.36322337,12.0575904 C6.08051566,12.356346 6.54702352,13.0579807 6.54500658,13.8350001 C6.54224368,14.8934336 5.68343719,15.7500001 4.62500002,15.7500001 L4.62500002,15.7500001 Z M4.62500002,12.4150001 C3.84075567,12.4150001 3.20500001,13.0507557 3.20500001,13.8350001 C3.20500001,14.6192444 3.84075567,15.2550001 4.62500002,15.2550001 C5.40924437,15.2550001 6.04500003,14.6192444 6.04500003,13.8350001 C6.04500003,13.0507557 5.40924437,12.4150001 4.62500002,12.4150001 L4.62500002,12.4150001 Z"/>
      <circle cx="14.545" cy="13.835" r="1.665" fill="#CCC"/>
      <path fill="#000" d="M14.5450001 15.7500066C13.7675263 15.7520221 13.065576 15.2849719 12.7671148 14.5670648 12.4686536 13.8491578 12.6326027 13.0221204 13.1823615 12.4723615 13.7321204 11.9226027 14.5591578 11.7586536 15.2770648 12.0571148 15.9949719 12.355576 16.4620221 13.0575262 16.4600066 13.8350001 16.4572524 14.8914851 15.6014851 15.7472524 14.5450001 15.7500066L14.5450001 15.7500066zM14.5450001 12.4149912C13.970213 12.4129761 13.4508969 12.7576619 13.2295316 13.2881161 13.0081663 13.8185703 13.1284182 14.4301559 13.5341391 14.8373104 13.93986 15.244465 14.5510176 15.3668734 15.0822494 15.1473806 15.6134811 14.9278877 15.9600001 14.4097907 15.9600001 13.8350001 15.9600001 13.0527042 15.3272911 12.4177546 14.5450001 12.4149912zM18.2500001 9.65000004L16.2500001 9.65000004C16.1130458 9.64733999 16.0026601 9.53695427 16.0000001 9.40000004 16.0000001 9.26192885 16.1119289 9.15000004 16.2500001 9.15000004L18.2500001 9.15000004C18.3880713 9.15000004 18.5000001 9.26192885 18.5000001 9.40000004 18.5000001 9.53807123 18.3880713 9.65000004 18.2500001 9.65000004zM14.0000001 6.50000003L11 6.50000003C10.5955411 6.50708325 10.2349607 6.24632456 10.115 5.86000002L9.36000004 3.23500001C9.28216174 2.98192814 9.33457914 2.70673679 9.50000004 2.50000001 9.67679043 2.26754929 9.95297169 2.13223901 10.245 2.13495856L13.0650001 2.13495856C13.2030712 2.13495856 13.3150001 2.24692882 13.3150001 2.38500001 13.3150001 2.5230712 13.2030712 2.63500001 13.0650001 2.63500001L10.25 2.63500001C10.1139471 2.63222708 9.98443596 2.69328234 9.90000004 2.80000001 9.84017597 2.8801731 9.81994744 2.98315472 9.84500004 3.08000001L10.6 5.70500002C10.6517425 5.88215243 10.8154686 6.00290049 11 6.00000002L14.0000001 6.00000002C14.1380712 6.00000002 14.2500001 6.11192884 14.2500001 6.25000003 14.2500001 6.38807121 14.1380712 6.50000003 14.0000001 6.50000003z"/>
    </g>
    <path fill="#000" fill-rule="nonzero" d="M8.36500003,12.7900001 L6.60500003,12.7900001 C6.46692884,12.7900001 6.35500003,12.6780712 6.35500003,12.5400001 C6.35766008,12.4030458 6.4680458,12.2926601 6.60500003,12.2900001 L8.36500003,12.2900001 C8.79025929,12.2900001 9.13500004,11.9452593 9.13500004,11.52 C9.13500004,11.0947408 8.79025929,10.75 8.36500003,10.75 L7.63000003,10.75 C7.17627272,10.7500001 6.75701138,10.5079394 6.53014772,10.1150001 C6.30328406,9.72206068 6.30328406,9.2379394 6.53014772,8.84500002 C6.75701138,8.45206064 7.17627272,8.21000003 7.63000003,8.21000003 L9.38500004,8.21000003 C9.52307123,8.21000003 9.63500004,8.32192885 9.63500004,8.46000004 C9.63500004,8.59807122 9.52307123,8.71000003 9.38500004,8.71000003 L7.63000003,8.71000003 C7.20474077,8.71000003 6.86000003,9.05474078 6.86000003,9.48000004 C6.86000003,9.9052593 7.20474077,10.25 7.63000003,10.25 L8.36500003,10.25 C9.06640167,10.25 9.63500004,10.8185984 9.63500004,11.52 C9.63500004,12.2214017 9.06640167,12.7900001 8.36500003,12.7900001 L8.36500003,12.7900001 Z"/>
    <path fill="#000" fill-rule="nonzero" d="M8.00000003 8.71000004C7.86304581 8.70733998 7.75266009 8.59695426 7.75000003 8.46000004L7.75000003 7.60000003C7.75266009 7.4630458 7.86304581 7.35266008 8.00000003 7.35000003 8.13807122 7.35000003 8.25000003 7.46192884 8.25000003 7.60000003L8.25000003 8.46000004C8.25000003 8.52630416 8.22366082 8.58989264 8.17677673 8.63677673 8.12989263 8.68366083 8.06630416 8.71000004 8.00000003 8.71000004zM8.00000003 13.6500001C7.86304581 13.64734 7.75266009 13.5369543 7.75000003 13.4000001L7.75000003 12.6650001C7.75000003 12.5269289 7.86192885 12.4150001 8.00000003 12.4150001 8.13807122 12.4150001 8.25000003 12.5269289 8.25000003 12.6650001L8.25000003 13.4000001C8.25000003 13.5380712 8.13807122 13.6500001 8.00000003 13.6500001z"/>
  </g>
</svg>
