<svg xmlns="http://www.w3.org/2000/svg" width="24" height="24" viewBox="0 0 24 24">
  <g fill="none" fill-rule="evenodd">
    <rect width="24" height="24"/>
    <g fill-rule="nonzero" transform="translate(2.5 2.5)">
      <path fill="#CCC" d="M6.55000003,15.3100001 L4.83500002,17.0400001 C4.62279958,17.2536476 4.56007824,17.5740305 4.67604966,17.8519242 C4.79202107,18.129818 5.06387881,18.3105734 5.36500002,18.3100001 L13.7900001,18.3100001 C14.0911213,18.3105734 14.362979,18.129818 14.4789504,17.8519242 C14.5949218,17.5740305 14.5322005,17.2536476 14.3200001,17.0400001 L12.6000001,15.3100001"/>
      <path fill="#000" d="M13.7900001,18.5600001 L5.36500002,18.5600001 C4.96616835,18.5544493 4.60877786,18.3124163 4.45559766,17.944132 C4.30241745,17.5758477 4.38274654,17.1517544 4.66000002,16.8650001 L6.37000003,15.1350001 C6.41694168,15.0876719 6.48084064,15.0610505 6.54750003,15.0610505 C6.61415941,15.0610505 6.67805838,15.0876719 6.72500003,15.1350001 C6.77232819,15.1819417 6.79894961,15.2458407 6.79894961,15.3125001 C6.79894961,15.3791594 6.77232819,15.4430584 6.72500003,15.4900001 L5.00000002,17.2150001 C4.86335621,17.3582294 4.82407857,17.5685882 4.89983073,17.7514755 C4.97558288,17.9343629 5.15209993,18.0553392 5.35000002,18.0600001 L13.7900001,18.0600001 C13.9906402,18.0598366 14.1717505,17.9397525 14.2500001,17.7550001 C14.3247908,17.5692144 14.281506,17.3567253 14.1400001,17.2150001 L12.4200001,15.5000001 C12.3241084,15.4010932 12.3241084,15.2439069 12.4200001,15.1450001 C12.4669417,15.0976719 12.5308407,15.0710505 12.5975001,15.0710505 C12.6641594,15.0710505 12.7280584,15.0976719 12.7750001,15.1450001 L14.5000001,16.8650001 C14.7772535,17.1517544 14.8575826,17.5758477 14.7044024,17.944132 C14.5512222,18.3124163 14.1938317,18.5544493 13.7950001,18.5600001 L13.7900001,18.5600001 Z"/>
      <rect width="18.005" height="15.005" x=".58" y=".305" fill="#CCC" rx="1"/>
      <path fill="#000" d="M17.2500001,15.5600001 L1.91000001,15.5600001 C1.04624646,15.5573827 0.343619971,14.8636502 0.330000001,14.0000001 L0.330000001,1.63500001 C0.332744811,0.763529568 1.03852957,0.0577448094 1.91000001,0.0550000002 L17.2500001,0.0550000002 C18.1234225,0.0550000002 18.8322448,0.76158193 18.8350001,1.63500001 L18.8350001,14.0000001 C18.8213455,14.8655928 18.1157005,15.5600001 17.2500001,15.5600001 L17.2500001,15.5600001 Z M1.91000001,0.555000002 C1.31353248,0.555000002 0.830000003,1.03853247 0.830000003,1.63500001 L0.830000003,14.0000001 C0.830000003,14.5972818 1.3127246,15.0822476 1.91000001,15.0850001 L17.2500001,15.0850001 C17.53776,15.0850001 17.813734,14.9706879 18.0172109,14.7672109 C18.2206879,14.5637339 18.3350001,14.28776 18.3350001,14.0000001 L18.3350001,1.63500001 C18.3322476,1.0377246 17.8472818,0.555000002 17.2500001,0.555000002 L1.91000001,0.555000002 Z"/>
      <path fill="#000" d="M18.5850001 12L.585000002 12C.446928814 12 .335000001 11.8880712.335000001 11.75.335000001 11.6119289.446928814 11.5.585000002 11.5L18.5850001 11.5C18.7230713 11.5 18.835 11.6119289 18.835 11.75 18.835 11.8880712 18.7230713 12 18.5850001 12zM9.58000004 14.6000001C8.98273633 14.599943 8.49782933 14.1171886 8.49510349 13.5199311 8.49240054 12.9226735 8.97289959 12.4355316 9.57013811 12.4300458 10.1673766 12.42456 10.6567429 12.9027934 10.665 13.5000001 10.6690145 13.7903501 10.556477 14.0701933 10.3525633 14.2769261 10.1486496 14.4836589 9.8703778 14.6000278 9.58000004 14.6000001zM9.58000004 12.9350001C9.34159927 12.9351394 9.12713136 13.0799317 9.03788241 13.3009964 8.94863346 13.522061 9.00245941 13.7751698 9.17394005 13.9407878 9.34542068 14.1064059 9.60024805 14.1513982 9.81807563 14.0545163 10.0359032 13.9576344 10.1731505 13.7382615 10.165 13.5000001 10.1568271 13.1835951 9.89649789 12.932166 9.58000004 12.9350001L9.58000004 12.9350001z"/>
    </g>
    <rect width="2.615" height="3.395" x="6.085" y="8.65" fill="#FFF" fill-rule="nonzero" rx="1.308"/>
    <path fill="#1A1A1A" fill-rule="nonzero" d="M7.85000003,12.2950001 L6.94000003,12.2950001 C6.33167268,12.2950001 5.83775264,11.8033212 5.83500002,11.195 L5.83500002,9.50000004 C5.83500002,8.88972539 6.32972538,8.39500003 6.94000003,8.39500003 L7.85000003,8.39500003 C8.45832116,8.39775265 8.95000004,8.89167269 8.95000004,9.50000004 L8.95000004,11.19 C8.95000004,11.7983274 8.45832116,12.2922474 7.85000003,12.2950001 Z M6.94000003,8.90000004 C6.60781068,8.89998869 6.33774539,9.16782203 6.33500003,9.50000004 L6.33500003,11.19 C6.33774539,11.5221781 6.60781068,11.79 6.94000003,11.79 L7.85000003,11.79 C8.18137088,11.79 8.45000004,11.5213709 8.45000004,11.19 L8.45000004,9.50000004 C8.45000004,9.16781069 8.18217804,8.8977454 7.85000003,8.89500004 L6.94000003,8.90000004 Z"/>
    <rect width="2.615" height="6.79" x="10.77" y="5.255" fill="#FFF" fill-rule="nonzero" rx="1.308"/>
    <path fill="#1A1A1A" fill-rule="nonzero" d="M12.6350001,12.2950001 L11.5,12.2950001 C10.9477153,12.2950001 10.5,11.8472848 10.5,11.295 L10.5,6.00000002 C10.5,5.44771527 10.9477153,5.00000002 11.5,5.00000002 L12.6150001,5.00000002 C13.1672848,5.00000002 13.6150001,5.44771527 13.6150001,6.00000002 L13.6150001,11.3 C13.6123953,11.8426221 13.1775199,12.2841537 12.6350001,12.2950001 L12.6350001,12.2950001 Z M11.5,5.50000002 C11.2238577,5.50000002 11,5.72385765 11,6.00000002 L11,11.3 C11,11.5761424 11.2238577,11.8 11.5,11.8 L12.6150001,11.8 C12.8911424,11.8 13.1150001,11.5761424 13.1150001,11.3 L13.1150001,6.00000002 C13.1150001,5.72385765 12.8911424,5.50000002 12.6150001,5.50000002 L11.5,5.50000002 Z"/>
    <rect width="2.615" height="4.95" x="15.47" y="7.095" fill="#FFF" fill-rule="nonzero" rx="1.308"/>
    <path fill="#1A1A1A" fill-rule="nonzero" d="M17.3350001,12.2950001 L16.2200001,12.2950001 C15.6677153,12.2950001 15.2200001,11.8472848 15.2200001,11.295 L15.2200001,7.84500003 C15.2200001,7.29271528 15.6677153,6.84500003 16.2200001,6.84500003 L17.3350001,6.84500003 C17.8872848,6.84500003 18.3350001,7.29271528 18.3350001,7.84500003 L18.3350001,11.3 C18.3322484,11.8503312 17.8853381,12.2950001 17.3350001,12.2950001 Z M16.2200001,7.34500003 C15.9438577,7.34500003 15.7200001,7.56885766 15.7200001,7.84500003 L15.7200001,11.3 C15.7200001,11.5761424 15.9438577,11.8 16.2200001,11.8 L17.3350001,11.8 C17.6111424,11.8 17.8350001,11.5761424 17.8350001,11.3 L17.8350001,7.84500003 C17.8350001,7.56885766 17.6111424,7.34500003 17.3350001,7.34500003 L16.2200001,7.34500003 Z"/>
  </g>
</svg>
