<svg xmlns="http://www.w3.org/2000/svg" width="24" height="24" viewBox="0 0 24 24">
  <g fill="none" fill-rule="evenodd">
    <rect width="24" height="24"/>
    <rect width="8.58" height="13.52" x="7.795" y="7.29" fill="#CCC" fill-rule="nonzero" rx="4.29"/>
    <path fill="#000" fill-rule="nonzero" d="M8.86942025,19.7199659 C8.01757259,18.8653037 7.54101315,17.7066797 7.54495068,16.5 L7.54495068,11.58 C7.54495068,9.07262726 9.57762726,7.04000007 12.085,7.04000007 C14.5923727,7.04000007 16.6250493,9.07262726 16.6250493,11.58 L16.6250493,16.5 C16.6289868,17.7066797 16.1524274,18.8653037 15.3005797,19.7199659 C14.4487321,20.574628 13.2916863,21.055 12.085,21.055 C10.8783137,21.055 9.72126791,20.574628 8.86942025,19.7199659 Z M8.045,11.595 L8.045,16.5 C8.045,18.7312304 9.85376961,20.54 12.085,20.54 C14.3162304,20.54 16.125,18.7312304 16.125,16.5 L16.125,11.58 C16.1222451,9.34991172 14.3150883,7.5427549 12.085,7.54 C9.85491172,7.5427549 8.0477549,9.36491172 8.045,11.595 Z"/>
    <path fill="#000" fill-rule="nonzero" d="M12.075 7.41000131C11.9369288 7.41000131 11.825 7.29807119 11.825 7.16L11.825 6.5C11.827743 5.71689464 12.4618946 5.08274295 13.245 5.08L14.85 5.08C15.3278087 5.0446068 15.6974075 4.64661775 15.6974075 4.1675 15.6974075 3.68838225 15.3278087 3.2903932 14.85 3.255L10 3.255C9.86192881 3.255 9.75 3.14307119 9.75 3.005 9.75 2.86692881 9.86192881 2.755 10 2.755L14.85 2.755C15.5975055 2.79949357 16.1809241 3.41867146 16.1809241 4.1675 16.1809241 4.91632854 15.5975055 5.53550643 14.85 5.58L13.245 5.58C12.7380344 5.58273303 12.327733 5.9930344 12.325 6.5L12.325 7.18C12.3145507 7.31020548 12.2056234 7.41041861 12.075 7.41000131zM12.085 12.905C11.9469288 12.905 11.835 12.7930712 11.835 12.655L11.835 10.595C11.835 10.4569288 11.9469288 10.345 12.085 10.345 12.2230712 10.345 12.335 10.4569288 12.335 10.595L12.335 12.655C12.335 12.7930712 12.2230712 12.905 12.085 12.905L12.085 12.905z"/>
  </g>
</svg>
