<svg xmlns="http://www.w3.org/2000/svg" width="24" height="24" viewBox="0 0 24 24">
  <g fill="none" fill-rule="evenodd">
    <rect width="24" height="24"/>
    <path fill="#CCC" fill-rule="nonzero" d="M17.1350001,5.95500002 L18.1350001,5.95500002 C18.4947924,5.95774661 18.7850001,6.25019717 18.7850001,6.61000003 L18.7850001,20.0000001 C18.7850001,20.3589852 18.4939852,20.6500001 18.1350001,20.6500001 L7.68500003,20.6500001 C7.32601494,20.6500001 7.03500003,20.3589852 7.03500003,20.0000001 L7.03500003,19.0000001"/>
    <path fill="#1A1A1A" fill-rule="nonzero" d="M18.1150001,20.8750001 L7.68500003,20.8750001 C7.18794376,20.8750001 6.78500003,20.4720564 6.78500003,19.9750001 L6.78500003,19.0000001 C6.78500003,18.8619289 6.89692884,18.7500001 7.03500003,18.7500001 C7.17307122,18.7500001 7.28500003,18.8619289 7.28500003,19.0000001 L7.28500003,20.0000001 C7.28500003,20.220914 7.46408613,20.4000001 7.68500003,20.4000001 L18.1150001,20.4000001 C18.330035,20.3919307 18.5001514,20.2151863 18.5000001,20.0000001 L18.5000001,6.61000003 C18.5013371,6.50304977 18.4597853,6.40001897 18.3846253,6.32391952 C18.3094654,6.24782007 18.2069587,6.20500002 18.1000001,6.20500002 L17.1400001,6.20500002 C17.0019289,6.20500002 16.8900001,6.09307121 16.8900001,5.95500002 C16.8900001,5.81692884 17.0019289,5.70500002 17.1400001,5.70500002 L18.1150001,5.70500002 C18.6069902,5.71587537 19.0000001,6.11788977 19.0000001,6.61000003 L19.0000001,20.0000001 C18.984178,20.4804089 18.5955577,20.864638 18.1150001,20.8750001 Z"/>
    <rect width="11.735" height="14.67" x="5.405" y="4.325" fill="#FFF" fill-rule="nonzero" rx="1.3"/>
    <path fill="#1A1A1A" fill-rule="nonzero" d="M16.5000001,19.2450001 L6.05500003,19.2450001 C5.55907996,19.2422677 5.15773243,18.8409201 5.15500002,18.3450001 L5.15500002,5.00000002 C5.15500002,4.50212845 5.55713605,4.09775069 6.05500003,4.09500002 L16.5000001,4.09500002 C16.9939502,4.10318816 17.3900001,4.50598207 17.3900001,5.00000002 L17.3900001,18.3450001 C17.3873489,18.837071 16.9920106,19.2368512 16.5000001,19.2450001 Z M6.05500003,4.57499972 C5.94804141,4.57499972 5.84553471,4.61782006 5.77037476,4.69391951 C5.69521481,4.77001897 5.65366304,4.87304976 5.65496873,4.98000002 L5.65496873,18.3450001 C5.65496873,18.565914 5.83408612,18.7450001 6.05500003,18.7450001 L16.5000001,18.7450001 C16.7217372,18.7450001 16.9022626,18.5667203 16.9050001,18.3450001 L16.9050001,5.00000002 C16.9104801,4.88916591 16.8702423,4.780938 16.793688,4.70060325 C16.7171337,4.62026851 16.6109695,4.57499972 16.5000001,4.57499972 L6.05500003,4.57499972 Z"/>
    <path fill="#1A1A1A" fill-rule="nonzero" d="M8.64500004 7.59500003C8.1692275 7.59224986 7.78499208 7.20578051 7.78500003 6.73000003L7.78500003 5.95500002C7.78500003 5.81692884 7.89692885 5.70500002 8.03500003 5.70500002 8.17195426 5.70766008 8.28233998 5.8180458 8.28500003 5.95500002L8.28500003 6.73000003C8.26856787 6.86967427 8.33384433 7.00636464 8.45280294 7.08138304 8.57176155 7.15640143 8.72323852 7.15640143 8.84219713 7.08138304 8.96115574 7.00636464 9.0264322 6.86967427 9.01000004 6.73000003L9.01000004 4.39500002C9.02302489 3.85813599 8.61947567 3.40223443 8.08500003 3.35000001 7.81699001 3.33362126 7.55427414 3.42964844 7.36000003 3.61500002 7.16730572 3.80123851 7.05742511 4.05702615 7.05500003 4.32500002 7.05500003 4.46307121 6.94307122 4.57500002 6.80500003 4.57500002 6.66692884 4.57500002 6.55500003 4.46307121 6.55500003 4.32500002 6.54996781 3.92233152 6.7109101 3.53534669 7.00000003 3.25500001 7.29532963 2.9776654 7.69028409 2.83158635 8.09500003 2.85000001 8.8966305 2.91564247 9.51056858 3.59075587 9.50000004 4.39500002L9.50000004 6.73000003C9.50003171 7.20384819 9.11881653 7.58952202 8.64500004 7.59500003L8.64500004 7.59500003zM14.2050001 15.3350001L8.33500003 15.3350001C8.19804581 15.33234 8.08766009 15.2219543 8.08500003 15.0850001 8.08500003 14.9469289 8.19692885 14.8350001 8.33500003 14.8350001L14.2050001 14.8350001C14.3430712 14.8350001 14.4550001 14.9469289 14.4550001 15.0850001 14.45234 15.2219543 14.3419543 15.33234 14.2050001 15.3350001zM14.2050001 16.9650001L8.33500003 16.9650001C8.19804581 16.96234 8.08766009 16.8519543 8.08500003 16.7150001 8.08500003 16.5769289 8.19692885 16.4650001 8.33500003 16.4650001L14.2050001 16.4650001C14.3430712 16.4650001 14.4550001 16.5769289 14.4550001 16.7150001 14.45234 16.8519543 14.3419543 16.96234 14.2050001 16.9650001z"/>
    <path fill="#000" fill-rule="nonzero" d="M11.64,10.05 L10.9,10.05 C10.4719794,10.05 10.125,9.70302072 10.125,9.27500004 C10.125,8.84697936 10.4719794,8.50000004 10.9,8.50000004 L12.6650001,8.50000004 C12.8030712,8.50000004 12.9150001,8.38807122 12.9150001,8.25000003 C12.9150001,8.11192885 12.8030712,8.00000003 12.6650001,8.00000003 L11.5,8.00000003 L11.5,7.39000003 C11.5,7.25192884 11.3880712,7.14000003 11.25,7.14000003 C11.1119289,7.14000003 11,7.25192884 11,7.39000003 L11,8.00000003 L10.9,8.00000003 C10.195837,8.00000003 9.62500004,8.57083698 9.62500004,9.27500004 C9.62500004,9.9791631 10.195837,10.55 10.9,10.55 L11.64,10.55 C12.0680207,10.55 12.4150001,10.8969794 12.4150001,11.325 C12.4150001,11.7530207 12.0680207,12.1000001 11.64,12.1000001 L9.87500004,12.1000001 C9.73692885,12.1000001 9.62500004,12.2119289 9.62500004,12.3500001 C9.62500004,12.4880712 9.73692885,12.6000001 9.87500004,12.6000001 L11,12.6000001 L11,13.2150001 C11,13.3530712 11.1119289,13.4650001 11.25,13.4650001 C11.3880712,13.4650001 11.5,13.3530712 11.5,13.2150001 L11.5,12.6000001 L11.62,12.6000001 C12.3241631,12.6 12.895,12.0291631 12.895,11.325 C12.895,10.620837 12.3241631,10.0500001 11.62,10.05 L11.64,10.05 Z"/>
  </g>
</svg>
