<svg xmlns="http://www.w3.org/2000/svg" width="24" height="24" viewBox="0 0 24 24">
  <g fill="none" fill-rule="evenodd">
    <rect width="24" height="24"/>
    <rect width="3.755" height="11.31" x="14.825" y="6.23" fill="#CCC" fill-rule="nonzero"/>
    <path fill="#000" fill-rule="nonzero" d="M18.5850001,17.7900001 L14.8250001,17.7900001 C14.6869289,17.7900001 14.5750001,17.6780713 14.5750001,17.5400001 L14.5750001,6.23000003 C14.5776601,6.0930458 14.6880458,5.98266008 14.8250001,5.98000002 L18.5850001,5.98000002 C18.7219543,5.98266008 18.83234,6.0930458 18.8350001,6.23000003 L18.8350001,17.5400001 C18.8350001,17.6780713 18.7230713,17.7900001 18.5850001,17.7900001 Z M15.0850001,17.2900001 L18.3450001,17.2900001 L18.3450001,6.50000003 L15.0750001,6.50000003 L15.0850001,17.2900001 Z"/>
    <path fill="#000" fill-rule="nonzero" d="M16.7050001 20.9050001C15.5286335 20.9050001 14.5750001 19.9513666 14.5750001 18.7750001L14.5750001 17.5400001C14.5776601 17.4030458 14.6880458 17.2926601 14.8250001 17.2900001L18.5850001 17.2900001C18.7219543 17.2926601 18.83234 17.4030458 18.8350001 17.5400001L18.8350001 18.7750001C18.8350001 19.3399112 18.61059 19.881685 18.2111375 20.2811375 17.811685 20.68059 17.2699112 20.9050001 16.7050001 20.9050001zM15.0750001 17.7900001L15.0750001 18.7900001C15.0750001 19.6902242 15.8047759 20.4200001 16.7050001 20.4200001 17.6052242 20.4200001 18.3350001 19.6902242 18.3350001 18.7900001L18.3350001 17.7900001 15.0750001 17.7900001zM18.5800001 6.50000003L14.8300001 6.50000003C14.7406506 6.50161043 14.6578058 6.45344481 14.6150001 6.37500003 14.5703419 6.29764976 14.5703419 6.2023503 14.6150001 6.12500003L16.5000001 2.85500001C16.5468316 2.78156595 16.6279039 2.7371131 16.7150001 2.7371131 16.8020963 2.7371131 16.8831686 2.78156595 16.9300001 2.85500001L18.8100001 6.10500003C18.8549831 6.18289252 18.8546544 6.27894554 18.8091392 6.35652829 18.763624 6.43411104 18.6799396 6.48126213 18.5900001 6.48000003L18.5800001 6.50000003zM15.2650001 6.00000001L18.1500001 6.00000001 16.7050001 3.50000001 15.2650001 6.00000001z"/>
    <path fill="#000" fill-rule="nonzero" d="M16.7050001 14.0650001C16.5669289 14.0650001 16.4550001 13.9530712 16.4550001 13.8150001L16.4550001 6.23000003C16.4550001 6.09192884 16.5669289 5.98000002 16.7050001 5.98000002 16.8430713 5.98000002 16.9550001 6.09192884 16.9550001 6.23000003L16.9550001 13.8150001C16.9550001 13.9530712 16.8430713 14.0650001 16.7050001 14.0650001zM4.57500002 13.2400001C3.89082459 13.2372413 3.33816714 12.6808587 3.33999992 11.9966802 3.34184183 11.3125016 3.89747959 10.7590953 4.58165997 10.7600101 5.26584035 10.7609271 5.82000002 11.3158191 5.82000002 12.0000001 5.81724642 12.6856411 5.26064664 13.2400001 4.57500002 13.2400001L4.57500002 13.2400001zM4.57500002 11.24C4.16960811 11.2428876 3.84200866 11.571423 3.8402707 11.9768215 3.83854651 12.38222 4.16332833 12.713541 4.5686808 12.7198905 4.97403327 12.72624 5.30903292 12.4052539 5.32000002 12.0000001 5.32000002 11.8028705 5.24135448 11.6138868 5.10149427 11.4749653 4.96163406 11.3360437 4.77212511 11.2586681 4.57500002 11.26L4.57500002 11.24z"/>
    <path fill="#CCC" fill-rule="nonzero" d="M3.79000002,10.4225 L14.1850001,10.4225 C15.2136304,10.4225 16.0475001,11.2563697 16.0475001,12.2850001 C16.0475001,13.3136304 15.2136304,14.1475001 14.1850001,14.1475001 L3.79000002,14.1475001 C2.76136966,14.1475001 1.92750001,13.3136304 1.92750001,12.2850001 C1.92750001,11.2563697 2.76136966,10.4225 3.79000002,10.4225 Z" transform="rotate(90 8.988 12.285)"/>
    <path fill="#000" fill-rule="nonzero" d="M9.00000004,19.5950245 C7.8366145,19.6005431 6.88825743,18.6633695 6.88000003,17.5000001 L6.88000003,7.09000003 C6.84207828,6.31075633 7.23621925,5.57391515 7.90545147,5.17293255 C8.57468368,4.77194994 9.4103164,4.77194994 10.0795486,5.17293255 C10.7487808,5.57391515 11.1429218,6.31075633 11.105,7.09000003 L11.105,17.5000001 C11.0940772,18.6563778 10.1564167,19.5895839 9.00000004,19.5950245 L9.00000004,19.5950245 Z M9.00000004,5.50000002 C8.11001341,5.50275541 7.39000003,6.22500913 7.39000003,7.11500003 L7.39000003,17.5 C7.43766863,18.3557147 8.14545874,19.0251739 9.00250004,19.0251739 C9.85954133,19.0251739 10.5673314,18.3557147 10.615,17.5 L10.615,7.09000003 C10.6013427,6.20783845 9.88226732,5.50000002 9.00000004,5.50000002 Z"/>
    <path fill="#000" fill-rule="nonzero" d="M10.585 9.60500004L7.13000003 9.60500004C6.99192884 9.60500004 6.88000003 9.49307123 6.88000003 9.35500004 6.88000003 9.21692885 6.99192884 9.10500004 7.13000003 9.10500004L10.585 9.10500004C10.7230712 9.10500004 10.835 9.21692885 10.835 9.35500004 10.835 9.49307123 10.7230712 9.60500004 10.585 9.60500004zM4.57500002 11.13C4.43692883 11.13 4.32500002 11.0180712 4.32500002 10.88L4.32500002 9.41500004C4.32775126 7.98848511 5.4834851 6.83275127 6.91000003 6.83000003 7.04807122 6.83000003 7.16000003 6.94192884 7.16000003 7.08000003 7.16000003 7.21807122 7.04807122 7.33000003 6.91000003 7.33000003 5.75962684 7.33274884 4.82774883 8.26462685 4.82500002 9.41500004L4.82500002 10.88C4.82500002 10.9463042 4.79866081 11.0098926 4.75177672 11.0567767 4.70489262 11.1036608 4.64130414 11.13 4.57500002 11.13L4.57500002 11.13zM9.00000004 20.9050001C8.86192885 20.9050001 8.75000004 20.7930713 8.75000004 20.6550001L8.75000004 19.3450001C8.75000004 19.2069289 8.86192885 19.0950001 9.00000004 19.0950001 9.13807123 19.0950001 9.25000004 19.2069289 9.25000004 19.3450001L9.25000004 20.6550001C9.25000004 20.7213042 9.22366083 20.7848927 9.17677673 20.8317768 9.12989264 20.8786609 9.06630416 20.9050001 9.00000004 20.9050001zM9.83000004 5.50000002C9.69192885 5.50000002 9.58000004 5.38807121 9.58000004 5.25000002L9.58000004 3.75000002C9.58000004 3.46143123 9.34606882 3.22750001 9.05750004 3.22750001 8.76893125 3.22750001 8.53500003 3.46143123 8.53500003 3.75000002L8.53500003 5.25000002C8.53500003 5.38807121 8.42307122 5.50000002 8.28500003 5.50000002 8.14692885 5.50000002 8.03500003 5.38807121 8.03500003 5.25000002L8.03500003 3.75000002C8.03500003 3.18528886 8.49278888 2.72750001 9.05750004 2.72750001 9.6222112 2.72750001 10.08 3.18528886 10.08 3.75000002L10.08 5.25000002C10.08 5.38807121 9.96807123 5.50000002 9.83000004 5.50000002z"/>
  </g>
</svg>
