<svg xmlns="http://www.w3.org/2000/svg" width="24" height="24" viewBox="0 0 24 24">
  <g fill="none" fill-rule="evenodd">
    <rect width="24" height="24"/>
    <path fill="#CCC" fill-rule="nonzero" d="M19.6050001,5.04500002 L19.6050001,16.1750001 C19.6050001,16.7272848 19.1572848,17.1750001 18.6050001,17.1750001 L5.74500002,17.1750001 C5.09525165,17.1750001 4.56775319,16.6497426 4.56500002,16.0000001 L4.56500002,5.04500002"/>
    <path fill="#1A1A1A" fill-rule="nonzero" d="M18.6050001,17.4250001 L5.74500002,17.4250001 C4.95718134,17.4250001 4.31775463,16.7878139 4.31500002,16.0000001 L4.31500002,5.04500002 C4.31500002,4.90692883 4.42692883,4.79500002 4.56500002,4.79500002 C4.70307121,4.79500002 4.81500002,4.90692883 4.81500002,5.04500002 L4.81500002,16.0000001 C4.81500002,16.2461941 4.91313756,16.4822324 5.08769162,16.655848 C5.26224568,16.8294636 5.4988096,16.9263308 5.74500002,16.9250001 L18.6050001,16.9250001 C19.0192136,16.9250001 19.3550001,16.5892136 19.3550001,16.1750001 L19.3550001,5.04500002 C19.3550001,4.90692883 19.4669289,4.79500002 19.6050001,4.79500002 C19.7430713,4.79500002 19.8550001,4.90692883 19.8550001,5.04500002 L19.8550001,16.1750001 C19.8550001,16.865356 19.295356,17.4250001 18.6050001,17.4250001 Z"/>
    <path fill="#1A1A1A" fill-rule="nonzero" d="M15.5400001,21.1400001 C15.4698396,21.1404749 15.4027087,21.1114453 15.3550001,21.0600001 L12.1150001,17.5600001 L8.87500004,21.0600001 C8.78053787,21.1526675 8.63022651,21.1556752 8.53213296,21.0668607 C8.43403941,20.9780463 8.42214446,20.8281762 8.50500004,20.7250001 L11.93,17.0000001 C12.0329205,16.8996489 12.1970796,16.8996489 12.3000001,17.0000001 L15.7250001,20.7200001 C15.7720321,20.7660819 15.7985358,20.8291552 15.7985358,20.8950001 C15.7985358,20.9608449 15.7720321,21.0239183 15.7250001,21.0700001 C15.6755789,21.117774 15.6086677,21.1430917 15.5400001,21.1400001 Z"/>
    <rect width="18.035" height="1.935" x="3.08" y="3.11" fill="#CCC" fill-rule="nonzero" rx=".968"/>
    <path fill="#1A1A1A" fill-rule="nonzero" d="M20.1500001,5.29500002 L4.05000002,5.29500002 C3.59640793,5.324083 3.16425611,5.0985986 2.9286455,4.70990948 C2.69303488,4.32122035 2.69303488,3.83377968 2.9286455,3.44509056 C3.16425611,3.05640143 3.59640793,2.83091704 4.05000002,2.86000001 L20.1500001,2.86000001 C20.6035922,2.83091704 21.035744,3.05640143 21.2713546,3.44509056 C21.5069652,3.83377968 21.5069652,4.32122035 21.2713546,4.70990948 C21.035744,5.0985986 20.6035922,5.324083 20.1500001,5.29500002 Z M4.05000002,3.36000001 C3.77936268,3.33738797 3.51902813,3.46898356 3.37675612,3.70031568 C3.23448412,3.9316478 3.23448412,4.22335223 3.37675612,4.45468435 C3.51902813,4.68601647 3.77936268,4.81761206 4.05000002,4.79500002 L20.1500001,4.79500002 C20.4206374,4.81761206 20.680972,4.68601647 20.823244,4.45468435 C20.965516,4.22335223 20.965516,3.9316478 20.823244,3.70031568 C20.680972,3.46898356 20.4206374,3.33738797 20.1500001,3.36000001 L4.05000002,3.36000001 Z"/>
    <path fill="#000" fill-rule="nonzero" d="M18.3600001,12.6000001 C18.3600001,12.4729746 18.2570256,12.3700001 18.1300001,12.3700001 C18.0029746,12.3700001 17.9000001,12.4729746 17.9000001,12.6000001 L17.9000001,14.0000001 L14.0000001,10.095 C13.8805075,9.96990134 13.7128336,9.90246727 13.5400001,9.91000004 C13.3673339,9.91149562 13.2028495,9.98379642 13.0850001,10.11 L11.44,11.87 C11.4059624,11.9052684 11.3590143,11.925131 11.31,11.925 C11.2618998,11.9253901 11.2154419,11.9075217 11.18,11.875 L6.79500003,7.50000003 C6.70427629,7.41637304 6.5637274,7.4192323 6.47647985,7.50647985 C6.3892323,7.5937274 6.38637304,7.73427629 6.47000003,7.82500003 L10.845,12.2050001 C10.9684633,12.3241057 11.1334508,12.3904594 11.305,12.3900001 C11.4791592,12.3887007 11.6452671,12.3164798 11.765,12.1900001 L13.4100001,10.43 C13.4428244,10.3959587 13.4877263,10.3762018 13.5350001,10.375 C13.5826049,10.3771475 13.6282255,10.3946939 13.6650001,10.425 L17.5750001,14.3350001 L16.2150001,14.3350001 C16.0879746,14.3350001 15.9850001,14.4379746 15.9850001,14.5650001 C15.9850001,14.6920256 16.0879746,14.7950001 16.2150001,14.7950001 L18.1300001,14.7950001 C18.1707982,14.7939788 18.2105503,14.7818803 18.2450001,14.7600001 L18.2450001,14.7600001 C18.2778492,14.737521 18.3038132,14.7063643 18.3200001,14.6700001 L18.3200001,14.6700001 C18.3251668,14.6419023 18.3251668,14.6130979 18.3200001,14.5850001 L18.3600001,12.6000001 Z"/>
  </g>
</svg>
