<svg xmlns="http://www.w3.org/2000/svg" width="24" height="24" viewBox="0 0 24 24">
  <g fill="none" fill-rule="evenodd">
    <rect width="24" height="24"/>
    <path fill="#CCC" fill-rule="nonzero" d="M6.33500003,19.560009 L19.0900001,19.560009 C19.46263,19.5613285 19.8205254,19.4145747 20.0849522,19.1520233 C20.349379,18.8894718 20.4986764,18.53263 20.5000001,18.1600001 L20.5000001,6.08500003 C20.4972456,5.31099328 19.8690117,4.68500002 19.0950001,4.68500002 L10.385,4.68500002 C9.61180139,4.68500002 8.98500004,5.31180137 8.98500004,6.08500003 L8.98500004,12.2350001"/>
    <path fill="#000" fill-rule="nonzero" d="M19.0900001,19.8100001 L6.33500003,19.8100001 C6.19692884,19.8100001 6.08500003,19.6980713 6.08500003,19.5600001 C6.08500003,19.4219289 6.19692884,19.3100001 6.33500003,19.3100001 L19.0900001,19.3100001 C19.7259414,19.310006 20.2422471,18.7959355 20.2450001,18.1600001 L20.2450001,6.09000003 C20.2422613,5.45324902 19.7267511,4.93773877 19.0900001,4.93500002 L10.385,4.93500002 C9.74906464,4.93775301 9.23499408,5.45405867 9.23500004,6.09000003 L9.23500004,12.2350001 C9.23500004,12.3730712 9.12307123,12.4850001 8.98500004,12.4850001 C8.84692885,12.4850001 8.73500004,12.3730712 8.73500004,12.2350001 L8.73500004,6.09000003 C8.73499587,5.17791783 9.47292201,4.43775555 10.385,4.43500002 L19.0900001,4.43500002 C20.0040313,4.43500002 20.7450001,5.17596876 20.7450001,6.09000003 L20.7450001,18.1600001 C20.7422446,19.0720781 20.0020823,19.8100001 19.0900001,19.8100001 Z"/>
    <path fill="#CCC" fill-rule="nonzero" d="M6.31500003,8.86500004 L6.31500003,8.86500004 C7.01955338,8.86105324 7.69669128,9.13780027 8.19676665,9.63412272 C8.69684201,10.1304452 8.97868196,10.8054792 8.98000004,11.5100426 L8.98000004,18.1600426 C8.98000004,18.9332413 8.35319868,19.5600426 7.58000003,19.5600426 L3.66500002,19.5600426 L3.66500002,11.5100426 C3.66775776,10.048441 4.85339583,8.86500004 6.31500003,8.86500004 Z" transform="rotate(-180 6.322 14.213)"/>
    <path fill="#000" fill-rule="nonzero" d="M6.33500003 19.8100173C4.73337425 19.8100173 3.43500001 18.5116259 3.43500001 16.9100001L3.43500001 10.26C3.43500001 9.3487302 4.17373018 8.61000004 5.08500002 8.61000004L9.00000004 8.61000004C9.13807123 8.61000004 9.25000004 8.72192885 9.25000004 8.86000004L9.25000004 16.9100001C9.24867703 17.6813229 8.94065745 18.4204547 8.39384395 18.9644544 7.84703045 19.5084541 7.10631943 19.8126564 6.33500003 19.8100173zM5.08500002 9.11000004C4.44987256 9.11000004 3.93500002 9.62487258 3.93500002 10.26L3.93500002 16.9100001C3.93500002 18.2354835 5.00951662 19.3100001 6.33500003 19.3100001 7.66048343 19.3100001 8.73500004 18.2354835 8.73500004 16.9100001L8.73500004 9.11000004 5.08500002 9.11000004zM16.8100001 11.32L12.6650001 11.32C11.634989 11.32 10.8 10.4850111 10.8 9.45500004 10.8 8.42498898 11.634989 7.59000003 12.6650001 7.59000003L16.8100001 7.59000003C17.8400111 7.59000003 18.6750001 8.42498898 18.6750001 9.45500004 18.6750001 10.4850111 17.8400111 11.32 16.8100001 11.32zM12.6650001 8.09000003C11.9111314 8.09000003 11.3 8.70113135 11.3 9.45500004 11.3 10.2088687 11.9111314 10.82 12.6650001 10.82L16.8100001 10.82C17.5638688 10.82 18.1750001 10.2088687 18.1750001 9.45500004 18.1750001 8.70113135 17.5638688 8.09000003 16.8100001 8.09000003M18.4250001 14.2000001L11.05 14.2000001C10.9119289 14.2000001 10.8 14.0880712 10.8 13.9500001 10.8 13.8119289 10.9119289 13.7000001 11.05 13.7000001L18.4250001 13.7000001C18.5630713 13.7000001 18.6750001 13.8119289 18.6750001 13.9500001 18.6750001 14.0880712 18.5630713 14.2000001 18.4250001 14.2000001zM18.4250001 16.6550001L11.05 16.6550001C10.9119289 16.6550001 10.8 16.5430713 10.8 16.4050001 10.8 16.2669289 10.9119289 16.1550001 11.05 16.1550001L18.4250001 16.1550001C18.5630713 16.1550001 18.6750001 16.2669289 18.6750001 16.4050001 18.6750001 16.5430713 18.5630713 16.6550001 18.4250001 16.6550001z"/>
  </g>
</svg>
