<svg xmlns="http://www.w3.org/2000/svg" width="24" height="24" viewBox="0 0 24 24">
  <g fill="none" fill-rule="evenodd">
    <rect width="24" height="24"/>
    <path fill="#CCC" fill-rule="nonzero" d="M6.27000003,13.5850001 C8.44027598,7.2542753 14.3926035,3.00146482 21.0850001,3.00000001 L21.0850001,3.00000001 C21.0850001,9.69288582 16.8316822,15.6460093 10.5,17.8150001"/>
    <path fill="#000" fill-rule="nonzero" d="M10.5,18.0550001 C10.3853426,18.0511075 10.2894731,17.9666138 10.2712054,17.853354 C10.2529377,17.7400943 10.3173807,17.6297437 10.425,17.5900001 C16.5775495,15.4834934 20.7463271,9.74242259 20.8450001,3.24000001 C14.3431174,3.34151139 8.60419297,7.51218318 6.50000003,13.6650001 C6.45320326,13.7868747 6.31906121,13.8506471 6.19500003,13.8100001 C6.13588882,13.7895831 6.08735367,13.7464471 6.06013915,13.6901411 C6.03292463,13.6338352 6.02927565,13.5690042 6.05000003,13.5100001 C8.24829313,7.08173533 14.2912474,2.76304273 21.0850001,2.76499935 C21.214787,2.76499935 21.320003,2.8702131 21.320003,3.00000001 C21.3240966,9.79559057 17.005005,15.8411129 10.575,18.0400001 C10.5511978,18.0497784 10.5257322,18.0550001 10.5,18.0550001 L10.5,18.0550001 Z"/>
    <line x1="3.1" x2="13.67" y1="10.415" y2="20.985" fill="#CCC" fill-rule="nonzero"/>
    <path fill="#000" fill-rule="nonzero" d="M13.6700001,21.2250001 C13.6079122,21.2243809 13.5485927,21.199215 13.5050001,21.1550001 L2.93000001,10.585 C2.83917728,10.4918008 2.83917728,10.3431993 2.93000001,10.25 C2.97346516,10.2038101 3.03407501,10.177619 3.09750001,10.177619 C3.16092501,10.177619 3.22153486,10.2038101 3.26500001,10.25 L13.8400001,20.8200001 C13.9308228,20.9131994 13.9308228,21.0618008 13.8400001,21.1550001 C13.7940086,21.1986599 13.7333994,21.2236166 13.6700001,21.2250001 L13.6700001,21.2250001 Z"/>
    <circle cx="15.765" cy="8.32" r="2.32" fill="#CCC" fill-rule="nonzero"/>
    <path fill="#000" fill-rule="nonzero" d="M15.7650001,10.88 C14.3511511,10.88 13.2050001,9.733849 13.2050001,8.32000003 C13.1984907,7.63685271 13.4690799,6.98022309 13.9550001,6.50000003 C14.9639982,5.56723453 16.5294284,5.59741056 17.5017294,6.56836857 C18.4740304,7.53932658 18.5063701,9.10471367 17.5750001,10.115 L17.5750001,10.115 C17.0980896,10.6015589 16.4463035,10.8770376 15.7650001,10.88 L15.7650001,10.88 Z M15.7650001,6.24000003 C14.916529,6.226242 14.1447731,6.72928723 13.8148849,7.51112233 C13.4849967,8.29295744 13.6631293,9.19679949 14.2650001,9.79500004 C14.6560688,10.186431 15.1866892,10.4063651 15.7400001,10.4063651 C16.2933109,10.4063651 16.8239314,10.186431 17.2150001,9.79500004 L17.2150001,9.79500004 C17.8083148,9.19820761 17.9846989,8.30324676 17.6621958,7.52595961 C17.3396927,6.74867247 16.5815352,6.24146093 15.7400001,6.24000003 L15.7650001,6.24000003 Z"/>
    <path fill="#CCC" fill-rule="nonzero" d="M9.95000004,17.3500001 L6.82000003,14.1350001 L5.25500002,14.6050001 C5.10589402,14.6640442 4.99415863,14.7910274 4.95456466,14.9464337 C4.91497068,15.1018401 4.95232376,15.2668075 5.05500002,15.3900001 L8.70500004,19.0350001 C8.82040521,19.1586128 8.99332145,19.2106966 9.15780011,19.1713872 C9.32227877,19.1320779 9.4529588,19.0074365 9.50000004,18.8450001 L9.95000004,17.3500001 Z"/>
    <path fill="#000" fill-rule="nonzero" d="M9.03500004 19.4100001C8.84814278 19.4086554 8.66902042 19.3352152 8.53500004 19.2050001L4.89000002 15.5550001C4.71213478 15.3813033 4.64146195 15.125353 4.70500002 14.8850001 4.76905156 14.6402164 4.96021632 14.4490516 5.20500002 14.3850001L6.73400884 13.929535C6.81886911 13.9011452 6.91249202 13.9245509 6.97400884 13.989535L10.14 17.1900001C10.2023494 17.2510422 10.2237846 17.3426288 10.195 17.4250001L9.73000004 18.9250001C9.66408382 19.1687094 9.47370936 19.3590839 9.23000004 19.4250001 9.16466606 19.4263836 9.09935379 19.4213596 9.03500004 19.4100001zM6.75000003 14.4100001L5.32000002 14.8400001C5.24296846 14.8640053 5.18414867 14.9266199 5.16500002 15.0050001 5.14360548 15.0837879 5.16656781 15.1679831 5.22500002 15.2250001L8.87000004 18.8700001C8.92652359 18.9293017 9.01032396 18.9540609 9.09000004 18.9350001 9.16961553 18.9149399 9.23250025 18.8539608 9.25500004 18.7750001L9.68000004 17.4200001 6.75000003 14.4100001zM3.09500001 10.65C3.0324326 10.6517975 2.97218823 10.6262393 2.93000001 10.58 2.88381007 10.5365349 2.85761901 10.475925 2.85761901 10.4125 2.85761901 10.349075 2.88381007 10.2884652 2.93000001 10.245 4.77894698 8.38978103 7.31182228 7.38024931 9.93000004 7.45500003 9.99277264 7.45494067 10.0528421 7.4805406 10.0962748 7.52586169 10.1397075 7.57118279 10.1627293 7.63228676 10.16 7.69500003 10.1439529 7.8212994 10.0418582 7.919227 9.91500004 7.93000003 7.42674305 7.84443141 5.01651683 8.80562019 3.27000001 10.58 3.22512188 10.6284051 3.1608808 10.6541016 3.09500001 10.65zM13.7550001 21.225016C13.6913952 21.2246188 13.6304318 21.1995162 13.5850001 21.1550001 13.4941773 21.0618008 13.4941773 20.9131994 13.5850001 20.8200001 15.3516537 19.0659451 16.3128346 16.6584673 16.2400001 14.1700001 16.2386598 14.1076702 16.2621422 14.0473621 16.3052785 14.0023503 16.3484149 13.9573384 16.4076696 13.9313121 16.4700001 13.9300001 16.5335545 13.9258462 16.5959861 13.9482318 16.6424208 13.9918236 16.6888556 14.0354153 16.7151357 14.0963101 16.7150001 14.1600001 16.7884352 16.7789168 15.7770516 19.311899 13.9200001 21.1600001 13.8755999 21.2023844 13.8163784 21.2257141 13.7550001 21.225016L13.7550001 21.225016z"/>
    <line x1="6.135" x2="4.855" y1="17.915" y2="19.19" fill="#CCC" fill-rule="nonzero"/>
    <path fill="#000" fill-rule="nonzero" d="M4.85500002,19.4300001 C4.79160068,19.4286166 4.73099148,19.4036599 4.68500002,19.3600001 C4.59417729,19.2668008 4.59417729,19.1181994 4.68500002,19.0250001 L5.96500002,17.7450001 C6.0581993,17.6541773 6.20680075,17.6541773 6.30000003,17.7450001 C6.34618997,17.7884652 6.37238102,17.8490751 6.37238102,17.9125001 C6.37238102,17.9759251 6.34618997,18.0365349 6.30000003,18.0800001 L5.00000002,19.3600001 C4.96141759,19.39968 4.91006829,19.4244694 4.85500002,19.4300001 L4.85500002,19.4300001 Z"/>
    <line x1="7.025" x2="6.345" y1="19.405" y2="20.085" fill="#CCC" fill-rule="nonzero"/>
    <path fill="#000" fill-rule="nonzero" d="M6.34500003,20.3200001 C6.28243261,20.3217975 6.22218825,20.2962393 6.18000003,20.2500001 C6.13381008,20.2065349 6.10761903,20.1459251 6.10761903,20.0825001 C6.10761903,20.0190751 6.13381008,19.9584652 6.18000003,19.9150001 L6.86000003,19.2350001 C6.95250773,19.1424924 7.10249233,19.1424924 7.19500002,19.2350001 C7.28750771,19.3275078 7.28750772,19.4774924 7.19500003,19.5700001 L6.50000003,20.2500001 C6.4588849,20.2918668 6.40359414,20.3168368 6.34500003,20.3200001 L6.34500003,20.3200001 Z"/>
    <line x1="4.64" x2="3.96" y1="17.02" y2="17.7" fill="#CCC" fill-rule="nonzero"/>
    <path fill="#000" fill-rule="nonzero" d="M3.96000002,17.9400001 C3.89791219,17.9393809 3.83859267,17.914215 3.79500002,17.8700001 C3.74881007,17.8265349 3.72261902,17.7659251 3.72261902,17.7025001 C3.72261902,17.6390751 3.74881007,17.5784652 3.79500002,17.5350001 L4.50000002,16.8550001 C4.54417467,16.8101097 4.60451952,16.7848295 4.66750002,16.7848295 C4.73048052,16.7848295 4.79082537,16.8101097 4.83500002,16.8550001 C4.92582275,16.9481993 4.92582275,17.0968008 4.83500002,17.1900001 L4.13000002,17.8700001 C4.08456831,17.9145162 4.02360486,17.9396188 3.96000002,17.9400001 L3.96000002,17.9400001 Z"/>
  </g>
</svg>
