<svg xmlns="http://www.w3.org/2000/svg" width="24" height="24" viewBox="0 0 24 24">
  <g fill="none" fill-rule="evenodd">
    <rect width="24" height="24"/>
    <g fill-rule="nonzero" transform="translate(2.5 2.5)">
      <path fill="#CCC" d="M0.670000003,5.00000002 L0.670000003,9.62500004 C0.670316883,11.5443062 1.44984293,13.3812449 2.83000001,14.7150001 L2.83000001,14.7150001 C3.37960986,15.2394992 4.00913941,15.6732501 4.69500002,16.0000001 L9.63500004,18.3600001 L14.5850001,16.0000001 C15.2687598,15.6748081 15.8952316,15.240837 16.4400001,14.7150001 L16.4400001,14.7150001 C17.8232899,13.3784437 18.5985091,11.5334582 18.5851737,9.61000004 L18.5550001,5.00000002 C18.5495041,4.20585656 17.9041626,3.564981 17.1100001,3.565 L17.1100001,3.565 C16.2815729,3.565 15.6100001,2.89342714 15.6100001,2.065 L15.6100001,2.065 C15.6100001,1.23657288 14.9384272,0.565000002 14.1100001,0.565000002 L5.29000002,0.565000002 C4.45146521,0.566836709 3.762385,1.22729697 3.72500002,2.065 L3.72500002,2.13500001 C3.6850006,2.93400028 3.02500025,3.56100061 2.22500001,3.56000001 L2.11500001,3.56000001 C1.31889709,3.55999525 0.672754684,4.20390187 0.670000003,5.00000002 Z"/>
      <path fill="#1A1A1A" d="M9.64000004,18.6350001 L4.59000002,16.2250001 C2.04417504,15.0073037 0.422702832,12.4370564 0.420000002,9.61500004 L0.420000002,5.00000002 C0.420000002,4.06387737 1.17887735,3.30499913 2.11500001,3.30499913 L2.23000001,3.30499913 C2.90819132,3.31916262 3.47290534,2.78779785 3.50000001,2.11000001 L3.50000001,2.04000001 C3.54284115,1.06897599 4.34303185,0.304055395 5.31500002,0.304999127 L14.1200001,0.304999127 C15.083737,0.304999127 15.8650001,1.08626312 15.8650001,2.05000001 C15.8650001,2.73759452 16.4224056,3.29500001 17.1100001,3.29500001 C17.5608687,3.29632415 17.9927447,3.47670192 18.3106193,3.79645187 C18.6284939,4.11620182 18.8063281,4.54913139 18.8050001,5.00000002 L18.8351572,9.62500004 C18.8534978,12.4473669 17.2378745,15.025738 14.6900001,16.2400001 L9.64000004,18.6350001 Z M2.14000001,3.79500002 C1.81701515,3.78822961 1.50504972,3.91251685 1.27520616,4.13953446 C1.0453626,4.36655208 0.917225655,4.67695612 0.919955872,5.00000002 L0.919955872,9.62500004 C0.92094618,12.2550773 2.43197812,14.6509478 4.80500002,15.7850001 L9.64000004,18.0900001 L14.5000001,15.7700001 C16.8750994,14.6394064 18.3802934,12.2353854 18.3600001,9.60500004 L18.3050001,5.00000002 C18.2968182,4.34506631 17.7649794,3.81767802 17.1100001,3.81500002 C16.6437111,3.81503064 16.1968055,3.62844007 15.8689735,3.29685066 C15.5411415,2.96526125 15.3596558,2.51625832 15.3650001,2.05000001 C15.3622597,1.3635438 14.8064563,0.80774038 14.1200001,0.805000003 L5.29000002,0.805000003 C4.59542072,0.820078963 4.03141558,1.3709677 4.00000002,2.06500001 L4.00000002,2.13000001 C3.95721128,3.06235933 3.18834014,3.79598135 2.25500001,3.79500002 L2.14000001,3.79500002 Z"/>
    </g>
    <path fill="#000" fill-rule="nonzero" d="M13.1950001 8.45500004C13.0569289 8.45500004 12.9450001 8.34307122 12.9450001 8.20500003L12.9450001 6.81000003C12.9450001 6.67192884 13.0569289 6.56000003 13.1950001 6.56000003 13.3319543 6.56266008 13.44234 6.6730458 13.4450001 6.81000003L13.4450001 8.20500003C13.4450001 8.34307122 13.3330712 8.45500004 13.1950001 8.45500004zM11.135 8.45500004C10.9969289 8.45500004 10.885 8.34307122 10.885 8.20500003L10.885 6.81000003C10.885 6.67192884 10.9969289 6.56000003 11.135 6.56000003 11.2719543 6.56266008 11.38234 6.6730458 11.385 6.81000003L11.385 8.20500003C11.385 8.34307122 11.2730712 8.45500004 11.135 8.45500004zM10.575 8.45500003L9.18000004 8.45500003C9.04192885 8.45500003 8.93000004 8.34307122 8.93000004 8.20500003 8.93000004 8.06692885 9.04192885 7.95500003 9.18000004 7.95500003L10.575 7.95500003C10.7130712 7.95500003 10.825 8.06692885 10.825 8.20500003 10.825 8.34307122 10.7130712 8.45500003 10.575 8.45500003zM10.575 14.9600001L9.18000004 14.9600001C9.04192885 14.9600001 8.93000004 14.8480712 8.93000004 14.7100001 8.93000004 14.5719289 9.04192885 14.4600001 9.18000004 14.4600001L10.575 14.4600001C10.7130712 14.4600001 10.825 14.5719289 10.825 14.7100001 10.825 14.8480712 10.7130712 14.9600001 10.575 14.9600001zM13.1950001 16.3550001C13.0569289 16.3550001 12.9450001 16.2430713 12.9450001 16.1050001L12.9450001 14.7100001C12.9450001 14.5719289 13.0569289 14.4600001 13.1950001 14.4600001 13.3330712 14.4600001 13.4450001 14.5719289 13.4450001 14.7100001L13.4450001 16.1050001C13.44234 16.2419543 13.3319543 16.35234 13.1950001 16.3550001zM11.135 16.3550001C10.9969289 16.3550001 10.885 16.2430713 10.885 16.1050001L10.885 14.7100001C10.885 14.5719289 10.9969289 14.4600001 11.135 14.4600001 11.2730712 14.4600001 11.385 14.5719289 11.385 14.7100001L11.385 16.1050001C11.38234 16.2419543 11.2719543 16.35234 11.135 16.3550001z"/>
    <path fill="#000" fill-rule="nonzero" d="M13.4500001,14.9600001 L10.175,14.9600001 C10.0369289,14.9600001 9.92500004,14.8480712 9.92500004,14.7100001 L9.92500004,11.455 C9.92500004,11.3169289 10.0369289,11.205 10.175,11.205 L13.4500001,11.205 C14.4492969,11.2565863 15.2330787,12.0818726 15.2330787,13.0825001 C15.2330787,14.0831276 14.4492969,14.9084138 13.4500001,14.9600001 Z M10.45,14.4600001 L13.45,14.4600001 C14.178585,14.4160847 14.7469715,13.8124073 14.7469715,13.0825001 C14.7469715,12.3525928 14.178585,11.7489154 13.45,11.705 L10.45,11.705 L10.45,14.4600001 Z"/>
    <path fill="#000" fill-rule="nonzero" d="M13.4500001,11.705 L10.175,11.705 C10.0369289,11.705 9.92500004,11.5930712 9.92500004,11.455 L9.92500004,8.20500003 C9.92500004,8.06692885 10.0369289,7.95500003 10.175,7.95500003 L13.4500001,7.95500003 C14.485534,7.95500003 15.3250001,8.79446613 15.3250001,9.83000004 C15.3250001,10.865534 14.485534,11.705 13.4500001,11.705 Z M10.45,11.205 L13.45,11.205 C14.2093916,11.205 14.825,10.5893916 14.825,9.83000004 C14.825,9.07060852 14.2093916,8.45500004 13.45,8.45500004 L10.45,8.45500004 L10.45,11.205 Z"/>
  </g>
</svg>
