<svg xmlns="http://www.w3.org/2000/svg" width="24" height="24" viewBox="0 0 24 24">
  <g fill="none" fill-rule="evenodd">
    <rect width="24" height="24"/>
    <path fill="#000" fill-rule="nonzero" d="M17.8700001,9.96000004 L17.8200001,9.96000004 C17.697847,9.93529824 17.6125425,9.82440236 17.6200001,9.70000004 C17.6200001,9.63000004 17.6200001,9.56000004 17.6200001,9.49500004 C17.6243734,7.87894567 16.67105,6.41378753 15.1917817,5.76308303 C13.7125135,5.11237853 11.9882912,5.39973062 10.8,6.49500003 C10.7041118,6.58392932 10.5558883,6.58392932 10.46,6.49500003 L8.71000004,4.81500002 C8.65618743,4.76754176 8.62535949,4.69925017 8.62535949,4.62750002 C8.62535949,4.55574987 8.65618743,4.48745828 8.71000004,4.44000002 C10.3760856,2.80271753 12.8719617,2.3465226 15.0094978,3.28858107 C17.147034,4.23063954 18.4943211,6.38059968 18.4100001,8.71500004 L18.3700001,8.96500004 L18.0950001,9.79000004 C18.0610076,9.88675508 17.9723609,9.95373255 17.8700001,9.96000004 Z M13.5550001,4.90500002 C15.5529118,4.90949363 17.317375,6.20855939 17.9150001,8.11500003 C17.7677181,6.13684779 16.5099089,4.41395466 14.6706561,3.6710366 C12.8314032,2.92811854 10.7298533,3.29408647 9.25000004,4.61500002 L10.645,5.93500002 C11.4663802,5.26490654 12.4949655,4.90083682 13.5550001,4.90500002 L13.5550001,4.90500002 Z"/>
    <path fill="#000" fill-rule="nonzero" d="M13.2000001,11.1900015 C12.2424028,11.1910476 11.3766279,10.6204232 11,9.74000004 C10.9524105,9.61441022 11.0125534,9.47365978 11.1362058,9.4212419 C11.2598583,9.36882401 11.4028324,9.42347049 11.46,9.54500004 C11.7630156,10.2413432 12.4533877,10.6886947 13.212762,10.6807655 C13.9721363,10.6728362 14.6530165,10.2111661 14.9414253,9.5086474 C15.2298341,8.80612868 15.0697526,7.99921415 14.5350001,7.46000003 C14.4383502,7.3633502 14.4383502,7.20664987 14.5350001,7.11000004 C14.6316499,7.01335021 14.7883502,7.01335021 14.8850001,7.11000003 C15.3365222,7.55599767 15.5889199,8.16535779 15.585045,8.80000004 C15.5822623,10.1168752 14.5168666,11.1845044 13.2000001,11.1900015 Z"/>
    <path fill="#CCC" fill-rule="nonzero" d="M17.0400001,18.9000001 L16.3850001,18.0000001 C15.8091837,17.2317794 15.6501098,16.2286779 15.9600001,15.3200001 L18.1100001,8.88000004 L18.1500001,8.66500004 C18.2158423,6.44433848 16.9295982,4.40520663 14.8971377,3.50811301 C12.8646771,2.61101939 10.491317,3.03486404 8.89500004,4.58000002 L8.86000004,4.61000002 L10.62,6.28000003 L7.75500003,9.14500004 C7.37859849,9.51915479 7.34620325,10.1173869 7.68000003,10.53 L8.05500003,11 C8.31415534,11.3164981 8.73994459,11.4432447 9.13000004,11.32 L11.81,10.425 L12.4850001,10.81 L8.80500004,15.1200001 C8.05624676,16.0140786 7.64720621,17.1438096 7.65000003,18.3100001 L7.65000003,18.9000001"/>
    <path fill="#000" fill-rule="nonzero" d="M17.0400001,19.1500001 C16.961494,19.1492323 16.887718,19.1123443 16.8400001,19.0500001 L16.1850001,18.1700001 C15.5619655,17.3350343 15.3881913,16.2475439 15.7200001,15.2600001 L17.8750001,8.82500004 L17.9050001,8.64000004 C17.9507384,6.56560348 16.7612268,4.66181144 14.8767932,3.79340886 C12.9923596,2.92500627 10.7722758,3.25755619 9.22500004,4.64000002 L10.795,6.14000003 C10.8908917,6.23890686 10.8908917,6.39609319 10.795,6.49500003 L7.92500003,9.36500004 C7.64035814,9.64921603 7.61660938,10.1026014 7.87000003,10.415 L8.24500003,10.885 C8.43708397,11.1250204 8.75895268,11.2189821 9.05000004,11.12 L11.73,10.225 C11.7938853,10.1977655 11.8661148,10.1977655 11.93,10.225 L12.6050001,10.615 C12.670558,10.6509261 12.7151118,10.7159004 12.7250001,10.79 C12.7380239,10.8631106 12.7178707,10.9382271 12.6700001,10.995 L9.00000004,15.2850001 C8.28895199,16.1227834 7.89905055,17.186151 7.90000003,18.2850001 L7.90000003,18.9000001 C7.90000003,19.0380713 7.78807122,19.1500001 7.65000003,19.1500001 C7.51192884,19.1500001 7.40000003,19.0380713 7.40000003,18.9000001 L7.40000003,18.3100001 C7.39650065,17.0848583 7.82693884,15.8980534 8.61500004,14.9600001 L12.1150001,10.88 L11.8,10.695 L9.22500004,11.555 C8.73408805,11.715662 8.19495749,11.5565091 7.87000003,11.155 L7.50000003,10.685 C7.09115616,10.172284 7.13202892,9.43442314 7.59500003,8.97000004 L10.285,6.28500003 L8.70500004,4.78500002 C8.65408636,4.73523514 8.62680542,4.66612344 8.63000004,4.59500002 C8.63140123,4.52311478 8.66430784,4.45547342 8.72000004,4.41000002 C9.78816681,3.36341213 11.2245661,2.77807943 12.7200001,2.7799953 C14.2658151,2.78572599 15.743136,3.41849923 16.8138264,4.53348759 C17.8845168,5.64847594 18.4569122,7.15022237 18.4000001,8.69500004 L18.3550001,8.94500004 L16.1950001,15.4450001 C15.9146695,16.2761498 16.0604537,17.1919736 16.5850001,17.8950001 L17.2400001,18.7750001 C17.2797825,18.8280434 17.2968643,18.8947177 17.2874874,18.9603554 C17.2781106,19.0259932 17.2430434,19.0852176 17.1900001,19.1250001 C17.1441527,19.1497278 17.091389,19.1585217 17.0400001,19.1500001 L17.0400001,19.1500001 Z"/>
    <path fill="#000" fill-rule="nonzero" d="M17.8450001,9.96000004 L17.8450001,9.96000004 C17.7061024,9.95193223 17.5993098,9.8340154 17.6050001,9.69500004 C17.6050001,9.62000004 17.6050001,9.54500004 17.6050001,9.47000004 C17.6050068,7.21781631 15.782177,5.39051332 13.5300001,5.38500002 C12.4700768,5.38320177 11.4519003,5.79801442 10.695,6.54000003 C10.5955888,6.63664986 10.4366499,6.63441128 10.34,6.53500002 C10.2433502,6.43558877 10.2455888,6.27664986 10.345,6.18000003 C11.6632667,4.89491293 13.6239157,4.52631606 15.318872,5.24492513 C17.0138284,5.96353419 18.1120912,7.62901507 18.1050342,9.47000004 C18.1050342,9.55500004 18.1050342,9.64000004 18.1050342,9.72500004 C18.0969365,9.86113681 17.9812565,9.96569366 17.8450001,9.96000004 Z"/>
    <rect width="12.18" height="2.14" x="5.995" y="18.9" fill="#CCC" fill-rule="nonzero" rx="1.07"/>
    <path fill="#000" fill-rule="nonzero" d="M17.1050001,21.2900001 L7.06500003,21.2900001 C6.33598416,21.2900001 5.74500002,20.699016 5.74500002,19.9700001 C5.74500002,19.2409842 6.33598416,18.6500001 7.06500003,18.6500001 L17.1050001,18.6500001 C17.8340159,18.6500001 18.4250001,19.2409842 18.4250001,19.9700001 C18.4250001,20.699016 17.8340159,21.2900001 17.1050001,21.2900001 Z M7.06500003,19.1500001 C6.61212655,19.1500001 6.24500007,19.5171266 6.24500007,19.9700001 C6.24500007,20.4228736 6.61212655,20.7900001 7.06500003,20.7900001 L17.1050001,20.7900001 C17.3979579,20.7900001 17.668662,20.633709 17.8151409,20.3800001 C17.9616198,20.1262912 17.9616198,19.813709 17.8151409,19.5600001 C17.668662,19.3062912 17.3979579,19.1500001 17.1050001,19.1500001 L7.06500003,19.1500001 Z"/>
  </g>
</svg>
