<svg xmlns="http://www.w3.org/2000/svg" width="24" height="24" viewBox="0 0 24 24">
  <g fill="none" fill-rule="evenodd">
    <rect width="24" height="24"/>
    <path fill="#CCC" fill-rule="nonzero" d="M12.0850001,20.7850027 L4.45000002,20.7850027 C4.05572504,20.7858716 3.6929173,20.5698448 3.50580416,20.2227969 C3.31869103,19.8757491 3.33759456,19.4539201 3.55500001,19.1250001 L7.27000003,13.5350001 L11.195,7.63000003 C11.3919317,7.33035084 11.7264311,7.14991455 12.0850001,7.14991455 C12.443569,7.14991455 12.7780684,7.33035084 12.9750001,7.63000003 L16.9000001,13.5350001 L20.6150001,19.1250001 C20.8324055,19.4539201 20.8513091,19.8757491 20.6641959,20.2227969 C20.4770828,20.5698448 20.1142751,20.7858716 19.7200001,20.7850027 L12.0850001,20.7850027 Z"/>
    <path fill="#000" fill-rule="nonzero" d="M19.7200001,21.0350001 L4.45000002,21.0350001 C3.96859736,21.0315131 3.52726953,20.7662214 3.29834836,20.3427172 C3.06942719,19.919213 3.08922077,19.4046664 3.35000001,19.0000001 L11,7.50000003 C11.2445624,7.13130838 11.6575701,6.90965748 12.1000001,6.90965748 C12.54243,6.90965748 12.9554377,7.13130838 13.2000001,7.50000003 L20.8200001,19.0000001 C21.0889806,19.4052294 21.113326,19.9255446 20.883359,20.3541195 C20.6533919,20.7826944 20.2063758,21.0500001 19.7200001,21.0500001 L19.7200001,21.0350001 Z M12.0850001,7.39998151 C11.8096707,7.39814725 11.5520196,7.5354358 11.4,7.76500003 L3.76500002,19.2650001 C3.59508473,19.5171526 3.57966358,19.8429244 3.72500002,20.1100001 C3.86717695,20.3776933 4.14691437,20.5436065 4.45000002,20.5400577 L19.7200001,20.5400577 C20.0230857,20.5436065 20.3028231,20.3776933 20.4450001,20.1100001 C20.5903365,19.8429244 20.5749154,19.5171526 20.4050001,19.2650001 L12.7700001,7.76500003 C12.6179805,7.5354358 12.3603294,7.39814725 12.0850001,7.39998151 Z"/>
    <path fill="#000" fill-rule="nonzero" d="M14.1500001 13.2500001C13.9394097 13.2425193 13.7401484 13.152762 13.5950001 13.0000001L12.2850001 11.69C12.1723584 11.5801205 11.9926417 11.5801205 11.88 11.69L10.625 12.9450001C10.4464475 13.1245464 10.1922511 13.2069389 9.94232223 13.1662758 9.69239338 13.1256128 9.47742636 12.9668882 9.36500004 12.7400001L8.63000004 11.24C8.56826896 11.1170867 8.69272942 11.077394 8.81530767 11.015 8.93822106 10.953269 9.01260613 10.8924218 9.07500004 11.015L9.81500004 12.5150001C9.85583793 12.5975678 9.93406454 12.6553065 10.025 12.6700001 10.1148151 12.6847379 10.2061896 12.6549014 10.27 12.5900001L11.53 11.33C11.8376693 11.026274 12.3323308 11.026274 12.6400001 11.33L13.9500001 12.6400001C14.0107038 12.7032313 14.0983249 12.7330598 14.1850001 12.7200001 14.2713625 12.7115484 14.348926 12.6635329 14.3950001 12.5900001L15.2500001 11.21C15.2973378 11.1340811 15.3815819 11.0891835 15.4709984 11.0922196 15.560415 11.0952558 15.6329212 11.2510449 15.6750001 11.33 15.7170789 11.4089552 15.7223378 11.3990811 15.6750001 11.475L14.8200001 12.8500001C14.6933285 13.0546288 14.4792895 13.1893257 14.2400001 13.2150001L14.1500001 13.2500001zM12.0850001 7.38000003C12.0231386 7.38134516 11.9633444 7.35770822 11.9191235 7.3144282 11.8749027 7.27114818 11.85 7.21187609 11.85 7.15000003L11.85 2.84000001C11.85 2.7102131 11.9552131 2.60499787 12.0850001 2.60499787L16.1550001 2.60499787C16.236193 2.6046541 16.3118127 2.64624493 16.3550001 2.71500001 16.3923604 2.78711517 16.3923604 2.87288486 16.3550001 2.94500001L15.6850001 4.28500002 16.3650001 5.64500002C16.4023342 5.7153539 16.4023342 5.79964615 16.3650001 5.87000002 16.3218127 5.9387551 16.246193 5.98034594 16.1650001 5.98000002L16.1650001 5.98000002 12.3300001 5.95500002 12.3300001 7.15000003C12.3301357 7.21368995 12.3038555 7.27458475 12.2574208 7.31817651 12.2109861 7.36176828 12.1485545 7.38415387 12.0850001 7.38000003L12.0850001 7.38000003zM12.3200001 5.50000002L15.7750001 5.50000002 15.2150001 4.39000002C15.18275 4.32371455 15.18275 4.24628548 15.2150001 4.18000002L15.7700001 3.07000001 12.3200001 3.07000001 12.3200001 5.50000002z"/>
  </g>
</svg>
