<svg xmlns="http://www.w3.org/2000/svg" width="24" height="24" viewBox="0 0 24 24">
  <g fill="none" fill-rule="evenodd">
    <rect width="24" height="24"/>
    <rect width="18.03" height="13.745" x="3.055" y="6.82" fill="#CCC" fill-rule="nonzero" rx="1"/>
    <path fill="#000" fill-rule="nonzero" d="M20.0650001,20.7950001 L4.06500002,20.7950001 C3.73261128,20.7950001 3.4139088,20.6626206 3.17934406,20.4271176 C2.94477933,20.1916146 2.81367046,19.8723862 2.81499,19.5400001 L2.81499,7.83500003 C2.81499,7.14464409 3.37464408,6.58500003 4.06500002,6.58500003 L20.0650001,6.58500003 C20.7561695,6.58500003 21.3172464,7.14383609 21.3200001,7.83500003 L21.3200001,19.5400001 C21.3200001,19.8728468 21.1877773,20.1920609 20.9524191,20.4274191 C20.7170609,20.6627773 20.3978468,20.7950001 20.0650001,20.7950001 Z M4.07500002,7.05000003 C3.86680507,7.05000003 3.66713725,7.13270515 3.51992119,7.27992121 C3.37270513,7.42713726 3.29000001,7.62680509 3.29000001,7.83500003 L3.29000001,19.5400001 C3.29000001,19.9735436 3.64145649,20.3250001 4.07500002,20.3250001 L20.0750001,20.3250001 C20.5085436,20.3250001 20.8600001,19.9735436 20.8600001,19.5400001 L20.8600001,7.83500003 C20.8600001,7.4014565 20.5085436,7.05000003 20.0750001,7.05000003 L4.07500002,7.05000003 Z"/>
    <path fill="#000" fill-rule="nonzero" d="M16.2050001,14.2350001 L7.93500003,14.2350001 C7.1486403,14.2408247 6.41578627,13.8374709 6.00000002,13.1700001 L2.86601126,8.28000003 C2.82224622,8.20944008 2.81944895,8.12089163 2.85867315,8.04771002 C2.89789734,7.97452841 2.97318392,7.92783167 3.05617315,7.92521002 C3.13916238,7.92258836 3.21724622,7.96444008 3.26101126,8.03500003 L6.41000003,12.9250001 C6.73348891,13.443716 7.2987313,13.7621359 7.91000003,13.7700001 L16.2050001,13.7700001 C16.826215,13.7695543 17.4037999,13.4505613 17.7350001,12.9250001 L20.888191,8.00021002 C20.9558458,7.89113378 21.0991147,7.85755513 21.208191,7.92521002 C21.3172672,7.9928649 21.3508459,8.13613378 21.283191,8.24521002 L18.1300001,13.1700001 C17.7174648,13.8358831 16.9883054,14.2392882 16.2050001,14.2350001 Z"/>
    <rect width="3.49" height="3.49" x="10.325" y="12.255" fill="#FFF" fill-rule="nonzero" rx="1.745"/>
    <path fill="#000" fill-rule="nonzero" d="M12.7650001 16.0000001L11.375 16.0000001C10.6672622 16.0000001 10.0927539 15.4277326 10.09 14.7200001L10.09 13.3050001C10.0927539 12.5972676 10.6672622 12.0250001 11.375 12.0250001L12.7650001 12.0250001C13.4727379 12.0250001 14.0472462 12.5972676 14.0500001 13.3050001L14.0500001 14.7000001C14.0540088 15.0433948 13.9203971 15.3741063 13.678977 15.6183445 13.4375569 15.8625828 13.1084182 16.0000001 12.7650001 16.0000001L12.7650001 16.0000001zM11.375 12.5000001C10.924888 12.5000001 10.56 12.864888 10.56 13.3150001L10.56 14.7000001C10.5681777 15.1442435 10.9306814 15.5000753 11.375 15.5000001L12.7650001 15.5000001C13.2151121 15.5000001 13.5800001 15.1351121 13.5800001 14.6850001L13.5800001 13.3050001C13.5745248 12.8587981 13.2112356 12.4999665 12.7650001 12.5000001L11.375 12.5000001zM16.2900001 6.81500003C16.1602132 6.81500003 16.0550001 6.70978694 16.0550001 6.58000003 16.0550024 4.974802 14.7551957 3.67275809 13.1500001 3.67000002L11 3.67000002C9.39480438 3.67275809 8.09499766 4.974802 8.09500003 6.58000003 8.09500003 6.70978694 7.98978695 6.81500003 7.86000003 6.81500003 7.79812397 6.81500003 7.73885188 6.79009743 7.69557186 6.74587654 7.65229184 6.70165564 7.6286549 6.64186147 7.62994561 6.58000003 7.62994561 4.71798987 9.13799193 3.20775855 11 3.20500001L13.1500001 3.20500001C15.0128193 3.20775363 16.5222465 4.71718077 16.5250001 6.58000003 16.5250001 6.70978694 16.419787 6.81500003 16.2900001 6.81500003L16.2900001 6.81500003z"/>
  </g>
</svg>
