<svg xmlns="http://www.w3.org/2000/svg" width="24" height="24" viewBox="0 0 24 24">
  <g fill="none" fill-rule="evenodd">
    <rect width="24" height="24"/>
    <g fill-rule="nonzero" transform="translate(2.5 2.5)">
      <circle cx="9.5" cy="9.5" r="9.085" fill="#CCC"/>
      <path fill="#000" d="M9.50000004,18.8350001 C4.34442188,18.8350001 0.165000001,14.6555782 0.165000001,9.50000004 C0.165000001,4.34442188 4.34442188,0.165000001 9.50000004,0.165000001 C14.6555782,0.165000001 18.8350001,4.34442188 18.8350001,9.50000004 C18.8294885,14.6532935 14.6532935,18.8294885 9.50000004,18.8350001 L9.50000004,18.8350001 Z M9.50000004,0.665000003 C4.62056425,0.665000003 0.665000003,4.62056425 0.665000003,9.50000004 C0.665000003,14.3794358 4.62056425,18.3350001 9.50000004,18.3350001 C14.3794358,18.3350001 18.3350001,14.3794358 18.3350001,9.50000004 C18.3294892,4.62284877 14.3771513,0.670510913 9.50000004,0.665000003 L9.50000004,0.665000003 Z"/>
      <circle cx="9.5" cy="9.5" r="3.29" fill="#FFF"/>
      <path fill="#000" d="M9.50000004,13.0400001 C7.54491202,13.0400001 5.96000002,11.4550881 5.96000002,9.50000004 C5.96000002,7.54491202 7.54491202,5.96000002 9.50000004,5.96000002 C11.4550881,5.96000002 13.0400001,7.54491202 13.0400001,9.50000004 C13.0372461,11.4539462 11.4539462,13.0372461 9.50000004,13.0400001 L9.50000004,13.0400001 Z M9.50000004,6.46000003 C7.82105439,6.46000003 6.46000003,7.82105439 6.46000003,9.50000004 C6.46000003,11.1789457 7.82105439,12.5400001 9.50000004,12.5400001 C11.1789457,12.5400001 12.5400001,11.1789457 12.5400001,9.50000004 C12.5372473,7.82219595 11.1778041,6.46275279 9.50000004,6.46000003 L9.50000004,6.46000003 Z"/>
      <path fill="#000" d="M9.50000004 6.46000003C9.36192885 6.46000003 9.25000004 6.34807121 9.25000004 6.21000003L9.25000004.415000002C9.25000004.276928814 9.36192885.165000001 9.50000004.165000001 9.63807123.165000001 9.75000004.276928814 9.75000004.415000002L9.75000004 6.21000003C9.75000004 6.34807121 9.63807123 6.46000003 9.50000004 6.46000003zM9.50000001 18.5000103C9.36192885 18.5000103 9.25000004 18.3880713 9.25000004 18.2500001L9.24999999 12.9963074C9.24999999 12.8582362 9.3619288 12.7463074 9.50000001 12.7463074 9.63807118 12.7463074 9.74999999 12.8582362 9.74999999 12.9963074L9.75000004 18.2700001C9.73955078 18.4002056 9.63062347 18.5004187 9.50000001 18.5000103z"/>
      <line x1="5.84" x2=".575" y1="9.345" y2="9.345" fill="#CCC"/>
      <path fill="#000" d="M6.06458333,9.59500004 L0.585416668,9.59500004 C0.441592514,9.59500004 0.325000001,9.48307123 0.325000001,9.34500004 C0.325000001,9.20692885 0.441592514,9.09500004 0.585416668,9.09500004 L6.06458333,9.09500004 C6.20840749,9.09500004 6.325,9.20692885 6.325,9.34500004 C6.325,9.48307123 6.20840749,9.59500004 6.06458333,9.59500004 Z"/>
      <line x1="18.425" x2="12.79" y1="9.345" y2="9.345" fill="#CCC"/>
      <path fill="#000" d="M18.4250001,9.59500004 L12.7900001,9.59500004 C12.6519289,9.59500004 12.5400001,9.48307123 12.5400001,9.34500004 C12.5400001,9.20692885 12.6519289,9.09500004 12.7900001,9.09500004 L18.4250001,9.09500004 C18.5630713,9.09500004 18.6750001,9.20692885 18.6750001,9.34500004 C18.6750001,9.48307123 18.5630713,9.59500004 18.4250001,9.59500004 Z"/>
    </g>
  </g>
</svg>
