<svg xmlns="http://www.w3.org/2000/svg" width="24" height="24" viewBox="0 0 24 24">
  <g fill="none" fill-rule="evenodd">
    <rect width="24" height="24"/>
    <circle cx="12.085" cy="13.445" r="7.6" fill="#CCC" fill-rule="nonzero"/>
    <path fill="#000" fill-rule="nonzero" d="M12.0850001,21.2900001 C8.90951655,21.2900001 6.04680587,19.3768669 4.83206856,16.442909 C3.61733126,13.5089512 4.28986087,10.1321342 6.535982,7.88744375 C8.78210313,5.64275327 12.1593479,4.97237532 15.0925312,6.18898174 C18.0257145,7.40558815 19.9370227,10.2695172 19.9350017,13.4450001 C19.9294856,17.7773397 16.4173423,21.2872459 12.0850001,21.2900001 Z M12.0850001,6.09500003 C8.02570712,6.09500003 4.73500002,9.38570713 4.73500002,13.4450001 C4.73500002,17.504293 8.02570712,20.7950001 12.0850001,20.7950001 C16.144293,20.7950001 19.4350001,17.504293 19.4350001,13.4450001 C19.4322422,9.38685001 16.1431501,6.09775786 12.0850001,6.09500003 Z"/>
    <path fill="#000" fill-rule="nonzero" d="M12.0850001,19.860002 C9.48744353,19.8620223 7.14462838,18.2985812 6.14965216,15.8991383 C5.15467594,13.4996953 5.70362605,10.7371268 7.54037644,8.90037645 C9.37712683,7.06362606 12.1396953,6.51467594 14.5391383,7.50965216 C16.9385812,8.50462839 18.5020223,10.8474435 18.500002,13.4450001 C18.4972428,16.986764 15.626764,19.8572428 12.0850001,19.860002 Z M12.0850001,7.5249979 C9.69012958,7.52297734 7.52994869,8.9640559 6.61206956,11.1760474 C5.69419042,13.388039 6.19944558,15.9351562 7.89215975,17.6293012 C9.58487392,19.3234463 12.1315633,19.8308534 14.3443296,18.9148436 C16.5570959,17.9988339 18.0000001,15.8398714 18.0000001,13.4450001 C17.9972482,10.1785663 15.3514303,7.53051184 12.0850001,7.5249979 Z"/>
    <path fill="#000" fill-rule="nonzero" d="M15.8450001 14.0750001L12.0850001 14.0750001C11.9469289 14.0750001 11.835 13.9630712 11.835 13.8250001L11.835 10C11.835 9.86192885 11.9469289 9.75000004 12.0850001 9.75000004 12.2230712 9.75000004 12.335 9.86192885 12.335 10L12.335 13.5650001 15.835 13.5650001C15.9730713 13.5650001 16.0850001 13.6769289 16.0850001 13.8150001 16.0877059 13.8813183 16.0639285 13.9459905 16.0189088 13.9947619 15.973889 14.0435334 15.9113226 14.0724003 15.8450001 14.0750001zM18.0550001 8.86000004C17.9890578 8.85906077 17.9261577 8.8321036 17.8800001 8.78500004L16.8150001 7.72000003C16.7197144 7.62278915 16.7197144 7.46721091 16.8150001 7.37000003L17.8850001 6.30000003C18.2771222 5.90925856 18.9117586 5.91037785 19.3025001 6.30250003 19.6932415 6.6946222 19.6921223 7.32925857 19.3000001 7.72000003L18.2350001 8.78500004C18.1873059 8.83285991 18.1225669 8.85983452 18.0550001 8.86000004zM17.3450001 7.54500003L18.0550001 8.25500003 18.9500001 7.36500003C19.0446564 7.27111673 19.0978992 7.1433188 19.0978992 7.01000003 19.0978992 6.87668126 19.0446564 6.74888333 18.9500001 6.65500003 18.8561168 6.5603437 18.7283188 6.50710086 18.5950001 6.50710086 18.4616813 6.50710086 18.3338834 6.5603437 18.2400001 6.65500003L17.3450001 7.54500003zM6.10000003 8.85000004C6.03405771 8.84906077 5.97115764 8.8221036 5.92500002 8.77500004L4.85500002 7.70500003C4.46425856 7.31287786 4.46537785 6.67824149 4.85750002 6.28750003 5.24962219 5.89675856 5.88425856 5.89787785 6.27500003 6.29000003L7.34500003 7.36000003C7.44028575 7.45721091 7.44028575 7.61278915 7.34500003 7.71000003L6.28000003 8.77500004C6.23230588 8.82285991 6.16756682 8.84983452 6.10000003 8.85000004zM5.56500002 6.50000003C5.43137707 6.50055474 5.30353574 6.5545722 5.21000002 6.65000003 5.1153437 6.74388333 5.06210086 6.87168126 5.06210086 7.00500003 5.06210086 7.1383188 5.1153437 7.26611673 5.21000002 7.36000003L6.10000003 8.25000003 6.81500003 7.54000003 5.92000002 6.65000003C5.82646431 6.5545722 5.69862297 6.50055474 5.56500002 6.50000003zM12.7800001 6.09500003L11.44 6.09500003C11.3019289 6.09500003 11.19 5.98307121 11.19 5.84500002L11.19 4.17500002C11.19 4.03692883 11.3019289 3.92500002 11.44 3.92500002L12.7800001 3.92500002C12.9180712 3.92500002 13.0300001 4.03692883 13.0300001 4.17500002L13.0300001 5.84500002C13.0300001 5.98307121 12.9180712 6.09500003 12.7800001 6.09500003zM11.69 5.59500002L12.5300001 5.59500002 12.5300001 4.42500002 11.69 4.42500002 11.69 5.59500002z"/>
    <path fill="#000" fill-rule="nonzero" d="M13.0650001,4.42500002 L11.155,4.42500002 C10.8477516,4.42500002 10.5638424,4.26108495 10.4102182,3.99500002 C10.256594,3.72891509 10.256594,3.40108494 10.4102182,3.13500001 C10.5638424,2.86891508 10.8477516,2.70500001 11.155,2.70500001 L13.0650001,2.70500001 C13.5399649,2.70500001 13.9250001,3.09003513 13.9250001,3.56500001 C13.9250001,4.0399649 13.5399649,4.42500002 13.0650001,4.42500002 L13.0650001,4.42500002 Z M11.155,3.20500001 C10.9561775,3.20500001 10.795,3.3661775 10.795,3.56500001 C10.795,3.76382253 10.9561775,3.92500002 11.155,3.92500002 L13.0650001,3.92500002 C13.2638226,3.92500002 13.4250001,3.76382253 13.4250001,3.56500001 C13.4250001,3.3661775 13.2638226,3.20500001 13.0650001,3.20500001 L11.155,3.20500001 Z"/>
  </g>
</svg>
