<svg xmlns="http://www.w3.org/2000/svg" width="24" height="24" viewBox="0 0 24 24">
  <g fill="none" fill-rule="evenodd">
    <rect width="24" height="24"/>
    <path fill="#CCC" fill-rule="nonzero" d="M5.64500002,10.03 L18.2000001,10.03 L18.2000001,17.3550001 C18.2000001,19.2879967 16.6329967,20.8550001 14.7000001,20.8550001 L9.14500002,20.8550001 C7.21200341,20.8550001 5.64500002,19.2879967 5.64500002,17.3550001 L5.64500002,10.03 Z"/>
    <path fill="#000" fill-rule="nonzero" d="M14.7000001,21.1050001 L9.14500004,21.1050001 C7.07621252,21.0995053 5.40049484,19.4237876 5.39500002,17.3550001 L5.39500002,10.03 C5.39766008,9.89304581 5.5080458,9.78266009 5.64500002,9.78000004 L18.2000001,9.78000004 C18.3369543,9.78266009 18.44734,9.89304581 18.4500001,10.03 L18.4500001,17.3550001 C18.4445053,19.4237876 16.7687876,21.0995053 14.7000001,21.1050001 L14.7000001,21.1050001 Z M5.89500002,10.28 L5.89500002,17.3550001 C5.89775334,19.1487838 7.35121629,20.6022468 9.14500004,20.6050001 L14.7000001,20.6050001 C16.4937838,20.6022468 17.9472468,19.1487838 17.9500001,17.3550001 L17.9500001,10.28 L5.89500002,10.28 Z"/>
    <path fill="#000" fill-rule="nonzero" d="M16.4600001,10.28 C16.3219289,10.28 16.2100001,10.1680712 16.2100001,10.03 L16.2100001,7.34000003 C16.1310708,5.02904407 14.2348035,3.19643686 11.9225,3.19643686 C9.61019659,3.19643686 7.71392927,5.02904407 7.63500003,7.34000003 C7.63500003,7.47807122 7.52307122,7.59000003 7.38500003,7.59000003 C7.24692884,7.59000003 7.13500003,7.47807122 7.13500003,7.34000003 C7.21851331,4.75614444 9.33729519,2.70473769 11.9225,2.70473769 C14.5077049,2.70473769 16.6264868,4.75614444 16.7100001,7.34000003 L16.7100001,10.03 C16.7100001,10.1680712 16.5980713,10.28 16.4600001,10.28 Z"/>
    <circle cx="11.92" cy="14.365" r="1.295" fill="#FFF" fill-rule="nonzero"/>
    <path fill="#000" fill-rule="nonzero" d="M11.92,15.9100001 C11.2926293,15.9100001 10.7271293,15.5318081 10.4875146,14.9519987 C10.2479,14.3721894 10.3814304,13.7051162 10.8257646,13.2622154 C11.2700989,12.8193145 11.9375999,12.6879401 12.5166321,12.9294268 C13.0956643,13.1709136 13.4720238,13.7376325 13.4700082,14.3650001 C13.4672449,15.2190882 12.7740926,15.9100001 11.92,15.9100001 Z M11.92,13.3150001 C11.3401011,13.3150001 10.87,13.7851011 10.87,14.3650001 C10.87,14.944899 11.3401011,15.4150001 11.92,15.4150001 C12.499899,15.4150001 12.9700001,14.944899 12.9700001,14.3650001 C12.9700001,13.7851011 12.499899,13.3150001 11.92,13.3150001 Z"/>
    <path fill="#000" fill-rule="nonzero" d="M11.92,18.0700001 C11.7830458,18.06734 11.6726601,17.9569543 11.67,17.8200001 L11.6725,15.7764741 C11.6725,15.6384029 11.7844289,15.526474 11.9225,15.526474 C12.0605712,15.526474 12.1725001,15.6384029 12.1725001,15.7764741 L12.1700001,17.8200001 C12.1700001,17.9580713 12.0580712,18.0700001 11.92,18.0700001 Z"/>
  </g>
</svg>
