<svg xmlns="http://www.w3.org/2000/svg" width="24" height="24" viewBox="0 0 24 24">
  <g fill="none" fill-rule="evenodd">
    <rect width="24" height="24"/>
    <path fill="#000" fill-rule="nonzero" d="M19.1350001,11.1700001 C18.9969289,11.1700001 18.8850001,11.0580712 18.8850001,10.92 L18.8850001,7.00000003 C18.8822509,5.81372843 17.9212717,4.85274921 16.7350001,4.85000002 L5.26500002,4.85000002 C4.50560849,4.85000002 3.89000001,5.46560849 3.89000001,6.22500003 C3.88733996,6.36195425 3.77695424,6.47233997 3.64000002,6.47500003 C3.50192883,6.47500003 3.39000001,6.36307121 3.39000001,6.22500003 C3.39000001,5.18946612 4.22946611,4.35000002 5.26500002,4.35000002 L16.7350001,4.35000002 C18.1985547,4.35000002 19.3850001,5.53644544 19.3850001,7.00000003 L19.3850001,10.925 C19.3822772,11.0611147 19.271142,11.1700001 19.1350001,11.1700001 L19.1350001,11.1700001 Z"/>
    <path fill="#000" fill-rule="nonzero" d="M3.64000002,8.09500003 C3.50192883,8.09500003 3.39000001,7.98307122 3.39000001,7.84500003 L3.39000001,6.14000003 C3.39000001,6.00192884 3.50192883,5.89000002 3.64000002,5.89000002 C3.7780712,5.89000002 3.89000001,6.00192884 3.89000001,6.14000003 L3.89000001,7.84500003 C3.88733996,7.98195426 3.77695424,8.09233998 3.64000002,8.09500003 L3.64000002,8.09500003 Z"/>
    <path fill="#CCC" fill-rule="nonzero" d="M19.1350001,15.7600001 L19.1350001,16.6050001 C19.1350001,17.3476062 18.8400009,18.0597972 18.3148991,18.5848991 C17.7897972,19.1100009 17.0776062,19.4050001 16.3350001,19.4050001 L6.46500003,19.4050001 C4.9047956,19.4050001 3.64000002,18.1402045 3.64000002,16.5800001 L3.64000002,6.22000003 L3.64000002,6.22000003 C3.64000002,7.11746275 4.3675373,7.84500003 5.26500002,7.84500003 L16.3350001,7.84500003 C17.8813974,7.84500003 19.1350001,9.09860274 19.1350001,10.645 L19.1350001,11.725"/>
    <path fill="#000" fill-rule="nonzero" d="M16.3350001,19.6550001 L6.46500003,19.6550001 C4.76786599,19.6522472 3.39275287,18.2771341 3.39000001,16.5800001 L3.39000001,6.22000003 C3.39000001,6.08192884 3.50192883,5.97000002 3.64000002,5.97000002 C3.7780712,5.97000002 3.89000001,6.08192884 3.89000001,6.22000003 C3.89000001,6.97939156 4.50560849,7.59500003 5.26500002,7.59500003 L16.3350001,7.59500003 C18.018327,7.59775282 19.3822473,8.96167311 19.3850001,10.645 L19.3850001,11.725 C19.3850001,11.8630712 19.2730713,11.975 19.1350001,11.975 C18.9969289,11.975 18.8850001,11.8630712 18.8850001,11.725 L18.8850001,10.645 C18.882249,9.23781505 17.7421851,8.09775114 16.3350001,8.09500003 L5.26500002,8.09500003 C4.74364837,8.09757463 4.24502029,7.88180466 3.89000001,7.50000003 L3.89000001,16.5800001 C3.89275122,18.0009922 5.04400794,19.1522489 6.46500003,19.1550001 L16.3350001,19.1550001 C17.7433262,19.1550001 18.8850001,18.0133262 18.8850001,16.6050001 L18.8850001,15.7600001 C18.8850001,15.6219289 18.9969289,15.5100001 19.1350001,15.5100001 C19.2730713,15.5100001 19.3850001,15.6219289 19.3850001,15.7600001 L19.3850001,16.6050001 C19.3822473,18.288327 18.018327,19.6522473 16.3350001,19.6550001 Z"/>
    <path fill="#FFF" fill-rule="nonzero" d="M16.1250001,11.76 L18.5300001,11.76 C19.6345696,11.76 20.5300001,12.6554306 20.5300001,13.76 L20.5300001,13.76 C20.5300001,14.8645696 19.6345696,15.76 18.5300001,15.76 L16.1250001,15.76 C15.6693651,15.76 15.3000001,15.390635 15.3000001,14.9350001 L15.3000001,12.5850001 C15.3000001,12.1293651 15.6693651,11.76 16.1250001,11.76 Z" transform="rotate(180 17.915 13.76)"/>
    <path fill="#000" fill-rule="nonzero" d="M19.7050001,16.0000001 L17.2850001,16.0000001 C16.0740583,15.9431208 15.1215071,14.9447769 15.1215071,13.7325001 C15.1215071,12.5202232 16.0740583,11.5218794 17.2850001,11.465 L19.7050001,11.465 C20.2987062,11.465 20.7800001,11.9462939 20.7800001,12.5400001 L20.7800001,14.9250001 C20.7800001,15.5187062 20.2987062,16.0000001 19.7050001,16.0000001 L19.7050001,16.0000001 Z M17.2850001,11.9999998 C16.3453288,12.049996 15.6090413,12.8264997 15.6090413,13.7675001 C15.6090413,14.7085004 16.3453288,15.4850041 17.2850001,15.5350222 L19.7050001,15.5350222 C19.8579086,15.5363474 20.0049462,15.4761999 20.1130731,15.3680731 C20.2211999,15.2599462 20.2813474,15.1129086 20.2800222,14.9600001 L20.2800222,12.5500001 C20.2666067,12.2422398 20.0130515,11.9997088 19.7050001,11.9999998 L17.2850001,11.9999998 Z"/>
    <path fill="#000" fill-rule="nonzero" d="M17.7150001,14.6000145 C17.3610956,14.6000145 17.0420389,14.3868132 16.9066055,14.0598481 C16.7711721,13.732883 16.8460334,13.3565299 17.0962816,13.1062816 C17.3465299,12.8560334 17.722883,12.7811721 18.0498481,12.9166055 C18.3768132,13.0520388 18.5900145,13.3710956 18.5900145,13.7250001 C18.59134,13.9574727 18.4995831,14.1808117 18.3351974,14.3451974 C18.1708117,14.5095831 17.9474727,14.60134 17.7150001,14.6000145 L17.7150001,14.6000145 Z M17.7150001,13.3550001 C17.5106547,13.3550001 17.3450001,13.5206547 17.3450001,13.7250001 C17.3449818,13.9301698 17.5098485,14.0972645 17.7150001,14.1000001 C17.9209811,14.0973072 18.0873072,13.9309811 18.0900001,13.7250001 C18.0872645,13.5198485 17.9201698,13.3549818 17.7150001,13.3550001 L17.7150001,13.3550001 Z"/>
  </g>
</svg>
