<svg xmlns="http://www.w3.org/2000/svg" width="24" height="24" viewBox="0 0 24 24">
  <g fill="none" fill-rule="evenodd">
    <rect width="24" height="24"/>
    <circle cx="11.895" cy="17.09" r="1.785" fill="#CCC" fill-rule="nonzero"/>
    <path fill="#000" fill-rule="nonzero" d="M11.895 19.1250001C10.7711006 19.1250001 9.86000004 18.2138995 9.86000004 17.0900001 9.86000004 15.9661006 10.7711006 15.0550001 11.895 15.0550001 13.0188995 15.0550001 13.9300001 15.9661006 13.9300001 17.0900001 13.9272516 18.2127591 13.0177591 19.1222516 11.895 19.1250001zM11.895 15.5550001C11.047243 15.5550001 10.36 16.242243 10.36 17.0900001 10.36 17.9377572 11.047243 18.6250001 11.895 18.6250001 12.7427571 18.6250001 13.4300001 17.9377572 13.4300001 17.0900001 13.4272557 16.2433823 12.7416178 15.5577444 11.895 15.5550001zM6.70500003 14.3850001C6.64160069 14.3836166 6.58099148 14.3586598 6.53500003 14.3150001 6.48767186 14.2680584 6.46105045 14.2041594 6.46105045 14.1375001 6.46105045 14.0708407 6.48767186 14.0069417 6.53500003 13.9600001 7.93136717 12.5007772 9.85724857 11.6664097 11.8768386 11.6457056 13.8964286 11.6250015 15.8390107 12.419711 17.2650001 13.8500001 17.3616499 13.9466499 17.3616499 14.1033502 17.2650001 14.2 17.1683502 14.2966499 17.0116499 14.2966499 16.9150001 14.2000001 15.5843193 12.8699541 13.7742519 12.1315602 11.8929376 12.151314 10.0116233 12.1710678 8.2174595 12.9473061 6.91500003 14.3050001 6.86428172 14.367217 6.78425882 14.3977019 6.70500003 14.3850001L6.70500003 14.3850001z"/>
    <path fill="#000" fill-rule="nonzero" d="M18.9000001,11.815 C18.8275937,11.81436 18.7587342,11.7835545 18.7100001,11.73 C17.0120477,9.73009363 14.5228994,8.57482053 11.8994218,8.56904831 C9.27594427,8.56327608 6.78173635,9.70758469 5.07500002,11.7 C5.0160512,11.7678805 4.92536644,11.7991558 4.83710583,11.7820449 C4.74884521,11.7649339 4.67641762,11.7020363 4.64710583,11.6170449 C4.61779403,11.5320535 4.6360512,11.4378805 4.69500002,11.37 C6.49838271,9.2686836 9.13151151,8.06247648 11.9005681,8.06918112 C14.6696248,8.07594184 17.2968569,9.294939 19.0900001,11.405 C19.1370321,11.4510818 19.1635358,11.5141552 19.1635358,11.58 C19.1635358,11.6458449 19.1370321,11.7089183 19.0900001,11.755 C19.037147,11.7994368 18.9687881,11.8210238 18.9000001,11.815 L18.9000001,11.815 Z"/>
    <path fill="#000" fill-rule="nonzero" d="M20.8850001,9.18500004 C20.8125937,9.18436003 20.7437342,9.15355445 20.6950001,9.10000004 C18.4901647,6.53777006 15.2796454,5.0615995 11.899366,5.0558393 C8.51908662,5.05007909 5.30355501,6.51529927 3.09000001,9.07000004 C3.03194435,9.1378805 2.94208492,9.16963231 2.85427088,9.15329486 C2.76645685,9.13695742 2.69402926,9.07501277 2.66427088,8.99079486 C2.63451251,8.90657696 2.65194435,8.8128805 2.71000001,8.74500004 C5.01872811,6.08012556 8.37234967,4.55116262 11.8982195,4.55595107 C15.4240894,4.56076205 18.7735358,6.09884978 21.0750001,8.77000004 C21.1708917,8.86890688 21.1708917,9.0260932 21.0750001,9.12500004 C21.022147,9.16943681 20.9537881,9.19102382 20.8850001,9.18500004 L20.8850001,9.18500004 Z"/>
  </g>
</svg>
