<svg xmlns="http://www.w3.org/2000/svg" width="24" height="24" viewBox="0 0 24 24">
  <g fill="none" fill-rule="evenodd">
    <rect width="24" height="24"/>
    <circle cx="12" cy="12" r="9" fill="#CCC" fill-rule="nonzero"/>
    <path fill="#000" fill-rule="nonzero" d="M12.0000001,21.25 C6.89136609,21.25 2.75000001,17.108634 2.75000001,12.0000001 C2.75000001,6.89136609 6.89136609,2.75000001 12,2.75000001 C17.108634,2.75000001 21.25,6.89136609 21.25,12 C21.2444886,17.1063493 17.1063493,21.2444886 12.0000001,21.25 L12.0000001,21.25 Z M12.0000001,3.25000001 C7.16750847,3.25000001 3.25000001,7.16750847 3.25000001,12 C3.25000001,16.8324916 7.16750847,20.75 12,20.75 C16.8324916,20.75 20.75,16.8324916 20.75,12.0000001 C20.7444893,7.16979296 16.8302071,3.25551081 12.0000001,3.25000001 Z"/>
    <path fill="#000" fill-rule="nonzero" d="M16.3750001,7.00000003 C16.4223282,6.95305838 16.4489496,6.88915941 16.4489496,6.82250003 C16.4489496,6.75584064 16.4223282,6.69194168 16.3750001,6.64500003 C16.3296334,6.59666141 16.266293,6.5692407 16.2000001,6.5692407 C16.1337071,6.5692407 16.0703667,6.59666141 16.0250001,6.64500003 L11.955,10.71 L7.95500003,6.71000003 C7.90963337,6.66166141 7.84629299,6.6342407 7.78000003,6.6342407 C7.71370708,6.6342407 7.6503667,6.66166141 7.60500003,6.71000003 C7.55767187,6.75694168 7.53105045,6.82084064 7.53105045,6.88750003 C7.53105045,6.95415941 7.55767187,7.01805838 7.60500003,7.06500003 L11.73,11.19 L11.73,12.9250001 L9.21500004,12.9250001 C9.07692885,12.9250001 8.96500004,13.0369289 8.96500004,13.1750001 C8.96500004,13.3130712 9.07692885,13.4250001 9.21500004,13.4250001 L11.75,13.4250001 L11.75,15.1900001 L9.21500004,15.1900001 C9.07692885,15.1900001 8.96500004,15.3019289 8.96500004,15.4400001 C8.96500004,15.5780713 9.07692885,15.6900001 9.21500004,15.6900001 L11.75,15.6900001 L11.75,17.1300001 C11.75,17.2680713 11.8619289,17.3800001 12,17.3800001 C12.1380712,17.3800001 12.2500001,17.2680713 12.2500001,17.1300001 L12.2500001,15.7250001 L14.7000001,15.7250001 C14.8380712,15.7250001 14.9500001,15.6130713 14.9500001,15.4750001 C14.9500001,15.3369289 14.8380712,15.2250001 14.7000001,15.2250001 L12.2500001,15.2250001 L12.2500001,13.4600001 L14.7000001,13.4600001 C14.8380712,13.4600001 14.9500001,13.3480712 14.9500001,13.2100001 C14.9500001,13.0719289 14.8380712,12.9600001 14.7000001,12.9600001 L12.2500001,12.9600001 L12.2500001,11.14 L16.3750001,7.00000003 Z"/>
  </g>
</svg>
