<?xml version="1.0" encoding="UTF-8"?>
<svg id="Layer_6" data-name="Layer 6" xmlns="http://www.w3.org/2000/svg" viewBox="0 0 24 24">
  <defs>
    <style>
      .cls-1 {
        fill: #25314c;
      }
    </style>
  </defs>
  <path id="figma" class="cls-1" d="m17.5,12c0,1.38-1.12,2.5-2.5,2.5s-2.5-1.12-2.5-2.5,1.12-2.5,2.5-2.5,2.5,1.12,2.5,2.5Zm-8.5,3.5c-1.38,0-2.5,1.12-2.5,2.5s1.12,2.5,2.5,2.5,2.5-1.12,2.5-2.5v-2.5h-2.5ZM15,3.5h-2.5v5h2.5c1.38,0,2.5-1.12,2.5-2.5s-1.12-2.5-2.5-2.5Zm-6,0c-1.38,0-2.5,1.12-2.5,2.5s1.12,2.5,2.5,2.5h2.5V3.5h-2.5Zm0,6c-1.38,0-2.5,1.12-2.5,2.5s1.12,2.5,2.5,2.5h2.5v-5h-2.5Z"/>
</svg>