<?xml version="1.0" encoding="UTF-8"?>
<svg id="Layer_6" data-name="Layer 6" xmlns="http://www.w3.org/2000/svg" viewBox="0 0 24 24">
  <defs>
    <style>
      .cls-1 {
        fill: #25314c;
      }
    </style>
  </defs>
  <path id="medium" class="cls-1" d="m13,12c0,2.761-2.239,5-5,5s-5-2.238-5-5,2.239-5,5-5,5,2.239,5,5Zm3.107-4.811c-1.402,0-2.538,2.155-2.538,4.811s1.137,4.811,2.538,4.811,2.538-2.154,2.538-4.811-1.137-4.811-2.538-4.811Zm4,.501c-.493,0-.893,1.931-.893,4.311s.4,4.311.893,4.311.893-1.93.893-4.311-.399-4.311-.893-4.311Z"/>
</svg>