<?xml version="1.0" encoding="UTF-8"?>
<svg id="Layer_6" data-name="Layer 6" xmlns="http://www.w3.org/2000/svg" viewBox="0 0 24 24">
  <defs>
    <style>
      .cls-1 {
        fill: #25314c;
      }
    </style>
  </defs>
  <path id="Plate" class="cls-1" d="m16.25,12c0,2.343-1.906,4.25-4.25,4.25s-4.25-1.907-4.25-4.25,1.906-4.25,4.25-4.25,4.25,1.907,4.25,4.25Zm5.75,0c0,5.523-4.477,10-10,10S2,17.523,2,12,6.477,2,12,2s10,4.477,10,10Zm-4.25,0c0-3.17-2.579-5.75-5.75-5.75s-5.75,2.58-5.75,5.75,2.579,5.75,5.75,5.75,5.75-2.58,5.75-5.75Z"/>
</svg>