<svg id="Layer" xmlns="http://www.w3.org/2000/svg" viewBox="0 0 24 24"><defs><style>.cls-1{fill:#25314c;}</style></defs><path id="book-open" class="cls-1" d="M21,5.32V18.33a.5.5,0,0,1-.65.47,9.568,9.568,0,0,0-7.163.508.3.3,0,0,1-.437-.261V5.853a.314.314,0,0,1,.06-.187A3.927,3.927,0,0,1,15.52,4.08a9.235,9.235,0,0,1,5.2.783A.508.508,0,0,1,21,5.32ZM8.48,4.08a9.235,9.235,0,0,0-5.195.783A.508.508,0,0,0,3,5.32V18.33a.5.5,0,0,0,.65.47,9.566,9.566,0,0,1,7.162.508.3.3,0,0,0,.438-.261V5.853a.314.314,0,0,0-.06-.187A3.927,3.927,0,0,0,8.48,4.08Z"/></svg>