<svg xmlns="http://www.w3.org/2000/svg" width="24" height="24" viewBox="0 0 24 24">
  <g fill="none" fill-rule="evenodd">
    <path fill="#000" fill-rule="nonzero" d="M20.25,2.75000001 C19.6977153,2.75000001 19.25,3.19771526 19.25,3.75000001 L19.25,6.50000003 L15.1000001,6.50000003 C14.988891,5.8690031 14.4407046,5.40891049 13.8000001,5.40891049 C13.1592955,5.40891049 12.6111091,5.8690031 12.5000001,6.50000003 L9.00000004,6.50000003 C8.87788295,5.88149908 8.33544115,5.43568538 7.70500003,5.43568538 C7.07455891,5.43568538 6.53211712,5.88149908 6.41000003,6.50000003 L4.75000001,6.50000003 L4.75000001,3.75000001 C4.75000001,3.19771526 4.30228477,2.75000001 3.75000001,2.75000001 C3.19771526,2.75000001 2.75000001,3.19771526 2.75000001,3.75000001 L2.75000001,19.5000001 C2.75000001,20.4664984 3.5335017,21.25 4.50000002,21.25 L19.5000001,21.25 C20.4664984,21.25 21.25,20.4664984 21.25,19.5000001 L21.25,3.75000001 C21.25,3.19771526 20.8022848,2.75000001 20.25,2.75000001 Z M8.93000004,11.57 C9.05211713,12.188501 9.59455892,12.6343147 10.225,12.6343147 C10.8554412,12.6343147 11.397883,12.188501 11.52,11.57 L15.0200001,11.57 C15.1365669,12.1920169 15.6796551,12.6427837 16.3125001,12.6427837 C16.9453451,12.6427837 17.4884332,12.1920169 17.6050001,11.57 L19.25,11.57 L19.25,15.6500001 L18.3100001,15.6500001 C18.1873957,15.0247556 17.6371347,14.5753057 17.0000001,14.5800001 C16.5743479,14.5801784 16.1753187,14.7871516 15.9300001,15.1350001 C15.6272439,14.7048639 15.097291,14.4965249 14.582664,14.6053256 C14.0680371,14.7141262 13.6677554,15.119132 13.5650001,15.6350001 L9.36500004,15.6350001 C9.24288295,15.0164991 8.70044116,14.5706854 8.07000003,14.5706854 C7.43955891,14.5706854 6.89711712,15.0164991 6.77500003,15.6350001 L4.75000002,15.6350001 L4.75000002,11.57 L8.93000004,11.57 Z M9.40498458,11.32 C9.40498458,10.8671266 9.77212655,10.5 10.225,10.5 C10.6778735,10.5 11.045,10.8671266 11.045,11.32 C11.045,11.7728735 10.6778735,12.1400155 10.225,12.1400155 C10.0071142,12.1413409 9.79776404,12.055379 9.64369258,11.9013075 C9.48962113,11.7472361 9.40365917,11.5378859 9.40498458,11.32 L9.40498458,11.32 Z M15.4999846,11.32 C15.4999846,10.8671266 15.8671266,10.5 16.3200001,10.5 C16.7728736,10.5 17.1400001,10.8671266 17.1400001,11.32 C17.1400001,11.7728735 16.7728736,12.1400155 16.3200001,12.1400155 C16.1021143,12.1413409 15.8927641,12.055379 15.7386926,11.9013075 C15.5846212,11.7472361 15.4986592,11.5378859 15.4999846,11.32 L15.4999846,11.32 Z M17.8350001,15.9000001 C17.8349246,16.3509042 17.4708049,16.7171489 17.0199089,16.7198632 C16.5690128,16.7225474 16.2005344,16.3606884 16.1950605,15.9098174 C16.1895866,15.4589465 16.5491714,15.0882483 17.0000001,15.0800001 C17.2196671,15.0773333 17.431326,15.1623878 17.5880669,15.3163131 C17.7448079,15.4702383 17.8336848,15.6803208 17.8350001,15.9000001 Z M15.6950001,15.9000001 C15.6950001,16.3528736 15.3278736,16.7200001 14.8750001,16.7200001 C14.4221266,16.7200001 14.0550001,16.3528736 14.0550001,15.9000001 C14.0550001,15.4471266 14.4221266,15.0800001 14.8750001,15.0800001 C15.3267381,15.0827297 15.6922705,15.448262 15.6950001,15.9000001 L15.6950001,15.9000001 Z M8.90500004,15.9000001 C8.90500004,16.3528736 8.53787353,16.7200001 8.08500003,16.7200001 C7.63212654,16.7200001 7.26500003,16.3528736 7.26500003,15.9000001 C7.26500003,15.4471266 7.63212654,15.0800001 8.08500003,15.0800001 C8.53673806,15.0827297 8.90227043,15.448262 8.90500004,15.9000001 L8.90500004,15.9000001 Z M4.75000002,16.1500001 L6.79000003,16.1500001 C6.91211712,16.768501 7.45455891,17.2143147 8.08500003,17.2143147 C8.71544116,17.2143147 9.25788295,16.768501 9.38000004,16.1500001 L13.5800001,16.1500001 C13.6827554,16.6658681 14.0830371,17.0708739 14.597664,17.1796746 C15.112291,17.2884752 15.6422439,17.0801363 15.9450001,16.6500001 C16.1839604,16.9992477 16.5769107,17.2115526 17.0000001,17.2200001 C17.6314945,17.2175061 18.1734712,16.7696952 18.2950001,16.1500001 L19.25,16.1500001 L19.25,18.0000001 C19.25,18.2731731 19.1414825,18.5351576 18.9483201,18.7283201 C18.7551576,18.9214825 18.4931731,19.0300001 18.2200001,19.0300001 L5.78000002,19.0300001 C5.50682704,19.0300001 5.24484251,18.9214825 5.05168004,18.7283201 C4.85851757,18.5351576 4.75000002,18.2731731 4.75000002,18.0000001 L4.75000002,16.1500001 Z M13.8050001,5.91500002 C14.1379565,5.90890834 14.441531,6.10478636 14.5731911,6.41066654 C14.7048512,6.71654673 14.6384465,7.07167504 14.4051549,7.30931366 C14.1718634,7.54695228 13.8180214,7.61990133 13.5097629,7.49391019 C13.2015044,7.36791906 13.0000558,7.06801214 13.0000001,6.73500003 C13.0025722,6.28900675 13.3591303,5.92580475 13.8050001,5.91500002 Z M7.69000003,5.91500002 C8.14287353,5.91500002 8.51000004,6.28212653 8.51000004,6.73500003 C8.51000004,7.18787352 8.14287353,7.55500003 7.69000003,7.55500003 C7.23712654,7.55500003 6.87000003,7.18787352 6.87000003,6.73500003 C6.87272964,6.283262 7.23826201,5.91772963 7.69000003,5.91500002 L7.69000003,5.91500002 Z M6.39500003,7.00000003 C6.49989606,7.63776404 7.05116722,8.10577177 7.69750003,8.10577177 C8.34383285,8.10577177 8.89510401,7.63776404 9.00000004,7.00000003 L12.5000001,7.00000003 C12.6221171,7.61850098 13.1645589,8.06431468 13.7950001,8.06431468 C14.4254412,8.06431468 14.967883,7.61850098 15.0900001,7.00000003 L19.2400001,7.00000003 L19.2400001,11.085 L17.6100001,11.085 C17.4934332,10.4629832 16.9503451,10.0122164 16.3175001,10.0122164 C15.6846551,10.0122164 15.1415669,10.4629832 15.0250001,11.085 L11.5,11.085 C11.377883,10.4664991 10.8354412,10.0206854 10.205,10.0206854 C9.57455892,10.0206854 9.03211713,10.4664991 8.91000004,11.085 L4.75000002,11.085 L4.75000002,7.00000003 L6.39500003,7.00000003 Z M20.75,19.5000001 C20.75,20.190356 20.190356,20.75 19.5000001,20.75 L4.50000002,20.75 C3.80964408,20.75 3.25000001,20.190356 3.25000001,19.5000001 L3.25000001,3.75000001 C3.25000001,3.47385764 3.47385764,3.25000001 3.75000001,3.25000001 C4.02614239,3.25000001 4.25000001,3.47385764 4.25000001,3.75000001 L4.25000001,18.0000001 C4.25000001,18.4057813 4.41119598,18.7949428 4.69812664,19.0818735 C4.9850573,19.3688041 5.37421879,19.5300001 5.78000002,19.5300001 L18.2200001,19.5300001 C18.6257813,19.5300001 19.0149428,19.3688041 19.3018735,19.0818735 C19.5888041,18.7949428 19.75,18.4057813 19.75,18.0000001 L19.75,3.75000001 C19.75,3.47385764 19.9738577,3.25000001 20.25,3.25000001 C20.5261425,3.25000001 20.75,3.47385764 20.75,3.75000001 L20.75,19.5000001 Z"/>
    <rect width="24" height="24"/>
  </g>
</svg>
