<svg xmlns="http://www.w3.org/2000/svg" width="24" height="24" viewBox="0 0 24 24">
  <g fill="none" fill-rule="evenodd">
    <path fill="#000" fill-rule="nonzero" d="M20.7850001 10.41L19.5850001 10.41C19.4469289 10.41 19.3350001 10.5219289 19.3350001 10.66 19.3350001 10.7980712 19.4469289 10.91 19.5850001 10.91L20.7850001 10.91C20.9230713 10.91 21.0350001 10.7980712 21.0350001 10.66 21.0350001 10.5219289 20.9230713 10.41 20.7850001 10.41zM18.8750001 12.5650001C18.7777892 12.4697143 18.622211 12.4697143 18.5250001 12.5650001 18.4776719 12.6119417 18.4510505 12.6758407 18.4510505 12.7425001 18.4510505 12.8091594 18.4776719 12.8730584 18.5250001 12.9200001L19.3750001 13.7700001C19.4203667 13.8183387 19.4837071 13.8457594 19.5500001 13.8457594 19.616293 13.8457594 19.6796334 13.8183387 19.7250001 13.7700001 19.7723282 13.7230584 19.7989497 13.6591594 19.7989497 13.5925001 19.7989497 13.5258407 19.7723282 13.4619417 19.7250001 13.4150001L18.8750001 12.5650001zM18.7000001 8.77500004C18.766302 8.77580831 18.8298599 8.74856921 18.8750001 8.70000004L19.7250001 7.85000003C19.7723282 7.80305838 19.7989497 7.73915942 19.7989497 7.67250003 19.7989497 7.60584065 19.7723282 7.54194168 19.7250001 7.49500003 19.6277892 7.39971431 19.472211 7.39971431 19.3750001 7.49500003L18.5250001 8.34500003C18.4776719 8.39194168 18.4510505 8.45584065 18.4510505 8.52250004 18.4510505 8.58915942 18.4776719 8.65305839 18.5250001 8.70000004 18.5708366 8.74757058 18.633941 8.77461533 18.7000001 8.77500004zM17.0900001 9.08000004L17.0900001 5.03500002C17.087533 4.94676049 17.040463 4.86580012 16.9650001 4.82000002 16.8889304 4.77724083 16.7960698 4.77724083 16.7200001 4.82000002 13.9686686 6.31599742 10.886746 7.09979926 7.75500003 7.10000003 6.59247763 7.10500381 5.5582036 7.83919834 5.17000002 8.93500004L4.67000002 8.93500004C3.73111594 8.93500004 2.97000001 9.69611597 2.97000001 10.635 2.97000001 11.5738841 3.73111594 12.3350001 4.67000002 12.3350001L5.17000002 12.3350001C5.5392573 13.369547 6.48875474 14.0851103 7.58500003 14.1550001L8.86500004 18.2300001C9.0450759 18.8225353 9.59070845 19.22821 10.21 19.2300001 10.658267 19.2296841 11.0796746 19.0162361 11.3451483 18.6550339 11.610622 18.2938317 11.6885265 17.8279183 11.555 17.4000001L10.62 14.4000001C12.7565187 14.7285426 14.8202069 15.4237687 16.7200001 16.4550001 16.7568557 16.4748939 16.7981186 16.4852096 16.8400001 16.4850001 16.8842004 16.485867 16.9276767 16.4736936 16.9650001 16.4500001 17.0418862 16.405612 17.0894642 16.3237778 17.0900001 16.2350001L17.0900001 12.1900001C17.8534487 12.067161 18.4148002 11.408268 18.4148002 10.635 18.4148002 9.86173209 17.8534487 9.20283914 17.0900001 9.08000004L17.0900001 9.08000004zM5.00000002 11.835L4.66500002 11.835C4.00225832 11.835 3.46500001 11.2977417 3.46500001 10.635 3.46500001 9.97225834 4.00225832 9.43500004 4.66500002 9.43500004L5.00000002 9.43500004 5.00000002 11.835zM5.50000002 11.415L5.50000002 9.85000004C5.50107496 8.70658295 6.36316431 7.74750855 7.50000002 7.62500003L7.50000002 13.625C6.3688351 13.5031357 5.50869172 12.5526773 5.50000002 11.415L5.50000002 11.415zM11.075 17.5350001C11.1655681 17.8108004 11.1151213 18.1134813 10.94 18.3450001 10.7383082 18.6211539 10.398183 18.7600392 10.0608415 18.7039919 9.72350009 18.6479446 9.44655827 18.4065372 9.34500004 18.0800001L8.11500003 14.1750001C8.7685141 14.1872819 9.42100069 14.2323385 10.07 14.3100001L11.075 17.5350001zM16.5750001 15.8150001C13.9259029 14.4483681 10.9955597 13.7157823 8.01500003 13.6750001L8.01500003 7.59500003C11.0010189 7.55480712 13.9367392 6.8204491 16.5900001 5.45000002L16.5750001 15.8150001zM17.0750001 11.68L17.0750001 9.58500004C17.5628225 9.6975118 17.9084038 10.1318708 17.9084038 10.6325 17.9084038 11.1331292 17.5628225 11.5674883 17.0750001 11.68L17.0750001 11.68z"/>
    <rect width="24" height="24"/>
  </g>
</svg>
