<svg xmlns="http://www.w3.org/2000/svg" width="24" height="24" viewBox="0 0 24 24">
  <g fill="none" fill-rule="evenodd">
    <path fill="#000" fill-rule="nonzero" d="M15.7500001,6.39000003 C15.6119289,6.39000003 15.5,6.50192884 15.5,6.64000003 L15.5,7.29500003 C15.5,9.22799663 13.9329967,10.795 12,10.795 C10.0670034,10.795 8.50000003,9.22799663 8.50000003,7.29500003 L8.50000003,6.64000003 C8.50000003,6.50192884 8.38807122,6.39000003 8.25000003,6.39000003 C8.11192885,6.39000003 8.00000003,6.50192884 8.00000003,6.64000003 L8.00000003,7.29500003 C8.00000003,9.50413904 9.79086104,11.295 12,11.295 C14.2091391,11.295 16,9.50413904 16,7.29500003 L16,6.64000003 C16,6.50192884 15.8880713,6.39000003 15.7500001,6.39000003 Z"/>
    <path fill="#000" fill-rule="nonzero" d="M19.5000001,4.96000002 C19.378689,3.72429219 18.336634,2.78405966 17.0950001,2.78990229 L6.91500003,2.78990229 C5.66954302,2.77886586 4.62165258,3.72044858 4.50000002,4.96000002 L3.14000001,18.5550001 C3.0737637,19.2338619 3.29708726,19.9091539 3.75500658,20.414674 C4.2129259,20.9201941 4.86291524,21.208996 5.54500002,21.2100001 L18.4550001,21.2100001 C19.1370849,21.208996 19.7870742,20.9201941 20.2449935,20.414674 C20.7029128,19.9091539 20.9262364,19.2338619 20.8600001,18.5550001 L19.5000001,4.96000002 Z M19.8850001,20.0800001 C19.5219252,20.4811792 19.0060805,20.7100001 18.4650001,20.7100001 L5.54500002,20.7100001 C5.00414919,20.7100001 4.48858383,20.4809909 4.12566991,20.0799758 C3.76275598,19.6789607 3.58633855,19.1431823 3.64000002,18.6050001 L5.00000002,5.00000002 C5.09796444,4.01996211 5.92509014,3.27511593 6.91000003,3.27994429 L17.0850001,3.27994429 C18.0718211,3.27252461 18.9018601,4.0180427 19.0000001,5.00000002 L20.3650001,18.5950001 C20.4223788,19.1373855 20.2439039,19.6782736 19.8750001,20.0800001 L19.8850001,20.0800001 Z"/>
    <rect width="24" height="24"/>
  </g>
</svg>
