<svg xmlns="http://www.w3.org/2000/svg" width="24" height="24" viewBox="0 0 24 24">
  <g fill="none" fill-rule="evenodd">
    <path fill="#000" fill-rule="nonzero" d="M19.0000001,18.3500001 L19.0000001,7.07500003 C19.0000001,7.07500003 19.0000001,7.07500003 19.0000001,7.05000003 C19.0000001,7.02500003 19.0000001,7.01500003 19.0000001,7.00000003 L19.0000001,6.95500003 L18.9750001,6.92000003 L18.9350001,6.88000003 L18.9350001,6.88000003 L13.2100001,3.24500001 C12.4716494,2.77549712 11.5283507,2.77549712 10.79,3.24500001 L5.10000002,6.86500003 L5.10000002,6.86500003 L5.06000002,6.90500003 L5.03500002,6.94000003 L5.00000002,7.00000003 C5.00000002,7.00000003 5.00000002,7.03000003 5.00000002,7.05000003 C5.00000002,7.07000003 5.00000002,7.05000003 5.00000002,7.07500003 L5.00000002,18.3500001 C3.73040488,18.4990361 2.77144023,19.5717035 2.76500001,20.8500001 C2.76500001,20.9880713 2.87692882,21.1000001 3.01500001,21.1000001 L21.0000001,21.1000001 C21.1380713,21.1000001 21.2500001,20.9880713 21.2500001,20.8500001 C21.2426634,19.5666012 20.2755382,18.4920177 19.0000001,18.3500001 Z M18.5000001,18.2450001 L17.0000001,18.2450001 L17.0000001,9.61000004 L18.5000001,9.61000004 L18.5000001,18.2450001 Z M18.5,9.11000004 L5.50000002,9.11000004 L5.50000002,7.32500003 L18.5,7.32500003 L18.5,9.11000004 Z M12.75,18.2450001 L11.25,18.2450001 L11.25,9.61000004 L12.75,9.61000004 L12.75,18.2450001 Z M5.50000002,9.61000004 L7.00000002,9.61000004 L7.00000002,18.2450001 L5.50000002,18.2450001 L5.50000002,9.61000004 Z M7.50000003,9.61000004 L10.75,9.61000004 L10.75,18.3200001 L7.50000003,18.3200001 L7.50000003,9.61000004 Z M13.2650001,9.61000004 L16.5000001,9.61000004 L16.5000001,18.3200001 L13.2500001,18.3200001 L13.2650001,9.61000004 Z M11.06,3.66500002 C11.633464,3.29981302 12.3665361,3.29981302 12.9400001,3.66500002 L17.9050001,6.82500003 L6.09500003,6.82500003 L11.06,3.66500002 Z M3.26500001,20.6050001 C3.39230163,19.5940054 4.24609272,18.8319968 5.26500001,18.8200001 L18.7150001,18.8200001 C19.7339074,18.8319968 20.5876985,19.5940054 20.7150001,20.6050001 L3.26500001,20.6050001 Z"/>
    <rect width="24" height="24"/>
  </g>
</svg>
