<svg xmlns="http://www.w3.org/2000/svg" width="24" height="24" viewBox="0 0 24 24">
  <g fill="none" fill-rule="evenodd">
    <path fill="#1A1A1A" fill-rule="nonzero" d="M12.2600001,9.20000004 L11.03,9.20000004 C10.8919289,9.20000004 10.78,9.31192885 10.78,9.45000004 C10.78,9.58807123 10.8919289,9.70000004 11.03,9.70000004 L11.75,9.70000004 L11.75,10.05 C11.75,10.1880712 11.8619289,10.3 12,10.3 C12.1380712,10.3 12.2500001,10.1880712 12.2500001,10.05 L12.2500001,9.70000004 L12.2500001,9.70000004 C12.7547093,9.66359951 13.1455828,9.24352018 13.1455828,8.73750004 C13.1455828,8.23147989 12.7547093,7.81140056 12.2500001,7.77500003 L11.75,7.77500003 C11.5131109,7.75033621 11.3331534,7.55066969 11.3331534,7.31250003 C11.3331534,7.07433037 11.5131109,6.87466385 11.75,6.85000003 L12.9800001,6.85000003 C13.1180712,6.85000003 13.2300001,6.73807122 13.2300001,6.60000003 C13.2300001,6.46192884 13.1180712,6.35000003 12.9800001,6.35000003 L12.2500001,6.35000003 L12.2500001,6.00000002 C12.2500001,5.86192884 12.1380712,5.75000002 12,5.75000002 C11.8619289,5.75000002 11.75,5.86192884 11.75,6.00000002 L11.75,6.35000003 L11.75,6.35000003 C11.2452908,6.38640056 10.8544173,6.80647989 10.8544173,7.31250003 C10.8544173,7.81852018 11.2452908,8.23859951 11.75,8.27500003 L12.2500001,8.27500003 C12.4868892,8.29966386 12.6668467,8.49933038 12.6668467,8.73750004 C12.6668467,8.9756697 12.4868892,9.17533621 12.2500001,9.20000004 L12.2600001,9.20000004 Z"/>
    <path fill="#1A1A1A" fill-rule="nonzero" d="M12,12.19 C14.2091391,12.19 16,10.399139 16,8.19000002 C16,5.98086103 14.2091391,4.19000002 12,4.19000002 C9.79086104,4.19000002 8.00000003,5.98086103 8.00000003,8.19000002 C8.01633448,10.3923376 9.79766248,12.1736656 12,12.19 L12,12.19 Z M12,4.63499646 C13.4306821,4.63297785 14.721521,5.49351092 15.2699538,6.81490283 C15.8183867,8.13629475 15.516265,9.65797301 14.504619,10.669619 C13.492973,11.681265 11.9712948,11.9833867 10.6499028,11.4349538 C9.32851094,10.886521 8.46797787,9.59568207 8.46999648,8.16500003 C8.47275399,6.21657673 10.0515767,4.63775398 12,4.63499646 Z"/>
    <path fill="#1A1A1A" fill-rule="nonzero" d="M20.0000001,11.695 L18.25,11.695 L18.25,5.00000002 C18.2472503,3.75850009 17.2415,2.75274974 16.0000001,2.75000001 L8.00000003,2.75000001 C6.7585001,2.75274974 5.75274976,3.75850009 5.75000001,5.00000002 L5.75000001,11.695 L4.00000002,11.695 C3.30964408,11.695 2.75000001,12.2546441 2.75000001,12.9450001 L2.75000001,20.3300001 C2.75273304,20.8369657 3.16303442,21.2472671 3.67000002,21.25 L20.3300001,21.25 C20.8369657,21.2472671 21.2472671,20.8369657 21.25,20.3300001 L21.25,12.9450001 C21.25,12.2546441 20.690356,11.695 20.0000001,11.695 Z M20.0000001,12.1950001 C20.4142136,12.1950001 20.7500001,12.5307865 20.7500001,12.9450001 L20.7500001,14.5950001 L18.2500001,14.5950001 L18.2500001,12.1950001 L20.0000001,12.1950001 Z M18.2500001,15.0950001 L20.7500001,15.0950001 L20.7500001,17.5950001 L18.2500001,17.5950001 L18.2500001,15.0950001 Z M5.75000001,17.5950001 L3.25000001,17.5950001 L3.25000001,15.0950001 L5.75000001,15.0950001 L5.75000001,17.5950001 Z M4.00000002,12.1950001 L5.75000001,12.1950001 L5.75000001,14.5950001 L3.25000001,14.5950001 L3.25000001,12.9450001 C3.25000001,12.5307865 3.58578645,12.1950001 4.00000002,12.1950001 L4.00000002,12.1950001 Z M3.25000001,20.3300001 L3.25000001,18.1100001 L5.75000001,18.1100001 L5.75000001,20.7500001 L3.67000002,20.7500001 C3.43916807,20.7473 3.25270008,20.560832 3.25000001,20.3300001 Z M6.25000003,11.945 L6.25000003,5.00000002 C6.25000003,4.0335017 7.03350172,3.25000001 8.00000003,3.25000001 L16.0000001,3.25000001 C16.9664984,3.25000001 17.75,4.0335017 17.75,5.00000002 L17.75,20.75 L15.3600001,20.75 L15.3600001,15.4500001 C15.3572596,14.7607825 14.7992177,14.2027405 14.1100001,14.2000001 L10.11,14.2000001 C9.4196441,14.2000001 8.86000004,14.7596441 8.86000004,15.4500001 L8.86000004,20.75 L6.25000003,20.75 L6.25000003,11.945 Z M9.33500004,20.7500001 L9.33500004,15.4500001 C9.33500004,15.0357865 9.67078648,14.7000001 10.085,14.7000001 L14.0850001,14.7000001 C14.4992136,14.7000001 14.835,15.0357865 14.835,15.4500001 L14.835,20.7500001 L9.33500004,20.7500001 Z M20.3350001,20.7500001 L18.2500001,20.7500001 L18.2500001,18.1100001 L20.7500001,18.1100001 L20.7500001,20.3300001 C20.7473,20.560832 20.560832,20.7473 20.3300001,20.7500001 L20.3350001,20.7500001 Z"/>
    <rect width="24" height="24"/>
  </g>
</svg>
