<svg xmlns="http://www.w3.org/2000/svg" width="24" height="24" viewBox="0 0 24 24">
  <g fill="none" fill-rule="evenodd">
    <path fill="#000" fill-rule="nonzero" d="M19.0000001,2.74500001 L5.00000002,2.74500001 C4.16449762,2.70575552 3.37510608,3.12915044 2.94561287,3.84688296 C2.51611967,4.56461548 2.51611967,5.46038457 2.94561287,6.17811709 C3.37510608,6.89584961 4.16449762,7.31924452 5.00000002,7.28000003 L5.71500002,7.28000003 L5.71500002,20.2250001 C5.69831692,20.645002 5.94606167,21.0306047 6.33500003,21.1900001 C6.67745765,21.3241563 7.06732197,21.2256854 7.30500003,20.9450001 L8.44500004,19.6900001 C8.61136714,19.5009289 8.84830837,19.3887888 9.10000004,19.3800001 C9.34532898,19.3753516 9.58191981,19.4710716 9.75500004,19.6450001 L11,20.8400001 C11.5547077,21.3864041 12.4452924,21.3864041 13.0000001,20.8400001 L14.2600001,19.6300001 C14.433952,19.4542946 14.6728405,19.3583772 14.9200001,19.3650001 C15.1735495,19.3793588 15.4101985,19.4967801 15.5750001,19.6900001 L16.6700001,20.9150001 C16.9093449,21.1930016 17.2973501,21.2910029 17.6400001,21.1600001 C18.0291356,21.0028491 18.2787477,20.6194448 18.2650001,20.2000001 L18.2650001,7.28000003 L19.0000001,7.28000003 C19.8355025,7.31924452 20.624894,6.89584961 21.0543872,6.17811709 C21.4838804,5.46038457 21.4838804,4.56461548 21.0543872,3.84688296 C20.624894,3.12915044 19.8355025,2.70575552 19.0000001,2.74500001 Z M17.7350001,20.2100001 C17.7403402,20.4077284 17.6286143,20.590018 17.4500001,20.6750001 C17.3124624,20.7269137 17.1571379,20.6845525 17.0650001,20.5700001 L17.0650001,20.5700001 L15.9700001,19.3450001 C15.7094253,19.0445753 15.3372368,18.8639013 14.9400001,18.8450001 C14.5499334,18.8311388 14.1715715,18.979587 13.8950001,19.2550001 L12.6350001,20.4650001 C12.4687001,20.6335608 12.2417877,20.7284496 12.0050001,20.7284496 C11.7682124,20.7284496 11.5413,20.6335608 11.375,20.4650001 L10.15,19.2650001 C9.88384701,19.000465 9.5252237,18.8498432 9.15000004,18.8450001 L9.11000004,18.8450001 C8.7126154,18.8633204 8.34020994,19.0440998 8.08000003,19.3450001 L6.93500003,20.6000001 C6.84114377,20.7118991 6.68767106,20.7537553 6.55000003,20.7050001 C6.3716331,20.6178169 6.26174519,20.4333622 6.27000003,20.2350001 L6.27000003,5.27500002 L17.7350001,5.27500002 L17.7350001,20.2100001 Z M19.0000001,6.78000003 L18.2650001,6.78000003 L18.2650001,5.28000002 L19.3200001,5.28000002 C19.4635941,5.28000002 19.5800001,5.16359406 19.5800001,5.02000002 C19.5800001,4.87640599 19.4635941,4.76000002 19.3200001,4.76000002 L4.72500002,4.76000002 C4.58336235,4.76272432 4.46997382,4.87833616 4.47000002,5.02000002 C4.46865677,5.08849234 4.4949286,5.15464454 4.54289674,5.20355324 C4.59086488,5.25246193 4.65649453,5.28001319 4.72500002,5.28000002 L5.72500002,5.28000002 L5.72500002,6.78000003 L5.00000002,6.78000003 C4.34610189,6.81479119 3.72642221,6.48572323 3.38901455,5.92451983 C3.05160688,5.36331644 3.05160688,4.66168361 3.38901455,4.10048021 C3.72642221,3.53927681 4.34610189,3.21020885 5.00000002,3.24500001 L19.0000001,3.24500001 C19.6538982,3.21020885 20.2735779,3.53927681 20.6109856,4.10048021 C20.9483932,4.66168361 20.9483932,5.36331644 20.6109856,5.92451983 C20.2735779,6.48572323 19.6538982,6.81479119 19.0000001,6.78000003 L19.0000001,6.78000003 Z"/>
    <path fill="#000" fill-rule="nonzero" d="M8.43000004 11.66L15.5700001 11.66C15.7069543 11.65734 15.81734 11.5469543 15.8200001 11.41 15.8200001 11.2719289 15.7080713 11.16 15.5700001 11.16L8.43000004 11.16C8.29192885 11.16 8.18000003 11.2719289 8.18000003 11.41 8.18266009 11.5469543 8.29304581 11.65734 8.43000004 11.66zM8.43000004 14.5550001L15.5700001 14.5550001C15.7069543 14.55234 15.81734 14.4419543 15.8200001 14.3050001 15.8200001 14.1669289 15.7080713 14.0550001 15.5700001 14.0550001L8.43000004 14.0550001C8.29192885 14.0550001 8.18000003 14.1669289 8.18000003 14.3050001 8.18266009 14.4419543 8.29304581 14.55234 8.43000004 14.5550001z"/>
    <rect width="24" height="24"/>
  </g>
</svg>
