<svg xmlns="http://www.w3.org/2000/svg" width="24" height="24" viewBox="0 0 24 24">
  <g fill="none" fill-rule="evenodd">
    <path fill="#000" fill-rule="nonzero" d="M19.1350001,2.81500001 L7.13500003,2.81500001 C5.31084066,2.81775346 3.83275347,4.29584065 3.83000002,6.12000003 L3.83000002,18.6200001 C3.83000002,18.6200001 3.83000002,18.6500001 3.83000002,18.6600001 C3.83000002,18.6700001 3.83000002,18.6600001 3.83000002,18.6950001 C3.79565985,19.3382935 4.027477,19.967384 4.47102667,20.434577 C4.91457634,20.90177 5.53079136,21.165916 6.17500003,21.1650025 L19.1350001,21.1650025 C19.6872848,21.1650025 20.1351127,20.7172848 20.1351127,20.1650001 L20.1351127,3.83000002 C20.1390176,3.56219416 20.035437,3.30396969 19.8474635,3.11317649 C19.6594899,2.9223833 19.4028361,2.81500001 19.1350001,2.81500001 Z M19.6350001,3.81500002 L19.6350001,16.5000001 L7.82500003,16.5000001 L7.82500003,3.31489524 L19.1350001,3.31489524 C19.271975,3.31219741 19.4040997,3.36572328 19.5005021,3.46307083 C19.5969045,3.56041838 19.6491389,3.69305899 19.6450001,3.83000002 L19.6350001,3.81500002 Z M4.35500002,6.12000003 C4.35500002,4.5708413 5.6108413,3.31500001 7.16000003,3.31500001 L7.32500003,3.31500001 L7.32500003,16.5000001 L6.32500003,16.5000001 C5.55905466,16.4989297 4.83488586,16.8490368 4.36000002,17.4500001 L4.35500002,6.12000003 Z M19.1350001,20.6850001 L6.20000003,20.6850001 C5.69284076,20.6878525 5.20736685,20.4795335 4.86000002,20.1100001 C4.51277146,19.7410632 4.33204259,19.2458661 4.36000002,18.7400001 C4.46128073,17.7384745 5.3135294,16.9818864 6.32000003,17.0000001 L19.6450261,17.0000001 L19.6450261,18.6000001 L7.96500003,18.6000001 C7.82692885,18.6000001 7.71500003,18.7119289 7.71500003,18.8500001 C7.71500003,18.9880713 7.82692885,19.1000001 7.96500003,19.1000001 L19.6450261,19.1000001 L19.6450261,20.1800001 C19.6463796,20.3152243 19.5929264,20.4452406 19.4968336,20.5403913 C19.4007408,20.635542 19.2702041,20.6877117 19.1350001,20.6850001 Z"/>
    <path fill="#000" fill-rule="nonzero" d="M12.9350001,10.155 L13.9350001,10.155 C14.3520854,10.1270856 14.7500049,10.333765 14.9670258,10.6910343 C15.1840467,11.0483035 15.1840467,11.4966965 14.9670258,11.8539658 C14.7500049,12.2112351 14.3520854,12.4179145 13.9350001,12.3900001 L11.57,12.3900001 C11.4319289,12.3900001 11.32,12.5019289 11.32,12.6400001 C11.32,12.7780712 11.4319289,12.8900001 11.57,12.8900001 L13.1800001,12.8900001 L13.1800001,13.7900001 C13.1800001,13.9280712 13.2919289,14.0400001 13.4300001,14.0400001 C13.5680712,14.0400001 13.6800001,13.9280712 13.6800001,13.7900001 L13.6800001,12.8900001 L13.9250001,12.8900001 C14.5243366,12.9233351 15.0929774,12.6225391 15.4026848,12.1083437 C15.7123922,11.5941484 15.7123922,10.9508517 15.4026848,10.4366563 C15.0929774,9.92246097 14.5243366,9.62166497 13.9250001,9.65500004 L12.9250001,9.65500004 C12.3064411,9.65500004 11.805,9.15355896 11.805,8.53500004 C11.805,7.91644111 12.3064411,7.41500003 12.9250001,7.41500003 L15.2850001,7.41500003 C15.4230713,7.41500003 15.5350001,7.30307122 15.5350001,7.16500003 C15.53234,7.0280458 15.4219543,6.91766008 15.2850001,6.91500003 L13.6800001,6.91500003 L13.6800001,6.00000002 C13.6800001,5.86192884 13.5680712,5.75000002 13.4300001,5.75000002 C13.2930458,5.75266008 13.1826601,5.8630458 13.1800001,6.00000002 L13.1800001,6.90000003 L12.9350001,6.90000003 C12.0402988,6.90000003 11.315,7.62529874 11.315,8.52000004 C11.315,9.41470133 12.0402988,10.14 12.9350001,10.14 L12.9350001,10.155 Z"/>
    <rect width="24" height="24"/>
  </g>
</svg>
