<svg xmlns="http://www.w3.org/2000/svg" width="24" height="24" viewBox="0 0 24 24">
  <g fill="none" fill-rule="evenodd">
    <path fill="#000" fill-rule="nonzero" d="M7.44500003 3.27500001C5.14197261 3.27500001 3.27500001 5.14197261 3.27500001 7.44500003 3.27500001 9.74802745 5.14197261 11.615 7.44500003 11.615 9.74802745 11.615 11.615 9.74802745 11.615 7.44500003 11.6122449 5.14311478 9.74688528 3.27775512 7.44500003 3.27500001zM7.44500003 11.17C5.38773933 11.17 3.72000002 9.50226073 3.72000002 7.44500003 3.72000002 5.38773933 5.38773933 3.72000002 7.44500003 3.72000002 9.50226073 3.72000002 11.17 5.38773933 11.17 7.44500003 11.17 9.50226073 9.50226073 11.17 7.44500003 11.17zM7.44500003 12.3850001C5.14197261 12.3850001 3.27500001 14.2519727 3.27500001 16.5550001 3.27500001 18.8580275 5.14197261 20.7250001 7.44500003 20.7250001 9.74802745 20.7250001 11.615 18.8580275 11.615 16.5550001 11.6122449 14.2531148 9.74688528 12.3877552 7.44500003 12.3850001zM7.44500003 20.2750001C5.93792345 20.2750001 4.57933802 19.3668897 4.00307299 17.9743386 3.42680796 16.5817876 3.74642064 14.9792071 4.81280016 13.9142589 5.87917969 12.8493108 7.48218801 12.531851 8.87396378 13.1099859 10.2657395 13.6881209 11.172023 15.0479248 11.1700034 16.5550001 11.1672412 18.6103079 9.50030969 20.2750001 7.44500003 20.2750001L7.44500003 20.2750001zM16.5550001 11.615C18.8580275 11.615 20.7250001 9.74802745 20.7250001 7.44500003 20.7250001 5.14197261 18.8580275 3.27500001 16.5550001 3.27500001 14.2519727 3.27500001 12.3850001 5.14197261 12.3850001 7.44500003 12.3877552 9.74688528 14.2531148 11.6122449 16.5550001 11.615zM16.5550001 3.72500002C18.0620767 3.72500002 19.4206621 4.63311044 19.9969271 6.0256615 20.5731921 7.41821255 20.2535795 9.02079302 19.1871999 10.0857412 18.1208204 11.1506893 16.5178121 11.4681491 15.1260363 10.8900142 13.7342606 10.3118792 12.8279771 8.95207526 12.8299967 7.44500003 12.8327589 5.38969222 14.4996904 3.72500002 16.5550001 3.72500002zM16.5550001 12.3850001C14.2519727 12.3850001 12.3850001 14.2519727 12.3850001 16.5550001 12.3850001 18.8580275 14.2519727 20.7250001 16.5550001 20.7250001 18.8580275 20.7250001 20.7250001 18.8580275 20.7250001 16.5550001 20.722245 14.2531148 18.8568853 12.3877552 16.5550001 12.3850001zM16.5550001 20.2750035C15.0474701 20.2770223 13.6873502 19.3701971 13.109509 17.977807 12.5316677 16.585417 12.850045 14.9820163 13.9160306 13.9160306 14.9820163 12.850045 16.585417 12.5316677 17.977807 13.109509 19.3701971 13.6873502 20.2770223 15.0474701 20.2750035 16.5550001 20.2722457 18.6083574 18.6083574 20.2722457 16.5550001 20.2750035z"/>
    <path fill="#000" fill-rule="nonzero" d="M9.44500004 7.22000002L7.67000003 7.22000002 7.67000003 5.44500002C7.67000003 5.32073595 7.5692641 5.22000002 7.44500003 5.22000002 7.32073596 5.22000002 7.22000002 5.32073595 7.22000002 5.44500002L7.22000002 7.22000002 5.44500002 7.22000002C5.32073595 7.22000002 5.22000002 7.32073596 5.22000002 7.44500003 5.22000002 7.5692641 5.32073595 7.67000003 5.44500002 7.67000003L7.22000002 7.67000003 7.22000002 9.44500004C7.22000002 9.56926411 7.32073596 9.67000004 7.44500003 9.67000004 7.5692641 9.67000004 7.67000003 9.56926411 7.67000003 9.44500004L7.67000003 7.67000003 9.44500004 7.67000003C9.56926411 7.67000003 9.67000004 7.5692641 9.67000004 7.44500003 9.67000004 7.32073596 9.56926411 7.22000002 9.44500004 7.22000002L9.44500004 7.22000002zM9.00000004 15.0000001C8.90980838 14.9161589 8.7701917 14.9161589 8.68000004 15.0000001L7.42500003 16.2550001 6.19000003 15.0000001C6.10251024 14.9142429 5.96248981 14.9142429 5.87500002 15.0000001 5.83225043 15.0422668 5.80819294 15.0998834 5.80819294 15.1600001 5.80819294 15.2201167 5.83225043 15.2777333 5.87500002 15.3200001L7.13000003 16.5750001 5.87500002 17.8300001C5.8325443 17.8714052 5.8086026 17.9281968 5.8086026 17.9875001 5.8086026 18.0468033 5.8325443 18.1035949 5.87500002 18.1450001 5.91536505 18.1872997 5.97153752 18.2108559 6.03000003 18.2100001 6.08996359 18.2110474 6.14775567 18.1875693 6.19000003 18.1450001L7.44500003 16.8900001 8.70000004 18.1450001C8.74256393 18.1870871 8.80014378 18.2104789 8.86000004 18.2100001 8.9199636 18.2110474 8.97775568 18.1875693 9.02000004 18.1450001 9.10575719 18.0575103 9.10575719 17.9174899 9.02000004 17.8300001L7.76500003 16.5750001 9.00000004 15.3000001C9.07213267 15.2130079 9.07213267 15.0869923 9.00000004 15.0000001L9.00000004 15.0000001zM14.5550001 7.67000003L18.5550001 7.67000003C18.6792641 7.67000003 18.7800001 7.5692641 18.7800001 7.44500003 18.7800001 7.32073596 18.6792641 7.22000003 18.5550001 7.22000003L14.5550001 7.22000003C14.430736 7.22000003 14.3300001 7.32073596 14.3300001 7.44500003 14.3300001 7.5692641 14.430736 7.67000003 14.5550001 7.67000003L14.5550001 7.67000003zM18.5550001 16.3300001L14.5550001 16.3300001C14.430736 16.3300001 14.3300001 16.430736 14.3300001 16.5550001 14.3300001 16.6792641 14.430736 16.7800001 14.5550001 16.7800001L18.5550001 16.7800001C18.6792641 16.7800001 18.7800001 16.6792641 18.7800001 16.5550001 18.7800001 16.430736 18.6792641 16.3300001 18.5550001 16.3300001zM16.5550001 15.7800001C16.9028376 15.7800001 17.2164248 15.5704678 17.3495365 15.2491078 17.4826481 14.9277478 17.4090702 14.5578465 17.1631119 14.3118882 16.9171536 14.06593 16.5472523 13.992352 16.2258923 14.1254637 15.9045323 14.2585753 15.6950001 14.5721625 15.6950001 14.9200001 15.6977311 15.3938291 16.081171 15.777269 16.5550001 15.7800001L16.5550001 15.7800001zM16.5550001 14.5050001C16.7228519 14.5050001 16.874176 14.6061116 16.9384101 14.7611864 17.0026442 14.9162613 16.9671386 15.0947602 16.8484494 15.2134494 16.7297602 15.3321385 16.5512613 15.3676442 16.3961864 15.3034101 16.2411116 15.239176 16.1400001 15.0878519 16.1400001 14.9200001 16.1386635 14.8090715 16.1817958 14.7022255 16.2597687 14.6233132 16.3377417 14.5444008 16.4440634 14.5000001 16.5550001 14.5000001L16.5550001 14.5050001zM16.5550001 17.3300001C16.0800352 17.3300001 15.6950001 17.7150352 15.6950001 18.1900001 15.6950001 18.664965 16.0800352 19.0500001 16.5550001 19.0500001 17.029965 19.0500001 17.4150001 18.664965 17.4150001 18.1900001 17.4150001 17.7150352 17.029965 17.3300001 16.5550001 17.3300001zM16.5550001 18.6000001C16.3285633 18.6000001 16.1450001 18.4164368 16.1450001 18.1900001 16.1450001 17.9635633 16.3285633 17.7800001 16.5550001 17.7800001 16.7814368 17.7800001 16.9650001 17.9635633 16.9650001 18.1900001 16.9650001 18.4164368 16.7814368 18.6000001 16.5550001 18.6000001z"/>
    <rect width="24" height="24"/>
  </g>
</svg>
