<svg xmlns="http://www.w3.org/2000/svg" width="24" height="24" viewBox="0 0 24 24">
  <g fill="none" fill-rule="evenodd">
    <path fill="#000" fill-rule="nonzero" d="M18.3800001,2.75000001 L5.62000002,2.75000001 C4.86336991,2.75000001 4.25000002,3.36336991 4.25000002,4.12000002 L4.25000002,19.8800001 C4.25000002,20.6366302 4.86336991,21.25 5.62000002,21.25 L18.3800001,21.25 C19.1366302,21.25 19.75,20.6366302 19.75,19.8800001 L19.75,4.12000002 C19.75,3.36336991 19.1366302,2.75000001 18.3800001,2.75000001 Z M19.25,19.8800001 C19.25,20.3604878 18.8604878,20.75 18.3800001,20.75 L5.62000002,20.75 C5.13951229,20.75 4.75000002,20.3604878 4.75000002,19.8800001 L4.75000002,4.12000002 C4.75000002,3.88926167 4.84166047,3.66797376 5.00481712,3.50481711 C5.16797377,3.34166047 5.38926168,3.25000001 5.62000002,3.25000001 L18.3800001,3.25000001 C18.8604878,3.25000001 19.25,3.63951228 19.25,4.12000002 L19.25,19.8800001 Z"/>
    <path fill="#000" fill-rule="nonzero" d="M16.6100001 4.91000002L7.39000003 4.91000002C6.48425306 4.91000002 5.75000007 5.64425305 5.75000007 6.55000003 5.75000007 7.455747 6.48425306 8.19000003 7.39000003 8.19000003L16.6100001 8.19000003C17.1959156 8.19000003 17.737324 7.87741781 18.0302818 7.37000004 18.3232396 6.86258227 18.3232396 6.23741779 18.0302818 5.73000001 17.737324 5.22258224 17.1959156 4.91000002 16.6100001 4.91000002L16.6100001 4.91000002zM16.6100001 7.69000003L7.39000003 7.69000003C6.98271725 7.69000003 6.60637243 7.47271727 6.40273104 7.12000004 6.19908964 6.76728281 6.19908964 6.33271725 6.40273104 5.98000002 6.60637243 5.62728278 6.98271725 5.41000002 7.39000003 5.41000002L16.6100001 5.41000002C17.2396047 5.41000002 17.75 5.92039541 17.75 6.55000003 17.75 7.17960464 17.2396047 7.69000003 16.6100001 7.69000003zM7.46000003 9.70000004L7.39000003 9.70000004C6.48539267 9.70274545 5.75274544 10.4353927 5.75000002 11.34L5.75000002 11.41C5.75000002 12.315747 6.48425304 13.0500001 7.39000003 13.0500001L7.46000003 13.0500001C8.36574702 13.0500001 9.10000004 12.315747 9.10000004 11.41L9.10000004 11.34C9.09725462 10.4353927 8.3646074 9.70274545 7.46000003 9.70000004L7.46000003 9.70000004zM8.60000004 11.41C8.60000004 12.0396047 8.08960465 12.5500001 7.46000003 12.5500001L7.39000003 12.5500001C7.08765323 12.5500001 6.79768977 12.4298933 6.5838983 12.2161018 6.37010682 12.0023103 6.25000003 11.7123468 6.25000003 11.41L6.25000003 11.34C6.25273848 10.7115332 6.76153321 10.2027385 7.39000003 10.2L7.46000003 10.2C8.08846685 10.2027385 8.59726158 10.7115332 8.60000004 11.34L8.60000004 11.41zM12.0350001 9.70000004L11.965 9.70000004C11.0603927 9.70274545 10.3277455 10.4353927 10.325 11.34L10.325 11.41C10.325 12.315747 11.0592531 13.0500001 11.965 13.0500001L12.0350001 13.0500001C12.940747 13.0500001 13.6750001 12.315747 13.6750001 11.41L13.6750001 11.34C13.6722546 10.4353927 12.9396074 9.70274545 12.0350001 9.70000004zM13.1750001 11.41C13.1750001 12.0396047 12.6646047 12.5500001 12.0350001 12.5500001L11.965 12.5500001C11.6626533 12.5500001 11.3726898 12.4298933 11.1588983 12.2161018 10.9451068 12.0023103 10.825 11.7123468 10.825 11.41L10.825 11.34C10.8277385 10.7115332 11.3365332 10.2027385 11.965 10.2L12.0350001 10.2C12.6634669 10.2027385 13.1722616 10.7115332 13.1750001 11.34L13.1750001 11.41zM7.46000003 14.9000001L7.39000003 14.9000001C6.48425304 14.9000001 5.75000002 15.6342531 5.75000002 16.5400001L5.75000002 16.6100001C5.75000002 17.5157471 6.48425304 18.2500001 7.39000003 18.2500001L7.46000003 18.2500001C8.36574702 18.2500001 9.10000004 17.5157471 9.10000004 16.6100001L9.10000004 16.5400001C9.10000004 15.6342531 8.36574702 14.9000001 7.46000003 14.9000001zM8.60000004 16.6100001C8.60000004 16.9123469 8.47989324 17.2023103 8.26610176 17.4161018 8.05231029 17.6298933 7.76234683 17.7500001 7.46000003 17.7500001L7.39000003 17.7500001C7.08765323 17.7500001 6.79768977 17.6298933 6.5838983 17.4161018 6.37010682 17.2023103 6.25000003 16.9123469 6.25000003 16.6100001L6.25000003 16.5400001C6.25273848 15.9115333 6.76153321 15.4027385 7.39000003 15.4000001L7.46000003 15.4000001C8.08846685 15.4027385 8.59726158 15.9115333 8.60000004 16.5400001L8.60000004 16.6100001zM12.0350001 14.9000001L11.965 14.9000001C11.0592531 14.9000001 10.325 15.6342531 10.325 16.5400001L10.325 16.6100001C10.325 17.5157471 11.0592531 18.2500001 11.965 18.2500001L12.0350001 18.2500001C12.940747 18.2500001 13.6750001 17.5157471 13.6750001 16.6100001L13.6750001 16.5400001C13.6750001 15.6342531 12.940747 14.9000001 12.0350001 14.9000001L12.0350001 14.9000001zM13.1750001 16.6100001C13.1750001 16.9123469 13.0548933 17.2023103 12.8411018 17.4161018 12.6273103 17.6298933 12.3373468 17.7500001 12.0350001 17.7500001L11.965 17.7500001C11.6626533 17.7500001 11.3726898 17.6298933 11.1588983 17.4161018 10.9451068 17.2023103 10.825 16.9123469 10.825 16.6100001L10.825 16.5400001C10.8277385 15.9115333 11.3365332 15.4027385 11.965 15.4000001L12.0350001 15.4000001C12.6634669 15.4027385 13.1722616 15.9115333 13.1750001 16.5400001L13.1750001 16.6100001zM16.4600001 9.70000004C15.4899321 9.70275593 14.7049961 10.4899282 14.7050001 11.46L14.7050001 16.5000001C14.6332841 17.1698855 14.9502702 17.8219326 15.5213816 18.179314 16.0924929 18.5366954 16.8175072 18.5366954 17.3886186 18.179314 17.9597299 17.8219326 18.2767161 17.1698855 18.2050001 16.5000001L18.2050001 11.46C18.2023281 10.4949234 17.4250184 9.7109321 16.4600001 9.70000004zM17.7200001 16.5000001C17.7813865 16.9843344 17.5574594 17.4605397 17.1452865 17.7221912 16.7331136 17.9838427 16.2068866 17.9838427 15.7947137 17.7221912 15.3825407 17.4605397 15.1586137 16.9843344 15.2200001 16.5000001L15.2200001 11.5807117C15.1586137 11.0963774 15.3825407 10.6201721 15.7947137 10.3585206 16.2068866 10.0968691 16.7331136 10.0968691 17.1452865 10.3585206 17.5574594 10.6201721 17.7813865 11.0963774 17.7200001 11.5807117L17.7200001 16.5000001z"/>
    <rect width="24" height="24"/>
  </g>
</svg>
