<svg xmlns="http://www.w3.org/2000/svg" width="24" height="24" viewBox="0 0 24 24">
  <g fill="none" fill-rule="evenodd">
    <path fill="#000" fill-rule="nonzero" d="M19.3250001,4.92500002 L16.7450001,4.92500002 L16.7450001,3.84000002 C16.7450001,3.70192883 16.6330713,3.59000001 16.4950001,3.59000001 C16.3569289,3.59000001 16.2450001,3.70192883 16.2450001,3.84000002 L16.2450001,4.92500002 L12.2450001,4.92500002 L12.2450001,3.84000002 C12.2450001,3.70192883 12.1330712,3.59000001 11.995,3.59000001 C11.8569289,3.59000001 11.745,3.70192883 11.745,3.84000002 L11.745,4.92500002 L7.74500003,4.92500002 L7.74500003,3.84000002 C7.74500003,3.70192883 7.63307122,3.59000001 7.49500003,3.59000001 C7.35692884,3.59000001 7.24500003,3.70192883 7.24500003,3.84000002 L7.24500003,4.92500002 L4.67500002,4.92500002 C3.61851495,4.92774772 2.76274771,5.78351496 2.76000001,6.84000003 L2.76000001,18.5000001 C2.76274771,19.5564851 3.61851495,20.4122524 4.67500002,20.4150001 L19.3250001,20.4150001 C20.3814852,20.4122524 21.2372524,19.5564851 21.2400001,18.5000001 L21.2400001,6.84000003 C21.2372524,5.78351496 20.3814852,4.92774772 19.3250001,4.92500002 L19.3250001,4.92500002 Z M20.7400001,18.5000001 C20.7400001,19.281483 20.106483,19.9150001 19.3250001,19.9150001 L4.67500002,19.9150001 C3.8935171,19.9150001 3.26000001,19.281483 3.26000001,18.5000001 L3.26000001,6.84000003 C3.26000001,6.0585171 3.8935171,5.42500002 4.67500002,5.42500002 L7.25500003,5.42500002 L7.25500003,6.84000003 C7.25500003,6.97807122 7.36692884,7.09000003 7.50500003,7.09000003 C7.64307122,7.09000003 7.75500003,6.97807122 7.75500003,6.84000003 L7.75500003,5.42500002 L11.755,5.42500002 L11.755,6.84000003 C11.755,6.97807122 11.8669289,7.09000003 12.0050001,7.09000003 C12.1430712,7.09000003 12.2550001,6.97807122 12.2550001,6.84000003 L12.2550001,5.42500002 L16.2550001,5.42500002 L16.2550001,6.84000003 C16.2550001,6.97807122 16.3669289,7.09000003 16.5050001,7.09000003 C16.6430713,7.09000003 16.7550001,6.97807122 16.7550001,6.84000003 L16.7550001,5.42500002 L19.3350001,5.42500002 C20.116483,5.42500002 20.7500001,6.0585171 20.7500001,6.84000003 L20.7400001,18.5000001 Z"/>
    <path fill="#000" fill-rule="nonzero" d="M17.5650001 14.2600001C17.5180584 14.2126719 17.4541595 14.1860505 17.3875001 14.1860505 17.3208407 14.1860505 17.2569417 14.2126719 17.2100001 14.2600001L16.3300001 15.1450001 15.4450001 14.2600001C15.3980584 14.2126719 15.3341594 14.1860505 15.2675001 14.1860505 15.2008407 14.1860505 15.1369417 14.2126719 15.0900001 14.2600001 14.9941084 14.3589069 14.9941084 14.5160932 15.0900001 14.6150001L16.0000001 15.5000001 15.1150001 16.3850001C15.0197143 16.4822109 15.0197143 16.6377892 15.1150001 16.7350001 15.1626942 16.7828599 15.2274333 16.8098345 15.2950001 16.8100001 15.3610591 16.8096154 15.4241635 16.7825706 15.4700001 16.7350001L16.3550001 15.8550001 17.2350001 16.7350001C17.2826942 16.7828599 17.3474333 16.8098345 17.4150001 16.8100001 17.4809424 16.8090608 17.5438425 16.7821036 17.5900001 16.7350001 17.6383387 16.6896334 17.6657594 16.626293 17.6657594 16.5600001 17.6657594 16.4937071 17.6383387 16.4303667 17.5900001 16.3850001L16.6800001 15.5000001 17.5650001 14.6200001C17.613888 14.5728793 17.6415066 14.5079 17.6415066 14.4400001 17.6415066 14.3721001 17.613888 14.3071209 17.5650001 14.2600001zM7.52500003 10.085C6.92577108 10.085 6.44000003 10.5707711 6.44000003 11.17 6.44000003 11.769229 6.92577108 12.2550001 7.52500003 12.2550001 8.12422899 12.2550001 8.61000004 11.769229 8.61000004 11.17 8.61000004 10.5707711 8.12422899 10.085 7.52500003 10.085L7.52500003 10.085zM7.52500003 11.75C7.28793648 11.7499914 7.07431473 11.6069137 6.98406864 11.3876997 6.89382255 11.1684857 6.94479594 10.9164793 7.11314308 10.7495711 7.28149021 10.5826628 7.53392481 10.5338544 7.7523561 10.6259788 7.97078738 10.7181032 8.11202622 10.9329451 8.11000003 11.17 8.11000578 11.3246958 8.04821293 11.4729839 7.93835803 11.5818999 7.82850312 11.6908159 7.67969009 11.7513336 7.52500003 11.75L7.52500003 11.75zM12 10.085C11.4007711 10.085 10.915 10.5707711 10.915 11.17 10.915 11.769229 11.4007711 12.2550001 12 12.2550001 12.599229 12.2550001 13.0850001 11.769229 13.0850001 11.17 13.0850001 10.5707711 12.599229 10.085 12 10.085L12 10.085zM12 11.75C11.7629365 11.7499914 11.5493148 11.6069137 11.4590687 11.3876997 11.3688226 11.1684857 11.419796 10.9164793 11.5881431 10.7495711 11.7564902 10.5826628 12.0089248 10.5338544 12.2273561 10.6259788 12.4457874 10.7181032 12.5870262 10.9329451 12.5850001 11.17 12.5850058 11.3246958 12.523213 11.4729839 12.413358 11.5818999 12.3035031 11.6908159 12.1546901 11.7513336 12 11.75L12 11.75zM7.50000003 14.4150001C6.90077108 14.4150001 6.41500003 14.9007711 6.41500003 15.5000001 6.41500003 16.099229 6.90077108 16.5850001 7.50000003 16.5850001 8.09922899 16.5850001 8.58500004 16.099229 8.58500004 15.5000001 8.58500004 15.2122402 8.47068786 14.9362662 8.26721089 14.7327892 8.06373392 14.5293122 7.78775992 14.4150001 7.50000003 14.4150001zM7.50000003 16.0800001C7.27900767 16.1004966 7.06544811 15.9941713 6.94860609 15.8054767 6.83176407 15.616782 6.83176407 15.3782181 6.94860609 15.1895235 7.06544811 15.0008288 7.27900767 14.8945036 7.50000003 14.9150001 7.80086372 14.9429044 8.03097458 15.1953451 8.03097458 15.4975001 8.03097458 15.799655 7.80086372 16.0520957 7.50000003 16.0800001L7.50000003 16.0800001zM12 14.4150001C11.4007711 14.4150001 10.915 14.9007711 10.915 15.5000001 10.915 16.099229 11.4007711 16.5850001 12 16.5850001 12.599229 16.5850001 13.0850001 16.099229 13.0850001 15.5000001 13.0850001 15.2122402 12.9706879 14.9362662 12.7672109 14.7327892 12.5637339 14.5293122 12.2877599 14.4150001 12 14.4150001zM12 16.0800001C11.7629365 16.0800001 11.5493148 15.9369137 11.4590687 15.7176997 11.3688226 15.4984857 11.419796 15.2464793 11.5881431 15.0795711 11.7564902 14.9126628 12.0089248 14.8638544 12.2273561 14.9559788 12.4457874 15.0481032 12.5870262 15.2629452 12.5850001 15.5000001 12.5795867 15.8200003 12.3200349 16.0773336 12 16.0800001L12 16.0800001zM16.3500001 12.2500116C16.7892956 12.2500116 17.1852386 11.9850994 17.3528788 11.5790485 17.520519 11.1729976 17.4267709 10.70593 17.1154255 10.3960194 16.8040801 10.0861087 16.3365845 9.99451899 15.9313123 10.1640329 15.52604 10.3335468 15.2629757 10.7307092 15.2649885 11.17 15.2649885 11.4573023 15.3794685 11.732765 15.5830905 11.9354486 15.7867124 12.1381322 16.0627009 12.2513302 16.3500001 12.2500116zM16.3500001 10.585C16.6730866 10.585 16.9350001 10.8469135 16.9350001 11.17 16.9350001 11.4930866 16.6730866 11.755 16.3500001 11.755 16.0269135 11.755 15.7650001 11.4930866 15.7650001 11.17 15.7636531 11.0144394 15.8248543 10.8648585 15.9348564 10.7548564 16.0448585 10.6448543 16.1944394 10.5836531 16.3500001 10.585z"/>
    <rect width="24" height="24"/>
  </g>
</svg>
