<svg xmlns="http://www.w3.org/2000/svg" width="24" height="24" viewBox="0 0 24 24">
  <g fill="none" fill-rule="evenodd">
    <path fill="#000" fill-rule="nonzero" d="M19.0000001,2.89000001 L5.00000002,2.89000001 C4.16449762,2.85075552 3.37510608,3.27415044 2.94561287,3.99188296 C2.51611967,4.70961548 2.51611967,5.60538457 2.94561287,6.32311709 C3.37510608,7.04084961 4.16449762,7.46424452 5.00000002,7.42500003 L6.45000003,7.42500003 L6.45000003,20.0000001 C6.45000003,20.3010208 6.56958004,20.5897125 6.78243383,20.8025663 C6.99528762,21.0154201 7.28397931,21.1350001 7.58500003,21.1350001 L16.4650001,21.1350001 C17.0898898,21.1322472 17.5950061,20.6248958 17.5950001,20.0000001 L17.5950001,7.42500003 L19.0000001,7.42500003 C19.8355025,7.46424452 20.624894,7.04084961 21.0543872,6.32311709 C21.4838804,5.60538457 21.4838804,4.70961548 21.0543872,3.99188296 C20.624894,3.27415044 19.8355025,2.85075552 19.0000001,2.89000001 Z M17.0950199,20.0000001 C17.0963331,20.1679511 17.0305472,20.3294816 16.9122545,20.4487131 C16.7939618,20.5679446 16.6329564,20.6350001 16.4650001,20.6350001 L7.58500003,20.6350001 C7.23429921,20.6350001 6.95000003,20.3507009 6.95000003,20.0000001 L6.95000003,5.41500002 L17.0950199,5.41500002 L17.0950199,20.0000001 Z M19.0000001,6.92500003 L17.5950001,6.92500003 L17.5950001,5.42500002 L19.3200001,5.42500002 C19.4261051,5.45530969 19.5397847,5.41533976 19.6035731,5.3252953 C19.6673615,5.23525085 19.6673615,5.11474919 19.6035731,5.02470474 C19.5397847,4.93466028 19.4261051,4.89469035 19.3200001,4.92500002 L4.72500002,4.92500002 C4.61889497,4.89469035 4.50521536,4.93466028 4.441427,5.02470474 C4.37763865,5.11474919 4.37763865,5.23525085 4.441427,5.3252953 C4.50521536,5.41533976 4.61889497,5.45530969 4.72500002,5.42500002 L6.45000003,5.42500002 L6.45000003,6.92500003 L5.00000002,6.92500003 C4.34610189,6.95979119 3.72642221,6.63072323 3.38901455,6.06951983 C3.05160688,5.50831644 3.05160688,4.80668361 3.38901455,4.24548021 C3.72642221,3.68427681 4.34610189,3.35520885 5.00000002,3.39000001 L19.0000001,3.39000001 C19.6538982,3.35520885 20.2735779,3.68427681 20.6109856,4.24548021 C20.9483932,4.80668361 20.9483932,5.50831644 20.6109856,6.06951983 C20.2735779,6.63072323 19.6538982,6.95979119 19.0000001,6.92500003 L19.0000001,6.92500003 Z"/>
    <path fill="#000" fill-rule="nonzero" d="M8.57500004,17.6150001 L8.68500004,17.6150001 C9.65425978,17.6150001 10.44,18.4007403 10.44,19.3700001 C10.44,19.5080713 10.5519289,19.6200001 10.69,19.6200001 L13.3550001,19.6200001 C13.4930712,19.6200001 13.6050001,19.5080713 13.6050001,19.3700001 C13.6050001,18.4007403 14.3907403,17.6150001 15.3600001,17.6150001 L15.5000001,17.6150001 C15.6369543,17.61234 15.74734,17.5019543 15.7500001,17.3650001 L15.7500001,8.82500004 C15.7500001,8.68692885 15.6380713,8.57500004 15.5000001,8.57500004 L15.3850001,8.57500004 C14.4168802,8.57225358 13.6327465,7.78811987 13.6300001,6.82000003 C13.6300001,6.68192884 13.5180712,6.57000003 13.3800001,6.57000003 L10.69,6.57000003 C10.5519289,6.57000003 10.44,6.68192884 10.44,6.82000003 C10.4372536,7.78811987 9.65311987,8.57225358 8.68500004,8.57500004 L8.57500004,8.57500004 C8.43692885,8.57500004 8.32500003,8.68692885 8.32500003,8.82500004 L8.32500003,17.3650001 C8.32500003,17.5030713 8.43692885,17.6150001 8.57500004,17.6150001 Z M8.82500004,9.07000003 C9.91770044,9.0015256 10.8033363,8.15806291 10.925,7.07000003 L13.1200001,7.07000003 C13.2420131,8.15982197 14.1303655,9.00386225 15.2250001,9.07000003 L15.2250001,17.1150001 C14.1312316,17.1831276 13.243956,18.0261449 13.1200001,19.1150001 L10.925,19.1150001 C10.8014004,18.0278988 9.91683433,17.185455 8.82500004,17.1150001 L8.82500004,9.07000003 Z"/>
    <path fill="#000" fill-rule="nonzero" d="M12.0250001,14.9350001 C13.041204,14.9350001 13.8650001,14.111204 13.8650001,13.0950001 C13.8650001,12.0787961 13.041204,11.255 12.0250001,11.255 C11.0087961,11.255 10.185,12.0787961 10.185,13.0950001 C10.185,13.5829984 10.3788566,14.0510096 10.7239236,14.3960765 C11.0689905,14.7411435 11.5370017,14.9350001 12.0250001,14.9350001 L12.0250001,14.9350001 Z M12.0250001,11.755 C12.7650616,11.755 13.3650001,12.3549385 13.3650001,13.0950001 C13.3650001,13.8350616 12.7650616,14.4350001 12.0250001,14.4350001 C11.2849385,14.4350001 10.685,13.8350616 10.685,13.0950001 C10.6877419,12.3560772 11.2860772,11.7577419 12.0250001,11.755 L12.0250001,11.755 Z"/>
    <rect width="24" height="24"/>
  </g>
</svg>
