<svg xmlns="http://www.w3.org/2000/svg" width="24" height="24" viewBox="0 0 24 24">
  <g fill="none" fill-rule="evenodd">
    <path fill="#000" fill-rule="nonzero" d="M18.5000001,2.74500001 L9.17000004,2.74500001 C8.0958062,2.74500001 7.22500003,3.61580618 7.22500003,4.69000002 L7.22500003,7.62000003 L5.22500002,7.62000003 C4.3065856,7.62274568 3.56274567,8.36658562 3.55991554,9.28500004 L3.55991554,20.2850001 C3.55480887,20.6736011 3.78929479,21.02533 4.15000002,21.1700001 C4.26745284,21.2182652 4.39302347,21.2437187 4.52000002,21.245 C4.76317241,21.2503619 4.99922733,21.1627354 5.18000002,21.0000001 L7.00000003,19.1300001 C7.22575417,18.9046856 7.53105362,18.7771782 7.85000003,18.7750001 L12.9950001,18.7750001 C13.9114613,18.7695162 14.6522725,18.0264736 14.6550001,17.1100001 L14.6550001,16.0000001 L15.3050001,16.0000001 C15.6985099,16.001657 16.0756091,16.1578838 16.3550001,16.4350001 L18.5650001,18.6450001 C18.874828,18.9658332 19.3517562,19.0596224 19.7600001,18.8800001 C20.1684761,18.7162521 20.4358962,18.3200742 20.4350023,17.8800001 L20.4350023,4.69000002 C20.4350023,3.61969933 19.5702866,2.75050284 18.5000001,2.74500001 Z M14.1650001,17.0950001 C14.1622611,17.7372739 13.6422739,18.2572611 13.0000001,18.2600001 L7.85500003,18.2600001 C7.40477452,18.262192 6.9735791,18.4418567 6.65500003,18.7600001 L4.82500002,20.6200001 C4.69512028,20.7536538 4.49629429,20.793419 4.32500002,20.7200001 C4.15187078,20.6509532 4.0401164,20.481326 4.04500002,20.2950001 L4.04500002,9.29500004 C4.04500002,8.6515883 4.56658829,8.13000003 5.21000002,8.13000003 L7.21000003,8.13000003 L7.21000003,14.0400001 C7.20599321,14.559308 7.4098298,15.0586523 7.77610651,15.4268074 C8.14238323,15.7949625 8.64067841,16.0013505 9.16000004,16.0000001 L14.1600001,16.0000001 L14.1650001,17.0950001 Z M19.9450001,17.8750001 C19.9388296,18.1088075 19.7962518,18.3173127 19.5806105,18.4078821 C19.3649692,18.4984514 19.1162686,18.4543157 18.9450001,18.2950001 L16.7400001,16.0850001 C16.3646059,15.7100229 15.8555927,15.4995828 15.3250001,15.5000001 L9.16500004,15.5000001 C8.37084904,15.4972569 7.72774324,14.8541511 7.72500003,14.0600001 L7.72500003,4.69000002 C7.72500003,3.89194855 8.37194857,3.24500001 9.17000004,3.24500001 L18.5000001,3.24500001 C19.2980515,3.24500001 19.9450001,3.89194855 19.9450001,4.69000002 L19.9450001,17.8750001 Z"/>
    <path fill="#000" fill-rule="nonzero" d="M13.4400001,7.34500003 L15.3400001,7.34500003 C15.4780713,7.34500003 15.5900001,7.23307122 15.5900001,7.09500003 C15.5900001,6.95692884 15.4780713,6.84500003 15.3400001,6.84500003 L14.0900001,6.84500003 L14.0900001,6.17000003 C14.0900001,6.03192884 13.9780712,5.92000002 13.8400001,5.92000002 C13.7019289,5.92000002 13.5900001,6.03192884 13.5900001,6.17000003 L13.5900001,6.84500003 L13.4400001,6.84500003 C12.7249266,6.88849786 12.1672725,7.48110479 12.1672725,8.19750003 C12.1672725,8.91389528 12.7249266,9.50650221 13.4400001,9.55000004 L14.2400001,9.55000004 C14.6855545,9.58414737 15.0296644,9.955639 15.0296644,10.4025 C15.0296644,10.8493611 14.6855545,11.2208527 14.2400001,11.255 L12.3400001,11.255 C12.2019289,11.255 12.0900001,11.3669289 12.0900001,11.505 C12.0900001,11.6430712 12.2019289,11.755 12.3400001,11.755 L13.5900001,11.755 L13.5900001,12.4300001 C13.5900001,12.5680712 13.7019289,12.6800001 13.8400001,12.6800001 C13.9780712,12.6800001 14.0900001,12.5680712 14.0900001,12.4300001 L14.0900001,11.755 L14.2400001,11.755 C14.9550735,11.7115022 15.5127277,11.1188953 15.5127277,10.4025 C15.5127277,9.6861048 14.9550735,9.09349787 14.2400001,9.05000004 L13.4400001,9.05000004 C12.9944456,9.01585271 12.6503357,8.64436108 12.6503357,8.19750003 C12.6503357,7.75063899 12.9944456,7.37914736 13.4400001,7.34500003 L13.4400001,7.34500003 Z"/>
    <rect width="24" height="24"/>
  </g>
</svg>
