<svg xmlns="http://www.w3.org/2000/svg" width="24" height="24" viewBox="0 0 24 24">
  <g fill="none" fill-rule="evenodd">
    <path fill="#1A1A1A" fill-rule="nonzero" d="M14.8550001,10.565 C14.8523738,9.64326264 14.1116404,8.89363152 13.1900001,8.88000004 L13.1900001,7.88000003 C13.1900001,7.74192884 13.0780712,7.63000003 12.9400001,7.63000003 C12.8030458,7.63266008 12.6926601,7.74304581 12.6900001,7.88000003 L12.6900001,8.88000004 L11.37,8.88000004 L11.37,7.88000003 C11.37,7.74192884 11.2580712,7.63000003 11.12,7.63000003 C10.9830458,7.63266008 10.8726601,7.74304581 10.87,7.88000003 L10.87,8.88000004 L9.39500004,8.88000004 C9.25692885,8.88000004 9.14500004,8.99192885 9.14500004,9.13000003 C9.14500004,9.26807123 9.25692885,9.38000004 9.39500004,9.38000004 L10.025,9.38000004 L10.025,14.6200001 L9.39500004,14.6200001 C9.25804581,14.6226601 9.14766009,14.7330458 9.14500004,14.8700001 C9.14500004,15.0080712 9.25692885,15.1200001 9.39500004,15.1200001 L10.87,15.1200001 L10.87,16.1200001 C10.87,16.2580713 10.9819289,16.3700001 11.12,16.3700001 C11.2580712,16.3700001 11.37,16.2580713 11.37,16.1200001 L11.37,15.1200001 L12.6900001,15.1200001 L12.6900001,16.1200001 C12.6900001,16.2580713 12.8019289,16.3700001 12.9400001,16.3700001 C13.0780712,16.3700001 13.1900001,16.2580713 13.1900001,16.1200001 L13.1900001,15.1200001 C13.9420874,15.1131873 14.5980069,14.6073367 14.7957055,13.8816666 C14.9934041,13.1559965 14.6847037,12.3873488 14.0400001,12 C14.5440726,11.6972523 14.8531785,11.1529984 14.8550001,10.565 L14.8550001,10.565 Z M14.3550001,13.4350001 C14.3522468,14.0902654 13.8202712,14.6200001 13.1650001,14.6200001 L10.525,14.6200001 L10.525,12.2500001 L13.1650001,12.2500001 C13.8202712,12.2500001 14.3522468,12.7797347 14.3550001,13.4350001 L14.3550001,13.4350001 Z M13.1650001,11.75 L10.525,11.75 L10.525,9.38000004 L13.1650001,9.38000004 C13.5883598,9.38000004 13.9795603,9.60585974 14.1912402,9.97250003 C14.4029201,10.3391403 14.4029201,10.7908598 14.1912402,11.1575001 C13.9795603,11.5241403 13.5883598,11.75 13.1650001,11.75 L13.1650001,11.75 Z"/>
    <path fill="#1A1A1A" fill-rule="nonzero" d="M21.0000001,12.25 C21.1380713,12.25 21.25,12.1380712 21.25,12.0000001 C21.25,11.8619289 21.1380713,11.75 21.0000001,11.75 L18.25,11.75 L18.25,9.25000001 L21.0000001,9.25000001 C21.1380713,9.25000001 21.25,9.13807123 21.25,9.00000004 C21.25,8.86192885 21.1380713,8.75000001 21.0000001,8.75000001 L18.25,8.75000001 L18.25,6.00000003 C18.25,5.86192884 18.1380713,5.75000001 18.0000001,5.75000001 L15.25,5.75000001 L15.25,3.00000001 C15.25,2.86192882 15.1380713,2.75000001 15.0000001,2.75000001 C14.8619289,2.75000001 14.75,2.86192882 14.75,3.00000001 L14.75,5.75000001 L12.25,5.75000001 L12.25,3.00000001 C12.25,2.86192882 12.1380712,2.75000001 12.0000001,2.75000001 C11.8619289,2.75000001 11.75,2.86192882 11.75,3.00000001 L11.75,5.75000001 L9.25000001,5.75000001 L9.25000001,3.00000001 C9.25000001,2.86192882 9.13807123,2.75000001 9.00000004,2.75000001 C8.86192885,2.75000001 8.75000001,2.86192882 8.75000001,3.00000001 L8.75000001,5.75000001 L6.00000003,5.75000001 C5.86192884,5.75000001 5.75000001,5.86192884 5.75000001,6.00000003 L5.75000001,8.75000001 L3.00000001,8.75000001 C2.86192882,8.75000001 2.75000001,8.86192885 2.75000001,9.00000004 C2.75000001,9.13807123 2.86192882,9.25000001 3.00000001,9.25000001 L5.75000001,9.25000001 L5.75000001,11.75 L3.00000001,11.75 C2.86192882,11.75 2.75000001,11.8619289 2.75000001,12.0000001 C2.75000001,12.1380712 2.86192882,12.25 3.00000001,12.25 L5.75000001,12.25 L5.75000001,14.75 L3.00000001,14.75 C2.86192882,14.75 2.75000001,14.8619289 2.75000001,15.0000001 C2.75000001,15.1380713 2.86192882,15.25 3.00000001,15.25 L5.75000001,15.25 L5.75000001,18.0000001 C5.75000001,18.1380713 5.86192884,18.25 6.00000003,18.25 L8.75000001,18.25 L8.75000001,21.0000001 C8.75000001,21.1380713 8.86192885,21.25 9.00000004,21.25 C9.13807123,21.25 9.25000001,21.1380713 9.25000001,21.0000001 L9.25000001,18.25 L11.75,18.25 L11.75,21.0000001 C11.75,21.1380713 11.8619289,21.25 12.0000001,21.25 C12.1380712,21.25 12.25,21.1380713 12.25,21.0000001 L12.25,18.25 L14.75,18.25 L14.75,21.0000001 C14.75,21.1380713 14.8619289,21.25 15.0000001,21.25 C15.1380713,21.25 15.25,21.1380713 15.25,21.0000001 L15.25,18.25 L18.0000001,18.25 C18.1380713,18.25 18.25,18.1380713 18.25,18.0000001 L18.25,15.25 L21.0000001,15.25 C21.1380713,15.25 21.25,15.1380713 21.25,15.0000001 C21.25,14.8619289 21.1380713,14.75 21.0000001,14.75 L18.25,14.75 L18.25,12.25 L21.0000001,12.25 Z M17.75,17.75 L6.25000003,17.75 L6.25000003,6.25000003 L17.75,6.25000003 L17.75,17.75 Z"/>
    <rect width="24" height="24"/>
  </g>
</svg>
