<svg xmlns="http://www.w3.org/2000/svg" width="24" height="24" viewBox="0 0 24 24">
  <g fill="none" fill-rule="evenodd">
    <g fill="#000" fill-rule="nonzero" transform="translate(3.5 2.5)">
      <path d="M12.6750001 7.63500011C12.5369289 7.63500011 12.4250001 7.52307122 12.4250001 7.38500003L12.4250001 5.68000002C12.4250001 5.25474076 12.0802593 4.91000002 11.655 4.91000002L9.93000004 4.91000002C9.26084457 4.86795137 8.7396477 4.31297532 8.7396477 3.64250002 8.7396477 2.97202471 9.26084457 2.41704866 9.93000004 2.37500001L13.7600001 2.37500001C14.1833054 2.37225122 14.525009 2.02831427 14.5250001 1.60500001L14.5250001 1.50000001C14.525009 1.07668574 14.1833054.732748797 13.7600001.730000001L12.5650001.730000001C12.4269289.730000001 12.3150001.61807119 12.3150001.480000002 12.3150001.341928814 12.4269289.230000001 12.5650001.230000001L13.7600001.230000001C14.4594483.232753755 15.0250001.800546362 15.0250001 1.50000001L15.0250001 1.59500001C15.0250001 2.29445365 14.4594483 2.86224626 13.7600001 2.86500001L9.93000004 2.86500001C9.53008399 2.89730488 9.22199802 3.2312813 9.22199802 3.63250002 9.22199802 4.03371873 9.53008399 4.36769515 9.93000004 4.40000002L11.655 4.40000002C12.3564017 4.40000002 12.9250001 4.96859839 12.9250001 5.67000002L12.9250001 7.37500003C12.927723 7.44301924 12.9025909 7.50920753 12.8554084 7.55827729 12.8082259 7.60734705 12.7430737 7.63500011 12.6750001 7.63500011zM12.8850001 18.7600001L7.14500003 18.7600001C6.92354426 18.7600001 6.71115874 18.6720271 6.55456587 18.5154342 6.39797299 18.3588414 6.30993951 18.1464558 6.30993951 17.9250001L6.30993951 17.8400001C6.30731224 17.6172733 6.39425944 17.4028131 6.55129166 17.2448406 6.70832387 17.086868 6.92226119 16.998642 7.14500003 16.9999846L12.8850001 16.9999846C13.1059948 16.9986688 13.3183953 17.0855269 13.4751336 17.2413266 13.6318719 17.3971263 13.72006 17.6090013 13.72006 17.8300001L13.72006 17.9150001C13.7226731 18.1381834 13.6358816 18.353147 13.4789981 18.5119094 13.3221145 18.6706717 13.1081994 18.7600001 12.8850001 18.7600001L12.8850001 18.7600001zM7.14500003 17.5000001C6.9619198 17.4999797 6.81273257 17.6469402 6.81000003 17.8300001L6.81000003 17.9150001C6.81000003 18.0038476 6.84529457 18.0890562 6.90811926 18.1518808 6.97094394 18.2147055 7.05615251 18.2500001 7.14500003 18.2500001L12.8850001 18.2500001C12.9738476 18.2500001 13.0590561 18.2147055 13.1218808 18.1518808 13.1847055 18.0890562 13.2200001 18.0038476 13.2200001 17.9150001L13.2200001 17.8300001C13.2172675 17.6469402 13.0680803 17.4999797 12.8850001 17.5000001L7.14500003 17.5000001z"/>
      <path d="M10.895,17.5 L9.13500004,17.5 C5.91388691,17.4945045 3.3032546,14.8861073 3.29499296,11.665 L3.29499296,8.78500004 C3.29367207,8.31291412 3.47993487,7.85963629 3.81281235,7.52488344 C4.14568982,7.1901306 4.59791409,7.00132425 5.07000002,7.00000003 L11.12,7.00000003 C11.2580712,7.00000003 11.37,7.11192884 11.37,7.25000003 C11.37,7.38807122 11.2580712,7.50000003 11.12,7.50000003 L5.07000002,7.50000003 C4.36502894,7.50275385 3.79499296,8.07502358 3.79499296,8.78000004 L3.79499296,11.66 C3.80050315,14.6069181 6.18808194,16.9944969 9.13500004,17 L10.895,17 C13.840789,16.9945196 16.2290031,14.6107736 16.2400001,11.665 L16.2400001,8.78500004 C16.2413295,8.44465744 16.1070599,8.11779845 15.8668691,7.87666939 C15.6266783,7.63554033 15.3003453,7.50000003 14.9600001,7.50000003 L14.2200001,7.50000003 C14.0819289,7.50000003 13.9700001,7.38807122 13.9700001,7.25000003 C13.9700001,7.11192884 14.0819289,7.00000003 14.2200001,7.00000003 L14.9600001,7.00000003 C15.941927,7.00274669 16.7372534,7.79807313 16.7400001,8.78000004 L16.7400001,11.66 C16.7317455,14.8838687 14.1188746,17.4945044 10.895,17.5 L10.895,17.5 Z"/>
      <path d="M3.94119266 14.2300001L3.18000001 14.2300001C2.10886749 14.2743523 1.09956186 13.7281839.55078103 12.8072433.00200019825 11.8863027.00200019825 10.7386974.55078103 9.81775682 1.09956186 8.89681621 2.10886749 8.35064777 3.18000001 8.39500003L3.54500001 8.39500003C3.68195424 8.39766009 3.79233996 8.50804581 3.79500002 8.64500004 3.79500002 8.78307122 3.6830712 8.89500004 3.54500001 8.89500004L3.18000001 8.89500004C2.29008203 8.85451785 1.44987953 9.30623226.99282175 10.0708832.535763971 10.8355341.535763971 11.789466.99282175 12.5541169 1.44987953 13.3187678 2.29008203 13.7704822 3.18000001 13.7300001L3.94119266 13.7300001C4.07814689 13.7326601 4.18853261 13.8430458 4.19119266 13.9800001 4.19119266 14.1180712 4.07926385 14.2300001 3.94119266 14.2300001zM7.31500003 10.35C7.17692884 10.35 7.06500003 10.2380712 7.06500003 10.1L7.06500003 7.28500003C7.06500003 7.14692884 7.17692884 7.03500003 7.31500003 7.03500003 7.45307122 7.03500003 7.56500003 7.14692884 7.56500003 7.28500003L7.56500003 10.1C7.56500003 10.2380712 7.45307122 10.35 7.31500003 10.35z"/>
      <path d="M7.78500003,12.9450001 L6.73000003,12.9450001 C6.22189806,12.9450001 5.81000002,12.533102 5.81000002,12.0250001 L5.81000002,10.97 C5.81000002,10.4618981 6.22189806,10.05 6.73000003,10.05 L7.78500003,10.05 C8.02854192,10.05 8.2620367,10.147084 8.43377694,10.3197627 C8.60551719,10.4924414 8.70133087,10.7264618 8.70001372,10.97 L8.70001372,12.0250001 C8.70001372,12.5311558 8.2911483,12.9422492 7.78500003,12.9450001 L7.78500003,12.9450001 Z M6.73000003,10.55 C6.61819912,10.5486447 6.51058121,10.5924593 6.43152022,10.6715202 C6.35245924,10.7505812 6.30864471,10.8581991 6.31000003,10.97 L6.31000003,12.0250001 C6.31000003,12.2569596 6.49804043,12.4450001 6.73000003,12.4450001 L7.78500003,12.4450001 C8.01500465,12.4422617 8.2000302,12.255021 8.20000003,12.0250001 L8.20000003,10.97 C8.20133662,10.8590714 8.15820429,10.7522255 8.08023136,10.6733131 C8.00225842,10.5944008 7.89593668,10.549992 7.78500003,10.55 L6.73000003,10.55 Z"/>
    </g>
    <rect width="24" height="24"/>
  </g>
</svg>
