<svg xmlns="http://www.w3.org/2000/svg" width="24" height="24" viewBox="0 0 24 24">
  <g fill="none" fill-rule="evenodd">
    <path fill="#000" fill-rule="nonzero" d="M11.38,9.91000004 C11.1537843,9.68221699 10.8460276,9.55411723 10.525,9.55411723 C10.2039725,9.55411723 9.89621584,9.68221699 9.67000004,9.91000004 L6.00000003,13.5750001 C5.77375165,13.8010168 5.64662714,14.1077003 5.64662714,14.4275001 C5.64662714,14.7472998 5.77375165,15.0539833 6.00000003,15.2800001 L8.72000004,18.0000001 C8.94535875,18.2274835 9.25228877,18.3554625 9.57250004,18.3554625 C9.89271131,18.3554625 10.1996413,18.2274835 10.425,18.0000001 L14.0900001,14.3350001 C14.3177831,14.1087843 14.4458829,13.8010276 14.4458829,13.4800001 C14.4458829,13.1589725 14.3177831,12.8512158 14.0900001,12.6250001 L11.38,9.91000004 Z M13.7650001,14.0000001 L10.095,17.6650001 C9.80293772,17.9450077 9.34206236,17.9450077 9.05000004,17.6650001 L9.05000004,17.6650001 L6.33500003,14.9500001 C6.19545428,14.8119414 6.11693208,14.6237989 6.11693208,14.4275001 C6.11693208,14.2312013 6.19545428,14.0430588 6.33500003,13.9050001 L10,10.24 C10.1382454,10.0989039 10.3274655,10.0193929 10.525,10.0193929 C10.7225346,10.0193929 10.9117547,10.0989039 11.05,10.24 L13.7650001,12.9500001 C13.9147251,13.0938463 13.99955,13.2923726 14.0000001,13.5000001 C13.9876491,13.6903707 13.9036894,13.8690084 13.7650001,14.0000001 L13.7650001,14.0000001 Z"/>
    <path fill="#000" fill-rule="nonzero" d="M21.1400001,2.86500001 C21.0930584,2.81767185 21.0291595,2.79105043 20.9625001,2.79105043 C20.8958407,2.79105043 20.8319417,2.81767185 20.7850001,2.86500001 L19.4600001,4.19000002 C19.2190452,4.02198338 18.9281267,3.94087885 18.6350001,3.96000002 L12.9400001,4.28000002 C12.6115397,4.29707131 12.3012843,4.4361513 12.0700001,4.67000002 L3.18000001,13.5600001 C2.66063036,14.0810079 2.66063036,14.9239923 3.18000001,15.4450001 L8.55500004,20.8200001 C9.07600784,21.3393697 9.91899224,21.3393697 10.44,20.8200001 L19.3300001,11.93 C19.5646621,11.6992805 19.7038915,11.3886919 19.7200001,11.06 L20.0400001,5.36500002 C20.0579337,5.07199776 19.9769361,4.78146286 19.8100001,4.54000002 L21.1400001,3.21500001 C21.2352858,3.11778914 21.2352858,2.96221089 21.1400001,2.86500001 Z M19.5450001,5.34000002 L19.2200001,11.03 C19.2155939,11.232419 19.1373514,11.426247 19.0000001,11.575 L10.09,20.4650001 C9.76229868,20.7910857 9.2327014,20.7910857 8.90500004,20.4650001 L3.53500001,15.0950001 C3.20891437,14.7672987 3.20891437,14.2377014 3.53500001,13.9100001 L12.4250001,5.00000002 C12.5707256,4.85533993 12.7649005,4.76983169 12.9700001,4.76000002 L18.6600001,4.43500002 C18.8096392,4.42987952 18.9579759,4.46437642 19.0900001,4.53500002 L16.9300001,6.70000003 C16.1860177,6.10880843 15.1434887,6.07186841 14.3595292,6.60892029 C13.5755696,7.14597218 13.2334566,8.13146181 13.5160116,9.0387545 C13.7985666,9.94604719 14.6397327,10.5630324 15.5900001,10.56 C16.1646772,10.5628773 16.7162478,10.3339575 17.1200001,9.92500004 C17.9064977,9.1512049 17.9757801,7.90628715 17.2800001,7.05000003 L19.4450001,4.89000002 C19.5196452,5.02773972 19.554283,5.18360965 19.5450001,5.34000002 Z M16.7700001,7.23000003 C17.083883,7.54246241 17.2603405,7.96710586 17.2603405,8.41000004 C17.2603405,8.85289421 17.083883,9.27753766 16.7700001,9.59000004 C16.1094035,10.2198418 15.0705966,10.2198418 14.4100001,9.59000004 C13.800238,8.93157743 13.8198497,7.90896755 14.4544087,7.27440863 C15.0889676,6.63984971 16.1115775,6.62023802 16.7700001,7.23000003 L16.7700001,7.23000003 Z"/>
    <rect width="24" height="24"/>
  </g>
</svg>
