<svg xmlns="http://www.w3.org/2000/svg" width="24" height="24" viewBox="0 0 24 24">
  <g fill="none" fill-rule="evenodd">
    <path fill="#000" fill-rule="nonzero" d="M13.5750001,11.835 C13.2609636,11.5804396 12.869251,11.4410464 12.4650001,11.44 C11.4708875,11.44 10.665,12.2458875 10.665,13.2400001 C10.665,14.2341126 11.4708875,15.0400001 12.4650001,15.0400001 C12.869251,15.0389538 13.2609636,14.8995605 13.5750001,14.6450001 C13.8905711,14.90028 14.2841025,15.0396925 14.6900001,15.0400001 C15.6841126,15.0400001 16.49,14.2341126 16.49,13.2400001 C16.49,12.2458875 15.6841126,11.44 14.6900001,11.44 C14.2845159,11.4426866 13.8917475,11.5818288 13.5750001,11.835 Z M12.4900001,11.94 C13.2079702,11.94 13.7900001,12.5220299 13.7900001,13.2400001 C13.7900001,13.9579702 13.2079702,14.5400001 12.4900001,14.5400001 C12.1413056,14.5453471 11.8049769,14.4109075 11.5560465,14.1666739 C11.307116,13.9224403 11.1662952,13.5887331 11.165,13.2400001 C11.165,12.5220299 11.7720299,11.94 12.4900001,11.94 Z M13.9500001,14.2850001 C14.4036238,13.6621759 14.4036238,12.8178242 13.9500001,12.1950001 C14.1705273,12.0291519 14.4390694,11.9396379 14.7150001,11.9399979 C15.4329702,11.9399979 16.0150001,12.5220299 16.0150001,13.2400001 C16.0150001,13.9579702 15.4329702,14.5400022 14.7150001,14.5400022 C14.4390694,14.5403623 14.1705273,14.4508482 13.9500001,14.2850001 Z"/>
    <path fill="#000" fill-rule="nonzero" d="M20.8950001,8.09500003 C20.61749,7.72596351 20.2028967,7.48441789 19.7450001,7.42500003 L18.2850001,7.22000003 C18.1906535,6.33762589 17.4473999,5.66762046 16.5600001,5.66499285 L4.50000002,5.66499285 C4.03633154,5.66367146 3.59119837,5.84693246 3.26286518,6.17432756 C2.93453199,6.50172265 2.74988515,6.94632964 2.74988515,7.41000003 L2.74988515,15.7350001 C2.74464377,16.2021265 2.92681237,16.6518955 3.25572968,16.9836321 C3.58464699,17.3153687 4.03284491,17.5013693 4.50000002,17.5000001 L6.14500003,17.5000001 L18.1450001,19.1450001 C18.224923,19.1499661 18.3050771,19.1499661 18.3850001,19.1450001 C19.2530514,19.1436492 19.9881256,18.5044543 20.1100001,17.6450001 L21.2450001,9.39500004 C21.30579,8.93236923 21.1798455,8.46457519 20.8950001,8.09500003 Z M3.24990989,15.7350001 L3.24990989,7.41000003 C3.25275365,6.72159751 3.811592,6.16500003 4.50000002,6.16500003 L16.5600001,6.16500003 C17.2456467,6.16500003 17.8022465,6.71935894 17.8050001,7.40500003 L17.8050001,7.40500003 C17.8050001,7.40500003 17.8050001,7.40500003 17.8050001,7.43500003 L17.8050001,15.7350001 C17.8103605,16.0686462 17.6815615,16.3904792 17.4474952,16.6283056 C17.2134289,16.866132 16.8936892,17.0000001 16.5600001,17.0000001 L4.50000002,17.0000001 C4.16586405,17.0000001 3.84562715,16.866271 3.61077068,16.6285963 C3.37591421,16.3909215 3.24599038,16.069112 3.24990989,15.7350001 Z M20.7500001,9.32000004 L19.6050001,17.5650001 C19.5615464,17.8923262 19.3893349,18.1888027 19.1265343,18.3887188 C18.8637338,18.5886349 18.5320511,18.675478 18.2050001,18.6300001 L9.81500004,17.5000001 L16.5600001,17.5000001 C17.523737,17.5000001 18.3050001,16.718737 18.3050001,15.755 L18.3050001,7.75500003 L19.6750001,7.94500003 C20.3538461,8.04066373 20.8289739,8.66524484 20.7400001,9.34500004 L20.7500001,9.32000004 Z"/>
    <path fill="#000" fill-rule="nonzero" d="M7.09000003 10.225L4.92000002 10.225C4.78192883 10.225 4.67000002 10.3369289 4.67000002 10.475 4.67000002 10.6130712 4.78192883 10.725 4.92000002 10.725L7.09000003 10.725C7.22807122 10.725 7.34000003 10.6130712 7.34000003 10.475 7.34000003 10.3369289 7.22807122 10.225 7.09000003 10.225zM9.34500004 9.00000004L4.92000002 9.00000004C4.78192883 9.00000004 4.67000002 9.11192885 4.67000002 9.25000004 4.67000002 9.38807123 4.78192883 9.50000004 4.92000002 9.50000004L9.34500004 9.50000004C9.48307123 9.50000004 9.59500004 9.38807123 9.59500004 9.25000004 9.59500004 9.11192885 9.48307123 9.00000004 9.34500004 9.00000004zM9.34500004 7.76000003L4.92000002 7.76000003C4.78192883 7.76000003 4.67000002 7.87192885 4.67000002 8.01000003 4.67000002 8.14807122 4.78192883 8.26000003 4.92000002 8.26000003L9.34500004 8.26000003C9.48307123 8.26000003 9.59500004 8.14807122 9.59500004 8.01000003 9.59500004 7.87192885 9.48307123 7.76000003 9.34500004 7.76000003z"/>
    <rect width="24" height="24"/>
  </g>
</svg>
