<svg xmlns="http://www.w3.org/2000/svg" width="24" height="24" viewBox="0 0 24 24">
  <g fill="none" fill-rule="evenodd">
    <path fill="#000" fill-rule="nonzero" d="M5.53000002 10L4.46000002 10C3.5415856 10.0027457 2.79774566 10.7465856 2.79500001 11.665L2.79500001 19.2350001C2.79500001 20.1545542 3.54044591 20.9000001 4.46000002 20.9000001L5.53000002 20.9000001C6.45036646 20.9000001 7.19724444 20.1553624 7.20000003 19.2350001L7.20000003 11.645C7.18633776 10.7324623 6.44264001 10 5.53000002 10L5.53000002 10zM6.70000003 19.2350001C6.70000003 19.5448456 6.57657604 19.8419281 6.35701356 20.0605523 6.13745108 20.2791765 5.83984264 20.4013299 5.53000002 20.4000108L4.46000002 20.4000108C3.81658828 20.4000108 3.29500001 19.8784118 3.29500001 19.2350001L3.29500001 11.645C3.30591299 11.0094122 3.82431853 10.5 4.46000002 10.5L5.53000002 10.5C6.17422559 10.5 6.69724693 11.0207804 6.70000003 11.665L6.70000003 19.2350001zM12.5250001 7.16500003L11.455 7.16500003C10.5338242 7.16774573 9.78774574 7.9138242 9.78500004 8.83500004L9.78500004 19.2350001C9.78775563 20.1553624 10.5346336 20.9000001 11.455 20.9000001L12.5250001 20.9000001C13.4453665 20.9000001 14.1922445 20.1553624 14.1950001 19.2350001L14.1950001 8.83500004C14.1922544 7.9138242 13.4461759 7.16774573 12.5250001 7.16500003zM13.6950001 19.2350001C13.6950001 19.5448456 13.5715761 19.8419281 13.3520136 20.0605523 13.1324511 20.2791765 12.8348427 20.4013299 12.5250001 20.4000108L11.455 20.4000108C11.1451574 20.4013299 10.847549 20.2791765 10.6279865 20.0605523 10.408424 19.8419281 10.285 19.5448456 10.285 19.2350001L10.285 8.83500004C10.285 8.18882688 10.8088269 7.66500003 11.455 7.66500003L12.5250001 7.66500003C13.1711732 7.66500003 13.6950001 8.18882688 13.6950001 8.83500004L13.6950001 19.2350001zM19.5400001 12.2800001L18.4700001 12.2800001C17.5496336 12.2800001 16.8027557 13.0246377 16.8000001 13.9450001L16.8000001 19.2350001C16.8027557 20.1553624 17.5496336 20.9000001 18.4700001 20.9000001L19.5400001 20.9000001C20.4595542 20.9000001 21.2050001 20.1545542 21.2050001 19.2350001L21.2050001 13.9450001C21.2022544 13.0265856 20.4584145 12.2827457 19.5400001 12.2800001L19.5400001 12.2800001zM20.7050001 19.2350001C20.7050001 19.8784118 20.1834118 20.4000108 19.5400001 20.4000108L18.4700001 20.4000108C18.1601575 20.4013299 17.862549 20.2791765 17.6429865 20.0605523 17.4234241 19.8419281 17.3000001 19.5448456 17.3000001 19.2350001L17.3000001 13.9450001C17.3027532 13.3007804 17.8257745 12.7800001 18.4700001 12.7800001L19.5400001 12.7800001C20.1822739 12.782739 20.7022611 13.3027263 20.7050001 13.9450001L20.7050001 19.2350001z"/>
    <path fill="#000" fill-rule="nonzero" d="M5.09500002,7.59000003 L11.055,3.76000002 C11.5711471,3.42471158 12.253992,3.51138849 12.6700001,3.96500002 L18.4500001,10.17 L17.0900001,10.17 C16.9629746,10.17 16.8600001,10.2729746 16.8600001,10.4 C16.8626517,10.5259108 16.9640893,10.6273484 17.0900001,10.63 L19.0000001,10.63 C19.1259109,10.6273484 19.2273485,10.5259108 19.2300001,10.4 L19.2300001,8.44000004 C19.2273485,8.31408924 19.1259109,8.21265166 19.0000001,8.21000003 C18.8729746,8.21000003 18.7700001,8.31297454 18.7700001,8.44000004 L18.7700001,9.84000004 L13.0000001,3.65000002 C12.4287956,3.03602875 11.4995066,2.92013102 10.795,3.37500001 L4.85000002,7.20500003 C4.76938811,7.24300675 4.7180848,7.32416254 4.7180848,7.41328482 C4.7180848,7.50240711 4.76975495,7.58345194 4.85044858,7.62128484 C4.93114222,7.65911775 5.02642889,7.64692798 5.09500002,7.59000003 Z"/>
    <rect width="24" height="24"/>
  </g>
</svg>
