<svg xmlns="http://www.w3.org/2000/svg" width="24" height="24" viewBox="0 0 24 24">
  <g fill="none" fill-rule="evenodd">
    <path fill="#000" fill-rule="nonzero" d="M19.4550001 14.1450001L18.5500001 14.1450001C17.5835018 14.1450001 16.8000001 14.9285017 16.8000001 15.8950001L16.8000001 19.3950001C16.8000001 20.3614984 17.5835018 21.1450001 18.5500001 21.1450001L19.4550001 21.1450001C20.4214984 21.1450001 21.2050001 20.3614984 21.2050001 19.3950001L21.2050001 15.8950001C21.2050001 14.9285017 20.4214984 14.1450001 19.4550001 14.1450001L19.4550001 14.1450001zM20.7050001 19.3950001C20.7050001 19.7265207 20.573304 20.0444631 20.3388836 20.2788836 20.1044631 20.513304 19.7865207 20.6450001 19.4550001 20.6450001L18.5500001 20.6450001C17.8596441 20.6450001 17.3000001 20.085356 17.3000001 19.3950001L17.3000001 15.8950001C17.3000001 15.2046441 17.8596441 14.6450001 18.5500001 14.6450001L19.4550001 14.6450001C19.7865207 14.6450001 20.1044631 14.7766961 20.3388836 15.0111166 20.573304 15.2455371 20.7050001 15.5634795 20.7050001 15.8950001L20.7050001 19.3950001zM12.4650001 11.545L11.555 11.545C10.5885017 11.545 9.80500004 12.3285017 9.80500004 13.2950001L9.80500004 19.3950001C9.80500004 20.3614984 10.5885017 21.1450001 11.555 21.1450001L12.4650001 21.1450001C13.4314984 21.1450001 14.2150001 20.3614984 14.2150001 19.3950001L14.2150001 13.2950001C14.2150001 12.3285017 13.4314984 11.545 12.4650001 11.545zM13.7150001 19.3950001C13.7122596 20.0842177 13.1542177 20.6422596 12.4650001 20.6450001L11.555 20.6450001C10.8657824 20.6422596 10.3077405 20.0842177 10.305 19.3950001L10.305 13.2950001C10.3077405 12.6057824 10.8657824 12.0477405 11.555 12.0450001L12.4650001 12.0450001C13.1542177 12.0477405 13.7122596 12.6057824 13.7150001 13.2950001L13.7150001 19.3950001zM5.45000002 7.40500003L4.54500002 7.40500003C4.08087116 7.40500003 3.63575181 7.5893745 3.30756315 7.91756317 2.97937448 8.24575183 2.79500001 8.69087118 2.79500001 9.15500004L2.79500001 19.3950001C2.79500001 20.3614984 3.5785017 21.1450001 4.54500002 21.1450001L5.45000002 21.1450001C6.41649834 21.1450001 7.20000003 20.3614984 7.20000003 19.3950001L7.20000003 9.15500004C7.20000003 8.18850172 6.41649834 7.40500003 5.45000002 7.40500003zM6.70000003 19.405C6.70000003 20.095356 6.14035596 20.6550001 5.45000002 20.6550001L4.54500002 20.6550001C3.85464408 20.6550001 3.29500001 20.095356 3.29500001 19.405L3.29500001 9.15500004C3.29774047 8.46578243 3.85578241 7.90774049 4.54500002 7.90500003L5.45000002 7.90500003C6.13921764 7.90774049 6.69725957 8.46578243 6.70000003 9.15500004L6.70000003 19.405zM18.9000001 10.735L18.9000001 10.735C18.9960143 10.7094819 19.0671133 10.6285081 19.0800001 10.53L19.0800001 10.53C19.0870837 10.4987295 19.0870837 10.4662706 19.0800001 10.435L18.2550001 7.50000003C18.2375485 7.4367211 18.1954342 7.3830917 18.1380977 7.35113368 18.0807613 7.31917567 18.0129987 7.31156223 17.9500001 7.33000003 17.8179421 7.36653229 17.7398962 7.50255522 17.7750001 7.63500003L18.4250001 10 7.69500003 3.82500002C7.5748781 3.75596443 7.42153563 3.79737809 7.35250004 3.91750002 7.28346445 4.03762195 7.32487811 4.19096442 7.44500003 4.26000002L18.1900001 10.415 16.0000001 11.03C15.8913512 11.059253 15.8156316 11.1574838 15.8150001 11.27 15.8125917 11.2932712 15.8125917 11.3167289 15.8150001 11.34 15.8446189 11.4476913 15.9433232 11.5217195 16.0550001 11.52 16.0780808 11.524856 16.1019194 11.524856 16.1250001 11.52L18.9150001 10.745 18.9000001 10.735z"/>
    <rect width="24" height="24"/>
  </g>
</svg>
