<svg xmlns="http://www.w3.org/2000/svg" width="24" height="24" viewBox="0 0 24 24">
  <g fill="none" fill-rule="evenodd">
    <path fill="#000" fill-rule="nonzero" d="M9.92500004 10.61C9.77312173 10.61 9.65000004 10.7331217 9.65000004 10.885 9.65000004 11.0368784 9.77312173 11.16 9.92500004 11.16L11.725 11.16 11.725 12.1600001C11.725 12.3118784 11.8481217 12.4350001 12.0000001 12.4350001 12.1518784 12.4350001 12.2750001 12.3118784 12.2750001 12.1600001L12.2750001 11.16 12.5500001 11.16C13.5059294 11.1095656 14.2551647 10.3197589 14.2551647 9.36250004 14.2551647 8.40524113 13.5059294 7.61543448 12.5500001 7.56500003L11.45 7.56500003C10.7596441 7.56500003 10.2 7.00535597 10.2 6.31500003 10.2 5.62464409 10.7596441 5.06500002 11.45 5.06500002L14.0750001 5.06500002C14.2241169 5.06500002 14.3450001 4.9441169 14.3450001 4.79500002 14.3505127 4.71952829 14.3246819 4.64512012 14.2735908 4.58929836 14.2224997 4.53347659 14.1506637 4.50117483 14.0750001 4.50000002L12.2750001 4.50000002 12.2750001 3.50000001C12.2750001 3.34812171 12.1518784 3.22500001 12.0000001 3.22500001 11.8481217 3.22500001 11.725 3.34812171 11.725 3.50000001L11.725 4.50000002 11.45 4.50000002C10.4586489 4.50000002 9.65500004 5.3036489 9.65500004 6.29500003 9.65500004 7.28635116 10.4586489 8.09000003 11.45 8.09000003L12.5500001 8.09000003C13.240356 8.09000005 13.8 8.64964411 13.8 9.34000004 13.8 10.030356 13.240356 10.61 12.5500001 10.61L9.92500004 10.61zM21.2050001 17.4600001C21.2050001 17.3219289 21.0930713 17.2100001 20.9550001 17.2100001 20.8169289 17.2100001 20.7050001 17.3219289 20.7050001 17.4600001L20.7050001 19.9050001 14.3350001 13.5350001C14.1954414 13.3928815 14.0041785 13.3134893 13.8050001 13.3150001L13.8050001 13.3150001C13.6025966 13.3194552 13.4102122 13.4039605 13.2700001 13.5500001L10.5 16.5000001C10.4529622 16.5488293 10.387793 16.5759831 10.32 16.5750001 10.251847 16.5851043 10.1834205 16.558494 10.14 16.5050001L3.22000001 9.58500004C3.12278914 9.48971432 2.96721089 9.48971432 2.87000001 9.58500004 2.82267185 9.63194169 2.79605043 9.69584066 2.79605043 9.76250004 2.79605043 9.82915943 2.82267185 9.89305839 2.87000001 9.94000004L9.78500004 16.8550001C9.92705862 17.0003809 10.1217361 17.0823401 10.325 17.0823401 10.528264 17.0823401 10.7229415 17.0003809 10.865 16.8550001L13.6200001 13.9100001C13.6657886 13.8588054 13.7313169 13.8296817 13.8000001 13.8300001 13.8672481 13.8317039 13.9314381 13.8584498 13.9800001 13.9050001L20.3500001 20.2600001 18.0000001 20.2600001C17.8619289 20.2600001 17.7500001 20.3719289 17.7500001 20.5100001 17.7500001 20.6480713 17.8619289 20.7600001 18.0000001 20.7600001L21.0000001 20.7600001C21.0446673 20.7590901 21.0881027 20.7451908 21.1250001 20.7200001L21.1500001 20.7200001C21.1857902 20.6951195 21.2135827 20.6603788 21.2300001 20.6200001L21.2300001 20.6200001C21.2374387 20.5887703 21.2374387 20.5562299 21.2300001 20.5250001L21.2050001 17.4600001z"/>
    <rect width="24" height="24"/>
  </g>
</svg>
