<svg xmlns="http://www.w3.org/2000/svg" width="24" height="24" viewBox="0 0 24 24">
  <g fill="none" fill-rule="evenodd">
    <path fill="#000" fill-rule="nonzero" d="M21.1600001,8.96000004 C21.1646836,8.93018283 21.1646836,8.89981724 21.1600001,8.87000004 L21.1600001,8.87000004 C21.1591107,8.83073779 21.1469624,8.79255725 21.1250001,8.76000004 L21.1250001,8.76000004 L18.0000001,3.90500002 C17.9523349,3.8360459 17.8738251,3.7949999 17.7900001,3.7949999 L6.21500003,3.7949999 C6.131175,3.7949999 6.05266522,3.8360459 6.00500003,3.90500002 L2.85500001,8.72500004 L2.85500001,8.72500004 C2.83303771,8.75755725 2.82088936,8.79573779 2.82000001,8.83500004 L2.82000001,8.83500004 C2.81531647,8.86481724 2.81531647,8.89518283 2.82000001,8.92500004 L2.82000001,8.92500004 C2.82000001,8.92500004 2.82000001,8.92500004 2.82000001,8.95500004 L11.805,20.1150001 C11.8534514,20.1724989 11.9248093,20.2056833 12.0000001,20.2056833 C12.0751908,20.2056833 12.1465487,20.1724989 12.1950001,20.1150001 L21.1300001,9.00000004 C21.1300001,9.00000004 21.1300001,9.00000004 21.1300001,8.97000004 L21.1300001,8.97000004 C21.1372889,8.96123899 21.1489124,8.95736448 21.1600001,8.96000004 Z M8.19500003,9.11000004 L11.415,18.8350001 L3.59000001,9.11000004 L8.19500003,9.11000004 Z M15.2800001,9.11000004 L12.0000001,19.0000001 L8.72000004,9.11000004 L15.2800001,9.11000004 Z M8.87500004,8.61000004 L12.0000001,4.46000002 L15.1250001,8.61000004 L8.87500004,8.61000004 Z M15.8050001,9.11000004 L20.4100001,9.11000004 L12.5500001,18.8750001 L15.8050001,9.11000004 Z M20.4700001,8.61000004 L15.7500001,8.61000004 L12.5000001,4.29500002 L17.6500001,4.29500002 L20.4700001,8.61000004 Z M6.35000003,4.29500002 L11.5,4.29500002 L8.25000003,8.61000004 L3.53000001,8.61000004 L6.35000003,4.29500002 Z"/>
    <rect width="24" height="24"/>
  </g>
</svg>
