<svg xmlns="http://www.w3.org/2000/svg" width="24" height="24" viewBox="0 0 24 24">
  <g fill="none" fill-rule="evenodd">
    <g fill="#000" fill-rule="nonzero" transform="translate(3 3.5)">
      <path d="M16.9000001,7.47000003 L16.9000001,1.47000001 C16.9000001,0.779644066 16.340356,0.220000001 15.6500001,0.220000001 L8.92500004,0.220000001 C8.2346441,0.220000001 7.67500003,0.779644066 7.67500003,1.47000001 L7.67500003,7.15500003 C7.573656,7.07797651 7.48723714,6.98308521 7.42000003,6.87500003 L6.55000003,5.37500002 C6.27114317,4.89610952 5.75916249,4.60110206 5.20500002,4.60000002 L1.53500001,4.60000002 C0.687897707,4.61087905 0.00537819754,5.29784494 -4.44089212e-16,6.14500003 L-4.44089212e-16,15.2550001 C-4.44089212e-16,16.1110414 0.693958641,16.8050001 1.55000001,16.8050001 L16.4650001,16.8050001 C16.8760856,16.8050001 17.2703342,16.641697 17.5610156,16.3510156 C17.851697,16.0603342 18.0150001,15.6660856 18.0150001,15.2550001 L18.0150001,8.95000004 C18.0115879,8.26435345 17.5581022,7.66241732 16.9000001,7.47000003 Z M8.17500003,1.47000001 C8.17500003,1.05578644 8.51078647,0.720000003 8.92500004,0.720000003 L15.6500001,0.720000003 C16.0642136,0.720000003 16.4000001,1.05578644 16.4000001,1.47000001 L16.4000001,7.40000003 L8.33000003,7.40000003 C8.28000003,7.40000003 8.22500003,7.40000003 8.17500003,7.40000003 L8.17500003,1.47000001 Z M17.5000497,15.2550001 C17.5000497,15.8348991 17.0298991,16.3050001 16.4500001,16.3050001 L1.53500001,16.3050001 C0.960967312,16.2967988 0.500000002,15.8290913 0.500000002,15.2550001 L0.500000002,6.14500003 C0.500000002,5.56428666 0.969293164,5.09275222 1.55000001,5.0899998 L5.22000002,5.0899998 C5.59536943,5.08975936 5.94231536,5.28992047 6.13000003,5.61500002 L7.00500003,7.11500003 C7.28295435,7.59235524 7.79262484,7.88712736 8.34500003,7.89000003 L16.4650001,7.89000003 C17.0429492,7.89823051 17.5055635,8.37201911 17.5000497,8.95000004 L17.5000497,15.2550001 Z"/>
      <path d="M8.22000003 11.675L2.38000001 11.675C2.24192882 11.675 2.13000001 11.5630712 2.13000001 11.425 2.13000001 11.2869289 2.24192882 11.175 2.38000001 11.175L8.22000003 11.175C8.35807122 11.175 8.47000004 11.2869289 8.47000004 11.425 8.47000004 11.5630712 8.35807122 11.675 8.22000003 11.675zM8.22000003 13.3050001L2.38000001 13.3050001C2.24192882 13.3050001 2.13000001 13.1930712 2.13000001 13.0550001 2.13000001 12.9169289 2.24192882 12.8050001 2.38000001 12.8050001L8.22000003 12.8050001C8.35807122 12.8050001 8.47000004 12.9169289 8.47000004 13.0550001 8.47000004 13.1930712 8.35807122 13.3050001 8.22000003 13.3050001z"/>
    </g>
    <rect width="24" height="24"/>
    <path fill="#000" fill-rule="nonzero" d="M15.4800001,8.45000006 L14.2500001,8.45000006 C14.1119289,8.45000006 14.0000001,8.56192888 14.0000001,8.70000007 C14.0000001,8.83807125 14.1119289,8.95000007 14.2500001,8.95000007 L14.9700001,8.95000007 L14.9700001,9.30000007 C14.9700001,9.43807126 15.0819289,9.55000007 15.2200001,9.55000007 C15.3580712,9.55000007 15.4700001,9.43807126 15.4700001,9.30000007 L15.4700001,8.95000007 L15.4700001,8.95000007 C15.9747093,8.91359954 16.3655828,8.49352021 16.3655828,7.98750006 C16.3655828,7.48147992 15.9747093,7.06140059 15.4700001,7.02500006 L14.9700001,7.02500006 C14.7331109,7.00033623 14.5531535,6.80066972 14.5531535,6.56250006 C14.5531535,6.3243304 14.7331109,6.12466388 14.9700001,6.10000005 L16.2000001,6.10000005 C16.3380712,6.10000005 16.4500001,5.98807124 16.4500001,5.85000005 C16.4500001,5.71192887 16.3380712,5.60000005 16.2000001,5.60000005 L15.4700001,5.60000005 L15.4700001,5.25000005 C15.4700001,5.11192886 15.3580712,5.00000005 15.2200001,5.00000005 C15.0819289,5.00000005 14.9700001,5.11192886 14.9700001,5.25000005 L14.9700001,5.60000005 L14.9700001,5.60000005 C14.4652908,5.63640058 14.0744173,6.05647991 14.0744173,6.56250006 C14.0744173,7.0685202 14.4652908,7.48859953 14.9700001,7.52500006 L15.4700001,7.52500006 C15.7068892,7.54966389 15.8868467,7.7493304 15.8868467,7.98750006 C15.8868467,8.22566972 15.7068892,8.42533624 15.4700001,8.45000006 L15.4800001,8.45000006 Z"/>
  </g>
</svg>
