<svg xmlns="http://www.w3.org/2000/svg" width="24" height="24" viewBox="0 0 24 24">
  <g fill="none" fill-rule="evenodd">
    <rect width="24" height="24"/>
    <path fill="#000" fill-rule="nonzero" d="M11.235,11.75 C10.2438359,11.6986279 9.46653371,10.8799946 9.46653371,9.88750004 C9.46653371,8.89500549 10.2438359,8.07637223 11.235,8.02500003 L14.875,8.02500003 C15.0130713,8.02500003 15.1250001,7.91307122 15.1250001,7.77500003 C15.1250001,7.63692884 15.0130713,7.52500003 14.875,7.52500003 L12.2500001,7.52500003 L12.2500001,6.00000003 C12.2500001,5.86192884 12.1380712,5.75000002 12,5.75000002 C11.8619289,5.75000002 11.75,5.86192884 11.75,6.00000003 L11.75,7.52500003 L11.25,7.52500003 C9.98745366,7.58309805 8.99371411,8.62361763 8.99371411,9.88750004 C8.99371411,11.1513825 9.98745366,12.191902 11.25,12.25 L12.7800001,12.25 C13.7711642,12.3013722 14.5484664,13.1200055 14.5484664,14.1125001 C14.5484664,15.1049946 13.7711642,15.9236279 12.7800001,15.9750001 L9.12500004,15.9750001 C8.98692885,15.9750001 8.87500004,16.0869289 8.87500004,16.2250001 C8.87500004,16.3630713 8.98692885,16.4750001 9.12500004,16.4750001 L11.75,16.4750001 L11.75,17.9750001 C11.75,18.1130713 11.8619289,18.2250001 12,18.2250001 C12.1380712,18.2250001 12.2500001,18.1130713 12.2500001,17.9750001 L12.2500001,16.5000001 L12.7500001,16.5000001 C14.0125464,16.4419021 15.006286,15.4013825 15.006286,14.1375001 C15.006286,12.8736176 14.0125464,11.8330981 12.7500001,11.775 L11.235,11.75 Z"/>
    <path fill="#000" fill-rule="nonzero" d="M12.0000001,2.75000001 C6.89136609,2.75000001 2.75000001,6.89136609 2.75000001,12.0000001 C2.75000001,17.108634 6.89136609,21.25 12.0000001,21.25 C17.108634,21.25 21.25,17.108634 21.25,12.0000001 C21.2444886,6.89365075 17.1063493,2.75551146 12.0000001,2.75000001 Z M12.0000001,20.75 C7.16750847,20.75 3.25000001,16.8324916 3.25000001,12.0000001 C3.25000001,7.16750847 7.16750847,3.25000001 12,3.25000001 C16.8324916,3.25000001 20.75,7.16750847 20.75,12 C20.7444893,16.8302071 16.8302071,20.7444893 12.0000001,20.75 Z"/>
  </g>
</svg>
