<svg xmlns="http://www.w3.org/2000/svg" width="24" height="24" viewBox="0 0 24 24">
  <g fill="none" fill-rule="evenodd">
    <path fill="#000" fill-rule="nonzero" d="M11.47,9.90500004 L13.9700001,9.90500004 C14.1080712,9.90500004 14.2200001,9.79307123 14.2200001,9.65500004 C14.2200001,9.51692885 14.1080712,9.40500004 13.9700001,9.40500004 L12.2450001,9.40500004 L12.2450001,8.43000004 C12.2450001,8.29192885 12.1330712,8.18000003 11.995,8.18000003 C11.8580458,8.18266009 11.7476601,8.29304581 11.745,8.43000004 L11.745,9.40500004 L11.47,9.40500004 C10.5628371,9.45410766 9.85243245,10.2040089 9.85243245,11.1125 C9.85243245,12.0209912 10.5628371,12.7708924 11.47,12.8200001 L12.5250001,12.8200001 C13.1932646,12.8200001 13.7350001,13.3617355 13.7350001,14.0300001 C13.7350001,14.6982646 13.1932646,15.2400001 12.5250001,15.2400001 L10,15.2400001 C9.86192885,15.2400001 9.75000004,15.3519289 9.75000004,15.4900001 C9.75000004,15.6280713 9.86192885,15.7400001 10,15.7400001 L11.73,15.7400001 L11.73,16.7150001 C11.7326601,16.8519543 11.8430458,16.96234 11.98,16.9650001 C12.1180712,16.9650001 12.2300001,16.8530713 12.2300001,16.7150001 L12.2300001,15.7400001 L12.5100001,15.7400001 C13.454407,15.7400001 14.2200001,14.974407 14.2200001,14.0300001 C14.2200001,13.0855931 13.454407,12.3200001 12.5100001,12.3200001 L11.47,12.3200001 C10.8332364,12.2790038 10.3377416,11.7505821 10.3377416,11.1125 C10.3377416,10.474418 10.8332364,9.94599631 11.47,9.90500004 L11.47,9.90500004 Z"/>
    <path fill="#000" fill-rule="nonzero" d="M14.4350001,3.52500001 C12.974949,2.4953174 11.0250511,2.4953174 9.56500004,3.52500001 C6.49436316,5.73998103 4.68537622,9.3039275 4.71000002,13.0900001 L4.71000002,13.7400001 C4.71000002,17.8800001 7.93500003,21.2400001 11.9,21.2400001 L12.1000001,21.2400001 C16.0650001,21.2400001 19.2900001,17.8700001 19.2900001,13.7400001 L19.2900001,13.0900001 C19.3146239,9.3039275 17.5056369,5.73998103 14.4350001,3.52500001 Z M18.7900001,13.7400001 C18.8248063,15.5621312 18.1341792,17.3234265 16.8701146,18.6362532 C15.60605,19.94908 13.8721435,20.7058463 12.0500001,20.7400001 L11.9,20.7400001 C8.21500003,20.7400001 5.21000002,17.5950001 5.21000002,13.7400001 L5.21000002,13.0900001 C5.18708252,9.46681557 6.91755007,6.05617392 9.85500004,3.93500002 C11.1390765,3.02139027 12.8609236,3.02139027 14.1450001,3.93500002 C17.08245,6.05617392 18.8129176,9.46681557 18.7900001,13.0900001 L18.7900001,13.7400001 Z"/>
    <rect width="24" height="24"/>
  </g>
</svg>
