<svg xmlns="http://www.w3.org/2000/svg" width="24" height="24" viewBox="0 0 24 24">
  <g fill="none" fill-rule="evenodd">
    <path fill="#000" fill-rule="nonzero" d="M12.0000001,2.75000001 C6.89136609,2.75000001 2.75000001,6.89136609 2.75000001,12.0000001 C2.75000001,17.108634 6.89136609,21.25 12,21.25 C17.108634,21.25 21.25,17.108634 21.25,12.0000001 C21.2444886,6.89365075 17.1063493,2.75551146 12.0000001,2.75000001 Z M12.0000001,20.75 C7.16750847,20.75 3.25000001,16.8324916 3.25000001,12.0000001 C3.25000001,7.16750847 7.16750847,3.25000001 12,3.25000001 C16.8324916,3.25000001 20.75,7.16750847 20.75,12 C20.7444893,16.8302071 16.8302071,20.7444893 12.0000001,20.75 Z"/>
    <path fill="#000" fill-rule="nonzero" d="M12,6.33500002 C13.5176418,6.33775188 14.7472482,7.56735828 14.75,9.08500004 C14.75,9.22307123 14.8619289,9.33500002 15.0000001,9.33500002 C15.1380713,9.33500002 15.25,9.22307123 15.25,9.08500004 C15.25,7.29007459 13.7949255,5.83500002 12,5.83500002 C10.2050746,5.83500002 8.75000003,7.29007459 8.75000003,9.08500004 L8.75000003,10.12 L6.50000003,10.12 C6.36192884,10.12 6.25000003,10.2319289 6.25000003,10.37 C6.25266008,10.5069543 6.3630458,10.61734 6.50000003,10.62 L8.75000003,10.62 L8.75000003,13.3800001 L6.50000003,13.3800001 C6.3630458,13.3826601 6.25266008,13.4930458 6.25000003,13.6300001 C6.25000003,13.7680712 6.36192884,13.8800001 6.50000003,13.8800001 L8.75000003,13.8800001 L8.75000003,15.0850001 C8.75000003,16.8799255 10.2050746,18.335 12,18.335 C13.7949255,18.335 15.25,16.8799255 15.25,15.0850001 C15.25,14.9469289 15.1380713,14.835 15.0000001,14.835 C14.8619289,14.835 14.75,14.9469289 14.75,15.0850001 C14.75,16.6037831 13.5187831,17.835 12.0000001,17.835 C10.481217,17.835 9.25000003,16.6037831 9.25000003,15.0850001 L9.25000003,13.8800001 L12,13.8800001 C12.1380712,13.8800001 12.25,13.7680712 12.25,13.6300001 C12.25,13.4919289 12.1380712,13.3800001 12,13.3800001 L9.25000003,13.3800001 L9.25000003,10.62 L12,10.62 C12.1380712,10.62 12.25,10.5080712 12.25,10.37 C12.25,10.2319289 12.1380712,10.12 12,10.12 L9.25000003,10.12 L9.25000003,9.08500004 C9.25275189,7.56735828 10.4823583,6.33775188 12,6.33500002 Z"/>
    <rect width="24" height="24"/>
  </g>
</svg>
