<svg xmlns="http://www.w3.org/2000/svg" width="24" height="24" viewBox="0 0 24 24">
  <g fill="none" fill-rule="evenodd">
    <path fill="#000" fill-rule="nonzero" d="M18.3550001,17.8200001 L16.8550001,17.8200001 L16.8550001,17.7750001 C16.8795467,17.7624559 16.9015792,17.7455078 16.9200001,17.7250001 C18.9025137,15.2730931 19.9890443,12.2181077 20,9.06500004 C20.0003372,8.13210638 19.549559,7.25662803 18.7900001,6.71500003 L16.9000001,5.36500002 L16.9000001,5.36500002 L16.9000001,4.36500002 C16.9000001,3.47306014 16.1769399,2.75000001 15.2850001,2.75000001 L8.28500003,2.75000001 C7.39306016,2.75000001 6.67000003,3.47306014 6.67000003,4.36500002 L6.67000003,17.8650001 L5.17000002,17.8650001 C4.54597469,17.8480948 4.02441269,18.3362233 4.00000002,18.9600001 L4.00000002,20.1300001 C4.00000002,20.7576572 4.5073489,21.2672472 5.13500002,21.2700111 L18.3550001,21.2700111 C18.6582123,21.27133 18.9494619,21.1518105 19.164336,20.9378747 C19.3792101,20.723939 19.5,20.4332152 19.5,20.1300001 L19.5,18.9600001 C19.5,18.656785 19.3792101,18.3660612 19.164336,18.1521254 C18.9494619,17.9381896 18.6582123,17.8186702 18.3550001,17.8200001 Z M18.5000001,7.12000003 C19.1278155,7.56884959 19.5002512,8.29323709 19.5000002,9.06500004 C19.4989841,11.9231266 18.5786614,14.7051305 16.8750001,17 L16.8750001,6.00000002 L18.5000001,7.12000003 Z M7.12000003,4.34500002 C7.12000003,3.72920252 7.61920254,3.23000001 8.23500003,3.23000001 L15.2600001,3.23000001 C15.8757976,3.23000001 16.3750001,3.72920252 16.3750001,4.34500002 L16.3750001,17.8150001 L7.12000003,17.8150001 L7.12000003,4.34500002 Z M19,20.1300001 C19,20.4889852 18.7089852,20.7800001 18.3500001,20.7800001 L5.14000002,20.7800001 C4.78492622,20.7745368 4.50000002,20.4851159 4.50000002,20.1300001 L4.50000002,18.9600001 C4.50272144,18.6021483 4.79214824,18.3127215 5.15000002,18.3100001 L18.3550001,18.3100001 C18.7128519,18.3127215 19.0022787,18.6021483 19.0050001,18.9600001 L19,20.1300001 Z"/>
    <path fill="#000" fill-rule="nonzero" d="M13.9500001 4.76000002L9.54500004 4.76000002C8.91539542 4.76000002 8.40500004 5.27039541 8.40500004 5.90000002L8.40500004 7.84000003C8.39963434 8.14579711 8.51736821 8.44092521 8.73174401 8.65906199 8.94611982 8.87719877 9.2391559 9.00004711 9.54500004 9.00000005L13.9500001 9.00000005C14.5796047 9.00000005 15.0900001 8.48960465 15.0900001 7.86000003L15.0900001 5.90000002C15.0900001 5.27039541 14.5796047 4.76000002 13.9500001 4.76000002L13.9500001 4.76000002zM14.5900001 7.84000003C14.5954145 8.01317672 14.530384 8.18114908 14.4097689 8.30553345 14.2891538 8.42991781 14.1232613 8.50008466 13.9500001 8.50000011L9.54500004 8.50000011C9.1915378 8.50000011 8.90500004 8.21346227 8.90500004 7.86000003L8.90500004 5.90000002C8.90500004 5.54653778 9.1915378 5.26000002 9.54500004 5.26000002L13.9500001 5.26000002C14.3034623 5.26000002 14.5900001 5.54653778 14.5900001 5.90000002L14.5900001 7.84000003zM11.97 10.955C11.9229108 10.877109 11.8385188 10.8295131 11.7475 10.8295131 11.6564813 10.8295131 11.5720893 10.877109 11.525 10.955L10.285 13.3800001C9.93198746 14.0699633 10.1101658 14.9128592 10.7122023 15.4009363 11.3142388 15.8890133 12.1757613 15.8890133 12.7777978 15.4009363 13.3798343 14.9128592 13.5580126 14.0699633 13.2050001 13.3800001L11.97 10.955zM12.5550001 14.9550001C12.1579514 15.3449114 11.5374123 15.3911775 11.0869329 15.0644562 10.6364535 14.7377349 10.4876946 14.1335164 10.735 13.635L11.735 11.635 12.7350001 13.635C12.9530921 14.0616028 12.8811692 14.5790475 12.5550001 14.9300001L12.5550001 14.9550001z"/>
    <rect width="24" height="24"/>
  </g>
</svg>
