<svg xmlns="http://www.w3.org/2000/svg" width="24" height="24" viewBox="0 0 24 24">
  <g fill="none" fill-rule="evenodd">
    <path fill="#000" fill-rule="nonzero" d="M21.0900001 20.1100001L20.2750001 17.0600001C20.1886544 16.73028 19.8908385 16.5002429 19.5500001 16.5000001L18.1250001 16.5000001C18.170019 16.3550825 18.170019 16.1999176 18.1250001 16.0550001L17.3350001 13.0000001C17.2456316 12.6722915 16.949656 12.4436758 16.6100001 12.4400001L15.0650001 12.4400001C15.1181434 12.2993432 15.126869 12.1457712 15.0900001 12.0000001L14.2750001 8.95000004C14.1882937 8.62123573 13.8899993 8.3928862 13.5500001 8.39498548L10.42 8.39498548C10.0805918 8.39464097 9.78324605 8.62226427 9.69500004 8.95000004L8.88500004 12.0000001C8.84006985 12.1432257 8.84006985 12.2967744 8.88500004 12.4400001L7.50000003 12.4400001C7.15174674 12.4309889 6.84313716 12.6629638 6.75500003 13.0000001L5.94000002 16.0450001C5.89498112 16.1899176 5.89498112 16.3450825 5.94000002 16.4900001L4.44000002 16.4900001C4.10059177 16.489641 3.80324602 16.7172643 3.71500002 17.0450001L2.90000001 20.0950001C2.8392982 20.3204388 2.88704262 20.5612881 3.02915365 20.7465224 3.17126468 20.9317568 3.39153212 21.0402471 3.62500002 21.0400001L8.38000003 21.0400001C8.61970327 21.0519821 8.85049909 20.9477517 9.00000004 20.7600001L9.00000004 20.7600001 9.00000004 20.7600001C9.1411103 20.9461842 9.36138393 21.0553955 9.59500004 21.0550012L14.3500001 21.0550012C14.5832549 21.0538591 14.8028856 20.9449666 14.9450001 20.7600001L14.9450001 20.7150001C14.9532349 20.7311046 14.9633016 20.7462046 14.9750001 20.7600001 15.1161103 20.9461842 15.336384 21.0553955 15.5700001 21.0550012L20.3250001 21.0550012C20.558468 21.0552471 20.7787354 20.9467568 20.9208465 20.7615224 21.0629575 20.5762881 21.1107019 20.3354388 21.0500001 20.1100001L21.0900001 20.1100001zM16.8500001 13.1400001L17.6600001 16.1900001C17.6803816 16.2640071 17.6656341 16.343275 17.6200001 16.4050001 17.5733191 16.4685864 17.4988777 16.505807 17.4200001 16.5050129L12.6650001 16.5050129C12.5861224 16.505807 12.5116811 16.4685864 12.4650001 16.4050001 12.419366 16.343275 12.4046185 16.2640071 12.4250001 16.1900001L13.2350001 13.1400001C13.267657 13.0315541 13.3667568 12.9567237 13.4800001 12.9550001L16.6100001 12.9550001C16.7219387 12.9572916 16.8192888 13.0323324 16.8500001 13.1400001L16.8500001 13.1400001zM12.0450001 15.6750001L11.335 13.0000001 11.305 12.9400001 12.7800001 12.9400001C12.7780281 12.9599514 12.7780281 12.9800487 12.7800001 13.0000001L12.0450001 15.6750001zM9.41000004 12.3600001C9.36105631 12.297908 9.34436856 12.2163234 9.36500004 12.1400001L10.18 9.09500004C10.2076976 8.98532182 10.3068843 8.9088654 10.42 8.91000004L13.5500001 8.91000004C13.6637385 8.90698149 13.7639659 8.98424012 13.7900001 9.09500004L14.6050001 12.1400001C14.6251593 12.214864 14.6094438 12.2948444 14.5624569 12.3565148 14.51547 12.4181851 14.4425295 12.4545655 14.3650001 12.4550294L9.61000004 12.4550294C9.53218029 12.4561913 9.45824482 12.4210719 9.41000004 12.3600001L9.41000004 12.3600001zM6.46500003 16.4050001C6.41936601 16.343275 6.40461849 16.2640071 6.42500003 16.1900001L7.23500003 13.1400001C7.26765701 13.0315541 7.36675682 12.9567237 7.48000003 12.9550001L10.61 12.9550001C10.7219386 12.9572916 10.8192888 13.0323324 10.85 13.1400001L11.66 16.1900001C11.6803816 16.2640071 11.6656341 16.343275 11.62 16.4050001 11.573319 16.4685864 11.4988777 16.505807 11.42 16.5050129L6.66500003 16.5050129C6.58612238 16.505807 6.51168103 16.4685864 6.46500003 16.4050001L6.46500003 16.4050001zM9.00000004 19.6700001L8.30500003 17.0650001C8.30500003 17.0400001 8.30500003 17.0250001 8.28000003 17.0050001L9.72000004 17.0050001C9.72000004 17.0050001 9.72000004 17.0400001 9.69500004 17.0600001L9.00000004 19.6700001zM8.59000004 20.4550001C8.54331903 20.5185864 8.46887768 20.5558071 8.39000003 20.5550129L3.63500002 20.5550129C3.5581946 20.5526461 3.48654586 20.5157829 3.4399766 20.4546608 3.39340734 20.3935386 3.3768836 20.3146754 3.39500001 20.2400001L4.21000002 17.1900001C4.23398823 17.0772476 4.33475161 16.9974766 4.45000002 17.0000001L7.58000003 17.0000001C7.6931158 16.9988654 7.79230251 17.0753218 7.82000003 17.1850001L8.63500004 20.2350001C8.6573479 20.311261 8.64049776 20.3936394 8.59000004 20.4550001L8.59000004 20.4550001zM14.5600001 20.4550001C14.5154722 20.5184556 14.4425151 20.5558696 14.3650001 20.5550149L9.61000004 20.5550149C9.53230994 20.5541357 9.45925214 20.5178994 9.41155208 20.4565707 9.36385202 20.3952421 9.34671408 20.3155125 9.36500004 20.2400001L10.18 17.1900001C10.2076976 17.0803218 10.3068843 17.0038654 10.42 17.0050001L13.5500001 17.0050001C13.6637385 17.0019815 13.7639659 17.0792402 13.7900001 17.1900001L14.6050001 20.2400001C14.625601 20.3147285 14.6088406 20.3948059 14.5600001 20.4550001L14.5600001 20.4550001zM15.0000001 19.7250001L14.2900001 17.0600001C14.2900001 17.0600001 14.2900001 17.0250001 14.2650001 17.0050001L15.7350001 17.0050001C15.7350001 17.0050001 15.7350001 17.0400001 15.7100001 17.0600001L15.0000001 19.7250001zM20.5750001 20.4550001C20.5304722 20.5184556 20.4575151 20.5558696 20.3800001 20.5550149L15.6100001 20.5550149C15.53231 20.5541357 15.4592522 20.5178994 15.4115521 20.4565707 15.363852 20.3952421 15.3467141 20.3155125 15.3650001 20.2400001L16.1800001 17.1900001C16.2076976 17.0803218 16.3068843 17.0038654 16.4200001 17.0050001L19.5500001 17.0050001C19.6637385 17.0019815 19.7639659 17.0792402 19.7900001 17.1900001L20.6050001 20.2400001C20.625601 20.3147285 20.6088406 20.3948059 20.5600001 20.4550001L20.5750001 20.4550001zM12 6.28500003C12.1380712 6.28500003 12.25 6.17307121 12.25 6.03500003L12.25 3.19500001C12.25 3.05692883 12.1380712 2.94500001 12 2.94500001 11.8619289 2.94500001 11.75 3.05692883 11.75 3.19500001L11.75 6.03500003C11.75 6.17307121 11.8619289 6.28500003 12 6.28500003zM16.9050001 8.37000003C16.9710591 8.36961532 17.0341635 8.34257058 17.0800001 8.29500003L19.0800001 6.29500003C19.1434147 6.23158539 19.168181 6.13915653 19.1449696 6.05253051 19.1217582 5.96590449 19.0540956 5.89824187 18.9674696 5.8750305 18.8808436 5.85181913 18.7884147 5.87658538 18.7250001 5.94000002L16.7250001 7.94000003C16.6297144 8.03721091 16.6297144 8.19278916 16.7250001 8.29000003 16.771863 8.33969949 16.8367068 8.36851895 16.9050001 8.37000003zM6.76000003 8.29500003C6.80769417 8.3428599 6.87243324 8.36983451 6.94000003 8.37000003 7.00594235 8.36906077 7.06884241 8.3421036 7.11500003 8.29500003 7.16333864 8.24963337 7.19075935 8.18629299 7.19075935 8.12000003 7.19075935 8.05370708 7.16333864 7.9903667 7.11500003 7.94500003L5.11500002 5.94500002C5.01778914 5.84971431 4.8622109 5.84971431 4.76500002 5.94500002 4.71767186 5.99194167 4.69105044 6.05584064 4.69105044 6.12250003 4.69105044 6.18915941 4.71767186 6.25305838 4.76500002 6.30000003L6.76000003 8.29500003z"/>
    <rect width="24" height="24"/>
  </g>
</svg>
