<svg xmlns="http://www.w3.org/2000/svg" width="24" height="24" viewBox="0 0 24 24">
  <g fill="none" fill-rule="evenodd">
    <path fill="#000" fill-rule="nonzero" d="M12.2500001,12.0800001 L12.2500001,11.265 L13.1950001,11.265 C14.3161381,11.265 15.2250001,10.3561381 15.2250001,9.23500004 L15.2250001,7.85500003 L13.8500001,7.85500003 C13.7459419,7.85896451 13.6423227,7.87066345 13.5400001,7.89000003 C14.4826507,6.75275787 14.4001778,5.08376692 13.3500001,4.04500002 L12.0000001,2.69500001 L10.65,4.04500002 C9.60051179,5.08208115 9.51801511,6.74938247 10.46,7.88500003 C10.3639417,7.86980371 10.267135,7.85978922 10.17,7.85500003 L8.79500004,7.85500003 L8.79500004,9.23500004 C8.79500004,10.3561381 9.703862,11.265 10.825,11.265 L11.75,11.265 L11.75,12.0800001 C9.25081518,12.2154358 7.31394992,14.3163418 7.3816926,16.8182769 C7.44943527,19.3202119 9.49714811,21.3132311 12.0000001,21.3132311 C14.502852,21.3132311 16.5505648,19.3202119 16.6183075,16.8182769 C16.6860502,14.3163418 14.7491849,12.2154358 12.2500001,12.0800001 L12.2500001,12.0800001 Z M14.7250001,8.35500003 L14.7250001,9.23500004 C14.7250001,10.0799957 14.0399957,10.765 13.1950001,10.765 L12.3200001,10.765 L12.3200001,9.89000004 C12.3200001,9.04419174 13.0041962,8.35775511 13.8500001,8.35500003 L14.7250001,8.35500003 Z M11,4.40000001 L12.0000001,3.40000001 L13.0000001,4.40000001 C13.9255691,5.32877726 13.9255691,6.8312228 13.0000001,7.76000003 L12.0000001,8.76000004 L11,7.76000003 C10.074431,6.8312228 10.074431,5.32877726 11,4.40000001 L11,4.40000001 Z M11.7,10.765 L10.825,10.765 C9.98000437,10.765 9.29500004,10.0799957 9.29500004,9.23500004 L9.29500004,8.35500003 L10.17,8.35500003 C11.0158039,8.35775511 11.7,9.04419174 11.7,9.89000004 L11.7,10.765 Z M12.0000001,20.8050001 C10.3331609,20.8050001 8.83054399,19.8006512 8.19314034,18.2604988 C7.5557367,16.7203464 7.9091438,14.9478693 9.08849251,13.7699518 C10.2678412,12.5920344 12.0407462,12.2407799 13.5801234,12.8800533 C15.1195007,13.5193267 16.1220229,15.0231621 16.1200031,16.6900001 C16.1144931,18.9623182 14.2723232,20.8022524 12.0000001,20.8050001 Z"/>
    <path fill="#000" fill-rule="nonzero" d="M11.725,15.4150001 L13.0350001,15.4150001 C13.1730712,15.4150001 13.2850001,15.3030713 13.2850001,15.1650001 C13.2850001,15.0269289 13.1730712,14.9150001 13.0350001,14.9150001 L12.2500001,14.9150001 L12.2500001,14.5250001 C12.2500001,14.3869289 12.1380712,14.2750001 12.0000001,14.2750001 C11.8619289,14.2750001 11.75,14.3869289 11.75,14.5250001 L11.75,14.9150001 L11.725,14.9150001 C11.1658117,14.9150001 10.7125,15.3683118 10.7125,15.9275001 C10.7125,16.4866884 11.1658117,16.9400001 11.725,16.9400001 L12.2750001,16.9400001 C12.5511424,16.9400001 12.7750001,17.1638577 12.7750001,17.4400001 C12.7750001,17.7161424 12.5511424,17.9400001 12.2750001,17.9400001 L10.965,17.9400001 C10.8269289,17.9400001 10.715,18.0519289 10.715,18.1900001 C10.715,18.3280713 10.8269289,18.4400001 10.965,18.4400001 L11.75,18.4400001 L11.75,18.8300001 C11.75,18.9680713 11.8619289,19.0800001 12.0000001,19.0800001 C12.1380712,19.0800001 12.2500001,18.9680713 12.2500001,18.8300001 L12.2500001,18.4400001 L12.2750001,18.4400001 C12.8272848,18.4400001 13.2750001,17.9922848 13.2750001,17.4400001 C13.2750001,16.8877153 12.8272848,16.4400001 12.2750001,16.4400001 L11.725,16.4400001 C11.4419541,16.4400001 11.2125,16.210546 11.2125,15.9275001 C11.2125,15.6444541 11.4419541,15.4150001 11.725,15.4150001 L11.725,15.4150001 Z"/>
    <rect width="24" height="24"/>
  </g>
</svg>
