<svg xmlns="http://www.w3.org/2000/svg" width="24" height="24" viewBox="0 0 24 24">
  <g fill="none" fill-rule="evenodd">
    <path fill="#000" fill-rule="nonzero" d="M16.8700001,8.46500004 L16.8700001,5.34000002 L17.4350001,5.34000002 C18.1435475,5.337259 18.7172591,4.76354745 18.7200001,4.05500002 L18.7200001,3.89500002 C18.7200001,3.18531411 18.144686,2.61000001 17.4350001,2.61000001 L6.56500003,2.61000001 C5.85531412,2.61000001 5.28000002,3.18531411 5.28000002,3.89500002 L5.28000002,4.05500002 C5.28274105,4.76354745 5.8564526,5.337259 6.56500003,5.34000002 L7.06500003,5.34000002 L7.06500003,8.46500004 C7.0770235,10.0502152 8.07437587,11.4604714 9.56500004,12.0000001 C8.07437587,12.5395287 7.0770235,13.9497849 7.06500003,15.5350001 L7.06500003,18.6600001 L6.56500003,18.6600001 C5.8564526,18.6627411 5.28274105,19.2364527 5.28000002,19.9450001 L5.28000002,20.1050001 C5.28000002,20.4458033 5.41538356,20.7726481 5.65636781,21.0136323 C5.89735206,21.2546165 6.22419684,21.3900001 6.56500003,21.3900001 L17.4350001,21.3900001 C17.7758033,21.3900001 18.102648,21.2546165 18.3436323,21.0136323 C18.5846165,20.7726481 18.7200001,20.4458033 18.7200001,20.1050001 L18.7200001,19.9450001 C18.7172591,19.2364527 18.1435475,18.6627411 17.4350001,18.6600001 L16.8700001,18.6600001 L16.8700001,15.5350001 C16.8579766,13.9497849 15.8606242,12.5395287 14.3700001,12.0000001 C15.8606242,11.4604714 16.8579766,10.0502152 16.8700001,8.46500004 Z M5.78000002,4.05500002 L5.78000002,3.89500002 C5.78272823,3.46259159 6.1325916,3.11272822 6.56500003,3.11000001 L17.4350001,3.11000001 C17.8674085,3.11272822 18.2172719,3.46259159 18.2200001,3.89500002 L18.2200001,4.05500002 C18.2172719,4.48740844 17.8674085,4.83727181 17.4350001,4.84000002 L6.56500003,4.84000002 C6.1325916,4.83727181 5.78272823,4.48740844 5.78000002,4.05500002 Z M18.2200001,19.9450001 L18.2200001,20.1050001 C18.2172719,20.5374085 17.8674085,20.8872719 17.4350001,20.8900001 L6.56500003,20.8900001 C6.1325916,20.8872719 5.78272823,20.5374085 5.78000002,20.1050001 L5.78000002,19.9450001 C5.78272823,19.5125917 6.1325916,19.1627283 6.56500003,19.1600001 L17.4350001,19.1600001 C17.8674085,19.1627283 18.2172719,19.5125917 18.2200001,19.9450001 L18.2200001,19.9450001 Z M13.0000001,11.75 C12.8619289,11.75 12.7500001,11.8619289 12.7500001,12 C12.7500001,12.1380712 12.8619289,12.2500001 13.0000001,12.2500001 C14.8380709,12.227748 16.3475755,13.6969991 16.3750001,15.5350001 L16.3750001,18.6600001 L7.57000003,18.6600001 L7.57000003,15.5350001 C7.59742465,13.6969991 9.10692921,12.227748 10.945,12.2500001 C11.0830712,12.2500001 11.195,12.1380712 11.195,12 C11.195,11.8619289 11.0830712,11.75 10.945,11.75 C9.10692921,11.7722521 7.59742465,10.303001 7.57000003,8.46500004 L7.57000003,5.34000002 L16.3700001,5.34000002 L16.3700001,8.46500004 C16.3425736,10.3010276 14.8361292,11.7694757 13.0000001,11.75 Z"/>
    <rect width="24" height="24"/>
  </g>
</svg>
