<svg xmlns="http://www.w3.org/2000/svg" width="24" height="24" viewBox="0 0 24 24">
  <g fill="none" fill-rule="evenodd">
    <path fill="#000" fill-rule="nonzero" d="M12.0000001,3.14499424 C9.43652914,3.14481193 7.13286377,4.70998866 6.18880624,7.09329277 C5.24474871,9.47659689 5.85174242,12.1947233 7.72000003,13.9500001 L8.15000003,14.3850001 C8.80061326,15.0463651 9.20928353,15.9077434 9.31000004,16.8300001 L8.78000004,16.8300001 C8.64192885,16.8300001 8.53000004,16.9419289 8.53000004,17.0800001 C8.53000004,17.2180713 8.64192885,17.3300001 8.78000004,17.3300001 L9.37000004,17.3300001 L9.37000004,18.2250001 C9.37000004,19.677509 10.5474912,20.8550001 12.0000001,20.8550001 C13.4525089,20.8550001 14.6300001,19.677509 14.6300001,18.2250001 L14.6300001,17.3300001 L15.2200001,17.3300001 C15.3580713,17.3300001 15.4700001,17.2180713 15.4700001,17.0800001 C15.4700001,16.9419289 15.3580713,16.8300001 15.2200001,16.8300001 L14.6900001,16.8300001 C14.7907166,15.9077434 15.1993868,15.0463651 15.8500001,14.3850001 L16.2700001,13.9550001 C18.1460919,12.2036231 18.7596397,9.48274039 17.8167452,7.09569367 C16.8738507,4.70864695 14.566521,3.14152437 12.0000001,3.14499424 Z M14.1300001,18.2250001 C14.1300001,19.4013666 13.1763666,20.3550001 12,20.3550001 C10.8236335,20.3550001 9.87000004,19.4013666 9.87000004,18.2250001 L9.87000004,17.3300001 L14.1300001,17.3300001 L14.1300001,18.2250001 Z M11.5,16.8300001 L11.5,11.5 L12.5,11.5 L12.5,16.8300001 L11.5,16.8300001 Z M15.9000001,13.6000001 L15.4750001,14.0300001 C14.7305829,14.7852351 14.2696318,15.774249 14.1700001,16.8300001 L13.0000001,16.8300001 L13.0000001,11.5 L13.5000001,11.5 C14.0522848,11.5 14.5000001,11.0522848 14.5000001,10.5 C14.5000001,9.94771529 14.0522848,9.50000004 13.5000001,9.50000004 C12.9477153,9.50000004 12.5000001,9.94771529 12.5000001,10.5 L12.5000001,11 L11.5,11 L11.5,10.5 C11.5,9.94771529 11.0522848,9.50000004 10.5,9.50000004 C9.94771529,9.50000004 9.50000004,9.94771529 9.50000004,10.5 C9.50000004,11.0522848 9.94771529,11.5 10.5,11.5 L11,11.5 L11,16.8300001 L9.81000004,16.8300001 C9.7090047,15.7736041 9.24624959,14.7845092 8.50000004,14.0300001 L8.06500003,13.5900001 C6.89841529,12.5076885 6.23836643,10.9863122 6.2449505,9.39500004 C6.2463668,6.76858951 8.0271955,4.47690833 10.5718957,3.82688143 C13.1165959,3.17685453 15.7783311,4.33371204 17.0391379,6.63770865 C18.2999447,8.94170526 17.839339,11.8071888 15.9200001,13.6000001 L15.9000001,13.6000001 Z M13.0000001,10.5 C13.0000001,10.2238577 13.2238577,10 13.5000001,10 C13.7761424,10 14.0000001,10.2238577 14.0000001,10.5 C14.0000001,10.7761424 13.7761424,11 13.5000001,11 L13.0000001,11 L13.0000001,10.5 Z M11,11 L10.5,11 C10.2238577,11 10,10.7761424 10,10.5 C10,10.2238577 10.2238577,10 10.5,10 C10.7761424,10 11,10.2238577 11,10.5 L11,11 Z"/>
    <path fill="#000" fill-rule="nonzero" d="M11.28,18.8700001 L12.7200001,18.8700001 C12.8580712,18.8700001 12.9700001,18.7580713 12.9700001,18.6200001 C12.96734,18.4830459 12.8569543,18.3726601 12.7200001,18.3700001 L11.28,18.3700001 C11.1430458,18.3726601 11.0326601,18.4830459 11.03,18.6200001 C11.03,18.7580713 11.1419289,18.8700001 11.28,18.8700001 Z"/>
    <rect width="24" height="24"/>
  </g>
</svg>
