<svg xmlns="http://www.w3.org/2000/svg" width="24" height="24" viewBox="0 0 24 24">
  <g fill="none" fill-rule="evenodd">
    <path fill="#000" fill-rule="nonzero" d="M20.5550001,12.4700001 L20.5550001,12.4700001 C20.5604819,12.0495376 20.4680442,11.6335678 20.2850001,11.255 L18.4300001,7.42500003 L19.2800001,7.68000003 C19.3047646,7.68485302 19.3302356,7.68485302 19.3550001,7.68000003 C19.4642236,7.67908812 19.5607365,7.6087141 19.5950001,7.50500003 C19.6151084,7.44068229 19.6083998,7.37097054 19.5763951,7.31166779 C19.5443905,7.25236504 19.4898004,7.20849407 19.4250001,7.19000003 L13.5350001,5.41500002 C13.5350001,5.35000002 13.5350001,5.28500002 13.5350001,5.21500002 C13.5370457,4.49166827 13.0385165,3.86308949 12.3337257,3.70035343 C11.628935,3.53761737 10.9052883,3.88399595 10.59,4.53500002 L4.72000002,2.76000001 C4.65633752,2.73999841 4.58727086,2.74683011 4.5287606,2.77891637 C4.47025035,2.81100264 4.42735963,2.86556693 4.41000002,2.93000001 C4.37094714,3.06107043 4.44446467,3.19919429 4.57500002,3.24000001 L5.66000002,3.56500001 L3.71500002,7.56500003 C3.53461015,7.94252552 3.44391667,8.35663538 3.45000001,8.77500004 C3.45000001,8.77500004 3.45000001,8.77500004 3.45000001,8.77500004 C3.45000001,8.77500004 3.45000001,8.77500004 3.45000001,8.77500004 C3.45858549,9.219653 3.57527785,9.65553328 3.79000002,10.045 C4.18379877,10.7638064 4.90492191,11.2439324 5.72000002,11.33 L6.00000002,11.33 L6.28500003,11.33 C7.09824272,11.2423692 7.81718384,10.7624527 8.21000003,10.045 C8.63937539,9.27325862 8.66734036,8.34109293 8.28500003,7.54500003 L6.46000003,3.80500002 L10.46,5.01500002 C10.4548243,5.08156623 10.4548243,5.14843381 10.46,5.21500002 C10.4614792,5.96956603 11.0061239,6.61342887 11.75,6.74000003 L11.75,15.6750001 L11.59,15.6750001 C10.3515659,15.6789401 9.33358665,16.6529462 9.27500004,17.8900001 C7.89881409,18.300293 6.95411131,19.56396 6.95000003,21.0000001 C6.95000003,21.1380713 7.06192884,21.2500001 7.20000003,21.2500001 L16.8000001,21.2500001 C16.9380713,21.2500001 17.0500001,21.1380713 17.0500001,21.0000001 C17.0488531,19.5661672 16.1082152,18.3025024 14.7350001,17.8900001 C14.6765158,16.6548679 13.6614985,15.6815937 12.4250001,15.6750001 L12.2400001,15.6750001 L12.2400001,6.74500003 C12.7382715,6.66439673 13.166752,6.34769376 13.3900001,5.89500002 L17.6800001,7.18500003 L15.7150001,11.245 C15.5311791,11.6231208 15.4403254,12.0396765 15.4500001,12.4600001 L15.4500001,12.4600001 C15.4555089,12.9066658 15.5723712,13.3448996 15.7900001,13.7350001 C16.1837988,14.4538064 16.904922,14.9339324 17.7200001,15.0200001 C17.8132635,15.0251081 17.9067366,15.0251081 18.0000001,15.0200001 C18.0949348,15.0249805 18.1900654,15.0249805 18.2850001,15.0200001 C19.0982428,14.9323692 19.8171839,14.4524527 20.2100001,13.7350001 C20.4253138,13.3473183 20.5436781,12.9133159 20.5550001,12.4700001 Z M7.77500003,9.84000004 C7.46123022,10.4147312 6.88599358,10.7994674 6.23500003,10.87 C6.08036236,10.8849883 5.92463769,10.8849883 5.77000002,10.87 C5.11900647,10.7994674 4.54376983,10.4147312 4.23000002,9.84000004 C4.09312027,9.59772614 4.00480506,9.33108212 3.97000002,9.05500004 L8.03500003,9.05500004 C7.99551876,9.33000241 7.90748356,9.59580096 7.77500003,9.84000004 L7.77500003,9.84000004 Z M8.04500003,8.55500004 L3.95500002,8.55500004 C3.98009154,8.29294872 4.0511792,8.03737168 4.16500002,7.80000003 L6.00000003,4.00000002 L7.83500003,7.79000003 C7.94995651,8.0304751 8.02107152,8.2895369 8.04500003,8.55500004 Z M16.5450001,20.7499997 L7.46000003,20.7499997 C7.59382173,19.3356892 8.77937775,18.2539775 10.2,18.2499997 L13.8000001,18.2499997 C15.2224454,18.2492826 16.410687,19.3334446 16.5400001,20.7499997 L16.5450001,20.7499997 Z M14.2350001,17.7500001 L9.77000004,17.7500001 C9.89698989,16.8475476 10.6686572,16.1760691 11.58,16.1750001 L12.4250001,16.1750001 C13.3352546,16.1763946 14.1053086,16.8483254 14.2300001,17.7500001 L14.2350001,17.7500001 Z M12,6.27000003 C11.4173396,6.27000003 10.945,5.79766044 10.945,5.21500002 C10.945,4.63233961 11.4173396,4.16000002 12,4.16000002 C12.5826605,4.16000002 13.0550001,4.63233961 13.0550001,5.21500002 C13.0550001,5.79766044 12.5826605,6.27000003 12,6.27000003 Z M18.0000001,7.67000003 L19.8350001,11.46 C19.9488209,11.6973717 20.0199086,11.9529487 20.0450001,12.2150001 L15.9550001,12.2150001 C15.9800916,11.9529487 16.0511792,11.6973717 16.1650001,11.46 L18.0000001,7.67000003 Z M19.7750001,13.5000001 C19.4612303,14.0747313 18.8859936,14.4594675 18.2350001,14.5300001 C18.0802508,14.5424684 17.9247493,14.5424684 17.7700001,14.5300001 C17.1190065,14.4594675 16.5437699,14.0747313 16.2300001,13.5000001 C16.0924045,13.2580439 16.0040411,12.9912545 15.9700001,12.7150001 L20.0350001,12.7150001 C19.9963633,12.9902005 19.9082794,13.2561461 19.7750001,13.5000001 L19.7750001,13.5000001 Z"/>
    <rect width="24" height="24"/>
  </g>
</svg>
