<svg xmlns="http://www.w3.org/2000/svg" width="24" height="24" viewBox="0 0 24 24">
  <g fill="none" fill-rule="evenodd">
    <rect width="24" height="24"/>
    <g fill="#000" fill-rule="nonzero" transform="translate(4.5 2)">
      <path d="M7.43500003,18.9500003 C7.22275226,18.9500003 7.01795185,18.8717758 6.86000003,18.7300001 C6.59500003,18.5000001 0.460000002,13.0400001 0.460000002,7.39000003 C0.462357785,3.7944589 3.19751536,0.789857144 6.77702356,0.450677706 C10.3565318,0.111498267 13.6073505,2.54889358 14.2850001,6.08000003 L14.2850001,6.08000003 C14.3550931,6.48288086 14.3902239,6.89106734 14.3900011,7.30000003 L14.3900011,7.86500003 C14.0600001,13.3450001 8.26000003,18.5000001 8.00000003,18.7300001 C7.84367402,18.8679475 7.64344808,18.9459116 7.43500003,18.9500003 L7.43500003,18.9500003 Z M7.43500003,0.910000004 C3.85491611,0.923769659 0.960000004,3.82988963 0.960000004,7.41 C0.960000004,12.8350001 6.96,18.1500001 7.19000003,18.3750001 C7.33319507,18.5000911 7.546805,18.5000911 7.69000003,18.3750001 C7.93000003,18.1650001 13.5800001,13.1300001 13.9050001,7.87500003 L13.9050001,7.32500003 C13.9044089,6.94615019 13.8709501,6.56806589 13.8050001,6.19500003 C13.2226447,3.13438243 10.5505197,0.917399665 7.43500003,0.910000004 Z"/>
      <path d="M7.42500003,11.7250027 C5.53772996,11.7270228 3.83516774,10.5917155 3.11153871,8.84868552 C2.38790967,7.10565556 2.78579215,5.09833634 4.11957864,3.76311875 C5.45336513,2.42790116 7.46025652,2.02786628 9.20406148,2.7496257 C10.9478664,3.47138512 12.0850001,5.17272888 12.0850001,7.06000003 C12.0822508,9.63331765 9.99831322,11.7194912 7.42500003,11.7250027 L7.42500003,11.7250027 Z M7.42500003,2.89999699 C5.73950648,2.89797782 4.21894652,3.91200559 3.57300159,5.4688125 C2.92705665,7.02561941 3.28307849,8.81827201 4.47490327,10.0100968 C5.66672805,11.2019216 7.45938065,11.5579434 9.01618756,10.9119985 C10.5729945,10.2660535 11.5870222,8.74549359 11.5850031,7.06000003 C11.5795025,4.76477648 9.72022358,2.90549758 7.42500003,2.89999699 Z"/>
    </g>
    <path fill="#000" fill-rule="nonzero" d="M12.3300001,8.81000004 L11.67,8.81000004 C11.4177328,8.83185382 11.1746959,8.70962307 11.0418268,8.49407224 C10.9089576,8.27852141 10.9089576,8.00647866 11.0418268,7.79092783 C11.1746959,7.575377 11.4177328,7.45314625 11.67,7.47500003 L13.2500001,7.47500003 C13.3880712,7.47500003 13.5000001,7.36307122 13.5000001,7.22500003 C13.5000001,7.08692884 13.3880712,6.97500003 13.2500001,6.97500003 L12.2500001,6.97500003 L12.2500001,6.47500003 C12.2500001,6.33692884 12.1380712,6.22500003 12.0000001,6.22500003 C11.8619289,6.22500003 11.75,6.33692884 11.75,6.47500003 L11.75,6.97500003 L11.67,6.97500003 C11.2346571,6.94649507 10.819615,7.16257561 10.5932953,7.53555738 C10.3669757,7.90853914 10.3669757,8.37646093 10.5932953,8.74944269 C10.819615,9.12242445 11.2346571,9.338505 11.67,9.31000004 L12.3300001,9.31000004 C12.7000308,9.31000004 13.0000001,9.60996926 13.0000001,9.98000004 C13.0000001,10.3500308 12.7000308,10.65 12.3300001,10.65 L10.75,10.65 C10.6119289,10.65 10.5,10.7619289 10.5,10.9 C10.5,11.0380712 10.6119289,11.15 10.75,11.15 L11.75,11.15 L11.75,11.65 C11.75,11.7880712 11.8619289,11.9 12.0000001,11.9 C12.1380712,11.9 12.2500001,11.7880712 12.2500001,11.65 L12.2500001,11.15 L12.3300001,11.15 C12.9761732,11.15 13.5000001,10.6261732 13.5000001,9.98000004 C13.5000001,9.33382688 12.9761732,8.81000004 12.3300001,8.81000004 L12.3300001,8.81000004 Z"/>
  </g>
</svg>
