<svg xmlns="http://www.w3.org/2000/svg" width="24" height="24" viewBox="0 0 24 24">
  <g fill="none" fill-rule="evenodd">
    <path fill="#000" fill-rule="nonzero" d="M14.9100001,2.96998717 C12.4977951,2.9663475 10.3127344,4.39252895 9.34513638,6.602167 C8.37753837,8.81180504 8.81136646,11.3847949 10.45,13.1550001 L8.72500004,14.8800001 L7.88000003,14.0350001 C7.83305838,13.9876719 7.76915942,13.9610505 7.70250003,13.9610505 C7.63584065,13.9610505 7.57194168,13.9876719 7.52500003,14.0350001 L3.52500001,18.0350001 C2.83464407,18.725356 2.83464407,19.8446441 3.52500001,20.5350001 C4.21535595,21.225356 5.33464408,21.225356 6.02500003,20.5350001 L10.025,16.5350001 C10.1177035,16.436749 10.1177035,16.2832511 10.025,16.1850001 L9.09500004,15.2550001 L10.805,13.5000001 C12.8027189,15.3442677 15.7831373,15.6351581 18.0997613,14.2119727 C20.4163854,12.7887873 21.504061,9.9987205 20.7619157,7.38310891 C20.0197705,4.76749731 17.6288551,2.96443475 14.9100001,2.96998717 Z M5.65500002,20.1650001 C5.16484731,20.6551528 4.37015273,20.6551528 3.88000002,20.1650001 C3.3898473,19.6748474 3.3898473,18.8801528 3.88000002,18.3900001 L7.70000003,14.5650001 L9.50000004,16.3400001 L5.65500002,20.1650001 Z M14.9100001,14.6200024 C11.8329788,14.611721 9.34449336,12.1120544 9.34999984,9.03502694 C9.35552463,5.95799946 11.8529554,3.46727018 14.9299866,3.47002015 C18.0070178,3.47277467 20.5000001,5.96796761 20.5000001,9.04500004 C20.494482,12.1275574 17.9925611,14.6227647 14.9100001,14.6200024 Z"/>
    <path fill="#000" fill-rule="nonzero" d="M14.4150001,6.56000003 L16.7750001,6.56000003 C16.9130713,6.56000003 17.0250001,6.44807121 17.0250001,6.31000003 C17.0250001,6.17192884 16.9130713,6.06000003 16.7750001,6.06000003 L15.1600001,6.06000003 L15.1600001,5.16000002 C15.1600001,5.02192883 15.0480713,4.91000002 14.9100001,4.91000002 C14.7719289,4.91000002 14.6600001,5.02192883 14.6600001,5.16000002 L14.6600001,6.06000003 L14.4150001,6.06000003 C13.5565784,6.1077454 12.8849653,6.81775158 12.8849653,7.67750003 C12.8849653,8.53724848 13.5565784,9.24725467 14.4150001,9.29500004 L15.4150001,9.29500004 C15.8320854,9.2670856 16.2300049,9.473765 16.4470258,9.83103427 C16.6640467,10.1883035 16.6640467,10.6366965 16.4470258,10.9939658 C16.2300049,11.3512351 15.8320854,11.5579145 15.4150001,11.53 L13.0500001,11.53 C12.9119289,11.53 12.8000001,11.6419289 12.8000001,11.78 C12.8000001,11.9180712 12.9119289,12.0300001 13.0500001,12.0300001 L14.6600001,12.0300001 L14.6600001,12.9350001 C14.6626601,13.0719543 14.7730458,13.18234 14.9100001,13.1850001 C15.0480713,13.1850001 15.1600001,13.0730712 15.1600001,12.9350001 L15.1600001,12.0300001 L15.4050001,12.0300001 C16.0043366,12.0633351 16.5729774,11.7625391 16.8826848,11.2483437 C17.1923922,10.7341484 17.1923922,10.0908517 16.8826848,9.57665634 C16.5729774,9.06246097 16.0043366,8.76166497 15.4050001,8.79500004 L14.4050001,8.79500004 C13.8167884,8.75563256 13.3597914,8.26702756 13.3597914,7.67750003 C13.3597914,7.08797251 13.8167884,6.59936751 14.4050001,6.56000003 L14.4150001,6.56000003 Z"/>
    <rect width="24" height="24"/>
  </g>
</svg>
