<svg xmlns="http://www.w3.org/2000/svg" width="24" height="24" viewBox="0 0 24 24">
  <g fill="none" fill-rule="evenodd">
    <path fill="#000" fill-rule="nonzero" d="M19.0000001,4.64500002 L5.00000002,4.64500002 C3.75735933,4.64500002 2.75000001,5.65235934 2.75000001,6.89500003 L2.75000001,17.1050001 C2.75000001,18.3476408 3.75735933,19.3550001 5.00000002,19.3550001 L19.0000001,19.3550001 C20.2426408,19.3550001 21.25,18.3476408 21.25,17.1050001 L21.25,6.89500003 C21.25,5.65235934 20.2426408,4.64500002 19.0000001,4.64500002 Z M20.75,17.1050001 C20.75,18.0714984 19.9664984,18.8550001 19.0000001,18.8550001 L5.00000002,18.8550001 C4.0335017,18.8550001 3.25000001,18.0714984 3.25000001,17.1050001 L3.25000001,6.89500003 C3.25000001,5.92850171 4.0335017,5.14500002 5.00000002,5.14500002 L19.0000001,5.14500002 C19.9664984,5.14500002 20.75,5.92850171 20.75,6.89500003 L20.75,17.1050001 Z"/>
    <path fill="#000" fill-rule="nonzero" d="M18.5000001,9.04500004 L12.5000001,14.2200001 C12.2038608,14.4745844 11.7661393,14.4745844 11.47,14.2200001 L5.50000002,9.04500004 C5.45063284,9.00109539 5.38562658,8.9789891 5.31972831,8.98369611 C5.25383005,8.98840313 5.19262576,9.01952446 5.15000002,9.07000004 C5.06073285,9.17554867 5.07182125,9.33300394 5.17500002,9.42500004 L8.29000003,12.1300001 L6.06000003,13.8350001 C5.95116958,13.9193642 5.93105,14.0758498 6.01500003,14.1850001 C6.06271794,14.2473442 6.13649394,14.2842322 6.21500003,14.2850001 C6.26915178,14.2853689 6.3218999,14.2677862 6.36500003,14.2350001 L8.67000004,12.4700001 L8.67000004,12.4700001 L11.13,14.6050001 C11.6172626,15.0190203 12.3327375,15.0190203 12.8200001,14.6050001 L15.1950001,12.5400001 L17.4150001,14.2400001 C17.457724,14.273492 17.5107258,14.2911592 17.5650001,14.2900001 C17.6435062,14.2892322 17.7172822,14.2523442 17.7650001,14.1900001 C17.8478428,14.0795431 17.825457,13.9228428 17.7150001,13.8400001 L15.6050001,12.2000001 L18.8050001,9.42500004 C18.9008917,9.3260932 18.9008917,9.16890688 18.8050001,9.07000004 C18.7216795,8.99138913 18.5950095,8.98100634 18.5000001,9.04500004 Z"/>
    <rect width="24" height="24"/>
  </g>
</svg>
