<svg xmlns="http://www.w3.org/2000/svg" width="24" height="24" viewBox="0 0 24 24">
  <g fill="none" fill-rule="evenodd">
    <path fill="#000" fill-rule="nonzero" d="M17.1950001,10.785 C17.3319543,10.78234 17.44234,10.6719543 17.4450001,10.535 L17.4450001,9.00000004 C17.4501317,8.97021948 17.4501317,8.93978059 17.4450001,8.91000004 L17.4450001,8.91000004 C17.4272739,8.8704043 17.399739,8.83598559 17.3650001,8.81000004 L17.3650001,8.81000004 C17.3270126,8.78712376 17.2842112,8.7734273 17.2400001,8.77000004 L15.7400001,8.77000004 C15.6030458,8.77266009 15.4926601,8.88304581 15.4900001,9.02000004 C15.4900001,9.15807123 15.6019289,9.27000004 15.7400001,9.27000004 L16.6250001,9.27000004 L13.7100001,12.1900001 C13.6939017,12.1961554 13.6760984,12.1961554 13.6600001,12.1900001 C13.6600001,12.1900001 13.6300001,12.1900001 13.6100001,12.1900001 L12.3300001,10.825 C12.2265927,10.7103391 12.0794028,10.6449213 11.925,10.645 C11.7701242,10.6333359 11.6186221,10.6943063 11.515,10.81 L8.11500003,14.2150001 C8.06666142,14.2603667 8.03924071,14.3237071 8.03924071,14.3900001 C8.03924071,14.456293 8.06666142,14.5196334 8.11500003,14.5650001 C8.1603667,14.6133387 8.22370708,14.6407594 8.29000003,14.6407594 C8.35629299,14.6407594 8.41963337,14.6133387 8.46500004,14.5650001 L11.87,11.165 C11.8845912,11.1600472 11.9004089,11.1600472 11.915,11.165 C11.915,11.165 11.95,11.165 11.965,11.165 L13.2100001,12.5000001 C13.3167828,12.6099162 13.4618574,12.6743937 13.6150001,12.6800001 C13.7687545,12.6726876 13.915302,12.6126561 14.0300001,12.5100001 L16.9450001,9.59500004 L16.9450001,10.515 C16.9394061,10.5846957 16.9632545,10.653549 17.0107585,10.7048533 C17.0582625,10.7561577 17.1250807,10.7852242 17.1950001,10.785 L17.1950001,10.785 Z"/>
    <path fill="#000" fill-rule="nonzero" d="M17.5300001,17.3950001 L17.5300001,17.3950001 L17.5300001,13.0000001 C17.5300001,12.8619289 17.4180713,12.7500001 17.2800001,12.7500001 C17.1419289,12.7500001 17.0300001,12.8619289 17.0300001,13.0000001 L17.0300001,16.3500001 L7.03000003,16.3950001 L6.98000003,6.15000003 L16.9800001,6.10500003 L16.9800001,6.85500003 C16.9800001,6.99307122 17.0919289,7.10500003 17.2300001,7.10500003 L17.2300001,7.10500003 C17.3669543,7.10233998 17.47734,6.99195426 17.4800001,6.85500003 L17.4800001,5.85500002 L17.4800001,5.85500002 L17.4800001,4.92500002 C17.4608124,3.70636626 16.4586705,2.73330437 15.2400001,2.75000001 L15.2400001,2.75000001 L8.68000004,2.78000001 C8.09454725,2.77962881 7.53243046,3.00950404 7.11500003,3.42000001 C6.70274848,3.82644981 6.47045358,4.38107639 6.47000003,4.96000002 L6.50000003,17.2100001 L6.50000003,17.2100001 L6.50000003,19.0750001 C6.51919118,20.2916579 7.51827044,21.2639162 8.73500004,21.2501476 L8.73500004,21.2501476 L15.2800001,21.2200001 C15.8692014,21.2195138 16.4347032,20.9879274 16.8550001,20.5750001 C17.2715635,20.1669517 17.5059127,19.608119 17.5050001,19.0250001 L17.5300001,17.3950001 Z M7.45500003,3.77500002 C7.77909508,3.45595614 8.21522052,3.27648065 8.67000004,3.27500001 L15.2350001,3.25000001 L15.2350001,3.25000001 C15.6928134,3.23520097 16.1374251,3.40469334 16.4692076,3.72049771 C16.8009902,4.03630207 16.9922032,4.47201391 17.0000001,4.93000002 L17.0000001,5.60500002 L7.00000003,5.65000002 L7.00000003,4.96000002 C6.98924086,4.52041525 7.15280787,4.09442204 7.45500003,3.77500002 Z M16.5400001,20.2200001 C16.2125364,20.540102 15.7729274,20.7195342 15.3150001,20.7200001 L8.76500004,20.7500001 L8.76500004,20.7500001 C7.82247396,20.7639245 7.04643453,20.0124857 7.03000003,19.0700001 L7.03000003,16.8950001 L17.0300702,16.8500001 L17.0300702,19.0250001 C17.0341091,19.4730379 16.8574692,19.9038228 16.5400001,20.2200001 L16.5400001,20.2200001 Z"/>
    <path fill="#000" fill-rule="nonzero" d="M12.0300001 17.5899967L12.0300001 17.5899967C11.4335325 17.5899967 10.95 18.0735325 10.95 18.6700001 10.95 19.2664676 11.4335325 19.7500001 12.0300001 19.7500001L12.0300001 19.7500001C12.3179884 19.7522205 12.5943662 19.6366115 12.7950001 19.4300001 13.1020712 19.1199688 13.1924042 18.6556114 13.0239514 18.2530748 12.8554986 17.8505381 12.4613611 17.5889212 12.0250001 17.5899967L12.0300001 17.5899967zM12.4450001 19.0900001C12.3292525 19.190968 12.1833181 19.2507483 12.0300001 19.2600001 11.8762305 19.2627043 11.7278931 19.2031566 11.618675 19.0948801 11.509457 18.9866035 11.4486272 18.8387873 11.45 18.6850001 11.4458814 18.529494 11.5054984 18.3790605 11.6150233 18.2685915 11.7245481 18.1581224 11.8744643 18.0972164 12.0300001 18.1000001L12.0300001 18.1000001C12.1846487 18.0972623 12.33377 18.1574897 12.4431402 18.2668599 12.5525104 18.3762301 12.6127378 18.5253515 12.6100001 18.6800001 12.6119608 18.8302768 12.5523407 18.9748102 12.4450001 19.0800001L12.4450001 19.0900001zM11 4.70000001L12.9550001 4.70000001C13.0938762 4.69727644 13.2050268 4.58390289 13.2050001 4.44500002 13.2022772 4.30888534 13.091142 4.19997279 12.9550001 4.20000001L11 4.20000001C10.8619289 4.20000001 10.75 4.31192883 10.75 4.45000002 10.75 4.58807121 10.8619289 4.70000001 11 4.70000001L11 4.70000001z"/>
    <rect width="24" height="24"/>
  </g>
</svg>
