<svg xmlns="http://www.w3.org/2000/svg" width="24" height="24" viewBox="0 0 24 24">
  <g fill="none" fill-rule="evenodd">
    <path fill="#000" fill-rule="nonzero" d="M12 17.7300001C11.4007711 17.7300001 10.915 18.2157711 10.915 18.8150001 10.915 19.414229 11.4007711 19.9000001 12 19.9000001 12.599229 19.9000001 13.0850001 19.414229 13.0850001 18.8150001 13.0850001 18.2157711 12.599229 17.7300001 12 17.7300001zM12 19.3950001C11.7629365 19.3950001 11.5493148 19.2519137 11.4590687 19.0326997 11.3688226 18.8134857 11.419796 18.5614794 11.5881431 18.3945711 11.7564902 18.2276628 12.0089248 18.1788544 12.2273561 18.2709788 12.4457874 18.3631032 12.5870262 18.5779452 12.5850001 18.8150001 12.5822552 19.1361323 12.321144 19.3950118 12 19.3950001zM10.89 4.95000002L13.1100001 4.95000002C13.2480712 4.95000002 13.3600001 4.83807121 13.3600001 4.70000002 13.3600001 4.56192883 13.2480712 4.45000002 13.1100001 4.45000002L10.89 4.45000002C10.7519289 4.45000002 10.64 4.56192883 10.64 4.70000002 10.64 4.83807121 10.7519289 4.95000002 10.89 4.95000002z"/>
    <path fill="#000" fill-rule="nonzero" d="M14.9500001,2.76000001 L9.05000004,2.76000001 C7.51383999,2.76275793 6.27000003,4.0088375 6.27000003,5.54500002 L6.27000003,18.4550001 C6.27000003,19.9911626 7.51383999,21.2372422 9.05000004,21.2400001 L14.9500001,21.2400001 C16.4861601,21.2372422 17.7300001,19.9911626 17.7300001,18.4550001 L17.7300001,5.54500002 C17.7300001,4.0088375 16.4861601,2.76275793 14.9500001,2.76000001 Z M6.77000003,6.57000003 L17.2300001,6.57000003 L17.2300001,16.6700001 L6.77000003,16.6700001 L6.77000003,6.57000003 Z M9.05000004,3.26000001 L14.9500001,3.26000001 C16.2100177,3.26275717 17.2300001,4.28497941 17.2300001,5.54500002 L17.2300001,6.07000003 L6.77000003,6.07000003 L6.77000003,5.54500002 C6.77000003,4.28497941 7.78998244,3.26275717 9.05000004,3.26000001 Z M14.9500001,20.7600001 L9.05000004,20.7600001 C7.78998244,20.7572429 6.77000003,19.7350207 6.77000003,18.4750001 L6.77000003,17.1700001 L17.2300001,17.1700001 L17.2300001,18.4550001 C17.2300001,19.7150207 16.2100177,20.7372429 14.9500001,20.7400001 L14.9500001,20.7600001 Z"/>
    <rect width="24" height="24"/>
  </g>
</svg>
