<svg xmlns="http://www.w3.org/2000/svg" width="24" height="24" viewBox="0 0 24 24">
  <g fill="none" fill-rule="evenodd">
    <path fill="#1A1A1A" fill-rule="nonzero" d="M19.6700001,2.74500001 L4.33000002,2.74500001 C3.45462869,2.74500001 2.74500001,3.45462869 2.74500001,4.33000002 L2.74500001,16.6700001 C2.74775529,17.5434181 3.4565776,18.2500044 4.33000002,18.2500001 L8.37000003,18.2500001 L7.07500003,19.5600001 C6.79715478,19.8474117 6.71717365,20.2726802 6.87162005,20.6413938 C7.02606646,21.0101074 7.38526192,21.251414 7.78500003,21.2550001 L16.2100001,21.2550001 C16.6109819,21.2513501 16.9710054,21.0085229 17.1246165,20.6381131 C17.2782276,20.2677033 17.1957156,19.841354 16.9150001,19.5550001 L15.6200001,18.2500001 L19.6700001,18.2500001 C20.5434225,18.2500044 21.2522448,17.5434181 21.2550001,16.6700001 L21.2550001,4.33000002 C21.2550001,3.45462869 20.5453714,2.74500001 19.6700001,2.74500001 Z M4.33000002,3.24500001 L19.6700001,3.24500001 C20.2680915,3.24773732 20.7522628,3.73190856 20.755,4.33000002 L20.755,14.1700001 L3.25500001,14.1700001 L3.25500001,4.33000002 C3.25766969,3.73576718 3.73581737,3.25317162 4.33000002,3.24500001 Z M16.5600001,19.9100001 C16.6966439,20.0532294 16.7359215,20.2635882 16.6601694,20.4464755 C16.5844172,20.6293629 16.4079002,20.7503392 16.2100001,20.7550001 L7.78500003,20.7550001 C7.58619528,20.7522723 7.40789762,20.6320137 7.33088827,20.4487098 C7.25387893,20.2654058 7.29279313,20.0538925 7.43000003,19.9100001 L9.07000004,18.2500001 L14.9150001,18.2500001 L16.5600001,19.9100001 Z M19.6700001,17.7500001 L4.33000002,17.7500001 C3.73271826,17.7500001 3.24775246,17.2672755 3.24500001,16.6700001 L3.24500001,14.6700001 L20.745,14.6700001 L20.745,16.6700001 C20.7422907,17.2633956 20.2633766,17.7445371 19.6700001,17.7500001 L19.6700001,17.7500001 Z"/>
    <path fill="#1A1A1A" fill-rule="nonzero" d="M12 15.1250001C11.4007711 15.1250001 10.915 15.6107711 10.915 16.2100001 10.915 16.809229 11.4007711 17.2950001 12 17.2950001 12.599229 17.2950001 13.0850001 16.809229 13.0850001 16.2100001 13.0850001 15.6107711 12.599229 15.1250001 12 15.1250001L12 15.1250001zM12 16.7950001C11.6769135 16.7950001 11.415 16.5330866 11.415 16.2100001 11.415 15.8869135 11.6769135 15.6250001 12 15.6250001 12.3230866 15.6250001 12.5850001 15.8869135 12.5850001 16.2100001 12.582283 16.5319545 12.3219545 16.792283 12 16.7950001L12 16.7950001zM6.85500003 12.5000001L7.76500003 12.5000001C8.05806425 12.5000001 8.33912533 12.3835807 8.54635303 12.176353 8.75358073 11.9691253 8.87000004 11.6880643 8.87000004 11.395L8.87000004 9.70000004C8.87000004 9.40693582 8.75358073 9.12587474 8.54635303 8.91864704 8.33912533 8.71141934 8.05806425 8.59500004 7.76500003 8.59500004L6.85500003 8.59500004C6.24667891 8.59775265 5.7549938 9.09167269 5.75500002 9.70000004L5.75500002 11.385C5.75233697 11.6789284 5.86689339 11.961805 6.07332839 12.171055 6.27976338 12.380305 6.56106255 12.4986821 6.85500003 12.5000001L6.85500003 12.5000001zM6.25500003 9.71000004C6.25500003 9.37781069 6.52282202 9.1077454 6.85500003 9.10500004L7.76500003 9.10500004C8.09913231 9.10500004 8.37000003 9.37586777 8.37000003 9.71000004L8.37000003 11.395C8.37000003 11.555456 8.30625915 11.7093401 8.19279964 11.8227997 8.07934013 11.9362592 7.92545601 12 7.76500003 12L6.85500003 12C6.52282202 11.9972547 6.25500003 11.7271894 6.25500003 11.395L6.25500003 9.71000004zM11.44 12.5000001L12.5550001 12.5000001C13.1072848 12.5000001 13.5550001 12.0522848 13.5550001 11.5L13.5550001 6.20000002C13.5550001 5.64771527 13.1072848 5.20000002 12.5550001 5.20000002L11.44 5.20000002C10.8877153 5.20000002 10.44 5.64771527 10.44 6.20000002L10.44 11.5C10.44 12.0522848 10.8877153 12.5000001 11.44 12.5000001zM10.94 6.21000002C10.94 5.93385765 11.1638577 5.71000002 11.44 5.71000002L12.5550001 5.71000002C12.8311424 5.71000002 13.0550001 5.93385765 13.0550001 6.21000002L13.0550001 11.5C13.0550001 11.7761424 12.8311424 12 12.5550001 12L11.44 12C11.1638577 12 10.94 11.7761424 10.94 11.5L10.94 6.21000002zM16.1350001 12.5000001L17.2550001 12.5000001C17.8072848 12.5000001 18.2550001 12.0522848 18.2550001 11.5L18.2550001 8.05000003C18.2550001 7.49771528 17.8072848 7.05000003 17.2550001 7.05000003L16.1350001 7.05000003C15.5827153 7.05000003 15.1350001 7.49771528 15.1350001 8.05000003L15.1350001 11.5C15.1350001 12.0522848 15.5827153 12.5000001 16.1350001 12.5000001zM15.6350001 8.05000003C15.6350001 7.77385766 15.8588577 7.55000003 16.1350001 7.55000003L17.2550001 7.55000003C17.5311424 7.55000003 17.7550001 7.77385766 17.7550001 8.05000003L17.7550001 11.5C17.7550001 11.7761424 17.5311424 12 17.2550001 12L16.1350001 12C15.8588577 12 15.6350001 11.7761424 15.6350001 11.5L15.6350001 8.05000003z"/>
    <rect width="24" height="24"/>
  </g>
</svg>
