<svg xmlns="http://www.w3.org/2000/svg" width="24" height="24" viewBox="0 0 24 24">
  <g fill="none" fill-rule="evenodd">
    <path fill="#000" fill-rule="nonzero" d="M12,10.385 C11.8619289,10.385 11.75,10.4969289 11.75,10.635 L11.75,12.6950001 C11.75,12.8330712 11.8619289,12.9450001 12,12.9450001 C12.1380712,12.9450001 12.25,12.8330712 12.25,12.6950001 L12.25,10.635 C12.25,10.4969289 12.1380712,10.385 12,10.385 Z"/>
    <path fill="#000" fill-rule="nonzero" d="M12.4100001,7.10000003 L12.4100001,6.65000003 C12.4100001,6.14189806 12.8218981,5.73000002 13.3300001,5.73000002 L14.9300001,5.73000002 C15.454693,5.76123118 15.9534617,5.49904874 16.2252413,5.04914442 C16.4970208,4.5992401 16.4970208,4.03575993 16.2252413,3.58585562 C15.9534617,3.1359513 15.454693,2.87376886 14.9300001,2.90500001 L10.1,2.90500001 C9.96192885,2.90500001 9.85000004,3.01692883 9.85000004,3.15500001 C9.85266009,3.29195424 9.96304582,3.40233996 10.1,3.40500001 L14.9300001,3.40500001 C15.2721286,3.37965718 15.599688,3.54782455 15.7784906,3.84061087 C15.9572933,4.13339718 15.9572933,4.50160286 15.7784906,4.79438917 C15.599688,5.08717548 15.2721286,5.25534285 14.9300001,5.23000002 L13.3300001,5.23000002 C12.5457557,5.23000002 11.91,5.86575568 11.91,6.65000003 L11.91,7.08500003 C9.44172823,7.13393518 7.46495278,9.14624816 7.46000003,11.615 L7.46000003,16.5550001 C7.46000003,19.0623728 9.49262731,21.095 12.0000001,21.095 C14.5073728,21.095 16.5400001,19.0623728 16.5400001,16.5550001 L16.5400001,11.615 C16.5366674,9.26897359 14.7464429,7.3118637 12.4100001,7.10000003 Z M16.0400001,16.5550001 C16.0400001,18.7862305 14.2312304,20.5950001 12.0000001,20.5950001 C9.76876965,20.5950001 7.96000003,18.7862305 7.96000003,16.5550001 L7.96000003,11.615 C7.96000003,9.38376965 9.76876965,7.57500003 12.0000001,7.57500003 C14.2312304,7.57500003 16.0400001,9.38376965 16.0400001,11.615 L16.0400001,16.5550001 Z"/>
    <rect width="24" height="24"/>
  </g>
</svg>
