<svg xmlns="http://www.w3.org/2000/svg" width="24" height="24" viewBox="0 0 24 24">
  <g fill="none" fill-rule="evenodd">
    <rect width="24" height="24"/>
    <path fill="#000" fill-rule="nonzero" d="M12.9630919,14.1657681 C13.6153001,13.691548 13.8259874,12.8135496 13.46,12.095 L12.225,9.67 C12.1785121,9.58971814 12.0927702,9.54028814 12,9.54028814 C11.9072298,9.54028814 11.8214879,9.58971814 11.775,9.67 L10.54,12.095 C10.216644,12.7279212 10.3377733,13.4970918 10.84,14 C11.4107001,14.5697031 12.3108836,14.6399882 12.9630919,14.1657681 Z M12,10.32 L13,12.32 C13.2452436,12.7996066 13.1213144,13.3854168 12.7028511,13.7246149 C12.2843877,14.063813 11.6856123,14.063813 11.2671489,13.7246149 C10.8486856,13.3854168 10.7247564,12.7996066 10.97,12.32 L12,10.32 Z"/>
    <path fill="#000" fill-rule="nonzero" d="M18.405,7.55 C18.8902955,7.47253996 19.247381,7.05393847 19.247381,6.5625 C19.247381,6.07106153 18.8902955,5.65246004 18.405,5.575 L18.225,5.575 L18.225,4.67 L18.405,4.67 C18.9572847,4.67 19.405,4.22228475 19.405,3.67 C19.405,3.11771525 18.9572847,2.67 18.405,2.67 L5.595,2.67 C5.04271525,2.67 4.595,3.11771525 4.595,3.67 C4.595,4.22228475 5.04271525,4.67 5.595,4.67 L5.775,4.67 L5.775,5.575 L5.595,5.575 C5.10970451,5.65246004 4.752619,6.07106153 4.752619,6.5625 C4.752619,7.05393847 5.10970451,7.47253996 5.595,7.55 L5.775,7.55 L5.775,16.45 L5.595,16.45 C5.04271525,16.45 4.595,16.8977153 4.595,17.45 C4.595,18.0022847 5.04271525,18.45 5.595,18.45 L5.775,18.45 L5.775,19.35 L5.595,19.35 C5.04271525,19.35 4.595,19.7977153 4.595,20.35 C4.595,20.9022847 5.04271525,21.35 5.595,21.35 L18.405,21.35 C18.9572847,21.35 19.405,20.9022847 19.405,20.35 C19.405,19.7977153 18.9572847,19.35 18.405,19.35 L18.225,19.35 L18.225,18.45 L18.405,18.45 C18.9572847,18.45 19.405,18.0022847 19.405,17.45 C19.405,16.8977153 18.9572847,16.45 18.405,16.45 L18.225,16.45 L18.225,7.55 L18.405,7.55 Z M5.05497682,3.68 C5.05497682,3.38176624 5.29676624,3.14 5.595,3.14 L18.405,3.14 C18.6845099,3.16686471 18.8978584,3.40170204 18.8978584,3.6825 C18.8978584,3.96329796 18.6845099,4.19813529 18.405,4.225 L5.595,4.225 C5.45091257,4.225 5.31279825,4.16742764 5.21138364,4.06507401 C5.10996903,3.96272037 5.05366586,3.82408126 5.05497682,3.68 L5.05497682,3.68 Z M6.225,4.68 L17.775,4.68 L17.775,5.585 L6.225,5.585 L6.225,4.68 Z M5.055,6.57 C5.04674595,6.42165974 5.09997351,6.27647183 5.20215154,6.16861725 C5.30432957,6.06076266 5.44643046,5.99977054 5.595,5.99999935 L18.405,5.99999935 C18.6845099,6.02686471 18.8978584,6.26170204 18.8978584,6.5425 C18.8978584,6.82329796 18.6845099,7.05813529 18.405,7.08500004 L5.595,7.08500004 C5.30252723,7.08511286 5.06312422,6.85235993 5.055,6.56 L5.055,6.57 Z M18.9450232,20.32 C18.9450232,20.6182338 18.7032338,20.86 18.405,20.86 L5.595,20.86 C5.3154901,20.8331353 5.10214163,20.598298 5.10214163,20.3175 C5.10214163,20.036702 5.3154901,19.8018647 5.595,19.775 L18.405,19.775 C18.5490874,19.775 18.6872017,19.8325724 18.7886164,19.934926 C18.890031,20.0372796 18.9463341,20.1759187 18.9450232,20.32 Z M17.775,19.32 L6.225,19.32 L6.225,18.42 L17.775,18.42 L17.775,19.32 Z M18.945,17.43 C18.9532541,17.5783403 18.9000265,17.7235282 18.7978485,17.8313828 C18.6956704,17.9392373 18.5535695,18.0002295 18.405,18.0000006 L5.595,18.0000006 C5.3154901,17.9731353 5.10214163,17.738298 5.10214163,17.4575 C5.10214163,17.176702 5.3154901,16.9418647 5.595,16.915 L18.405,16.915 C18.6974728,16.9148871 18.9368758,17.1476401 18.945,17.44 L18.945,17.43 Z M17.775,16.43 L6.225,16.43 L6.225,7.55 L17.775,7.55 L17.775,16.43 Z"/>
  </g>
</svg>
