<svg xmlns="http://www.w3.org/2000/svg" width="24" height="24" viewBox="0 0 24 24">
  <g fill="none" fill-rule="evenodd">
    <path fill="#000" fill-rule="nonzero" d="M19.0000001,4.31500002 L10.295,4.31500002 C9.3837302,4.31500002 8.64500004,5.05373018 8.64500004,5.96500002 L8.64500004,8.46500004 L5.00000002,8.46500004 C4.08873018,8.46500004 3.35000001,9.2037302 3.35000001,10.115 L3.35000001,16.7650001 C3.35000001,18.3666259 4.64837424,19.6650001 6.25000003,19.6650001 L19.0000001,19.6650001 C19.9112699,19.6650001 20.6500001,18.9262699 20.6500001,18.0150001 L20.6500001,5.96500002 C20.6500001,5.05373018 19.9112699,4.31500002 19.0000001,4.31500002 Z M3.84500002,16.7850001 L3.84500002,10.135 C3.85322775,9.50378561 4.36873817,8.99720177 5.00000002,8.9999885 L8.65000004,8.9999885 L8.65000004,16.8000001 C8.65000004,18.1254835 7.57548343,19.2000001 6.25000003,19.2000001 C4.92451662,19.2000001 3.85000002,18.1254835 3.85000002,16.8000001 L3.84500002,16.7850001 Z M20.1550001,18.0350001 C20.1550001,18.6701275 19.6401275,19.1850001 19.0050001,19.1850001 L7.87000003,19.1850001 C8.66809802,18.6471943 9.14611908,17.7473899 9.14500004,16.7850001 L9.14500004,5.96500002 C9.14500004,5.32987256 9.65987258,4.81500002 10.295,4.81500002 L19.0000001,4.81500002 C19.6351275,4.81500002 20.1500001,5.32987256 20.1500001,5.96500002 L20.1550001,18.0350001 Z"/>
    <path fill="#000" fill-rule="nonzero" d="M16.7250001 7.46500003L12.5750001 7.46500003C11.5811251 7.51644368 10.8016631 8.33729458 10.8016631 9.33250004 10.8016631 10.3277055 11.5811251 11.1485564 12.5750001 11.2L16.7250001 11.2C17.718875 11.1485564 18.498337 10.3277055 18.498337 9.33250004 18.498337 8.33729458 17.718875 7.51644368 16.7250001 7.46500003L16.7250001 7.46500003zM16.7250001 10.7L12.5750001 10.7C11.85182 10.6562512 11.287727 10.0570022 11.287727 9.33250004 11.287727 8.60799791 11.85182 8.00874884 12.5750001 7.96500003L16.7250001 7.96500003C17.4481801 8.00874884 18.0122731 8.60799791 18.0122731 9.33250004 18.0122731 10.0570022 17.4481801 10.6562512 16.7250001 10.7L16.7250001 10.7zM18.3400001 13.5750001L10.96 13.5750001C10.8230458 13.5776601 10.7126601 13.6880458 10.71 13.8250001 10.71 13.9630712 10.8219289 14.0750001 10.96 14.0750001L18.3400001 14.0750001C18.4780713 14.0750001 18.5900001 13.9630712 18.5900001 13.8250001 18.58734 13.6880458 18.4769543 13.5776601 18.3400001 13.5750001L18.3400001 13.5750001zM18.3400001 16.0350001L10.96 16.0350001C10.8219289 16.0350001 10.71 16.1469289 10.71 16.2850001 10.7126601 16.4219543 10.8230458 16.53234 10.96 16.5350001L18.3400001 16.5350001C18.4769543 16.53234 18.58734 16.4219543 18.5900001 16.2850001 18.5900001 16.1469289 18.4780713 16.0350001 18.3400001 16.0350001z"/>
    <rect width="24" height="24"/>
  </g>
</svg>
