<svg xmlns="http://www.w3.org/2000/svg" width="24" height="24" viewBox="0 0 24 24">
  <g fill="none" fill-rule="evenodd">
    <rect width="24" height="24"/>
    <path fill="#000" fill-rule="nonzero" d="M14.8600001,21.2750001 L9.31000004,21.2750001 C7.2400742,21.2722457 5.56275442,19.5949259 5.56000002,17.5250001 L5.56000002,10.2 C5.56000002,10.0619289 5.67192884,9.95000004 5.81000002,9.95000004 L18.3600001,9.95000004 C18.4980713,9.95000004 18.6100001,10.0619289 18.6100001,10.2 L18.6100001,17.5250001 C18.6072457,19.5949259 16.9299259,21.2722457 14.8600001,21.2750001 Z M6.06000003,10.45 L6.06000003,17.5250001 C6.06275334,19.3187838 7.51621629,20.7722468 9.31000004,20.7750001 L14.8600001,20.7750001 C16.6537838,20.7722468 18.1072468,19.3187838 18.1100001,17.5250001 L18.1100001,10.45 L6.06000003,10.45 Z"/>
    <path fill="#000" fill-rule="nonzero" d="M16.6200001 10.45C16.4819289 10.45 16.3700001 10.3380712 16.3700001 10.2L16.3700001 7.50000003C16.3700001 5.13345987 14.4515402 3.21499994 12.0850001 3.21499994 9.71845989 3.21499994 7.80000003 5.13345987 7.80000003 7.50000003L7.80000003 10.0417786C7.80000003 10.1798498 7.68807122 10.2917786 7.55000003 10.2917786 7.41192884 10.2917786 7.30000003 10.1798498 7.30000003 10.0417786L7.30000003 7.50000003C7.30000003 5.79048416 8.21201585 4.21082634 9.69250002 3.3560684 11.1729842 2.50131045 12.9970159 2.50131045 14.4775001 3.3560684 15.9579842 4.21082634 16.8700001 5.79048416 16.8700001 7.50000003L16.8700001 10.2C16.8700001 10.3380712 16.7580713 10.45 16.6200001 10.45zM12.1100001 19.2900001C10.5671834 19.2900001 9.17667062 18.3595232 8.5881461 16.9333669 7.99962157 15.5072105 8.3292715 13.8669043 9.42307468 12.7788429 10.5168779 11.6907815 12.1588963 11.3697692 13.5819355 11.9657916 15.0049746 12.5618141 15.9280988 13.9572047 15.9200529 15.5000001 15.9089952 17.5963903 14.2064192 19.2900001 12.1100001 19.2900001zM12.1100001 12.1700001C10.2845484 12.1700001 8.80372154 13.6479256 8.80006032 15.4733736 8.79641265 17.2988217 10.2713103 18.7826311 12.0967472 18.7900007 13.9221842 18.7973155 15.4089701 17.3254184 15.4200606 15.5000001 15.4253254 14.6186733 15.0789466 13.7716147 14.457623 13.146537 13.8362995 12.5214592 12.9913429 12.1700001 12.1100001 12.1700001L12.1100001 12.1700001z"/>
    <path fill="#000" fill-rule="nonzero" d="M12.6350001 14.1250001C12.4969289 14.1250001 12.3850001 14.0130712 12.3850001 13.8750001L12.3850001 13.1900001C12.3850001 13.0519289 12.4969289 12.9400001 12.6350001 12.9400001 12.7730712 12.9400001 12.8850001 13.0519289 12.8850001 13.1900001L12.8850001 13.8750001C12.8850001 14.0130712 12.7730712 14.1250001 12.6350001 14.1250001zM11.62 14.1250001C11.4819289 14.1250001 11.37 14.0130712 11.37 13.8750001L11.37 13.1900001C11.37 13.0519289 11.4819289 12.9400001 11.62 12.9400001 11.7580712 12.9400001 11.87 13.0519289 11.87 13.1900001L11.87 13.8750001C11.87 14.0130712 11.7580712 14.1250001 11.62 14.1250001z"/>
    <path fill="#000" fill-rule="nonzero" d="M11.345 14.1250001L10.66 14.1250001C10.5219289 14.1250001 10.41 14.0130712 10.41 13.8750001 10.41 13.7369289 10.5219289 13.6250001 10.66 13.6250001L11.345 13.6250001C11.4830712 13.6250001 11.595 13.7369289 11.595 13.8750001 11.595 14.0130712 11.4830712 14.1250001 11.345 14.1250001zM11.345 17.3300001L10.66 17.3300001C10.5219289 17.3300001 10.41 17.2180713 10.41 17.0800001 10.41 16.9419289 10.5219289 16.8300001 10.66 16.8300001L11.345 16.8300001C11.4830712 16.8300001 11.595 16.9419289 11.595 17.0800001 11.595 17.2180713 11.4830712 17.3300001 11.345 17.3300001zM12.6350001 18.0000014C12.4969289 18.0000014 12.3850001 17.8880713 12.3850001 17.7500001L12.3850001 17.0800001C12.3876601 16.9430458 12.4980458 16.8326601 12.6350001 16.8300001 12.7730712 16.8300001 12.8850001 16.9419289 12.8850001 17.0800001L12.8850001 17.7700001C12.8745508 17.9002056 12.7656235 18.0004187 12.6350001 18.0000014z"/>
    <path fill="#000" fill-rule="nonzero" d="M11.62,18.0000014 C11.4819289,18.0000014 11.37,17.8880713 11.37,17.7500001 L11.37,17.0800001 C11.3726601,16.9430458 11.4830458,16.8326601 11.62,16.8300001 C11.7580712,16.8300001 11.87,16.9419289 11.87,17.0800001 L11.87,17.7700001 C11.8595508,17.9002056 11.7506235,18.0004187 11.62,18.0000014 Z"/>
    <path fill="#000" fill-rule="nonzero" d="M12.7650001,17.3300001 L11.15,17.3300001 C11.0119289,17.3300001 10.9,17.2180713 10.9,17.0800001 L10.9,15.5000001 C10.9,15.3619289 11.0119289,15.2500001 11.15,15.2500001 L12.7650001,15.2500001 C13.344899,15.2500001 13.8150001,15.7201011 13.8150001,16.3000001 C13.8150001,16.8798991 13.344899,17.3500001 12.7650001,17.3500001 L12.7650001,17.3300001 Z M11.4,16.8300001 L12.7650001,16.8300001 C13.0687567,16.8300001 13.315,16.5837567 13.315,16.2800001 C13.315,15.9762435 13.0687567,15.7300001 12.7650001,15.7300001 L11.4,15.7300001 L11.4,16.8300001 Z"/>
    <path fill="#000" fill-rule="nonzero" d="M12.7650001,15.7300001 L11.15,15.7300001 C11.0119289,15.7300001 10.9,15.6180713 10.9,15.4800001 L10.9,13.8750001 C10.9,13.7369289 11.0119289,13.6250001 11.15,13.6250001 L12.7650001,13.6250001 C13.3181755,13.6631501 13.7474139,14.1230106 13.7474139,14.6775001 C13.7474139,15.2319895 13.3181755,15.6918501 12.7650001,15.7300001 L12.7650001,15.7300001 Z M11.4,15.2300001 L12.7650001,15.2300001 C13.0498459,15.202872 13.2673811,14.9636348 13.2673811,14.6775001 C13.2673811,14.3913653 13.0498459,14.1521282 12.7650001,14.1250001 L11.4,14.1250001 L11.4,15.2300001 Z"/>
  </g>
</svg>
