<svg xmlns="http://www.w3.org/2000/svg" width="24" height="24" viewBox="0 0 24 24">
  <g fill="none" fill-rule="evenodd">
    <path fill="#000" fill-rule="nonzero" d="M13.3200001,8.50000004 L13.3200001,7.34000003 C13.3200001,7.20192884 13.2080712,7.09000003 13.0700001,7.09000003 C12.9319289,7.09000003 12.8200001,7.20192884 12.8200001,7.34000003 L12.8200001,8.50000004 L11.255,8.50000004 L11.255,7.34000003 C11.255,7.20192884 11.1430712,7.09000003 11.005,7.09000003 C10.8669289,7.09000003 10.755,7.20192884 10.755,7.34000003 L10.755,8.50000004 L9.05500004,8.50000004 C8.91692885,8.50000004 8.80500004,8.61192885 8.80500004,8.75000004 C8.80500004,8.88807122 8.91692885,9.00000004 9.05500004,9.00000004 L9.80000004,9.00000004 L9.80000004,15.0000001 L9.05500004,15.0000001 C8.91692885,15.0000001 8.80500004,15.1119289 8.80500004,15.2500001 C8.80500004,15.3880713 8.91692885,15.5000001 9.05500004,15.5000001 L10.755,15.5000001 L10.755,16.6500001 C10.755,16.7880713 10.8669289,16.9000001 11.005,16.9000001 C11.1430712,16.9000001 11.255,16.7880713 11.255,16.6500001 L11.255,15.5000001 L12.8150001,15.5000001 L12.8150001,16.6500001 C12.8150001,16.7880713 12.9269289,16.9000001 13.0650001,16.9000001 C13.2030712,16.9000001 13.3150001,16.7880713 13.3150001,16.6500001 L13.3150001,15.5000001 C14.1659783,15.5015886 14.9107168,14.9284187 15.1270539,14.1053971 C15.343391,13.2823754 14.9767646,12.4170754 14.2350001,12 C14.8311837,11.6703849 15.1994752,11.0412203 15.1950001,10.36 C15.1867624,9.33032878 14.3497043,8.49996708 13.3200001,8.50000004 Z M14.6950001,13.6100001 C14.6990068,13.9772647 14.5559119,14.3308673 14.2976139,14.5919831 C14.0393158,14.853099 13.6872866,15.0000001 13.32,15.0000001 L10.32,15.0000001 L10.32,12.2500001 L13.32,12.2500001 C14.0735721,12.2499552 14.6867793,12.8564729 14.6950001,13.6100001 Z M10.32,11.735 L10.32,9.00000004 L13.32,9.00000004 C14.0793916,9.00000004 14.695,9.61560853 14.695,10.375 C14.695,11.1343916 14.0793916,11.735 13.32,11.735 L10.32,11.735 Z"/>
    <path fill="#000" fill-rule="nonzero" d="M21.1750001,7.50000003 C21.1642005,6.5794335 20.4205666,5.83579957 19.5000001,5.82500002 C18.8124056,5.82500002 18.2550001,5.26759454 18.2550001,4.58000002 C18.2536759,4.11587057 18.0680303,3.67127691 17.7389035,3.34402551 C17.4097767,3.01677412 16.9641295,2.83367203 16.5000001,2.83499284 L7.66000003,2.83499284 C6.68893626,2.83416602 5.89023713,3.59976988 5.85000002,4.57000002 L5.85000002,4.63500002 C5.82302366,5.30412452 5.2696417,5.83094414 4.60000002,5.82500002 L4.50000002,5.82500002 C3.56579459,5.81666779 2.80098637,6.56582205 2.79000001,7.50000003 L2.79000001,12.1200001 C2.79559377,14.1082887 3.60323223,16.0102052 5.03000002,17.3950001 C5.59893845,17.9402893 6.25026238,18.3925038 6.96000003,18.7350001 L12,21.1650001 L17.0650001,18.7500001 C19.6151451,17.5364107 21.230079,14.9540769 21.2050001,12.1300001 L21.1750001,7.50000003 Z M18.6350001,17.0500001 C18.1110665,17.5599155 17.5083287,17.9820007 16.8500001,18.3000001 L12,20.6100001 L7.18000003,18.3000001 C6.51507985,17.9877433 5.90676837,17.5669945 5.38000002,17.0550001 C4.04894128,15.7656105 3.2952457,13.9931637 3.29000001,12.1400001 L3.29000001,7.50000003 C3.30366369,6.84313321 3.84301511,6.31938286 4.50000002,6.32500003 L4.60000002,6.32500003 C5.53539989,6.33115232 6.30727997,5.59465929 6.34500003,4.66000002 L6.34500003,4.59000002 C6.37449603,3.88807188 6.95245271,3.33438056 7.65500003,3.33499949 L16.5000001,3.33499949 C17.1864563,3.33774039 17.7422597,3.89354381 17.7450001,4.58000002 C17.7449924,5.04454063 17.9302122,5.48991043 18.2596292,5.81745039 C18.5890462,6.14499036 19.0354671,6.32766215 19.5000001,6.32500003 C20.1444512,6.33569851 20.6643016,6.85554892 20.6750001,7.50000003 L20.7051649,12.1250001 C20.7179266,13.9836661 19.9700146,15.7667318 18.6350001,17.0600001 L18.6350001,17.0500001 Z"/>
    <rect width="24" height="24"/>
  </g>
</svg>
