<svg xmlns="http://www.w3.org/2000/svg" width="24" height="24" viewBox="0 0 24 24">
  <g fill="none" fill-rule="evenodd">
    <path fill="#000" fill-rule="nonzero" d="M11.5,12.9350001 L13.4000001,12.9350001 C13.5380712,12.9350001 13.6500001,12.8230712 13.6500001,12.6850001 C13.6500001,12.5469289 13.5380712,12.4350001 13.4000001,12.4350001 L12.1500001,12.4350001 L12.1500001,11.76 C12.1500001,11.6219289 12.0380712,11.51 11.9,11.51 C11.7619289,11.51 11.65,11.6219289 11.65,11.76 L11.65,12.4350001 L11.5,12.4350001 C10.7516542,12.4350001 10.1450001,13.0416542 10.1450001,13.7900001 C10.1450001,14.5383459 10.7516542,15.145 11.5,15.1450001 L12.3000001,15.1450001 C12.7455545,15.1791474 13.0896644,15.550639 13.0896644,15.9975001 C13.0896644,16.4443611 12.7455545,16.8158527 12.3000001,16.8500001 L10.4,16.8500001 C10.2619289,16.8500001 10.15,16.9619289 10.15,17.1000001 C10.15,17.2380713 10.2619289,17.3500001 10.4,17.3500001 L11.65,17.3500001 L11.65,18.0250001 C11.65,18.1630713 11.7619289,18.2750001 11.9,18.2750001 C12.0380712,18.2750001 12.1500001,18.1630713 12.1500001,18.0250001 L12.1500001,17.3500001 L12.3000001,17.3500001 C13.0150735,17.3065022 13.5727276,16.7138953 13.5727276,15.9975001 C13.5727276,15.2811048 13.0150735,14.6884979 12.3000001,14.6450001 L11.5,14.6450001 C11.0277966,14.645 10.6450001,14.2622035 10.6450001,13.7900001 C10.6450001,13.3177966 11.0277966,12.9350001 11.5,12.9350001 L11.5,12.9350001 Z"/>
    <path fill="#000" fill-rule="nonzero" d="M19.5950001,6.50000003 L19.1850001,6.50000003 L19.1850001,6.00000003 C19.1850001,5.4974209 18.7775792,5.09000002 18.2750001,5.09000002 C17.772421,5.09000002 17.3650001,5.4974209 17.3650001,6.00000003 L17.3650001,6.50000003 L15.5500001,6.50000003 C15.5227551,4.92263938 14.237594,3.65748943 12.6600001,3.65500002 L11.34,3.65500002 C9.76240609,3.65748943 8.47724498,4.92263938 8.45000004,6.50000003 L6.63500003,6.50000003 L6.63500003,6.00000003 C6.63500003,5.4974209 6.22757915,5.09000002 5.72500002,5.09000002 C5.2224209,5.09000002 4.81500002,5.4974209 4.81500002,6.00000003 L4.81500002,6.50000003 L4.40500002,6.50000003 C3.53710479,6.50275526 2.83500001,7.20710044 2.83500001,8.07500003 L2.83500001,18.7700001 C2.83774472,19.6359477 3.5390524,20.3372554 4.40500002,20.3400001 L19.5950001,20.3400001 C20.4609477,20.3372554 21.1622554,19.6359477 21.1650081,18.7700001 L21.1650081,8.08000003 C21.1663283,7.66228342 21.0016637,7.261148 20.7072311,6.96484007 C20.4127986,6.66853213 20.0127167,6.50132401 19.5950001,6.50000003 L19.5950001,6.50000003 Z M17.8650001,6.00000003 C17.8650001,5.77356328 18.0485633,5.59000002 18.2750001,5.59000002 C18.5014368,5.59000002 18.6850001,5.77356328 18.6850001,6.00000003 L18.6850001,6.50000003 L17.8650001,6.50000003 L17.8650001,6.00000003 Z M11.365,4.17000002 L12.6850001,4.17000002 C13.9712886,4.18314329 15.0154028,5.21398482 15.0450001,6.50000003 L8.95500004,6.50000003 C8.97952499,5.2004076 10.0401762,4.15976863 11.34,4.15999998 L11.365,4.17000002 Z M5.31500002,6.00000003 C5.31500002,5.77356328 5.49856328,5.59000002 5.72500002,5.59000002 C5.95143677,5.59000002 6.13500003,5.77356328 6.13500003,6.00000003 L6.13500003,6.50000003 L5.31500002,6.50000003 L5.31500002,6.00000003 Z M4.40500002,7.00000003 L19.5950001,7.00000003 C20.1867526,7.0027524 20.6650001,7.48324108 20.6650001,8.07500003 L20.6650001,9.46000004 L3.33498832,9.46000004 L3.33498832,8.08000003 C3.33367084,7.79489137 3.44565668,7.52093235 3.64632127,7.31839238 C3.84698586,7.11585242 4.11989133,7.00132303 4.40500002,7.00000003 Z M19.5950001,19.8400001 L4.40500002,19.8400001 C3.81405533,19.8400001 3.33500001,19.3609448 3.33500001,18.7700001 L3.33500001,9.96500004 L20.6650001,9.96500004 L20.6650001,18.7700001 C20.6650001,19.3609448 20.1859448,19.8400001 19.5950001,19.8400001 Z"/>
    <rect width="24" height="24"/>
  </g>
</svg>
