<svg xmlns="http://www.w3.org/2000/svg" width="24" height="24" viewBox="0 0 24 24">
  <g fill="none" fill-rule="evenodd">
    <rect width="24" height="24"/>
    <g fill="#1A1A1A" fill-rule="nonzero" transform="translate(3.5 2)">
      <path d="M8.53000004,2.00000316 C8.39192885,2.00000316 8.28000003,1.8880712 8.28000003,1.75000001 L8.28000003,0.670000003 C8.28000003,0.531928815 8.39192885,0.420000002 8.53000004,0.420000002 C8.66695426,0.422660055 8.77733998,0.533045776 8.78000003,0.670000003 L8.78000003,1.72500001 C8.78708821,1.7955175 8.76391274,1.8657297 8.71623851,1.91817135 C8.66856428,1.970613 8.60087198,2.00035535 8.53000004,2.00000316 L8.53000004,2.00000316 Z"/>
      <path d="M5.85000002,10.09 C5.80784367,10.0876995 5.76678304,10.0757235 5.73000002,10.055 C4.17831519,9.18990481 2.29195388,9.17858664 0.730000003,10.025 L0.665000003,10.06 C0.58893032,10.1027592 0.496069684,10.1027592 0.420000002,10.06 C0.345827152,10.0159994 0.300251226,9.93624157 0.300000001,9.85000004 C0.300000001,6.91863583 1.86386412,4.20994359 4.40249998,2.74426147 C6.94113585,1.27857936 10.0688642,1.27857936 12.6075001,2.74426147 C15.146136,4.20994359 16.7100001,6.91863583 16.7100001,9.85000004 C16.7095418,9.93750981 16.6642421,10.0186719 16.5900001,10.065 C16.5121348,10.107693 16.4178653,10.107693 16.3400001,10.065 C14.7846404,9.20357868 12.8953597,9.20357868 11.34,10.065 C11.2632357,10.1050178 11.1717644,10.1050178 11.095,10.065 L11,10 C9.45876843,9.15966835 7.59623164,9.15966835 6.05500003,10 L5.99000002,10.03 C5.95108611,10.0646708 5.9019436,10.0857318 5.85000002,10.09 Z M8.52500004,8.88500004 C9.45803949,8.88622797 10.3765376,9.11628171 11.2,9.55500004 C12.7560722,8.73766146 14.6035574,8.68962684 16.2000001,9.42500004 C15.9910361,5.32749353 12.6078314,2.11242835 8.50500004,2.11242835 C4.40216863,2.11242835 1.01896396,5.32749353 0.810000003,9.42500004 C2.41882655,8.67393956 4.28698967,8.72207855 5.85500002,9.55500004 C6.67607536,9.11475973 7.59334771,8.88458278 8.52500004,8.88500004 Z"/>
      <path d="M7.00000003,18.9300001 C6.0125503,18.9272533 5.21274677,18.1274498 5.21000002,17.1400001 L5.21000002,15.6750001 C5.21000002,15.5369289 5.32192883,15.4250001 5.46000002,15.4250001 C5.59807121,15.4250001 5.71000002,15.5369289 5.71000002,15.6750001 L5.71000002,17.1400001 C5.71000002,17.8524474 6.2875527,18.4300001 7.00000003,18.4300001 C7.71244736,18.4300001 8.29000003,17.8524474 8.29000003,17.1400001 L8.29000003,9.14000004 C8.29000003,9.00192885 8.40192885,8.89000004 8.54000004,8.89000004 C8.67695426,8.89266009 8.78733998,9.00304581 8.79000004,9.14000004 L8.79000004,17.1400001 C8.78725329,18.1274498 7.98744976,18.9272533 7.00000003,18.9300001 Z"/>
    </g>
  </g>
</svg>
