<svg xmlns="http://www.w3.org/2000/svg" width="24" height="24" viewBox="0 0 24 24">
  <g fill="none" fill-rule="evenodd">
    <path fill="#000" fill-rule="nonzero" d="M21.6200001,5.50000002 C21.5805911,5.40751164 21.4905182,5.34681031 21.3900001,5.34500002 L18.6400001,5.34500002 L18.6400001,2.61000001 C18.640618,2.50777163 18.5789322,2.41546705 18.4842433,2.37693087 C18.3895544,2.33839469 18.2809433,2.36139236 18.2100001,2.43500001 L16.4000001,4.24500002 C12.3449332,1.87676129 7.16200391,2.88757008 4.29399741,6.6059919 C1.4259909,10.3244137 1.76478664,15.5941108 5.08533796,18.9146621 C8.40588927,22.2352135 13.6755864,22.5740092 17.3940082,19.7060027 C21.11243,16.8379962 22.1232388,11.6550669 19.7550001,7.60000003 L21.5650001,5.79000002 C21.6431993,5.71484637 21.6651629,5.59853168 21.6200001,5.50000002 Z M20.5300837,12.3050001 C20.5315252,16.2952605 17.8582442,19.7912798 14.0070368,20.8354933 C10.1558294,21.8797069 6.08270434,20.2129032 4.06837148,16.768394 C2.05403861,13.3238848 2.5985281,8.95672168 5.39695794,6.11225848 C8.19538779,3.26779527 12.5530866,2.65213045 16.0300001,4.61000002 L15.3000001,5.34500002 C15.2547288,5.39196666 15.2296082,5.45476812 15.2300001,5.52000002 L15.2300001,7.13500003 C14.2007018,6.42547597 12.9801517,6.04536183 11.73,6.04500003 C8.86316695,6.04922014 6.36804375,8.00630362 5.68101737,10.7896011 C4.993991,13.5728985 6.29184115,16.4662357 8.82742437,17.8039829 C11.3630076,19.1417301 14.4838895,18.5796697 16.3934477,16.4413673 C18.3030059,14.3030649 18.5098895,11.1387301 16.8950001,8.77000004 L18.5000001,8.77000004 C18.565232,8.77039191 18.6280334,8.74527132 18.6750001,8.70000004 L19.4100001,7.96500003 C20.1508243,9.29108709 20.5366149,10.7860255 20.5300837,12.3050001 Z M16.2500001,8.77000004 C17.0361706,9.77631373 17.4606375,11.0180116 17.4550555,12.2950001 C17.4550555,15.4706374 14.8806374,18.0450001 11.705,18.0450001 C8.52936272,18.0450001 5.95500002,15.4706374 5.95500002,12.2950001 C5.95500002,9.11936273 8.52936272,6.5449622 11.705,6.5449622 C12.9708852,6.54038968 14.2022875,6.95730735 15.2050001,7.73000003 L15.2300001,7.73000003 L15.2300001,8.41000004 L12.5700001,11.07 C12.3169852,10.8912033 12.0148141,10.7951373 11.705,10.795 C11.0983067,10.795 10.5513522,11.1604633 10.3191807,11.7209749 C10.0870092,12.2814865 10.2153429,12.9266632 10.6443399,13.3556602 C11.0733369,13.7846572 11.7185136,13.9129909 12.2790252,13.6808194 C12.8395368,13.4486479 13.2050001,12.9016934 13.2050001,12.2950001 C13.2040246,11.9806767 13.1043316,11.6746017 12.9200001,11.42 L15.5800001,8.76000004 L16.2500001,8.77000004 Z M12.705,12.305 C12.705,12.8572848 12.2572848,13.305 11.705,13.305 C11.1527153,13.305 10.705,12.8572848 10.705,12.305 C10.705,11.7527153 11.1527153,11.305 11.705,11.305 C12.2572848,11.305 12.705,11.7527153 12.705,12.305 Z M18.3750001,8.27000003 L15.7300001,8.27000003 L15.7300001,5.62500002 L18.1400001,3.21500001 L18.1400001,5.61000002 C18.1400001,5.74807121 18.2519289,5.86000002 18.3900001,5.86000002 L20.7850001,5.86000002 L18.3750001,8.27000003 Z"/>
    <rect width="24" height="24"/>
  </g>
</svg>
