<svg xmlns="http://www.w3.org/2000/svg" width="24" height="24" viewBox="0 0 24 24">
  <g fill="none" fill-rule="evenodd">
    <rect width="24" height="24"/>
    <path fill="#000" fill-rule="nonzero" d="M14.305,21.4002624 L8.75000002,21.4002624 C6.6812125,21.3947676 5.00549482,19.7190499 5,17.6502624 L5,10.3252623 C5.00266005,10.1883081 5.11304577,10.0779224 5.25,10.0752623 L17.8050001,10.0752623 C17.9419543,10.0779224 18.05234,10.1883081 18.0550001,10.3252623 L18.0550001,17.6502624 C18.0495052,19.7190499 16.3737876,21.3947676 14.305,21.4002624 L14.305,21.4002624 Z M5.5,10.5752624 L5.5,17.6502624 C5.50275332,19.4440461 6.95621627,20.8975091 8.75000002,20.9002624 L14.305,20.9002624 C16.0987838,20.8975091 17.5522467,19.4440461 17.5550001,17.6502624 L17.5550001,10.5752624 L5.5,10.5752624 Z"/>
    <path fill="#000" fill-rule="nonzero" d="M16.065 10.5752624C15.9269289 10.5752624 15.815 10.4633335 15.815 10.3252623L15.815 7.63526234C15.7360708 5.32430638 13.8398035 3.49169917 11.5275 3.49169917 9.21519657 3.49169917 7.31892925 5.32430638 7.24000001 7.63526234 7.24000001 7.77333353 7.1280712 7.88526234 6.99000001 7.88526234 6.85192882 7.88526234 6.74000001 7.77333353 6.74000001 7.63526234 6.82351329 5.05140675 8.94229517 3 11.5275 3 14.1127049 3 16.2314868 5.05140675 16.315 7.63526234L16.315 10.3252623C16.315 10.4633335 16.2030712 10.5752624 16.065 10.5752624zM11.525 16.2052624C10.8976292 16.2052624 10.3321292 15.8270704 10.0925146 15.2472611 9.85289998 14.6674517 9.9864304 14.0003786 10.4307646 13.5574777 10.8750989 13.1145768 11.5425999 12.9832024 12.1216321 13.2246891 12.7006643 13.4661759 13.0770238 14.0328948 13.0750082 14.6602624 13.0722449 15.5143505 12.3790926 16.2052624 11.525 16.2052624zM11.525 13.6102624C10.945101 13.6102624 10.475 14.0803634 10.475 14.6602624 10.475 15.2401614 10.945101 15.7102624 11.525 15.7102624 12.104899 15.7102624 12.575 15.2401614 12.575 14.6602624 12.575 14.0803634 12.104899 13.6102624 11.525 13.6102624z"/>
    <path fill="#000" fill-rule="nonzero" d="M11.525,18.3652624 C11.3880458,18.3626023 11.2776601,18.2522166 11.275,18.1152624 L11.2775,16.0717364 C11.2775,15.9336652 11.3894288,15.8217364 11.5275,15.8217364 C11.6655712,15.8217364 11.7775,15.9336652 11.7775,16.0717364 L11.775,18.1152624 C11.775,18.2533336 11.6630712,18.3652624 11.525,18.3652624 Z"/>
  </g>
</svg>
