<svg xmlns="http://www.w3.org/2000/svg" width="24" height="24" viewBox="0 0 24 24">
  <g fill="none" fill-rule="evenodd">
    <path fill="#000" fill-rule="nonzero" d="M12 15.2150001C10.8761006 15.2150001 9.96500004 16.1261006 9.96500004 17.2500001 9.96500004 18.3738995 10.8761006 19.2850001 12 19.2850001 13.1238995 19.2850001 14.0350001 18.3738995 14.0350001 17.2500001 14.0350001 16.1261006 13.1238995 15.2150001 12 15.2150001L12 15.2150001zM12.0000001 18.7850001C11.152243 18.7850001 10.465 18.0977572 10.465 17.2500001 10.465 16.402243 11.152243 15.7150001 12.0000001 15.7150001 12.8477571 15.7150001 13.5350001 16.402243 13.5350001 17.2500001 13.5350001 17.6571074 13.3732773 18.0475406 13.085409 18.335409 12.7975406 18.6232773 12.4071074 18.7850001 12.0000001 18.7850001zM12.0550001 11.81C10.0074355 11.8013678 8.04682314 12.6369793 6.63500003 14.1200001 6.58767186 14.1669417 6.56105045 14.2308407 6.56105045 14.2975001 6.56105045 14.3641594 6.58767186 14.4280584 6.63500003 14.4750001 6.68252501 14.5194 6.74496474 14.5443759 6.81000003 14.5450026 6.8786832 14.5453184 6.94421149 14.5161947 6.99000003 14.4650001 8.29313641 13.1079734 10.0876771 12.3326425 11.9689883 12.3138294 13.8502995 12.2950163 15.6599865 13.0343049 16.9900001 14.3650001 17.0880306 14.4630306 17.2469695 14.4630306 17.3450001 14.365 17.4430306 14.2669695 17.4430306 14.1080306 17.3450001 14.0100001 15.9447769 12.6017933 14.0408679 11.8099975 12.0550001 11.81L12.0550001 11.81z"/>
    <path fill="#000" fill-rule="nonzero" d="M12,8.22999297 C9.23235708,8.22662345 6.60174364,9.43414809 4.80000002,11.535 C4.71025375,11.6399342 4.72256592,11.7977538 4.82750002,11.8875 C4.93243412,11.9772463 5.09025375,11.9649342 5.18000002,11.86 C6.88767707,9.86738765 9.38268053,8.72305017 12.0069198,8.72882196 C14.6311591,8.73459375 17.1211047,9.88989519 18.8200001,11.89 C18.917211,11.9852858 19.0727892,11.9852858 19.1700001,11.89 C19.2211991,11.8480921 19.2532717,11.7872581 19.2589221,11.7213362 C19.2645726,11.6554144 19.2433204,11.5900097 19.2000001,11.54 C17.39961,9.43673664 14.7685942,8.22720024 12,8.22999297 L12,8.22999297 Z"/>
    <path fill="#000" fill-rule="nonzero" d="M21.1800001,8.93000004 C18.8794699,6.25905775 15.5308234,4.72100768 12.0057208,4.71619643 C8.48061811,4.71140773 5.12779544,6.24033271 2.82000001,8.90500004 C2.74963309,9.00979824 2.76842936,9.15061187 2.86382045,9.23328415 C2.95921154,9.31595643 3.10126715,9.31454775 3.19500001,9.23000004 C5.40948765,6.67509241 8.62581797,5.2098344 12.0068645,5.21559427 C15.3879109,5.22135415 18.5992302,6.69756216 20.8050001,9.26000004 C20.8529667,9.31460504 20.922322,9.34563245 20.9950001,9.34500952 C21.0538058,9.3448501 21.1105958,9.32355384 21.1550001,9.28500004 C21.2581789,9.19300394 21.2692673,9.03554867 21.1800001,8.93000004 L21.1800001,8.93000004 Z"/>
    <rect width="24" height="24"/>
  </g>
</svg>
