<svg xmlns="http://www.w3.org/2000/svg" width="24" height="24" viewBox="0 0 24 24">
  <g fill="none" fill-rule="evenodd">
    <rect width="24" height="24"/>
    <path fill="#CCC" fill-rule="nonzero" d="M21,17.915 L21,3.66500002 C21,3.25078645 20.6642136,2.91500001 20.2500001,2.91500001 L20.2500001,2.91500001 C19.8357865,2.91500001 19.5,3.25078645 19.5,3.66500002 L19.5,17.9300001 C19.5,18.6369246 18.9269246,19.2100001 18.2200001,19.2100001 L5.78000002,19.2100001 C5.07307554,19.2100001 4.50000001,18.6369246 4.50000001,17.9300001 L4.50000001,3.66500002 C4.50000001,3.25078645 4.16421358,2.91500001 3.75000002,2.91500001 L3.75000002,2.91500001 C3.33578645,2.91500001 3.00000001,3.25078645 3.00000001,3.66500002 L3.00000001,19.415 C3.00000001,20.2434272 3.67157289,20.915 4.50000001,20.915 L19.5,20.915 C20.3284272,20.915 21,20.2434272 21,19.415 L21,17.915 Z"/>
    <path fill="#000" fill-rule="nonzero" d="M19.5000001,21.165 L4.50000002,21.165 C3.5335017,21.165 2.75000001,20.3814984 2.75000001,19.4150001 L2.75000001,3.66500001 C2.75000001,3.11271526 3.19771526,2.66500001 3.75000001,2.66500001 C4.30228477,2.66500001 4.75000001,3.11271526 4.75000001,3.66500001 L4.75000001,17.9300001 C4.75000001,18.2031731 4.85851757,18.4651576 5.05168004,18.6583201 C5.24484251,18.8514825 5.50682704,18.9600001 5.78000002,18.9600001 L18.2200001,18.9600001 C18.7888534,18.9600001 19.25,18.4988534 19.25,17.9300001 L19.25,3.66500001 C19.25,3.11271526 19.6977153,2.66500001 20.25,2.66500001 C20.8022848,2.66500001 21.25,3.11271526 21.25,3.66500001 L21.25,19.4150001 C21.25,20.3814984 20.4664984,21.165 19.5000001,21.165 L19.5000001,21.165 Z M3.75000001,3.16500001 C3.47385764,3.16500001 3.25000001,3.38885764 3.25000001,3.66500001 L3.25000001,19.4150001 C3.25000001,20.105356 3.80964408,20.665 4.50000002,20.665 L19.5000001,20.665 C20.190356,20.665 20.75,20.105356 20.75,19.4150001 L20.75,3.66500001 C20.75,3.38885764 20.5261425,3.16500001 20.25,3.16500001 C19.9738577,3.16500001 19.75,3.38885764 19.75,3.66500001 L19.75,17.9300001 C19.75,18.3357813 19.5888041,18.7249428 19.3018735,19.0118735 C19.0149428,19.2988041 18.6257813,19.4600001 18.2200001,19.4600001 L5.78000002,19.4600001 C5.37421879,19.4600001 4.9850573,19.2988041 4.69812664,19.0118735 C4.41119598,18.7249428 4.25000001,18.3357813 4.25000001,17.9300001 L4.25000001,3.66500001 C4.25000001,3.38885764 4.02614239,3.16500001 3.75000001,3.16500001 Z"/>
    <path fill="#000" fill-rule="nonzero" d="M19.5000001 6.90000003L4.73500002 6.90000003C4.59692883 6.90000003 4.48500002 6.78807122 4.48500002 6.65000003 4.48766007 6.5130458 4.59804579 6.40266008 4.73500002 6.40000003L19.5000001 6.40000003C19.6380713 6.40000003 19.7500001 6.51192884 19.7500001 6.65000003 19.7500001 6.71630415 19.7236609 6.77989263 19.6767768 6.82677672 19.6298927 6.87366082 19.5663042 6.90000003 19.5000001 6.90000003zM19.5000001 11.5L4.73500002 11.5C4.59804579 11.49734 4.48766007 11.3869543 4.48500002 11.25 4.48500002 11.1119289 4.59692883 11 4.73500002 11L19.5000001 11C19.6380713 11 19.7500001 11.1119289 19.7500001 11.25 19.7500001 11.3880712 19.6380713 11.5 19.5000001 11.5zM19.5000001 16.0650001L4.73500002 16.0650001C4.59692883 16.0650001 4.48500002 15.9530713 4.48500002 15.8150001 4.48500002 15.6769289 4.59692883 15.5650001 4.73500002 15.5650001L19.5000001 15.5650001C19.6380713 15.5650001 19.7500001 15.6769289 19.7500001 15.8150001 19.7500001 15.9530713 19.6380713 16.0650001 19.5000001 16.0650001z"/>
    <circle cx="17.015" cy="15.815" r="1.07" fill="#CCC" fill-rule="nonzero"/>
    <path fill="#000" fill-rule="nonzero" d="M17.0000001,17.1350001 C16.2709842,17.1350001 15.6800001,16.5440159 15.6800001,15.8150001 C15.6800001,15.0859842 16.2709842,14.4950001 17.0000001,14.4950001 C17.7290159,14.4950001 18.3200001,15.0859842 18.3200001,15.8150001 C18.3200001,16.5440159 17.7290159,17.1350001 17.0000001,17.1350001 L17.0000001,17.1350001 Z M17.0000001,15.0000001 C16.5471266,15.0000001 16.1800001,15.3671266 16.1800001,15.8200001 C16.1800001,16.2728736 16.5471266,16.6400001 17.0000001,16.6400001 C17.4528736,16.6400001 17.8200001,16.2728736 17.8200001,15.8200001 C17.8200001,15.3671266 17.4528736,15.0000001 17.0000001,15.0000001 L17.0000001,15.0000001 Z"/>
    <circle cx="14.875" cy="15.815" r="1.07" fill="#CCC" fill-rule="nonzero"/>
    <path fill="#000" fill-rule="nonzero" d="M14.8750001,17.1350001 C14.1459842,17.1350001 13.5550001,16.5440159 13.5550001,15.8150001 C13.5550001,15.0859842 14.1459842,14.4950001 14.8750001,14.4950001 C15.6040159,14.4950001 16.1950001,15.0859842 16.1950001,15.8150001 C16.1950001,16.5440159 15.6040159,17.1350001 14.8750001,17.1350001 L14.8750001,17.1350001 Z M14.8750001,14.9950001 C14.4221266,14.9950001 14.0550001,15.3621266 14.0550001,15.8150001 C14.0550001,16.2678736 14.4221266,16.6350001 14.8750001,16.6350001 C15.3278736,16.6350001 15.6950001,16.2678736 15.6950001,15.8150001 C15.6922505,15.3640804 15.3259281,14.9999917 14.8750001,15.0000001 L14.8750001,14.9950001 Z"/>
    <circle cx="8.085" cy="15.815" r="1.07" fill="#CCC" fill-rule="nonzero"/>
    <path fill="#000" fill-rule="nonzero" d="M8.08500003,17.1350001 C7.35598416,17.1350001 6.76500003,16.5440159 6.76500003,15.8150001 C6.76500003,15.0859842 7.35598416,14.4950001 8.08500003,14.4950001 C8.81401591,14.4950001 9.40500004,15.0859842 9.40500004,15.8150001 C9.40225848,16.5428773 8.81287729,17.1322585 8.08500003,17.1350001 Z M8.08500003,14.9950001 C7.63212654,14.9950001 7.26500003,15.3621266 7.26500003,15.8150001 C7.26500003,16.2678736 7.63212654,16.6350001 8.08500003,16.6350001 C8.53787353,16.6350001 8.90500004,16.2678736 8.90500004,15.8150001 C8.89955577,15.3652158 8.53480915,15.0026933 8.08500003,15.0000001 L8.08500003,14.9950001 Z"/>
    <circle cx="16.32" cy="11.235" r="1.07" fill="#CCC" fill-rule="nonzero"/>
    <path fill="#000" fill-rule="nonzero" d="M16.3200001,12.5550001 C15.5909842,12.5550001 15.0000001,11.9640159 15.0000001,11.235 C15.0000001,10.5059842 15.5909842,9.91500004 16.3200001,9.91500004 C17.0490159,9.91500004 17.6400001,10.5059842 17.6400001,11.235 C17.6400001,11.9640159 17.0490159,12.5550001 16.3200001,12.5550001 L16.3200001,12.5550001 Z M16.3200001,10.4149846 C15.8671266,10.4149846 15.5000001,10.7821266 15.5000001,11.235 C15.5000001,11.6878735 15.8671266,12.0550001 16.3200001,12.0550001 C16.7728736,12.0550001 17.1400155,11.6878735 17.1400155,11.235 C17.1413409,11.0171142 17.055379,10.807764 16.9013075,10.6536926 C16.7472361,10.4996211 16.5378859,10.4136592 16.3200001,10.4149846 L16.3200001,10.4149846 Z"/>
    <circle cx="10.225" cy="11.235" r="1.07" fill="#CCC" fill-rule="nonzero"/>
    <path fill="#000" fill-rule="nonzero" d="M10.225,12.5550001 C9.49598417,12.5550001 8.90500004,11.9640159 8.90500004,11.235 C8.90500004,10.5059842 9.49598417,9.91500004 10.225,9.91500004 C10.9540159,9.91500004 11.545,10.5059842 11.545,11.235 C11.545,11.9640159 10.9540159,12.5550001 10.225,12.5550001 L10.225,12.5550001 Z M10.225,10.415 C9.77212655,10.415 9.40500004,10.7821266 9.40500004,11.235 C9.40500004,11.6878735 9.77212655,12.0550001 10.225,12.0550001 C10.6778735,12.0550001 11.045,11.6878735 11.045,11.235 C11.045,10.7821266 10.6778735,10.415 10.225,10.415 L10.225,10.415 Z"/>
    <circle cx="7.69" cy="6.65" r="1.07" fill="#CCC" fill-rule="nonzero"/>
    <path fill="#000" fill-rule="nonzero" d="M7.69000003,7.97000003 C7.15521851,7.97405152 6.67083801,7.65502533 6.46337254,7.16210974 C6.25590708,6.66919415 6.36635897,6.09980627 6.74307687,5.72021265 C7.11979478,5.34061903 7.68832628,5.22584045 8.18280527,5.42955157 C8.67728427,5.63326268 9.00000004,6.11520316 9.00000004,6.65000003 C9.00000004,7.37512845 8.41510764,7.96450664 7.69000003,7.97000003 L7.69000003,7.97000003 Z M7.69000003,5.83000002 C7.35746102,5.82594437 7.05540385,6.02313903 6.92532662,6.32920856 C6.79524939,6.63527809 6.86291524,6.98960223 7.09662623,7.22619854 C7.33033721,7.46279485 7.68380447,7.53480298 7.99144693,7.40849085 C8.2990894,7.28217872 8.4999753,6.98256377 8.50000004,6.65000003 C8.50003342,6.2010032 8.13896347,5.83547559 7.69000003,5.83000002 L7.69000003,5.83000002 Z"/>
    <circle cx="13.805" cy="6.65" r="1.07" fill="#CCC" fill-rule="nonzero"/>
    <path fill="#000" fill-rule="nonzero" d="M13.8050001,7.97000003 C13.0759842,7.97000003 12.4850001,7.3790159 12.4850001,6.65000003 C12.4850001,5.92098415 13.0759842,5.33000002 13.8050001,5.33000002 C14.5340159,5.33000002 15.1250001,5.92098415 15.1250001,6.65000003 C15.1250001,7.3790159 14.5340159,7.97000003 13.8050001,7.97000003 Z M13.8050001,5.83000002 C13.3521266,5.83000002 12.9850001,6.19712653 12.9850001,6.65000003 C12.9850001,7.10287352 13.3521266,7.47000003 13.8050001,7.47000003 C14.2578736,7.47000003 14.6250001,7.10287352 14.6250001,6.65000003 C14.6250001,6.19712653 14.2578736,5.83000002 13.8050001,5.83000002 L13.8050001,5.83000002 Z"/>
  </g>
</svg>
