<svg xmlns="http://www.w3.org/2000/svg" width="24" height="24" viewBox="0 0 24 24">
  <g fill="none" fill-rule="evenodd">
    <path fill="#000" fill-rule="nonzero" d="M20.25,2.75000001 C19.7000001,2.75000001 19.25,3.20000001 19.25,3.75000001 L19.25,6.50000003 L15.1000001,6.50000003 C15.0000001,5.90000002 14.4500001,5.45000002 13.8000001,5.45000002 C13.1500001,5.45000002 12.6500001,5.90000002 12.5000001,6.50000003 L9.00000004,6.50000003 C8.90000004,5.90000002 8.35000003,5.45000002 7.70000003,5.45000002 C7.05000003,5.45000002 6.50000003,5.90000002 6.40000003,6.50000003 L4.75000001,6.50000003 L4.75000001,3.75000001 C4.75000001,3.20000001 4.30000002,2.75000001 3.75000001,2.75000001 C3.20000001,2.75000001 2.75000001,3.20000001 2.75000001,3.75000001 L2.75000001,19.5000001 C2.75000001,20.4500001 3.55000001,21.25 4.50000002,21.25 L19.5000001,21.25 C20.4500001,21.25 21.25,20.4500001 21.25,19.5000001 L21.25,3.75000001 C21.25,3.20000001 20.8000001,2.75000001 20.25,2.75000001 Z M17.0000001,14.6000001 C16.5500001,14.6000001 16.1500001,14.8000001 15.9500001,15.1500001 C15.7000001,14.8000001 15.3000001,14.6000001 14.9000001,14.6000001 C14.25,14.6000001 13.7000001,15.05 13.6000001,15.6500001 L9.40000004,15.6500001 C9.30000004,15.05 8.75000002,14.6000001 8.10000003,14.6000001 C7.45000003,14.6000001 6.90000003,15.05 6.80000003,15.6500001 L4.75000002,15.6500001 L4.75000002,11.55 L8.95000004,11.55 C9.05000004,12.1500001 9.60000004,12.6000001 10.25,12.6000001 C10.9,12.6000001 11.45,12.1500001 11.55,11.55 L15.0500001,11.55 C15.1500001,12.1500001 15.7000001,12.6000001 16.3500001,12.6000001 C17.0000001,12.6000001 17.5500001,12.1500001 17.6500001,11.55 L19.3000001,11.55 L19.3000001,15.6500001 L18.3500001,15.6500001 C18.2000001,15.05 17.6500001,14.6000001 17.0000001,14.6000001 Z M17.8500001,15.9000001 C17.8500001,16.0000001 17.8500001,16.0500001 17.8000001,16.1500001 C17.7000001,16.5000001 17.4000001,16.7000001 17.0000001,16.7000001 C16.6000001,16.7000001 16.3500001,16.4500001 16.2000001,16.1500001 C16.1500001,16.0500001 16.1500001,16.0000001 16.1500001,15.9000001 C16.1500001,15.8000001 16.1500001,15.7500001 16.2000001,15.6500001 C16.3000001,15.3000001 16.6000001,15.1000001 17.0000001,15.1000001 C17.4000001,15.1000001 17.6500001,15.3500001 17.8000001,15.6500001 C17.8000001,15.7500001 17.8500001,15.8000001 17.8500001,15.9000001 Z M15.7000001,15.9000001 C15.7000001,16.0000001 15.7000001,16.0500001 15.6500001,16.1500001 C15.5500001,16.5000001 15.2500001,16.7000001 14.8500001,16.7000001 C14.4500001,16.7000001 14.2000001,16.4500001 14.0500001,16.1500001 C14.0000001,16.0500001 14.0000001,16.0000001 14.0000001,15.9000001 C14.0000001,15.8000001 14.0000001,15.7500001 14.0500001,15.6500001 C14.1500001,15.3000001 14.4500001,15.1000001 14.8500001,15.1000001 C15.2500001,15.1000001 15.5000001,15.3500001 15.6500001,15.6500001 C15.7000001,15.7500001 15.7000001,15.8000001 15.7000001,15.9000001 Z M8.90000004,15.9000001 C8.90000004,16.0000001 8.90000004,16.0500001 8.85000004,16.1500001 C8.75000004,16.5000001 8.45000004,16.7000001 8.05000003,16.7000001 C7.70000003,16.7000001 7.40000003,16.4500001 7.25000003,16.1500001 C7.20000003,16.0500001 7.20000003,16.0000001 7.20000003,15.9000001 C7.20000003,15.8000001 7.20000003,15.7500001 7.25000003,15.6500001 C7.35000003,15.3000001 7.65000003,15.1000001 8.05000003,15.1000001 C8.40000003,15.1000001 8.70000003,15.3500001 8.85000004,15.6500001 C8.90000004,15.7500001 8.90000004,15.8000001 8.90000004,15.9000001 Z M9.40000004,11.3 C9.40000004,11.2 9.40000004,11.15 9.45000004,11.05 C9.55000004,10.7 9.85000004,10.5 10.25,10.5 C10.65,10.5 10.9,10.75 11.05,11.05 C11.1,11.15 11.1,11.2 11.1,11.3 C11.1,11.4 11.1,11.45 11.05,11.55 C10.95,11.9 10.65,12.1000001 10.25,12.1000001 C9.85000004,12.1000001 9.60000004,11.85 9.45000004,11.55 C9.40000004,11.5 9.40000004,11.4 9.40000004,11.3 Z M15.5000001,11.3 C15.5000001,11.2 15.5000001,11.15 15.5500001,11.05 C15.6500001,10.7 15.9500001,10.5 16.3500001,10.5 C16.7000001,10.5 17.0000001,10.75 17.1500001,11.05 C17.2000001,11.15 17.2000001,11.2 17.2000001,11.3 C17.2000001,11.4 17.2000001,11.45 17.1500001,11.55 C17.0500001,11.9 16.7500001,12.1000001 16.3500001,12.1000001 C16.0000001,12.1000001 15.7000001,11.85 15.5500001,11.55 C15.5000001,11.5 15.5000001,11.4 15.5000001,11.3 Z M13.0500001,6.50000003 C13.1500001,6.15000003 13.4500001,5.95000002 13.8500001,5.95000002 C14.2000001,5.95000002 14.5000001,6.20000003 14.6500001,6.50000003 C14.7000001,6.60000003 14.7000001,6.65000003 14.7000001,6.75000003 C14.7000001,6.85000003 14.7000001,6.90000003 14.6500001,7.00000003 C14.5500001,7.35000003 14.2500001,7.55000003 13.8500001,7.55000003 C13.5000001,7.55000003 13.2000001,7.30000003 13.0500001,7.00000003 C13.0000001,6.90000003 13.0000001,6.80000003 13.0000001,6.75000003 C13.0000001,6.70000003 13.0000001,6.55000003 13.0500001,6.50000003 Z M6.90000003,6.50000003 C7.00000003,6.15000003 7.30000003,5.95000002 7.70000003,5.95000002 C8.05000003,5.95000002 8.35000003,6.20000003 8.50000004,6.50000003 C8.55000004,6.60000003 8.55000004,6.65000003 8.55000004,6.75000003 C8.55000004,6.85000003 8.55000004,6.90000003 8.50000004,7.00000003 C8.40000004,7.35000003 8.10000003,7.55000003 7.70000003,7.55000003 C7.35000003,7.55000003 7.05000003,7.30000003 6.90000003,7.00000003 C6.85000003,6.90000003 6.85000003,6.85000003 6.85000003,6.75000003 C6.85000003,6.65000003 6.90000003,6.55000003 6.90000003,6.50000003 Z M6.40000003,7.00000003 C6.50000003,7.60000003 7.05000003,8.05000003 7.70000003,8.05000003 C8.35000003,8.05000003 8.90000004,7.60000003 9.00000004,7.00000003 L12.5000001,7.00000003 C12.6000001,7.60000003 13.1500001,8.05000003 13.8000001,8.05000003 C14.4500001,8.05000003 15.0000001,7.60000003 15.1000001,7.00000003 L19.25,7.00000003 L19.25,11.1 L17.6000001,11.1 C17.5000001,10.45 16.9500001,10 16.3000001,10 C15.6500001,10 15.1000001,10.45 15.0000001,11.05 L11.5,11.05 C11.4,10.45 10.85,10 10.2,10 C9.55000004,10 9.00000004,10.45 8.90000004,11.05 L4.75000002,11.05 L4.75000002,7.00000003 L6.40000003,7.00000003 Z M18.2000001,19.0500001 L5.80000002,19.0500001 C5.25000002,19.0500001 4.75000002,18.6000001 4.75000002,18.0000001 L4.75000002,16.1500001 L6.80000003,16.1500001 C6.90000003,16.7500001 7.45000003,17.2000001 8.10000003,17.2000001 C8.75000002,17.2000001 9.30000004,16.7500001 9.40000004,16.1500001 L13.6000001,16.1500001 C13.7000001,16.7500001 14.25,17.2000001 14.9000001,17.2000001 C15.3500001,17.2000001 15.75,17.0000001 15.9500001,16.6500001 C16.2000001,17.0000001 16.6000001,17.2000001 17.0000001,17.2000001 C17.6500001,17.2000001 18.2000001,16.7500001 18.3000001,16.1500001 L19.25,16.1500001 L19.25,18.0000001 C19.25,18.6000001 18.8000001,19.0500001 18.2000001,19.0500001 Z"/>
    <rect width="24" height="24"/>
  </g>
</svg>
