<svg xmlns="http://www.w3.org/2000/svg" width="24" height="24" viewBox="0 0 24 24">
  <g fill="none" fill-rule="evenodd">
    <rect width="24" height="24"/>
    <path fill="#000" fill-rule="nonzero" d="M2.81500001 3.66500001L1.61000001 3.66500001C1.47192882 3.66500001 1.36000001 3.5530712 1.36000001 3.41500001 1.36000001 3.27692883 1.47192882 3.16500001 1.61000001 3.16500001L2.81500001 3.16500001C2.9530712 3.16500001 3.06500001 3.27692883 3.06500001 3.41500001 3.06500001 3.5530712 2.9530712 3.66500001 2.81500001 3.66500001L2.81500001 3.66500001zM1.58000001 6.59500454C1.5147681 6.5953919 1.45196665 6.57027131 1.40500001 6.52500003L.555000002 5.67500002C.507671839 5.62805837.481050421 5.56415941.481050421 5.49750002.481050421 5.43084064.507671839 5.36694167.555000002 5.32000002.600366668 5.27166141.663707048 5.2442407.730000003 5.2442407.796292958 5.2442407.859633338 5.27166141.905000004 5.32000002L1.75500001 6.17000003C1.80232817 6.21694168 1.82894959 6.28084064 1.82894959 6.34750003 1.82894959 6.41415941 1.80232817 6.47805838 1.75500001 6.52500003 1.70747503 6.56939997 1.6450353 6.59437586 1.58000001 6.59500454zM.730000003 1.53000001C.663698073 1.53080828.60014017 1.50356918.555000002 1.45500001.507671839 1.40805836.481050421 1.34415939.481050421 1.27750001.481050421 1.21084062.507671839 1.14694165.555000002 1.1L1.40500001.250000001C1.50221088.154714282 1.65778913.154714282 1.75500001.250000001 1.80232817.296941651 1.82894959.360840617 1.82894959.427500002 1.82894959.494159386 1.80232817.558058352 1.75500001.605000003L.905000004 1.45500001C.859163459 1.50257055.796059048 1.5296153.730000003 1.53000001z" transform="translate(18 7.5)"/>
    <path fill="#CCC" fill-rule="nonzero" d="M4.69500002,9.43500004 L5.29000002,9.43500004 L5.29000002,12.3350001 L4.69500002,12.3350001 C3.89418713,12.3350001 3.24500001,11.6858129 3.24500001,10.885 L3.24500001,10.885 C3.24500001,10.0841872 3.89418713,9.43500004 4.69500002,9.43500004 L4.69500002,9.43500004 Z"/>
    <path fill="#000" fill-rule="nonzero" d="M5.29000002,12.5850001 L4.69500002,12.5850001 C3.75611594,12.5850001 2.99500001,11.8238841 2.99500001,10.885 C2.99500001,9.94611597 3.75611594,9.18500004 4.69500002,9.18500004 L5.29000002,9.18500004 C5.42695425,9.18766009 5.53733997,9.29804581 5.54000002,9.43500004 L5.54000002,12.3350001 C5.54000002,12.4730712 5.42807121,12.5850001 5.29000002,12.5850001 Z M4.69500002,9.68500004 C4.03225832,9.68500004 3.49500001,10.2222583 3.49500001,10.885 C3.49500001,11.5477417 4.03225832,12.0850001 4.69500002,12.0850001 L5.04000002,12.0850001 L5.04000002,9.68500004 L4.69500002,9.68500004 Z"/>
    <path fill="#CCC" fill-rule="nonzero" d="M10.305,14.3850001 L11.345,17.7150001 C11.4526296,18.0660714 11.3876801,18.4473713 11.1698916,18.7430118 C10.952103,19.0386524 10.6071969,19.2137176 10.24,19.2150001 L10.24,19.2150001 C9.73317364,19.2139037 9.28573637,18.8838934 9.13500004,18.4000001 L7.81000003,14.2000001"/>
    <path fill="#000" fill-rule="nonzero" d="M10.24,19.4700001 C9.62070845,19.46821 9.0750759,19.0625353 8.89500004,18.4700001 L7.57000003,14.2650001 C7.5306415,14.1326447 7.60378488,13.9930073 7.73500003,13.9500001 C7.79864907,13.9297038 7.86777378,13.9357269 7.92695329,13.9667256 C7.98613281,13.9977244 8.03044344,14.0511199 8.05000003,14.1150001 L9.37500004,18.3150001 C9.49143024,18.6951919 9.84237984,18.9548541 10.24,18.9550001 C10.5300875,18.957199 10.8028346,18.8170892 10.97,18.5800001 C11.1450671,18.3503782 11.19558,18.0491714 11.105,17.7750001 L10.065,14.4450001 C10.0235787,14.3069289 10.1019289,14.1614214 10.24,14.1200001 C10.3780712,14.0785787 10.5235787,14.1569289 10.565,14.2950001 L11.605,17.6250001 C11.7385265,18.0529183 11.660622,18.5188317 11.3951483,18.8800339 C11.1296746,19.2412361 10.708267,19.4546841 10.26,19.4550001 L10.24,19.4700001 Z"/>
    <path fill="#CCC" fill-rule="nonzero" d="M16.8700001,9.56000004 C17.3637133,9.52968578 17.8334643,9.77586741 18.08949,10.1990962 C18.3455157,10.6223249 18.3455157,11.1526751 18.08949,11.5759039 C17.8334643,11.9991327 17.3637133,12.2453143 16.8700001,12.2150001"/>
    <path fill="#000" fill-rule="nonzero" d="M16.8700001,12.4650001 C16.7319289,12.4650001 16.6200001,12.3530712 16.6200001,12.2150001 C16.6200001,12.0769289 16.7319289,11.965 16.8700001,11.965 C17.4664676,11.965 17.9500001,11.4814676 17.9500001,10.885 C17.9500001,10.2885325 17.4664676,9.80500004 16.8700001,9.80500004 C16.7319289,9.80500004 16.6200001,9.69307123 16.6200001,9.55500004 C16.6200001,9.41692885 16.7319289,9.30500004 16.8700001,9.30500004 C17.74261,9.30500004 18.4500001,10.0123901 18.4500001,10.885 C18.4500001,11.75761 17.74261,12.4650001 16.8700001,12.4650001 L16.8700001,12.4650001 Z"/>
    <path fill="#CCC" fill-rule="nonzero" d="M16.8700001,16.5000001 L16.8700001,5.29000002 L16.8700001,5.29000002 C14.0825822,6.80842822 10.9591648,7.60432381 7.78500002,7.60500003 L7.78500002,7.60500003 C6.40428815,7.60500003 5.28500002,8.72428816 5.28500002,10.105 L5.28500002,11.67 C5.28500002,13.0507119 6.40428815,14.1700001 7.78500002,14.1700001 L7.78500002,14.1700001 C10.9604584,14.1752775 14.0839537,14.97635 16.8700001,16.5000001 Z"/>
    <path fill="#000" fill-rule="nonzero" d="M16.8700001,16.7350001 C16.8280659,16.7356567 16.7866918,16.7253131 16.7500001,16.7050001 C13.9991249,15.2072625 10.9171765,14.4217352 7.78500003,14.4200001 C6.26816995,14.4172422 5.04000002,13.1868326 5.04000002,11.67 L5.04000002,10.105 C5.04000002,8.58816745 6.26816995,7.35775791 7.78500003,7.35500003 C10.9171765,7.35326489 13.9991249,6.56773762 16.7500001,5.07000002 C16.8275633,5.02756067 16.9217743,5.02924612 16.9977699,5.07443266 C17.0737654,5.1196192 17.1202418,5.20158572 17.120001,5.29000002 L17.120001,16.5000001 C17.1194642,16.5887778 17.0718862,16.670612 16.9950001,16.7150001 C16.9552716,16.7306335 16.9126231,16.7374572 16.8700001,16.7350001 L16.8700001,16.7350001 Z M16.6200001,5.70500002 C13.8888073,7.11654079 10.8593878,7.85375096 7.78500003,7.85500003 C6.54431241,7.85775712 5.54000002,8.86430936 5.54000002,10.105 L5.54000002,11.67 C5.54000002,12.9106907 6.54431241,13.917243 7.78500003,13.9200001 C10.8593878,13.9212491 13.8888073,14.6584593 16.6200001,16.0700001 L16.6200001,5.70500002 Z"/>
    <path fill="#000" fill-rule="nonzero" d="M7.81000003,14.4200001 C7.67192884,14.4200001 7.56000003,14.3080712 7.56000003,14.1700001 L7.56000003,7.60500003 C7.56000003,7.46692885 7.67192885,7.35500005 7.81000003,7.35500005 C7.94807121,7.35500005 8.06000003,7.46692885 8.06000003,7.60500003 L8.06000003,14.1700001 C8.06000003,14.3080712 7.94807122,14.4200001 7.81000003,14.4200001 Z"/>
  </g>
</svg>
