<svg xmlns="http://www.w3.org/2000/svg" width="24" height="24" viewBox="0 0 24 24">
  <g fill="none" fill-rule="evenodd">
    <path fill="#000" fill-rule="nonzero" d="M17.8000001 5.90000002L16.6000001 5.90000002C16.4500001 5.90000002 16.3500001 6.00000003 16.3500001 6.15000003 16.3500001 6.30000003 16.4500001 6.40000002 16.6000001 6.40000002L17.8000001 6.40000002C17.9500001 6.40000002 18.0500001 6.30000003 18.0500001 6.15000003 18.0500001 6.00000003 17.9000001 5.90000002 17.8000001 5.90000002zM15.9000001 8.05000003C15.8000001 7.95000003 15.6500001 7.95000003 15.5500001 8.05000003 15.4500001 8.15000003 15.4500001 8.30000003 15.5500001 8.40000004L16.4000001 9.25000004C16.4500001 9.30000004 16.5000001 9.30000004 16.6000001 9.30000004 16.7000001 9.30000004 16.7500001 9.30000004 16.8000001 9.25000004 16.9000001 9.15000004 16.9000001 9.00000004 16.8000001 8.90000004L15.9000001 8.05000003zM15.7000001 4.25000002C15.7500001 4.25000002 15.8500001 4.25000002 15.9000001 4.20000002L16.7500001 3.35000001C16.8500001 3.25000001 16.8500001 3.10000001 16.7500001 3.00000001 16.6500001 2.90000001 16.5000001 2.90000001 16.4000001 3.00000001L15.5000001 3.85000002C15.4000001 3.95000002 15.4000001 4.10000002 15.5000001 4.20000002 15.5500001 4.25000002 15.6500001 4.25000002 15.7000001 4.25000002zM14.1000001 4.60000002L14.1000001.550000002C14.1000001.450000002 14.0500001.400000002 14 .350000001 13.9000001.300000001 13.8500001.300000001 13.7500001.350000001 11 1.85000001 7.90000003 2.65000001 4.80000002 2.65000001 3.60000001 2.65000001 2.60000001 3.40000001 2.20000001 4.50000002L1.70000001 4.50000002C.750000003 4.50000002 8.88178423e-16 5.25000002 8.88178423e-16 6.20000003 8.88178423e-16 7.15000003.750000003 7.90000003 1.70000001 7.90000003L2.20000001 7.90000003C2.55000001 8.90000004 3.5 9.65000004 4.60000002 9.70000004L5.90000002 13.7500001C6.10000003 14.3500001 6.65000003 14.7500001 7.25000003 14.7500001 7.70000003 14.7500001 8.10000003 14.5500001 8.40000004 14.2000001 8.65000004 13.8500001 8.75000004 13.4000001 8.60000004 12.9500001L7.65000003 9.95000004C9.80000004 10.3 11.85 10.95 13.7500001 12.0000001 13.8000001 12.0000001 13.8500001 12.0500001 13.8500001 12.0500001 13.9000001 12.0500001 13.9500001 12.0500001 14 12.0000001 14.1000001 11.95 14.1000001 11.85 14.1000001 11.8L14.1000001 7.75000003C14.8500001 7.65000003 15.4500001 7.00000003 15.4500001 6.20000003 15.4500001 5.40000002 14.8500001 4.70000002 14.1000001 4.60000002z" transform="translate(3 4.5)"/>
    <rect width="24" height="24"/>
  </g>
</svg>
