<svg xmlns="http://www.w3.org/2000/svg" width="24" height="24" viewBox="0 0 24 24">
  <g fill="none" fill-rule="evenodd">
    <rect width="24" height="24"/>
    <g fill-rule="nonzero" transform="translate(3 2.5)">
      <path fill="#CCC" d="M14.0000001,0.539995691 L3.83000002,0.539995691 C2.71291172,0.537787131 1.77843212,1.38770826 1.67500001,2.50000001 L0.305000001,16.0800001 C0.244345562,16.6891622 0.443813819,17.2956055 0.854230489,17.7498254 C1.26464716,18.2040452 1.84782682,18.4637807 2.46000001,18.4650001 L15.3700001,18.4650001 C15.9821733,18.4637807 16.5653529,18.2040452 16.9757696,17.7498254 C17.3861863,17.2956055 17.5856545,16.6891622 17.5250001,16.0800001 L16.1550001,2.50000001 C16.051568,1.38770826 15.1170884,0.537787131 14.0000001,0.539995691 Z"/>
      <path fill="#000" d="M15.3700001,18.7150001 L2.46000001,18.7150001 C1.77695446,18.7141337 1.12608368,18.4246547 0.667993534,17.9179937 C0.209903391,17.4113327 -0.0127406586,16.7346788 0.0550000002,16.0550001 L1.42500001,2.46500001 C1.54614986,1.228444 2.58752793,0.286657183 3.83000002,0.28999113 L14.0000001,0.28999113 C15.2414603,0.2868912 16.2812777,1.22922572 16.4000001,2.46500001 L17.7700001,16.0550001 C17.8377407,16.7346788 17.6150967,17.4113327 17.1570065,17.9179937 C16.6989164,18.4246547 16.0480456,18.7141337 15.3650001,18.7150001 L15.3700001,18.7150001 Z M3.83000002,0.789970678 C2.84854823,0.784606033 2.02275656,1.52392738 1.92000001,2.50000001 L0.555000002,16.1050001 C0.499828337,16.6439978 0.675563326,17.181141 1.03864917,17.583299 C1.40173502,17.9854571 1.91818597,18.2150001 2.46000001,18.2150001 L15.3700001,18.2150001 C15.9118141,18.2150001 16.4282651,17.9854571 16.7913509,17.583299 C17.1544367,17.181141 17.3301717,16.6439978 17.2750001,16.1050001 L15.9100001,2.50000001 C15.8072435,1.52392738 14.9814518,0.784606033 14.0000001,0.789970678 L3.83000002,0.789970678 Z"/>
      <path fill="#CCC" d="M5.16500002,4.14000002 L5.16500002,4.79500002 C5.16500002,6.86606784 6.84393222,8.54500004 8.91500004,8.54500004 L8.91500004,8.54500004 C9.90956188,8.54500004 10.8633891,8.14991188 11.5666505,7.44665046 C12.2699119,6.74338904 12.665,5.78956186 12.665,4.79500002 L12.665,4.14000002"/>
      <path fill="#000" d="M8.91500002,8.79500004 C6.70586103,8.79500004 4.91500002,7.00413903 4.91500002,4.79500002 L4.91500002,4.14000002 C4.91500002,4.00192883 5.02692883,3.89000002 5.16500002,3.89000002 C5.30307121,3.89000002 5.41500002,4.00192883 5.41500002,4.14000002 L5.41500002,4.79500002 C5.41500002,6.72799665 6.9820034,8.29500003 8.91500002,8.29500003 C10.8479967,8.29500003 12.415,6.72799665 12.415,4.79500002 L12.415,4.14000002 C12.415,4.00192883 12.5269289,3.89000002 12.6650001,3.89000002 C12.8030712,3.89000002 12.915,4.00192883 12.915,4.14000002 L12.915,4.79500002 C12.915,7.00413903 11.124139,8.79500004 8.91500002,8.79500004 Z"/>
    </g>
  </g>
</svg>
