<svg xmlns="http://www.w3.org/2000/svg" width="24" height="24" viewBox="0 0 24 24">
  <g fill="none" fill-rule="evenodd">
    <path fill="#000" fill-rule="nonzero" d="M19.2500001,5.00000002 C19.1500001,3.90000002 18.2000001,3.05000001 17.1000001,3.05000001 L6.90000003,3.05000001 C5.80000002,3.05000001 4.85000002,3.90000002 4.75000002,5.00000002 L3.40000001,18.6000001 C3.25000001,19.9000001 4.25000002,21.0000001 5.55000002,21.0000001 L18.4500001,21.0000001 C19.7500001,21.0000001 20.7500001,19.9000001 20.6000001,18.6000001 L19.2500001,5.00000002 Z M16,7.30000003 C16,9.50000004 14.2000001,11.3 12,11.3 C9.80000004,11.3 8.00000003,9.50000004 8.00000003,7.30000003 L8.00000003,6.65000003 C8.00000003,6.50000003 8.10000003,6.40000003 8.25000003,6.40000003 C8.40000004,6.40000003 8.50000003,6.50000003 8.50000003,6.65000003 L8.50000003,7.30000003 C8.50000003,9.25000004 10.05,10.8 12,10.8 C13.9500001,10.8 15.5,9.25000004 15.5,7.30000003 L15.5,6.65000003 C15.5,6.50000003 15.6000001,6.40000003 15.7500001,6.40000003 C15.9000001,6.40000003 16,6.50000003 16,6.65000003 L16,7.30000003 Z"/>
    <rect width="24" height="24"/>
  </g>
</svg>
