<svg xmlns="http://www.w3.org/2000/svg" width="24" height="24" viewBox="0 0 24 24">
  <g fill="none" fill-rule="evenodd">
    <path fill="#000" fill-rule="nonzero" d="M19.0000001,18.5500001 L19.0000001,9.55000004 L19.0000001,7.25000003 C19.0000001,7.25000003 19.0000001,7.25000003 19.0000001,7.20000003 C19.0000001,7.20000003 19.0000001,7.15000003 19.0000001,7.15000003 C19.0000001,7.15000003 19.0000001,7.10000003 19.0000001,7.10000003 C19.0000001,7.10000003 19.0000001,7.10000003 19.0000001,7.05000003 C19.0000001,7.05000003 19.0000001,7.00000003 18.9500001,7.00000003 L12.1500001,2.75000001 C12.0500001,2.70000001 11.95,2.70000001 11.9,2.75000001 C7.3666667,5.65000002 5.08333335,7.1166667 5.05000002,7.15000003 C5.05000002,7.15000003 5.05000002,7.20000003 5.05000002,7.20000003 C5.05000002,7.20000003 5.05000002,7.25000003 5.05000002,7.25000003 L5.05000002,9.55000004 L5.05000002,18.5500001 C3.80000001,18.7000001 2.80000001,19.7500001 2.80000001,21.0500001 C2.80000001,21.2000001 2.90000001,21.3000001 3.05000001,21.3000001 L21.0500001,21.3000001 C21.2000001,21.3000001 21.3,21.2000001 21.3,21.0500001 C21.2500001,19.7500001 20.2500001,18.7000001 19.0000001,18.5500001 Z M13.2500001,18.5000001 L13.2500001,9.80000004 L16.5000001,9.80000004 L16.5000001,18.5000001 L13.2500001,18.5000001 Z M7.50000003,9.80000004 L10.75,9.80000004 L10.75,18.5000001 L7.50000003,18.5000001 L7.50000003,9.80000004 Z"/>
    <rect width="24" height="24"/>
  </g>
</svg>
