<svg xmlns="http://www.w3.org/2000/svg" width="24" height="24" viewBox="0 0 24 24">
  <g fill="none" fill-rule="evenodd">
    <g transform="translate(2.5 2.5)">
      <rect width="5.5" height="1" x="6.85" y="18.75"/>
      <path fill="#000" fill-rule="nonzero" d="M9.50000004,2.15000001 C7.55000003,2.15000001 5.95000002,3.75000002 5.95000002,5.70000002 C5.95000002,7.65000001 7.55000003,9.25000004 9.50000004,9.25000004 C11.45,9.25000004 13.0500001,7.65000001 13.0500001,5.70000002 C13.0500001,3.75000002 11.45,2.15000001 9.50000004,2.15000001 Z M9.25000004,5.25000001 L9.75000004,5.25000001 C10.3,5.25000001 10.7,5.70000002 10.7,6.20000003 C10.7,6.75000001 10.25,7.15000003 9.75000004,7.15000003 L9.75000004,7.15000003 L9.75000004,7.50000003 C9.75000004,7.65000003 9.65000004,7.75000001 9.50000004,7.75000001 C9.35000004,7.75000001 9.25000004,7.65000003 9.25000004,7.50000003 L9.25000004,7.15000003 L8.55000004,7.15000003 C8.40000003,7.15000003 8.30000003,7.05000003 8.30000003,6.90000003 C8.30000003,6.75000001 8.40000003,6.65000003 8.55000004,6.65000003 L9.80000003,6.65000003 C10.05,6.65000003 10.25,6.45000003 10.25,6.20000003 C10.25,5.95000002 10.05,5.75000001 9.80000003,5.75000001 L9.30000003,5.75000001 C8.75000004,5.75000001 8.35000003,5.30000002 8.35000003,4.80000002 C8.35000003,4.30000002 8.80000003,3.85000002 9.30000003,3.85000002 L9.30000003,3.85000002 L9.30000003,3.50000001 C9.30000003,3.35000001 9.40000004,3.25000001 9.55000004,3.25000001 C9.70000004,3.25000001 9.80000003,3.35000001 9.80000003,3.50000001 L9.80000003,3.85000002 L10.5,3.85000002 C10.65,3.85000002 10.75,3.95000002 10.75,4.10000002 C10.75,4.25000001 10.65,4.35000002 10.5,4.35000002 L9.25000004,4.35000002 C9.00000004,4.35000002 8.80000003,4.55000002 8.80000003,4.80000002 C8.80000003,5.05000002 9.00000004,5.25000001 9.25000004,5.25000001 Z"/>
      <path fill="#000" fill-rule="nonzero" d="M15.4500001,15.3500001 C15.4500001,15.2000001 15.5500001,15.1000001 15.7000001,15.1000001 L18.75,15.1000001 L18.75,12.6000001 L15.7000001,12.6000001 C15.5500001,12.6000001 15.4500001,12.5000001 15.4500001,12.3500001 C15.4500001,12.2000001 15.5500001,12.1000001 15.7000001,12.1000001 L18.75,12.1000001 L18.75,10.45 C18.75,9.75 18.2000001,9.20000004 17.5000001,9.20000004 L15.75,9.20000004 L15.75,2.50000001 C15.75,1.25 14.75,0.250000001 13.5000001,0.250000001 L5.50000002,0.250000001 C4.25,0.250000001 3.25,1.25 3.25,2.50000001 L3.25,9.20000004 L1.50000001,9.20000004 C0.800000003,9.20000004 0.250000001,9.75 0.250000001,10.45 L0.250000001,12.1000001 L3.25,12.1000001 C3.40000001,12.1000001 3.50000001,12.2000001 3.50000001,12.3500001 C3.50000001,12.5000001 3.40000001,12.6000001 3.25,12.6000001 L0.250000001,12.6000001 L0.250000001,15.1000001 L3.25,15.1000001 C3.40000001,15.1000001 3.50000001,15.2000001 3.50000001,15.3500001 C3.50000001,15.5000001 3.40000001,15.6000001 3.25,15.6000001 L0.250000001,15.6000001 L0.250000001,17.8000001 C0.250000001,18.3000001 0.650000003,18.7000001 1.15,18.7000001 L3.50000001,18.7000001 L6.35000003,18.7000001 L6.35000003,12.9500001 C6.35000003,12.25 6.95000003,11.65 7.65000003,11.65 L11.6,11.65 C12.3000001,11.65 12.9000001,12.25 12.9000001,12.9500001 L12.9000001,18.7000001 L15.5000001,18.7000001 L17.8500001,18.7000001 C18.3500001,18.7000001 18.75,18.3000001 18.75,17.8000001 L18.75,15.6000001 L15.7000001,15.6000001 C15.5500001,15.6000001 15.4500001,15.5000001 15.4500001,15.3500001 Z M9.50000004,9.70000004 C7.30000003,9.70000004 5.45000002,7.90000003 5.45000002,5.65000002 C5.45000002,3.40000001 7.25000003,1.60000001 9.50000004,1.60000001 C11.75,1.60000001 13.5500001,3.40000001 13.5500001,5.65000002 C13.5500001,7.90000003 11.7,9.70000004 9.50000004,9.70000004 Z"/>
      <path fill="#000" fill-rule="nonzero" d="M11.55,12.1500001 L7.60000003,12.1500001 C7.15000003,12.1500001 6.80000003,12.5000001 6.80000003,12.9500001 L6.80000003,18.7000001 L12.3,18.7000001 L12.3500001,12.9500001 C12.3500001,12.5000001 12,12.1500001 11.55,12.1500001 Z"/>
    </g>
    <rect width="24" height="24"/>
  </g>
</svg>
