<svg xmlns="http://www.w3.org/2000/svg" width="24" height="24" viewBox="0 0 24 24">
  <g fill="none" fill-rule="evenodd">
    <g fill="#000" fill-rule="nonzero" transform="translate(3 2.5)">
      <path d="M11.25,11.05 L6.95000003,11.05 C6.50000003,11.05 6.15000003,11.25 5.95000002,11.55 C5.80000002,11.8 5.80000002,12.05 5.95000002,12.3000001 L8.10000003,16.2000001 C8.25000003,16.4500001 8.50000004,16.6000001 8.80000004,16.7000001 L8.80000004,13.9500001 L7.50000003,12.7000001 C7.40000003,12.6000001 7.40000003,12.4500001 7.50000003,12.3500001 C7.60000003,12.2500001 7.75000003,12.2500001 7.85000003,12.3500001 L9.05000004,13.5000001 L10.2,12.3000001 C10.3,12.2000001 10.45,12.2000001 10.55,12.3000001 C10.65,12.4000001 10.65,12.55 10.55,12.6500001 L9.25000004,14.0000001 L9.25000004,16.7000001 C9.60000004,16.6500001 9.95000004,16.4500001 10.1,16.2000001 L12.2500001,12.3000001 C12.4000001,12.05 12.4000001,11.8 12.2500001,11.55 C12.0500001,11.25 11.65,11.05 11.25,11.05 Z"/>
      <path d="M15.9500001,7.35000003 C17.0500001,6.65000003 17.9000001,5.40000002 17.9000001,4.05000002 C17.9000001,1.95000001 16.2000001,0.250000001 14.1,0.250000001 C12.9000001,0.250000001 11.7,0.950000004 10.95,1.90000001 C10.85,1.90000001 10.8,1.90000001 10.7,1.90000001 L7.25000003,1.90000001 C7.15000003,1.90000001 7.1,1.90000001 7.00000003,1.90000001 C6.30000003,0.900000004 5.1,0.250000001 3.90000002,0.250000001 C1.80000001,0.250000001 0.1,1.95000001 0.1,4.05000002 C0.1,5.35000002 0.900000004,6.65000003 2.05000001,7.35000003 L1.30000001,8.80000004 C0.800000003,9.75 0.550000002,10.85 0.550000002,11.9 C0.550000002,15.6500001 3.6,18.75 7.40000003,18.75 L10.55,18.75 C14.3000001,18.75 17.4000001,15.7000001 17.4000001,11.9 C17.4000001,10.8 17.1500001,9.75 16.6500001,8.80000004 L15.9500001,7.35000003 Z M5.00000002,5.90000002 C5.10000002,5.80000002 5.25000002,5.80000002 5.35000002,5.90000002 L6.80000003,7.35000003 C6.90000003,7.45000003 6.90000003,7.60000003 6.80000003,7.70000003 C6.75000003,7.75000003 6.70000003,7.75000003 6.60000003,7.75000003 C6.50000003,7.75000003 6.45000003,7.75000003 6.40000003,7.70000003 L5.00000002,6.25000003 C4.90000002,6.15000003 4.90000002,6.00000002 5.00000002,5.90000002 Z M12.7000001,12.55 L10.55,16.4500001 C10.3,16.9500001 9.70000004,17.2500001 9.10000004,17.2500001 C8.45000004,17.2500001 7.90000003,16.9500001 7.65000003,16.4500001 L5.50000002,12.55 C5.30000002,12.1500001 5.30000002,11.7 5.50000002,11.3 C5.80000002,10.85 6.35000002,10.55 6.95000003,10.55 L11.25,10.55 C11.85,10.55 12.4000001,10.85 12.7000001,11.3 C12.9000001,11.7 12.9000001,12.1500001 12.7000001,12.55 Z M13.0000001,6.25000003 L11.55,7.70000003 C11.5,7.75000003 11.45,7.75000003 11.35,7.75000003 C11.25,7.75000003 11.2,7.75000003 11.15,7.70000003 C11.05,7.60000003 11.05,7.45000003 11.15,7.35000003 L12.6000001,5.90000002 C12.7000001,5.80000002 12.8500001,5.80000002 12.9500001,5.90000002 C13.0500001,6.00000002 13.1000001,6.15000003 13.0000001,6.25000003 Z"/>
    </g>
    <rect width="24" height="24"/>
  </g>
</svg>
