<svg xmlns="http://www.w3.org/2000/svg" width="24" height="24" viewBox="0 0 24 24">
  <g fill="none" fill-rule="evenodd">
    <rect width="24" height="24"/>
    <path fill="#CCC" fill-rule="nonzero" d="M12.0850001,4.6349996 L13.8000001,4.6349996 C15.205402,4.63433889 16.4922073,5.4226521 17.1300001,6.67500003 L19.5450001,11.4 C20.017035,12.3296656 20.2636823,13.3573624 20.265002,14.4000001 L20.265002,14.4000001 C20.2663268,16.149969 19.5720842,17.8287178 18.335138,19.0666019 C17.0981917,20.3044859 15.4199695,21.0000001 13.6700001,21.0000001 L10.5,21.0000001 C8.75003064,21.0000001 7.0718084,20.3044859 5.83486214,19.0666019 C4.59791589,17.8287178 3.90367328,16.149969 3.90499812,14.4000001 L3.90499812,14.4000001 C3.90631782,13.3573624 4.15296506,12.3296656 4.62500002,11.4 L7.04000003,6.67500003 C7.67779277,5.4226521 8.96459815,4.63433889 10.37,4.6349996 L12.0850001,4.6349996 Z"/>
    <path fill="#000" fill-rule="nonzero" d="M13.6700001,21.2400023 L10.5,21.2400023 C8.11725452,21.241906 5.90522788,20.0036972 4.66105256,17.9715782 C3.41687724,15.9394592 3.3198743,13.4063162 4.40500002,11.285 L6.81500003,6.56000003 C7.49888103,5.2261838 8.87108169,4.38665175 10.37,4.38498165 L13.8000001,4.38498165 C15.2993942,4.38044856 16.6731021,5.22208648 17.3500001,6.56000003 L19.7650001,11.285 C20.8501258,13.4063162 20.7531229,15.9394592 19.5089475,17.9715782 C18.2647722,20.0036972 16.0527456,21.241906 13.6700001,21.2400023 L13.6700001,21.2400023 Z M10.37,4.88500002 C9.05888619,4.87987404 7.8571715,5.6152228 7.26500003,6.78500003 L4.85000002,11.5 C3.83802818,13.4673582 3.92479098,15.8199524 5.07892756,17.7074253 C6.23306414,19.5948983 8.28763313,20.7442343 10.5,20.7400117 L13.6700001,20.7400117 C15.882367,20.7442343 17.936936,19.5948983 19.0910725,17.7074253 C20.2452091,15.8199524 20.3319719,13.4673582 19.3200001,11.5 L16.9050001,6.77000003 C16.3128286,5.6002228 15.1111139,4.86487404 13.8000001,4.86997339 L10.37,4.88500002 Z"/>
    <path fill="#000" fill-rule="nonzero" d="M18.8579511 9.91408801C18.7481469 9.91162711 18.6527942 9.8378084 18.6229249 9.73211675 18.5930555 9.6264251 18.6356657 9.51361686 18.7279511 9.45406586 19.8554036 8.74631006 20.6152386 7.34716218 20.3988824 6.0336716 20.1825262 4.72018103 19.1992651 3.66470306 17.9043751 3.35595191 16.609485 3.04720076 15.2557559 3.54545116 14.4700001 4.62000002 14.3885381 4.73183768 14.2318377 4.75646202 14.1200001 4.67500002 14.0081624 4.59353802 13.9835381 4.43683768 14.0650001 4.32500002 14.970396 3.08956808 16.5282916 2.51745504 18.0180594 2.87330018 19.5078272 3.22914532 20.6389923 4.44356597 20.8883177 5.95481403 21.1376431 7.46606209 20.2894664 9.06354028 18.9929511 9.87906586 18.9517927 9.90235369 18.9052397 9.91442299 18.8579511 9.91408801zM5.14500002 9.83000004C5.09771144 9.83035717 5.30901065 9.92754168 5.26785224 9.90425385 3.97697555 9.08681933 3.041446 7.46801895 3.28844676 5.96018857 3.53544753 4.45235819 4.65934452 3.23793118 6.14356444 2.87509088 7.62778435 2.51225059 9.1852074 3.07118783 10.1 4.29500002 10.1828427 4.40683768 10.1593377 4.5646573 10.0475 4.64750001 9.93566238 4.73034272 9.77784276 4.70683768 9.69500004 4.59500002 8.90795247 3.52159998 7.5538043 3.02507762 6.25943148 3.33528809 4.96505866 3.64549857 3.98308499 4.70189784 3.76809564 6.0154469 3.55310629 7.32899595 4.40491313 8.75258215 5.53285225 9.45925385 5.62513758 9.51880485 5.66774785 9.63161309 5.63787847 9.73730474 5.60800909 9.84299639 5.51265642 9.9168151 5.40285224 9.91925385L5.14500002 9.83000004zM12.1600001 19.7550001C11.5679172 19.7737712 11.011729 19.4717859 10.705 18.9650001L8.54500004 15.0600001C8.32230485 14.6784507 8.32230485 14.2065494 8.54500004 13.8250001 8.85991734 13.3304886 9.41422166 13.0409551 10 13.0650001L14.3100001 13.0650001C14.8905099 13.0463546 15.4378276 13.3352167 15.7500001 13.8250001 15.9726952 14.2065494 15.9726952 14.6784507 15.7500001 15.0600001L13.5900001 18.9650001C13.2877495 19.4639081 12.7432412 19.7647204 12.1600001 19.7550001L12.1600001 19.7550001zM10 13.5650001C9.60304033 13.5494364 9.22572497 13.7380941 9.00000004 14.0650001 8.86242811 14.2924849 8.86242811 14.5775152 9.00000004 14.8050001L11.155 18.7050001C11.3865532 19.0399541 11.767801 19.239876 12.1750001 19.239876 12.5821991 19.239876 12.963447 19.0399541 13.1950001 18.7050001L15.3500001 14.8050001C15.487572 14.5775152 15.487572 14.2924849 15.3500001 14.0650001 15.1242751 13.7380941 14.7469598 13.5494364 14.3500001 13.5650001L10 13.5650001z"/>
    <path fill="#000" fill-rule="nonzero" d="M12.0750001,19.5300001 C11.9369289,19.5300001 11.825,19.4180713 11.825,19.2800001 L11.825,16.4100001 C11.825,16.2719289 11.9369289,16.1600001 12.0750001,16.1600001 C12.2130712,16.1600001 12.325,16.2719289 12.325,16.4100001 L12.325,19.2800001 C12.325,19.4180713 12.2130712,19.5300001 12.0750001,19.5300001 Z"/>
    <path fill="#000" fill-rule="nonzero" d="M12.1350001,16.6150001 C12.0694549,16.6171066 12.006011,16.591729 11.96,16.5450001 C11.9116614,16.4996334 11.8842407,16.436293 11.8842407,16.3700001 C11.8842407,16.3037071 11.9116614,16.2403667 11.96,16.1950001 L13.2650001,14.8350001 C13.3110818,14.787968 13.3741552,14.7614643 13.4400001,14.7614643 C13.5058449,14.7614643 13.5689183,14.787968 13.6150001,14.8350001 C13.6623282,14.8819417 13.6889496,14.9458407 13.6889496,15.0125001 C13.6889496,15.0791594 13.6623282,15.1430584 13.6150001,15.1900001 L12.3100001,16.5500001 C12.2619797,16.5930079 12.1994524,16.6162323 12.1350001,16.6150001 L12.1350001,16.6150001 Z"/>
    <path fill="#000" fill-rule="nonzero" d="M12.0750001 16.5900001C12.0116007 16.5886166 11.9509915 16.5636598 11.905 16.5200001L10.545 15.2150001C10.4726884 15.1553315 10.4398385 15.0602209 10.4599117 14.9686438 10.479985 14.8770667 10.5496071 14.8044175 10.6402476 14.7804673 10.730888 14.756517 10.8273098 14.7852918 10.89 14.8550001L12.2500001 16.1600001C12.2983387 16.2053667 12.3257594 16.2687071 12.3257594 16.3350001 12.3257594 16.401293 12.2983387 16.4646334 12.2500001 16.5100001 12.2065866 16.561523 12.1423689 16.5908796 12.0750001 16.5900001L12.0750001 16.5900001zM14.4650001 10.24C14.3649813 10.238595 14.275428 10.1777065 14.2373421 10.0852122 14.1992562 9.99271785 14.2199701 9.88642512 14.2900001 9.81500004L15.7200001 8.38500003C15.7669417 8.33767187 15.8308407 8.31105045 15.8975001 8.31105045 15.9641595 8.31105045 16.0280584 8.33767187 16.0750001 8.38500003 16.1233387 8.4303667 16.1507594 8.49370708 16.1507594 8.56000004 16.1507594 8.62629299 16.1233387 8.68963337 16.0750001 8.73500004L14.6450001 10.17C14.5967991 10.2165029 14.5319544 10.2417203 14.4650001 10.24zM9.70500004 10.24C9.63804569 10.2417203 9.57320098 10.2165029 9.52500004 10.17L8.09500003 8.73500004C8.04666142 8.68963337 8.01924071 8.62629299 8.01924071 8.56000004 8.01924071 8.49370708 8.04666142 8.4303667 8.09500003 8.38500003 8.14194168 8.33767187 8.20584065 8.31105045 8.27250003 8.31105045 8.33915942 8.31105045 8.40305839 8.33767187 8.45000004 8.38500003L9.88000004 9.81500004C9.97589169 9.91390688 9.97589169 10.0710932 9.88000004 10.17 9.83333492 10.2157357 9.77033389 10.2409362 9.70500004 10.24z"/>
  </g>
</svg>
