<svg xmlns="http://www.w3.org/2000/svg" width="24" height="24" viewBox="0 0 24 24">
  <g fill="none" fill-rule="evenodd">
    <path fill="#000" fill-rule="nonzero" d="M19.0000001,2.75000001 L5.00000002,2.75000001 C3.75000001,2.75000001 2.75000001,3.75000001 2.75000001,5.00000002 C2.75000001,6.25000001 3.75000001,7.25000001 5.00000002,7.25000001 L5.70000002,7.25000001 L5.70000002,20.2000001 C5.70000002,20.6500001 5.95000002,21.0000001 6.30000003,21.1500001 C6.65000003,21.3000001 7.00000003,21.2000001 7.25000001,20.9000001 L8.40000004,19.6500001 C8.60000004,19.4500001 8.80000004,19.3500001 9.05000004,19.3500001 C9.30000004,19.3500001 9.50000004,19.4500001 9.70000004,19.6000001 L10.9,20.8000001 C11.2,21.1000001 11.55,21.2000001 11.9,21.2000001 C12.25,21.2000001 12.6000001,21.0500001 12.9000001,20.8000001 L14.1500001,19.6000001 C14.3500001,19.4000001 14.5500001,19.3500001 14.8000001,19.3500001 C15.0500001,19.3500001 15.25,19.4500001 15.4500001,19.6500001 L16.5500001,20.9000001 C16.8000001,21.2000001 17.2000001,21.3000001 17.5000001,21.1500001 C17.9000001,21.0000001 18.1000001,20.6500001 18.1000001,20.2000001 L18.1000001,7.30000003 L19.0000001,7.30000003 C20.25,7.30000003 21.25,6.30000003 21.25,5.05000002 C21.25,3.80000002 20.25,2.75000001 19.0000001,2.75000001 Z M15.5500001,14.5500001 L8.45000004,14.5500001 C8.30000003,14.5500001 8.20000003,14.4500001 8.20000003,14.3000001 C8.20000003,14.1500001 8.30000003,14.0500001 8.45000004,14.0500001 L15.6000001,14.0500001 C15.7500001,14.0500001 15.8500001,14.1500001 15.8500001,14.3000001 C15.8500001,14.4500001 15.7,14.5500001 15.5500001,14.5500001 Z M15.5500001,11.65 L8.45000004,11.65 C8.30000003,11.65 8.20000003,11.55 8.20000003,11.4 C8.20000003,11.25 8.30000003,11.15 8.45000004,11.15 L15.6000001,11.15 C15.7500001,11.15 15.8500001,11.25 15.8500001,11.4 C15.8500001,11.55 15.7,11.65 15.5500001,11.65 Z M19.0000001,6.80000001 L18.3000001,6.80000001 L18.3000001,5.30000001 L19.3500001,5.30000001 C19.5000001,5.30000001 19.6000001,5.20000002 19.6000001,5.05000002 C19.6000001,4.90000002 19.5000001,4.80000001 19.3500001,4.80000001 L18.0500001,4.80000001 C18.0500001,4.80000001 18.0500001,4.80000001 18.0000001,4.80000001 L6.00000002,4.80000001 C6.00000002,4.80000001 6.00000002,4.80000001 5.95000002,4.80000001 L4.75000001,4.80000001 C4.60000002,4.80000001 4.50000002,4.90000002 4.50000002,5.05000002 C4.50000002,5.20000002 4.60000002,5.30000001 4.75000001,5.30000001 L5.75000001,5.30000001 L5.75000001,6.80000001 L5.00000002,6.80000001 C4.00000002,6.80000001 3.25000001,6.00000002 3.25000001,5.05000002 C3.25000001,4.10000002 4.05000002,3.30000001 5.00000002,3.30000001 L19.0000001,3.30000001 C19.9500001,3.30000001 20.75,4.10000002 20.75,5.05000002 C20.75,6.00000002 19.9500001,6.80000001 19.0000001,6.80000001 Z"/>
    <rect width="24" height="24"/>
  </g>
</svg>
