<svg xmlns="http://www.w3.org/2000/svg" width="24" height="24" viewBox="0 0 24 24">
  <g fill="none" fill-rule="evenodd">
    <path fill="#000" fill-rule="nonzero" d="M12.0000001,2.75000001 C6.89136609,2.75000001 2.75000001,6.89136609 2.75000001,12.0000001 C2.75000001,17.108634 6.89136609,21.25 12,21.25 C17.108634,21.25 21.25,17.108634 21.25,12.0000001 C21.2444886,6.89365075 17.1063493,2.75551146 12.0000001,2.75000001 Z M12.0000001,20.75 C7.16750847,20.75 3.25000001,16.8324916 3.25000001,12.0000001 C3.25000001,7.16750847 7.16750847,3.25000001 12,3.25000001 C16.8324916,3.25000001 20.75,7.16750847 20.75,12 C20.7444893,16.8302071 16.8302071,20.7444893 12.0000001,20.75 Z"/>
    <path fill="#000" fill-rule="nonzero" d="M15.9250001,10 C15.9250001,8.74274085 14.9072562,7.72275718 13.6500001,7.72000003 L13.5800001,7.72000003 L13.5800001,6.22000003 C13.57734,6.0830458 13.4669543,5.97266008 13.3300001,5.97000002 C13.1919289,5.97000002 13.0800001,6.08192884 13.0800001,6.22000003 L13.0800001,7.72000003 L11,7.72000003 L11,6.22000003 C11,6.08192884 10.8880712,5.97000002 10.75,5.97000002 C10.6119289,5.97000002 10.5,6.08192884 10.5,6.22000003 L10.5,7.72000003 L8.32500003,7.72000003 C8.18692885,7.72000003 8.07500003,7.83192885 8.07500003,7.97000002 C8.07500003,8.10807122 8.18692885,8.22000003 8.32500003,8.22000003 L9.32500004,8.22000003 L9.32500004,15.8050001 L8.32500003,15.8050001 C8.18692885,15.8050001 8.07500003,15.9169289 8.07500003,16.0550001 C8.07500003,16.1930713 8.18692885,16.3050001 8.32500003,16.3050001 L10.5,16.3050001 L10.5,17.8050001 C10.5,17.9430713 10.6119289,18.0550001 10.75,18.0550001 C10.8880712,18.0550001 11,17.9430713 11,17.8050001 L11,16.3050001 L13.0700001,16.3050001 L13.0700001,17.8050001 C13.0700001,17.9430713 13.1819289,18.0550001 13.3200001,18.0550001 C13.4569543,18.05234 13.56734,17.9419543 13.5700001,17.8050001 L13.5700001,16.3050001 L13.6400001,16.3050001 C14.6936419,16.3023054 15.6069226,15.5749466 15.8453244,14.5486265 C16.0837263,13.5223065 15.5845709,12.4668557 14.6400001,12 C15.4110771,11.6288406 15.9078935,10.8555855 15.9250001,10 L15.9250001,10 Z M15.4250001,14.0500001 C15.4250001,15.0311176 14.6311137,15.8272441 13.6500001,15.8300001 L9.81500004,15.8300001 L9.81500004,12.2500001 L13.6500001,12.2500001 C14.1207593,12.2500001 14.5722375,12.4370084 14.9051146,12.7698855 C15.2379917,13.1027626 15.4250001,13.5542408 15.4250001,14.0250001 L15.4250001,14.0500001 Z M13.6500001,11.75 L9.81500004,11.75 L9.81500004,8.19500003 L13.6500001,8.19500003 C14.5950904,8.24514256 15.3356934,9.02608047 15.3356934,9.97250004 C15.3356934,10.9189196 14.5950904,11.6998575 13.6500001,11.75 L13.6500001,11.75 Z"/>
    <rect width="24" height="24"/>
  </g>
</svg>
