<svg xmlns="http://www.w3.org/2000/svg" width="24" height="24" viewBox="0 0 24 24">
  <g fill="none" fill-rule="evenodd">
    <rect width="24" height="24"/>
    <circle cx="12" cy="12" r="9" fill="#CCC" fill-rule="nonzero"/>
    <path fill="#000" fill-rule="nonzero" d="M12.0000001,21.25 C6.89136609,21.25 2.75000001,17.108634 2.75000001,12.0000001 C2.75000001,6.89136609 6.89136609,2.75000001 12,2.75000001 C17.108634,2.75000001 21.25,6.89136609 21.25,12 C21.2444886,17.1063493 17.1063493,21.2444886 12.0000001,21.25 L12.0000001,21.25 Z M12.0000001,3.25000001 C7.16750847,3.25000001 3.25000001,7.16750847 3.25000001,12 C3.25000001,16.8324916 7.16750847,20.75 12,20.75 C16.8324916,20.75 20.75,16.8324916 20.75,12.0000001 C20.7444893,7.16979296 16.8302071,3.25551081 12.0000001,3.25000001 Z"/>
    <path fill="#000" fill-rule="nonzero" d="M14.6650001,12.0000001 C15.6095709,11.5331444 16.1087263,10.4776936 15.8703244,9.45137359 C15.6319226,8.42505353 14.7186419,7.69769474 13.6650001,7.69500003 L13.5950001,7.69500003 L13.5950001,6.19500003 C13.59234,6.0580458 13.4819543,5.94766008 13.3450001,5.94500002 C13.2069289,5.94500002 13.0950001,6.05692884 13.0950001,6.19500003 L13.0950001,7.69500003 L11,7.69500003 L11,6.19500003 C11,6.05692884 10.8880712,5.94500002 10.75,5.94500002 C10.6119289,5.94500002 10.5,6.05692884 10.5,6.19500003 L10.5,7.69500003 L8.32500003,7.69500003 C8.18692885,7.69500003 8.07500003,7.80692885 8.07500003,7.94500002 C8.07500003,8.08307122 8.18692885,8.19500003 8.32500003,8.19500003 L9.32500004,8.19500003 L9.32500004,15.8050001 L8.32500003,15.8050001 C8.18692885,15.8050001 8.07500003,15.9169289 8.07500003,16.0550001 C8.07500003,16.1930713 8.18692885,16.3050001 8.32500003,16.3050001 L10.5,16.3050001 L10.5,17.8050001 C10.5,17.9430713 10.6119289,18.0550001 10.75,18.0550001 C10.8880712,18.0550001 11,17.9430713 11,17.8050001 L11,16.3050001 L13.0700001,16.3050001 L13.0700001,17.8050001 C13.0700001,17.9430713 13.1819289,18.0550001 13.3200001,18.0550001 C13.4569543,18.05234 13.56734,17.9419543 13.5700001,17.8050001 L13.5700001,16.3050001 L13.6400001,16.3050001 C14.6936419,16.3023054 15.6069226,15.5749466 15.8453244,14.5486265 C16.0837263,13.5223065 15.5845709,12.4668557 14.6400001,12 L14.6650001,12.0000001 Z M10.065,8.19500003 L13.6500001,8.19500003 C14.5950904,8.24514256 15.3356934,9.02608047 15.3356934,9.97250004 C15.3356934,10.9189196 14.5950904,11.6998575 13.6500001,11.75 L9.81500004,11.75 L9.81500004,8.19500003 L10.065,8.19500003 Z M13.6500001,15.8050001 L9.81500004,15.8050001 L9.81500004,12.2500001 L13.6500001,12.2500001 C14.5950904,12.3001426 15.3356934,13.0810805 15.3356934,14.0275001 C15.3356934,14.9739196 14.5950904,15.7548575 13.6500001,15.8050001 L13.6500001,15.8050001 Z"/>
  </g>
</svg>
