<svg xmlns="http://www.w3.org/2000/svg" width="24" height="24" viewBox="0 0 24 24">
  <g fill="none" fill-rule="evenodd">
    <path fill="#000" fill-rule="nonzero" d="M19.1500001,2.80000001 L7.55000003,2.80000001 L7.15000003,2.80000001 C5.35000002,2.80000001 3.85000002,4.30000001 3.85000002,6.10000003 L3.85000002,18.6000001 C3.85000002,18.6000001 3.85000002,18.6500001 3.85000002,18.6500001 C3.85000002,18.6500001 3.85000002,18.6500001 3.85000002,18.7000001 C3.80000002,19.3500001 4.05000002,20.0000001 4.50000002,20.4500001 C4.95000002,20.9000001 5.55000002,21.2000001 6.20000003,21.2000001 L19.1500001,21.2000001 C19.7000001,21.2000001 20.1500001,20.7500001 20.1500001,20.2000001 L20.1500001,19.1000001 L19.9000001,19.1000001 L19.6500001,19.1000001 L7.95000003,19.1000001 L7.95000003,18.6000001 L19.6500001,18.6000001 L19.9000001,18.6000001 L20.1500001,18.6000001 L20.1500001,17.1500001 L20.1500001,16.8 L20.1500001,3.85000002 C20.1500001,3.25000001 19.7000001,2.80000001 19.1500001,2.80000001 Z M12.9500001,9.65000004 L13.9500001,9.65000004 C14.85,9.65000004 15.5500001,10.4 15.5500001,11.25 C15.5500001,12.1500001 14.8000001,12.8500001 13.9500001,12.8500001 L13.7000001,12.8500001 L13.7000001,13.75 C13.7000001,13.9000001 13.6000001,14.0000001 13.4500001,14.0000001 C13.3000001,14.0000001 13.2000001,13.9000001 13.2000001,13.75 L13.2000001,12.8500001 L11.6,12.8500001 C11.45,12.8500001 11.35,12.75 11.35,12.6000001 C11.35,12.4500001 11.45,12.3500001 11.6,12.3500001 L13.9500001,12.3500001 C14.5500001,12.3500001 15.0500001,11.85 15.0500001,11.25 C15.0500001,10.65 14.5500001,10.15 13.9500001,10.15 L12.9500001,10.15 C12.0500001,10.15 11.35,9.40000004 11.35,8.55000004 C11.35,7.65000003 12.1000001,6.95000003 12.9500001,6.95000003 L13.2000001,6.95000003 L13.2000001,6.00000003 C13.2000001,5.85000002 13.3000001,5.75000002 13.4500001,5.75000002 C13.6000001,5.75000002 13.7000001,5.85000002 13.7000001,6.00000003 L13.7000001,6.90000003 L15.3000001,6.90000003 C15.4500001,6.90000003 15.5500001,7.00000003 15.5500001,7.15000003 C15.5500001,7.30000003 15.4500001,7.40000003 15.3000001,7.40000003 L12.9500001,7.40000003 C12.35,7.40000003 11.85,7.90000003 11.85,8.50000004 C11.85,9.10000004 12.3000001,9.65000004 12.9500001,9.65000004 Z"/>
    <rect width="24" height="24"/>
  </g>
</svg>
