<svg xmlns="http://www.w3.org/2000/svg" width="24" height="24" viewBox="0 0 24 24">
  <g fill="none" fill-rule="evenodd">
    <g fill="#000" fill-rule="nonzero" transform="translate(2.5 2.5)">
      <path d="M9.20000004,14.1500001 C9.30000004,12.5500001 8.65000004,11 7.35000003,10.05 L7.35000003,10.1 C7.30000003,10.95 6.85000003,11.75 6.15000003,12.3000001 L6.10000003,12.2500001 C6.30000003,10.45 5.55000002,8.70000004 4.10000002,7.60000003 C3.80000002,8.50000004 3.35000001,9.35000004 2.70000001,10.05 L1.65000001,11.15 C0.900000004,12 0.450000002,13.1 0.500000002,14.3500001 C0.600000003,16.6 2.40000001,18.4000001 4.65000002,18.5000001 C7.15000003,18.6 9.20000004,16.6 9.20000004,14.1500001 L9.20000004,14.1500001 Z M3.90000002,17.2500001 C3.85000002,17.3000001 3.75000002,17.3500001 3.70000002,17.3500001 C3.65000002,17.3500001 3.60000002,17.3500001 3.55000001,17.3000001 C2.65000001,16.6500001 1.90000001,15.7500001 1.55000001,14.7000001 C1.50000001,14.5500001 1.55000001,14.4500001 1.70000001,14.4000001 C1.85000001,14.3500001 1.95000001,14.4000001 2.00000001,14.5500001 C2.35000001,15.5000001 3.00000001,16.3500001 3.85000002,16.9000001 C3.95000002,16.9500001 3.95000002,17.1500001 3.90000002,17.2500001 Z"/>
      <g transform="translate(5.5)">
        <path d="M12.8000001,8.00000003 L5.55000002,0.700000003 C5.25000002,0.400000002 4.85000002,0.400000002 4.55000002,0.700000003 L0.250000001,5.00000002 C-0.0500000002,5.30000002 -0.0500000002,5.70000002 0.250000001,6.00000003 L7.50000003,13.2500001 C7.80000003,13.5500001 8.20000003,13.5500001 8.50000004,13.2500001 L12.8000001,8.95000004 C13.0500001,8.70000004 13.0500001,8.25000003 12.8000001,8.00000003 Z M10.3,7.45000003 C9.75000004,8.00000003 9.75000004,8.90000004 10.3,9.45000004 L8.95000004,10.8 C8.40000003,10.25 7.50000003,10.25 6.95000003,10.8 L6.90000003,10.85 L2.65000001,6.60000003 L2.70000001,6.55000003 C3.25000001,6.00000002 3.25000001,5.10000002 2.70000001,4.55000002 L4.05000002,3.20000001 C4.60000002,3.75000002 5.50000002,3.75000002 6.05000003,3.20000001 L6.10000003,3.15000001 L10.35,7.40000003 L10.3,7.45000003 Z"/>
        <circle cx="6.5" cy="7" r="1.1"/>
      </g>
    </g>
    <rect width="24" height="24"/>
  </g>
</svg>
