<svg xmlns="http://www.w3.org/2000/svg" width="24" height="24" viewBox="0 0 24 24">
  <g fill="none" fill-rule="evenodd">
    <rect width="24" height="24"/>
    <path fill="#CCC" fill-rule="nonzero" d="M9.57214559,5.77874297 L19.2621456,5.77874297 C19.8144304,5.77874297 20.2621456,6.22645822 20.2621456,6.77874297 L20.2621456,12.308743 C20.2621456,12.8610277 19.8144304,13.308743 19.2621456,13.308743 L9.57214559,13.308743 C9.01986084,13.308743 8.57214559,12.8610277 8.57214559,12.308743 L8.57214559,6.77874297 C8.57214559,6.22645822 9.01986084,5.77874297 9.57214559,5.77874297 Z" transform="rotate(45 14.417 9.544)"/>
    <path fill="#000" fill-rule="nonzero" d="M15.8850001,16.2900001 C15.6298567,16.2894798 15.3860079,16.1847152 15.2100001,16.0000001 L7.94000003,8.74500004 C7.56743181,8.37211508 7.56743181,7.76788499 7.94000003,7.39500003 L12.2650001,3.07000001 C12.4442742,2.88954507 12.6881318,2.78806669 12.9425001,2.78806669 C13.1968683,2.78806669 13.440726,2.88954507 13.6200001,3.07000001 L20.8850001,10.335 C21.2581435,10.7095988 21.2581435,11.3154013 20.8850001,11.69 L16.5600001,16.0000001 C16.3839922,16.1847152 16.1401435,16.2894798 15.8850001,16.2900001 L15.8850001,16.2900001 Z M12.9400001,3.28999741 C12.8195658,3.29036568 12.7043039,3.33899182 12.6200001,3.42500001 L8.29500003,7.74500003 C8.11571739,7.92457947 8.11571739,8.2154206 8.29500003,8.39500003 L8.29500003,8.39500003 L15.5600001,15.6600001 C15.7417445,15.8339711 16.0282556,15.8339711 16.2100001,15.6600001 L20.5300001,11.335 C20.615799,11.2496095 20.6640347,11.1335496 20.6640347,11.0125 C20.6640347,10.8914505 20.615799,10.7753906 20.5300001,10.69 L13.2650001,3.42500001 C13.1791591,3.33823004 13.0620555,3.28958702 12.9400001,3.28999741 Z"/>
    <path fill="#FFF" fill-rule="nonzero" d="M16.8850001,13.3450001 L16.8850001,13.3450001 C16.3325357,12.7931492 15.4374645,12.7931492 14.8850001,13.3450001 L14.8300001,13.4000001 L10.56,9.13000004 L10.615,9.07500004 C11.1668509,8.52253562 11.1668509,7.62746445 10.615,7.07500003 L10.615,7.07500003 L11.945,5.74500002 L11.945,5.74500002 C12.5008014,6.28872869 13.3891987,6.28872869 13.9450001,5.74500002 L14.0000001,5.69000002 L18.2650001,9.95500004 L18.2100001,10.01 C17.6635961,10.5647077 17.6635961,11.4552924 18.2100001,12.0100001 L18.2100001,12.0100001 L16.8850001,13.3450001 Z"/>
    <path fill="#000" fill-rule="nonzero" d="M14.8250001,13.6500001 C14.7574333,13.6498345 14.6926942,13.6228599 14.6450001,13.5750001 L10.38,9.31000004 C10.3326719,9.26305839 10.3060505,9.19915942 10.3060505,9.13250004 C10.3060505,9.06584065 10.3326719,9.00194169 10.38,8.95500004 L10.435,8.90000004 C10.8894167,8.44191095 10.8894167,7.70308912 10.435,7.24500003 C10.3866614,7.19963336 10.3592407,7.13629298 10.3592407,7.07000003 C10.3592407,7.00370707 10.3866614,6.94036669 10.435,6.89500003 L11.765,5.56000002 C11.8137869,5.51442112 11.8782379,5.48935684 11.945,5.49000002 L11.945,5.49000002 C12.0100353,5.49062419 12.0724751,5.51560008 12.1200001,5.56000002 C12.5817455,6.00063604 13.3082546,6.00063604 13.7700001,5.56000002 L13.8250001,5.50500002 C13.9239069,5.40910838 14.0810932,5.40910838 14.1800001,5.50500002 L18.4500001,9.77500004 C18.5452858,9.87221092 18.5452858,10.0277892 18.4500001,10.125 L18.3950001,10.18 C18.1742351,10.3987753 18.050042,10.696695 18.050042,11.0075 C18.050042,11.3183051 18.1742351,11.6162248 18.3950001,11.835 C18.4908917,11.9339069 18.4908917,12.0910932 18.3950001,12.1900001 L17.0600001,13.5000001 C17.0148599,13.5485692 16.951302,13.5758083 16.8850001,13.5750001 L16.8850001,13.5750001 C16.8174333,13.5748345 16.7526942,13.5478599 16.7050001,13.5000001 C16.2432547,13.059364 15.5167455,13.059364 15.0550001,13.5000001 L15.0000001,13.5550001 C14.9573388,13.6095338 14.8939718,13.643933 14.8250001,13.6500001 Z M10.9,9.15000004 L14.8300001,13.0750001 C15.4182506,12.6007077 16.2485103,12.5701835 16.8700001,13.0000001 L17.8700001,12 C17.4183756,11.3866896 17.4389424,10.5455065 17.9200001,9.95500004 L14.0000001,6.03000003 C13.4033903,6.49425733 12.5735854,6.51454596 11.955,6.08000003 L10.955,7.08000003 C11.1691583,7.3691415 11.2832524,7.7202001 11.28,8.08000003 C11.2793099,8.46203102 11.1448633,8.83175927 10.9,9.12500004 L10.9,9.15000004 Z"/>
    <circle cx="14.415" cy="9.54" r="1.125" fill="#FFF" fill-rule="nonzero"/>
    <path fill="#000" fill-rule="nonzero" d="M14.4150001,10.915 C14.0474922,10.9130419 13.696181,10.7635095 13.4400001,10.5 C13.1808478,10.2441513 13.036518,9.89415164 13.0400001,9.53000004 C13.0382194,9.16617909 13.1822877,8.81681354 13.4400001,8.56000004 C13.9781583,8.02547143 14.8468419,8.02547143 15.3850001,8.56000004 C15.6427125,8.81681354 15.7867807,9.16617909 15.7850001,9.53000004 C15.7884821,9.89415164 15.6441524,10.2441513 15.3850001,10.5 C15.1303569,10.7627495 14.7808866,10.9122651 14.4150001,10.915 L14.4150001,10.915 Z M14.4150001,8.6699966 C13.9971624,8.668836 13.6368055,8.96326147 13.5546448,9.37294341 C13.4724841,9.78262536 13.6914485,10.1932323 14.0774243,10.353271 C14.4634,10.5133097 14.9086714,10.3781176 15.1405135,10.0304987 C15.3723556,9.68287982 15.3260674,9.2198454 15.0300001,8.92500004 C14.8666093,8.76228365 14.6455922,8.67064243 14.4150001,8.6699966 Z"/>
    <path fill="#CCC" fill-rule="nonzero" d="M11.615,16.6800001 C11.615,18.6356994 10.3098631,20.3509767 8.42497933,20.8724872 C6.54009559,21.3939977 4.53889798,20.5935187 3.5336446,18.9159533 C2.52839121,17.2383879 2.76624185,15.0961961 4.11500002,13.6800001 L5.11500002,12.5850001 C5.77012145,11.8881602 6.25600513,11.0498398 6.53500003,10.135 L6.53500003,10.135 C7.96910867,11.221774 8.72822731,12.9810315 8.53500004,14.7700001 L8.53500004,14.7700001 L8.56500004,14.8050001 C9.25046361,14.2676257 9.68009511,13.4681848 9.75000004,12.6000001 L9.75000004,12.6000001 C11.0193499,13.5666597 11.7151215,15.1086399 11.6,16.7000001"/>
    <path fill="#000" fill-rule="nonzero" d="M7.26500003,21.2800001 L7.04500003,21.2800001 C4.67866907,21.1549351 2.78966213,19.2616104 2.67000001,16.8950001 C2.6032524,15.6388392 3.05724379,14.4107111 3.92500002,13.5000001 L4.92500002,12.4050001 C5.55440677,11.734938 6.02142355,10.9292058 6.29000003,10.05 C6.31584483,9.97202186 6.37702185,9.91084484 6.45500003,9.88500004 C6.53194233,9.85947873 6.61656848,9.87452338 6.68000003,9.92500004 C8.01057808,10.9486976 8.79167111,12.5311958 8.79500004,14.2100001 C9.19449915,13.7575659 9.44119175,13.1906978 9.50000004,12.5900001 C9.51056388,12.4963816 9.5667107,12.4140329 9.65000004,12.3700001 C9.72830233,12.3222798 9.82669775,12.3222798 9.90500004,12.3700001 C11.218608,13.3697216 11.9494423,14.9569437 11.855,16.6050001 C11.8574088,16.6249275 11.8574088,16.6450726 11.855,16.6650001 C11.855,17.8849959 11.3703586,19.0550239 10.5076912,19.9176913 C9.64502389,20.7803586 8.47499589,21.2650001 7.25500003,21.2650001 L7.26500003,21.2800001 Z M6.67000003,10.57 C6.36805666,11.3841339 5.90748723,12.1302224 5.31500002,12.7650001 L4.28500002,13.8600001 C3.03011442,15.189273 2.80684055,17.1887319 3.7375999,18.7620695 C4.66835926,20.3354072 6.52827107,21.1024894 8.29754202,20.6427236 C10.066813,20.1829578 11.3179695,18.6074279 11.365,16.7800001 C11.3573701,16.748793 11.3573701,16.7162071 11.365,16.6850001 C11.4716367,15.3239871 10.9504758,13.9888574 9.95000004,13.0600001 C9.77786777,13.8299399 9.34295901,14.5158936 8.72000004,15.0000001 C8.66792106,15.0418636 8.60149094,15.0616131 8.53500004,15.0550001 C8.46907701,15.0438755 8.40902226,15.0103155 8.36500003,14.9600001 C8.31739636,14.8983358 8.29107939,14.8228938 8.29000003,14.7450001 C8.45304333,13.1737624 7.85016247,11.6200417 6.67000003,10.57 Z"/>
    <path fill="#000" fill-rule="nonzero" d="M6.09000003,19.8800001 C6.03905412,19.8791966 5.98915229,19.8654305 5.94500002,19.8400001 C5.02885931,19.1996574 4.33087625,18.2940244 3.94500002,17.2450001 C3.90129235,17.1594721 3.91044878,17.0564658 3.96855745,16.9799885 C4.02666611,16.9035112 4.12345131,16.8670866 4.21756375,16.8862764 C4.31167619,16.9054663 4.38647342,16.976877 4.41000002,17.0700001 C4.76890009,18.0242287 5.4109198,18.8459441 6.25000003,19.4250001 C6.33907681,19.4871587 6.37782449,19.5997233 6.3458808,19.7035403 C6.31393712,19.8073573 6.21861215,19.8786688 6.11000003,19.8800001 L6.09000003,19.8800001 Z"/>
  </g>
</svg>
