<svg xmlns="http://www.w3.org/2000/svg" width="24" height="24" viewBox="0 0 24 24">
  <g fill="none" fill-rule="evenodd">
    <path fill="#000" fill-rule="nonzero" d="M20.9700001,10.295 L13.7050001,3.03000001 C13.3221631,2.67736371 12.732837,2.67736371 12.3500001,3.03000001 L8.02500003,7.35500003 C7.65243181,7.72788499 7.65243181,8.33211508 8.02500003,8.70500004 L15.2950001,16.0000001 C15.667885,16.3725683 16.2721151,16.3725683 16.6450001,16.0000001 L20.9700001,11.675 C21.1582732,11.4948455 21.2647539,11.245581 21.2647539,10.985 C21.2647539,10.7244191 21.1582732,10.4751546 20.9700001,10.295 L20.9700001,10.295 Z M20.6150001,11.295 L16.2950001,15.6200001 C16.1143105,15.796579 15.8256897,15.796579 15.6450001,15.6200001 L8.38000003,8.35500003 C8.29420115,8.26960944 8.24596538,8.15354962 8.24596538,8.03250003 C8.24596538,7.91145045 8.29420115,7.79539063 8.38000003,7.71000003 L12.7050001,3.38500001 C12.7903906,3.29920113 12.9064505,3.25096535 13.0275001,3.25096535 C13.1485496,3.25096535 13.2646095,3.29920113 13.3500001,3.38500001 L20.6150001,10.65 C20.700799,10.7353906 20.7490347,10.8514505 20.7490347,10.9725 C20.7490347,11.0935496 20.700799,11.2096095 20.6150001,11.295 Z"/>
    <path fill="#000" fill-rule="nonzero" d="M18.5350001,10.09 C18.6308917,9.9910932 18.6308917,9.83390688 18.5350001,9.73500004 L14.2650001,5.46500002 C14.1660932,5.36910838 14.0089069,5.36910838 13.9100001,5.46500002 L13.8550001,5.52000002 C13.6364217,5.73922757 13.3395759,5.86244304 13.0300001,5.86244304 C12.7204242,5.86244304 12.4235784,5.73922757 12.2050001,5.52000002 C12.1060932,5.42410838 11.9489069,5.42410838 11.85,5.52000002 L10.5,6.85500003 C10.4526719,6.90194168 10.4260505,6.96584064 10.4260505,7.03250003 C10.4260505,7.09915941 10.4526719,7.16305838 10.5,7.21000003 C10.9538355,7.66637884 10.9538355,8.40362123 10.5,8.86000004 L10.445,8.91500004 C10.3976719,8.96194169 10.3710505,9.02584065 10.3710505,9.09250004 C10.3710505,9.15915942 10.3976719,9.22305839 10.445,9.27000004 L14.7100001,13.5350001 C14.7576942,13.5828599 14.8224333,13.6098345 14.8900001,13.6100001 C14.9559424,13.6090608 15.0188424,13.5821036 15.0650001,13.5350001 L15.1200001,13.4800001 C15.5844311,13.0412518 16.3105691,13.0412518 16.7750001,13.4800001 C16.8203667,13.5283387 16.8837071,13.5557594 16.9500001,13.5557594 C17.016293,13.5557594 17.0796334,13.5283387 17.1250001,13.4800001 L18.5000001,12.1500001 C18.5958917,12.0510932 18.5958917,11.8939069 18.5000001,11.795 C18.2795335,11.5770829 18.1554601,11.2799894 18.1554601,10.97 C18.1554601,10.6600107 18.2795335,10.3629172 18.5000001,10.145 L18.5350001,10.09 Z M17.9600001,11.96 L16.9600001,12.9600001 C16.3450155,12.5196217 15.512672,12.5400223 14.9200001,13.0100001 L11,9.08500004 C11.4802398,8.49608437 11.5008121,7.65673559 11.05,7.04500003 L12.0500001,6.04500003 C12.6644184,6.49309283 13.5032144,6.47258437 14.0950001,5.99500002 L18,9.92000004 C17.5197603,10.5089157 17.4991881,11.3482645 17.9500001,11.96 L17.9600001,11.96 Z"/>
    <path fill="#000" fill-rule="nonzero" d="M13.5250001 8.53000004C12.9904714 9.06815824 12.9904714 9.93684184 13.5250001 10.475 14.062097 11.0120969 14.9329031 11.0120969 15.47 10.475 16.0070969 9.9379031 16.007097 9.06709696 15.4700001 8.53000004 14.9254255 8.01126987 14.0695747 8.01126987 13.5250001 8.53000004zM15.1150001 10.12C14.8650235 10.3709621 14.4884007 10.4464549 14.1610129 10.3112236 13.8336252 10.1759923 13.6200656 9.85671783 13.6200656 9.50250004 13.6200656 9.14828224 13.8336252 8.82900776 14.1610129 8.69377645 14.4884007 8.55854515 14.8650235 8.63403795 15.1150001 8.88500004 15.4550874 9.22642819 15.4550874 9.77857189 15.1150001 10.12zM10 12.3450001C9.92110277 12.2994487 9.82389732 12.2994487 9.74500004 12.3450001 9.66105096 12.3874063 9.6058684 12.4711315 9.60000004 12.5650001 9.54785551 13.1705436 9.30645085 13.744317 8.91000004 14.2050001 8.90635103 12.5274135 8.12749351 10.9457052 6.80000003 9.92000004 6.73256155 9.87443794 6.64886125 9.85988136 6.57000003 9.88000004 6.49284585 9.90716694 6.43216693 9.96784587 6.40500003 10.045 6.13609527 10.9229655 5.67103355 11.7282746 5.04500002 12.4000001L4.00000002 13.5000001C3.14747101 14.4013738 2.69806091 15.6106299 2.75500001 16.8500001 2.87466213 19.2166104 4.76366907 21.1099351 7.13000003 21.2350001L7.35000003 21.2350001C8.56999589 21.2350001 9.74002389 20.7503586 10.6026912 19.8876913 11.4653586 19.0250239 11.95 17.8549959 11.95 16.6350001 11.9524088 16.6150726 11.9524088 16.5949275 11.95 16.5750001 12.0445368 14.9283311 11.3135116 13.3425687 10 12.3450001zM10.19 19.6050001C9.38733847 20.3772324 8.30266737 20.7857919 7.19000003 20.7350001 5.08142885 20.6249823 3.39731613 18.9387105 3.29000001 16.8300001 3.23595021 15.7186942 3.64090347 14.633998 4.41000002 13.8300001L5.43500002 12.7350001C6.02646956 12.0975459 6.48686426 11.3500416 6.79000003 10.535 7.97249999 11.5876756 8.57553114 13.145506 8.41000004 14.7200001 8.41136179 14.798694 8.43958979 14.8745567 8.49000004 14.9350001 8.5304413 14.9876783 8.59053534 15.0216822 8.65651741 15.029223 8.72249948 15.0367639 8.78871606 15.0171955 8.84000004 14.9750001 9.43948482 14.4778048 9.84917988 13.7890933 10 13.0250001 11.0002952 13.9518812 11.5215709 15.2854628 11.415 16.6450001 11.4122849 16.6766085 11.4122849 16.7083916 11.415 16.7400001 11.4035594 17.8218403 10.9586796 18.8538894 10.18 19.6050001L10.19 19.6050001z"/>
    <path fill="#000" fill-rule="nonzero" d="M4.50000002,17.0300001 C4.44211114,16.916722 4.308388,16.8649778 4.18932782,16.9097854 C4.07026764,16.954593 4.00384008,17.0816627 4.03500002,17.2050001 C4.42087625,18.2540244 5.11885931,19.1596574 6.03500003,19.8000001 C6.08988689,19.8382535 6.15781613,19.8529116 6.22359352,19.8406958 C6.28937091,19.82848 6.34750771,19.7904096 6.38500003,19.7350001 C6.46182484,19.6200093 6.43298908,19.4647398 6.32000003,19.3850001 C5.48834154,18.8029494 4.85354389,17.9815491 4.50000002,17.0300001 L4.50000002,17.0300001 Z"/>
    <rect width="24" height="24"/>
  </g>
</svg>
