<svg xmlns="http://www.w3.org/2000/svg" width="24" height="24" viewBox="0 0 24 24">
  <g fill="none" fill-rule="evenodd">
    <rect width="24" height="24"/>
    <path fill="#1A1A1A" fill-rule="nonzero" d="M12.0850001,11.415003 C10.3312026,11.4170229 8.74897042,10.3621175 8.0764191,8.74240019 C7.40386777,7.12268286 7.77351679,5.25730257 9.01292386,4.0164643 C10.2523309,2.77562604 12.1172834,2.40382449 13.7377758,3.07450611 C15.3582682,3.74518772 16.4150001,5.32620144 16.4150001,7.08000003 C16.4150001,9.47220317 14.4772016,11.4122409 12.0850001,11.415003 L12.0850001,11.415003 Z M12.0850001,3.24999674 C10.5329792,3.24797783 9.1327493,4.18160362 8.53788212,5.61509792 C7.94301495,7.04859222 8.27080338,8.69930588 9.36824879,9.79675129 C10.4656942,10.8941967 12.1164079,11.2219851 13.5499022,10.627118 C14.9833965,10.0322508 15.9170222,8.6320209 15.9150033,7.08000003 C15.9122455,4.96589145 14.1991086,3.25275456 12.0850001,3.24999674 Z"/>
    <path fill="#CCC" fill-rule="nonzero" d="M15.8850001,12.7900001 L8.26500003,12.7900001 C7.28283065,12.7913237 6.34148809,13.183102 5.64839707,13.8790067 C4.95530605,14.5749113 4.56734461,15.5178334 4.56998648,16.5000001 L4.56998648,21.0000001 L19.5700001,21.0000001 L19.5700001,16.4700001 C19.5617627,14.4390638 17.9159456,12.7954798 15.8850001,12.7900001 Z"/>
    <path fill="#1A1A1A" fill-rule="nonzero" d="M19.6000001,21.2500001 L4.60000002,21.2500001 C4.46192883,21.2500001 4.34997146,21.1380713 4.34997146,21.0000001 L4.34997146,16.5000001 C4.34601187,15.4511245 4.75988333,14.4438405 5.50014705,13.7007621 C6.24041077,12.9576836 7.24611687,12.5400001 8.29500003,12.5400001 L15.8850001,12.5400001 C18.0548486,12.5427032 19.8162685,14.2951933 19.8300001,16.4650001 L19.8300001,21.0000001 C19.8285316,21.0658287 19.8016563,21.1285376 19.7550001,21.1750001 C19.7146833,21.2187103 19.6592949,21.2455111 19.6000001,21.2500001 Z M4.84000002,20.7500001 L19.3400001,20.7500001 L19.3400001,16.4700001 C19.3262993,14.5755192 17.7895227,13.045434 15.8950001,13.0400001 L8.26500003,13.0400001 C7.34913462,13.0413235 6.47138039,13.4067626 5.82517343,14.0557833 C5.17896648,14.7048039 4.81734438,15.5841375 4.8199855,16.5000001 L4.84000002,20.7500001 Z"/>
    <path fill="#1A1A1A" fill-rule="nonzero" d="M12.9050001,14.6950001 L11.265,14.6950001 C11.1589291,14.692738 11.0653409,14.6250359 11.03,14.5250001 L10.5,12.8700001 C10.4743303,12.7940075 10.4866825,12.7103128 10.5332105,12.6449757 C10.5797385,12.5796385 10.6547913,12.5405943 10.735,12.5400001 L13.4750001,12.5400001 C13.5559545,12.5411729 13.6317422,12.579991 13.6800001,12.6450001 C13.7270769,12.7102324 13.7383409,12.7947121 13.7100001,12.8700001 L13.1600001,14.5250001 C13.1223316,14.6321221 13.0183698,14.70143 12.9050001,14.6950001 L12.9050001,14.6950001 Z M11.445,14.1950001 L12.7250001,14.1950001 L13.1100001,13.0400001 L11.06,13.0400001 L11.445,14.1950001 Z"/>
    <path fill="#1A1A1A" fill-rule="nonzero" d="M12.0700001 20.2050001L12.0700001 20.2050001C11.9963594 20.2050792 11.926589 20.1720301 11.88 20.1150001L9.88000004 17.6950001C9.82417219 17.6261897 9.80898088 17.5329854 9.84000004 17.4500001L11 14.3550001C11.0235054 14.2923909 11.0711155 14.2418093 11.1321889 14.2145612 11.1932622 14.1873131 11.2627066 14.1856703 11.325 14.2100001 11.4527669 14.2590055 11.5173917 14.4016259 11.47 14.5300001L10.37 17.5000001 12.0750001 19.5700001 13.8000001 17.5000001 12.6500001 14.5450001C12.6256703 14.4827066 12.6273131 14.4132622 12.6545612 14.3521889 12.6818093 14.2911156 12.7323909 14.2435054 12.7950001 14.2200001 12.9233742 14.1726084 13.0659946 14.2372332 13.1150001 14.3650001L14.3200001 17.4600001C14.3505272 17.5454062 14.3333924 17.6405995 14.2750001 17.7100001L12.2750001 20.1250001C12.2214922 20.1801195 12.1466988 20.2093071 12.0700001 20.2050001L12.0700001 20.2050001zM11.375 6.62001092C10.194917 6.61988063 9.08875122 6.04534593 8.41000004 5.08000002 8.33985264 4.96697617 8.37049561 4.81881476 8.4797218 4.74288923 8.588948 4.6669637 8.73850152 4.68986658 8.82000004 4.79500002 9.38573816 5.60134194 10.2990303 6.09317312 11.2836275 6.12172644 12.2682247 6.15027976 13.2084842 5.71220157 13.8200001 4.94000002 13.9072288 4.83527271 14.0613916 4.81765411 14.1700001 4.90000002 14.2226783 4.94044129 14.2566822 5.00053532 14.264223 5.06651739 14.2717639 5.13249947 14.2521955 5.19871605 14.2100001 5.25000002 13.525394 6.11762863 12.4801957 6.62271564 11.375 6.62001092L11.375 6.62001092z"/>
    <path fill="#1A1A1A" fill-rule="nonzero" d="M13.8141352,5.24433294 C13.7400145,5.12879944 13.7684751,4.97555002 13.8791352,4.89433294 C13.9954085,4.81851713 14.1509658,4.84962859 14.2291352,4.96433294 C14.5873518,5.4784214 15.2782389,5.85635526 15.8850001,5.70000002 C16.0174449,5.66489612 16.1534678,5.74294206 16.1900001,5.87500002 C16.2253779,6.00869129 16.1477431,6.1462157 16.0150001,6.18500003 C15.8464407,6.22659587 15.6736087,6.24840963 15.5000001,6.25000003 C14.8463978,6.24615329 14.1850496,5.78250876 13.8141352,5.24433294 Z"/>
  </g>
</svg>
