<svg xmlns="http://www.w3.org/2000/svg" width="24" height="24" viewBox="0 0 24 24">
  <g fill="none" fill-rule="evenodd">
    <g fill="#000" fill-rule="nonzero" transform="translate(4.5 3)">
      <path d="M15,13.4500001 C15,11.4 13.3500001,9.75000004 11.3,9.75000004 L8.85000004,9.75000004 L8.30000003,11.4 L8.30000003,11.4 L9.5,14.5000001 L7.5,16.9000001 L5.5,14.5000001 L6.65000003,11.4 L6.65000003,11.4 L6.10000003,9.75000004 L3.65000002,9.75000004 C1.65000001,9.80000004 0,11.45 0,13.5000001 L0,18.0000001 L15,18.0000001 L15,13.4500001 Z"/>
      <g transform="translate(3)">
        <path d="M8.45000004,3.20000001 C8.30000003,3.25000001 8.10000003,3.25000001 7.95000003,3.25000001 C7.35000003,3.25000001 6.80000003,3.00000001 6.4,2.50000001 C5.70000002,3.20000001 4.80000002,3.60000001 3.80000002,3.60000001 C2.65000001,3.60000001 1.60000001,3.05000001 0.900000002,2.15000001 C0.600000002,2.70000001 0.400000002,3.35000001 0.400000002,4.05000002 C0.400000002,6.30000003 2.25000001,8.15000001 4.50000002,8.15000001 C6.75000003,8.15000001 8.60000004,6.30000003 8.60000004,4.05000002 C8.60000004,3.75000002 8.55000004,3.45000001 8.45000004,3.20000001 C8.45000004,3.15000001 8.45000004,3.20000001 8.45000004,3.20000001 Z"/>
        <path d="M3.80000002,3.10000001 C4.75000002,3.10000001 5.65,2.65000001 6.25000003,1.90000001 C6.35000003,1.80000001 6.49513247,1.80000001 6.60000003,1.85000001 C6.67480471,1.90000001 6.70000003,1.95000001 6.70000003,2.05000001 C7.05000003,2.55000001 7.75000003,2.80000001 8.35000003,2.65000001 C8.35000003,2.65000001 8.35000003,2.65000001 8.40000004,2.65000001 C7.75000003,1.15 6.25000003,0 4.50000002,0 C3.10000001,0 1.90000001,0.700000003 1.15,1.75000001 C1.20000001,1.75000001 1.20000001,1.80000001 1.20000001,1.80000001 C1.80000001,2.60000001 2.75000001,3.10000001 3.80000002,3.10000001 Z"/>
      </g>
    </g>
    <rect width="24" height="24"/>
  </g>
</svg>
