<svg xmlns="http://www.w3.org/2000/svg" width="24" height="24" viewBox="0 0 24 24">
  <g fill="none" fill-rule="evenodd">
    <rect width="24" height="24"/>
    <circle cx="7.53" cy="7.485" r="3.945" fill="#CCC" fill-rule="nonzero"/>
    <path fill="#000" fill-rule="nonzero" d="M7.53000003,11.655 C5.8420298,11.655 4.32055611,10.6373706 3.67600811,9.07730605 C3.03146011,7.5172415 3.39098551,5.72247936 4.58670935,4.53105668 C5.7824332,3.339634 7.57847927,2.98657853 9.136211,3.63674418 C10.6939427,4.28690982 11.7060719,5.81204072 11.7000272,7.50000003 C11.6890026,9.79602526 9.82604999,11.6522766 7.53000003,11.655 Z M7.53000003,3.76500002 C5.47811003,3.76777462 3.81593945,5.43145731 3.81503026,7.48334899 C3.81412182,9.53524067 5.47481801,11.2003951 7.52670475,11.2049968 C9.57859149,11.2095796 11.2467244,9.55187522 11.2550135,7.50000003 C11.2576569,6.51033711 10.8663758,5.56029774 10.1675147,4.85956042 C9.46865347,4.1588231 8.51966651,3.76500002 7.53000003,3.76500002 Z"/>
    <circle cx="7.53" cy="16.595" r="3.945" fill="#CCC" fill-rule="nonzero"/>
    <path fill="#000" fill-rule="nonzero" d="M7.53000003,20.7650001 C5.22697261,20.7650001 3.36000001,18.8980275 3.36000001,16.5950001 C3.36000001,14.2919727 5.22697261,12.4250001 7.53000003,12.4250001 C9.83302745,12.4250001 11.7,14.2919727 11.7,16.5950001 C11.6972449,18.8968853 9.83188528,20.762245 7.53000003,20.7650001 L7.53000003,20.7650001 Z M7.53000003,12.8700001 C5.47273933,12.8700001 3.80500002,14.5377394 3.80500002,16.5950001 C3.80500002,18.6522608 5.47273933,20.3200001 7.53000003,20.3200001 C9.58726073,20.3200001 11.255,18.6522608 11.255,16.5950001 C11.255,15.6070686 10.8625458,14.6596003 10.1639728,13.9610273 C9.46539979,13.2624543 8.51793146,12.8700001 7.53000003,12.8700001 L7.53000003,12.8700001 Z"/>
    <circle cx="16.64" cy="7.485" r="3.945" fill="#CCC" fill-rule="nonzero"/>
    <path fill="#000" fill-rule="nonzero" d="M16.6400001,11.655 C14.9520298,11.655 13.4305561,10.6373706 12.7860081,9.07730605 C12.1414601,7.5172415 12.5009855,5.72247936 13.6967094,4.53105668 C14.8924332,3.339634 16.6884793,2.98657853 18.246211,3.63674418 C19.8039428,4.28690982 20.8160719,5.81204072 20.8100273,7.50000003 C20.7990027,9.79602526 18.93605,11.6522766 16.6400001,11.655 Z M16.6400001,3.76500002 C14.5874571,3.76500002 12.9227813,5.42747903 12.9200302,7.48002018 C12.917286,9.53256133 14.5775048,11.1994746 16.6300404,11.2050003 C18.682576,11.2104987 20.3517237,9.55252633 20.3600135,7.50000003 C20.3626555,6.51120293 19.9720601,5.56192204 19.2742807,4.86132899 C18.5765012,4.16073593 17.6287999,3.7663237 16.6400001,3.76500002 Z"/>
    <circle cx="16.64" cy="16.595" r="3.945" fill="#CCC" fill-rule="nonzero"/>
    <path fill="#000" fill-rule="nonzero" d="M16.6400001 20.7650001C14.3369727 20.7650001 12.4700001 18.8980275 12.4700001 16.5950001 12.4700001 14.2919727 14.3369727 12.4250001 16.6400001 12.4250001 18.9430275 12.4250001 20.8100001 14.2919727 20.8100001 16.5950001 20.807245 18.8968853 18.9418853 20.762245 16.6400001 20.7650001L16.6400001 20.7650001zM16.6400001 12.8699967C15.1329248 12.8679771 13.7731209 13.7742606 13.1949859 15.1660363 12.616851 16.5578121 12.9343108 18.1608204 13.9992589 19.2271999 15.0642071 20.2935795 16.6667876 20.6131921 18.0593386 20.0369271 19.4518897 19.4606621 20.3600001 18.1020767 20.3600001 16.5950001 20.3572539 14.5408287 18.6941659 12.8755054 16.6400001 12.8699967L16.6400001 12.8699967zM9.53000004 7.71000003L5.53000002 7.71000003C5.40573595 7.71000003 5.30500002 7.6092641 5.30500002 7.48500003 5.30500002 7.36073596 5.40573595 7.26000003 5.53000002 7.26000003L9.53000004 7.26000003C9.65426411 7.26000003 9.75500004 7.36073596 9.75500004 7.48500003 9.75500004 7.6092641 9.65426411 7.71000003 9.53000004 7.71000003L9.53000004 7.71000003z"/>
    <path fill="#000" fill-rule="nonzero" d="M9.53000004,7.71000003 L5.53000002,7.71000003 C5.40573595,7.71000003 5.30500002,7.6092641 5.30500002,7.48500003 C5.30500002,7.36073596 5.40573595,7.26000003 5.53000002,7.26000003 L9.53000004,7.26000003 C9.65426411,7.26000003 9.75500004,7.36073596 9.75500004,7.48500003 C9.75500004,7.6092641 9.65426411,7.71000003 9.53000004,7.71000003 L9.53000004,7.71000003 Z"/>
    <path fill="#000" fill-rule="nonzero" d="M7.53000003 9.71000061C7.40573596 9.71000061 7.30500003 9.60926411 7.30500003 9.48500004L7.30500003 5.50000002C7.30500003 5.37573595 7.40573596 5.27500002 7.53000003 5.27500002 7.6542641 5.27500002 7.75500003 5.37573595 7.75500003 5.50000002L7.75500003 9.50000004C7.74709135 9.61837078 7.64863438 9.71026395 7.53000003 9.71000061zM6.11500003 18.2300226C6.05653752 18.2308559 6.00036505 18.2072997 5.96000002 18.1650001 5.9175443 18.1235949 5.8936026 18.0668033 5.8936026 18.0075001 5.8936026 17.9481968 5.9175443 17.8914052 5.96000002 17.8500001L8.78500004 15.0000001C8.8733656 14.9116345 9.01663448 14.9116345 9.10500004 15.0000001 9.1933656 15.0883656 9.1933656 15.2316345 9.10500004 15.3200001L6.27500003 18.1450001C6.23635027 18.1949985 6.17806614 18.2259619 6.11500003 18.2300226L6.11500003 18.2300226z"/>
    <path fill="#000" fill-rule="nonzero" d="M6.11500003,18.2300226 C6.05653752,18.2308559 6.00036505,18.2072997 5.96000002,18.1650001 C5.9175443,18.1235949 5.8936026,18.0668033 5.8936026,18.0075001 C5.8936026,17.9481968 5.9175443,17.8914052 5.96000002,17.8500001 L8.78500004,15.0000001 C8.8733656,14.9116345 9.01663448,14.9116345 9.10500004,15.0000001 C9.1933656,15.0883656 9.1933656,15.2316345 9.10500004,15.3200001 L6.27500003,18.1450001 C6.23635027,18.1949985 6.17806614,18.2259619 6.11500003,18.2300226 L6.11500003,18.2300226 Z"/>
    <path fill="#000" fill-rule="nonzero" d="M8.94500004 18.2300073C8.88514378 18.2304789 8.82756393 18.2070871 8.78500004 18.1650001L5.96000002 15.3400001C5.91725043 15.2977333 5.89319294 15.2401167 5.89319294 15.1800001 5.89319294 15.1198834 5.91725043 15.0622668 5.96000002 15.0200001 6.04748981 14.9342429 6.18751024 14.9342429 6.27500003 15.0200001L9.10500004 17.8500001C9.16660196 17.9148025 9.18398909 18.0099305 9.14929291 18.0923339 9.11459672 18.1747374 9.03440171 18.2287781 8.94500004 18.2300073L8.94500004 18.2300073zM18.6400001 7.71000003L14.6400001 7.71000003C14.515736 7.71000003 14.4150001 7.6092641 14.4150001 7.48500003 14.4150001 7.36073596 14.515736 7.26000003 14.6400001 7.26000003L18.6400001 7.26000003C18.7642641 7.26000003 18.8650001 7.36073596 18.8650001 7.48500003 18.8650001 7.6092641 18.7642641 7.71000003 18.6400001 7.71000003L18.6400001 7.71000003z"/>
    <path fill="#000" fill-rule="nonzero" d="M18.6400001 7.71000003L14.6400001 7.71000003C14.515736 7.71000003 14.4150001 7.6092641 14.4150001 7.48500003 14.4150001 7.36073596 14.515736 7.26000003 14.6400001 7.26000003L18.6400001 7.26000003C18.7642641 7.26000003 18.8650001 7.36073596 18.8650001 7.48500003 18.8650001 7.6092641 18.7642641 7.71000003 18.6400001 7.71000003L18.6400001 7.71000003zM18.6400001 16.8150001L14.6400001 16.8150001C14.5525465 16.8281467 14.4655017 16.7888433 14.4175306 16.7145484 14.3695596 16.6402535 14.3695596 16.5447467 14.4175306 16.4704517 14.4655017 16.3961568 14.5525465 16.3568535 14.6400001 16.3700001L18.6400001 16.3700001C18.7274536 16.3568535 18.8144984 16.3961568 18.8624695 16.4704517 18.9104406 16.5447467 18.9104406 16.6402535 18.8624695 16.7145484 18.8144984 16.7888433 18.7274536 16.8281467 18.6400001 16.8150001L18.6400001 16.8150001z"/>
    <path fill="#000" fill-rule="nonzero" d="M18.6400001 16.8150001L14.6400001 16.8150001C14.5525465 16.8281467 14.4655017 16.7888433 14.4175306 16.7145484 14.3695596 16.6402535 14.3695596 16.5447467 14.4175306 16.4704517 14.4655017 16.3961568 14.5525465 16.3568535 14.6400001 16.3700001L18.6400001 16.3700001C18.7274536 16.3568535 18.8144984 16.3961568 18.8624695 16.4704517 18.9104406 16.5447467 18.9104406 16.6402535 18.8624695 16.7145484 18.8144984 16.7888433 18.7274536 16.8281467 18.6400001 16.8150001L18.6400001 16.8150001zM16.6400001 15.8150001C16.1650352 15.8150001 15.7800001 15.4299649 15.7800001 14.9550001 15.7800001 14.4800352 16.1650352 14.0950001 16.6400001 14.0950001 17.114965 14.0950001 17.5000001 14.4800352 17.5000001 14.9550001 17.5000001 15.1830862 17.4093932 15.4018306 17.2481119 15.5631119 17.0868306 15.7243932 16.8680863 15.8150001 16.6400001 15.8150001zM16.6400001 14.5450001C16.4712553 14.5429789 16.3180907 14.643342 16.2525777 14.7988635 16.1870648 14.954385 16.2222514 15.1340905 16.3415805 15.2534196 16.4609096 15.3727487 16.6406151 15.4079353 16.7961366 15.3424224 16.9516581 15.2769095 17.0520212 15.1237448 17.0500001 14.9550001 17.0473015 14.7296906 16.8653096 14.5476987 16.6400001 14.5450001L16.6400001 14.5450001zM16.6400001 19.0900001C16.1650352 19.0900001 15.7800001 18.704965 15.7800001 18.2300001 15.7800001 17.7550352 16.1650352 17.3700001 16.6400001 17.3700001 17.114965 17.3700001 17.5000001 17.7550352 17.5000001 18.2300001 17.5000001 18.4580863 17.4093932 18.6768306 17.2481119 18.8381119 17.0868306 18.9993932 16.8680863 19.0900001 16.6400001 19.0900001zM16.6400001 17.8150001C16.4717081 17.8129723 16.3188562 17.912788 16.2530437 18.0676913 16.1872313 18.2225946 16.2214921 18.4019073 16.3397777 18.5216354 16.4580633 18.6413636 16.6369476 18.6777953 16.7926372 18.6138652 16.9483268 18.5499351 17.0499879 18.3983043 17.0500001 18.2300001 17.0500166 18.0027404 16.8672432 17.8177381 16.6400001 17.8150001L16.6400001 17.8150001z"/>
  </g>
</svg>
