<svg xmlns="http://www.w3.org/2000/svg" width="24" height="24" viewBox="0 0 24 24">
  <g fill="none" fill-rule="evenodd">
    <path fill="#000" fill-rule="nonzero" d="M18.2600001 17.0000001L15.6700001 15.1500001C15.2054362 14.8239079 14.5741822 14.8765124 14.1700001 15.2750001L13.3600001 16.0850001C13.1164243 16.3283804 12.7461743 16.3924237 12.4350001 16.2450001 10.2032943 15.1816861 8.40206617 13.3875147 7.33000003 11.16 7.18747759 10.8481076 7.25543009 10.4803646 7.50000003 10.24L8.31000003 9.43000004C8.70655301 9.02493094 8.75903739 8.39511833 8.43500004 7.93000003L6.57500003 5.33000002 6.39000003 5.09500002C6.18945549 4.80898692 5.87293524 4.62602724 5.52500002 4.59500002 5.17898383 4.56497501 4.83771951 4.69157306 4.59500002 4.94000002L4.28000002 5.25000002C3.33552405 6.18622442 2.80292888 7.46013448 2.80000001 8.79000004 2.80055628 9.78786116 3.08684002 10.764696 3.62500002 11.605L4.27000002 12.6050001C5.92712336 15.2072853 8.12319381 17.423816 10.71 19.1050001L11.71 19.7700001C13.7304291 21.082441 16.3931076 20.805339 18.1000001 19.1050001L18.3900001 18.8150001C18.6370773 18.5694275 18.7630199 18.2272302 18.7340904 17.8800759 18.7051608 17.5329215 18.5243159 17.2162899 18.2400001 17.0150001L18.2600001 17.0000001zM18.0600001 18.4450001L17.7700001 18.7350001C16.2302032 20.2735739 13.8234108 20.5238469 12 19.3350001L11 18.6700001C8.46868162 17.034921 6.31706042 14.8764801 4.69000002 12.3400001L4.04500002 11.34C3.55713077 10.5790934 3.29850862 9.69387671 3.29998645 8.79000004 3.29705403 7.58927816 3.77409677 6.43717495 4.62500002 5.59000002L4.93500002 5.27500002C5.08024575 5.13273743 5.28083937 5.06177206 5.48323358 5.0810477 5.68562779 5.10032334 5.86921952 5.20787779 5.98500002 5.37500002L8.00000003 8.19500003C8.19699884 8.46625749 8.16506124 8.84099201 7.92500003 9.07500004L7.11500003 9.88500004C6.71858781 10.2793398 6.61616643 10.8818185 6.86000003 11.385 7.9834888 13.7113782 9.86732931 15.5846354 12.2000001 16.6950001 12.7031816 16.9388337 13.3056603 16.8364123 13.7000001 16.4400001L14.5000001 15.6300001C14.7371849 15.3955637 15.1087358 15.3660085 15.3800001 15.5600001L17.9700001 17.4100001C18.1359357 17.5247981 18.2407751 17.7087269 18.2550001 17.9100001 18.2700477 18.1080897 18.1989861 18.3030536 18.0600001 18.4450001L18.0600001 18.4450001zM17.6000001 12.5C17.6026601 12.6369543 17.7130458 12.74734 17.85 12.7500001 17.9880713 12.7500001 18.1000001 12.6380712 18.1000001 12.5 18.1000001 9.18629154 15.4137086 6.50000003 12.1000001 6.50000003 11.9619289 6.50000003 11.85 6.61192884 11.85 6.75000003 11.85 6.88807122 11.9619289 7.00000003 12.1000001 7.00000003 13.5586908 7.00000003 14.9576373 7.57946265 15.9890874 8.61091274 17.0205374 9.64236283 17.6000001 11.0413094 17.6000001 12.5L17.6000001 12.5z"/>
    <path fill="#000" fill-rule="nonzero" d="M12.1100001,3.42000001 C11.9719289,3.42000001 11.86,3.53192883 11.86,3.67000002 C11.86,3.8080712 11.9719289,3.92000001 12.1100001,3.92000001 C16.8479456,3.92549645 20.6889848,7.76206417 20.7000001,12.5000001 C20.7026601,12.6369543 20.8130459,12.74734 20.9500001,12.7500001 C21.0880713,12.7500001 21.2000001,12.6380712 21.2000001,12.5000001 C21.1917294,7.4847804 17.1252258,3.42275033 12.1100001,3.42000001 Z"/>
    <rect width="24" height="24"/>
  </g>
</svg>
