<svg xmlns="http://www.w3.org/2000/svg" width="24" height="24" viewBox="0 0 24 24">
  <g fill="none" fill-rule="evenodd">
    <g fill="#000" fill-rule="nonzero" transform="translate(2.5 3.5)">
      <path d="M1.2,7.10000003 C0.700000003,6.30000003 0.400000002,5.35000002 0.400000002,4.40000002 L0.400000002,4.40000002 C0.400000002,3.15000001 0.900000002,1.90000001 1.80000001,1 L2.10000001,0.700000003 C2.50000001,0.300000001 3.20000001,0.350000001 3.50000001,0.800000003 L3.70000002,1.05 L5.55000002,3.65000002 C5.80000002,4.00000002 5.75000002,4.55000002 5.45000002,4.85000002 L4.65000002,5.65000002 C4.35000002,6.00000002 4.30000002,6.50000003 4.50000002,6.90000003 L4.50000002,6.90000003 C5.60000002,9.20000004 7.4,11 9.70000004,12.1000001 L9.70000004,12.1000001 C10.1,12.3000001 10.6,12.2000001 10.9,11.9 L11.7,11.1 C12,10.8 12.5500001,10.75 12.9,11 L15.5000001,12.8500001 C15.9500001,13.2000001 16.0000001,13.8500001 15.6000001,14.2500001 L15.3000001,14.5500001 C14.4,15.4500001 13.1500001,15.9500001 11.85,15.9500001 L11.85,15.9500001 C10.9,15.9500001 10,15.7000001 9.20000004,15.1500001 L8.20000003,14.5000001 C5.65000002,12.8500001 3.50000001,10.65 1.85000001,8.10000003 L1.2,7.10000003 Z" transform="translate(0 1)"/>
      <path d="M15.25,9.40000004 C15.1000001,9.40000004 15.0000001,9.30000004 15.0000001,9.15000001 C15.0000001,6.10000003 12.5500001,3.65000001 9.50000004,3.65000001 C9.35000004,3.65000001 9.25000004,3.55000001 9.25000004,3.40000001 C9.25000004,3.25000001 9.35000004,3.15000001 9.50000004,3.15000001 C12.8000001,3.15000001 15.5000001,5.85000002 15.5000001,9.15000001 C15.5000001,9.25000004 15.3500001,9.40000004 15.25,9.40000004 Z"/>
      <path d="M18.3500001,9.40000004 C18.2000001,9.40000004 18.1000001,9.30000004 18.1000001,9.15000004 C18.1000001,4.40000002 14.25,0.55 9.50000004,0.55 C9.35000004,0.55 9.25000004,0.450000002 9.25000004,0.300000001 C9.25000004,0.150000001 9.35000004,0.0500000002 9.50000004,0.0500000002 C14.5000001,0.0500000002 18.6000001,4.15000002 18.6000001,9.15000004 C18.6000001,9.25000004 18.4500001,9.40000004 18.3500001,9.40000004 Z"/>
    </g>
    <rect width="24" height="24"/>
  </g>
</svg>
