<svg xmlns="http://www.w3.org/2000/svg" width="24" height="24" viewBox="0 0 24 24">
  <g fill="none" fill-rule="evenodd">
    <rect width="24" height="24"/>
    <path fill="#000" fill-rule="nonzero" d="M10.54 21.0000001C9.90958149 21.0000001 9.39775296 20.4904126 9.39499981 19.8600001 9.3948076 19.5562536 9.51531499 19.2648775 9.73000004 19.0500001L9.73000004 19.0500001C10.0574803 18.722226 10.5502218 18.6241225 10.9782709 18.8014728 11.4063201 18.9788231 11.6852938 19.3966653 11.6850003 19.8600001 11.6822471 20.4904126 11.1704186 21.0000001 10.54 21.0000001zM10.085 19.4050001C9.89989647 19.589227 9.84415125 19.8668928 9.94380522 20.1082887 10.0434592 20.3496846 10.2788432 20.5071653 10.54 20.5071653 10.8011569 20.5071653 11.0365409 20.3496846 11.1361949 20.1082887 11.2358488 19.8668928 11.1801036 19.589227 10.995 19.4050001 10.7419879 19.1559309 10.3352599 19.1581657 10.085 19.4100001L10.085 19.4050001zM17.7100001 21.0000001C17.4072055 21.0028098 17.1164068 20.8817941 16.9050001 20.6650001 16.4606919 20.2183431 16.4606919 19.4966571 16.9050001 19.0500001L16.9050001 19.0500001C17.2329363 18.7257823 17.7233666 18.6299366 18.1492372 18.8068367 18.5751077 18.9837368 18.8532923 19.3988532 18.8550001 19.8600001 18.8522472 20.4904126 18.3404186 21.0000061 17.7100001 21.0000001zM17.2550001 19.4050001C17.0323924 19.6606377 17.0456484 20.0449672 17.2853407 20.2846594 17.525033 20.5243517 17.9093624 20.5376078 18.1650001 20.3150001 18.3876078 20.0593625 18.3743517 19.675033 18.1346594 19.4353407 17.8949672 19.1956484 17.5106377 19.1823924 17.2550001 19.4050001z"/>
    <path fill="#CCC" fill-rule="nonzero" d="M20.05,7.59999941 L7.05000003,7.59999941 L9.20500004,16.4200001 C9.30517951,16.819806 9.66284971,17.1014199 10.075,17.1050001 L18.1700001,17.1050001 C18.5840173,17.1036946 18.9443566,16.8216004 19.0450001,16.4200001 L20.9250001,8.71500004 C20.991109,8.44627839 20.9299178,8.16208338 20.7590749,7.94438077 C20.5882321,7.72667816 20.3267339,7.59967474 20.05,7.59999941 Z"/>
    <path fill="#000" fill-rule="nonzero" d="M18.1700001,17.3550238 L10.08,17.3550238 C9.55719295,17.3565819 9.09910964,17.0053162 8.96500004,16.5000001 L6.81500003,7.68500003 C6.7943991,7.61027157 6.81115948,7.53019423 6.86000003,7.47000003 C6.90667771,7.40971716 6.97875915,7.37460056 7.05500003,7.37499666 L20.0550001,7.37499666 C20.4078905,7.37434169 20.7415458,7.5357416 20.9600861,7.81281952 C21.1786264,8.08989743 21.2578534,8.45197325 21.1750001,8.79500004 L19.2850001,16.5000001 C19.1524433,17.0063496 18.6934023,17.3583496 18.1700001,17.3550238 L18.1700001,17.3550238 Z M7.37500003,7.85500003 L9.45000004,16.3550001 C9.52089898,16.6461579 9.78034864,16.8520703 10.08,16.8550001 L18.1700001,16.8550001 C18.470284,16.8538652 18.7307054,16.6471815 18.8000001,16.3550001 L20.6800001,8.65000004 C20.7257738,8.45700727 20.6809241,8.25367624 20.5582093,8.09784781 C20.4354944,7.94201938 20.2483454,7.850749 20.0500001,7.85000003 L7.37500003,7.85500003 Z"/>
    <path fill="#000" fill-rule="nonzero" d="M7.05500003 7.85000327C6.94041114 7.85058586 6.8407229 7.77166601 6.81500003 7.66000003L6.59500003 6.7749986C6.31076587 5.60032155 5.25857612 4.77345338 4.05000002 4.7749986L3.05000001 4.7749986C2.91192882 4.7749986 2.80000001 4.66307121 2.80000001 4.52500002 2.80000001 4.38692883 2.91192882 4.2749986 3.05000001 4.2749986L4.05000002 4.2749986C5.48835091 4.27363559 6.74061436 5.25726167 7.08000003 6.65500003L7.30000001 7.54000003C7.33153861 7.67505967 7.24934933 7.81056091 7.11500003 7.84500003L7.05500003 7.85000327zM16.1350001 14.3300001L16.1100001 14.3300001C16.0439088 14.3237625 15.9831777 14.2909722 15.9417074 14.2391342 15.900237 14.1872963 15.8815776 14.1208486 15.8900001 14.0550001L16.2750001 10.5C16.2901879 10.3619289 16.4144289 10.2623122 16.5525001 10.2775001 16.6905712 10.2926879 16.7901879 10.4169289 16.7750001 10.555L16.3850001 14.0850001C16.3822772 14.2211147 16.271142 14.3300001 16.1350001 14.3300001zM12.1150001 14.3300001C11.9870058 14.3283779 11.8800491 14.2321169 11.865 14.1050001L11.5 10.575C11.485369 10.4384715 11.5835898 10.3156955 11.72 10.3 11.8510268 10.2841613 11.9724875 10.3709189 12 10.5L12.3900001 14.0300001C12.4046311 14.1665286 12.3064103 14.2893046 12.1700001 14.3050001L12.1150001 14.3300001z"/>
  </g>
</svg>
