<svg xmlns="http://www.w3.org/2000/svg" width="24" height="24" viewBox="0 0 24 24">
  <g fill="none" fill-rule="evenodd">
    <rect width="24" height="24"/>
    <path fill="#000" fill-rule="nonzero" d="M15.6550001,6.80500003 C14.9646441,6.80500003 14.4050001,6.24535596 14.4050001,5.55500002 C14.4050001,4.86464408 14.9646441,4.30500002 15.6550001,4.30500002 L18.2800001,4.30500002 C18.429947,4.3050248 18.5522738,4.18492215 18.5550001,4.03500002 C18.5550001,3.88312171 18.4318784,3.76000002 18.2800001,3.76000002 L16.5000001,3.76000002 L16.5000001,2.76000001 C16.4961671,2.68610094 16.4627138,2.616865 16.4071995,2.56793718 C16.3516853,2.51900936 16.2787952,2.49451897 16.2050001,2.50000001 C16.0550779,2.50272632 15.9349753,2.62505309 15.9350001,2.77500001 L15.9350001,3.77500002 L15.6550001,3.77500002 C14.6990707,3.82543447 13.9498354,4.61524112 13.9498354,5.57250002 C13.9498354,6.52975893 14.6990707,7.31956558 15.6550001,7.37000003 L16.7550001,7.37000003 C17.445356,7.37000003 18.0050001,7.9296441 18.0050001,8.62000004 C18.0050001,9.31035598 17.445356,9.87000004 16.7550001,9.87000004 L14.1350001,9.87000004 C14.0625293,9.86865776 13.9925622,9.89651043 13.9408407,9.94729147 C13.8891193,9.99807251 13.8600001,10.0675168 13.8600001,10.14 C13.8600001,10.2918783 13.9831218,10.415 14.1350001,10.415 L15.9350001,10.415 L15.9350001,11.415 C15.9349753,11.564947 16.0550779,11.6872737 16.2050001,11.69 C16.2779346,11.69 16.3478819,11.6610269 16.3994544,11.6094544 C16.4510269,11.5578819 16.4800001,11.4879346 16.4800001,11.415 L16.4800001,10.415 L16.7550001,10.415 C17.4198055,10.4500749 18.0496851,10.1153509 18.3926282,9.54474901 C18.7355712,8.97414709 18.7355712,8.26085298 18.3926282,7.69025106 C18.0496851,7.11964914 17.4198055,6.76992516 16.7550001,6.80500003 L15.6550001,6.80500003 Z"/>
    <g fill-rule="nonzero" transform="translate(2.5 8)">
      <rect width="3.255" height="6.835" x=".5" y=".555" fill="#CCC" rx="1.628"/>
      <path fill="#000" d="M2.75500001,7.64500003 L1.50000001,7.64500003 C0.809644066,7.64500003 0.250000001,7.08535597 0.250000001,6.39500003 L0.250000001,1.56000001 C0.250000001,0.868830578 0.808836063,0.307753664 1.50000001,0.305000001 L2.75500001,0.305000001 C3.44420896,0.31049188 4.00000002,0.870769179 4.00000002,1.56000001 L4.00000002,6.39500003 C4.00000002,7.08340805 3.44340253,7.6422464 2.75500001,7.64500003 Z M1.50000001,0.805000003 C1.08497896,0.807748547 0.750000003,1.14496986 0.750000003,1.56000001 L0.750000003,6.39500003 C0.750000003,6.80921359 1.08578644,7.14500003 1.50000001,7.14500003 L2.75500001,7.14500003 C3.16807888,7.14227335 3.50227333,6.80807889 3.50500001,6.39500003 L3.50500001,1.56000001 C3.50500001,1.14496986 3.17002106,0.807748547 2.75500001,0.805000003 L1.50000001,0.805000003 Z"/>
      <path fill="#CCC" d="M7.25500003,4.89000002 L9.63500004,7.27500003 C10.07594,7.7142555 10.78906,7.7142555 11.23,7.27500003 L11.23,7.27500003 C11.443451,7.0645253 11.5636199,6.77726815 11.5636199,6.47750003 C11.5636199,6.17773191 11.443451,5.89047476 11.23,5.68000002 L8.23000003,2.68000001 C7.3840465,1.83032857 6.23398974,1.35338798 5.03500002,1.35499593 L3.73500002,1.35499593 L3.73500002,6.71500003 C3.73500002,6.71500003 5.70500002,7.27000003 6.73500002,8.29000003 L6.76000003,8.32000003 C8.3370797,9.89646662 10.475107,10.7829657 12.7050001,10.785 L17.2800001,10.785 C18.0429611,10.7822457 18.6600823,10.162966 18.6600823,9.40000004 L18.6600823,9.40000004 C18.6639999,9.03266883 18.5219031,8.67879586 18.2649736,8.41624021 C18.0080442,8.15368456 17.6573317,8.00395681 17.2900001,8.00000003 L14.0000001,8.00000003 C13.035708,8.00005874 12.0886005,7.74473652 11.255,7.26000003 L11.255,7.26000003"/>
      <path fill="#000" d="M17.2900001,11.035016 L12.7150001,11.035016 C10.4186766,11.0394133 8.21561941,10.1268724 6.59500003,8.50000004 C5.59500002,7.50000003 3.70500002,6.96500003 3.68500002,6.96000003 C3.57833335,6.92888892 3.50500001,6.83111114 3.50500001,6.72000003 L3.50500001,1.37500001 C3.50500001,1.23692882 3.61692883,1.125 3.75500002,1.125 L5.05500002,1.125 C6.31807017,1.11637036 7.53256399,1.61116414 8.43000004,2.50000001 L11.43,5.50000002 C11.875712,5.95111182 11.9581027,6.64731254 11.63,7.19000003 C12.3631155,7.56718921 13.175543,7.76429715 14.0000001,7.76500003 L17.3150001,7.76500003 C18.2179856,7.76500007 18.95,8.4970145 18.95,9.40000004 C18.95,10.3029856 18.2179856,11.035016 17.3150001,11.035016 L17.2900001,11.035016 Z M4.00000002,6.53000003 C5.07356051,6.84445659 6.06745441,7.38487575 6.91500003,8.11500003 C8.44456848,9.66527625 10.5321728,10.5370627 12.7100001,10.5350037 L17.2850001,10.5350037 C17.9118433,10.5350037 18.4200001,10.0268432 18.4200001,9.40000004 C18.4200001,8.77315685 17.9118433,8.26500003 17.2850001,8.26500003 L14,8.26500003 C13.0537879,8.26534262 12.1224009,8.02991822 11.29,7.58000003 C10.7392878,7.99007517 9.97126432,7.93476046 9.48500004,7.45000003 L7.10000003,5.07000002 C7.00410838,4.97109318 7.00410838,4.81390686 7.10000003,4.71500002 C7.14694168,4.66767186 7.21084065,4.64105044 7.27750003,4.64105044 C7.34415941,4.64105044 7.40805838,4.66767186 7.45500003,4.71500002 L9.84000004,7.10000003 C10.1814282,7.4400874 10.7335719,7.4400874 11.075,7.10000003 L11.075,7.10000003 C11.2372879,6.93672356 11.327339,6.71519796 11.325,6.48500003 C11.3253678,6.2512647 11.2337724,6.02676616 11.07,5.86000002 L8.07000003,2.86000001 C7.27509761,2.06233553 6.1961132,1.61275869 5.07000002,1.61000001 L4.00000002,1.61000001 L4.00000002,6.53000003 Z"/>
    </g>
  </g>
</svg>
