<svg xmlns="http://www.w3.org/2000/svg" width="24" height="24" viewBox="0 0 24 24">
  <g fill="none" fill-rule="evenodd">
    <path fill="#000" fill-rule="nonzero" d="M16.6700001 11.095L14.0500001 11.095C13.9438324 11.0805859 13.838959 11.1291455 13.7812701 11.2194302 13.7235812 11.309715 13.7235812 11.4252851 13.7812701 11.5155698 13.838959 11.6058546 13.9438324 11.6544142 14.0500001 11.64L15.8500001 11.64 15.8500001 12.6400001C15.8500001 12.7116085 15.8784464 12.7802841 15.9290812 12.8309189 15.9797161 12.8815537 16.0483916 12.9100001 16.1200001 12.9100001 16.269947 12.9100001 16.3922738 12.7899222 16.3950001 12.6400001L16.3950001 11.64 16.6700001 11.64C17.6613512 11.64 18.4650001 10.8363512 18.4650001 9.84500004 18.4650001 8.85364891 17.6613512 8.05000003 16.6700001 8.05000003L15.5700001 8.05000003C14.8796441 8.05000003 14.3200001 7.49035597 14.3200001 6.80000003 14.3200001 6.10964409 14.8796441 5.55000002 15.5700001 5.55000002L18.1950001 5.55000002C18.3468784 5.55000002 18.4700001 5.42687833 18.4700001 5.27500002 18.4672738 5.12507789 18.344947 5.00497523 18.1950001 5.00500002L16.3950001 5.00500002 16.3950001 4.00000002C16.3922738 3.85007788 16.269947 3.73000001 16.1200001 3.73000001 16.0483916 3.73000001 15.9797161 3.75844636 15.9290812 3.80908118 15.8784464 3.85971601 15.8500001 3.92839156 15.8500001 4.00000002L15.8500001 5.00000002 15.5700001 5.00000002C14.5786489 5.00000002 13.7750001 5.8036489 13.7750001 6.79500003 13.7750001 7.78635116 14.5786489 8.59000004 15.5700001 8.59000004L16.6700001 8.59000004C17.360356 8.59000004 17.9200001 9.1496441 17.9200001 9.84000004 17.9200001 10.530356 17.360356 11.09 16.6700001 11.09L16.6700001 11.095zM19.7050001 17.0000001L16.3900001 17.0000001C15.5675506 17.0008183 14.7567732 16.8054089 14.0250001 16.4300001 14.3576103 15.8865755 14.2749567 15.1860864 13.8250001 14.7350001L10.825 11.735C9.93135202 10.8374695 8.71655667 10.3335544 7.45000003 10.335L6.33500003 10.335C6.15522234 9.84650649 5.6905228 9.52141626 5.17000002 9.52000004L3.91500002 9.52000004C3.22464408 9.52000004 2.66500001 10.0796441 2.66500001 10.77L2.66500001 15.6050001C2.66500001 16.295356 3.22464408 16.8550001 3.91500002 16.8550001L5.17000002 16.8550001C5.62058278 16.8528146 6.03511835 16.6082959 6.25500003 16.2150001 7.26714351 16.5191954 8.20522103 17.0299454 9.01000004 17.7150001 10.6285302 19.3455931 12.8325133 20.2603182 15.1300001 20.2550231L19.7050001 20.2550231C20.5715435 20.2070251 21.249619 19.4903705 21.249619 18.6225001 21.249619 17.7546297 20.5715435 17.0379751 19.7050001 16.9900001L19.7050001 17.0000001zM5.17000002 16.3850001L3.91500002 16.3850001C3.50078645 16.3850001 3.16500001 16.0492136 3.16500001 15.6350001L3.16500001 10.8C3.16500001 10.3857865 3.50078645 10.05 3.91500002 10.05L5.17000002 10.05C5.58421359 10.05 5.92000002 10.3857865 5.92000002 10.8L5.92000002 15.6350001C5.92000002 16.0492136 5.58421359 16.3850001 5.17000002 16.3850001zM19.7050001 19.7750037L15.1300001 19.7750037C12.9521728 19.7770627 10.8645685 18.9052763 9.33500004 17.3550001 8.48477978 16.6287559 7.4917578 16.0888109 6.42000003 15.7700001L6.42000003 10.865 7.47000003 10.865C8.59727754 10.8668771 9.67717531 11.3186343 10.47 12.1200001L13.4700001 15.1200001C13.810667 15.4631395 13.810667 16.0168607 13.4700001 16.3600001L13.4700001 16.3600001C13.1285719 16.7000874 12.5764282 16.7000874 12.2350001 16.3600001L9.85000004 13.9750001C9.7865854 13.9115854 9.69415654 13.8868192 9.60753053 13.9100305 9.52090452 13.9332419 9.4532419 14.0009045 9.43003053 14.0875305 9.40681916 14.1741566 9.4315854 14.2665854 9.49500004 14.3300001L11.88 16.7150001C12.3666069 17.2003013 13.1361429 17.2535933 13.6850001 16.8400001 14.5182437 17.280228 15.4476378 17.5069933 16.3900001 17.5000001L19.7050001 17.5000001C20.3013006 17.5396434 20.764709 18.0348833 20.764709 18.6325001 20.764709 19.2301169 20.3013006 19.7253567 19.7050001 19.7650001L19.7050001 19.7750037z"/>
    <rect width="24" height="24"/>
  </g>
</svg>
