<svg xmlns="http://www.w3.org/2000/svg" width="24" height="24" viewBox="0 0 24 24">
  <g fill="none" fill-rule="evenodd">
    <path fill="#000" fill-rule="nonzero" d="M14.1500001 4.65000002L13.0500001 4.65000002C12.3500001 4.65000002 11.8 4.10000002 11.8 3.4 11.8 2.70000001 12.3500001 2.15000001 13.0500001 2.15000001L15.6500001 2.15000001C15.8000001 2.15000001 15.9000001 2.05000001 15.9000001 1.9 15.9000001 1.75000001 15.8000001 1.65000001 15.6500001 1.65000001L13.8500001 1.65000001 13.8500001.650000003C13.8500001.500000002 13.75.400000002 13.6000001.400000002 13.4500001.400000002 13.3500001.500000002 13.3500001.650000003L13.3500001 1.65000001 13.0500001 1.65000001C12.0500001 1.65000001 11.25 2.45000001 11.25 3.45000001 11.25 4.45000002 12.0500001 5.25000002 13.0500001 5.25000002L14.1500001 5.25000002C14.8500001 5.25000002 15.4000001 5.80000002 15.4000001 6.50000003 15.4000001 7.20000003 14.8500001 7.75000003 14.1500001 7.75000003L11.55 7.75000003C11.4 7.75000003 11.3 7.85000003 11.3 8.00000003 11.3 8.15000003 11.4 8.25000003 11.55 8.25000003L13.3500001 8.25000003 13.3500001 9.25000004C13.3500001 9.4 13.4500001 9.50000004 13.6000001 9.50000004 13.75 9.50000004 13.8500001 9.4 13.8500001 9.25000004L13.8500001 8.25000003 14.1500001 8.25000003C15.1500001 8.25000003 15.9500001 7.45000003 15.9500001 6.45000003 15.9500001 5.50000002 15.1500001 4.65000002 14.1500001 4.65000002zM17.2000001 13.9000001L13.9 13.9000001C12.9500001 13.9000001 12 13.6500001 11.15 13.1500001 11.6 12.7000001 11.6 12 11.15 11.55L8.15000003 8.55000004C7.30000003 7.70000003 6.15000003 7.25000003 4.95000002 7.25000003L3.65000002 7.25000003C3.65000002 6.70000003 3.20000001 6.45000003 2.65000001 6.45000003L1.4 6.45000003C.850000004 6.45000003.400000002 6.90000003.400000002 7.45000003L.400000002 12.3000001C.400000002 12.8500001.850000004 13.3000001 1.4 13.3000001L2.65000001 13.3000001C3.20000001 13.3000001 3.65000002 13.1500001 3.65000002 12.6000001 3.65000002 12.6000001 5.60000002 13.1500001 6.65000003 14.1500001L6.70000003 14.2000001C8.30000003 15.8000001 10.4 16.6500001 12.6500001 16.6500001L17.2000001 16.6500001C17.9500001 16.6500001 18.6000001 16.0500001 18.6000001 15.2500001 18.6000001 14.5000001 17.9500001 13.9000001 17.2000001 13.9000001z" transform="translate(2.5 3.5)"/>
    <rect width="24" height="24"/>
  </g>
</svg>
