<svg xmlns="http://www.w3.org/2000/svg" width="24" height="24" viewBox="0 0 24 24">
  <g fill="none" fill-rule="evenodd">
    <rect width="24" height="24"/>
    <path fill="#CCC" fill-rule="nonzero" d="M14.4250001,16.8250001 L14.4250001,9.00000004 C14.4167558,8.2204678 13.7795561,7.59444707 13.0000001,7.59996337 L5.21000002,7.59996337 C4.43433768,7.59996337 3.80322258,8.22438128 3.79499363,9.00000004 L3.79499363,20.0000001 C3.79378661,20.2860735 3.9655673,20.5445187 4.22979939,20.6541586 C4.49403148,20.7637985 4.79832262,20.7028935 5.00000002,20.5000001 L6.84500003,18.6550001 C7.11711297,18.3834989 7.4856072,18.2307086 7.87000003,18.2300001 L13.0150001,18.2300001 C13.7895241,18.2245886 14.4168372,17.5995 14.4250001,16.8250001 L14.4250001,16.8250001 Z"/>
    <path fill="#000" fill-rule="nonzero" d="M4.50000002,21.0000001 C4.37302347,20.9987187 4.24745284,20.9732652 4.13000002,20.9250001 C3.76929479,20.78033 3.53480887,20.4286011 3.53991554,20.0400001 L3.53991554,9.00000004 C3.54274567,8.08158562 4.2865856,7.33774568 5.20500002,7.33499251 L13.0000001,7.33499251 C13.4429122,7.33367196 13.8682112,7.50834547 14.182335,7.82059398 C14.4964589,8.13284248 14.673676,8.55708788 14.6750686,9.00000004 L14.6750686,16.8250001 C14.6790439,17.2704651 14.50387,17.6988614 14.1888657,18.0138657 C13.8738614,18.32887 13.445465,18.5040439 13.0000001,18.5000001 L7.87000003,18.5000001 C7.55049866,18.4994273 7.24418781,18.6273572 7.02000003,18.8550001 L5.18000002,20.7000001 C5.00314166,20.8877186 4.75787696,20.9959237 4.50000002,21.0000001 Z M5.21000002,7.85000003 C4.57240092,7.85000003 4.05320945,8.36245378 4.04495159,9.00000004 L4.04495159,20.0000001 C4.04229432,20.1860743 4.15317291,20.3550409 4.32495192,20.4266155 C4.49673094,20.4981901 4.69478148,20.457944 4.82500002,20.3250001 L6.67000003,18.5000001 C6.9870159,18.1795285 7.41922205,17.9994426 7.87000003,18.0000001 L13.0000001,18.0000001 C13.6406504,18.0000001 14.1600001,17.4806504 14.1600001,16.8400001 L14.1600001,9.00000004 C14.1491751,8.36552232 13.6345477,7.85533137 13.0000001,7.85000003 L5.21000002,7.85000003 Z"/>
    <path fill="#CCC" fill-rule="nonzero" d="M7.50000003,13.7650001 L7.50000003,4.42000002 C7.50000003,3.48387736 8.25887738,2.72499258 9.19500004,2.72499258 L18.5000001,2.72499258 C18.9499494,2.72366682 19.3818543,2.90181851 19.700018,3.21998213 C20.0181816,3.53814576 20.1963333,3.97005068 20.1950075,4.42000002 L20.1950075,17.6050001 C20.1950075,17.9474143 19.9883566,18.2559789 19.6717337,18.3863531 C19.3551108,18.5167272 18.9911083,18.4431344 18.7500001,18.2000001 L16.5500001,16.0000001 C16.2237416,15.6780664 15.7833482,15.498314 15.3250001,15.5000001 L9.16500004,15.5000001 C8.71322899,15.4934778 8.28288066,15.3063277 7.9700409,14.9803355 C7.65720114,14.6543433 7.48792229,14.2166567 7.50000003,13.7650001 Z"/>
    <path fill="#000" fill-rule="nonzero" d="M19.3550001,18.7050001 C19.0652324,18.7038348 18.7879703,18.5868086 18.5850001,18.3800001 L16.3750001,16.1700001 C16.0956091,15.8928838 15.7185099,15.736657 15.3250001,15.7350001 L9.16000004,15.7350001 C8.0897135,15.7294972 7.22500003,14.8603007 7.22500003,13.7900001 L7.22500003,4.42000002 C7.23868262,3.35558196 8.10549405,2.50000001 9.17000004,2.50000001 L18.5000001,2.50000001 C19.5722408,2.50275642 20.4400001,3.37275577 20.4400001,4.44500002 L20.4400001,17.6050001 C20.4319259,18.2091373 19.9441373,18.6969259 19.3400001,18.7050001 L19.3550001,18.7050001 Z M9.17000004,3.00000001 C8.37194857,3.00000001 7.72500003,3.64694855 7.72500003,4.44500002 L7.72500003,13.7650001 C7.72500003,14.561103 8.36890189,15.2072454 9.16500004,15.2100001 L15.3250001,15.2100001 C15.851413,15.2108966 16.3562471,15.4192979 16.7300001,15.7900001 L18.9350001,18 C19.1062686,18.1593157 19.3549692,18.2034514 19.5706105,18.1128821 C19.7862518,18.0223127 19.9288296,17.8138075 19.9350001,17.5800001 L19.9350001,4.42000002 C19.9240934,3.63447439 19.2855969,3.00265208 18.5000001,3.00000001 L9.17000004,3.00000001 Z"/>
    <path fill="#000" fill-rule="nonzero" d="M14.2400001,8.78000004 L13.4450001,8.78000004 C13.124846,8.80453667 12.8179356,8.64762952 12.6503521,8.37373823 C12.4827685,8.09984693 12.4827685,7.75515313 12.6503521,7.48126184 C12.8179356,7.20737054 13.124846,7.05046339 13.4450001,7.07500003 L15.3400001,7.07500003 C15.4780713,7.07500003 15.5900001,6.96307122 15.5900001,6.82500003 C15.5900001,6.68692884 15.4780713,6.57500003 15.3400001,6.57500003 L14.0900001,6.57500003 L14.0900001,5.90000002 C14.0900001,5.76192884 13.9780712,5.65000002 13.8400001,5.65000002 C13.7019289,5.65000002 13.5900001,5.76192884 13.5900001,5.90000002 L13.5900001,6.57500003 L13.4450001,6.57500003 C12.9421731,6.54441313 12.4638845,6.79530023 12.2032234,7.22637596 C11.9425624,7.6574517 11.9425624,8.19754837 12.2032234,8.6286241 C12.4638845,9.05969984 12.9421731,9.31058694 13.4450001,9.28000004 L14.2400001,9.28000004 C14.6855545,9.31414737 15.0296644,9.685639 15.0296644,10.1325 C15.0296644,10.5793611 14.6855545,10.9508527 14.2400001,10.985 L12.3400001,10.985 C12.2019289,10.985 12.0900001,11.0969289 12.0900001,11.235 C12.0900001,11.3730712 12.2019289,11.485 12.3400001,11.485 L13.5900001,11.485 L13.5900001,12.1600001 C13.5900001,12.2980712 13.7019289,12.4100001 13.8400001,12.4100001 C13.9780712,12.4100001 14.0900001,12.2980712 14.0900001,12.1600001 L14.0900001,11.5 L14.2400001,11.5 C14.9550735,11.4565022 15.5127277,10.8638953 15.5127277,10.1475 C15.5127277,9.4311048 14.9550735,8.83849787 14.2400001,8.79500004 L14.2400001,8.78000004 Z"/>
  </g>
</svg>
