<svg xmlns="http://www.w3.org/2000/svg" width="24" height="24" viewBox="0 0 24 24">
  <g fill="none" fill-rule="evenodd">
    <g fill="#000" fill-rule="nonzero" transform="translate(2.5 2.5)">
      <path d="M18.5000001,9.75 C18.6500001,9.75 18.75,9.65000004 18.75,9.50000004 C18.75,9.35000004 18.6500001,9.25 18.5000001,9.25 L15.75,9.25 L15.75,6.75 L18.5000001,6.75 C18.6500001,6.75 18.75,6.65000003 18.75,6.50000003 C18.75,6.35000003 18.6500001,6.25 18.5000001,6.25 L15.75,6.25 L15.75,3.50000001 C15.75,3.35000001 15.6500001,3.25 15.5000001,3.25 L12.75,3.25 L12.75,0.500000002 C12.75,0.350000001 12.6500001,0.250000001 12.5000001,0.250000001 C12.3500001,0.250000001 12.25,0.350000001 12.25,0.500000002 L12.25,3.25 L9.75,3.25 L9.75,0.500000002 C9.75,0.350000001 9.65000004,0.250000001 9.50000004,0.250000001 C9.35000004,0.250000001 9.25,0.350000001 9.25,0.500000002 L9.25,3.25 L6.75,3.25 L6.75,0.500000002 C6.75,0.350000001 6.65000003,0.250000001 6.50000003,0.250000001 C6.35000003,0.250000001 6.25,0.350000001 6.25,0.500000002 L6.25,3.25 L3.50000001,3.25 C3.35000001,3.25 3.25,3.35000001 3.25,3.50000001 L3.25,6.25 L0.500000002,6.25 C0.350000001,6.25 0.250000001,6.35000003 0.250000001,6.50000003 C0.250000001,6.65000003 0.350000001,6.75 0.500000002,6.75 L3.25,6.75 L3.25,9.25 L0.500000002,9.25 C0.350000001,9.25 0.250000001,9.35000004 0.250000001,9.50000004 C0.250000001,9.65000004 0.350000001,9.75 0.500000002,9.75 L3.25,9.75 L3.25,12.25 L0.500000002,12.25 C0.350000001,12.25 0.250000001,12.3500001 0.250000001,12.5000001 C0.250000001,12.6500001 0.350000001,12.75 0.500000002,12.75 L3.25,12.75 L3.25,15.5000001 C3.25,15.6500001 3.35000001,15.75 3.50000001,15.75 L6.25,15.75 L6.25,18.5000001 C6.25,18.6500001 6.35000003,18.75 6.50000003,18.75 C6.65000003,18.75 6.75,18.6500001 6.75,18.5000001 L6.75,15.75 L9.25,15.75 L9.25,18.5000001 C9.25,18.6500001 9.35000004,18.75 9.50000004,18.75 C9.65000004,18.75 9.75,18.6500001 9.75,18.5000001 L9.75,15.75 L12.25,15.75 L12.25,18.5000001 C12.25,18.6500001 12.3500001,18.75 12.5000001,18.75 C12.6500001,18.75 12.75,18.6500001 12.75,18.5000001 L12.75,15.75 L15.5000001,15.75 C15.6500001,15.75 15.75,15.6500001 15.75,15.5000001 L15.75,12.75 L18.5000001,12.75 C18.6500001,12.75 18.75,12.6500001 18.75,12.5000001 C18.75,12.3500001 18.6500001,12.25 18.5000001,12.25 L15.75,12.25 L15.75,9.75 L18.5000001,9.75 Z M12.3500001,10.95 C12.3500001,11.85 11.6,12.6000001 10.7,12.65 L10.7,13.65 C10.7,13.8000001 10.6,13.9000001 10.45,13.9000001 C10.3,13.9000001 10.2,13.8000001 10.2,13.65 L10.2,12.65 L8.90000004,12.65 L8.90000004,13.65 C8.90000004,13.8000001 8.80000004,13.9000001 8.65000003,13.9000001 C8.50000004,13.9000001 8.40000003,13.8000001 8.40000003,13.65 L8.40000003,12.65 L8.15000003,12.65 L7.80000003,12.65 L6.90000003,12.65 C6.75000003,12.65 6.65000003,12.5500001 6.65000003,12.4000001 C6.65000003,12.2500001 6.75000003,12.15 6.90000003,12.15 L7.55000003,12.15 L7.55000003,9.50000004 L7.55000003,6.90000003 L6.90000003,6.90000003 C6.75000003,6.90000003 6.65000003,6.80000003 6.65000003,6.65000002 C6.65000003,6.50000003 6.75000003,6.40000003 6.90000003,6.40000003 L7.80000003,6.40000003 C7.80000003,6.40000003 7.80000003,6.40000003 7.80000003,6.40000003 L8.40000003,6.40000003 L8.40000003,5.40000002 C8.40000003,5.25000002 8.50000004,5.15000002 8.65000003,5.15000002 C8.80000004,5.15000002 8.90000004,5.25000002 8.90000004,5.40000002 L8.90000004,6.40000003 L10.2,6.40000003 L10.2,5.40000002 C10.2,5.25000002 10.3,5.15000002 10.45,5.15000002 C10.6,5.15000002 10.7,5.25000002 10.7,5.40000002 L10.7,6.40000003 C11.6,6.40000003 12.3500001,7.15000002 12.3500001,8.10000003 C12.3500001,8.70000004 12,9.25000004 11.55,9.55000004 C12,9.80000004 12.3500001,10.35 12.3500001,10.95 Z"/>
      <path d="M10.65 6.90000003L10.45 6.90000003C10.45 6.90000003 10.45 6.90000003 10.45 6.90000003 10.45 6.90000003 10.45 6.90000003 10.45 6.90000003L8.65000004 6.90000003C8.65000004 6.90000003 8.65000004 6.90000003 8.65000004 6.90000003 8.65000004 6.90000003 8.65000004 6.90000003 8.65000004 6.90000003L8.15000003 6.90000003C8.15000003 6.90000003 8.15000003 6.90000003 8.15000003 6.90000003L8.05000003 6.90000003 8.05000003 9.25000004 10.7 9.25000004C11.35 9.25000004 11.9 8.70000004 11.9 8.05000003 11.9 7.40000003 11.3 6.90000003 10.65 6.90000003zM10.65 9.75000004L8.00000003 9.75000004 8.00000003 12.1000001 8.10000003 12.1000001 10.65 12.1000001C11.3 12.1000001 11.85 11.55 11.85 10.9 11.85 10.25 11.3 9.75000004 10.65 9.75000004z"/>
    </g>
    <rect width="24" height="24"/>
  </g>
</svg>
