<svg xmlns="http://www.w3.org/2000/svg" width="24" height="24" viewBox="0 0 24 24">
  <g fill="none" fill-rule="evenodd">
    <path fill="#000" fill-rule="nonzero" d="M14.0800001,4.95000002 L7.08000003,4.95000002 C6.99122037,4.41113783 6.61102423,3.96590925 6.09271356,3.79383851 C5.5744029,3.62176776 5.00342174,3.75122088 4.61000002,4.13000002 C4.3819472,4.35046483 4.22965277,4.63754859 4.17500002,4.95000002 L3.67500002,4.95000002 C3.17713604,4.95275069 2.77500001,5.35712845 2.77500001,5.85500002 L2.77500001,19.2200001 C2.77773242,19.7159201 3.17907995,20.1172677 3.67500002,20.1201248 L14.0800001,20.1201248 C14.3217448,20.124011 14.5550433,20.0311233 14.7278744,19.8620494 C14.9007055,19.6929755 14.9986975,19.4617746 15.0000001,19.2200001 L15.0000001,5.85500002 C15.0000001,5.61235743 14.9026291,5.37986442 14.7296506,5.20970615 C14.556672,5.03954787 14.3226093,4.94597832 14.0800001,4.95000002 Z M4.95500002,4.50000002 C5.2011978,4.26087123 5.55632786,4.17136854 5.88645298,4.26524788 C6.2165781,4.35912721 6.47147143,4.62210529 6.55500003,4.95500002 L4.68500002,4.95500002 C4.73251832,4.78184357 4.82578274,4.62467576 4.95500002,4.50000002 Z M14.5000001,19.2200001 C14.5000084,19.3269587 14.45718,19.4294654 14.3810806,19.5046253 C14.3049811,19.5797853 14.2019503,19.6213371 14.0950001,19.6200314 L3.65000002,19.6200314 C3.42908611,19.6200314 3.24996872,19.440914 3.24996872,19.2200001 L3.24996872,5.85500002 C3.24866303,5.74804977 3.2902148,5.64501897 3.36537475,5.56891952 C3.4405347,5.49282007 3.5430414,5.45000002 3.65000002,5.45000002 L6.60500003,5.45000002 L6.60500003,7.60500003 C6.62143219,7.74467428 6.55615573,7.88136464 6.43719712,7.95638304 C6.31823851,8.03140144 6.16676154,8.03140144 6.04780293,7.95638304 C5.92884432,7.88136464 5.86356786,7.74467428 5.88000002,7.60500003 L5.88000002,6.83000003 C5.87733997,6.6930458 5.76695425,6.58266008 5.63000002,6.58000003 C5.49192884,6.58000003 5.38000002,6.69192884 5.38000002,6.83000003 L5.38000002,7.60500003 C5.3553271,7.92881783 5.51411053,8.23917169 5.79115179,8.40862628 C6.06819304,8.57808088 6.41680701,8.57808088 6.69384826,8.40862628 C6.97088952,8.23917169 7.12967295,7.92881783 7.10500003,7.60500003 L7.10500003,5.45000002 L14.1050001,5.45000002 C14.3286754,5.45000002 14.5100001,5.6313247 14.5100001,5.85500002 L14.5000001,19.2200001 Z"/>
    <path fill="#000" fill-rule="nonzero" d="M11.8 15.7100001L5.93000002 15.7100001C5.79192884 15.7100001 5.68000002 15.8219289 5.68000002 15.9600001 5.68266008 16.0969543 5.7930458 16.20734 5.93000002 16.2100001L11.8 16.2100001C11.9380712 16.2100001 12.0500001 16.0980713 12.0500001 15.9600001 12.0500001 15.8219289 11.9380712 15.7100001 11.8 15.7100001zM11.8 17.3400001L5.93000002 17.3400001C5.79192884 17.3400001 5.68000002 17.4519289 5.68000002 17.5900001 5.68266008 17.7269543 5.7930458 17.83734 5.93000002 17.8400001L11.8 17.8400001C11.9380712 17.8400001 12.0500001 17.7280713 12.0500001 17.5900001 12.0500001 17.4519289 11.9380712 17.3400001 11.8 17.3400001zM9.23500004 13.0000001L7.47000003 13.0000001C7.33192884 13.0000001 7.22000003 13.1119289 7.22000003 13.2500001 7.22000003 13.3880712 7.33192884 13.5000001 7.47000003 13.5000001L8.61500004 13.5000001 8.61500004 14.1100001C8.61500004 14.2480712 8.72692885 14.3600001 8.86500004 14.3600001 9.00307122 14.3600001 9.11500004 14.2480712 9.11500004 14.1100001L9.11500004 13.5000001 9.23500004 13.5000001C9.90955587 13.4577784 10.4350391 12.898376 10.4350391 12.2225001 10.4350391 11.5466241 9.90955587 10.9872217 9.23500004 10.945L8.50000004 10.945C8.07197935 10.945 7.72500003 10.5980207 7.72500003 10.17 7.72500003 9.74197936 8.07197935 9.39500004 8.50000004 9.39500004L10.265 9.39500004C10.4030712 9.39500004 10.515 9.28307123 10.515 9.14500004 10.515 9.00692885 10.4030712 8.89500004 10.265 8.89500004L9.11500004 8.89500004 9.11500004 8.26500003C9.11500004 8.12692885 9.00307122 8.01500003 8.86500004 8.01500003 8.72692885 8.01500003 8.61500004 8.12692885 8.61500004 8.26500003L8.61500004 8.87500004 8.50000004 8.87500004C7.79583699 8.87500006 7.22500007 9.445837 7.22500007 10.15 7.22500007 10.8541631 7.79583699 11.425 8.50000004 11.425L9.24000004 11.425C9.64528167 11.4575268 9.95760012 11.7959153 9.95760012 12.2025001 9.95760012 12.6090848 9.64528167 12.9474733 9.24000004 12.9800001L9.23500004 13.0000001zM20.5300001 9.18000004L20.5300001 8.12500003C20.4971432 7.71166814 20.1521359 7.39299805 19.7375001 7.39299805 19.3228643 7.39299805 18.977857 7.71166814 18.9450001 8.12500003L18.9450001 9.12500004C18.5262504 9.35768405 18.2356829 9.7677888 18.1550001 10.24 17.1425167 10.2802079 16.3418827 11.1117204 16.3400001 12.1250001L16.3400001 13.0300001C15.883695 13.1551754 15.5903023 13.5985304 15.653455 14.06746 15.7166078 14.5363895 16.1168371 14.8863315 16.5900001 14.8863315 17.063163 14.8863315 17.4633924 14.5363895 17.5265451 14.06746 17.5896978 13.5985304 17.2963051 13.1551754 16.8400001 13.0300001L16.8400001 12.1250001C16.8407327 11.3966635 17.4035504 10.792398 18.1300001 10.74L18.1300001 17.7950001C18.1323675 18.5582352 18.6866252 19.2076898 19.4400001 19.3300001L19.4400001 20.0250001C19.4400001 20.1630713 19.5519289 20.2750001 19.6900001 20.2750001 19.8280713 20.2750001 19.9400001 20.1630713 19.9400001 20.0250001L19.9400001 19.3300001C20.6933749 19.2076898 21.2476326 18.5582352 21.2500001 17.7950001L21.2500001 10.5C21.256683 9.96453067 20.9838218 9.46428506 20.5300001 9.18000004zM17.0300001 13.9400001C17.0300001 14.1857668 16.8307668 14.3850001 16.5850001 14.3850001 16.3392334 14.3850001 16.1400001 14.1857668 16.1400001 13.9400001 16.1400001 13.6942333 16.3392334 13.4950001 16.5850001 13.4950001 16.7038853 13.4936642 16.8183616 13.5399576 16.9028998 13.6235565 16.987438 13.7071554 17.0350001 13.8211073 17.0350001 13.9400001L17.0300001 13.9400001zM19.4400001 8.12500003C19.4427287 7.96403197 19.5740089 7.83497691 19.7350001 7.83500003 19.8951627 7.83500003 20.0250001 7.96483746 20.0250001 8.12500003L20.0250001 8.97000004C19.9135647 8.94373499 19.7994885 8.93031427 19.6850001 8.93000004 19.6027454 8.9309068 19.5207426 8.93927443 19.4400001 8.95500004L19.4400001 8.12500003zM19.6850001 9.42998801C19.9687365 9.42864899 20.2411701 9.5411087 20.4413338 9.74221223 20.6414976 9.94331576 20.7526801 10.2162731 20.7500001 10.5L20.7500001 11.845 18.6300001 11.845 18.6300001 10.5C18.6273315 10.2171419 18.7378305 9.94495064 18.9369091 9.74399401 19.1359876 9.54303737 19.4071294 9.42998801 19.6900001 9.42998801L19.6850001 9.42998801zM19.6850001 18.8550001C19.0995782 18.8550001 18.6250001 18.3804219 18.6250001 17.7950001L18.6250001 12.3300001 20.7500001 12.3300001 20.7500001 17.7950001C20.7500001 18.3804219 20.2754219 18.8550001 19.6900001 18.8550001L19.6850001 18.8550001z"/>
    <rect width="24" height="24"/>
  </g>
</svg>
