<svg xmlns="http://www.w3.org/2000/svg" width="24" height="24" viewBox="0 0 24 24">
  <g fill="none" fill-rule="evenodd">
    <g transform="translate(2.5 3.5)">
      <path d="M6.60000002 9.70000004L4.85000002 9.70000004C4.70000002 9.70000004 4.60000002 9.80000004 4.60000002 9.95000004 4.60000002 10.1 4.70000002 10.2 4.85000002 10.2L6.00000002 10.2 6.00000002 10.8C6.00000002 10.95 6.10000002 11.05 6.25000003 11.05 6.40000003 11.05 6.50000003 10.95 6.50000003 10.8L6.50000003 10.2 6.60000002 10.2C7.30000003 10.2 7.90000003 9.65000002 7.90000003 8.90000004 7.90000003 8.15000002 7.35000003 7.60000003 6.60000002 7.60000003L5.85000002 7.60000003C5.40000002 7.60000003 5.05000002 7.25000003 5.05000002 6.80000003 5.05000002 6.35000003 5.40000002 6.00000002 5.85000002 6.00000002L7.60000002 6.00000002C7.75000003 6.00000002 7.85000003 5.90000002 7.85000003 5.75000002 7.85000003 5.60000002 7.75000003 5.50000002 7.60000002 5.50000002L6.50000003 5.50000002 6.50000003 4.90000002C6.50000003 4.75000002 6.40000003 4.65000002 6.25000003 4.65000002 6.10000002 4.65000002 6.00000002 4.85000002 6.00000002 4.95000002L6.00000002 5.55000002 5.90000002 5.55000002C5.20000002 5.55000002 4.60000002 6.10000003 4.60000002 6.85000003 4.60000002 7.55000003 5.15000002 8.15000002 5.90000002 8.15000002L6.65000003 8.15000002C7.10000002 8.15000002 7.45000003 8.50000004 7.45000003 8.95000004 7.45000003 9.40000004 7.05000003 9.70000004 6.60000002 9.70000004zM3.05000001.950000004C2.80000001.950000004 2.50000001 1.05 2.30000001 1.20000001 2.10000001 1.35000001 2.00000001 1.65000001 2.00000001 1.90000001L2.00000001 1.90000001 4.00000001 1.90000001C3.95000002 1.40000001 3.55000001.950000004 3.05000001.950000004zM9.15000004 14.0500001L3.30000001 14.0500001C3.15000001 14.0500001 3.05000001 14.1500001 3.05000001 14.3000001 3.05000001 14.4500001 3.15000001 14.5500001 3.30000001 14.5500001L9.15000004 14.5500001C9.30000004 14.5500001 9.40000004 14.4500001 9.40000004 14.3000001 9.40000004 14.1500001 9.30000004 14.0500001 9.15000004 14.0500001zM9.15000004 12.4000001L3.30000001 12.4000001C3.15000001 12.4000001 3.05000001 12.5000001 3.05000001 12.6500001 3.05000001 12.8000001 3.15000001 12.9000001 3.30000001 12.9000001L9.15000004 12.9000001C9.30000004 12.9000001 9.40000004 12.8000001 9.40000004 12.6500001 9.40000004 12.5000001 9.30000004 12.4000001 9.15000004 12.4000001z"/>
      <path fill="#000" fill-rule="nonzero" d="M11.45,1.90000001 L4.50000002,1.90000001 C4.50000002,1.90000001 4.50000002,1.95 4.50000002,1.95 L4.50000002,4.30000002 C4.50000002,4.80000002 4.10000002,5.15000002 3.65000002,5.15000002 C3.15000001,5.15000002 2.80000001,4.75000002 2.80000001,4.30000002 L2.80000001,3.55000001 C2.80000001,3.40000001 2.9,3.30000001 3.05000001,3.30000001 C3.20000001,3.30000001 3.30000001,3.40000001 3.30000001,3.55000001 L3.30000001,4.30000002 C3.30000001,4.50000002 3.45000001,4.65000002 3.65000002,4.65000002 C3.85000002,4.65000002 4.00000002,4.50000002 4.00000002,4.30000002 L4.00000002,1.95 C4.00000002,1.95 4.00000002,1.90000001 4.00000002,1.90000001 L2.05000001,1.90000001 L2.05000001,1.90000001 C2.05000001,1.65000001 2.15000001,1.40000001 2.35000001,1.2 C2.55000001,1 2.80000001,0.900000004 3.10000001,0.950000002 C3.60000001,1 4.00000002,1.40000001 4.00000002,1.95 L4.50000002,1.95 C4.45000002,1.15 3.85000002,0.500000002 3.10000001,0.450000002 C2.70000001,0.450000002 2.30000001,0.550000002 2.00000001,0.850000004 C1.70000001,1.15 1.55000001,1.50000001 1.55000001,1.90000001 L1.55000001,1.90000001 L1.05,1.90000001 C0.700000003,1.90000001 0.400000002,2.20000001 0.400000002,2.55000001 L0.400000002,15.9000001 C0.400000002,16.2500001 0.700000003,16.5500001 1.05,16.5500001 L11.5,16.5500001 C11.85,16.5500001 12.1500001,16.2500001 12.1500001,15.9000001 L12.1500001,2.55000001 C12.1000001,2.20000001 11.8,1.90000001 11.45,1.90000001 Z M6.60000003,8.15000003 L5.85000002,8.15000003 C5.15000002,8.15000003 4.55000002,7.60000003 4.55000002,6.85000003 C4.55000002,6.15000003 5.10000002,5.55000002 5.85000002,5.55000002 L6.00000002,5.55000002 L6.00000002,4.95000002 C6.00000002,4.80000002 6.10000003,4.70000002 6.25000003,4.70000002 C6.40000003,4.70000002 6.50000003,4.80000002 6.50000003,4.95000002 L6.50000003,5.55000002 L7.65000003,5.55000002 C7.80000003,5.55000002 7.90000003,5.65000002 7.90000003,5.80000002 C7.90000003,5.95000002 7.80000003,6.05000003 7.65000003,6.05000003 L5.90000002,6.05000003 C5.45000002,6.05000003 5.10000002,6.40000003 5.10000002,6.85000003 C5.10000002,7.30000003 5.45000002,7.65000003 5.90000002,7.65000003 L6.65000003,7.65000003 C7.35000003,7.65000003 7.95000003,8.20000002 7.95000003,8.95000004 C7.95000003,9.70000002 7.40000003,10.25 6.65000003,10.25 L6.50000003,10.25 L6.50000003,10.85 C6.50000003,11 6.40000003,11.1 6.25000003,11.1 C6.10000003,11.1 6.00000002,10.95 6.00000002,10.8 L6.00000002,10.2 L4.85000002,10.2 C4.70000002,10.2 4.60000002,10.1 4.60000002,9.95000004 C4.60000002,9.80000004 4.70000002,9.70000002 4.85000002,9.70000002 L6.60000003,9.70000002 C7.05000002,9.70000002 7.40000003,9.35000004 7.40000003,8.90000004 C7.40000003,8.45000004 7.05000002,8.15000003 6.60000003,8.15000003 Z M9.15000004,14.5500001 L3.30000001,14.5500001 C3.15000001,14.5500001 3.05000001,14.4500001 3.05000001,14.3000001 C3.05000001,14.1500001 3.15000001,14.0500001 3.30000001,14.0500001 L9.15000004,14.0500001 C9.30000004,14.0500001 9.40000004,14.1500001 9.40000004,14.3000001 C9.40000004,14.4500001 9.30000004,14.5500001 9.15000004,14.5500001 Z M9.15000004,12.9000001 L3.30000001,12.9000001 C3.15000001,12.9000001 3.05000001,12.8000001 3.05000001,12.6500001 C3.05000001,12.5000001 3.15000001,12.4000001 3.30000001,12.4000001 L9.15000004,12.4000001 C9.30000004,12.4000001 9.40000004,12.5000001 9.40000004,12.6500001 C9.40000004,12.8000001 9.30000004,12.9000001 9.15000004,12.9000001 Z"/>
      <g fill="#000" fill-rule="nonzero" transform="translate(13 3.5)">
        <path d="M4.90000002,2.00000001 L4.90000002,0.950000004 C4.90000002,0.500000002 4.55000002,0.150000001 4.10000002,0.150000001 C3.65000002,0.150000001 3.30000001,0.500000002 3.30000001,0.950000004 L3.30000001,1.95000001 C2.90000001,2.20000001 2.60000001,2.60000001 2.5,3.05000001 C1.5,3.10000001 0.700000003,3.90000002 0.700000003,4.95000002 L0.700000003,5.85000002 C0.300000001,5.95000002 -3.55271369e-15,6.30000003 -3.55271369e-15,6.75000003 C-3.55271369e-15,7.25000003 0.400000002,7.70000003 0.950000004,7.70000003 C1.5,7.70000003 1.90000001,7.30000003 1.90000001,6.75000003 C1.90000001,6.30000003 1.60000001,5.95000002 1.2,5.85000002 L1.2,4.95000002 C1.2,4.20000002 1.75000001,3.60000001 2.5,3.55000001 L2.5,4.65 L2.75000001,4.65 L3,4.65 L5.10000002,4.65 L5.35000002,4.65 L5.60000002,4.65 L5.60000002,3.30000001 C5.65000002,2.75000001 5.35000002,2.25000001 4.90000002,2.00000001 Z M1.40000001,6.75000003 C1.40000001,7.00000003 1.2,7.20000003 0.950000004,7.20000003 C0.700000003,7.20000003 0.500000002,7.00000003 0.500000002,6.75000003 C0.500000002,6.50000003 0.700000003,6.30000003 0.950000004,6.30000003 C1.2,6.30000003 1.40000001,6.50000003 1.40000001,6.75000003 Z M4.40000002,1.75000001 C4.30000002,1.75000001 4.20000002,1.70000001 4.05000002,1.70000001 C3.95000002,1.70000001 3.90000002,1.70000001 3.80000002,1.70000001 L3.80000002,0.850000004 C3.80000002,0.700000003 3.95000002,0.550000002 4.10000002,0.550000002 C4.25000002,0.550000002 4.40000002,0.700000003 4.40000002,0.850000004 L4.40000002,1.75000001 Z"/>
        <path d="M5.15000002,5.15000002 L3.00000001,5.15000002 L2.75000001,5.15000002 L2.50000001,5.15000002 L2.50000001,10.6 C2.50000001,11.35 3.05000001,12 3.80000002,12.15 L3.80000002,12.8500001 C3.80000002,13.0000001 3.90000002,13.1000001 4.05000002,13.1000001 C4.20000002,13.1000001 4.30000002,13.0000001 4.30000002,12.8500001 L4.30000002,12.15 C5.05000002,12.0500001 5.60000002,11.4 5.60000002,10.6 L5.60000002,5.15000002 L5.35000002,5.15000002 L5.15000002,5.15000002 Z"/>
      </g>
    </g>
    <rect width="24" height="24"/>
  </g>
</svg>
