<svg xmlns="http://www.w3.org/2000/svg" width="24" height="24" viewBox="0 0 24 24">
  <g fill="none" fill-rule="evenodd">
    <rect width="24" height="24"/>
    <rect width="11.735" height="14.67" x="2.99" y="6.285" fill="#CCC" fill-rule="nonzero" rx="1.3"/>
    <path fill="#1A1A1A" fill-rule="nonzero" d="M14.0750001,21.2050001 L3.64500002,21.2050001 C3.14794374,21.2050001 2.7449861,20.8020564 2.7449861,20.3050001 L2.7449861,6.94000003 C2.7436691,6.70044005 2.83790239,6.47023492 3.0068296,6.30036923 C3.17575681,6.13050353 3.40543634,6.03499633 3.64500002,6.03500003 L14.0750001,6.03500003 C14.3184673,6.02961821 14.5538292,6.12258497 14.7279001,6.29289221 C14.9019711,6.46319945 15.0000001,6.69647335 15.0000001,6.94000003 L15.0000001,20.3050001 C14.9987187,20.5476585 14.9000409,20.779637 14.7261189,20.9488584 C14.5521969,21.1180797 14.3176025,21.2103662 14.0750001,21.2050001 Z M3.64500002,6.53500003 C3.5380414,6.53500003 3.4355347,6.57782007 3.36037475,6.65391952 C3.2852148,6.73001897 3.24366303,6.83304977 3.24496872,6.94000003 L3.24496872,20.3050001 C3.24496872,20.525914 3.42408611,20.7050001 3.64500002,20.7050001 L14.0750001,20.7050001 C14.295914,20.7050001 14.4750314,20.525914 14.4750314,20.3050001 L14.4750314,6.94000003 C14.476337,6.83304977 14.4347853,6.73001897 14.3596253,6.65391952 C14.2844654,6.57782007 14.1819587,6.53500003 14.0750001,6.53500003 L3.64500002,6.53500003 Z"/>
    <path fill="#1A1A1A" fill-rule="nonzero" d="M6.23500003 9.55500012C5.75922749 9.55224986 5.37499207 9.16578052 5.37500002 8.69000004L5.37500002 7.91500003C5.37500002 7.77692884 5.48692884 7.66500003 5.62500002 7.66500003 5.76195425 7.66766008 5.87233997 7.77804581 5.87500002 7.91500003L5.87500002 8.69000004C5.85856786 8.82967428 5.92384432 8.96636465 6.04280293 9.04138304 6.16176154 9.11640144 6.31323851 9.11640144 6.43219712 9.04138304 6.55115573 8.96636465 6.61643219 8.82967428 6.60000003 8.69000004L6.60000003 6.35500003C6.61302488 5.818136 6.20947566 5.36223444 5.67500002 5.31000002 5.40699 5.29362127 5.14427413 5.38964845 4.95000002 5.57500002 4.75730571 5.76123851 4.6474251 6.01702616 4.64499968 6.28500003 4.64499968 6.42307121 4.53307121 6.53500003 4.39500002 6.53500003 4.25692883 6.53500003 4.14499968 6.42307121 4.14499968 6.28500003 4.14472596 5.87745997 4.31028866 5.48735122 4.60360362 5.20441075 4.89691857 4.92147028 5.29273393 4.77005679 5.70000002 4.78500002 6.49964846 4.85311788 7.11076417 5.52752773 7.10000003 6.33000003L7.10000003 8.66500004C7.10675757 8.8987126 7.0186159 9.12520648 6.85565874 9.29287339 6.69270157 9.4605403 6.46881025 9.55509771 6.23500003 9.55500012L6.23500003 9.55500012zM11.795 17.2950001L5.92500002 17.2950001C5.7880458 17.29234 5.67766008 17.1819543 5.67500002 17.0450001 5.67500002 16.9069289 5.78692884 16.7950001 5.92500002 16.7950001L11.795 16.7950001C11.9330712 16.7950001 12.0450001 16.9069289 12.0450001 17.0450001 12.04234 17.1819543 11.9319543 17.29234 11.795 17.2950001L11.795 17.2950001zM11.795 18.9250001L5.92500002 18.9250001C5.7880458 18.92234 5.67766008 18.8119543 5.67500002 18.6750001 5.67500002 18.5369289 5.78692884 18.4250001 5.92500002 18.4250001L11.795 18.4250001C11.9330712 18.4250001 12.0450001 18.5369289 12.0450001 18.6750001 12.04234 18.8119543 11.9319543 18.92234 11.795 18.9250001z"/>
    <path fill="#000" fill-rule="nonzero" d="M9.23000004,14.5600001 L7.46500003,14.5600001 C7.32692884,14.5600001 7.21500003,14.4480712 7.21500003,14.3100001 C7.21500003,14.1719289 7.32692884,14.0600001 7.46500003,14.0600001 L9.23000004,14.0600001 C9.65802072,14.0600001 10.005,13.7130207 10.005,13.2850001 C10.005,12.8569794 9.65802072,12.5100001 9.23000004,12.5100001 L8.50000004,12.5100001 C8.0444864,12.5100001 7.62357443,12.2669864 7.39581761,11.8725001 C7.16806079,11.4780137 7.16806079,10.9919864 7.39581761,10.5975 C7.62357443,10.2030137 8.0444864,9.96000004 8.50000004,9.96000004 L10.265,9.96000004 C10.4030712,9.96000004 10.515,10.0719289 10.515,10.21 C10.515,10.3480712 10.4030712,10.46 10.265,10.46 L8.50000004,10.46 C8.10852825,10.5046848 7.81289201,10.8359862 7.81289201,11.23 C7.81289201,11.6240139 8.10852825,11.9553153 8.50000004,12 L9.24000004,12 C9.9441631,12 10.515,12.570837 10.515,13.2750001 C10.515,13.9791631 9.9441631,14.5500001 9.24000004,14.5500001 L9.23000004,14.5600001 Z"/>
    <path fill="#000" fill-rule="nonzero" d="M8.86000004 10.46C8.72192885 10.46 8.61000004 10.3480712 8.61000004 10.21L8.61000004 9.34500004C8.61000004 9.20692885 8.72192885 9.09500004 8.86000004 9.09500004 8.99807122 9.09500004 9.11000004 9.20692885 9.11000004 9.34500004L9.11000004 10.21C9.11000004 10.3480712 8.99807122 10.46 8.86000004 10.46zM8.86000004 15.4250001C8.72192885 15.4250001 8.61000004 15.3130713 8.61000004 15.1750001L8.61000004 14.4350001C8.61000004 14.2969289 8.72192885 14.1850001 8.86000004 14.1850001 8.99807122 14.1850001 9.11000004 14.2969289 9.11000004 14.4350001L9.11000004 15.1750001C9.11000004 15.3130713 8.99807122 15.4250001 8.86000004 15.4250001zM16.5850001 15.9700132C16.1998584 15.9720218 15.8516076 15.7413061 15.7032848 15.3858648 15.554962 15.0304235 15.6359217 14.6206017 15.9082617 14.3482617 16.1806017 14.0759217 16.5904235 13.994962 16.9458648 14.1432848 17.3013061 14.2916076 17.5320219 14.6398584 17.5300133 15.0250001 17.5272663 15.5457726 17.1057726 15.9672663 16.5850001 15.9700132L16.5850001 15.9700132zM16.5850001 14.5750001C16.4138292 14.5568815 16.2473183 14.6379928 16.1560689 14.7839425 16.0648195 14.9298921 16.0648195 15.115108 16.1560689 15.2610577 16.2473183 15.4070073 16.4138292 15.4881186 16.5850001 15.4700001 16.8139126 15.4457695 16.9876318 15.2526914 16.9876318 15.0225001 16.9876318 14.7923087 16.8139126 14.5992306 16.5850001 14.5750001L16.5850001 14.5750001z"/>
    <path fill="#CCC" fill-rule="nonzero" d="M16.0325001,13.9125001 L23.3375001,13.9125001 C24.0609931,13.9125001 24.6475001,14.499007 24.6475001,15.2225001 C24.6475001,15.9459931 24.0609931,16.5325001 23.3375001,16.5325001 L16.0325001,16.5325001 C15.309007,16.5325001 14.7225001,15.9459931 14.7225001,15.2225001 C14.7225001,14.499007 15.309007,13.9125001 16.0325001,13.9125001 Z" transform="rotate(90 19.685 15.223)"/>
    <path fill="#000" fill-rule="nonzero" d="M19.6850001,20.4400001 C18.8234359,20.4400001 18.1250001,19.7415643 18.1250001,18.8800001 L18.1250001,11.57 C18.1250001,10.7084358 18.8234359,10.01 19.6850001,10.01 C20.5465643,10.01 21.2450001,10.7084358 21.2450001,11.57 L21.2450001,18.8800001 C21.2450001,19.2937378 21.0806434,19.6905299 20.7880867,19.9830867 C20.4955299,20.2756434 20.0987378,20.4400001 19.6850001,20.4400001 L19.6850001,20.4400001 Z M19.6850001,10.51 C19.0995782,10.51 18.6250001,10.9845782 18.6250001,11.57 L18.6250001,18.8800001 C18.6250001,19.4654219 19.0995782,19.9400001 19.6850001,19.9400001 C20.2704219,19.9400001 20.7450001,19.4654219 20.7450001,18.8800001 L20.7450001,11.57 C20.7476687,11.2871419 20.6371696,11.0149506 20.4380911,10.813994 C20.2390125,10.6130374 19.9678708,10.5 19.6850001,10.5 L19.6850001,10.51 Z"/>
    <path fill="#000" fill-rule="nonzero" d="M20.8050001 13.4150001L18.3750001 13.4150001C18.2380458 13.41234 18.1276601 13.3019543 18.1250001 13.1650001 18.1250001 13.0269289 18.2369289 12.9150001 18.3750001 12.9150001L20.8050001 12.9150001C20.9430713 12.9150001 21.0550001 13.0269289 21.0550001 13.1650001 21.0550001 13.3030712 20.9430713 13.4150001 20.8050001 13.4150001zM16.5850001 14.5000001C16.4469289 14.5000001 16.3350001 14.3880712 16.3350001 14.2500001L16.3350001 13.2050001C16.3350001 12.7037409 16.5341245 12.223012 16.8885683 11.8685682 17.243012 11.5141245 17.7237409 11.315 18.2250001 11.315 18.3630713 11.315 18.4750001 11.4269289 18.4750001 11.565 18.4750001 11.7030712 18.3630713 11.815 18.2250001 11.815 17.4573243 11.815 16.8350001 12.4373242 16.8350001 13.2050001L16.8350001 14.2400001C16.8363392 14.307634 16.8107493 14.3730285 16.7638625 14.4217908 16.7169756 14.4705532 16.6526345 14.4986869 16.5850001 14.5000001zM19.6850001 21.3600001C19.5469289 21.3600001 19.4350001 21.2480713 19.4350001 21.1100001L19.4350001 20.1900001C19.4350001 20.0519289 19.5469289 19.9400001 19.6850001 19.9400001 19.8230713 19.9400001 19.9350001 20.0519289 19.9350001 20.1900001L19.9350001 21.1100001C19.9350001 21.2480713 19.8230713 21.3600001 19.6850001 21.3600001zM20.2750001 10.5C20.1369289 10.5 20.0250001 10.3880712 20.0250001 10.25L20.0250001 9.20000004C20.0398884 9.08636903 19.9876194 8.97439839 19.8909522 8.9128426 19.7942849 8.85128682 19.6707152 8.85128682 19.574048 8.9128426 19.4773808 8.97439839 19.4251118 9.08636903 19.4400001 9.20000004L19.4400001 10.25C19.4400001 10.3880712 19.3280713 10.5 19.1900001 10.5 19.0519289 10.5 18.9400001 10.3880712 18.9400001 10.25L18.9400001 9.20000004C18.9162985 8.90183975 19.0619517 8.61560855 19.3169361 8.45926196 19.5719206 8.30291537 19.8930796 8.30291537 20.1480641 8.45926196 20.4030485 8.61560855 20.5487017 8.90183975 20.5250001 9.20000004L20.5250001 10.25C20.5250001 10.3880712 20.4130713 10.5 20.2750001 10.5z"/>
  </g>
</svg>
