<svg xmlns="http://www.w3.org/2000/svg" width="24" height="24" viewBox="0 0 24 24">
  <g fill="none" fill-rule="evenodd">
    <path fill="#000" fill-rule="nonzero" d="M4.70000002 0C2.10000001 0 0 2.10000001 0 4.70000002 0 7.30000003 2.10000001 9.40000004 4.70000002 9.40000004 7.30000003 9.40000004 9.40000004 7.30000003 9.40000004 4.70000002 9.40000004 2.10000001 7.30000003 0 4.70000002 0zM4.30000002 4.45000002L5.10000002 4.45000002C5.85000002 4.45000002 6.45000001 5.05000002 6.45000001 5.80000001 6.45000001 6.55000003 5.85000002 7.15000003 5.10000002 7.15000003L4.95000001 7.15000003 4.95000001 7.85000003C4.95000001 8.00000003 4.85000002 8.10000003 4.70000002 8.10000003 4.55000002 8.10000003 4.45000001 8.00000003 4.45000001 7.85000003L4.45000001 7.15000003 3.20000001 7.15000003C3.05000001 7.15000003 2.95000001 7.05000003 2.95000001 6.90000003 2.95000001 6.75000003 3.05000001 6.65000003 3.20000001 6.65000003L5.10000002 6.65000003C5.55000002 6.65000003 5.95000001 6.25000003 5.95000001 5.80000001 5.95000001 5.35000002 5.55000002 4.95000002 5.10000002 4.95000002L4.30000002 4.95000002C3.55000001 4.95000002 2.95000001 4.35000002 2.95000001 3.60000002 2.95000001 2.85000001 3.55000001 2.25000001 4.30000002 2.25000001L4.45000001 2.25000001 4.45000001 1.55000001C4.45000001 1.40000001 4.55000002 1.30000001 4.70000002 1.30000001 4.85000002 1.30000001 4.95000001 1.40000001 4.95000001 1.55000001L4.95000001 2.25000001 6.20000003 2.25000001C6.35000003 2.25000001 6.45000001 2.35000001 6.45000001 2.50000001 6.45000001 2.65000001 6.35000003 2.75000001 6.20000003 2.75000001L4.30000002 2.75000001C3.85000002 2.75000001 3.45000001 3.15000001 3.45000001 3.60000001 3.45000001 4.05000002 3.85000002 4.45000002 4.30000002 4.45000002zM13.3000001 8.60000004C10.7 8.60000004 8.60000004 10.7 8.60000004 13.3000001 8.60000004 15.9000001 10.7 18.0000001 13.3000001 18.0000001 15.9000001 18.0000001 18.0000001 15.9000001 18.0000001 13.3000001 18.0000001 10.7 15.9000001 8.60000004 13.3000001 8.60000004zM13.5500001 12.4500001C13.5500001 12.6000001 13.4500001 12.7000001 13.3000001 12.7000001L12 12.7000001 12 13.9000001 13.3000001 13.9000001C13.4500001 13.9000001 13.5500001 14 13.5500001 14.1500001 13.5500001 14.3000001 13.4500001 14.4000001 13.3000001 14.4000001L12 14.4000001 12 14.9000001C12 15.6500001 12.6000001 16.2000001 13.3000001 16.2000001 14.0000001 16.2000001 14.6000001 15.6000001 14.6000001 14.9000001 14.6000001 14.7500001 14.7 14.6500001 14.8500001 14.6500001 15.0000001 14.6500001 15.1000001 14.7500001 15.1000001 14.9000001 15.1000001 15.9000001 14.3000001 16.7000001 13.3000001 16.7000001 12.3000001 16.7000001 11.5 15.9000001 11.5 14.9000001L11.5 14.4000001 10.45 14.4000001C10.3 14.4000001 10.2 14.3000001 10.2 14.1500001 10.2 14 10.3 13.9000001 10.45 13.9000001L11.5 13.9000001 11.5 12.7000001 10.45 12.7000001C10.3 12.7000001 10.2 12.6000001 10.2 12.4500001 10.2 12.3000001 10.3 12.2000001 10.45 12.2000001L11.5 12.2000001 11.5 11.8C11.5 10.8 12.3000001 10 13.3000001 10 14.3000001 10 15.1000001 10.8 15.1000001 11.8 15.1000001 11.95 15.0000001 12.0500001 14.8500001 12.0500001 14.7 12.0500001 14.6000001 11.95 14.6000001 11.8 14.6000001 11.05 14.0000001 10.5 13.3000001 10.5 12.6000001 10.5 12 11.05 12 11.75L12 12.1500001 13.3000001 12.1500001C13.4500001 12.1500001 13.5500001 12.3000001 13.5500001 12.4500001z" transform="translate(3 3)"/>
    <rect width="24" height="24"/>
    <path fill="#000" fill-rule="nonzero" d="M18.725 9.45499999C18.6935486 9.46022203 18.6614514 9.46022203 18.63 9.45499999 18.5349482 9.41596456 18.473462 9.32274358 18.475 9.21999999 18.4763268 7.87800434 17.9444931 6.59044637 16.9964966 5.64057447 16.0485001 4.69070257 14.7619957 4.15632539 13.42 4.15499997 13.2830458 4.15233991 13.1726601 4.04195419 13.17 3.90499997 13.17 3.76692878 13.2819288 3.65499997 13.42 3.65499997 16.2514222 3.6647372 18.6215678 5.80433224 18.92 8.61999999L19.8 7.71499998C19.8596686 7.64268838 19.9547792 7.6098384 20.0463563 7.62991168 20.1379334 7.64998496 20.2105826 7.71960707 20.2345328 7.81024753 20.2584831 7.90088799 20.2297083 7.99730971 20.16 8.05999998L18.885 9.37999999C18.8423102 9.42327062 18.7855677 9.44986871 18.725 9.45499999zM10.5 20.16C7.66862462 20.1454278 5.30041815 18.0054303 4.99999997 15.19L4.08999997 16.1C4.04305832 16.1473282 3.97915935 16.1739496 3.91249997 16.1739496 3.84584058 16.1739496 3.78194162 16.1473282 3.73499997 16.1 3.63910832 16.0010932 3.63910832 15.8439069 3.73499997 15.745L4.99999997 14.43C5.07264224 14.3613057 5.17872688 14.3414001 5.2713306 14.3790876 5.36393431 14.4167752 5.42597075 14.5051022 5.42999997 14.605 5.43132429 15.9478633 5.96638794 17.2351266 6.91734181 18.183267 7.86829568 19.1314074 9.15713871 19.6626546 10.5 19.66 10.6380712 19.66 10.75 19.7719288 10.75 19.91 10.75 20.0480712 10.6380712 20.16 10.5 20.16z"/>
  </g>
</svg>
