<svg xmlns="http://www.w3.org/2000/svg" width="24" height="24" viewBox="0 0 24 24">
  <g fill="none" fill-rule="evenodd">
    <g transform="translate(3 3)">
      <g fill="#000" fill-rule="nonzero" transform="translate(8.5 8.5)">
        <path d="M4.80000002,0.1 C2.20000001,0.1 0.1,2.20000001 0.1,4.80000002 C0.1,7.40000003 2.20000001,9.50000004 4.80000002,9.50000004 C7.40000003,9.50000004 9.50000004,7.40000003 9.50000004,4.80000002 C9.50000004,2.20000001 7.40000003,0.1 4.80000002,0.1 Z M6.95000003,5.85000002 C6.95000003,6.55000003 6.40000003,7.10000003 5.75000001,7.15000001 L5.75000001,7.80000003 C5.75000001,7.95000003 5.65000002,8.05000003 5.50000002,8.05000003 C5.35000002,8.05000003 5.25000001,7.95000003 5.25000001,7.80000003 L5.25000001,7.20000003 L4.50000002,7.20000003 L4.50000002,7.80000003 C4.50000002,7.95000003 4.40000002,8.05000003 4.25000001,8.05000003 C4.10000002,8.05000003 4.00000002,7.95000003 4.00000002,7.80000003 L4.00000002,7.20000003 L3.90000002,7.20000003 L3.65000002,7.20000003 L3.00000001,7.20000003 C2.85000001,7.20000003 2.75000001,7.10000003 2.75000001,6.95000003 C2.75000001,6.80000003 2.85000001,6.70000003 3.00000001,6.70000003 L3.35000001,6.70000003 L3.35000001,4.90000002 L3.35000001,3.00000001 L3.00000001,3.00000001 C2.85000001,3.00000001 2.75000001,2.90000001 2.75000001,2.75000001 C2.75000001,2.60000001 2.85000001,2.50000001 3.00000001,2.50000001 L3.65000002,2.50000001 L3.90000002,2.50000001 L4.00000002,2.50000001 L4.00000002,1.90000001 C4.00000002,1.75000001 4.10000002,1.65000001 4.25000001,1.65000001 C4.40000002,1.65000001 4.50000002,1.75000001 4.50000002,1.90000001 L4.50000002,2.50000001 L5.25000001,2.50000001 L5.25000001,1.90000001 C5.25000001,1.75000001 5.35000002,1.65000001 5.50000002,1.65000001 C5.65000002,1.65000001 5.75000001,1.75000001 5.75000001,1.90000001 L5.75000001,2.55000001 C6.40000003,2.60000001 6.95000003,3.15000001 6.95000003,3.85000002 C6.95000003,4.25000002 6.75000001,4.65000001 6.45000003,4.90000002 C6.75000001,5.05000002 6.95000003,5.40000002 6.95000003,5.85000002 Z"/>
        <path d="M5.65000002 5.05000002L3.85000002 5.05000002 3.85000002 6.60000003 5.65000002 6.60000003C6.05000003 6.60000003 6.40000003 6.25000003 6.40000003 5.85000002 6.40000003 5.45000002 6.05000003 5.05000002 5.65000002 5.05000002zM5.65000002 3.00000001L3.85000002 3.00000001 3.85000002 4.55000002 5.65000002 4.55000002C6.05000003 4.55000002 6.40000003 4.20000002 6.40000003 3.80000002 6.40000003 3.40000001 6.05000003 3.00000001 5.65000002 3.00000001z"/>
      </g>
      <path d="M4.30000002,2.75000001 L6.20000003,2.75000001 C6.35000003,2.75000001 6.45000001,2.65000001 6.45000001,2.50000001 C6.45000001,2.35000001 6.35000003,2.25000001 6.20000003,2.25000001 L4.95000001,2.25000001 L4.95000001,1.55000001 C4.95000001,1.40000001 4.85000002,1.30000001 4.70000002,1.30000001 C4.55000002,1.30000001 4.45000001,1.40000001 4.45000001,1.55000001 L4.45000001,2.25000001 L4.30000002,2.25000001 C3.55000001,2.25000001 2.95000001,2.85000001 2.95000001,3.60000001 C2.95000001,4.35000002 3.55000001,4.95000002 4.30000002,4.95000002 L5.10000002,4.95000002 C5.55000002,4.95000002 5.95000001,5.35000002 5.95000001,5.80000001 C5.95000001,6.25000003 5.55000002,6.65000003 5.10000002,6.65000003 L3.20000001,6.65000003 C3.05000001,6.65000003 2.95000001,6.75000003 2.95000001,6.90000003 C2.95000001,7.05000003 3.05000001,7.15000003 3.20000001,7.15000003 L4.45000001,7.15000003 L4.45000001,7.85000003 C4.45000001,8.00000003 4.55000002,8.10000003 4.70000002,8.10000003 C4.85000002,8.10000003 4.95000001,8.00000003 4.95000001,7.85000003 L4.95000001,7.15000003 L5.10000002,7.15000003 C5.85000002,7.15000003 6.45000001,6.55000003 6.45000001,5.80000001 C6.45000001,5.05000002 5.85000002,4.45000002 5.10000002,4.45000002 L4.30000002,4.45000002 C3.85000002,4.45000002 3.45000001,4.05000002 3.45000001,3.60000001 C3.45000001,3.15000001 3.85000002,2.75000001 4.30000002,2.75000001 Z"/>
      <path d="M4.30000002,2.75000001 L6.20000003,2.75000001 C6.35000003,2.75000001 6.45000001,2.65000001 6.45000001,2.50000001 C6.45000001,2.35000001 6.35000003,2.25000001 6.20000003,2.25000001 L4.95000001,2.25000001 L4.95000001,1.55000001 C4.95000001,1.40000001 4.85000002,1.30000001 4.70000002,1.30000001 C4.55000002,1.30000001 4.45000001,1.40000001 4.45000001,1.55000001 L4.45000001,2.25000001 L4.30000002,2.25000001 C3.55000001,2.25000001 2.95000001,2.85000001 2.95000001,3.60000001 C2.95000001,4.35000002 3.55000001,4.95000002 4.30000002,4.95000002 L5.10000002,4.95000002 C5.55000002,4.95000002 5.95000001,5.35000002 5.95000001,5.80000001 C5.95000001,6.25000003 5.55000002,6.65000003 5.10000002,6.65000003 L3.20000001,6.65000003 C3.05000001,6.65000003 2.95000001,6.75000003 2.95000001,6.90000003 C2.95000001,7.05000003 3.05000001,7.15000003 3.20000001,7.15000003 L4.45000001,7.15000003 L4.45000001,7.85000003 C4.45000001,8.00000003 4.55000002,8.10000003 4.70000002,8.10000003 C4.85000002,8.10000003 4.95000001,8.00000003 4.95000001,7.85000003 L4.95000001,7.15000003 L5.10000002,7.15000003 C5.85000002,7.15000003 6.45000001,6.55000003 6.45000001,5.80000001 C6.45000001,5.05000002 5.85000002,4.45000002 5.10000002,4.45000002 L4.30000002,4.45000002 C3.85000002,4.45000002 3.45000001,4.05000002 3.45000001,3.60000001 C3.45000001,3.15000001 3.85000002,2.75000001 4.30000002,2.75000001 Z"/>
      <path fill="#000" fill-rule="nonzero" d="M4.70000002,0 C2.10000001,0 0,2.10000001 0,4.70000002 C0,7.30000003 2.10000001,9.40000004 4.70000002,9.40000004 C7.30000003,9.40000004 9.40000004,7.30000003 9.40000004,4.70000002 C9.40000004,2.10000001 7.30000003,0 4.70000002,0 Z M4.30000002,4.45000002 L5.10000002,4.45000002 C5.85000002,4.45000002 6.45000001,5.05000002 6.45000001,5.80000001 C6.45000001,6.55000003 5.85000002,7.15000003 5.10000002,7.15000003 L4.95000001,7.15000003 L4.95000001,7.85000003 C4.95000001,8.00000003 4.85000002,8.10000003 4.70000002,8.10000003 C4.55000002,8.10000003 4.45000001,8.00000003 4.45000001,7.85000003 L4.45000001,7.15000003 L3.20000001,7.15000003 C3.05000001,7.15000003 2.95000001,7.05000003 2.95000001,6.90000003 C2.95000001,6.75000003 3.05000001,6.65000003 3.20000001,6.65000003 L5.10000002,6.65000003 C5.55000002,6.65000003 5.95000001,6.25000003 5.95000001,5.80000001 C5.95000001,5.35000002 5.55000002,4.95000002 5.10000002,4.95000002 L4.30000002,4.95000002 C3.55000001,4.95000002 2.95000001,4.35000002 2.95000001,3.60000002 C2.95000001,2.85000001 3.55000001,2.25000001 4.30000002,2.25000001 L4.45000001,2.25000001 L4.45000001,1.55000001 C4.45000001,1.40000001 4.55000002,1.30000001 4.70000002,1.30000001 C4.85000002,1.30000001 4.95000001,1.40000001 4.95000001,1.55000001 L4.95000001,2.25000001 L6.20000003,2.25000001 C6.35000003,2.25000001 6.45000001,2.35000001 6.45000001,2.50000001 C6.45000001,2.65000001 6.35000003,2.75000001 6.20000003,2.75000001 L4.30000002,2.75000001 C3.85000002,2.75000001 3.45000001,3.15000001 3.45000001,3.60000001 C3.45000001,4.05000002 3.85000002,4.45000002 4.30000002,4.45000002 Z"/>
    </g>
    <rect width="24" height="24"/>
    <path fill="#000" fill-rule="nonzero" d="M18.725 9.45499999C18.6935486 9.46022203 18.6614514 9.46022203 18.63 9.45499999 18.5349482 9.41596456 18.473462 9.32274358 18.475 9.21999999 18.4763268 7.87800434 17.9444931 6.59044637 16.9964966 5.64057447 16.0485001 4.69070257 14.7619957 4.15632539 13.42 4.15499997 13.2830458 4.15233991 13.1726601 4.04195419 13.17 3.90499997 13.17 3.76692878 13.2819288 3.65499997 13.42 3.65499997 16.2514222 3.6647372 18.6215678 5.80433224 18.92 8.61999999L19.8 7.71499998C19.8596686 7.64268838 19.9547792 7.6098384 20.0463563 7.62991168 20.1379334 7.64998496 20.2105826 7.71960707 20.2345328 7.81024753 20.2584831 7.90088799 20.2297083 7.99730971 20.16 8.05999998L18.885 9.37999999C18.8423102 9.42327062 18.7855677 9.44986871 18.725 9.45499999zM10.5 20.16C7.66862462 20.1454278 5.30041815 18.0054303 4.99999997 15.19L4.08999997 16.1C4.04305832 16.1473282 3.97915935 16.1739496 3.91249997 16.1739496 3.84584058 16.1739496 3.78194162 16.1473282 3.73499997 16.1 3.63910832 16.0010932 3.63910832 15.8439069 3.73499997 15.745L4.99999997 14.43C5.07264224 14.3613057 5.17872688 14.3414001 5.2713306 14.3790876 5.36393431 14.4167752 5.42597075 14.5051022 5.42999997 14.605 5.43132429 15.9478633 5.96638794 17.2351266 6.91734181 18.183267 7.86829568 19.1314074 9.15713871 19.6626546 10.5 19.66 10.6380712 19.66 10.75 19.7719288 10.75 19.91 10.75 20.0480712 10.6380712 20.16 10.5 20.16z"/>
  </g>
</svg>
