<svg xmlns="http://www.w3.org/2000/svg" width="24" height="24" viewBox="0 0 24 24">
  <g fill="none" fill-rule="evenodd">
    <path fill="#000" fill-rule="nonzero" d="M18.4400001 15.2600001C18.4367986 14.5831818 17.9148211 14.022056 17.2400001 13.9700001L17.2400001 13.3400001C17.254293 13.2357 17.2066601 13.1326038 17.1179721 13.0758832 17.0292842 13.0191627 16.915716 13.0191627 16.827028 13.0758832 16.73834 13.1326038 16.6907072 13.2357 16.7050001 13.3400001L16.7050001 13.9600001 15.9300001 13.9600001 15.9300001 13.3400001C15.9442929 13.2357 15.8966601 13.1326038 15.8079721 13.0758832 15.7192841 13.0191627 15.605716 13.0191627 15.517028 13.0758832 15.42834 13.1326038 15.3807072 13.2357 15.3950001 13.3400001L15.3950001 13.9600001 14.4200001 13.9600001C14.2862983 13.978322 14.1866573 14.0925488 14.1866573 14.2275001 14.1866573 14.3624514 14.2862983 14.4766781 14.4200001 14.4950001L14.7850001 14.4950001 14.7850001 18.0950001 14.4200001 18.0950001C14.2862983 18.1133221 14.1866573 18.2275488 14.1866573 18.3625001 14.1866573 18.4974514 14.2862983 18.6116781 14.4200001 18.6300001L15.3950001 18.6300001 15.3950001 19.2500001C15.3807072 19.3543001 15.42834 19.4573964 15.517028 19.5141169 15.605716 19.5708374 15.7192841 19.5708374 15.8079721 19.5141169 15.8966601 19.4573964 15.9442929 19.3543001 15.9300001 19.2500001L15.9300001 18.6300001 16.7050001 18.6300001 16.7050001 19.2500001C16.6907072 19.3543001 16.73834 19.4573964 16.827028 19.5141169 16.915716 19.5708374 17.0292842 19.5708374 17.1179721 19.5141169 17.2066601 19.4573964 17.254293 19.3543001 17.2400001 19.2500001L17.2400001 18.6200001C17.7800357 18.5838745 18.2400955 18.214477 18.3920295 17.6949969 18.5439635 17.1755167 18.3554598 16.6164318 17.9200001 16.2950001 18.2471835 16.0515854 18.4400039 15.6677986 18.4400001 15.2600001zM17.9050001 17.3300001C17.9022513 17.7533054 17.5583143 18.0950001 17.1350001 18.0950001L15.3200001 18.0950001 15.3200001 16.5650001 17.1350001 16.5650001C17.5583143 16.5650001 17.9022513 16.9066947 17.9050001 17.3300001zM15.3200001 16.0300001L15.3200001 14.5000001 17.1350001 14.5000001C17.42399 14.4766557 17.7015952 14.6176217 17.853254 14.8647245 18.0049127 15.1118273 18.0049127 15.4231728 17.853254 15.6702756 17.7015952 15.9173784 17.42399 16.0583444 17.1350001 16.0350001L15.3200001 16.0300001zM7.70500003 2.74999747C5.70043583 2.74797724 3.89212906 3.95394092 3.12361355 5.80533651 2.35509803 7.65673209 2.77779174 9.78878552 4.1945177 11.2069425 5.61124366 12.6250995 7.74286926 13.0499455 9.59503979 12.2832995 11.4472103 11.5166536 12.6550001 9.70956525 12.6550001 7.70500003 12.6550001 4.97038052 10.4396182 2.75275947 7.70500003 2.74999747zM7.70500003 12.1600029C5.9026671 12.1620229 4.27667853 11.0778804 3.58555349 9.41332213 2.89442845 7.74876384 3.27434418 5.83176939 4.54807105 4.55661137 5.82179791 3.28145335 7.73836453 2.89938514 9.40369787 3.58864051 11.0690312 4.27789587 12.1550001 5.90266596 12.1550001 7.70500003 12.1522514 10.1623381 10.1623335 12.1544919 7.70500003 12.1600029L7.70500003 12.1600029z"/>
    <path fill="#000" fill-rule="nonzero" d="M7.30500003 5.74500002L9.20500004 5.74500002C9.34307123 5.74500002 9.45500004 5.63307121 9.45500004 5.49500002 9.45500004 5.35692883 9.34307123 5.24500002 9.20500004 5.24500002L7.95500003 5.24500002 7.95500003 4.57000002C7.95500003 4.43192883 7.84307122 4.32000002 7.70500003 4.32000002 7.56692884 4.32000002 7.45500003 4.43192883 7.45500003 4.57000002L7.45500003 5.24500002 7.30500003 5.24500002C6.82090515 5.24500001 6.37358302 5.50326155 6.13153558 5.92250002 5.88948814 6.34173848 5.88948814 6.85826157 6.13153558 7.27750004 6.37358302 7.6967385 6.82090515 7.95500004 7.30500003 7.95500003L8.10500003 7.95500003C8.55055447 7.98914736 8.89466437 8.36063899 8.89466437 8.80750004 8.89466437 9.25436108 8.55055447 9.62585271 8.10500003 9.66000004L6.20000003 9.66000004C6.06192884 9.66000004 5.95 9.77192885 5.95 9.91000004 5.95 10.0480712 6.06192884 10.16 6.20000003 10.16L7.45500003 10.16 7.45500003 10.84C7.45500003 10.9780712 7.56692884 11.09 7.70500003 11.09 7.84307122 11.09 7.95500003 10.9780712 7.95500003 10.84L7.95500003 10.16 8.10500003 10.16C8.82007352 10.1165022 9.37772763 9.52389528 9.37772763 8.80750004 9.37772763 8.09110479 8.82007352 7.49849787 8.10500003 7.45500003L7.30500003 7.45500003C6.99953794 7.45500004 6.71727933 7.29203796 6.56454829 7.02750004 6.41181724 6.76296211 6.41181724 6.43703794 6.56454829 6.17250002 6.71727933 5.90796209 6.99953794 5.74500001 7.30500003 5.74500002zM16.2950001 11.34C13.5584291 11.34 11.34 13.5584291 11.34 16.2950001 11.34 19.031571 13.5584291 21.2500001 16.2950001 21.2500001 19.031571 21.2500001 21.2500001 19.031571 21.2500001 16.2950001 21.247244 13.5595715 19.0304286 11.3427561 16.2950001 11.34L16.2950001 11.34zM16.2950001 20.7500001C13.8345715 20.7500001 11.84 18.7554286 11.84 16.2950001 11.84 13.8345715 13.8345715 11.84 16.2950001 11.84 18.7554286 11.84 20.7500001 13.8345715 20.7500001 16.2950001 20.7472446 18.7542864 18.7542864 20.7472446 16.2950001 20.7500001L16.2950001 20.7500001zM13.4200001 4.24500002C14.7645914 4.23968474 16.0560067 4.76975643 17.0091262 5.71818533 17.9622457 6.66661424 18.4986819 7.95539885 18.5000001 9.30000004 18.5005039 9.40092551 18.5616437 9.49164914 18.6550001 9.53000004 18.6864515 9.53522208 18.7185487 9.53522208 18.7500001 9.53000004 18.8169381 9.52890825 18.8803777 9.49990727 18.9250001 9.45000004L20.2050001 8.13500003C20.3016499 8.03558878 20.2994113 7.87664986 20.2000001 7.78000003 20.1005888 7.6833502 19.9416499 7.68558878 19.8450001 7.78500003L18.9650001 8.69000004C18.6643894 5.87544224 16.2955403 3.73701749 13.4650001 3.72500002 13.3269289 3.72500002 13.2150001 3.83692883 13.2150001 3.97500002 13.2150001 4.1130712 13.3269289 4.22500002 13.4650001 4.22500002L13.4200001 4.24500002zM10.5 19.7500001C7.7121045 19.7472439 5.45275622 17.4878956 5.45000002 14.7000001 5.44933185 14.5964451 5.38610317 14.503578 5.29000002 14.4650001 5.1962367 14.4274288 5.08902603 14.4512534 5.02000002 14.5250001L3.73000002 15.8450001C3.64670163 15.9459484 3.65535922 16.0940556 3.74985194 16.1846111 3.84434466 16.2751666 3.9926861 16.2775168 4.09000002 16.1900001L4.97000002 15.2850001C5.27404214 18.1098195 7.65886551 20.2509855 10.5 20.2500004 10.6380712 20.2500004 10.75 20.1380713 10.75 20.0000001 10.75 19.8619289 10.6380712 19.7500001 10.5 19.7500001L10.5 19.7500001z"/>
    <rect width="24" height="24"/>
  </g>
</svg>
