<svg xmlns="http://www.w3.org/2000/svg" width="24" height="24" viewBox="0 0 24 24">
  <g fill="none" fill-rule="evenodd">
    <rect width="24" height="24"/>
    <circle cx="7.565" cy="7.61" r="4.705" fill="#CCC" fill-rule="nonzero"/>
    <path fill="#000" fill-rule="nonzero" d="M7.56500003,12.5650407 C5.55908944,12.5730966 3.74618751,11.3709966 2.97294205,9.52009564 C2.19969659,7.66919469 2.61867445,5.53468879 4.03420773,4.1134188 C5.44974101,2.6921488 7.58253491,2.26454143 9.43654809,3.03029464 C11.2905613,3.79604786 12.5000001,5.6040731 12.5000001,7.61000003 C12.497285,10.3376481 10.2926148,12.5512532 7.56500003,12.5650407 Z M7.56500003,3.15995482 C5.76086795,3.15190169 4.12996755,4.23271955 3.43440449,5.89739676 C2.73884144,7.56207396 3.115957,9.48191438 4.38952834,10.7597932 C5.66309967,12.037672 7.58165583,12.4212677 9.24867209,11.7313293 C10.9156884,11.0413909 12.0020067,9.41414918 12.0000028,7.61000003 C11.9945462,5.16044183 10.0145259,3.17372468 7.56500003,3.15995482 Z"/>
    <path fill="#000" fill-rule="nonzero" d="M7.96500003,7.36000003 L7.16500003,7.36000003 C6.7194456,7.3258527 6.3753357,6.95436107 6.3753357,6.50750003 C6.3753357,6.06063898 6.7194456,5.68914735 7.16500003,5.65500002 L9.07000004,5.65500002 C9.20695426,5.65233997 9.31733999,5.54195425 9.32000004,5.40500002 C9.32000004,5.26692883 9.20807123,5.15500002 9.07000004,5.15500002 L7.81500002,5.15500002 L7.81500002,4.50000002 C7.81500002,4.36192883 7.70307122,4.25000002 7.56500003,4.25000002 C7.42692884,4.25000002 7.31500002,4.36192883 7.31500002,4.50000002 L7.31500002,5.18000002 L7.16500003,5.18000002 C6.44992655,5.22349786 5.89227244,5.81610478 5.89227244,6.53250003 C5.89227244,7.24889527 6.44992655,7.8415022 7.16500003,7.88500003 L7.96500003,7.88500003 C8.27046212,7.88500002 8.55272074,8.0479621 8.70545179,8.31250002 C8.85818283,8.57703795 8.85818283,8.90296212 8.70545179,9.16750005 C8.55272074,9.43203798 8.27046212,9.59500005 7.96500003,9.59500004 L6.06500003,9.59500004 C5.92692884,9.59500004 5.81500002,9.70692885 5.81500002,9.84500004 C5.81500002,9.98307123 5.92692884,10.095 6.06500003,10.095 L7.31500002,10.095 L7.31500002,10.77 C7.31500002,10.9080712 7.42692884,11.02 7.56500003,11.02 C7.70307122,11.02 7.81500002,10.9080712 7.81500002,10.77 L7.81500002,10.07 L7.96500003,10.07 C8.71334587,10.07 9.32000004,9.46334588 9.32000004,8.71500004 C9.32000004,7.9666542 8.71334587,7.36000003 7.96500003,7.36000003 Z"/>
    <circle cx="16.16" cy="16.205" r="4.705" fill="#CCC" fill-rule="nonzero"/>
    <path fill="#000" fill-rule="nonzero" d="M16.1600001 21.1600026C14.1554359 21.1620229 12.3471291 19.9560592 11.5786136 18.1046636 10.8100981 16.253268 11.2327918 14.1212146 12.6495177 12.7030576 14.0662437 11.2849006 16.1978693 10.8600546 18.0500398 11.6267006 19.9022104 12.3933465 21.1100001 14.2004348 21.1100001 16.2050001 21.1072501 18.9384799 18.8934758 21.1544904 16.1600001 21.1600026L16.1600001 21.1600026zM16.1600001 11.7499972C14.3576671 11.7479772 12.7316786 12.8321197 12.0405535 14.496678 11.3494285 16.1612363 11.7293442 18.0782307 13.0030711 19.3533887 14.2767979 20.6285467 16.1933646 21.010615 17.8586979 20.3213596 19.5240312 19.6321042 20.6100001 18.0073341 20.6100001 16.2050001 20.6072514 13.747662 18.6173335 11.7555082 16.1600001 11.7499972zM18.4900001 9.45500004C18.3949483 9.41596461 18.3334621 9.32274363 18.3350001 9.22000004 18.3322439 6.43210449 16.0728956 4.17275622 13.2850001 4.17000002 13.1469289 4.17000002 13.0350001 4.0580712 13.0350001 3.92000002 13.0350001 3.78192883 13.1469289 3.67000002 13.2850001 3.67000002 16.1137814 3.68655656 18.4800534 5.82265485 18.7850001 8.63500004L19.6650001 7.73000003C19.7226 7.65098896 19.8209756 7.61280952 19.9167956 7.63227851 20.0126155 7.6517475 20.0882908 7.72529114 20.110489 7.82051584 20.1326872 7.91574054 20.0973335 8.01516659 20.0200001 8.07500003L18.7450001 9.39500004C18.7001546 9.43280645 18.6436467 9.45399692 18.5850001 9.45500004 18.5535155 9.45980263 18.5214847 9.45980263 18.4900001 9.45500004zM10.355 20.1600001C7.52450526 20.1431587 5.15758679 18.0043251 4.85500002 15.1900001L3.95500002 16.1000001C3.89247854 16.1643079 3.8003985 16.1903759 3.71344557 16.1683846 3.62649264 16.1463934 3.55787702 16.0796837 3.53344557 15.9933846 3.50901411 15.9070855 3.53247854 15.8143079 3.59500001 15.7500001L4.87000002 14.4300001C4.94245044 14.3583802 5.05057661 14.336755 5.14500002 14.3750001 5.23926596 14.412227 5.3008794 14.5036534 5.30000002 14.6050001 5.30275623 17.395657 7.56434308 19.6572439 10.355 19.6600001 10.4930712 19.6600001 10.605 19.7719289 10.605 19.9100001 10.60234 20.0469543 10.4919543 20.15734 10.355 20.1600001z"/>
    <path fill="#000" fill-rule="nonzero" d="M16.8350001 14.4050001C16.6878394 14.4022744 16.5699748 14.2821859 16.5700001 14.1350001L16.5700001 13.2450001C16.5883221 13.1112983 16.7025488 13.0116572 16.8375001 13.0116572 16.9724514 13.0116572 17.0866781 13.1112983 17.1050001 13.2450001L17.1050001 14.1350001C17.1050001 14.2841169 16.984117 14.4050001 16.8350001 14.4050001zM15.5250001 14.4050001C15.3778394 14.4022744 15.2599748 14.2821859 15.2600001 14.1350001L15.2600001 13.2450001C15.2783221 13.1112983 15.3925488 13.0116572 15.5275001 13.0116572 15.6624514 13.0116572 15.7766781 13.1112983 15.7950001 13.2450001L15.7950001 14.1350001C15.7950001 14.2841169 15.6741169 14.4050001 15.5250001 14.4050001L15.5250001 14.4050001z"/>
    <path fill="#000" fill-rule="nonzero" d="M15.1700001 14.4050001L14.2850001 14.4050001C14.1807001 14.4192929 14.0776038 14.3716601 14.0208833 14.2829721 13.9641627 14.1942841 13.9641627 14.080716 14.0208833 13.992028 14.0776038 13.90334 14.1807001 13.8557072 14.2850001 13.8700001L15.1700001 13.8700001C15.2743001 13.8557072 15.3773964 13.90334 15.4341169 13.992028 15.4908374 14.080716 15.4908374 14.1942841 15.4341169 14.2829721 15.3773964 14.3716601 15.2743001 14.4192929 15.1700001 14.4050001L15.1700001 14.4050001zM15.1700001 18.5400001L14.2850001 18.5400001C14.1807001 18.554293 14.0776038 18.5066602 14.0208833 18.4179722 13.9641627 18.3292842 13.9641627 18.215716 14.0208833 18.127028 14.0776038 18.03834 14.1807001 17.9907072 14.2850001 18.0050001L15.1700001 18.0050001C15.2743001 17.9907072 15.3773964 18.03834 15.4341169 18.127028 15.4908374 18.215716 15.4908374 18.3292842 15.4341169 18.4179722 15.3773964 18.5066602 15.2743001 18.554293 15.1700001 18.5400001L15.1700001 18.5400001zM16.8350001 19.4300001C16.6878394 19.4272744 16.5699748 19.307186 16.5700001 19.1600001L16.5700001 18.2700001C16.5883221 18.1362983 16.7025488 18.0366573 16.8375001 18.0366573 16.9724514 18.0366573 17.0866781 18.1362983 17.1050001 18.2700001L17.1050001 19.1600001C17.1050001 19.309117 16.984117 19.4300001 16.8350001 19.4300001z"/>
    <path fill="#000" fill-rule="nonzero" d="M15.5250001,19.4300001 C15.3778394,19.4272744 15.2599748,19.307186 15.2600001,19.1600001 L15.2600001,18.2700001 C15.2783221,18.1362983 15.3925488,18.0366573 15.5275001,18.0366573 C15.6624514,18.0366573 15.7766781,18.1362983 15.7950001,18.2700001 L15.7950001,19.1600001 C15.7950001,19.309117 15.6741169,19.4300001 15.5250001,19.4300001 L15.5250001,19.4300001 Z"/>
    <path fill="#000" fill-rule="nonzero" d="M17.0000001,18.5400001 L14.9150001,18.5400001 C14.7678394,18.5372744 14.6500001,18.417186 14.6500001,18.2700001 L14.6500001,16.2050001 C14.6500001,16.0578142 14.7678394,15.9377257 14.9150001,15.9350001 L17.0000001,15.9350001 C17.6880589,15.9776511 18.2242613,16.5481206 18.2242613,17.2375001 C18.2242613,17.9268796 17.6880589,18.497349 17.0000001,18.5400001 L17.0000001,18.5400001 Z M15.1850001,18.0000001 L17.0000001,18.0000001 C17.3999161,17.9676952 17.7080021,17.6337188 17.7080021,17.2325001 C17.7080021,16.8312814 17.3999161,16.4973049 17.0000001,16.4650001 L15.1850001,16.4650001 L15.1850001,18.0000001 Z"/>
    <path fill="#000" fill-rule="nonzero" d="M17.0000001,16.4700001 L14.9150001,16.4700001 C14.7686446,16.4700001 14.6500001,16.3513555 14.6500001,16.2050001 L14.6500001,14.1350001 C14.6500001,13.9886446 14.7686446,13.8700001 14.9150001,13.8700001 L17.0000001,13.8700001 C17.7179702,13.8700001 18.3000001,14.4520299 18.3000001,15.1700001 C18.3000001,15.8879702 17.7179702,16.4700001 17.0000001,16.4700001 Z M15.1850001,15.9350001 L17.0000001,15.9350001 C17.4224979,15.9350001 17.765,15.5924979 17.765,15.1700001 C17.765,14.7475022 17.4224979,14.4050001 17.0000001,14.4050001 L15.1850001,14.4050001 L15.1850001,15.9350001 Z"/>
  </g>
</svg>
