<svg xmlns="http://www.w3.org/2000/svg" width="24" height="24" viewBox="0 0 24 24">
  <g fill="none" fill-rule="evenodd">
    <path fill="#000" fill-rule="nonzero" d="M7.70500003,2.74999747 C5.70043583,2.74797724 3.89212906,3.95394092 3.12361355,5.80533651 C2.35509803,7.65673209 2.77779174,9.78878552 4.1945177,11.2069425 C5.61124366,12.6250995 7.74286926,13.0499455 9.59503979,12.2832995 C11.4472103,11.5166536 12.6550001,9.70956525 12.6550001,7.70500003 C12.6550001,4.97038052 10.4396182,2.75275947 7.70500003,2.74999747 Z M7.70500003,12.1600029 C5.9026671,12.1620229 4.27667853,11.0778804 3.58555349,9.41332213 C2.89442845,7.74876384 3.27434418,5.83176939 4.54807105,4.55661137 C5.82179791,3.28145335 7.73836453,2.89938514 9.40369787,3.58864051 C11.0690312,4.27789587 12.1550001,5.90266596 12.1550001,7.70500003 C12.1522514,10.1623381 10.1623335,12.1544919 7.70500003,12.1600029 L7.70500003,12.1600029 Z"/>
    <path fill="#000" fill-rule="nonzero" d="M7.30500003 5.74500002L9.20500004 5.74500002C9.34307123 5.74500002 9.45500004 5.63307121 9.45500004 5.49500002 9.45500004 5.35692883 9.34307123 5.24500002 9.20500004 5.24500002L7.95500003 5.24500002 7.95500003 4.57000002C7.95500003 4.43192883 7.84307122 4.32000002 7.70500003 4.32000002 7.56692884 4.32000002 7.45500003 4.43192883 7.45500003 4.57000002L7.45500003 5.24500002 7.30500003 5.24500002C6.82090515 5.24500001 6.37358302 5.50326155 6.13153558 5.92250002 5.88948814 6.34173848 5.88948814 6.85826157 6.13153558 7.27750004 6.37358302 7.6967385 6.82090515 7.95500004 7.30500003 7.95500003L8.10500003 7.95500003C8.55055447 7.98914736 8.89466437 8.36063899 8.89466437 8.80750004 8.89466437 9.25436108 8.55055447 9.62585271 8.10500003 9.66000004L6.20000003 9.66000004C6.06192884 9.66000004 5.95 9.77192885 5.95 9.91000004 5.95 10.0480712 6.06192884 10.16 6.20000003 10.16L7.45500003 10.16 7.45500003 10.84C7.45500003 10.9780712 7.56692884 11.09 7.70500003 11.09 7.84307122 11.09 7.95500003 10.9780712 7.95500003 10.84L7.95500003 10.16 8.10500003 10.16C8.82007352 10.1165022 9.37772763 9.52389528 9.37772763 8.80750004 9.37772763 8.09110479 8.82007352 7.49849787 8.10500003 7.45500003L7.30500003 7.45500003C6.99953794 7.45500004 6.71727933 7.29203796 6.56454829 7.02750004 6.41181724 6.76296211 6.41181724 6.43703794 6.56454829 6.17250002 6.71727933 5.90796209 6.99953794 5.74500001 7.30500003 5.74500002zM16.2950001 11.34C13.5584291 11.34 11.34 13.5584291 11.34 16.2950001 11.34 19.031571 13.5584291 21.2500001 16.2950001 21.2500001 19.031571 21.2500001 21.2500001 19.031571 21.2500001 16.2950001 21.247244 13.5595715 19.0304286 11.3427561 16.2950001 11.34L16.2950001 11.34zM16.2950001 20.7500001C13.8345715 20.7500001 11.84 18.7554286 11.84 16.2950001 11.84 13.8345715 13.8345715 11.84 16.2950001 11.84 18.7554286 11.84 20.7500001 13.8345715 20.7500001 16.2950001 20.7472446 18.7542864 18.7542864 20.7472446 16.2950001 20.7500001L16.2950001 20.7500001z"/>
    <path fill="#000" fill-rule="nonzero" d="M16.2950001 13.4550001C17.0240159 13.4550001 17.6150001 14.0459842 17.6150001 14.7750001 17.6150001 14.9130712 17.7269289 15.0250001 17.8650001 15.0250001 18.0019543 15.02234 18.11234 14.9119543 18.1150001 14.7750001 18.1502628 14.102924 17.8117678 13.4662458 17.2349008 13.1196133 16.6580337 12.7729808 15.9369664 12.7729808 15.3600994 13.1196133 14.7832323 13.4662458 14.4447374 14.102924 14.4800001 14.7750001L14.4800001 15.1950001 13.4300001 15.1950001C13.2919289 15.1950001 13.1800001 15.3069289 13.1800001 15.4450001 13.1800001 15.5830713 13.2919289 15.6950001 13.4300001 15.6950001L14.5000001 15.6950001 14.5000001 16.9000001 13.4500001 16.9000001C13.3119289 16.9000001 13.2000001 17.0119289 13.2000001 17.1500001 13.2000001 17.2880713 13.3119289 17.4000001 13.4500001 17.4000001L14.5000001 17.4000001 14.5000001 17.9000001C14.5507248 18.8667697 15.3494007 19.6246389 16.3175001 19.6246389 17.2855995 19.6246389 18.0842753 18.8667697 18.1350001 17.9000001 18.1350001 17.7619289 18.0230713 17.6500001 17.8850001 17.6500001 17.7469289 17.6500001 17.6350001 17.7619289 17.6350001 17.9000001 17.5920933 18.5961621 17.0149831 19.1387982 16.3175001 19.1387982 15.620017 19.1387982 15.0429068 18.5961621 15.0000001 17.9000001L15.0000001 17.4000001 16.3150001 17.4000001C16.4530713 17.4000001 16.5650001 17.2880713 16.5650001 17.1500001 16.5650001 17.0119289 16.4530713 16.9000001 16.3150001 16.9000001L15.0000001 16.9000001 15.0000001 15.6950001 16.3150001 15.6950001C16.4530713 15.6950001 16.5650001 15.5830713 16.5650001 15.4450001 16.5650001 15.3069289 16.4530713 15.1950001 16.3150001 15.1950001L15.0000001 15.1950001 15.0000001 14.7750001C14.999871 14.0556367 15.5757658 13.4686244 16.2950001 13.4550001zM13.4200001 4.24500002C14.7645914 4.23968474 16.0560067 4.76975643 17.0091262 5.71818533 17.9622457 6.66661424 18.4986819 7.95539885 18.5000001 9.30000004 18.5005039 9.40092551 18.5616437 9.49164914 18.6550001 9.53000004 18.6864515 9.53522208 18.7185487 9.53522208 18.7500001 9.53000004 18.8181702 9.52797325 18.8828146 9.49924241 18.9300001 9.45000004L20.2050001 8.13500003C20.3016499 8.03558878 20.2994113 7.87664986 20.2000001 7.78000003 20.1005888 7.6833502 19.9416499 7.68558878 19.8450001 7.78500003L18.9650001 8.69000004C18.6643894 5.87544224 16.2955403 3.73701749 13.4650001 3.72500002 13.3269289 3.72500002 13.2150001 3.83692883 13.2150001 3.97500002 13.2150001 4.1130712 13.3269289 4.22500002 13.4650001 4.22500002L13.4200001 4.24500002zM10.5 19.7500001C7.7121045 19.7472439 5.45275622 17.4878956 5.45000002 14.7000001 5.44933185 14.5964451 5.38610317 14.503578 5.29000002 14.4650001 5.19612515 14.4288593 5.08973294 14.452502 5.02000002 14.5250001L3.73000002 15.8450001C3.64670163 15.9459484 3.65535922 16.0940556 3.74985194 16.1846111 3.84434466 16.2751666 3.9926861 16.2775168 4.09000002 16.1900001L4.97000002 15.2850001C5.27404214 18.1098195 7.65886551 20.2509855 10.5 20.2500004 10.6380712 20.2500004 10.75 20.1380713 10.75 20.0000001 10.75 19.8619289 10.6380712 19.7500001 10.5 19.7500001L10.5 19.7500001z"/>
    <rect width="24" height="24"/>
  </g>
</svg>
