<svg xmlns="http://www.w3.org/2000/svg" width="24" height="24" viewBox="0 0 24 24">
  <g fill="none" fill-rule="evenodd">
    <rect width="24" height="24"/>
    <path fill="#CCC" fill-rule="nonzero" d="M8.77500004,20.6450001 L3.40500001,15.2700001 C3.2013461,15.0664996 3.08692162,14.7904017 3.08692162,14.5025001 C3.08692162,14.2145984 3.2013461,13.9385005 3.40500001,13.7350001 L12.2950001,4.84500002 C12.4826008,4.65590972 12.7339841,4.54358954 13.0000001,4.53000002 L18.6950001,4.20500002 C19.0032978,4.18900832 19.3039174,4.30449769 19.5222099,4.52279021 C19.7405024,4.74108272 19.8559918,5.04170226 19.8400001,5.35000002 L19.5000001,11.045 C19.4864106,11.311016 19.3740904,11.5623993 19.1850001,11.75 L10.31,20.6450001 C9.88397323,21.0636601 9.20102685,21.0636601 8.77500004,20.6450001 L8.77500004,20.6450001 Z"/>
    <path fill="#000" fill-rule="nonzero" d="M9.54500004,21.2100977 C9.19062171,21.2110898 8.85046243,21.0707067 8.60000004,20.8200001 L3.22500001,15.4450001 C2.70563037,14.9239923 2.70563037,14.0810079 3.22500001,13.5600001 L12.1150001,4.67000002 C12.3500388,4.43272121 12.6662846,4.29335862 13.0000001,4.28000002 L18.6950001,3.96000002 C19.0748,3.93646372 19.446491,4.07673664 19.7160428,4.34533258 C19.9855946,4.61392852 20.127187,4.98511887 20.1050001,5.36500002 L19.7800001,11.06 C19.7633263,11.3875504 19.6262135,11.6973897 19.3950001,11.93 L10.5,20.8200001 C10.2474194,21.0736678 9.90294622,21.2143427 9.54500004,21.2100977 Z M18.7550001,4.45500002 L18.7100001,4.45500002 L13.0000001,4.78000002 C12.7949005,4.78983169 12.6007256,4.87533993 12.4550001,5.02000002 L3.58000001,13.9100001 C3.25391437,14.2377014 3.25391437,14.7672987 3.58000001,15.0950001 L8.95000004,20.4650001 C9.2777014,20.7910857 9.80729868,20.7910857 10.135,20.4650001 L19.0250001,11.575 C19.1691822,11.4284561 19.256099,11.2351107 19.2700001,11.03 L19.5900001,5.34000002 C19.6023204,5.11039493 19.5199807,4.88577649 19.3621849,4.71853184 C19.2043891,4.55128718 18.9849331,4.45603837 18.7550001,4.45500002 Z"/>
    <circle cx="15.635" cy="8.41" r="1.92" fill="#FFF" fill-rule="nonzero"/>
    <path fill="#000" fill-rule="nonzero" d="M15.6350001,10.5800127 C14.5997808,10.5794483 13.7091034,9.84772268 13.5076436,8.83229514 C13.3061839,7.81686761 13.8500474,6.80053048 14.8066455,6.40480425 C15.7632435,6.00907801 16.8661676,6.34417074 17.4409467,7.20516325 C18.0157258,8.06615576 17.9022864,9.21326524 17.1700001,9.94500004 C16.7637515,10.3532921 16.2109657,10.581969 15.6350001,10.5800127 Z M15.6350001,6.74499137 C14.9599105,6.74283117 14.3503295,7.14851916 14.0916903,7.77210267 C13.8330511,8.39568618 13.9765522,9.11372457 14.4550001,9.59000004 C15.1155966,10.2198418 16.1544035,10.2198418 16.8150001,9.59000004 C17.2934479,9.11372457 17.436949,8.39568618 17.1783098,7.77210267 C16.9196706,7.14851916 16.3100896,6.74283117 15.6350001,6.74499137 L15.6350001,6.74499137 Z"/>
    <path fill="#FFF" fill-rule="nonzero" d="M8.19733562,10.3866504 L11.9873356,10.3866504 C12.5396204,10.3866504 12.9873356,10.8343656 12.9873356,11.3866504 L12.9873356,16.5216504 C12.9873356,17.0739351 12.5396204,17.5216504 11.9873356,17.5216504 L8.19733562,17.5216504 C7.64505087,17.5216504 7.19733562,17.0739351 7.19733562,16.5216504 L7.19733562,11.3866504 C7.19733562,10.8343656 7.64505087,10.3866504 8.19733562,10.3866504 Z" transform="rotate(45 10.092 13.954)"/>
    <path fill="#000" fill-rule="nonzero" d="M9.62000004 18.3500839C9.2993856 18.3538109 8.99091154 18.227535 8.76500004 18.0000001L6.05000003 15.2800001C5.82375165 15.0539833 5.69662714 14.7472998 5.69662714 14.4275001 5.69662714 14.1077003 5.82375165 13.8010168 6.05000003 13.5750001L9.71500004 9.91000004C9.94121584 9.68221699 10.2489725 9.55411723 10.57 9.55411723 10.8910276 9.55411723 11.1987843 9.68221699 11.425 9.91000004L14.1400001 12.6200001C14.6090005 13.0935258 14.6090005 13.8564744 14.1400001 14.3300001L10.47 18.0000001C10.2453029 18.2262858 9.93888564 18.3524576 9.62000004 18.3500839L9.62000004 18.3500839zM10.57 10C10.3727784 10.0009508 10.183981 10.0800659 10.045 10.22L6.38000003 13.8850001C6.23919527 14.0223818 6.15979778 14.2107776 6.15979778 14.4075001 6.15979778 14.6042225 6.23919527 14.7926183 6.38000003 14.9300001L9.09500004 17.6450001C9.38706236 17.9250077 9.84793772 17.9250077 10.14 17.6450001L13.8100001 14C14.0958572 13.7083674 14.0958572 13.2416327 13.8100001 12.9500001L11.095 10.24C10.9593643 10.0926973 10.770142 10.0061956 10.57 10zM17.0000001 7.30500003C16.9340578 7.30406077 16.8711577 7.2771036 16.8250001 7.23000003 16.7776719 7.18305838 16.7510505 7.11915941 16.7510505 7.05250003 16.7510505 6.98584065 16.7776719 6.92194168 16.8250001 6.87500003L20.8250001 2.87500001C20.8719417 2.82767185 20.9358407 2.80105043 21.0025001 2.80105043 21.0691595 2.80105043 21.1330584 2.82767185 21.1800001 2.87500001 21.2752858 2.97221089 21.2752858 3.12778914 21.1800001 3.22500001L17.1800001 7.22500003C17.1331372 7.27469949 17.0682934 7.30351895 17.0000001 7.30500003L17.0000001 7.30500003z"/>
  </g>
</svg>
