<svg xmlns="http://www.w3.org/2000/svg" width="24" height="24" viewBox="0 0 24 24">
  <g fill="none" fill-rule="evenodd">
    <rect width="24" height="24"/>
    <path fill="#000" fill-rule="nonzero" d="M15.0000001,21.1650001 L3.00000001,21.1650001 C2.86192882,21.1650001 2.75000001,21.0530713 2.75000001,20.9150001 C2.75275333,19.1212163 4.20621628,17.6677534 6.00000002,17.6650001 L12,17.6650001 C13.7937838,17.6677534 15.2472467,19.1212163 15.25,20.9150001 C15.25,21.0530713 15.1380713,21.1650001 15.0000001,21.1650001 Z M3.26000001,20.6650001 L14.76,20.6650001 C14.6261784,19.2506892 13.4406223,18.1689775 12.0200001,18.1650001 L6.00000003,18.1650001 C4.57937773,18.1689775 3.39382171,19.2506892 3.26000001,20.6650001 Z"/>
    <path fill="#000" fill-rule="nonzero" d="M12.6650001 18.1750001L5.33500002 18.1750001C5.19692883 18.1750001 5.08500002 18.0630713 5.08500002 17.9250001L5.08500002 17.8250001C5.08774772 16.768515 5.94351496 15.9127478 7.00000003 15.9100001L11 15.9100001C12.0584372 15.9100001 12.9172437 16.7665665 12.9200001 17.8250001L12.9200001 17.9250001C12.9200001 17.9921797 12.892989 18.0565378 12.8450179 18.1035683 12.7970468 18.1505988 12.7321662 18.1763437 12.6650001 18.1750001zM5.59500002 17.6750001L12.4100001 17.6750001C12.3310074 16.9556461 11.7236777 16.4107723 11 16.4099979L7.00000003 16.4099979C6.27647149 16.4087299 5.66940444 16.9553063 5.59500002 17.6750001zM12.5150001 11.885L9.50000004 8.85000004C9.40471432 8.75278916 9.40471432 8.59721091 9.50000004 8.50000004L13.2981103 4.6873767C13.3970172 4.59148505 13.5542035 4.59148505 13.6531103 4.6873767L16.6881104 7.71737671C16.7328387 7.76669383 16.7577682 7.83079828 16.7581193 7.89737671 16.7585022 7.96260861 16.7333816 8.02541007 16.6881104 8.07237671L12.8700001 11.885C12.8219693 11.9285974 12.7598481 11.9534459 12.6950001 11.955 12.6284216 11.9546579 12.5643172 11.9297284 12.5150001 11.885zM10 8.67500002L12.6800001 11.355 16.1800001 7.85500003 13.5050001 5.17500002 10 8.67500002z"/>
    <path fill="#000" fill-rule="nonzero" d="M17.3300001 8.42501813C16.986356 8.42629574 16.6566241 8.28935793 16.4150001 8.04500003L13.3200001 4.95000002C13.0763408 4.70785153 12.9393267 4.37851963 12.9393267 4.03500002 12.9393267 3.6914804 13.0763408 3.3621485 13.3200001 3.12000001 13.8340523 2.63614815 14.6359479 2.63614815 15.1500001 3.12000001L18.2450001 6.22000003C18.4883593 6.46129177 18.6252522 6.78979695 18.6252522 7.13250003 18.6252522 7.47520311 18.4883593 7.80370829 18.2450001 8.04500003 18.0030568 8.2888831 17.6735331 8.42573445 17.3300001 8.42501813zM14.2350001 3.24500001C14.0212765 3.24966902 13.8188358 3.34185183 13.6750001 3.50000001 13.5244547 3.64845819 13.4397016 3.85106746 13.4397016 4.06250002 13.4397016 4.27393258 13.5244547 4.47654184 13.6750001 4.62500002L16.7700001 7.72000003C16.9668039 7.93943596 17.2688651 8.03197164 17.5548108 7.96042475 17.8407564 7.88887786 18.0636457 7.6649935 18.1339182 7.37873201 18.2041907 7.09247052 18.1103105 6.79082444 17.8900001 6.59500003L14.7950001 3.50000001C14.6508135 3.34233371 14.4485905 3.25025004 14.2350001 3.24500001zM12 13.7700001C11.656467 13.7707345 11.3269433 13.6338831 11.085 13.3900001L8.00000003 10.295C7.52787875 9.78433892 7.54340961 8.99194739 8.0351785 8.5001785 8.52694739 8.00840961 9.31933892 7.99287875 9.83000004 8.46500004L12.9250001 11.56C13.1686593 11.8021485 13.3056734 12.1314804 13.3056734 12.4750001 13.3056734 12.8185197 13.1686593 13.1478516 12.9250001 13.3900001L12.9250001 13.3900001C12.6806238 13.6363678 12.3469944 13.7734264 12 13.7700001L12 13.7700001zM8.89000004 8.5849975C8.56978509 8.58672405 8.28186268 8.78039668 8.15955476 9.07633815 8.03724684 9.37227963 8.10443191 9.71271255 8.33000003 9.94000004L11.425 13.0350001C11.7398728 13.3353179 12.2351273 13.3353179 12.5500001 13.0350001L12.5500001 13.0350001C12.8576113 12.7250314 12.8576113 12.2249687 12.5500001 11.915L9.45000004 8.82000004C9.30274626 8.66922975 9.10074885 8.58446298 8.89000004 8.5849975zM14.6450001 11.7700214C14.3889124 11.7716724 14.1419426 11.675032 13.9550001 11.5L13.4550001 11C13.4076719 10.9530584 13.3810505 10.8891594 13.3810505 10.8225 13.3810505 10.7558407 13.4076719 10.6919417 13.4550001 10.645L15.4850001 8.61500004C15.5319417 8.56767187 15.5958407 8.54105045 15.6625001 8.54105045 15.7291594 8.54105045 15.7930584 8.56767187 15.8400001 8.61500004L16.3400001 9.11500004C16.5244357 9.29723376 16.6282376 9.54572099 16.6282376 9.80500004 16.6282376 10.0642791 16.5244357 10.3127663 16.3400001 10.495L15.3400001 11.495C15.1525866 11.6730526 14.9035033 11.7716107 14.6450001 11.7700214zM13.9650001 10.77L14.3050001 11.11C14.4967766 11.2878586 14.7932235 11.2878586 14.9850001 11.11L15.9850001 10.11C16.1628587 9.91822346 16.1628587 9.62177662 15.9850001 9.43000004L15.6400001 9.09000004 13.9650001 10.77z"/>
    <path fill="#000" fill-rule="nonzero" d="M20.0000001,16.4200001 L19.9450001,16.4200001 C19.5802315,16.4071603 19.2375101,16.2421463 19.0000001,15.9650001 L15.0900001,11.355 C14.9991773,11.2618008 14.9991773,11.1131993 15.0900001,11.02 L15.8700001,10.24 C15.9631993,10.1491773 16.1118008,10.1491773 16.2050001,10.24 L20.8150001,14.1550001 C21.2128093,14.5062991 21.3560057,15.0647636 21.1763187,15.564139 C20.9966318,16.0635144 20.5304377,16.4027059 20.0000001,16.4200001 Z M15.6100001,11.21 L19.3750001,15.6400001 C19.5170808,15.8094521 19.724043,15.9111178 19.9450001,15.9200001 C20.1685831,15.9351412 20.3871048,15.8488343 20.5400001,15.6850001 C20.7003553,15.5297579 20.7859974,15.3129193 20.7750001,15.0900001 C20.7717393,14.8630987 20.6716705,14.6484054 20.5000001,14.5000001 L16.0700001,10.735 L15.6100001,11.21 Z"/>
    <line x1="18.7" x2="19.91" y1="15.025" y2="13.815" fill="#000" fill-rule="nonzero"/>
    <path fill="#000" fill-rule="nonzero" d="M18.7000001,15.2750046 C18.5999813,15.273595 18.510428,15.2127065 18.4723421,15.1202122 C18.4342562,15.0277179 18.4549701,14.9214251 18.5250001,14.8500001 L19.7350001,13.6400001 C19.7819417,13.5926719 19.8458407,13.5660505 19.9125001,13.5660505 C19.9791595,13.5660505 20.0430584,13.5926719 20.0900001,13.6400001 C20.1852858,13.7372109 20.1852858,13.8927892 20.0900001,13.9900001 L18.8750001,15.2050001 C18.8280334,15.2502714 18.765232,15.2753919 18.7000001,15.2750046 Z"/>
  </g>
</svg>
