<svg xmlns="http://www.w3.org/2000/svg" width="24" height="24" viewBox="0 0 24 24">
  <g fill="none" fill-rule="evenodd">
    <path fill="#000" fill-rule="nonzero" d="M18.8300001,6.93000003 C20.3124923,6.18037012 21.2479353,4.66124173 21.25,3.00000001 C21.25,2.86192882 21.1380713,2.75000001 21.0000001,2.75000001 C20.8619289,2.75000001 20.75,2.86192882 20.75,3.00000001 C20.7472454,5.15829134 18.9982914,6.90724535 16.8400001,6.91000003 L7.16000003,6.91000003 C5.00170871,6.90724535 3.2527547,5.15829134 3.25000001,3.00000001 C3.25000001,2.86192882 3.1380712,2.75000001 3.00000001,2.75000001 C2.86192882,2.75000001 2.75000001,2.86192882 2.75000001,3.00000001 C2.75206484,4.66124173 3.68750776,6.18037012 5.17000002,6.93000003 C3.8081888,7.03182755 2.75403166,8.16439307 2.75000001,9.53000004 L2.75000001,11.275 L4.50000002,11.275 C5.47365712,11.2711309 6.364211,10.7256185 6.81000003,9.86000004 L7.44500003,18.6650001 C7.5546496,20.1203214 8.76555852,21.2462925 10.225,21.25 L13.7750001,21.25 C15.2344416,21.2462925 16.4453505,20.1203214 16.5550001,18.6650001 L17.1900001,9.86000004 C17.6357891,10.7256185 18.526343,11.2711309 19.5000001,11.275 L21.25,11.275 L21.25,9.53000004 C21.2459684,8.16439307 20.1918113,7.03182755 18.8300001,6.93000003 Z M13.3550001,13.2700001 L13.3550001,15.6950001 C12.470832,15.4318452 11.5291681,15.4318452 10.645,15.6950001 L10.645,13.2700001 C10.5871193,10.9518351 9.46368545,8.78982448 7.60000003,7.41000003 L16.4000001,7.41000003 C14.5363146,8.78982448 13.4128808,10.9518351 13.3550001,13.2700001 L13.3550001,13.2700001 Z M6.61500003,8.66000004 C6.61225104,9.82694172 5.6669417,10.7722511 4.50000002,10.775 L3.25000001,10.775 L3.25000001,9.53000004 C3.25000001,8.35915637 4.19915635,7.41000003 5.37000002,7.41000003 L6.61500003,7.41000003 L6.61500003,8.66000004 Z M7.15500003,7.69000003 C8.1932547,8.46372566 9.0216862,9.48465577 9.56500004,10.66 L8.27500003,10.66 C8.13692885,10.66 8.02500003,10.7719289 8.02500003,10.91 C8.02766009,11.0469543 8.13804581,11.15734 8.27500003,11.16 L9.64000004,11.16 C9.67995043,11.1577692 9.71905091,11.1475691 9.75500004,11.13 C10.008492,11.8152167 10.1404714,12.5394115 10.145,13.2700001 L10.145,15.9000001 C9.20957843,16.2984088 8.42142922,16.9782094 7.89000003,17.8450001 L7.15500003,7.69000003 Z M13.7750001,20.7500001 L10.225,20.7500001 C9.07786278,20.7438949 8.1130642,19.8881977 7.97000003,18.7500001 C7.97000003,18.7500001 7.97000003,18.7500001 7.97000003,18.7500001 C8.61796411,17.1176298 10.1839712,16.0350388 11.9399947,16.0055166 C13.6960182,15.9759944 15.297531,17.0053333 16.0000001,18.6150001 C16.0104415,18.6309141 16.0221459,18.6459626 16.0350001,18.6600001 C15.9298319,19.8335039 14.9531323,20.7367349 13.7750001,20.7500001 Z M16.1150001,17.7500001 C15.5706231,16.9078717 14.7821563,16.2519789 13.8550001,15.8700001 L13.8550001,13.2700001 C13.8595287,12.5394115 13.9915081,11.8152167 14.2450001,11.13 C14.2809492,11.1475691 14.3200497,11.1577692 14.3600001,11.16 L15.7250001,11.16 C15.8619543,11.15734 15.97234,11.0469543 15.9750001,10.91 C15.9750001,10.7719289 15.8630713,10.66 15.7250001,10.66 L14.4350001,10.66 C14.9783139,9.48465577 15.8067454,8.46372566 16.8450001,7.69000003 L16.1150001,17.7500001 Z M20.7500001,10.75 L19.5000001,10.75 C18.3330584,10.7472511 17.3877491,9.80194172 17.3850001,8.63500004 L17.3850001,7.38500003 L18.6300001,7.38500003 C19.8008438,7.38500003 20.7500001,8.33415637 20.7500001,9.50500004 L20.7500001,10.75 Z"/>
    <path fill="#000" fill-rule="nonzero" d="M10.39 17.6400001C9.91503516 17.6400001 9.53000004 18.0250352 9.53000004 18.5000001 9.53000004 18.974965 9.91503516 19.3600001 10.39 19.3600001 10.8649649 19.3600001 11.25 18.974965 11.25 18.5000001 11.25 18.0250352 10.8649649 17.6400001 10.39 17.6400001zM10.39 18.8600001C10.1911775 18.8600001 10.03 18.6988226 10.03 18.5000001 10.03 18.3011776 10.1911775 18.1400001 10.39 18.1400001 10.5888226 18.1400001 10.75 18.3011776 10.75 18.5000001 10.7473099 18.6976976 10.5876975 18.8573099 10.39 18.8600001zM13.6050001 17.6400001C13.1306958 17.6427577 12.7481707 18.0290053 12.7499999 18.503314 12.7518422 18.9776227 13.1373457 19.3608978 13.611657 19.3599856 14.0859684 19.3590701 14.4700001 18.9743123 14.4700001 18.5000001 14.4672499 18.0242275 14.0807805 17.6400001 13.6050001 17.6400001L13.6050001 17.6400001zM13.6050001 18.8600001C13.4068518 18.8572478 13.2481868 18.694872 13.2500154 18.496713 13.2518439 18.298554 13.4134783 18.1391338 13.6116436 18.1400347 13.809809 18.1409433 13.9699809 18.3018327 13.9700001 18.5000001 13.9672652 18.6996287 13.8046474 18.8600188 13.6050001 18.8600001L13.6050001 18.8600001z"/>
    <rect width="24" height="24"/>
  </g>
</svg>
