<svg xmlns="http://www.w3.org/2000/svg" width="24" height="24" viewBox="0 0 24 24">
  <g fill="none" fill-rule="evenodd">
    <path fill="#000" fill-rule="nonzero" d="M20.8950001,7.69500003 C20.6217578,7.3169887 20.2067113,7.06615627 19.7450001,7.00000003 L18.2850001,6.80000003 C18.1930264,5.91564549 17.4491197,5.24289508 16.5600001,5.23999266 L4.50000002,5.23999266 C4.0337205,5.23864673 3.5862939,5.42396292 3.25752378,5.75461172 C2.92875366,6.08526053 2.7459899,6.53373579 2.74993539,7.00000003 L2.74993539,15.3300001 C2.74993539,15.7936704 2.93453199,16.2382774 3.26286518,16.5656725 C3.59119837,16.8930676 4.03633154,17.0763286 4.50000002,17.0750001 L6.14500003,17.0750001 L18.1450001,18.7200001 C18.2248276,18.7274292 18.3051726,18.7274292 18.3850001,18.7200001 C18.7643399,18.7192866 19.1330545,18.5946259 19.4350001,18.3650001 C19.8083943,18.0884295 20.0523055,17.6710704 20.1100001,17.2100001 L21.2350001,9.00000004 C21.3011251,8.53701393 21.1786333,8.0668614 20.8950001,7.69500003 Z M3.25000001,8.12500003 L17.8050001,8.12500003 L17.8050001,9.21500004 L3.25000001,9.21500004 L3.25000001,8.12500003 Z M4.50000002,5.76000002 L16.5600001,5.76000002 C17.2456467,5.76000002 17.8022465,6.31435894 17.8050001,7.00000003 L17.8050001,7.00000003 C17.8050001,7.00000003 17.8050001,7.00000003 17.8050001,7.03000003 L17.8050001,7.62000003 L3.25000001,7.62000003 L3.25000001,7.00000003 C3.25549177,6.31355252 3.81353054,5.75997806 4.50000002,5.76000002 Z M3.25000001,15.3300001 L3.25000001,9.71500004 L17.8050001,9.71500004 L17.8050001,15.3300001 C17.8050001,16.0175946 17.2475946,16.5750001 16.5600001,16.5750001 L4.50000002,16.5750001 C3.811592,16.5750001 3.25275365,16.0184026 3.25000001,15.3300001 L3.25000001,15.3300001 Z M20.7500001,8.91500004 L19.6150001,17.1650001 C19.5668965,17.494997 19.3863341,17.7911193 19.1150001,17.9850001 C18.852404,18.1840632 18.521374,18.2704188 18.1950001,18.2250001 L9.80500004,17.0750001 L16.5600001,17.0750001 C17.523737,17.0750001 18.305,16.293737 18.305,15.33 L18.305,7.33000003 L19.6750001,7.52000003 C20.3538461,7.61566373 20.8289739,8.24024484 20.7400001,8.92000004 L20.7500001,8.91500004 Z"/>
    <path fill="#000" fill-rule="nonzero" d="M7.09000003 13.8200001L4.92000002 13.8200001C4.78192883 13.8200001 4.67000002 13.9319289 4.67000002 14.0700001 4.67000002 14.2080712 4.78192883 14.3200001 4.92000002 14.3200001L7.09000003 14.3200001C7.22807122 14.3200001 7.34000003 14.2080712 7.34000003 14.0700001 7.34000003 13.9319289 7.22807122 13.8200001 7.09000003 13.8200001zM9.34500004 12.5850001L4.92000002 12.5850001C4.78192883 12.5850001 4.67000002 12.6969289 4.67000002 12.8350001 4.67000002 12.9730712 4.78192883 13.0850001 4.92000002 13.0850001L9.34500004 13.0850001C9.48307123 13.0850001 9.59500004 12.9730712 9.59500004 12.8350001 9.59500004 12.6969289 9.48307123 12.5850001 9.34500004 12.5850001zM9.34500004 11.355L4.92000002 11.355C4.78192883 11.355 4.67000002 11.4669289 4.67000002 11.605 4.67000002 11.7430712 4.78192883 11.855 4.92000002 11.855L9.34500004 11.855C9.48307123 11.855 9.59500004 11.7430712 9.59500004 11.605 9.59500004 11.4669289 9.48307123 11.355 9.34500004 11.355L9.34500004 11.355zM16.6350001 12.5000001C16.6350001 11.7950236 16.0649711 11.2227539 15.3600001 11.22L12.6950001 11.22C11.9880756 11.22 11.415 11.7930756 11.415 12.5000001L11.415 13.2350001C11.4232162 13.9360597 11.9938922 14.5000482 12.6950001 14.5000001L15.3600001 14.5000001C16.0649711 14.4972462 16.6350001 13.9249765 16.6350001 13.22L16.6350001 12.5000001zM16.1350001 13.2350001C16.1268726 13.6579756 15.7830455 13.9973663 15.3600001 14.0000001L12.6950001 14.0000001C12.2642179 14.0000001 11.915 13.6507822 11.915 13.22L11.915 12.5000001C11.915 12.0692179 12.2642179 11.72 12.6950001 11.72L15.3600001 11.72C15.7888283 11.722749 16.1350001 12.071163 16.1350001 12.5000001L16.1350001 13.2350001z"/>
    <rect width="24" height="24"/>
  </g>
</svg>
