<svg xmlns="http://www.w3.org/2000/svg" width="24" height="24" viewBox="0 0 24 24">
  <g fill="none" fill-rule="evenodd">
    <rect width="24" height="24"/>
    <path fill="#000" fill-rule="nonzero" d="M12.085,14.7750001 C8.77129154,14.7750001 6.08500003,12.0887085 6.08500003,8.77500004 L6.08500003,3.00000001 C6.08500003,2.86192882 6.19692884,2.75000001 6.33500003,2.75000001 L17.8350001,2.75000001 C17.9730713,2.75000001 18.085,2.86192882 18.085,3.00000001 L18.085,8.76500004 C18.0876551,10.3580309 17.4566864,11.8867247 16.3311802,13.0141067 C15.205674,14.1414887 13.6780331,14.7750001 12.085,14.7750001 Z M6.58500003,3.27500001 L6.58500003,8.77500004 C6.58500003,11.8125662 9.04743391,14.2750001 12.085,14.2750001 C15.1225662,14.2750001 17.585,11.8125662 17.585,8.77500004 L17.585,3.25000001 L6.58500003,3.27500001 Z"/>
    <path fill="#000" fill-rule="nonzero" d="M18.0600001 8.50000004L17.8450001 8.50000004C17.7080458 8.49733998 17.5976601 8.38695426 17.5950001 8.25000003 17.5950001 8.11192885 17.7069289 8.00000003 17.8450001 8.00000003L18.0600001 8.00000003C19.2943565 8.00000003 20.2950001 6.99935645 20.2950001 5.76500002 20.2963326 5.58378805 20.2252786 5.40954011 20.0976091 5.28093192 19.9699397 5.15232372 19.796217 5.08000002 19.6150001 5.08000002L17.8450001 5.08000002C17.7069289 5.08000002 17.5950001 4.96807121 17.5950001 4.83000002 17.5950001 4.69192883 17.7069289 4.58000002 17.8450001 4.58000002L19.6150001 4.58000002C20.267504 4.58275322 20.7950001 5.11249025 20.7950001 5.76500002 20.7922483 7.27435752 19.5693576 8.49724824 18.0600001 8.50000004L18.0600001 8.50000004zM6.32500003 8.50000004L6.11000003 8.50000004C4.60064253 8.49724824 3.37775181 7.27435752 3.37500001 5.76500002 3.36829292 5.44727486 3.48948603 5.14017049 3.71136353 4.91265204 3.93324102 4.68513359 4.2372066 4.55627015 4.55500002 4.55500002L6.32500003 4.55500002C6.46307121 4.55500002 6.57500003 4.66692883 6.57500003 4.80500002 6.57500003 4.94307121 6.46307121 5.05500002 6.32500003 5.05500002L4.55500002 5.05500002C4.37378315 5.05500002 4.20006042 5.12732372 4.07239097 5.25593192 3.94472152 5.38454011 3.87366754 5.55878805 3.87500002 5.74000002 3.86832087 6.33707859 4.10084152 6.91200326 4.52071144 7.33656971 4.94058136 7.76113616 5.5128841 8.00003739 6.11000003 8.00000003L6.32500003 8.00000003C6.46307121 8.00000003 6.57500003 8.11192885 6.57500003 8.25000003 6.57233997 8.38695426 6.46195425 8.49733998 6.32500003 8.50000004L6.32500003 8.50000004z"/>
    <path fill="#000" fill-rule="nonzero" d="M12.085 14.7750001C8.77129154 14.7750001 6.08500003 12.0887085 6.08500003 8.77500004L6.08500003 3.00000001C6.08500003 2.86192882 6.19692884 2.75000001 6.33500003 2.75000001L17.8350001 2.75000001C17.9730713 2.75000001 18.085 2.86192882 18.085 3.00000001L18.085 8.76500004C18.0876551 10.3580309 17.4566864 11.8867247 16.3311802 13.0141067 15.205674 14.1414887 13.6780331 14.7750001 12.085 14.7750001zM6.58500003 3.27500001L6.58500003 8.77500004C6.58500003 11.8125662 9.04743391 14.2750001 12.085 14.2750001 15.1225662 14.2750001 17.585 11.8125662 17.585 8.77500004L17.585 3.25000001 6.58500003 3.27500001zM18.2350001 21.2500001L5.93500002 21.2500001C5.79692884 21.2500001 5.68500002 21.1380713 5.68500002 21.0000001L5.68500002 19.2100001C5.68500002 18.0253493 6.64534924 17.0650001 7.83000003 17.0650001L16.3300001 17.0650001C16.9032086 17.0583189 17.4552424 17.2813564 17.8629312 17.6843483 18.27062 18.0873403 18.5000005 18.6367526 18.5000005 19.2100001L18.5000005 21.0000001C18.5000005 21.0689869 18.4717362 21.1349587 18.4215556 21.1822989 18.371375 21.2296391 18.3038627 21.2541394 18.2350001 21.2500001L18.2350001 21.2500001zM6.18500003 20.7500001L18.0000001 20.7500001 18.0000001 19.2100001C18.0000001 18.3014917 17.2635085 17.5650001 16.3550001 17.5650001L7.85500003 17.5650001C6.94649162 17.5650001 6.21000003 18.3014917 6.21000003 19.2100001L6.18500003 20.7500001z"/>
    <path fill="#000" fill-rule="nonzero" d="M8.15000003 17.5650001L7.68500003 17.5650001C7.54692884 17.5650001 7.43500003 17.4530713 7.43500003 17.3150001 7.43500003 17.1769289 7.54692884 17.0650001 7.68500003 17.0650001L8.15000003 17.0650001C9.55085029 17.0622425 10.6850028 15.925853 10.685 14.5250001 10.6876601 14.3880458 10.7980458 14.2776601 10.935 14.2750001 11.0730712 14.2750001 11.185 14.3869289 11.185 14.5250001 11.185 16.201995 9.82699273 17.5622419 8.15000003 17.5650001zM16.5000001 17.5650001L16.0000001 17.5650001C14.3366961 17.5431126 12.9998561 16.188448 13.0000001 14.5250001 13.0000001 14.3869289 13.1119289 14.2750001 13.2500001 14.2750001 13.3869543 14.2776601 13.49734 14.3880458 13.5000001 14.5250001 13.499828 15.9123297 14.6128425 17.0431524 16.0000001 17.0650001L16.5000001 17.0650001C16.6380713 17.0650001 16.7500001 17.1769289 16.7500001 17.3150001 16.7500001 17.4530713 16.6380713 17.5650001 16.5000001 17.5650001z"/>
  </g>
</svg>
