<svg xmlns="http://www.w3.org/2000/svg" width="24" height="24" viewBox="0 0 24 24">
  <g fill="none" fill-rule="evenodd">
    <g transform="translate(3 3.5)">
      <path d="M16.0000001,0.700000003 L8.55000004,0.700000003 C8.35000003,0.700000003 8.15000003,0.900000004 8.15000003,1.1 L8.15000003,7.40000003 C8.20000003,7.40000003 8.25000003,7.40000003 8.30000003,7.40000003 L16.3500001,7.40000003 L16.3500001,1.1 C16.4000001,0.850000004 16.2000001,0.700000003 16.0000001,0.700000003 Z"/>
      <path fill="#000" fill-rule="nonzero" d="M16.9000001,7.45000003 L16.9000001,1.1 C16.9000001,0.600000002 16.5,0.200000001 16,0.200000001 L8.55000004,0.200000001 C8.05000003,0.200000001 7.65000003,0.600000002 7.65000003,1.1 L7.65000003,7.15000003 C7.55000003,7.05000003 7.45000003,7.00000003 7.40000003,6.85000003 L6.55000003,5.35000002 C6.25000003,4.85000002 5.75000002,4.60000002 5.20000002,4.60000002 L1.55000001,4.60000002 C0.700000003,4.60000002 0,5.30000002 0,6.15000003 L0,15.2500001 C0,16.1000001 0.700000003,16.8000001 1.55000001,16.8000001 L16.5,16.8000001 C17.3500001,16.8000001 18.0500001,16.1000001 18.0500001,15.2500001 L18.0500001,8.95000004 C18,8.25000003 17.5500001,7.65000003 16.9000001,7.45000003 Z M8.20000003,13.3000001 L2.40000001,13.3000001 C2.25000001,13.3000001 2.15000001,13.2000001 2.15000001,13.0500001 C2.15000001,12.9000001 2.25000001,12.8000001 2.40000001,12.8000001 L8.25000003,12.8000001 C8.40000004,12.8000001 8.50000004,12.9000001 8.50000004,13.0500001 C8.50000004,13.2000001 8.35000003,13.3000001 8.20000003,13.3000001 Z M8.20000003,11.7 L2.40000001,11.7 C2.25000001,11.7 2.15000001,11.6 2.15000001,11.45 C2.15000001,11.3 2.25000001,11.2 2.40000001,11.2 L8.25000003,11.2 C8.40000004,11.2 8.50000004,11.3 8.50000004,11.45 C8.50000004,11.6 8.35000003,11.7 8.20000003,11.7 Z M16.4000001,7.40000003 L8.35000003,7.40000003 C8.30000003,7.40000003 8.25000003,7.40000003 8.20000003,7.40000003 L8.20000003,1.1 C8.20000003,0.900000004 8.40000003,0.700000003 8.60000004,0.700000003 L16.0000001,0.700000003 C16.2,0.700000003 16.4000001,0.900000004 16.4000001,1.1 L16.4000001,7.40000003 Z"/>
      <path fill="#000" fill-rule="nonzero" d="M12.4500001,3.95000002 L11.95,3.95000002 C11.7,3.95000002 11.5,3.75000002 11.5,3.50000001 C11.5,3.25000001 11.7,3.05000001 11.95,3.05000001 L13.2000001,3.05000001 C13.3500001,3.05000001 13.4500001,2.95000001 13.4500001,2.80000001 C13.4500001,2.65000001 13.3000001,2.50000001 13.1500001,2.50000001 L12.4,2.50000001 L12.4,2.15000001 C12.4,2.00000001 12.3000001,1.90000001 12.1500001,1.90000001 C12,1.90000001 11.9,2.00000001 11.9,2.15000001 L11.9,2.50000001 L11.9,2.50000001 C11.35,2.50000001 10.95,2.95000001 10.95,3.45000001 C10.95,3.95000002 11.4,4.40000001 11.9,4.40000001 L12.4,4.40000001 C12.6500001,4.40000001 12.8500001,4.60000002 12.8500001,4.85000002 C12.8500001,5.10000002 12.6500001,5.30000002 12.4,5.30000002 L11.15,5.30000002 C11,5.30000002 10.9,5.40000001 10.9,5.55000002 C10.9,5.70000002 11,5.80000002 11.15,5.80000002 L11.9,5.80000002 L11.9,6.15000003 C11.9,6.30000003 12,6.40000001 12.1500001,6.40000001 C12.3000001,6.40000001 12.4,6.30000003 12.4,6.15000003 L12.4,5.80000002 L12.4,5.80000002 C12.9500001,5.80000002 13.3500001,5.35000002 13.3500001,4.85000002 C13.3500001,4.35000002 13.0000001,3.95000002 12.4500001,3.95000002 Z"/>
    </g>
    <rect width="24" height="24"/>
  </g>
</svg>
