<svg xmlns="http://www.w3.org/2000/svg" width="24" height="24" viewBox="0 0 24 24">
  <g fill="none" fill-rule="evenodd">
    <rect width="24" height="24"/>
    <rect width="3.905" height="10.42" x="3.125" y="10.24" fill="#CCC" fill-rule="nonzero" rx="1.953"/>
    <path fill="#1A1A1A" fill-rule="nonzero" d="M5.61500002,20.9100001 L4.54500002,20.9100001 C3.62463358,20.9100001 2.8777556,20.1653624 2.87500001,19.2450001 L2.87500001,11.655 C2.88323195,10.7385477 3.62851073,10 4.54500002,10 L5.61500002,10 C6.53341445,10.0027457 7.27725438,10.7465856 7.28000003,11.665 L7.28000003,19.2450001 C7.28000003,19.6865855 7.10458089,20.1100848 6.79233282,20.4223329 C6.48008475,20.7345809 6.05658548,20.9100001 5.61500002,20.9100001 Z M4.54500002,10.5 C3.90077445,10.5 3.37775311,11.0207804 3.37500001,11.665 L3.37500001,19.2450001 C3.37500001,19.5548456 3.498424,19.8519281 3.71798648,20.0705523 C3.93754896,20.2891765 4.2351574,20.4113299 4.54500002,20.4100108 L5.61500002,20.4100108 C6.25841176,20.4100108 6.78000003,19.8884118 6.78000003,19.2450001 L6.78000003,11.655 C6.77451053,11.015497 6.25452666,10.5 5.61500002,10.5 L4.54500002,10.5 Z"/>
    <rect width="3.905" height="13.235" x="10.12" y="7.425" fill="#CCC" fill-rule="nonzero" rx="1.953"/>
    <path fill="#1A1A1A" fill-rule="nonzero" d="M12.6100001,20.9100001 L11.54,20.9100001 C10.6196336,20.9100001 9.87275563,20.1653624 9.87000004,19.2450001 L9.87000004,8.84500004 C9.87274574,7.9238242 10.6188242,7.17774573 11.54,7.17500003 L12.6100001,7.17500003 C13.5303624,7.17775562 14.2750001,7.9246336 14.2750001,8.84500004 L14.2750001,19.2450001 C14.2750001,19.6865855 14.0995809,20.1100848 13.7873328,20.4223329 C13.4750848,20.7345809 13.0515855,20.9100001 12.6100001,20.9100001 Z M11.54,7.67500003 C10.8938269,7.67500003 10.37,8.19882688 10.37,8.84500004 L10.37,19.2450001 C10.37,19.5548456 10.493424,19.8519281 10.7129865,20.0705523 C10.932549,20.2891765 11.2301574,20.4113299 11.54,20.4100108 L12.6100001,20.4100108 C12.9189773,20.4100108 13.2152996,20.2872594 13.4337795,20.0687795 C13.6522593,19.8502996 13.7750001,19.5539773 13.7750001,19.2450001 L13.7750001,8.84500004 C13.7750001,8.20077447 13.2542197,7.67775313 12.6100001,7.67500003 L11.54,7.67500003 Z"/>
    <rect width="3.905" height="8.125" x="17.135" y="12.54" fill="#CCC" fill-rule="nonzero" rx="1.953"/>
    <path fill="#1A1A1A" fill-rule="nonzero" d="M19.6200001,20.9100001 L18.5500001,20.9100001 C17.630446,20.9100001 16.8850001,20.1645542 16.8850001,19.2450001 L16.8850001,13.9550001 C16.8877457,13.0365856 17.6315857,12.2927457 18.5500001,12.2900001 L19.6200001,12.2900001 C20.5403665,12.2900001 21.2872445,13.0346377 21.2900001,13.9550001 L21.2900001,19.2450001 C21.2872445,20.1653624 20.5403665,20.9100001 19.6200001,20.9100001 Z M18.5500001,12.7900001 C17.9077263,12.792739 17.387739,13.3127263 17.3850001,13.9550001 L17.3850001,19.2450001 C17.3850001,19.8884118 17.9065883,20.4100108 18.5500001,20.4100108 L19.6200001,20.4100108 C19.9298427,20.4113299 20.2274511,20.2891765 20.4470136,20.0705523 C20.6665761,19.8519281 20.7900001,19.5548456 20.7900001,19.2450001 L20.7900001,13.9550001 C20.787247,13.3107804 20.2642256,12.7900001 19.6200001,12.7900001 L18.5500001,12.7900001 Z"/>
    <path fill="#000" fill-rule="nonzero" d="M19.0850001,8.22000003 C18.9590893,8.22265166 18.8576517,8.32408924 18.8550001,8.45000004 L18.8550001,9.85000004 L13.0900001,3.66000002 C12.5214589,3.04486728 11.5924649,2.92874302 10.89,3.38500001 L4.93000002,7.21500003 C4.82618638,7.28668856 4.79559942,7.42651464 4.86000002,7.53500003 C4.9317368,7.63933745 5.07324087,7.66808046 5.18000002,7.60000003 L11.14,3.77000002 C11.6620152,3.44081076 12.345638,3.53816881 12.7550001,4.00000002 L18.5350001,10.18 L17.1750001,10.18 C17.1135874,10.1786195 17.0542805,10.2024079 17.0108442,10.2458442 C16.967408,10.2892804 16.9436195,10.3485874 16.9450001,10.41 C16.9450001,10.5370255 17.0479746,10.64 17.1750001,10.64 L19.0850001,10.64 C19.2120256,10.64 19.3150001,10.5370255 19.3150001,10.41 L19.3150001,8.45000004 C19.3150001,8.32297454 19.2120256,8.22000003 19.0850001,8.22000003 Z"/>
  </g>
</svg>
