<svg xmlns="http://www.w3.org/2000/svg" width="24" height="24" viewBox="0 0 24 24">
  <g fill="none" fill-rule="evenodd">
    <rect width="24" height="24"/>
    <polyline fill="#CCC" fill-rule="nonzero" points="3.15 8.9 12.085 20 21.02 8.9"/>
    <path fill="#000" fill-rule="nonzero" d="M12.0850001,20.2500035 C12.0087592,20.2503996 11.9366777,20.215283 11.89,20.1550001 L2.95500001,9.06000004 C2.87051583,8.94923952 2.89055185,8.79117758 3.00000001,8.70500004 C3.1078425,8.61991082 3.26413653,8.63777299 3.35000001,8.74500004 L12.0850001,19.6000001 L20.8250001,8.74500004 C20.9108636,8.63777299 21.0671576,8.61991082 21.1750001,8.70500004 C21.282846,8.79266113 21.300635,8.95053829 21.2150001,9.06000004 L12.2800001,20.1550001 C12.2323795,20.2141117 12.1608998,20.2489351 12.0850001,20.2500035 Z"/>
    <polygon fill="#CCC" fill-rule="nonzero" points="21.02 8.9 3.15 8.9 6.3 4.085 17.87 4.085"/>
    <path fill="#000" fill-rule="nonzero" d="M21.0000001,9.15000004 L3.15000001,9.15000004 C3.05431156,9.14529713 2.9693332,9.08735734 2.93000001,9.00000004 C2.88545547,8.92083597 2.88545547,8.82416411 2.93000001,8.74500004 L6.08000003,3.93000002 C6.12522733,3.85774411 6.20476054,3.81419021 6.29000003,3.81498892 L17.8700001,3.81498892 C17.9552396,3.81419021 18.0347728,3.85774411 18.0800001,3.93000002 L21.2300001,8.74500004 C21.2777203,8.82330233 21.2777203,8.92169775 21.2300001,9.00000004 C21.1890978,9.09053375 21.0993403,9.14907125 21.0000001,9.15000004 Z M3.59500001,8.65000004 L20.5550001,8.65000004 L17.7350001,4.33500002 L6.43500003,4.33500002 L3.59500001,8.65000004 Z"/>
    <path fill="#000" fill-rule="nonzero" d="M12.1150001,20.1750047 C12.0052619,20.1756646 11.9079201,20.1046862 11.875,20.0000001 L8.22000003,9.00000004 C8.19539577,8.92137322 8.21029485,8.83570347 8.26000003,8.77000004 L11.885,3.95500002 C11.9343966,3.8955336 12.0076937,3.86113249 12.0850001,3.86113249 C12.1623064,3.86113249 12.2356035,3.8955336 12.2850001,3.95500002 L15.9100001,8.77000004 C15.9597052,8.83570347 15.9746043,8.92137322 15.9500001,9.00000004 L12.3650001,19.7200001 L12.3650001,19.9250001 C12.3616966,20.0477908 12.2713216,20.1507763 12.1500001,20.1700001 L12.1150001,20.1750047 Z M8.73500004,8.95000004 L12.0750001,19 L15.4350001,8.95000004 L12.0850001,4.50000002 L8.73500004,8.95000004 Z"/>
  </g>
</svg>
