<svg xmlns="http://www.w3.org/2000/svg" width="24" height="24" viewBox="0 0 24 24">
  <g fill="none" fill-rule="evenodd">
    <rect width="24" height="24"/>
    <path fill="#000" fill-rule="nonzero" d="M12,3.00000001 C7.05000003,3.00000001 3.00000001,7.05000003 3.00000001,12 C3.00000001,16.9500001 7.05000003,21 12,21 C16.9500001,21 21,16.9500001 21,12 C21,7.05000003 16.9500001,3.00000001 12,3.00000001 Z M11.25,11.75 L12.8000001,11.75 C14.1000001,11.75 15.1500001,12.8000001 15.1500001,14.1000001 C15.1500001,15.4000001 14.1000001,16.4500001 12.8000001,16.4500001 L12.3000001,16.4500001 C12.3000001,16.4500001 12.3000001,16.4500001 12.3000001,16.4500001 L12.3000001,17.9500001 C12.3000001,18.1000001 12.2000001,18.2000001 12.0500001,18.2000001 C11.9,18.2000001 11.8,18.1000001 11.8,17.9500001 L11.8,16.4500001 C11.8,16.4500001 11.8,16.4500001 11.8,16.4500001 L9.15000004,16.4500001 C9.00000004,16.4500001 8.90000004,16.3500001 8.90000004,16.2000001 C8.90000004,16.0500001 9.00000004,15.9500001 9.15000004,15.9500001 L12.8000001,15.9500001 C13.8500001,15.9500001 14.6500001,15.1000001 14.6500001,14.1000001 C14.6500001,13.1000001 13.8000001,12.25 12.8000001,12.25 L11.25,12.25 C9.95000004,12.25 8.90000004,11.2 8.90000004,9.90000004 C8.90000004,8.60000004 9.95000004,7.55000003 11.25,7.55000003 L11.75,7.55000003 L11.75,6.00000003 C11.75,5.85000002 11.85,5.75000002 12,5.75000002 C12.1500001,5.75000002 12.2500001,5.85000002 12.2500001,6.00000003 L12.2500001,7.55000003 L14.9,7.55000003 C15.0500001,7.55000003 15.1500001,7.65000003 15.1500001,7.80000003 C15.1500001,7.95000003 15.0500001,8.05000003 14.9,8.05000003 L11.25,8.05000003 C10.2,8.05000003 9.40000004,8.90000004 9.40000004,9.90000004 C9.40000004,10.9 10.2,11.75 11.25,11.75 Z"/>
  </g>
</svg>
