<svg xmlns="http://www.w3.org/2000/svg" width="24" height="24" viewBox="0 0 24 24">
  <g fill="none" fill-rule="evenodd">
    <rect width="24" height="24"/>
    <path fill="#CCC" fill-rule="nonzero" d="M14.3750001,3.92500002 C13.0022154,2.95561549 11.1677847,2.95561549 9.79500004,3.92500002 C6.78990679,6.0916474 5.02130725,9.58039171 5.05000002,13.2850001 L5.05000002,13.9350001 C5.05000002,17.9350001 8.15500003,21.1950001 11.99,21.1950001 L12.1850001,21.1950001 C16.0200001,21.1950001 19.1250001,17.9450001 19.1250001,13.9350001 L19.1250001,13.2850001 C19.1516992,9.57968154 17.3813295,6.09112134 14.3750001,3.92500002 Z"/>
    <path fill="#000" fill-rule="nonzero" d="M12.1850001,21.4450001 L12,21.4450001 C8.03500003,21.4450001 4.81000002,18.0750001 4.81000002,13.9450001 L4.81000002,13.2950001 C4.77981839,9.5072203 6.58525496,5.93920067 9.65500004,3.72000002 C11.1130151,2.68968289 13.061985,2.68968289 14.5200001,3.72000002 C17.5906369,5.93498103 19.3996239,9.4989275 19.3750001,13.2850001 L19.3750001,13.9350001 C19.3750001,18.0750001 16.1500001,21.4450001 12.1850001,21.4450001 Z M12.0850001,3.44499953 C11.3164042,3.4462591 10.5670666,3.68555806 9.94000004,4.13000002 C7.00378855,6.25170023 5.27509117,9.66252449 5.30000002,13.2850001 L5.30000002,13.9350001 C5.30000002,17.8000001 8.30000003,20.9350001 11.99,20.9350001 L12.1400001,20.9350001 C15.9325232,20.8611533 18.9474979,17.7275492 18.8750001,13.9350001 L18.8750001,13.2850001 C18.9004253,9.66122463 17.1694078,6.2494992 14.2300001,4.13000002 C13.6036808,3.68406238 12.8538537,3.4446071 12.0850001,3.44499953 Z"/>
    <path fill="#000" fill-rule="nonzero" d="M12.6100001,15.9350001 L10.11,15.9350001 C9.97192885,15.9350001 9.86000004,15.8230713 9.86000004,15.6850001 C9.86000004,15.5469289 9.97192885,15.4350001 10.11,15.4350001 L12.6100001,15.4350001 C13.0599429,15.4639684 13.4886738,15.240365 13.7224269,14.8548169 C13.9561799,14.4692689 13.9561799,13.9857312 13.7224269,13.6001832 C13.4886738,13.2146351 13.0599429,12.9910317 12.6100001,13.0200001 L11.555,13.0200001 C10.6478371,12.9708924 9.93743245,12.2209912 9.93743245,11.3125 C9.93743245,10.4040089 10.6478371,9.65410766 11.555,9.60500004 L14.0550001,9.60500004 C14.1930712,9.60500004 14.3050001,9.71692885 14.3050001,9.85500004 C14.30234,9.99195427 14.1919543,10.10234 14.0550001,10.105 L11.555,10.105 C10.9182364,10.1459963 10.4227416,10.674418 10.4227416,11.3125 C10.4227416,11.9505821 10.9182364,12.4790038 11.555,12.5200001 L12.6100001,12.5200001 C13.2420787,12.4857836 13.8413509,12.8035411 14.1676832,13.3459445 C14.4940156,13.8883478 14.4940156,14.5666523 14.1676832,15.1090556 C13.8413509,15.651459 13.2420787,15.9692165 12.6100001,15.9350001 L12.6100001,15.9350001 Z"/>
    <path fill="#000" fill-rule="nonzero" d="M12.0850001 10.105C11.9469289 10.105 11.835 9.99307123 11.835 9.85500004L11.835 8.63000004C11.835 8.49192885 11.9469289 8.38000003 12.0850001 8.38000003 12.2230712 8.38000003 12.335 8.49192885 12.335 8.63000004L12.335 9.85500004C12.33234 9.99195427 12.2219543 10.10234 12.0850001 10.105L12.0850001 10.105zM12.0850001 17.1600001C11.9469289 17.1600001 11.835 17.0480713 11.835 16.9100001L11.835 15.8600001C11.835 15.7219289 11.9469289 15.6100001 12.0850001 15.6100001 12.2230712 15.6100001 12.335 15.7219289 12.335 15.8600001L12.335 16.9100001C12.33234 17.0469543 12.2219543 17.15734 12.0850001 17.1600001L12.0850001 17.1600001z"/>
  </g>
</svg>
