<svg xmlns="http://www.w3.org/2000/svg" width="24" height="24" viewBox="0 0 24 24">
  <g fill="none" fill-rule="evenodd">
    <path fill="#000" fill-rule="nonzero" d="M14.3000001,3.75000002 C12.95,2.80000001 11.1,2.80000001 9.70000004,3.75000002 C6.85000003,5.80000002 4.95000002,9.20000004 4.95000002,13.1000001 L4.95000002,13.7500001 C4.95000002,17.7500001 8.05000003,21.0000001 11.9,21.0000001 L11.9,21.0000001 C11.95,21.0000001 11.95,21.0000001 12.0000001,21.0000001 C12.0500001,21.0000001 12.0500001,21.0000001 12.1000001,21.0000001 L12.1000001,21.0000001 C15.95,21.0000001 19.0500001,17.7500001 19.0500001,13.7500001 L19.0500001,13.1000001 C19.0500001,9.20000004 17.1500001,5.75000002 14.3000001,3.75000002 Z M11.45,12.3000001 L12.5000001,12.3000001 C13.4500001,12.3000001 14.2000001,13.0500001 14.2000001,14.0000001 C14.2000001,14.9500001 13.4500001,15.7000001 12.5000001,15.7000001 L12.2000001,15.7000001 L12.2000001,16.7000001 C12.2000001,16.8500001 12.1000001,16.9500001 11.95,16.9500001 C11.8,16.9500001 11.7,16.8500001 11.7,16.7000001 L11.7,15.7000001 L10,15.7000001 C9.85000004,15.7000001 9.75000004,15.6000001 9.75000004,15.4500001 C9.75000004,15.3000001 9.85000004,15.2000001 10,15.2000001 L12.5000001,15.2000001 C13.1500001,15.2000001 13.7000001,14.65 13.7000001,14.0000001 C13.7000001,13.3500001 13.1500001,12.8000001 12.5000001,12.8000001 L11.45,12.8000001 C10.5,12.8000001 9.75000004,12.0500001 9.75000004,11.1 C9.75000004,10.15 10.5,9.40000004 11.45,9.40000004 L11.75,9.40000004 L11.75,8.40000004 C11.75,8.25000003 11.85,8.15000003 12,8.15000003 C12.1500001,8.15000003 12.25,8.25000003 12.25,8.40000004 L12.25,9.40000004 L14.0000001,9.40000004 C14.1500001,9.40000004 14.25,9.50000004 14.25,9.65000003 C14.25,9.80000004 14.1500001,9.90000004 14.0000001,9.90000004 L11.5,9.90000004 C10.85,9.90000004 10.3,10.45 10.3,11.1 C10.3,11.75 10.8,12.3000001 11.45,12.3000001 Z"/>
    <rect width="24" height="24"/>
  </g>
</svg>
