<svg xmlns="http://www.w3.org/2000/svg" width="24" height="24" viewBox="0 0 24 24">
  <g fill="none" fill-rule="evenodd">
    <path fill="#000" fill-rule="nonzero" d="M12,3.00000001 C7.05000003,3.00000001 3.00000001,7.00000001 3.00000001,12 C3.00000001,17 7.00000001,21 12,21 C17,21 21,17 21,12 C21,7.00000001 16.9500001,3.00000001 12,3.00000001 Z M8.55000004,6.05000003 C9.50000004,5.35000002 10.7,4.95000002 12,4.95000002 C13.3000001,4.95000002 14.5000001,5.35000002 15.4500001,6.05000003 C15.8500001,6.35000003 15.9000001,6.90000003 15.5500001,7.25000003 L14.5500001,8.25000003 C14.3000001,8.50000004 13.9000001,8.55000004 13.6000001,8.35000003 C13.1500001,8.05000003 12.6000001,7.90000003 12,7.90000003 C11.4,7.90000003 10.85,8.05000003 10.4,8.35000003 C10.1,8.55000004 9.70000004,8.50000004 9.45000004,8.25000003 L8.45000004,7.25000003 C8.10000003,6.90000003 8.15000003,6.30000003 8.55000004,6.05000003 Z M10,16.4000001 L9.65000004,17.7500001 C9.55000004,18.2000001 9.05000004,18.4500001 8.60000004,18.3000001 C7.50000003,17.8500001 6.55000003,17.0500001 5.85000002,15.9000001 C5.15000002,14.7500001 4.95000002,13.5500001 5.05000002,12.3500001 C5.10000002,11.85 5.55000002,11.55 6.00000002,11.65 L7.35000003,12.0000001 C7.70000003,12.1000001 7.95000003,12.4000001 7.95000003,12.8000001 C7.95000003,13.3500001 8.05000003,13.9000001 8.35000003,14.4000001 C8.65000004,14.9000001 9.10000004,15.3000001 9.55000004,15.5000001 C9.90000004,15.6500001 10.05,16.0500001 10,16.4000001 Z M12,13.6500001 C11.1,13.6500001 10.35,12.9000001 10.35,12 C10.35,11.1 11.1,10.35 12,10.35 C12.9000001,10.35 13.6500001,11.1 13.6500001,12 C13.6500001,12.9000001 12.9000001,13.6500001 12,13.6500001 Z M18.1500001,15.9000001 C17.5000001,17.0000001 16.5000001,17.8000001 15.4000001,18.3000001 C14.9500001,18.5000001 14.4500001,18.2500001 14.3500001,17.7500001 L14.0000001,16.4000001 C13.9000001,16.0500001 14.1000001,15.7000001 14.4000001,15.5000001 C14.9000001,15.2500001 15.3000001,14.9000001 15.6000001,14.4000001 C15.9000001,13.9000001 16.0500001,13.3500001 16.0000001,12.8000001 C16.0000001,12.4500001 16.2500001,12.1000001 16.6000001,12 L17.9500001,11.65 C18.4000001,11.55 18.9000001,11.85 18.9000001,12.3500001 C19.1000001,13.5500001 18.8000001,14.8000001 18.1500001,15.9000001 Z"/>
    <rect width="24" height="24"/>
  </g>
</svg>
