<svg xmlns="http://www.w3.org/2000/svg" width="24" height="24" viewBox="0 0 24 24">
  <g fill="none" fill-rule="evenodd">
    <rect width="24" height="24"/>
    <g fill-rule="nonzero" transform="translate(2.5 2.5)">
      <path fill="#000" d="M9.42500004,18.7500001 C4.32319133,18.7500001 0.1868445,14.6151381 0.185005399,9.51332977 C0.183167524,4.41152139 4.31653321,0.273682368 9.41834059,0.269999949 C14.520148,0.266322442 18.6594786,4.39819432 18.6650001,9.50000004 C18.6650001,14.6047313 14.5297283,18.7444814 9.42500004,18.7500001 Z M9.42500004,0.775000003 C5.88863611,0.775000003 2.70077009,2.9060645 1.34886775,6.17382061 C-0.00303458082,9.44157671 0.747476101,13.2019806 3.25020975,15.7004189 C5.7529434,18.1988572 9.51463088,18.9429075 12.78006,17.5853941 C16.0454891,16.2278806 18.1710694,13.0363588 18.165013,9.50000004 C18.1539775,4.68003323 14.2449787,0.777743248 9.42500004,0.775000003 Z"/>
      <circle cx="9.43" cy="9.515" r="1.665"/>
      <path fill="#000" d="M9.42500004 11.4250068C8.36867966 11.4250068 7.5118581 10.5696348 7.51002608 9.51331598 7.50819993 8.45699718 8.36205417 7.59868417 9.41836817 7.59499978 10.4746822 7.59133904 11.334484 8.44369406 11.34 9.50000004 11.3440074 10.0100253 11.1438585 10.5004676 10.7841455 10.862059 10.4244324 11.2236505 9.93503928 11.426351 9.42500004 11.4250068L9.42500004 11.4250068zM9.42500004 8.10000003C8.85132788 8.10003227 8.33444391 8.44643152 8.11633683 8.97702464 7.89822976 9.50761776 8.02206592 10.1173932 8.42986914 10.5208734 8.83767236 10.9243536 9.44873288 11.0416844 9.97697152 10.8179353 10.5052102 10.5941861 10.8460814 10.07364 10.84 9.50000004 10.8317775 8.72438128 10.2006624 8.09995645 9.42500004 8.10000003L9.42500004 8.10000003zM11.44 6.19000003C11.2367308 6.18557651 11.039639 6.11929785 10.875 6.00000002 9.99462664 5.45333156 8.88037344 5.45333156 8.00000003 6.00000002 7.59272522 6.26071673 7.05919968 6.2046654 6.71500003 5.86500002L5.71500002 4.86500002C5.50219712 4.65236851 5.39298798 4.35733077 5.41606041 4.05738928 5.43913283 3.75744778 5.59218057 3.48258365 5.83500002 3.30500001 7.9738536 1.73851258 10.8811465 1.73851258 13.0200001 3.30500001 13.2628195 3.48258365 13.4158672 3.75744778 13.4389397 4.05738928 13.4620121 4.35733077 13.352803 4.65236851 13.1400001 4.86500002L12.1400001 5.86500002C11.9595551 6.0626359 11.7074214 6.17969796 11.44 6.19000003zM6.14500003 3.76500002C6.02006146 3.85757717 5.94158363 3.99993231 5.93000002 4.15500002 5.91133511 4.31078018 5.96687368 4.46628816 6.08000003 4.57500002L7.08000003 5.57500002C7.25191184 5.76044313 7.53521523 5.78834422 7.74000003 5.64000002 8.79353641 4.98012578 10.1314637 4.98012578 11.185 5.64000002 11.3897848 5.78834422 11.6730882 5.76044313 11.845 5.57500002L12.8450001 4.57500002C12.9544373 4.4636621 13.0108735 4.3107383 13.0000001 4.15500002 12.9846895 3.9998733 12.9048482 3.85833629 12.7800001 3.76500002 11.8100876 3.04566698 10.6325161 2.66133291 9.42500004 2.67000001 8.24023212 2.66914865 7.10122153 3.06568452 6.14500003 3.76500002z"/>
      <path d="M11.79,15.2450001 C11.8463664,15.4664454 11.9964262,15.6523389 12.2010003,15.7541458 C12.4055745,15.8559526 12.6443554,15.8635667 12.8550001,15.7750001 C15.1906553,14.7798435 16.6198301,12.3938483 16.3950001,9.86500004 C16.3739996,9.6372488 16.2547139,9.42998233 16.0683396,9.2974068 C15.8819653,9.16483127 15.6470388,9.12013233 15.4250001,9.17500004 L14.0800001,9.50000004 C13.721638,9.59251118 13.4787005,9.92550311 13.5000001,10.295 C13.5297604,11.4385226 12.8913065,12.4948026 11.865,13.0000001 C11.5346181,13.1595743 11.361405,13.5289564 11.45,13.8850001 L11.79,15.2450001 Z"/>
      <path fill="#000" d="M12.5500001,16.0850036 C12.3890763,16.0854126 12.2301321,16.0495219 12.0850001,15.9800001 C11.81516,15.8445363 11.6179267,15.5979946 11.545,15.3050001 L11.545,15.3050001 L11.21,13.9600001 C11.0924805,13.4902245 11.3197637,13.0022953 11.755,12.7900001 C12.2134095,12.5702608 12.5987852,12.2230754 12.8650001,11.79 C13.1292635,11.3480983 13.261151,10.8396373 13.2450001,10.325 C13.2034627,9.8356495 13.5234161,9.38856232 14.0000001,9.27000004 L15.3450001,8.93000004 C15.6373894,8.85718799 15.9469998,8.91606119 16.1922581,9.0911083 C16.4375164,9.2661554 16.5938246,9.53982014 16.6200001,9.84000004 C16.8616078,12.471857 15.3795014,14.9595344 12.9500001,16.0000001 C12.8239452,16.0555841 12.687765,16.0845224 12.5500001,16.0850036 L12.5500001,16.0850036 Z M12.0500001,15.1850001 C12.0895053,15.3348499 12.1914863,15.460505 12.3300001,15.5300001 C12.4711494,15.595288 12.6338507,15.595288 12.7750001,15.5300001 C15.0122147,14.5773851 16.3810421,12.2919684 16.1650001,9.87000004 C16.1509361,9.71460828 16.0684837,9.57352313 15.9400001,9.48500004 C15.8153193,9.39216359 15.6545524,9.36259725 15.5050001,9.40500004 L14.1600001,9.74000004 C13.9136795,9.79202938 13.7444597,10.0190838 13.7650001,10.27 C13.8139383,11.5214633 13.1226166,12.6847639 12,13.2400001 C11.7686435,13.3407001 11.6485703,13.5979998 11.72,13.8400001 L12.0500001,15.1850001 Z"/>
      <path d="M7.06500003,15.2450001 C7.00863365,15.4664454 6.85857392,15.6523389 6.65399976,15.7541458 C6.44942561,15.8559526 6.21064468,15.8635667 6.00000002,15.7750001 C3.66434479,14.7798435 2.23516999,12.3938483 2.46000001,9.86500004 C2.48100048,9.6372488 2.6002862,9.42998233 2.78666049,9.2974068 C2.97303478,9.16483127 3.20796132,9.12013233 3.43000001,9.17500004 L4.77500002,9.51000004 C5.13150992,9.59978888 5.37587686,9.92770007 5.36000002,10.295 C5.33115834,11.4396596 5.9717472,12.4962406 7.00000003,13.0000001 C7.330382,13.1595743 7.50359508,13.5289564 7.41500003,13.8850001 L7.06500003,15.2450001 Z"/>
      <path fill="#000" d="M6.31000003,16.0850001 C6.17097151,16.0860768 6.03317721,16.0588582 5.90500002,16.0050001 C3.46575137,14.9704814 1.97425997,12.4785995 2.21500001,9.84000004 C2.24063354,9.53756454 2.3983545,9.26183139 2.64605308,9.08641839 C2.89375167,8.91100538 3.20620815,8.8537724 3.50000001,8.93000004 L4.84500002,9.27000004 C5.31666735,9.3877019 5.64182402,9.81915979 5.62500002,10.305 C5.58443732,11.3622004 6.17308789,12.3432846 7.12500003,12.8050001 C7.56023633,13.0172953 7.78751958,13.5052245 7.67000003,13.9750001 L7.33500003,15.3200001 C7.25782061,15.6197474 7.05053821,15.86922 6.77000003,16.0000001 C6.624861,16.0620742 6.4677379,16.0911079 6.31000003,16.0850001 L6.31000003,16.0850001 Z M3.24000001,9.39997535 C3.13010623,9.39890828 3.02291395,9.43405329 2.93500001,9.50000004 C2.80651633,9.58852313 2.72406397,9.72960828 2.71000001,9.88500004 C2.49395799,12.3069684 3.86278536,14.5923851 6.10000003,15.5450001 C6.24114934,15.610288 6.40385071,15.610288 6.54500003,15.5450001 C6.68351379,15.475505 6.78549473,15.3498499 6.82500003,15.2000001 L7.16000003,13.8550001 C7.23142977,13.6129998 7.11135657,13.3557001 6.88000003,13.2550001 C6.33282918,12.9846147 5.87470931,12.5629362 5.56000002,12.0400001 C5.2456903,11.5155841 5.09105041,10.9109248 5.11500002,10.3 C5.12450472,10.0507419 4.95731019,9.82920919 4.71500002,9.77000004 L3.37000001,9.43500004 C3.32902323,9.41588564 3.28503462,9.40404255 3.24000001,9.39997535 Z"/>
    </g>
  </g>
</svg>
