<svg xmlns="http://www.w3.org/2000/svg" width="24" height="24" viewBox="0 0 24 24">
  <g fill="none" fill-rule="evenodd">
    <rect width="24" height="24"/>
    <path fill="#000" fill-rule="nonzero" d="M12,3.00000001 C7.05000003,3.00000001 3.00000001,7.05000003 3.00000001,12 C3.00000001,16.9500001 7.05000003,21 12,21 C16.9500001,21 21,16.9500001 21,12 C21,7.05000003 16.9500001,3.00000001 12,3.00000001 Z M12,10.1 C12.1500001,10.1 12.25,10.2 12.25,10.35 C12.25,10.5 12.1500001,10.6 12,10.6 L9.25000003,10.6 L9.25000003,13.3500001 L12,13.3500001 C12.1500001,13.3500001 12.25,13.4500001 12.25,13.6000001 C12.25,13.7500001 12.1500001,13.8500001 12,13.8500001 L9.25000003,13.8500001 L9.25000003,15.0500001 C9.25000003,16.5500001 10.5,17.8 12,17.8 C13.5000001,17.8 14.75,16.5500001 14.75,15.0500001 C14.75,14.9000001 14.8500001,14.8 15.0000001,14.8 C15.1500001,14.8 15.25,14.9000001 15.25,15.0500001 C15.25,16.8500001 13.8000001,18.3 12,18.3 C10.2,18.3 8.75000003,16.8500001 8.75000003,15.0500001 L8.75000003,13.8500001 L6.50000003,13.8500001 C6.35000003,13.8500001 6.25000003,13.7500001 6.25000003,13.6000001 C6.25000003,13.4500001 6.35000003,13.3500001 6.50000003,13.3500001 L8.75000003,13.3500001 L8.75000003,10.6 L6.50000003,10.6 C6.35000003,10.6 6.25000003,10.5 6.25000003,10.35 C6.25000003,10.2 6.35000003,10.1 6.50000003,10.1 L8.75000003,10.1 L8.75000003,9.05000004 C8.75000003,7.25000003 10.2,5.80000002 12,5.80000002 C13.8000001,5.80000002 15.25,7.25000003 15.25,9.05000004 C15.25,9.20000004 15.1500001,9.30000002 15.0000001,9.30000002 C14.8500001,9.30000002 14.75,9.20000004 14.75,9.05000004 C14.75,7.55000003 13.5000001,6.30000002 12,6.30000002 C10.5,6.30000002 9.25000003,7.55000003 9.25000003,9.05000004 L9.25000003,10.1 L12,10.1 Z"/>
  </g>
</svg>
