<svg xmlns="http://www.w3.org/2000/svg" width="24" height="24" viewBox="0 0 24 24">
  <g fill="none" fill-rule="evenodd">
    <path fill="#000" fill-rule="nonzero" d="M12,2.89500001 C7.77000003,2.89500001 3.40000001,4.01000002 3.40000001,5.89500001 C3.40638931,6.16445543 3.49734558,6.42508011 3.66000002,6.64000003 C3.66697033,6.65983044 3.67710105,6.67840343 3.69000002,6.69500003 L3.80000002,6.82000003 L3.84500002,6.87500003 L9.84500004,13.7750001 C10.0332459,13.9891426 10.1364264,14.2648834 10.135,14.5500001 L10.135,20.2000001 C10.1335773,20.5169235 10.2962559,20.8120149 10.565,20.9800001 C10.828306,21.1560568 11.1653407,21.1789067 11.45,21.0400001 L13.6700001,20.0000001 C13.9967092,19.8480906 14.2054814,19.5202988 14.2050001,19.1600001 L14.2050001,14.2750001 C14.2067851,13.9895688 14.311537,13.7143732 14.5000001,13.5000001 L20.1200001,6.88500003 L20.1200001,6.88500003 C20.4047834,6.62844453 20.5742023,6.26797873 20.5900172,5.88500002 C20.6000001,4.00000002 16.2300001,2.89500001 12,2.89500001 Z M14.1100001,13.1800001 C13.8495894,13.4855231 13.7060702,13.8735565 13.7050001,14.2750001 L13.7050001,19.1350001 C13.7050001,19.3000138 13.6094831,19.4501119 13.4600001,19.5200001 L11.225,20.5600001 C11.0996926,20.6323464 10.9453075,20.6323464 10.82,20.5600001 C10.6950388,20.4831619 10.6192227,20.346693 10.62,20.2000001 L10.62,14.5250001 C10.6212496,14.1183466 10.4736329,13.725295 10.205,13.4200001 L5.28500002,7.75000003 C6.95500003,8.45000004 9.50000004,8.84500004 12,8.84500004 C14.5000001,8.84500004 17.0750001,8.44500004 18.7400001,7.73500003 L14.1100001,13.1800001 Z M12.0000001,8.34500003 C7.22500003,8.34500003 3.90000002,7.04000003 3.90000002,5.84500002 C3.90000002,4.65000002 7.22500003,3.39500001 12.0000001,3.39500001 C16.7750001,3.39500001 20.1000001,4.70000002 20.1000001,5.89500001 C20.1000001,7.09000003 16.7750001,8.34500003 12.0000001,8.34500003 Z"/>
    <rect width="24" height="24"/>
  </g>
</svg>
