<svg xmlns="http://www.w3.org/2000/svg" width="24" height="24" viewBox="0 0 24 24">
  <g fill="none" fill-rule="evenodd">
    <path fill="#000" fill-rule="nonzero" d="M20.3500001,5.85000002 C20.3500001,4.35000002 16.6000001,3.15000001 12,3.15000001 C7.40000003,3.15000001 3.65000002,4.35000002 3.65000002,5.85000002 C3.65000002,6.05000003 3.75000002,6.30000003 3.90000002,6.50000003 L3.90000002,6.50000003 L4.00000002,6.60000003 C4.00000002,6.65000001 4.00000002,6.65000001 4.05000002,6.70000003 L10,13.6000001 C10.25,13.8500001 10.35,14.2000001 10.35,14.5500001 L10.35,20.2000001 C10.35,20.7000001 10.85,21.0000001 11.3,20.8000001 L13.5500001,19.7500001 C13.8000001,19.65 13.9500001,19.4000001 13.9500001,19.15 L13.9500001,14.3000001 C13.9500001,13.9500001 14.0500001,13.65 14.3000001,13.3500001 L19.9500001,6.75000003 L19.9500001,6.75000003 C20.2000001,6.45000003 20.3500001,6.15000001 20.3500001,5.85000002 Z"/>
    <rect width="24" height="24"/>
  </g>
</svg>
