<svg xmlns="http://www.w3.org/2000/svg" width="24" height="24" viewBox="0 0 24 24">
  <g fill="none" fill-rule="evenodd">
    <path fill="#000" fill-rule="nonzero" d="M19.4700001,7.06000003 L16.8150001,7.06000003 C17.3030533,6.66125744 17.5873146,6.06522572 17.5900001,5.43500002 L17.5900001,5.27500002 C17.5872504,4.03902292 16.5859772,3.03774969 15.3500001,3.03500001 L14.0650001,3.03500001 C13.1864036,3.03883049 12.3860453,3.54075006 12.0000001,4.33000002 C11.6139548,3.54075006 10.8135965,3.03883049 9.93500004,3.03500001 L8.65000004,3.03500001 C7.41402294,3.03774969 6.41274971,4.03902292 6.41000003,5.27500002 L6.41000003,5.43500002 C6.41268549,6.06522572 6.69694677,6.66125744 7.18500003,7.06000003 L4.53000002,7.06000003 C4.055721,7.05999817 3.60093989,7.24874633 3.26604335,7.58458095 C2.93114681,7.92041558 2.7436715,8.37572288 2.744993,8.85000004 L2.744993,11 C2.744993,11.1380712 2.85692882,11.25 2.99500001,11.25 L4.13500002,11.25 L4.13500002,19.1750001 C4.13500002,20.1635898 4.93641032,20.9650001 5.92500002,20.9650001 L18.0750001,20.9650001 C19.0635898,20.9650001 19.8650001,20.1635898 19.8650001,19.1750001 L19.8650001,11.235 L21.0000001,11.235 C21.1380713,11.235 21.2500071,11.1230712 21.2500071,10.985 L21.2500071,8.85000004 C21.251328,8.37658804 21.0645384,7.92203844 20.7307233,7.58634792 C20.3969081,7.25065739 19.9434121,7.06132426 19.4700001,7.06000003 Z M10.2,20.4650001 L5.92500002,20.4650001 C5.21255269,20.4650001 4.63500002,19.8874474 4.63500002,19.1750001 L4.63500002,11.235 L10.2,11.235 L10.2,20.4650001 Z M10.2,10.735 L3.24500001,10.735 L3.24500001,8.85000004 C3.24500001,8.13950077 3.81950609,7.5627539 4.53000002,7.56000003 L10.2,7.56000003 L10.2,10.735 Z M8.54000004,7.06000003 C7.6417249,7.06000003 6.91275547,6.33327093 6.91000003,5.43500002 L6.91000003,5.27500002 C6.91000003,4.81352333 7.09332093,4.37094752 7.41963423,4.04463422 C7.74594753,3.71832092 8.18852334,3.53500001 8.65000004,3.53500001 L9.93500004,3.53500001 C10.9382051,3.53775608 11.75,4.35179116 11.75,5.35500002 L11.75,7.06000003 L8.54000004,7.06000003 L8.54000004,7.06000003 Z M13.3000001,20.4650001 L10.7,20.4650001 L10.7,7.56000003 L13.3000001,7.56000003 L13.3000001,20.4650001 Z M12.2500001,7.06000003 L12.2500001,5.35500002 C12.2500001,4.35179116 13.061795,3.53775608 14.0650001,3.53500001 L15.3500001,3.53500001 C16.3109755,3.53500001 17.0900001,4.31402455 17.0900001,5.27500002 L17.0900001,5.43500002 C17.0872446,6.33327093 16.3582752,7.06000003 15.4600001,7.06000003 L12.2500001,7.06000003 Z M19.3650001,19.1750001 C19.3650001,19.8874474 18.7874474,20.4650001 18.0750001,20.4650001 L13.8000001,20.4650001 L13.8000001,11.235 L19.3650001,11.235 L19.3650001,19.1750001 Z M20.7550001,10.735 L13.8000001,10.735 L13.8000001,7.56000003 L19.4700001,7.56000003 C20.180494,7.5627539 20.7550001,8.13950077 20.7550001,8.85000004 L20.7550001,10.735 Z"/>
    <rect width="24" height="24"/>
  </g>
</svg>
