<svg xmlns="http://www.w3.org/2000/svg" width="24" height="24" viewBox="0 0 24 24">
  <g fill="none" fill-rule="evenodd">
    <rect width="24" height="24"/>
    <g fill="#000" fill-rule="nonzero" transform="translate(3 4)">
      <path d="M5.75500002,15.6750052 L2.04000001,15.6750052 C1.33639828,15.6769027 0.74402545,15.1491524 0.665000003,14.4500001 L0.355000001,11.625 C0.31075027,11.2346642 0.434340908,10.8438996 0.695000003,10.55 C0.958634101,10.2590104 1.33235071,10.0921078 1.72500001,10.09 L6.38000003,10.09 C6.79789481,10.0928276 7.19234104,10.2835244 7.4541126,10.6092846 C7.71588417,10.9350448 7.81719827,11.3612942 7.73000003,11.77 L7.10000003,14.5950001 C6.95627536,15.2232884 6.399501,15.6703637 5.75500002,15.6750052 Z M1.72500001,10.59 C1.47067091,10.5907173 1.22894316,10.700817 1.06146561,10.8922199 C0.893988057,11.0836229 0.816950447,11.3378264 0.850000004,11.59 L1.165,14.4150001 C1.21586201,14.8596877 1.59241324,15.1953562 2.04000001,15.1950003 L5.75500002,15.1950003 C6.16771578,15.1924967 6.52324192,14.9035017 6.61000003,14.5000001 L7.24000003,11.675 C7.29739395,11.4139143 7.23370065,11.1408758 7.06670736,10.9321342 C6.89971407,10.7233926 6.64731647,10.6013175 6.38000003,10.6 L1.72500001,10.59 Z"/>
      <path d="M10.66 11.965C10.6082661 11.9647601 10.5577799 11.949092 10.515 11.92 9.65033715 11.3091472 8.49466292 11.3091472 7.63000003 11.92 7.57572701 11.9587477 7.50822283 11.9742063 7.44249623 11.9629389 7.37676963 11.9516715 7.31826856 11.914612 7.28000003 11.86 7.24150554 11.8065253 7.22617246 11.7397995 7.23746197 11.6748847 7.24875149 11.60997 7.28571191 11.5523387 7.34000003 11.515 8.3782472 10.7805628 9.76675287 10.7805628 10.805 11.515 10.9156516 11.5944484 10.9423317 11.7478589 10.865 11.86 10.8172664 11.9256249 10.7411479 11.9646124 10.66 11.965L10.66 11.965zM.780000003 11.1L.710000003 11.1C.57926876 11.0590992.50420647 10.9222209.540000002 10.79L3.24500001 1.50000001C3.40459709.94985863 3.84366817.525421105 4.39890136.384556389 4.95413455.243691673 5.54244065.407479801 5.94500002.815000003 5.99333864.860366669 6.02075935.923707049 6.02075935.990000004 6.02075935 1.05629296 5.99333864 1.11963334 5.94500002 1.165 5.89805837 1.21232817 5.83415941 1.23894959 5.76750002 1.23894959 5.70084064 1.23894959 5.63694167 1.21232817 5.59000002 1.165 5.3118131.883210223 4.90504537.770098936 4.52132391.867829603 4.13760245.965560271 3.83449952 1.25946972 3.72500002 1.64000001L1 10.92C.972526016 11.0207569.884202114 11.093022.780000003 11.1z"/>
      <path d="M5.75500002,15.6750052 L2.04000001,15.6750052 C1.33639828,15.6769027 0.74402545,15.1491524 0.665000003,14.4500001 L0.355000001,11.625 C0.31075027,11.2346642 0.434340908,10.8438996 0.695000003,10.55 C0.958634101,10.2590104 1.33235071,10.0921078 1.72500001,10.09 L6.38000003,10.09 C6.79789481,10.0928276 7.19234104,10.2835244 7.4541126,10.6092846 C7.71588417,10.9350448 7.81719827,11.3612942 7.73000003,11.77 L7.10000003,14.5950001 C6.95627536,15.2232884 6.399501,15.6703637 5.75500002,15.6750052 Z M1.72500001,10.59 C1.47067091,10.5907173 1.22894316,10.700817 1.06146561,10.8922199 C0.893988057,11.0836229 0.816950447,11.3378264 0.850000004,11.59 L1.165,14.4150001 C1.21586201,14.8596877 1.59241324,15.1953562 2.04000001,15.1950003 L5.75500002,15.1950003 C6.16771578,15.1924967 6.52324192,14.9035017 6.61000003,14.5000001 L7.24000003,11.675 C7.29739395,11.4139143 7.23370065,11.1408758 7.06670736,10.9321342 C6.89971407,10.7233926 6.64731647,10.6013175 6.38000003,10.6 L1.72500001,10.59 Z"/>
      <path d="M.780000003 11.1L.710000003 11.1C.57926876 11.0590992.50420647 10.9222209.540000002 10.79L3.24500001 1.50000001C3.40459709.94985863 3.84366817.525421105 4.39890136.384556389 4.95413455.243691673 5.54244065.407479801 5.94500002.815000003 5.99333864.860366669 6.02075935.923707049 6.02075935.990000004 6.02075935 1.05629296 5.99333864 1.11963334 5.94500002 1.165 5.89805837 1.21232817 5.83415941 1.23894959 5.76750002 1.23894959 5.70084064 1.23894959 5.63694167 1.21232817 5.59000002 1.165 5.3118131.883210223 4.90504537.770098936 4.52132391.867829603 4.13760245.965560271 3.83449952 1.25946972 3.72500002 1.64000001L1 10.92C.972526016 11.0207569.884202114 11.093022.780000003 11.1zM16.1300001 15.6750136L12.4150001 15.6750136C11.7678581 15.6778543 11.2069813 15.2274849 11.07 14.5950001L10.44 11.77C10.3528018 11.3612942 10.4541159 10.9350448 10.7158875 10.6092846 10.977659 10.2835244 11.3721053 10.0928276 11.79 10.09L16.4450001 10.09C16.8463481 10.08501 17.2305337 10.2525223 17.5000001 10.55 17.7606592 10.8438996 17.8842498 11.2346642 17.8400001 11.625L17.5000001 14.4500001C17.421187 15.147253 16.8316928 15.6743555 16.1300001 15.6750136L16.1300001 15.6750136zM11.79 10.59C11.5226836 10.5913175 11.270286 10.7133926 11.1032927 10.9221342 10.9362994 11.1308758 10.8726061 11.4039143 10.93 11.665L11.56 14.5000001C11.6507865 14.8995296 12.0052881 15.1835455 12.4150001 15.1850001L16.1300001 15.1850001C16.5791018 15.1822506 16.9540768 14.8417561 17.0000001 14.3950001L17.3150001 11.57C17.3480496 11.3178264 17.271012 11.0636229 17.1035345 10.8722199 16.9360569 10.680817 16.6943292 10.5707173 16.4400001 10.57L11.79 10.59z"/>
      <path d="M17.3900001,11.1000294 C17.2783232,11.1017195 17.1796189,11.0276913 17.1500001,10.92 L14.4450001,1.63000001 C14.3355006,1.24946972 14.0323976,0.95556027 13.6486762,0.857829603 C13.2649547,0.760098936 12.858187,0.873210223 12.5800001,1.155 C12.5330584,1.20232817 12.4691594,1.22894959 12.4025001,1.22894959 C12.3358407,1.22894959 12.2719417,1.20232817 12.2250001,1.155 C12.1766614,1.10963334 12.1492407,1.04629296 12.1492407,0.980000004 C12.1492407,0.913707049 12.1766614,0.850366669 12.2250001,0.805000003 C12.628973,0.397649158 13.2187248,0.235184776 13.7743114,0.378196875 C14.329898,0.521208973 14.7679124,0.948227989 14.9250001,1.50000001 L17.6300001,10.79 C17.6657936,10.9222209 17.5907313,11.0590992 17.4600001,11.1000294 L17.3900001,11.1000294 Z"/>
    </g>
  </g>
</svg>
