<svg xmlns="http://www.w3.org/2000/svg" width="24" height="24" viewBox="0 0 24 24">
  <g fill="none" fill-rule="evenodd">
    <path fill="#000" fill-rule="nonzero" d="M19.5789474 18.5263158L18.7368421 15.3157895C18.6315789 14.9473684 18.3157895 14.7368421 17.9473684 14.7368421L16.4210526 14.7368421C16.4736842 14.5789474 16.4736842 14.4210526 16.4210526 14.2631579L15.6315789 11.0526316C15.5263158 10.6842105 15.2105263 10.4736842 14.8421053 10.4736842L13.2105263 10.4736842C13.2631579 10.3157895 13.2631579 10.1578947 13.2105263 10L12.3684211 6.78947368C12.2631579 6.42105263 11.9473684 6.21052632 11.5789474 6.21052632L8.26315789 6.21052632C7.89473684 6.21052632 7.57894737 6.47368421 7.52631579 6.78947368L6.73684211 10C6.68421053 10.1578947 6.68421053 10.3157895 6.73684211 10.4736842L5.26315789 10.4736842C4.89473684 10.4736842 4.57894737 10.7368421 4.52631579 11.0526316L3.68421053 14.2631579C3.63157895 14.4210526 3.63157895 14.5789474 3.68421053 14.7368421L2.10526316 14.7368421C1.73684211 14.7368421 1.42105263 15 1.31578947 15.3157895L.473684211 18.5263158C.421052632 18.7894737.473684211 19 .631578947 19.2105263.789473684 19.4210526 1 19.5263158 1.26315789 19.5263158L6.26315789 19.5263158C6.52631579 19.5263158 6.73684211 19.4210526 6.89473684 19.2105263 6.89473684 19.2105263 6.89473684 19.2105263 6.89473684 19.2105263 6.89473684 19.2105263 6.89473684 19.2105263 6.89473684 19.2105263 7.05263158 19.4210526 7.26315789 19.5263158 7.52631579 19.5263158L12.5263158 19.5263158C12.7894737 19.5263158 13 19.4210526 13.1578947 19.2105263 13.1578947 19.2105263 13.1578947 19.1578947 13.2105263 19.1578947 13.2105263 19.1578947 13.2105263 19.2105263 13.2631579 19.2105263 13.4210526 19.4210526 13.6315789 19.5263158 13.8947368 19.5263158L18.8947368 19.5263158C19.1578947 19.5263158 19.3684211 19.4210526 19.5263158 19.2105263 19.5789474 19 19.6315789 18.7894737 19.5789474 18.5263158zM7.57894737 15.3157895L6.84210526 18.0526316 6.10526316 15.3157895C6.10526316 15.3157895 6.10526316 15.2631579 6.05263158 15.2631579L7.57894737 15.2631579C7.57894737 15.2631579 7.57894737 15.3157895 7.57894737 15.3157895zM10.7894737 11.0526316L10.0526316 13.8421053 9.31578947 11.0526316C9.31578947 11.0526316 9.31578947 11 9.26315789 11L10.7894737 11C10.7894737 11.0526316 10.7894737 11.0526316 10.7894737 11.0526316zM13.8947368 15.3157895L13.1578947 18.1578947 12.4210526 15.3684211C12.4210526 15.3684211 12.4210526 15.3157895 12.3684211 15.3157895L13.8947368 15.3157895C13.8947368 15.2631579 13.8947368 15.3157895 13.8947368 15.3157895zM10 4C10.1578947 4 10.2631579 3.89473684 10.2631579 3.73684211L10.2631579.736842105C10.2631579.578947368 10.1578947.473684211 10 .473684211 9.84210526.473684211 9.73684211.578947368 9.73684211.736842105L9.73684211 3.73684211C9.73684211 3.84210526 9.84210526 4 10 4zM15.1578947 6.15789474C15.2105263 6.15789474 15.3157895 6.15789474 15.3684211 6.10526316L17.4736842 4C17.5789474 3.89473684 17.5789474 3.73684211 17.4736842 3.63157895 17.3684211 3.52631579 17.2105263 3.52631579 17.1052632 3.63157895L15 5.73684211C14.8947368 5.84210526 14.8947368 6 15 6.10526316 15.0526316 6.15789474 15.1052632 6.15789474 15.1578947 6.15789474zM4.47368421 6.10526316C4.52631579 6.15789474 4.57894737 6.15789474 4.68421053 6.15789474 4.78947368 6.15789474 4.84210526 6.15789474 4.89473684 6.10526316 5 6 5 5.84210526 4.89473684 5.73684211L2.78947368 3.63157895C2.68421053 3.52631579 2.52631579 3.52631579 2.42105263 3.63157895 2.31578947 3.73684211 2.31578947 3.89473684 2.42105263 4L4.47368421 6.10526316z" transform="translate(2 2)"/>
    <rect width="24" height="24"/>
  </g>
</svg>
