<svg xmlns="http://www.w3.org/2000/svg" width="24" height="24" viewBox="0 0 24 24">
  <g fill="none" fill-rule="evenodd">
    <rect width="24" height="24"/>
    <path fill="#CCC" fill-rule="nonzero" d="M7.50000003,16.9500001 L4.38000002,16.9500001 C4.1461168,16.9425998 3.93838304,17.0984001 3.88000002,17.3250001 L3.08500001,20.3700001 C3.04365717,20.523165 3.07745549,20.6868615 3.17607938,20.8111276 C3.27470327,20.9353937 3.42644817,21.0054817 3.58500001,21.0000001 L8.34000003,21.0000001 C8.49855188,21.0054817 8.65029678,20.9353937 8.74892067,20.8111276 C8.84754456,20.6868615 8.88134288,20.523165 8.84000004,20.3700001 L8.00000003,17.3250001 C7.94161701,17.0984001 7.73388325,16.9425998 7.50000003,16.9500001 Z"/>
    <path fill="#000" fill-rule="nonzero" d="M8.32000003,21.2500096 L3.56500001,21.2500096 C3.3312008,21.2511831 3.11059429,21.1418067 2.97000001,20.9550001 C2.82878394,20.7699579 2.78081677,20.5301221 2.84000001,20.3050001 L3.65500002,17.2600001 C3.74134568,16.93028 4.03916161,16.7002429 4.38000002,16.7000001 L7.50000003,16.7000001 C7.84024355,16.701977 8.13712683,16.9312937 8.22500003,17.2600001 L9.03500004,20.3050001 C9.09570185,20.5304388 9.04795743,20.7712881 8.9058464,20.9565224 C8.76373537,21.1417568 8.54346793,21.2502471 8.31000003,21.2500096 L8.32000003,21.2500096 Z M4.38000002,17.2000001 C4.26562778,17.1983571 4.16472807,17.2745467 4.13500002,17.3850001 L3.32500001,20.4350001 C3.3068836,20.5096754 3.32340734,20.5885386 3.3699766,20.6496608 C3.41654586,20.7107829 3.4881946,20.7476461 3.56500001,20.7500129 L8.32000003,20.7500129 C8.39887768,20.7508071 8.47331903,20.7135864 8.52000004,20.6500001 C8.56884059,20.5898059 8.58560096,20.5097285 8.56500004,20.4350001 L7.75000003,17.3850001 C7.71826872,17.2737709 7.61564645,17.1978304 7.50000003,17.2000001 L4.38000002,17.2000001 Z"/>
    <path fill="#CCC" fill-rule="nonzero" d="M13.5000001,16.9500001 L10.35,16.9500001 C10.1161168,16.9425998 9.90838306,17.0984001 9.85000004,17.3250001 L9.04000004,20.3700001 C8.9986572,20.523165 9.03245552,20.6868615 9.13107941,20.8111276 C9.2297033,20.9353937 9.3814482,21.0054817 9.54000004,21.0000001 L14.3000001,21.0000001 C14.4585519,21.0054817 14.6102968,20.9353937 14.7089207,20.8111276 C14.8075446,20.6868615 14.8413429,20.523165 14.8000001,20.3700001 L13.9900001,17.3250001 C13.932466,17.1021063 13.7301837,16.9472984 13.5000001,16.9500001 Z"/>
    <path fill="#000" fill-rule="nonzero" d="M14.2950001,21.2500272 L9.53500004,21.2500272 C9.3023967,21.2520097 9.08295435,21.1422885 8.94500004,20.9550001 C8.79988368,20.7718072 8.74983427,20.5308285 8.81000004,20.3050001 L9.62500004,17.2600001 C9.71287325,16.9312937 10.0097565,16.701977 10.35,16.7000001 L13.5000001,16.7000001 C13.8408385,16.7002429 14.1386544,16.93028 14.2250001,17.2600001 L15.0000001,20.3050001 C15.0601658,20.5308285 15.0101164,20.7718072 14.8650001,20.9550001 C14.7312433,21.136658 14.5205483,21.2457019 14.2950001,21.2500272 Z M10.35,17.2000001 C10.2374838,17.2006316 10.139253,17.2763512 10.11,17.3850001 L9.29500004,20.4350001 C9.27688363,20.5096754 9.29340736,20.5885386 9.33997662,20.6496608 C9.38654588,20.7107829 9.45819462,20.7476461 9.53500004,20.7500001 L14.2950001,20.7500001 C14.3718055,20.7476461 14.4434542,20.7107829 14.4900235,20.6496608 C14.5365927,20.5885386 14.5531165,20.5096754 14.5350001,20.4350001 L13.7200001,17.3850001 C13.695788,17.281381 13.6062366,17.2060764 13.5000001,17.2000001 L10.35,17.2000001 Z"/>
    <path fill="#CCC" fill-rule="nonzero" d="M19.5000001,16.9500001 L16.3500001,16.9500001 C16.1161168,16.9425998 15.9083831,17.0984001 15.8500001,17.3250001 L15.0400001,20.3700001 C14.9986572,20.523165 15.0324555,20.6868615 15.1310794,20.8111276 C15.2297033,20.9353937 15.3814482,21.0054817 15.5400001,21.0000001 L20.3000001,21.0000001 C20.4585519,21.0054817 20.6102968,20.9353937 20.7089207,20.8111276 C20.8075446,20.6868615 20.8413429,20.523165 20.8000001,20.3700001 L19.9900001,17.3250001 C19.9324661,17.1021063 19.7301837,16.9472984 19.5000001,16.9500001 Z"/>
    <path fill="#000" fill-rule="nonzero" d="M20.2950001,21.2500272 L15.5350001,21.2500272 C15.3023967,21.2520097 15.0829544,21.1422885 14.9450001,20.9550001 C14.7998837,20.7718072 14.7498343,20.5308285 14.8100001,20.3050001 L15.6250001,17.2600001 C15.7128733,16.9312937 16.0097565,16.701977 16.3500001,16.7000001 L19.5000001,16.7000001 C19.8408385,16.7002429 20.1386544,16.93028 20.2250001,17.2600001 L21.0000001,20.3050001 C21.0601659,20.5308285 21.0101164,20.7718072 20.8650001,20.9550001 C20.7312433,21.136658 20.5205483,21.2457019 20.2950001,21.2500272 Z M16.3500001,17.2000001 C16.2374838,17.2006316 16.139253,17.2763512 16.1100001,17.3850001 L15.2950001,20.4350001 C15.2768837,20.5096754 15.2934074,20.5885386 15.3399766,20.6496608 C15.3865459,20.7107829 15.4581946,20.7476461 15.5350001,20.7500001 L20.2950001,20.7500001 C20.3718055,20.7476461 20.4434542,20.7107829 20.4900235,20.6496608 C20.5365928,20.5885386 20.5531165,20.5096754 20.5350001,20.4350001 L19.7200001,17.3850001 C19.695788,17.281381 19.6062367,17.2060764 19.5000001,17.2000001 L16.3500001,17.2000001 Z"/>
    <path fill="#CCC" fill-rule="nonzero" d="M10.535,12.9050001 L7.40500003,12.9050001 C7.17256562,12.8970383 6.9653321,13.0503911 6.90500003,13.2750001 L6.09000003,16.3250001 C6.05054664,16.4774715 6.08523758,16.6396203 6.18362282,16.7626018 C6.28200807,16.8855834 6.43258688,16.9550218 6.59000003,16.9500001 L11.35,16.9500001 C11.5074132,16.9550218 11.657992,16.8855834 11.7563773,16.7626018 C11.8547625,16.6396203 11.8894534,16.4774715 11.85,16.3250001 L11,13.2750001 C10.9430531,13.0629461 10.7544268,12.9128564 10.535,12.9050001 Z"/>
    <path fill="#000" fill-rule="nonzero" d="M11.35,17.2000241 L6.59500003,17.2000241 C6.36194236,17.2018707 6.14143893,17.0945669 5.9990995,16.9100164 C5.85676007,16.725466 5.80898888,16.4849379 5.87000002,16.2600001 L6.68000003,13.2100001 C6.76975285,12.8832765 7.06617555,12.6563598 7.40500003,12.6549855 L10.535,12.6549855 C10.8749993,12.6528862 11.1732937,12.8812357 11.26,13.2100001 L12.0750001,16.2600001 C12.1360112,16.4849379 12.08824,16.725466 11.9459006,16.9100164 C11.8035611,17.0945669 11.5830577,17.2018707 11.35,17.2000241 L11.35,17.2000241 Z M7.40500003,13.154974 C7.29248378,13.1556316 7.19425294,13.2313512 7.16500003,13.3400001 L6.35500003,16.3850001 C6.33522627,16.4606435 6.34986532,16.5411582 6.39500003,16.6050001 C6.44372375,16.6654679 6.51734585,16.7004384 6.59500003,16.7000041 L11.35,16.7000041 C11.4276542,16.7004384 11.5012763,16.6654679 11.55,16.6050001 C11.5951348,16.5411582 11.6097738,16.4606435 11.59,16.3850001 L10.78,13.3400001 C10.750272,13.2295467 10.6493723,13.1533571 10.535,13.154974 L7.40500003,13.154974 Z"/>
    <path fill="#CCC" fill-rule="nonzero" d="M16.5350001,12.9050001 L13.4050001,12.9050001 C13.1725656,12.8970383 12.9653321,13.0503911 12.9050001,13.2750001 L12.0900001,16.3250001 C12.0505467,16.4774715 12.0852376,16.6396203 12.1836228,16.7626018 C12.2820081,16.8855834 12.4325869,16.9550218 12.5900001,16.9500001 L17.3500001,16.9500001 C17.5074132,16.9550218 17.657992,16.8855834 17.7563773,16.7626018 C17.8547625,16.6396203 17.8894535,16.4774715 17.8500001,16.3250001 L17.0000001,13.2750001 C16.9430532,13.0629461 16.7544268,12.9128564 16.5350001,12.9050001 Z"/>
    <path fill="#000" fill-rule="nonzero" d="M17.3500001,17.2000241 L12.5950001,17.2000241 C12.3619424,17.2018707 12.141439,17.0945669 11.9990995,16.9100164 C11.8567601,16.725466 11.8089889,16.4849379 11.87,16.2600001 L12.6800001,13.2100001 C12.7697529,12.8832765 13.0661756,12.6563598 13.4050001,12.6549855 L16.5350001,12.6549855 C16.8749993,12.6528862 17.1732937,12.8812357 17.2600001,13.2100001 L18.0750001,16.2600001 C18.1360112,16.4849379 18.08824,16.725466 17.9459006,16.9100164 C17.8035612,17.0945669 17.5830577,17.2018707 17.3500001,17.2000241 Z M13.4050001,13.154974 C13.2924838,13.1556316 13.194253,13.2313512 13.1650001,13.3400001 L12.3550001,16.3850001 C12.3352263,16.4606435 12.3498653,16.5411582 12.3950001,16.6050001 C12.4437238,16.6654679 12.5173459,16.7004384 12.5950001,16.7000041 L17.3500001,16.7000041 C17.4276542,16.7004384 17.5012763,16.6654679 17.5500001,16.6050001 C17.5951348,16.5411582 17.6097738,16.4606435 17.5900001,16.3850001 L16.7800001,13.3400001 C16.750272,13.2295467 16.6493723,13.1533571 16.5350001,13.154974 L13.4050001,13.154974 Z"/>
    <path fill="#CCC" fill-rule="nonzero" d="M13.5000001,8.85500004 L10.35,8.85500004 C10.1175656,8.84703827 9.91033211,9.00039108 9.85000004,9.22500004 L9.04000004,12.2750001 C8.9986572,12.428165 9.03245552,12.5918614 9.13107941,12.7161275 C9.2297033,12.8403936 9.3814482,12.9104817 9.54000004,12.9050001 L14.3000001,12.9050001 C14.4585519,12.9104817 14.6102968,12.8403936 14.7089207,12.7161275 C14.8075446,12.5918614 14.8413429,12.428165 14.8000001,12.2750001 L13.9900001,9.22500004 C13.930544,9.00409327 13.7287445,8.8517141 13.5000001,8.85500004 Z"/>
    <path fill="#000" fill-rule="nonzero" d="M14.2950001,13.1550001 L9.53500004,13.1550001 C9.30298562,13.1513009 9.08537296,13.04181 8.94412878,12.8577055 C8.80288461,12.673601 8.75348618,12.4350568 8.81000004,12.2100001 L9.62500004,9.16000004 C9.71475286,8.83327644 10.0111756,8.60635976 10.35,8.60500004 L13.5000001,8.60500004 C13.8388245,8.60635976 14.1352472,8.83327644 14.2250001,9.16000004 L15.0000001,12.2100001 C15.0565139,12.4350568 15.0071155,12.673601 14.8658713,12.8577055 C14.7246271,13.04181 14.5070145,13.1513009 14.2750001,13.1550001 L14.2950001,13.1550001 Z M10.35,9.10500004 C10.2368843,9.1038654 10.1376976,9.18032182 10.11,9.29000004 L9.29500004,12.3400001 C9.27439911,12.4147285 9.29115949,12.4948059 9.34000004,12.5550001 C9.38614879,12.6165643 9.45807503,12.6534495 9.53500004,12.6550001 L14.2950001,12.6550001 C14.3719251,12.6534495 14.4438513,12.6165643 14.4900001,12.5550001 C14.5388406,12.4948059 14.555601,12.4147285 14.5350001,12.3400001 L13.7200001,9.29000004 C13.6939659,9.17924012 13.5937385,9.1019815 13.4800001,9.10500004 L10.35,9.10500004 Z"/>
    <path fill="#000" fill-rule="nonzero" d="M7.41500003 3.5000013C7.27692884 3.5000013 7.16500003 3.3880712 7.16500003 3.25000001L7.16500003.395000002C7.16500003.256928814 7.27692884.145000001 7.41500003.145000001 7.55307122.145000001 7.66500003.256928814 7.66500003.395000002L7.66500003 3.23000001C7.67059397 3.29969562 7.64674562 3.36854895 7.59924159 3.41985331 7.55173755 3.47115766 7.48491941 3.50022415 7.41500003 3.5000013zM12.3350001 5.56500002C12.2684216 5.56465788 12.2043172 5.53972837 12.1550001 5.49500002 12.0591084 5.39609318 12.0591084 5.23890686 12.1550001 5.14000002L14.1550001 3.14000001C14.2522109 3.04471429 14.4077892 3.04471429 14.5050001 3.14000001 14.5532399 3.1877965 14.5799603 3.25316066 14.5790413 3.32106275 14.5780741 3.38896484 14.5495487 3.4535617 14.5000001 3.50000001L12.5000001 5.50000002C12.4538874 5.53962645 12.3957498 5.56252913 12.3350001 5.56500002zM2.36500001 5.56500002C2.30015192 5.56344587 2.2380308 5.53859742 2.19000001 5.49500002L.190000001 3.49500001C.142671838 3.44805836.116050419 3.3841594.116050419 3.31750001.116050419 3.25084063.142671838 3.18694166.190000001 3.14000001.287210879 3.04471429.442789124 3.04471429.540000002 3.14000001L2.54000001 5.14000002C2.63589166 5.23890686 2.63589166 5.39609318 2.54000001 5.49500002 2.49196922 5.53859742 2.4298481 5.56344587 2.36500001 5.56500002z" transform="translate(4.5 3)"/>
  </g>
</svg>
