<svg xmlns="http://www.w3.org/2000/svg" width="24" height="24" viewBox="0 0 24 24">
  <g fill="none" fill-rule="evenodd">
    <path fill="#000" fill-rule="nonzero" d="M11.3255286,11.6021505 L11.3255286,10.7849462 L12.3580291,10.7849462 C13.5535559,10.7849462 14.5860564,9.8655914 14.5860564,8.69086022 L14.5860564,7.26075269 L13.0644768,7.26075269 C12.9557925,7.26075269 12.8471083,7.26075269 12.738424,7.31182796 C13.7165823,6.13709677 13.6622402,4.4516129 12.5210555,3.37903226 L11.053818,2 L9.58658051,3.37903226 C8.98881709,3.94086022 8.66276432,4.65591398 8.66276432,5.47311828 C8.66276432,6.13709677 8.93447496,6.80107527 9.369212,7.31182796 C9.26052774,7.31182796 9.15184348,7.26075269 9.04315922,7.26075269 L7.52157961,7.26075269 L7.52157961,8.69086022 C7.52157961,9.81451613 8.49973793,10.7849462 9.7496069,10.7849462 L10.7277652,10.7849462 L10.7277652,11.6021505 C8.0650009,11.7553763 6,13.7983871 6,16.3010753 C6,18.905914 8.22802729,21 10.9994759,21 C13.7709244,21 15.9989517,18.905914 15.9989517,16.3010753 C16.0532939,13.7983871 13.988293,11.7043011 11.3255286,11.6021505 Z M10.7821073,16.0456989 L11.3798708,16.0456989 C11.9776342,16.0456989 12.4667133,16.5053763 12.4667133,17.0672043 C12.4667133,17.6290323 11.9776342,18.0887097 11.3798708,18.0887097 L11.3798708,18.0887097 L11.3798708,18.4973118 C11.3798708,18.6505376 11.2711865,18.7526882 11.1081601,18.7526882 C10.9451337,18.7526882 10.8364495,18.6505376 10.8364495,18.4973118 L10.8364495,18.0887097 L9.96697541,18.0887097 C9.80394903,18.0887097 9.69526477,17.9865591 9.69526477,17.8333333 C9.69526477,17.6801075 9.80394903,17.577957 9.96697541,17.577957 L11.3798708,17.577957 C11.7059235,17.577957 11.9232921,17.3225806 11.9232921,17.0672043 C11.9232921,16.811828 11.6515814,16.5564516 11.3798708,16.5564516 L10.7821073,16.5564516 C10.1843439,16.5564516 9.69526477,16.0967742 9.69526477,15.5349462 C9.69526477,14.9731183 10.1843439,14.5134409 10.7821073,14.5134409 L10.7821073,14.5134409 L10.7821073,14.1048387 C10.7821073,13.9516129 10.8907916,13.8494624 11.053818,13.8494624 C11.2168444,13.8494624 11.3255286,13.9516129 11.3255286,14.1048387 L11.3255286,14.5134409 L12.1950027,14.5134409 C12.3580291,14.5134409 12.4667133,14.6155914 12.4667133,14.7688172 C12.4667133,14.922043 12.3580291,15.0241935 12.1950027,15.0241935 L10.7821073,15.0241935 C10.4560546,15.0241935 10.2386861,15.2795699 10.2386861,15.5349462 C10.2386861,15.7903226 10.4560546,16.0456989 10.7821073,16.0456989 Z"/>
    <rect width="24" height="24"/>
  </g>
</svg>
