<svg xmlns="http://www.w3.org/2000/svg" width="24" height="24" viewBox="0 0 24 24">
  <g fill="none" fill-rule="evenodd">
    <rect width="24" height="24"/>
    <path fill="#000" fill-rule="nonzero" d="M16.9,8.465 L16.9,5.5 L17.435,5.5 C18.1435474,5.49725897 18.717259,4.92354743 18.72,4.215 L18.72,4.075 C18.72,3.3653141 18.1446859,2.79 17.435,2.79 L6.565,2.79 C5.8553141,2.79 5.28,3.3653141 5.28,4.075 L5.28,4.235 C5.29357772,4.93572498 5.86414826,5.49741504 6.565,5.5 L7.1,5.5 L7.1,8.445 C7.11347255,10.0297481 8.11029903,11.4392607 9.6,11.98 C8.11029903,12.5207393 7.11347255,13.9302519 7.1,15.515 L7.1,18.5 L6.565,18.5 C5.85645257,18.502741 5.28274103,19.0764526 5.28,19.785 L5.28,19.945 C5.28,20.6546859 5.8553141,21.23 6.565,21.23 L17.435,21.23 C18.1446859,21.23 18.72,20.6546859 18.72,19.945 L18.72,19.785 C18.717259,19.0764526 18.1435474,18.502741 17.435,18.5 L16.9,18.5 L16.9,15.535 C16.8865275,13.9502519 15.889701,12.5407393 14.4,12 C15.889701,11.4592607 16.8865275,10.0497481 16.9,8.465 Z"/>
  </g>
</svg>
