<svg xmlns="http://www.w3.org/2000/svg" width="24" height="24" viewBox="0 0 24 24">
  <g fill="none" fill-rule="evenodd">
    <rect width="24" height="24"/>
    <path fill="#CCC" fill-rule="nonzero" d="M11,12.0650001 C9.02468471,12.0399782 7.40243197,13.6197167 7.37500003,15.5950001 L7.37500003,18.7950001 L16.6500001,18.7950001 L16.6500001,15.5950001 C16.6225681,13.6197167 15.0003154,12.0399782 13.0250001,12.0650001"/>
    <path fill="#000" fill-rule="nonzero" d="M16.6500001,19.0450001 L7.35000003,19.0450001 C7.21192884,19.0450001 7.10000003,18.9330713 7.10000003,18.7950001 L7.10000003,15.5950001 C7.11446601,14.576101 7.5338438,13.6048511 8.26555603,12.8956531 C8.99726825,12.1864551 9.9811464,11.7976261 11,11.815 C11.1380712,11.815 11.25,11.9269289 11.25,12.0650001 C11.25,12.2030712 11.1380712,12.3150001 11,12.3150001 C9.16274944,12.2899655 7.65241838,13.7577835 7.62500003,15.5950001 L7.62500003,18.5450001 L16.4000001,18.5450001 L16.4000001,15.5950001 C16.3725817,13.7577835 14.8622507,12.2899655 13.0250001,12.3150001 C12.8869289,12.3150001 12.7750001,12.2030712 12.7750001,12.0650001 C12.7750001,11.9269289 12.8869289,11.815 13.0250001,11.815 C15.1372747,11.7927517 16.8698222,13.4828238 16.9000001,15.5950001 L16.9000001,18.7950001 C16.9000001,18.8613042 16.8736609,18.9248927 16.8267768,18.9717768 C16.7798927,19.0186609 16.7163042,19.0450001 16.6500001,19.0450001 Z"/>
    <rect width="12.94" height="2.23" x="5.53" y="18.795" fill="#CCC" fill-rule="nonzero" rx="1.115"/>
    <path fill="#000" fill-rule="nonzero" d="M17.4350001,21.2750001 L6.56500003,21.2750001 C5.85920109,21.2750001 5.28549262,20.7057776 5.28000002,20.0000001 L5.28000002,19.8400001 C5.28000002,19.1303142 5.85531412,18.5550001 6.56500003,18.5550001 L17.4350001,18.5550001 C18.144686,18.5550001 18.7200001,19.1303142 18.7200001,19.8400001 L18.7200001,20.0000001 C18.7145075,20.7057776 18.140799,21.2750001 17.4350001,21.2750001 L17.4350001,21.2750001 Z M6.56500003,19.0450001 C6.35680508,19.0450001 6.15713726,19.1277052 6.0099212,19.2749213 C5.86270514,19.4221373 5.78000002,19.6218051 5.78000002,19.8300001 L5.78000002,20.0000001 C5.78272823,20.4324085 6.1325916,20.7822719 6.56500003,20.7850001 L17.4350001,20.7850001 C17.8674085,20.7822719 18.2172719,20.4324085 18.2200001,20.0000001 L18.2200001,19.8400001 C18.2200001,19.4064566 17.8685436,19.0550001 17.4350001,19.0550001 L6.56500003,19.0450001 Z"/>
    <rect width="12.94" height="2.23" x="5.53" y="18.795" fill="#CCC" fill-rule="nonzero" rx="1.115"/>
    <path fill="#000" fill-rule="nonzero" d="M17.4350001,21.2750001 L6.56500003,21.2750001 C5.85920109,21.2750001 5.28549262,20.7057776 5.28000002,20.0000001 L5.28000002,19.8400001 C5.28000002,19.1303142 5.85531412,18.5550001 6.56500003,18.5550001 L17.4350001,18.5550001 C18.144686,18.5550001 18.7200001,19.1303142 18.7200001,19.8400001 L18.7200001,20.0000001 C18.7145075,20.7057776 18.140799,21.2750001 17.4350001,21.2750001 L17.4350001,21.2750001 Z M6.56500003,19.0450001 C6.35680508,19.0450001 6.15713726,19.1277052 6.0099212,19.2749213 C5.86270514,19.4221373 5.78000002,19.6218051 5.78000002,19.8300001 L5.78000002,20.0000001 C5.78272823,20.4324085 6.1325916,20.7822719 6.56500003,20.7850001 L17.4350001,20.7850001 C17.8674085,20.7822719 18.2172719,20.4324085 18.2200001,20.0000001 L18.2200001,19.8400001 C18.2200001,19.4064566 17.8685436,19.0550001 17.4350001,19.0550001 L6.56500003,19.0450001 Z"/>
    <path fill="#CCC" fill-rule="nonzero" d="M13.0250001,12.0650001 C15.0011348,12.0872408 16.6225623,10.5060695 16.6500001,8.53000004 L16.6500001,5.33000002 L7.35000003,5.33000002 L7.35000003,8.53000004 C7.36314098,9.48347234 7.75559987,10.3924236 8.44057499,11.0558173 C9.12555011,11.719211 10.0465956,12.0823797 11,12.0650001 C9.02468471,12.0399782 7.40243197,13.6197167 7.37500003,15.5950001 L7.37500003,18.7950001 L16.6500001,18.7950001 L16.6500001,15.5950001 C16.6225681,13.6197167 15.0003154,12.0399782 13.0250001,12.0650001 Z"/>
    <path fill="#000" fill-rule="nonzero" d="M16.6500001,19.0450001 L7.35000003,19.0450001 C7.21192884,19.0450001 7.10000003,18.9330713 7.10000003,18.7950001 L7.10000003,15.5950001 C7.11410492,14.0116221 8.11108091,12.603892 9.60000003,12.0650001 C8.1112194,11.523055 7.11491609,10.1142821 7.10000003,8.53000004 L7.10000003,5.33000002 C7.10000003,5.19192883 7.21192884,5.08000002 7.35000003,5.08000002 L16.6500001,5.08000002 C16.7880713,5.08000002 16.9000001,5.19192883 16.9000001,5.33000002 L16.9000001,8.53000004 C16.885084,10.1142821 15.8887807,11.523055 14.4000001,12.0650001 C15.8889192,12.603892 16.8858952,14.0116221 16.9000001,15.5950001 L16.9000001,18.7950001 C16.9000001,18.9330713 16.7880713,19.0450001 16.6500001,19.0450001 Z M7.60000003,18.5450001 L16.4000001,18.5450001 L16.4000001,15.5950001 C16.3725817,13.7577835 14.8622507,12.2899655 13.0250001,12.3150001 C12.8869289,12.3150001 12.7750001,12.2030712 12.7750001,12.0650001 C12.7750001,11.9269289 12.8869289,11.815 13.0250001,11.815 C14.8630709,11.8372521 16.3725755,10.368001 16.4000001,8.53000004 L16.4000001,5.58000002 L7.60000003,5.58000002 L7.60000003,8.53000004 C7.613132,9.4171738 7.97925012,10.2625431 8.6173439,10.8790543 C9.25543768,11.4955655 10.1128995,11.8323904 11,11.815 C11.1380712,11.815 11.25,11.9269289 11.25,12.0650001 C11.25,12.2030712 11.1380712,12.3150001 11,12.3150001 C9.16274944,12.2899655 7.65241838,13.7577835 7.62500003,15.5950001 L7.60000003,18.5450001 Z"/>
    <rect width="12.94" height="2.23" x="5.53" y="3.1" fill="#CCC" fill-rule="nonzero" rx="1.115"/>
    <path fill="#000" fill-rule="nonzero" d="M17.4350001,5.58000002 L6.56500003,5.58000002 C5.85531412,5.58000002 5.28000002,5.00468592 5.28000002,4.29500002 L5.28000002,4.13500002 C5.28274105,3.42645259 5.8564526,2.85274104 6.56500003,2.85000001 L17.4350001,2.85000001 C18.1435475,2.85274104 18.7172591,3.42645259 18.7200001,4.13500002 L18.7200001,4.29500002 C18.7200001,5.00468592 18.144686,5.58000002 17.4350001,5.58000002 L17.4350001,5.58000002 Z M6.56500003,3.35000001 C6.1325916,3.35272822 5.78272823,3.70259159 5.78000002,4.13500002 L5.78000002,4.29500002 C5.78000002,4.72854355 6.1314565,5.08000002 6.56500003,5.08000002 L17.4350001,5.08000002 C17.8685436,5.08000002 18.2200001,4.72854355 18.2200001,4.29500002 L18.2200001,4.13500002 C18.2172719,3.70259159 17.8674085,3.35272822 17.4350001,3.35000001 L6.56500003,3.35000001 Z"/>
  </g>
</svg>
