<svg xmlns="http://www.w3.org/2000/svg" width="24" height="24" viewBox="0 0 24 24">
  <g fill="none" fill-rule="evenodd">
    <rect width="24" height="24"/>
    <path fill="#CCC" fill-rule="nonzero" d="M14.5000001,16.9150001 C14.5848029,15.893734 15.0254186,14.9346428 15.7450001,14.2050001 L16.0650001,13.8800001 L16.1700001,13.7750001 C17.9682106,12.0919892 18.5552588,9.48099467 17.6504945,7.19025502 C16.7457301,4.89951536 14.5329428,3.39436079 12.0700001,3.39436079 C9.60705735,3.39436079 7.39427001,4.89951536 6.48950563,7.19025502 C5.58474126,9.48099467 6.17178947,12.0919892 7.97000003,13.7750001 L8.07500003,13.8800001 L8.39500003,14.2050001 C9.11458146,14.9346428 9.55519718,15.893734 9.64000004,16.9150001"/>
    <path fill="#000" fill-rule="nonzero" d="M14.5000001,17.1650001 L14.5000001,17.1650001 C14.4336141,17.1599029 14.3720038,17.128535 14.328828,17.0778503 C14.2856522,17.0271657 14.2644782,16.9613521 14.2700001,16.8950001 C14.3605515,15.8158019 14.8257488,14.8022731 15.5850001,14.0300001 L16.0000001,13.6000001 C17.7256451,11.9881145 18.2903797,9.48506679 17.4240209,7.28837652 C16.5576622,5.09168625 14.436361,3.64799157 12.0750001,3.64799157 C9.7136391,3.64799157 7.59233788,5.09168625 6.72597916,7.28837652 C5.85962044,9.48506679 6.42435505,11.9881145 8.15000003,13.6000001 L8.58500004,14.0400001 C9.34425134,14.8122731 9.80944865,15.8258019 9.90000004,16.9050001 C9.90552194,16.9713521 9.8843479,17.0371657 9.8411721,17.0878503 C9.79799631,17.138535 9.73638603,17.1699029 9.67000004,17.1750001 C9.60364803,17.180522 9.5378344,17.1593479 9.48714977,17.1161721 C9.43646514,17.0729963 9.40509718,17.0113861 9.40000004,16.9450001 C9.3220089,15.9838592 8.90773868,15.0809626 8.23000003,14.3950001 L7.80000003,13.9600001 C5.92922621,12.2058659 5.31986474,9.48692681 6.26303431,7.1021391 C7.20620388,4.71735138 9.51047645,3.15073746 12.0750001,3.15073746 C14.6395236,3.15073746 16.9437962,4.71735138 17.8869658,7.1021391 C18.8301354,9.48692681 18.2207739,12.2058659 16.3500001,13.9600001 L15.9300001,14.3900001 C15.2522614,15.0759626 14.8379912,15.9788592 14.7600001,16.9400001 C14.7468534,17.072154 14.6326723,17.1709646 14.5000001,17.1650001 Z"/>
    <path fill="#000" fill-rule="nonzero" d="M13.5550001,11.5 L10.62,11.5 C10.0677153,11.5 9.62000004,11.0522848 9.62000004,10.5 C9.62000004,9.94771529 10.0677153,9.50000004 10.62,9.50000004 C11.1722848,9.50000004 11.62,9.94771529 11.62,10.5 C11.62,10.6380712 11.5080712,10.75 11.37,10.75 C11.2319289,10.75 11.12,10.6380712 11.12,10.5 C11.12,10.2238577 10.8961424,10 10.62,10 C10.3438577,10 10.12,10.2238577 10.12,10.5 C10.12,10.7761424 10.3438577,11 10.62,11 L13.5550001,11 C13.8311424,11 14.0550001,10.7761424 14.0550001,10.5 C14.0550001,10.2238577 13.8311424,10 13.5550001,10 C13.2788577,10 13.0550001,10.2238577 13.0550001,10.5 C13.0550001,10.6380712 12.9430712,10.75 12.8050001,10.75 C12.6680458,10.74734 12.5576601,10.6369543 12.5550001,10.5 C12.5550001,9.94771529 13.0027153,9.50000004 13.5550001,9.50000004 C14.1072848,9.50000004 14.5550001,9.94771529 14.5550001,10.5 C14.5550001,11.0522848 14.1072848,11.5 13.5550001,11.5 L13.5550001,11.5 Z"/>
    <path fill="#000" fill-rule="nonzero" d="M11.355 17.1650005C11.2169289 17.1650005 11.105 17.0530713 11.105 16.9150001L11.105 10.5C11.105 10.3619289 11.2169289 10.25 11.355 10.25 11.4930712 10.25 11.605 10.3619289 11.605 10.5L11.605 16.9000001C11.6091394 16.9688627 11.5846391 17.036375 11.5372989 17.0865556 11.4899587 17.1367362 11.4239868 17.1651244 11.355 17.1650005zM12.8150001 17.1650005C12.6769289 17.1650005 12.5650001 17.0530713 12.5650001 16.9150001L12.5650001 10.5C12.5650001 10.3619289 12.6769289 10.25 12.8150001 10.25 12.9530712 10.25 13.0650001 10.3619289 13.0650001 10.5L13.0650001 16.9000001C13.0691394 16.9688627 13.0446391 17.036375 12.9972989 17.0865556 12.9499587 17.1367362 12.8839868 17.1651244 12.8150001 17.1650005z"/>
    <path fill="#CCC" fill-rule="nonzero" d="M14.4650001,17.0800001 L14.4650001,18.2250001 C14.4650001,19.5394378 13.3994378,20.6050001 12.0850001,20.6050001 L12.0850001,20.6050001 C10.7705623,20.6050001 9.70500004,19.5394378 9.70500004,18.2250001 L9.70500004,17.0800001"/>
    <path fill="#000" fill-rule="nonzero" d="M12.0850001,20.8550001 C10.6336324,20.8522487 9.45775145,19.6763678 9.45500004,18.2250001 L9.45500004,17.0800001 C9.45500004,16.9419289 9.56692885,16.8300001 9.70500004,16.8300001 C9.84307123,16.8300001 9.95500004,16.9419289 9.95500004,17.0800001 L9.95500004,18.2250001 C9.95500004,18.9859758 10.3609757,19.6891464 11.02,20.0696342 C11.6790243,20.4501221 12.4909758,20.4501221 13.1500001,20.0696342 C13.8090244,19.6891464 14.2150001,18.9859758 14.2150001,18.2250001 L14.2150001,17.0800001 C14.2150001,16.9419289 14.3269289,16.8300001 14.4650001,16.8300001 C14.6030712,16.8300001 14.7150001,16.9419289 14.7150001,17.0800001 L14.7150001,18.2250001 C14.7122486,19.6763678 13.5363677,20.8522487 12.0850001,20.8550001 Z"/>
    <path fill="#000" fill-rule="nonzero" d="M15.3050001 17.3300001L8.86500004 17.3300001C8.72692885 17.3300001 8.61500004 17.2180713 8.61500004 17.0800001 8.61500004 16.9419289 8.72692885 16.8300001 8.86500004 16.8300001L15.3050001 16.8300001C15.4430713 16.8300001 15.5550001 16.9419289 15.5550001 17.0800001 15.5550001 17.2180713 15.4430713 17.3300001 15.3050001 17.3300001zM12.8050001 18.8700001L11.365 18.8700001C11.2269289 18.8700001 11.115 18.7580713 11.115 18.6200001 11.1176601 18.4830459 11.2280458 18.3726601 11.365 18.3700001L12.8050001 18.3700001C12.9419543 18.3726601 13.05234 18.4830459 13.0550001 18.6200001 13.0550001 18.7580713 12.9430712 18.8700001 12.8050001 18.8700001z"/>
  </g>
</svg>
