<svg xmlns="http://www.w3.org/2000/svg" width="24" height="24" viewBox="0 0 24 24">
  <g fill="none" fill-rule="evenodd">
    <path fill="#000" fill-rule="nonzero" d="M12.5000001,10.92 L9.88000004,10.92 C9.74367012,10.9385092 9.64199666,11.0549194 9.64199666,11.1925 C9.64199666,11.3300807 9.74367012,11.4464909 9.88000004,11.465 L11.68,11.465 L11.68,12.4650001 C11.68,12.6168784 11.8031217,12.7400001 11.955,12.7400001 C12.1068784,12.7400001 12.2300001,12.6168784 12.2300001,12.4650001 L12.2300001,11.465 L12.5000001,11.465 C13.4913512,11.465 14.2950001,10.6613512 14.2950001,9.67000004 C14.2950001,8.67864891 13.4913512,7.87500003 12.5000001,7.87500003 L11.4,7.87500003 C10.7096441,7.87500003 10.15,7.31535597 10.15,6.62500003 C10.15,5.93464409 10.7096441,5.37500002 11.4,5.37500002 L14.0250001,5.37500002 C14.1768784,5.37500002 14.3000001,5.25187833 14.3000001,5.10000002 C14.3000001,4.94812171 14.1768784,4.82500002 14.0250001,4.82500002 L12.2250001,4.82500002 L12.2250001,3.82500002 C12.2250001,3.67312171 12.1018784,3.55000001 11.95,3.55000001 C11.7981217,3.55000001 11.675,3.67312171 11.675,3.82500002 L11.675,4.82500002 L11.4,4.82500002 C10.4440707,4.87543447 9.69483542,5.66524112 9.69483542,6.62250003 C9.69483542,7.57975893 10.4440707,8.36956558 11.4,8.42000004 L12.5000001,8.42000004 C13.190356,8.42000004 13.7500001,8.9796441 13.7500001,9.67000004 C13.7500001,10.360356 13.190356,10.92 12.5000001,10.92 L12.5000001,10.92 Z"/>
    <path fill="#000" fill-rule="nonzero" d="M21.1850001,9.36500004 L21.1850001,9.36500004 C21.1685827,9.3246213 21.1407902,9.28988058 21.1050001,9.26500004 L21.0800001,9.26500004 C21.0431027,9.23980933 20.9996673,9.22591003 20.9550001,9.22500004 L18.0000001,9.22500004 C17.8619289,9.22500004 17.7500001,9.33692885 17.7500001,9.47500004 C17.7500001,9.61307123 17.8619289,9.72500004 18.0000001,9.72500004 L20.3500001,9.72500004 L14.0000001,16.0800001 C13.9488096,16.1216051 13.8858495,16.1460896 13.8200001,16.1500001 C13.7513169,16.1503184 13.6857886,16.1211947 13.6400001,16.0700001 L10.885,13.1250001 C10.7429415,12.9796192 10.548264,12.89766 10.345,12.89766 C10.1417361,12.89766 9.94705862,12.9796192 9.80500004,13.1250001 L2.87000001,20.0250001 C2.82267185,20.0719417 2.79605043,20.1358407 2.79605043,20.2025001 C2.79605043,20.2691595 2.82267185,20.3330584 2.87000001,20.3800001 C2.96825109,20.4727036 3.12174893,20.4727036 3.22000001,20.3800001 L10.14,13.4600001 C10.1900245,13.4164286 10.2536817,13.391673 10.32,13.3900001 C10.3884198,13.3909097 10.4534765,13.4198238 10.5,13.4700001 L13.2550001,16.4150001 C13.3924723,16.5649139 13.5865972,16.6501836 13.7900001,16.6500001 C13.9941391,16.6544514 14.191158,16.5749208 14.3350001,16.4300001 L20.7050001,10.06 L20.7050001,12.5000001 C20.7050001,12.6380712 20.8169289,12.7500001 20.9550001,12.7500001 C21.0930713,12.7500001 21.2050048,12.6380712 21.2050048,12.5000001 L21.2050048,9.45000004 C21.2052115,9.42047672 21.1983538,9.39133157 21.1850001,9.36500004 L21.1850001,9.36500004 Z"/>
    <rect width="24" height="24"/>
  </g>
</svg>
