<svg xmlns="http://www.w3.org/2000/svg" width="24" height="24" viewBox="0 0 24 24">
  <g fill="none" fill-rule="evenodd">
    <rect width="24" height="24"/>
    <rect width="3.905" height="13.57" x="17.065" y="7.09" fill="#CCC" fill-rule="nonzero" rx="1.953" transform="rotate(-180 19.017 13.875)"/>
    <path fill="#1A1A1A" fill-rule="nonzero" d="M19.5350001,20.9100001 L18.5000001,20.9100001 C17.5694003,20.9100001 16.8150001,20.1555999 16.8150001,19.2250001 L16.8150001,8.53000004 C16.8150001,7.59940023 17.5694003,6.84500003 18.5000001,6.84500003 L19.5350001,6.84500003 C20.4655999,6.84500003 21.2200001,7.59940023 21.2200001,8.53000004 L21.2200001,19.2250001 C21.2200001,20.1555999 20.4655999,20.9100001 19.5350001,20.9100001 L19.5350001,20.9100001 Z M18.5000001,7.34500003 C17.8455426,7.34500003 17.3150001,7.8755426 17.3150001,8.53000004 L17.3150001,19.2250001 C17.3150001,19.8794575 17.8455426,20.4100001 18.5000001,20.4100001 L19.5350001,20.4100001 C20.1894575,20.4100001 20.7200001,19.8794575 20.7200001,19.2250001 L20.7200001,8.53000004 C20.7200001,7.8755426 20.1894575,7.34500003 19.5350001,7.34500003 L18.5000001,7.34500003 Z"/>
    <rect width="3.905" height="7.41" x="10.075" y="13.25" fill="#CCC" fill-rule="nonzero" rx="1.953" transform="rotate(-180 12.028 16.955)"/>
    <path fill="#1A1A1A" fill-rule="nonzero" d="M12.5000001,20.9100001 L11.57,20.9100001 C10.6035017,20.9100001 9.82000004,20.1264984 9.82000004,19.1600001 L9.82000004,14.7500001 C9.82000004,13.7835017 10.6035017,13.0000001 11.57,13.0000001 L12.5000001,13.0000001 C13.4664984,13.0000001 14.2500001,13.7835017 14.2500001,14.7500001 L14.2500001,19.1600001 C14.2500001,20.1264984 13.4664984,20.9100001 12.5000001,20.9100001 Z M11.57,13.5000001 C10.8796441,13.5000001 10.32,14.0596441 10.32,14.7500001 L10.32,19.1600001 C10.32,19.850356 10.8796441,20.4100001 11.57,20.4100001 L12.5000001,20.4100001 C13.190356,20.4100001 13.7500001,19.850356 13.7500001,19.1600001 L13.7500001,14.7500001 C13.7500001,14.0596441 13.190356,13.5000001 12.5000001,13.5000001 L11.57,13.5000001 Z"/>
    <rect width="3.905" height="10.645" x="3.055" y="10.015" fill="#CCC" fill-rule="nonzero" rx="1.953" transform="rotate(-180 5.008 15.338)"/>
    <path fill="#1A1A1A" fill-rule="nonzero" d="M5.53000002,20.9100001 L4.50000002,20.9100001 C3.56940021,20.9100001 2.81500001,20.1555999 2.81500001,19.2250001 L2.81500001,11.455 C2.81500001,10.5244002 3.56940021,9.77000004 4.50000002,9.77000004 L5.53500002,9.77000004 C6.46446009,9.77274588 7.21725419,10.52554 7.22000003,11.455 L7.22000003,19.2250001 C7.21724437,20.1564081 6.46141211,20.9100001 5.53000002,20.9100001 Z M4.50000002,10.27 C3.84554259,10.27 3.31500001,10.8005426 3.31500001,11.455 L3.31500001,19.2250001 C3.31500001,19.8794575 3.84554259,20.4100001 4.50000002,20.4100001 L5.53500002,20.4100001 C6.18831943,20.4072608 6.71726071,19.8783195 6.72000003,19.2250001 L6.72000003,11.455 C6.71726071,10.8016806 6.18831943,10.2727394 5.53500002,10.27 L4.50000002,10.27 Z"/>
    <path fill="#000" fill-rule="nonzero" d="M19.0400001,3.09000001 L17.1300001,3.09000001 C16.9919289,3.09000001 16.8800001,3.20192883 16.8800001,3.34000001 C16.8800001,3.4780712 16.9919289,3.59000001 17.1300001,3.59000001 L18.4450001,3.59000001 L12.6950001,9.76000004 C12.2850499,10.2061871 11.6126797,10.290762 11.105,9.96000004 L5.14500002,6.12500003 C5.02763951,6.05044159 4.87205846,6.08513952 4.79750002,6.20250003 C4.72294158,6.31986054 4.75763951,6.47544158 4.87500002,6.55000003 L10.835,10.38 C11.5459307,10.8407836 12.4854001,10.7225583 13.0600001,10.1 L18.7900001,3.95000002 L18.7900001,5.29500002 C18.7900001,5.43307121 18.9019289,5.54500002 19.0400001,5.54500002 C19.1780713,5.54500002 19.2900001,5.43307121 19.2900001,5.29500002 L19.2900001,3.34000001 C19.2900001,3.20192883 19.1780713,3.09000001 19.0400001,3.09000001 Z"/>
  </g>
</svg>
