<svg xmlns="http://www.w3.org/2000/svg" width="24" height="24" viewBox="0 0 24 24">
  <g fill="none" fill-rule="evenodd">
    <path fill="#000" fill-rule="nonzero" d="M2.45000001 13.7L1.55 13.7C.700000003 13.7.0500000002 13.0500001.0500000002 12.2L.0500000002 8.70000005C.0500000002 7.85000005.700000003 7.20000005 1.55 7.20000005L2.45000001 7.20000005C3.30000001 7.20000005 3.95000002 7.85000005 3.95000002 8.70000005L3.95000002 12.2C3.95000002 13.0500001 3.30000001 13.7 2.45000001 13.7zM9.45000004 13.7000001L8.55000003 13.7000001C7.70000003 13.7000001 7.05000003 13.0500001 7.05000003 12.2000001L7.05000003 6.10000004C7.05000003 5.25000004 7.70000003 4.60000004 8.55000003 4.60000004L9.45000004 4.60000004C10.3 4.60000004 10.95 5.25000004 10.95 6.10000004L10.95 12.2000001C10.95 13.0500001 10.25 13.7000001 9.45000004 13.7000001zM16.4500001 13.7000001L15.5500001 13.7000001C14.7000001 13.7000001 14.0500001 13.0500001 14.0500001 12.2000001L14.0500001 2.00000002C14.0500001 1.15000002 14.7000001.500000019 15.5500001.500000019L16.4500001.500000019C17.3000001.500000019 17.9500001 1.15000002 17.9500001 2.00000002L17.9500001 12.2500001C17.9500001 13.0500001 17.3000001 13.7000001 16.4500001 13.7000001z" transform="translate(3 7)"/>
    <rect width="24" height="24"/>
    <path fill="#000" fill-rule="nonzero" d="M0.275000001,8.17500316 C0.162877258,8.17385562 0.0652312735,8.09819768 0.0361225744,7.98991332 C0.00701387533,7.88162896 0.053563579,7.76720874 0.150000001,7.71000003 L10.89,1.55500001 L8.68000004,0.940000004 C8.57255521,0.906937689 8.49943669,0.80741526 8.50000004,0.695000003 C8.49760574,0.673399482 8.49760574,0.651600524 8.50000004,0.630000003 C8.5365323,0.497942037 8.67255522,0.419896096 8.80500004,0.455000002 L11.6,1.23500001 L11.6,1.23500001 C11.6559998,1.25011776 11.7042196,1.28583615 11.735,1.33500001 L11.735,1.33500001 C11.7451911,1.34888996 11.7535906,1.36400913 11.76,1.38000001 L11.76,1.38000001 C11.77495,1.42717731 11.77495,1.47782271 11.76,1.52500001 C11.76,1.52500001 11.76,1.52500001 11.76,1.52500001 L10.945,4.44500002 C10.9091015,4.58307121 10.7680712,4.66589853 10.63,4.63000002 C10.4919289,4.59410151 10.4091015,4.45307121 10.445,4.31500002 L11.13,2.00000001 L0.395000002,8.14500003 C0.358144395,8.16489384 0.316881444,8.17520957 0.275000001,8.17500316 Z" transform="translate(5 3)"/>
  </g>
</svg>
