<svg xmlns="http://www.w3.org/2000/svg" width="24" height="24" viewBox="0 0 24 24">
  <g fill="none" fill-rule="evenodd">
    <path fill="#000" fill-rule="nonzero" d="M19.5000001 6.84500003L18.5000001 6.84500003C17.5694003 6.84500003 16.8150001 7.59940023 16.8150001 8.53000004L16.8150001 19.2250001C16.8150001 20.1555999 17.5694003 20.9100001 18.5000001 20.9100001L19.5000001 20.9100001C20.4305999 20.9100001 21.1850001 20.1555999 21.1850001 19.2250001L21.1850001 8.53000004C21.1850001 7.59940023 20.4305999 6.84500003 19.5000001 6.84500003zM20.6850001 19.2250001C20.6850001 19.8794575 20.1544575 20.4100001 19.5000001 20.4100001L18.5000001 20.4100001C17.8466807 20.4072608 17.3177394 19.8783195 17.3150001 19.2250001L17.3150001 8.53000004C17.3177394 7.87668063 17.8466807 7.34773935 18.5000001 7.34500003L19.5000001 7.34500003C20.1544575 7.34500003 20.6850001 7.8755426 20.6850001 8.53000004L20.6850001 19.2250001zM12.4600001 13.0000001L11.555 13.0000001C10.5885017 13.0000001 9.80500004 13.7835017 9.80500004 14.7500001L9.80500004 19.1600001C9.80500004 20.1264984 10.5885017 20.9100001 11.555 20.9100001L12.4600001 20.9100001C13.4264984 20.9100001 14.2100001 20.1264984 14.2100001 19.1600001L14.2100001 14.7500001C14.2100001 13.7835017 13.4264984 13.0000001 12.4600001 13.0000001zM13.7100001 19.1600001C13.7100001 19.850356 13.150356 20.4100001 12.4600001 20.4100001L11.555 20.4100001C10.8657824 20.4072596 10.3077405 19.8492177 10.305 19.1600001L10.305 14.7500001C10.3077405 14.0607824 10.8657824 13.5027405 11.555 13.5000001L12.4600001 13.5000001C13.150356 13.5000001 13.7100001 14.0596441 13.7100001 14.7500001L13.7100001 19.1600001zM5.50000002 9.77000004L4.50000002 9.77000004C3.56940021 9.77000004 2.81500001 10.5244002 2.81500001 11.455L2.81500001 19.2250001C2.81500001 20.1555999 3.56940021 20.9100001 4.50000002 20.9100001L5.50000002 20.9100001C5.94688981 20.9100001 6.37547616 20.7324738 6.69147495 20.416475 7.00747375 20.1004762 7.18500003 19.6718899 7.18500003 19.2250001L7.18500003 11.455C7.18500003 11.0081103 7.00747375 10.5795239 6.69147495 10.2635251 6.37547616 9.94752632 5.94688981 9.77000004 5.50000002 9.77000004zM6.70000003 19.2250001C6.69868146 19.5414805 6.57134908 19.8443992 6.3461587 20.0667747 6.12096833 20.2891502 5.81647195 20.4126624 5.50000002 20.4100422L4.50000002 20.4100422C3.84554259 20.4100422 3.31500001 19.8794575 3.31500001 19.2250001L3.31500001 11.455C3.31500001 10.8005426 3.84554259 10.27 4.50000002 10.27L5.50000002 10.27C6.15331943 10.2727394 6.68226071 10.8016806 6.68500003 11.455L6.70000003 19.2250001zM4.86000002 6.55000003L10.82 10.38C11.5309307 10.8407836 12.4704001 10.7225583 13.0450001 10.1L18.7800001 3.95000002 18.7800001 5.29500002C18.7800001 5.43307121 18.8919289 5.54500002 19.0300001 5.54500002 19.1680713 5.54500002 19.2800001 5.43307121 19.2800001 5.29500002L19.2800001 3.34000001C19.2800001 3.20192883 19.1680713 3.09000001 19.0300001 3.09000001L17.1150001 3.09000001C16.9769289 3.09000001 16.8650001 3.20192883 16.8650001 3.34000001 16.8650001 3.4780712 16.9769289 3.59000001 17.1150001 3.59000001L18.4300001 3.59000001 12.6800001 9.76000004C12.2680612 10.2023175 11.5986481 10.2865204 11.09 9.96000004L5.13000002 6.12500003C5.01263951 6.05044159 4.85705847 6.08513952 4.78250003 6.20250003 4.70794159 6.31986054 4.74263952 6.47544158 4.86000002 6.55000003z"/>
    <rect width="24" height="24"/>
  </g>
</svg>
