<svg xmlns="http://www.w3.org/2000/svg" width="24" height="24" viewBox="0 0 24 24">
  <g fill="none" fill-rule="evenodd">
    <path fill="#000" fill-rule="nonzero" d="M5.45000002 14.1450001L4.54500002 14.1450001C3.5785017 14.1450001 2.79500001 14.9285017 2.79500001 15.8950001L2.79500001 19.3950001C2.79500001 20.3614984 3.5785017 21.1450001 4.54500002 21.1450001L5.45000002 21.1450001C6.41649834 21.1450001 7.20000003 20.3614984 7.20000003 19.3950001L7.20000003 15.8950001C7.20000003 14.9285017 6.41649834 14.1450001 5.45000002 14.1450001L5.45000002 14.1450001zM6.70000003 19.3950001C6.70000003 19.7265207 6.56830398 20.0444631 6.3338835 20.2788836 6.09946303 20.513304 5.78152064 20.6450001 5.45000002 20.6450001L4.54500002 20.6450001C3.85464408 20.6450001 3.29500001 20.085356 3.29500001 19.3950001L3.29500001 15.8950001C3.29500001 15.2046441 3.85464408 14.6450001 4.54500002 14.6450001L5.45000002 14.6450001C6.14035596 14.6450001 6.70000003 15.2046441 6.70000003 15.8950001L6.70000003 19.3950001zM12.4450001 11.545L11.535 11.545C10.5685017 11.545 9.78500004 12.3285017 9.78500004 13.2950001L9.78500004 19.3950001C9.78500004 20.3614984 10.5685017 21.1450001 11.535 21.1450001L12.4450001 21.1450001C13.4114984 21.1450001 14.1950001 20.3614984 14.1950001 19.3950001L14.1950001 13.2950001C14.1950001 12.3285017 13.4114984 11.545 12.4450001 11.545zM13.6950001 19.3950001C13.6922596 20.0842177 13.1342177 20.6422596 12.4450001 20.6450001L11.535 20.6450001C10.8457824 20.6422596 10.2877405 20.0842177 10.285 19.3950001L10.285 13.2950001C10.2877405 12.6057824 10.8457824 12.0477405 11.535 12.0450001L12.4450001 12.0450001C13.1342177 12.0477405 13.6922596 12.6057824 13.6950001 13.2950001L13.6950001 19.3950001zM19.4550001 7.40500003L18.5500001 7.40500003C18.0858712 7.40500003 17.6407519 7.5893745 17.3125632 7.91756317 16.9843745 8.24575183 16.8000001 8.69087118 16.8000001 9.15500004L16.8000001 19.3950001C16.8000001 20.3614984 17.5835018 21.1450001 18.5500001 21.1450001L19.4550001 21.1450001C20.4214984 21.1450001 21.2050001 20.3614984 21.2050001 19.3950001L21.2050001 9.15500004C21.2050001 8.18850172 20.4214984 7.40500003 19.4550001 7.40500003zM20.7050001 19.405C20.7050001 20.095356 20.145356 20.6550001 19.4550001 20.6550001L18.5500001 20.6550001C17.8596441 20.6550001 17.3000001 20.095356 17.3000001 19.405L17.3000001 9.15500004C17.3027405 8.46578243 17.8607825 7.90774049 18.5500001 7.90500003L19.4550001 7.90500003C20.1442177 7.90774049 20.7022596 8.46578243 20.7050001 9.15500004L20.7050001 19.405zM16.7000001 4.35500002C16.6645231 4.30827258 16.6157077 4.27340443 16.5600001 4.25500002L16.5600001 4.25500002 13.7700001 3.50000001C13.7056735 3.48161551 13.6366622 3.4897808 13.5784022 3.52266949 13.5201422 3.55555819 13.4774951 3.61042592 13.4600001 3.67500002 13.4576058 3.69660054 13.4576058 3.71839949 13.4600001 3.74000002 13.4606316 3.85251626 13.5363512 3.9507471 13.6450001 3.98000002L15.8550001 4.59500002 5.10500002 10.73C4.9866456 10.8014529 4.94490629 10.9530325 5.01000002 11.075 5.05603108 11.1526778 5.13970807 11.2002215 5.23000002 11.2000055 5.27412637 11.2003008 5.31744584 11.1881713 5.35500002 11.165L16.0850001 5.00000002 15.4350001 7.34000003C15.3996223 7.47369129 15.477257 7.6112157 15.6100001 7.65000003 15.7424449 7.68510394 15.8784678 7.607058 15.9150001 7.47500003L16.7300001 4.55000002C16.7428005 4.50421112 16.7428005 4.45578891 16.7300001 4.41000002 16.7300001 4.41000002 16.7100001 4.37000002 16.7000001 4.35500002z"/>
    <rect width="24" height="24"/>
  </g>
</svg>
