<svg xmlns="http://www.w3.org/2000/svg" width="24" height="24" viewBox="0 0 24 24">
  <g fill="none" fill-rule="evenodd">
    <rect width="24" height="24"/>
    <path fill="#000" fill-rule="nonzero" d="M12.6350001,7.20500003 L11.535,7.20500003 C10.8446441,7.20500003 10.285,6.64535596 10.285,5.95500002 C10.285,5.26464408 10.8446441,4.70500002 11.535,4.70500002 L14.1600001,4.70500002 C14.3099222,4.70227371 14.4300001,4.57994694 14.4300001,4.43000002 C14.4300001,4.28088314 14.3091169,4.16000002 14.1600001,4.16000002 L12.3600001,4.16000002 L12.3600001,3.16000001 C12.3600001,3.00812171 12.2368784,2.88500001 12.0850001,2.88500001 C11.9331217,2.88500001 11.81,3.00812171 11.81,3.16000001 L11.81,4.16000002 L11.535,4.16000002 C10.5436489,4.16000002 9.74000004,4.96364889 9.74000004,5.95500002 C9.74000004,6.94635115 10.5436489,7.75000003 11.535,7.75000003 L12.6350001,7.75000003 C13.325356,7.75000003 13.8850001,8.3096441 13.8850001,9.00000004 C13.8850001,9.69035598 13.325356,10.25 12.6350001,10.25 L10,10.25 C9.86367012,10.2685092 9.76199666,10.3849194 9.76199666,10.5225 C9.76199666,10.6600807 9.86367012,10.7764909 10,10.795 L11.8,10.795 L11.8,11.795 C11.8,11.9468784 11.9231217,12.0700001 12.0750001,12.0700001 C12.2268784,12.0700001 12.3500001,11.9468784 12.3500001,11.795 L12.3500001,10.795 L12.6250001,10.795 C13.6163512,10.795 14.4200001,9.99135117 14.4200001,9.00000004 C14.4200001,8.00864891 13.6163512,7.20500003 12.6250001,7.20500003 L12.6350001,7.20500003 Z"/>
    <g fill="#000" fill-rule="nonzero" transform="translate(2.5 8.5)">
      <path d="M0.675000003,11.2850175 C0.608698072,11.2858083 0.54514017,11.2585692 0.500000002,11.21 C0.452671839,11.1630584 0.426050421,11.0991594 0.426050421,11.0325 C0.426050421,10.9658407 0.452671839,10.9019417 0.500000002,10.855 L7.41500003,3.94000002 C7.55559178,3.79025992 7.75485478,3.70982348 7.96000003,3.72000002 C8.16351289,3.72408441 8.35662441,3.81071388 8.49500004,3.96000002 L11.25,6.90500003 C11.2966824,6.95434687 11.3620899,6.98159997 11.43,6.98000003 C11.4969544,6.98172024 11.5617991,6.95650285 11.61,6.91000003 L18.0000001,0.535 L15.6050001,0.535 C15.4669289,0.535 15.3550001,0.423071189 15.3550001,0.285000001 C15.3550001,0.146928813 15.4669289,0.0350000001 15.6050001,0.0350000001 L18.6050001,0.0350000001 C18.7055182,0.0368102908 18.7955911,0.0975116217 18.8350001,0.190000001 C18.8761324,0.284132213 18.8541731,0.393928848 18.7800001,0.465000002 L11.965,7.26500003 C11.8209822,7.40910267 11.6236129,7.48696394 11.42,7.48000003 C11.2165972,7.48018361 11.0224723,7.39491382 10.885,7.24500003 L8.13000003,4.30000002 C8.0834765,4.24982375 8.01841984,4.22090967 7.95000003,4.22000002 C7.88159214,4.21559162 7.81503868,4.24332223 7.77000003,4.29500002 L0.850000004,11.21 C0.804859836,11.2585692 0.741301933,11.2858083 0.675000003,11.2850175 Z"/>
      <path d="M18.5850001,3.58500001 C18.4469289,3.58500001 18.3350001,3.4730712 18.3350001,3.33500001 L18.3350001,0.285000001 C18.3350001,0.146928813 18.4469289,0.0350000001 18.5850001,0.0350000001 C18.7230713,0.0350000001 18.8350001,0.146928813 18.8350001,0.285000001 L18.8350001,3.33500001 C18.8350001,3.4730712 18.7230713,3.58500001 18.5850001,3.58500001 Z"/>
    </g>
  </g>
</svg>
