<svg xmlns="http://www.w3.org/2000/svg" width="24" height="24" viewBox="0 0 24 24">
  <g fill="none" fill-rule="evenodd">
    <rect width="24" height="24"/>
    <path fill="#000" fill-rule="nonzero" d="M14.295,21.55 L8.75000002,21.55 C6.68007418,21.5472456 5.0027544,19.8699258 5,17.8 L5,10.475 C5,10.3369288 5.11192881,10.225 5.25,10.225 L17.8000001,10.225 C17.9380712,10.225 18.0500001,10.3369288 18.0500001,10.475 L18.0500001,17.8 C18.0472412,19.8718763 16.3668782,21.55 14.295,21.55 Z M5.495,10.725 L5.495,17.8 C5.49775332,19.5937837 6.95121627,21.0472467 8.74500002,21.05 L14.295,21.05 C16.0887838,21.0472467 17.5422467,19.5937837 17.5450001,17.8 L17.5450001,10.725 L5.495,10.725 Z"/>
    <path fill="#000" fill-rule="nonzero" d="M16.055 10.725C15.9169289 10.725 15.805 10.6130711 15.805 10.475L15.805 7.78499995C15.805 5.41845979 13.8865402 3.5 11.52 3.5 9.15345986 3.5 7.23500001 5.41845979 7.23500001 7.78499995L7.2279053 10.3571704C7.2279053 10.4952416 7.11597649 10.6071704 6.9779053 10.6071704 6.83983411 10.6071704 6.7279053 10.4952416 6.7279053 10.3571704L6.73500001 7.78499995C6.73500005 5.14231744 8.87731752 3 11.52 3 14.1626825 3 16.305 5.14231744 16.305 7.78499995L16.305 10.475C16.305 10.6130711 16.1930712 10.725 16.055 10.725zM11.52 16.3550081C10.8921781 16.357022 10.3251438 15.9801197 10.0839518 15.4004726 9.8427598 14.8208254 9.97505313 14.1529319 10.4189926 13.7089925 10.862932 13.2650531 11.5308254 13.1327598 12.1104726 13.3739518 12.6901198 13.6151438 13.067022 14.1821781 13.0650081 14.81 13.0650081 15.2197595 12.9022237 15.6127363 12.61248 15.90248 12.3227363 16.1922237 11.9297595 16.3550081 11.52 16.3550081L11.52 16.3550081zM11.52 13.759988C11.0948655 13.7579755 10.7104655 14.0125122 10.5463689 14.4047057 10.3822723 14.7968992 10.4708675 15.2493406 10.770768 15.5506761 11.0706686 15.8520116 11.5226819 15.9427654 11.9156542 15.7805427 12.3086265 15.6183199 12.565 15.2351393 12.565 14.81 12.565 14.232048 12.0979454 13.7627521 11.52 13.759988L11.52 13.759988z"/>
    <path fill="#000" fill-rule="nonzero" d="M11.52,18.515 C11.3819288,18.515 11.27,18.4030712 11.27,18.265 L11.27,16.105 C11.27,15.9669288 11.3819288,15.855 11.52,15.855 C11.6580712,15.855 11.77,15.9669288 11.77,16.105 L11.77,18.265 C11.76734,18.4019542 11.6569543,18.5123399 11.52,18.515 L11.52,18.515 Z"/>
  </g>
</svg>
