<svg xmlns="http://www.w3.org/2000/svg" width="24" height="24" viewBox="0 0 24 24">
  <g fill="none" fill-rule="evenodd">
    <rect width="24" height="24"/>
    <path fill="#CCC" fill-rule="nonzero" d="M5.50000002,10.03 L18.0500001,10.03 L18.0500001,17.3550001 C18.0500001,19.2879967 16.4829967,20.8550001 14.5500001,20.8550001 L9.00000002,20.8550001 C7.06700341,20.8550001 5.50000002,19.2879967 5.50000002,17.3550001 L5.50000002,10.03 Z"/>
    <path fill="#000" fill-rule="nonzero" d="M14.5450001,21.1050001 L9.00000004,21.1050001 C6.9300742,21.1022457 5.25275442,19.4249259 5.25000002,17.3550001 L5.25000002,10.03 C5.25000002,9.89192885 5.36192883,9.78000004 5.50000002,9.78000004 L18.0500001,9.78000004 C18.1880713,9.78000004 18.3000001,9.89192885 18.3000001,10.03 L18.3000001,17.3550001 C18.2972413,19.4268764 16.6168783,21.1050001 14.5450001,21.1050001 Z M5.74500002,10.28 L5.74500002,17.3550001 C5.74775334,19.1487838 7.20121629,20.6022468 8.99500004,20.6050001 L14.5450001,20.6050001 C16.3387838,20.6022468 17.7922468,19.1487838 17.7950001,17.3550001 L17.7950001,10.28 L5.74500002,10.28 Z"/>
    <path fill="#000" fill-rule="nonzero" d="M16.3050001,10.28 C16.1669289,10.28 16.0550001,10.1680712 16.0550001,10.03 L16.0550001,7.34000003 C16.0550001,4.97345987 14.1365402,3.05500008 11.77,3.05500008 C9.40345989,3.05500008 7.48500003,4.97345987 7.48500003,7.34000003 L7.47790532,9.91217046 C7.47790532,10.0502416 7.36597651,10.1621705 7.22790532,10.1621705 C7.08983414,10.1621705 6.97790532,10.0502416 6.97790532,9.91217046 L6.98500003,7.34000003 C6.98500007,4.69731752 9.12731754,2.55500008 11.77,2.55500008 C14.4126826,2.55500008 16.5550001,4.69731752 16.5550001,7.34000003 L16.5550001,10.03 C16.5550001,10.1680712 16.4430713,10.28 16.3050001,10.28 Z"/>
    <circle cx="11.77" cy="14.365" r="1.295" fill="#FFF" fill-rule="nonzero"/>
    <path fill="#000" fill-rule="nonzero" d="M11.77,15.9100082 C11.1421782,15.9120221 10.5751438,15.5351198 10.3339518,14.9554726 C10.0927598,14.3758255 10.2250532,13.707932 10.6689926,13.2639926 C11.112932,12.8200532 11.7808255,12.6877598 12.3604726,12.9289518 C12.9401198,13.1701439 13.317022,13.7371782 13.3150082,14.3650001 C13.3150082,14.7747595 13.1522237,15.1677363 12.86248,15.45748 C12.5727363,15.7472237 12.1797595,15.9100082 11.77,15.9100082 L11.77,15.9100082 Z M11.77,13.3149881 C11.3448655,13.3129756 10.9604656,13.5675123 10.7963689,13.9597058 C10.6322723,14.3518993 10.7208675,14.8043407 11.0207681,15.1056762 C11.3206686,15.4070117 11.772682,15.4977655 12.1656543,15.3355427 C12.5586266,15.17332 12.8150001,14.7901394 12.8150001,14.3650001 C12.8150001,13.7870481 12.3479455,13.3177522 11.77,13.3149881 L11.77,13.3149881 Z"/>
    <path fill="#000" fill-rule="nonzero" d="M11.77,18.0700001 C11.6319289,18.0700001 11.52,17.9580713 11.52,17.8200001 L11.52,15.6600001 C11.52,15.5219289 11.6319289,15.4100001 11.77,15.4100001 C11.9080712,15.4100001 12.02,15.5219289 12.02,15.6600001 L12.02,17.8200001 C12.01734,17.9569543 11.9069543,18.06734 11.77,18.0700001 L11.77,18.0700001 Z"/>
  </g>
</svg>
