<svg xmlns="http://www.w3.org/2000/svg" width="24" height="24" viewBox="0 0 24 24">
  <g fill="none" fill-rule="evenodd">
    <g transform="translate(5.5 2.5)">
      <path d="M6.50000003,0.850000004 C4.15000002,0.850000004 2.20000001,2.75000001 2.20000001,5.15000002 L2.20000001,7.85 L10.75,7.85 L10.75,5.15000002 C10.8,2.75000001 8.85000004,0.850000004 6.50000003,0.850000004 Z"/>
      <path fill="#000" fill-rule="nonzero" d="M11.3,7.85 L11.3,5.15000002 C11.3,2.50000001 9.15000004,0.350000001 6.50000003,0.350000001 C3.85000002,0.350000001 1.7,2.50000001 1.7,5.15000002 L1.7,7.85 L0.200000001,7.85 L0.200000001,15.1500001 C0.200000001,17.1000001 1.75000001,18.6500001 3.7,18.6500001 L9.25000004,18.6500001 C11.2,18.6500001 12.7500001,17.1000001 12.7500001,15.1500001 L12.7500001,7.85 L11.3,7.85 Z M6.75000003,13.45 C6.75000003,13.45 6.75000003,13.45 6.75000003,13.45 L6.75000003,15.6500001 C6.75000003,15.8000001 6.65000003,15.9000001 6.50000003,15.9000001 C6.35000003,15.9000001 6.25000003,15.8000001 6.25000003,15.6500001 L6.25000003,13.5000001 C6.25000003,13.5000001 6.25000003,13.5000001 6.25000003,13.5000001 C5.65000002,13.4000001 5.20000002,12.8500001 5.20000002,12.2500001 C5.20000002,11.55 5.80000002,10.95 6.50000003,10.95 C7.20000002,10.95 7.80000003,11.55 7.80000003,12.2500001 C7.80000003,12.8000001 7.35000003,13.3000001 6.75000003,13.45 Z M10.8,7.85 L2.20000001,7.85 L2.20000001,5.15000002 C2.20000001,2.80000001 4.10000002,0.850000004 6.50000003,0.850000004 C8.85000004,0.850000004 10.8,2.75000001 10.8,5.15000002 L10.8,7.85 Z"/>
    </g>
    <rect width="24" height="24"/>
  </g>
</svg>
