<svg xmlns="http://www.w3.org/2000/svg" width="24" height="24" viewBox="0 0 24 24">
  <g fill="none" fill-rule="evenodd">
    <rect width="24" height="24"/>
    <path fill="#1A1A1A" fill-rule="nonzero" d="M14.9100001,14.8400083 C11.5568353,14.8317206 8.84449203,12.1081952 8.84999986,8.75502472 C8.85552448,5.40185426 11.5768138,2.68726757 14.9299877,2.69001849 C18.2831616,2.69277358 21.0000001,5.41182503 21.0000001,8.76500004 C20.9986755,10.3783839 20.3561478,11.9250879 19.213907,13.0645154 C18.0716661,14.2039428 16.5233822,14.8426542 14.9100001,14.8400083 Z M14.9100001,3.18999772 C11.8329788,3.19827902 9.34449336,5.69794566 9.34999984,8.77497314 C9.35552463,11.8520006 11.8529554,14.3427299 14.9299866,14.3399799 C18.0070178,14.3372254 20.5000001,11.8420325 20.5000001,8.76500004 C20.494482,5.68244271 17.9925611,3.18723539 14.9100001,3.18999772 Z"/>
    <path fill="#1A1A1A" fill-rule="nonzero" d="M8.72500004,15.2000046 C8.62498124,15.198595 8.53542794,15.1377065 8.49734204,15.0452122 C8.45925615,14.9527179 8.47997011,14.8464251 8.55000004,14.7750001 L10.615,12.7050001 C10.7139069,12.6091084 10.8710932,12.6091084 10.97,12.7050001 C11.0173282,12.7519417 11.0439496,12.8158407 11.0439496,12.8825001 C11.0439496,12.9491594 11.0173282,13.0130584 10.97,13.0600001 L8.90000004,15.1300001 C8.8530334,15.1752714 8.79023194,15.2003919 8.72500004,15.2000046 L8.72500004,15.2000046 Z"/>
    <path fill="#CCC" fill-rule="nonzero" d="M4.73499669,13.9430539 L7.73499669,13.9430539 L7.73499669,19.5980539 C7.73499669,20.426481 7.06342383,21.0980539 6.23499669,21.0980539 L6.23499669,21.0980539 C5.40656957,21.0980539 4.73499669,20.426481 4.73499669,19.5980539 L4.73499669,13.9430539 Z" transform="rotate(45 6.235 17.52)"/>
    <path fill="#1A1A1A" fill-rule="nonzero" d="M4.76500002,20.7450028 C4.05357158,20.746245 3.41177436,20.317873 3.14001612,19.6603934 C2.86825788,19.0029138 3.0203096,18.2464176 3.52500001,17.7450001 L7.52500003,13.7450001 C7.62390687,13.6491084 7.78109319,13.6491084 7.88000003,13.7450001 L10,15.8800001 C10.0958917,15.9789069 10.0958917,16.1360932 10,16.2350001 L6.00000002,20.2350001 C5.67077345,20.5598208 5.22748694,20.7428784 4.76500002,20.7450028 Z M7.70500003,14.2850001 L3.88000002,18.1050001 C3.38984732,18.5951528 3.38984732,19.3898474 3.88000003,19.8800001 C4.37015275,20.3701528 5.1648473,20.3701528 5.65500002,19.8800001 L9.50000004,16.0550001 L7.70500003,14.2850001 Z"/>
    <path fill="#000" fill-rule="nonzero" d="M15.4050001,8.50000004 L14.4050001,8.50000004 C13.7864411,8.50000004 13.2850001,7.99855895 13.2850001,7.38000003 C13.2850001,6.76144111 13.7864411,6.26000003 14.4050001,6.26000003 L16.7600001,6.26000003 C16.8980713,6.26000003 17.0100001,6.14807121 17.0100001,6.01000003 C17.0100001,5.87192884 16.8980713,5.76000002 16.7600001,5.76000002 L15.1600001,5.76000002 L15.1600001,4.87500002 C15.1600001,4.73692883 15.0480713,4.62500002 14.9100001,4.62500002 C14.7730458,4.62766007 14.6626601,4.73804579 14.6600001,4.87500002 L14.6600001,5.77500002 L14.4200001,5.77500002 C13.5252988,5.77500002 12.8000001,6.50029873 12.8000001,7.39500003 C12.8000001,8.28970133 13.5252988,9.01500004 14.4200001,9.01500004 L15.4200001,9.01500004 C15.8370854,8.9870856 16.2350049,9.193765 16.4520258,9.55103427 C16.6690467,9.90830354 16.6690467,10.3566965 16.4520258,10.7139658 C16.2350049,11.0712351 15.8370854,11.2779145 15.4200001,11.25 L13.0500001,11.25 C12.9119289,11.25 12.8000001,11.3619289 12.8000001,11.5 C12.8000001,11.6380712 12.9119289,11.75 13.0500001,11.75 L14.6600001,11.75 L14.6600001,12.6500001 C14.6600001,12.7880712 14.7719289,12.9000001 14.9100001,12.9000001 C15.0480713,12.9000001 15.1600001,12.7880712 15.1600001,12.6500001 L15.1600001,11.75 L15.4050001,11.75 C16.0043366,11.7833351 16.5729774,11.4825391 16.8826848,10.9683437 C17.1923922,10.4541484 17.1923922,9.81085171 16.8826848,9.29665634 C16.5729774,8.78246097 16.0043366,8.48166497 15.4050001,8.51500004 L15.4050001,8.50000004 Z"/>
  </g>
</svg>
