<svg xmlns="http://www.w3.org/2000/svg" width="24" height="24" viewBox="0 0 24 24">
  <g fill="none" fill-rule="evenodd">
    <path fill="#1A1A1A" fill-rule="nonzero" d="M11.9,0.200000001 C15.1500001,0.200000001 17.75,2.80000001 17.75,6.05000003 C17.75,9.30000004 15.1000001,11.9 11.9,11.9 C10.35,11.9 9.00000004,11.3 7.95000003,10.35 L7.95000003,10.35 L5.90000002,12.4000001 L6.85000003,13.3500001 L2.85000001,17.3500001 C2.25,17.9500001 1.30000001,17.9500001 0.700000003,17.3500001 C0.1,16.7500001 0.1,15.8000001 0.700000003,15.2 L0.700000003,15.2 L4.70000002,11.2 L5.55000002,12.0500001 L7.60000003,10 C6.65000003,8.95000004 6.05000003,7.55000003 6.05000003,6.05000003 C6.05000003,2.80000001 8.70000004,0.200000001 11.9,0.200000001 Z M11.9,1.95000001 C11.75,1.95000001 11.65,2.05000001 11.65,2.20000001 L11.65,3.10000001 L11.4,3.10000001 C10.5,3.10000001 9.80000004,3.85000002 9.80000004,4.70000002 C9.80000004,5.60000002 10.55,6.30000003 11.4,6.30000003 L12.4000001,6.30000003 C13.0000001,6.30000003 13.5000001,6.80000003 13.5000001,7.40000003 C13.5000001,8.00000003 13.0000001,8.50000004 12.4000001,8.50000004 L10.05,8.50000004 C9.90000004,8.50000004 9.80000004,8.60000004 9.80000004,8.75000004 C9.80000004,8.90000004 9.90000004,9.00000004 10.05,9.00000004 L11.65,9.00000004 L11.65,9.90000004 C11.65,10.05 11.75,10.15 11.9,10.15 C12.0500001,10.15 12.1500001,10.05 12.1500001,9.90000004 L12.1500001,9.00000004 L12.4000001,9.00000004 C13.3,9.00000004 14.0000001,8.25000003 14.0000001,7.40000003 C14.0000001,6.55000003 13.3,5.80000002 12.4000001,5.80000002 L11.4,5.80000002 C10.8,5.80000002 10.3,5.30000002 10.3,4.70000002 C10.3,4.10000002 10.8,3.60000002 11.4,3.60000002 L13.7500001,3.60000002 C13.9000001,3.60000002 14.0000001,3.50000001 14.0000001,3.35000001 C14.0000001,3.20000001 13.9000001,3.10000001 13.7500001,3.10000001 L12.1500001,3.10000001 L12.1500001,2.20000001 C12.1500001,2.05000001 12.0500001,1.95000001 11.9,1.95000001 Z" transform="translate(3 3)"/>
    <rect width="24" height="24"/>
  </g>
</svg>
