<svg xmlns="http://www.w3.org/2000/svg" width="24" height="24" viewBox="0 0 24 24">
  <g fill="none" fill-rule="evenodd">
    <g fill="#000" fill-rule="nonzero" transform="translate(6.5 3)">
      <polygon points="11 13.65 11 13.65 11 3.55 11 3.55 0 3.55 0 3.55 0 13.65 0 13.65"/>
      <path d="M0 14.1500001C0 14.1500001 0 14.1500001 0 14.1500001L0 15.4500001C0 16.8500001 1.15 18.0000001 2.55000001 18.0000001L8.45000004 18.0000001C9.85000004 18.0000001 11 16.8500001 11 15.4500001L11 14.1500001 11 14.1500001 0 14.1500001zM5.50000002 16.6500001C5.05000002 16.6500001 4.65000002 16.3000001 4.65000002 15.8000001 4.65000002 15.3500001 5.00000002 14.9500001 5.50000002 14.9500001 6.00000003 14.9500001 6.35000003 15.3000001 6.35000003 15.8000001 6.35000003 16.2500001 5.95000002 16.6500001 5.50000002 16.6500001zM11 3.05000001L11 3.05000001 11 2.55000001C11 1.15 9.85000004 0 8.45000004 0L2.55000001 0C1.15 0 0 1.15 0 2.55000001L0 3.05000001C0 3.05000001 0 3.05000001 0 3.05000001L11 3.05000001zM4.40000002 1.45000001L6.60000003 1.45000001C6.75000003 1.45000001 6.85000003 1.55000001 6.85000003 1.70000001 6.85000003 1.85000001 6.75000003 1.95000001 6.60000003 1.95000001L4.40000002 1.95000001C4.25000002 1.95000001 4.15000002 1.85000001 4.15000002 1.70000001 4.15000002 1.55000001 4.25000002 1.45000001 4.40000002 1.45000001z"/>
    </g>
    <rect width="24" height="24"/>
  </g>
</svg>
