<svg xmlns="http://www.w3.org/2000/svg" width="24" height="24" viewBox="0 0 24 24">
  <g fill="none" fill-rule="evenodd">
    <rect width="24" height="24"/>
    <rect width="10.965" height="17.975" x="6.445" y="2.83" fill="#CCC" fill-rule="nonzero" rx="3"/>
    <path fill="#000" fill-rule="nonzero" d="M14.8750001,21.0550001 L9.00000004,21.0550001 C7.46383751,21.0550001 6.21775795,19.8111601 6.21500003,18.2750001 L6.21500003,5.36500002 C6.217752,3.82802833 7.46302835,2.58275198 9.00000004,2.58000001 L14.8750001,2.58000001 C16.4119718,2.58275198 17.6572481,3.82802833 17.6600001,5.36500002 L17.6600001,18.2750001 C17.6572422,19.8111601 16.4111626,21.0550001 14.8750001,21.0550001 L14.8750001,21.0550001 Z M9.00000004,3.08000001 C7.73917019,3.08274992 6.71774994,4.10417017 6.71500003,5.36500002 L6.71500003,18.2750001 C6.71775718,19.5350177 7.73997942,20.5550001 9.00000004,20.5550001 L14.8750001,20.5550001 C16.1350207,20.5550001 17.1572429,19.5350177 17.1600001,18.2750001 L17.1600001,5.36500002 C17.1572502,4.10417017 16.1358299,3.08274992 14.8750001,3.08000001 L9.00000004,3.08000001 Z"/>
    <path fill="#000" fill-rule="nonzero" d="M17.4100001,6.39000002 L6.44500003,6.39000002 C6.30692884,6.39000002 6.19500003,6.27807121 6.19500003,6.14000003 C6.19500003,6.00192884 6.30692884,5.89000002 6.44500003,5.89000002 L17.4100001,5.89000002 C17.5480713,5.89000002 17.6600001,6.00192884 17.6600001,6.14000003 C17.6600001,6.27807121 17.5480713,6.39000002 17.4100001,6.39000002 Z"/>
    <circle cx="11.93" cy="18.63" r="1" fill="#FFF" fill-rule="nonzero"/>
    <path fill="#000" fill-rule="nonzero" d="M11.925 19.7150001C11.4852712 19.7190531 11.0865821 19.4572865 10.9154893 19.0521875 10.7443966 18.6470886 10.83474 18.1787801 11.1442455 17.8663954 11.4537511 17.5540107 11.921203 17.4593351 12.3278688 17.6266697 12.7345345 17.7940042 13.0000001 18.1902525 13.0000001 18.6300001 13.0000253 19.2253454 12.5203201 19.709513 11.925 19.7150001L11.925 19.7150001zM11.925 18.0500001C11.6870682 18.0459407 11.4703879 18.1864122 11.3769762 18.4052781 11.2835644 18.6241441 11.3320387 18.8777833 11.4995764 19.0467778 11.6671141 19.2157724 11.9203241 19.2664408 12.1399906 19.1749275 12.3596571 19.0834142 12.5019993 18.8679582 12.5000001 18.6300001 12.5000208 18.3116174 12.2433709 18.0527448 11.925 18.0500001zM13.0400001 4.77000002L10.815 4.77000002C10.6769289 4.77000002 10.565 4.65807121 10.565 4.52000002 10.5676601 4.38304579 10.6780458 4.27266007 10.815 4.27000002L13.0400001 4.27000002C13.1769543 4.27266007 13.28734 4.38304579 13.2900001 4.52000002 13.2900001 4.65807121 13.1780712 4.77000002 13.0400001 4.77000002zM17.4100001 17.0000001L6.44500003 17.0000001C6.30692884 17.0000001 6.19500003 16.8880713 6.19500003 16.7500001 6.19500003 16.6119289 6.30692884 16.5000001 6.44500003 16.5000001L17.4100001 16.5000001C17.5480713 16.5000001 17.6600001 16.6119289 17.6600001 16.7500001 17.6600001 16.8880713 17.5480713 17.0000001 17.4100001 17.0000001z"/>
  </g>
</svg>
