<svg xmlns="http://www.w3.org/2000/svg" width="24" height="24" viewBox="0 0 24 24">
  <g fill="none" fill-rule="evenodd">
    <path fill="#000" fill-rule="nonzero" d="M20.3800001,7.36500003 L19.5,7.36500003 L19.5,6.62000003 C19.4919888,6.00672952 18.9982286,5.51075515 18.3850001,5.50000002 L3.62000002,5.50000002 C3.0048181,5.50807785 2.50807784,6.00481812 2.50000001,6.62000003 L2.50000001,15.5 C2.50275286,16.1248898 3.01010426,16.6300061 3.63500002,16.6300001 L4.50000001,16.6300001 L4.50000001,17.3700001 C4.50262312,17.9871687 4.99792153,18.4891303 5.61500002,18.5 L20.3800001,18.5 C20.9971036,18.4918673 21.4946162,17.9921337 21.5,17.3750001 L21.5,8.50000002 C21.5,7.87896829 21.0009776,7.3732075 20.3800001,7.36500003 Z M3.00000001,15.5 L3.00000001,6.62000003 C3.00791954,6.28091802 3.28091801,6.00791955 3.62000002,6.00000003 L18.3850001,6.00000003 C18.7221282,6.01053315 18.992197,6.28279762 19,6.62000003 L19,15.5 C18.997254,15.8487467 18.7137575,16.1300001 18.3650001,16.1300001 L3.62000002,16.1300001 C3.27710479,16.1219078 3.00260525,15.8429809 3.00000001,15.5 Z M21,17.3750001 C20.9947231,17.716033 20.7209796,17.991984 20.3800001,18.0000001 L5.61500002,18.0000001 C5.27597734,17.9893564 5.00517455,17.7141503 5.00000002,17.3750001 L5.00000002,16.6350001 L18.3850001,16.6350001 C19.004019,16.6240906 19.5000962,16.1191151 19.5,15.5000001 L19.5,7.86498032 L20.3600001,7.86498032 C20.5292772,7.8636671 20.6920794,7.92997979 20.8122486,8.04921017 C20.9324178,8.16844055 21,8.33071767 21,8.50000004 L21,17.3750001 Z"/>
    <path fill="#000" fill-rule="nonzero" d="M6.50000003,14.4000001 L6.50000003,14.5000001 C6.50000003,14.6380712 6.61192884,14.7500001 6.75000003,14.7500001 L15.2700001,14.7500001 C15.4002055,14.7395508 15.5004187,14.6306235 15.5000001,14.5000001 L15.5000001,14.4000001 C15.502756,13.4299321 16.2899282,12.6449961 17.2600001,12.6450001 C17.3980713,12.6450001 17.5100001,12.5330712 17.5100001,12.3950001 L17.5100001,9.73000004 C17.5100001,9.59192885 17.3980713,9.48000004 17.2600001,9.48000004 C16.2899282,9.48000395 15.502756,8.695068 15.5000001,7.72500003 L15.5000001,7.61500003 C15.5000001,7.47692884 15.3880713,7.36500003 15.2500001,7.36500003 L6.73500003,7.36500003 C6.59692884,7.36500003 6.48500003,7.47692884 6.48500003,7.61500003 L6.48500003,7.72500003 C6.48899499,8.1935092 6.30601861,8.64427425 5.97660289,8.977444 C5.64718717,9.31061374 5.19852437,9.49868603 4.73000002,9.50000004 C4.59192883,9.50000004 4.48000002,9.61192885 4.48000002,9.75000004 L4.48000002,12.4150001 C4.48000002,12.5530712 4.59192883,12.6650001 4.73000002,12.6650001 C5.69623255,12.6594127 6.48629106,13.4338486 6.50000003,14.4000001 L6.50000003,14.4000001 Z M5.00000002,9.96500004 C6.0880629,9.84333626 6.93152559,8.95770043 7.00000002,7.86500003 L15.0250001,7.86500003 C15.095455,8.95683433 15.9378988,9.84140037 17.0250001,9.96500004 L17.0250001,12.1600001 C15.9378988,12.2835997 15.095455,13.1681658 15.0250001,14.2600001 L7.00000002,14.2600001 C6.93152559,13.1672997 6.0880629,12.2816638 5.00000002,12.1600001 L5.00000002,9.96500004 Z"/>
    <path fill="#000" fill-rule="nonzero" d="M11,12.9050001 C12.016204,12.9050001 12.8400001,12.081204 12.8400001,11.065 C12.8400001,10.0487961 12.016204,9.22500004 11,9.22500004 C9.9837961,9.22500004 9.16000004,10.0487961 9.16000004,11.065 C9.16274718,12.0800639 9.98493618,12.9022529 11,12.9050001 Z M11,9.72500004 C11.7400616,9.72500004 12.3400001,10.3249385 12.3400001,11.065 C12.3400001,11.8050616 11.7400616,12.4050001 11,12.4050001 C10.2599385,12.4050001 9.66000004,11.8050616 9.66000004,11.065 C9.66000004,10.3249385 10.2599385,9.72500004 11,9.72500004 L11,9.72500004 Z"/>
    <rect width="24" height="24"/>
  </g>
</svg>
