<svg xmlns="http://www.w3.org/2000/svg" width="24" height="24" viewBox="0 0 24 24">
  <g fill="none" fill-rule="evenodd">
    <path fill="#000" fill-rule="nonzero" d="M7.54500003,8.71000004 L9.30000004,8.71000004 C9.43807123,8.71000004 9.55000004,8.59807122 9.55000004,8.46000004 C9.55000004,8.32192885 9.43807123,8.21000003 9.30000004,8.21000003 L8.16000003,8.21000003 L8.16000003,7.60000003 C8.16000003,7.46192884 8.04807122,7.35000003 7.91000003,7.35000003 C7.77192884,7.35000003 7.66000003,7.46192884 7.66000003,7.60000003 L7.66000003,8.21000003 L7.54500003,8.21000003 C6.8435984,8.21000003 6.27500003,8.7785984 6.27500003,9.48000004 C6.27500003,10.1814017 6.8435984,10.75 7.54500003,10.75 L8.28000003,10.75 C8.70525929,10.75 9.05000004,11.0947408 9.05000004,11.52 C9.05000004,11.9452593 8.70525929,12.2900001 8.28000003,12.2900001 L6.50000003,12.2900001 C6.3630458,12.2926601 6.25266008,12.4030458 6.25000003,12.5400001 C6.25000003,12.6780712 6.36192884,12.7900001 6.50000003,12.7900001 L7.64000003,12.7900001 L7.64000003,13.4000001 C7.64266008,13.5369543 7.75304581,13.64734 7.89000003,13.6500001 C7.95630416,13.6500001 8.01989263,13.6236608 8.06677673,13.5767768 C8.11366082,13.5298927 8.14000003,13.4663042 8.14000003,13.4000001 L8.14000003,12.7900001 L8.26000003,12.7900001 C8.71372735,12.7900001 9.13298868,12.5479394 9.35985235,12.1550001 C9.58671601,11.7620607 9.58671601,11.2779394 9.35985235,10.885 C9.13298868,10.4920607 8.71372735,10.25 8.26000003,10.25 L7.54500003,10.25 C7.11974077,10.25 6.77500003,9.9052593 6.77500003,9.48000004 C6.77500003,9.05474078 7.11974077,8.71000004 7.54500003,8.71000004 L7.54500003,8.71000004 Z"/>
    <path fill="#000" fill-rule="nonzero" d="M20.8300001,13.0000001 L17.5450001,10.875 C17.0223408,10.5403359 16.648234,10.0176604 16.5000001,9.41500004 L15.4050001,4.94500002 C15.3040851,4.52948168 14.9274865,4.24027064 14.5000001,4.25000002 L5.66500002,4.25000002 C4.05623143,4.25275241 2.7527524,5.55623143 2.75000001,7.16500003 L2.75000001,17.1650001 C2.75000001,17.6711558 3.15885175,18.0822492 3.66500002,18.0850001 L5.16500002,18.0850001 C5.2940041,19.031424 6.10232453,19.7370393 7.05750003,19.7370393 C8.01267553,19.7370393 8.82099596,19.031424 8.95000004,18.0850001 L15.0650001,18.0850001 C15.1940041,19.031424 16.0023246,19.7370393 16.9575001,19.7370393 C17.9126756,19.7370393 18.720996,19.031424 18.8500001,18.0850001 L20.3500001,18.0850001 C20.8561483,18.0822492 21.2650001,17.6711558 21.2650001,17.1650001 L21.2650001,13.7600001 C21.2594342,13.4489672 21.0953713,13.1623286 20.8300001,13.0000001 Z M16.1900001,10 L13.4200001,10 C13.2390835,10.0078307 13.0744565,9.89604693 13.0150001,9.72500004 L12.2600001,7.10000003 C12.2341888,7.00317859 12.2544827,6.89986406 12.3150001,6.82000003 C12.399436,6.71328236 12.5289471,6.6522271 12.6650001,6.65500003 L15.3150001,6.65500003 L16.0300001,9.54500004 C16.0705399,9.70086677 16.1240602,9.85306516 16.1900001,10 Z M7.04000003,19.2500089 C6.4652094,19.2500089 5.94711235,18.9034811 5.72761952,18.3722494 C5.50812669,17.8410176 5.6305351,17.22986 6.03768964,16.8241391 C6.44484418,16.4184182 7.05642978,16.2981663 7.586884,16.5195316 C8.11733821,16.7408969 8.46202395,17.260213 8.4600089,17.8350001 C8.4600089,18.2111493 8.31023629,18.5718199 8.04378993,18.8373281 C7.77734356,19.1028363 7.41614693,19.2513292 7.04000003,19.2500089 Z M16.9600001,19.2500089 C16.3847587,19.252022 15.8651273,18.9067934 15.644057,18.3757241 C15.4229866,17.8446548 15.5441576,17.2326768 15.9509172,16.8259172 C16.3576768,16.4191576 16.9696548,16.2979866 17.5007241,16.519057 C18.0317934,16.7401274 18.377022,17.2597587 18.3750089,17.8350001 C18.3722572,18.615344 17.740344,19.2472572 16.9600001,19.2500089 Z M20.7500001,17.1650001 C20.7500001,17.395021 20.5650047,17.5822617 20.3350001,17.5850001 L18.8350001,17.5850001 C18.7243126,16.623542 17.9103086,15.8978733 16.9425001,15.8978733 C15.9746916,15.8978733 15.1606875,16.623542 15.0500001,17.5850001 L8.93500004,17.5850001 C8.82431259,16.623542 8.01030853,15.8978733 7.04250003,15.8978733 C6.07469152,15.8978733 5.26068746,16.623542 5.15000002,17.5850001 L3.65000002,17.5850001 C3.41999539,17.5822617 3.23500001,17.395021 3.23500001,17.1650001 L3.23500001,7.16500003 C3.2363224,6.52230666 3.49324389,5.90653598 3.94910249,5.45349133 C4.40496108,5.00044667 5.02231078,4.7473429 5.66500002,4.74997931 L14.5000001,4.74997931 C14.6915111,4.74897237 14.8588549,4.87912862 14.9050001,5.06500002 L15.1750001,6.14500003 L12.6650001,6.14500003 C12.3729717,6.14223902 12.0967904,6.27754931 11.92,6.51000003 C11.761216,6.71201976 11.7091332,6.97801369 11.78,7.22500003 L12.5350001,9.85000004 C12.6513174,10.2402899 13.0127869,10.505776 13.4200001,10.5 L16.3950001,10.5 C16.4149356,10.5022715 16.4350646,10.5022715 16.4550001,10.5 C16.6708538,10.8225842 16.9497918,11.0981205 17.2750001,11.31 L20.1550001,13.1750001 L18.6550001,13.1750001 C18.5169289,13.1750001 18.4050001,13.2869289 18.4050001,13.4250001 C18.4076601,13.5619543 18.5180459,13.67234 18.6550001,13.6750001 L20.6550001,13.6750001 L20.7100001,13.6750001 C20.7246937,13.7136782 20.7347636,13.7539577 20.7400001,13.7950001 L20.7500001,17.1650001 Z"/>
    <rect width="24" height="24"/>
  </g>
</svg>
