<svg xmlns="http://www.w3.org/2000/svg" width="24" height="24" viewBox="0 0 24 24">
  <g fill="none" fill-rule="evenodd">
    <rect width="24" height="24"/>
    <path fill="#CCC" fill-rule="nonzero" d="M4.50000002,16.5450001 L4.50000002,17.5450001 C4.50273194,18.032636 4.8973641,18.4272682 5.38500002,18.4300001 L20.1500001,18.4300001 C20.6387721,18.4300001 21.0350001,18.0337721 21.0350001,17.5450001 L21.0350001,8.65500004 C21.0350001,8.16622803 20.6387721,7.77000003 20.1500001,7.77000003 L19.0450001,7.77000003"/>
    <path fill="#000" fill-rule="nonzero" d="M20.1500001,18.6700001 L5.38500002,18.6700001 C5.08397931,18.6700001 4.79528761,18.5504201 4.58243382,18.3375663 C4.36958003,18.1247125 4.25000002,17.8360208 4.25000002,17.5350001 L4.25000002,16.5350001 C4.25000002,16.3969289 4.36192883,16.2850001 4.50000002,16.2850001 C4.63807121,16.2850001 4.75000002,16.3969289 4.75000002,16.5350001 L4.75000002,17.5350001 C4.75000002,17.8857009 5.0342992,18.1700001 5.38500002,18.1700001 L20.1500001,18.1700001 C20.3184126,18.1700001 20.4799273,18.1030985 20.5990129,17.9840129 C20.7180985,17.8649273 20.7850001,17.7034125 20.7850001,17.5350001 L20.7850001,8.65500004 C20.7904154,8.48314965 20.7259122,8.31644867 20.6062346,8.19300171 C20.486557,8.06955474 20.3219357,7.99991473 20.1500001,8.00000003 L19.0450001,8.00000003 C18.9069289,8.00000003 18.7950001,7.88807122 18.7950001,7.75000003 C18.7950001,7.61192884 18.9069289,7.50000003 19.0450001,7.50000003 L20.1500001,7.50000003 C20.4510208,7.50000003 20.7397125,7.61958005 20.9525663,7.83243384 C21.1654201,8.04528763 21.2850001,8.33397932 21.2850001,8.63500004 L21.2850001,17.5350001 C21.2850001,17.8360208 21.1654201,18.1247125 20.9525663,18.3375663 C20.7397125,18.5504201 20.4510208,18.6700001 20.1500001,18.6700001 L20.1500001,18.6700001 Z"/>
    <rect width="16.535" height="10.65" x="2.51" y="5.895" fill="#FFF" fill-rule="nonzero" rx="1"/>
    <path fill="#000" fill-rule="nonzero" d="M18.1600001,16.7950001 L3.39500001,16.7950001 C2.76815682,16.7950001 2.26000001,16.2868433 2.26000001,15.6600001 L2.26000001,6.78000003 C2.26000001,6.15315683 2.76815682,5.64500002 3.39500001,5.64500002 L18.1600001,5.64500002 C18.7868433,5.64500002 19.2950001,6.15315683 19.2950001,6.78000003 L19.2950001,15.6600001 C19.2950001,15.9610208 19.1754201,16.2497125 18.9625663,16.4625663 C18.7497125,16.6754201 18.4610208,16.7950001 18.1600001,16.7950001 Z M3.39500001,6.14500003 C3.0442992,6.14500003 2.76000001,6.42929921 2.76000001,6.78000003 L2.76000001,15.6600001 C2.76000001,16.0107009 3.0442992,16.2950001 3.39500001,16.2950001 L18.1600001,16.2950001 C18.5107009,16.2950001 18.7950001,16.0107009 18.7950001,15.6600001 L18.7950001,6.78000003 C18.7950001,6.42929921 18.5107009,6.14500003 18.1600001,6.14500003 L3.39500001,6.14500003 Z"/>
    <path fill="#FFF" fill-rule="nonzero" d="M17.0500001,12.5500001 L17.0500001,12.5500001 C15.9454306,12.5500001 15.0500001,13.4454306 15.0500001,14.5500001 L15.0500001,14.6600001 L6.50000002,14.6600001 L6.50000002,14.5500001 C6.50000002,13.4454306 5.60456952,12.5500001 4.50000002,12.5500001 L4.50000002,12.5500001 L4.50000002,9.88500004 L4.50000002,9.88500004 C5.60456952,9.88500004 6.50000002,8.98956954 6.50000002,7.88500003 L6.50000002,7.77500003 L15.0450001,7.77500003 L15.0450001,7.88500003 C15.0450001,8.98956954 15.9404306,9.88500004 17.0450001,9.88500004 L17.0450001,9.88500004 L17.0500001,12.5500001 Z"/>
    <path fill="#000" fill-rule="nonzero" d="M15.0450001,14.9200001 L6.50000003,14.9200001 C6.36192884,14.9200001 6.25000002,14.8080712 6.25000002,14.6700001 L6.25000002,14.5600001 C6.24729551,13.5929952 5.46697379,12.8082145 4.50000002,12.8000001 C4.36192883,12.8000001 4.25000002,12.6880712 4.25000002,12.5500001 L4.25000002,9.88500004 C4.25266007,9.74804581 4.36304579,9.63766009 4.50000002,9.63500004 C5.4700719,9.63500395 6.25724414,8.850068 6.26000003,7.88000003 L6.26000003,7.77000003 C6.25449695,7.70200966 6.27701475,7.6347231 6.32233281,7.58374028 C6.36765087,7.53275746 6.43183336,7.5025062 6.50000003,7.50000003 L15.0450001,7.50000003 C15.1830713,7.50000003 15.2950001,7.61192884 15.2950001,7.75000003 L15.2950001,7.86000003 C15.2950001,8.82925977 16.0807403,9.61500004 17.0500001,9.61500004 C17.1880713,9.61500004 17.3000001,9.72692885 17.3000001,9.86500004 L17.3000001,12.5500001 C17.3000001,12.6880712 17.1880713,12.8000001 17.0500001,12.8000001 C16.0799321,12.8027559 15.2949961,13.5899282 15.2950001,14.5600001 L15.2950001,14.6700001 C15.2950001,14.8080712 15.1830713,14.9200001 15.0450001,14.9200001 Z M6.75500002,14.4200001 L14.8000001,14.4200001 C14.8661378,13.3253655 15.7101781,12.4370131 16.8000001,12.3150001 L16.8000001,10.125 C15.7111449,10.0010441 14.8681276,9.11376847 14.8000001,8.02000003 L6.75500002,8.02000003 C6.68489733,9.11290655 5.84289347,9.99911562 4.75500002,10.125 L4.75500002,12.3150001 C5.84385524,12.438956 6.68687246,13.3262316 6.75500002,14.4200001 Z"/>
    <circle cx="10.775" cy="11.22" r="1.59" fill="#FFF" fill-rule="nonzero"/>
    <path fill="#000" fill-rule="nonzero" d="M10.775,13.0600001 C9.7587961,13.0600001 8.93500004,12.236204 8.93500004,11.22 C8.93500004,10.2037961 9.7587961,9.38000004 10.775,9.38000004 C11.791204,9.38000004 12.6150001,10.2037961 12.6150001,11.22 C12.6150001,12.236204 11.791204,13.0600001 10.775,13.0600001 Z M10.775,9.88000004 C10.0349385,9.88000004 9.43500004,10.4799385 9.43500004,11.22 C9.43500004,11.9600616 10.0349385,12.5600001 10.775,12.5600001 C11.5150616,12.5600001 12.1150001,11.9600616 12.1150001,11.22 C12.1122582,10.4810772 11.5139229,9.8827419 10.775,9.88000004 L10.775,9.88000004 Z"/>
  </g>
</svg>
