<svg xmlns="http://www.w3.org/2000/svg" width="24" height="24" viewBox="0 0 24 24">
  <g fill="none" fill-rule="evenodd">
    <g transform="translate(3 3)">
      <path d="M9.00000004,14.0500001 C9.45000004,14.0500001 9.85000004,13.7000001 9.85000004,13.2000001 C9.85000004,12.7500001 9.50000004,12.3500001 9.00000004,12.3500001 C8.55000004,12.3500001 8.15000003,12.7000001 8.15000003,13.2000001 C8.15000003,13.6500001 8.55000004,14.0500001 9.00000004,14.0500001 Z"/>
      <path fill="#000" fill-rule="nonzero" d="M16.6500001 0L1.35000001 0C.600000003 0 0 .600000003 0 1.35000001L0 11.2 18 11.2 18 1.35000001C18 .600000003 17.4000001 0 16.6500001 0zM5.60000002 8.40000003C5.60000002 8.85000002 5.20000002 9.25000004 4.75000002 9.25000004L3.85000002 9.25000004C3.40000001 9.25000004 3.00000001 8.85000002 3.00000001 8.40000003L3.00000001 6.70000003C3.00000001 6.25000003 3.40000001 5.85000002 3.85000002 5.85000002L4.75000002 5.85000002C5.20000002 5.85000002 5.60000002 6.25000003 5.60000002 6.70000003L5.60000002 8.40000003zM10.3 8.50000004C10.3 8.90000004 9.95000004 9.25000004 9.55000004 9.25000004L8.45000004 9.25000004C8.05000003 9.25000004 7.70000003 8.90000004 7.70000003 8.50000004L7.70000003 3.20000001C7.70000003 2.80000001 8.05000003 2.45000001 8.45000004 2.45000001L9.55000004 2.45000001C9.95000004 2.45000001 10.3 2.80000001 10.3 3.20000001L10.3 8.50000004zM15.0000001 8.50000004C15.0000001 8.90000004 14.6500001 9.25000004 14.2500001 9.25000004L13.1500001 9.25000004C12.7500001 9.25000004 12.4000001 8.90000004 12.4000001 8.50000004L12.4000001 5.05000002C12.4000001 4.65000002 12.7500001 4.30000002 13.1500001 4.30000002L14.2500001 4.30000002C14.6500001 4.30000002 15.0000001 4.65000002 15.0000001 5.05000002L15.0000001 8.50000004zM0 13.65C0 14.4000001.600000003 15.0000001 1.35000001 15.0000001L6 15.0000001 4.30000002 16.7500001C3.85000002 17.2000001 4.15000002 18.0000001 4.85000002 18.0000001L13.3000001 18.0000001C13.9500001 18.0000001 14.3000001 17.2000001 13.8500001 16.7500001L12 15.0000001 16.6500001 15.0000001C17.4000001 15.0000001 18 14.4000001 18 13.65L18 11.65 0 11.65 0 13.65zM9.00000004 12.4000001C9.45000004 12.4000001 9.85000004 12.7500001 9.85000004 13.2500001 9.85000004 13.7000001 9.50000004 14.1000001 9.00000004 14.1000001 8.55000004 14.1000001 8.15000003 13.7500001 8.15000003 13.2500001 8.15000003 12.7500001 8.55000004 12.4000001 9.00000004 12.4000001z"/>
    </g>
    <rect width="24" height="24"/>
  </g>
</svg>
