<svg xmlns="http://www.w3.org/2000/svg" width="24" height="24" viewBox="0 0 24 24">
  <g fill="none" fill-rule="evenodd">
    <rect width="24" height="24"/>
    <g fill-rule="nonzero" transform="translate(4 2.5)">
      <path fill="#FFF" d="M10.8,16.0350001 C10.6330759,17.4077006 9.46781252,18.4398486 8.08500003,18.4398486 C6.70218755,18.4398486 5.53692419,17.4077006 5.37000002,16.0350001"/>
      <path fill="#000" d="M8.08500003,18.7200001 C6.55573024,18.7304393 5.26338336,17.5888662 5.08500002,16.0700001 C5.06567005,15.9153603 5.17536029,15.77433 5.33000002,15.7550001 C5.48463975,15.7356701 5.62567006,15.8453603 5.64500002,16.0000001 C5.80249101,17.2275311 6.84740722,18.1469506 8.08500003,18.1469506 C9.32259285,18.1469506 10.3675091,17.2275311 10.525,16.0000001 C10.5432629,15.8469164 10.6818392,15.7373964 10.835,15.7550001 C10.9095101,15.7637232 10.9774035,15.801981 11.0234607,15.8611974 C11.0695179,15.9204137 11.0898863,15.9956354 11.08,16.0700001 C10.9018254,17.5869574 9.61236492,18.7278824 8.08500003,18.7200001 Z"/>
      <path fill="#CCC" d="M14.3600499,13.3700001 L14.3600499,9.00000004 C14.3666478,7.3314392 13.7084695,5.72893834 12.5309574,4.54673498 C11.3534453,3.36453163 9.75357411,2.70000001 8.08500003,2.70000001 L8.08500003,2.70000001 C6.41642596,2.70000001 4.81655476,3.36453163 3.63904269,4.54673498 C2.46153061,5.72893834 1.8033523,7.3314392 1.80995014,9.00000004 L1.80995014,13.3950001"/>
      <path fill="#000" d="M14.3600001,13.6500001 C14.2857394,13.6500001 14.2145203,13.6205001 14.1620102,13.56799 C14.1095,13.5154798 14.0800001,13.4442607 14.0800001,13.3700001 L14.0800001,9.00000004 C14.08,5.68629156 11.3937085,3.0000001 8.08000003,3.0000001 C4.76629156,3.0000001 2.08000006,5.68629156 2.08000001,9.00000004 L2.08000001,13.3950001 C2.07727248,13.5504452 1.95046904,13.6750001 1.79500001,13.6750001 C1.72073939,13.6750001 1.64952029,13.6455001 1.59701011,13.59299 C1.54449992,13.5404798 1.51500001,13.4692607 1.51500001,13.3950001 L1.51500001,9.00000004 C1.51500001,5.37977349 4.44977348,2.44500001 8.07000003,2.44500001 C11.6902266,2.44500001 14.6250001,5.37977349 14.6250001,9.00000004 L14.6250001,13.3950001 C14.6126932,13.5342274 14.4995976,13.6430552 14.3600001,13.6500001 Z"/>
      <path fill="#000" d="M7.00000003,3.00000001 C6.90809773,3.00094706 6.82179738,2.95592079 6.77000003,2.88000001 C6.57246217,2.60471133 6.46741703,2.27381912 6.47000003,1.93500001 C6.43646702,1.32838604 6.7410318,0.752936102 7.26149646,0.439532996 C7.78196112,0.126129889 8.43303894,0.126129889 8.95350361,0.439532996 C9.47396827,0.752936102 9.77853304,1.32838604 9.74500004,1.93500001 C9.74612854,2.27437505 9.63931604,2.6053187 9.44000004,2.88000001 C9.39759602,2.94103879 9.33266409,2.9827144 9.25951059,2.99584452 C9.1863571,3.00897463 9.11098468,2.99248185 9.05000004,2.95000001 C8.92226426,2.85982692 8.89103004,2.68357666 8.98000004,2.55500001 C9.1104032,2.3746069 9.18040852,2.15759042 9.18000004,1.93500001 C9.18000004,1.3412939 8.69870614,0.860000004 8.10500003,0.860000004 C7.51129393,0.860000004 7.03000003,1.3412939 7.03000003,1.93500001 C7.02959155,2.15759042 7.09959686,2.3746069 7.23000003,2.55500001 C7.27408418,2.61633968 7.29151443,2.692889 7.27833335,2.76726794 C7.26515227,2.84164689 7.22247821,2.9075448 7.16000003,2.95000001 C7.11348198,2.98354048 7.05733862,3.00108528 7.00000003,3.00000001 L7.00000003,3.00000001 Z"/>
      <path fill="#CCC" d="M12.2250001,13.3699906 L14.4250001,13.3699906 C14.7794717,13.3686649 15.1198104,13.5088875 15.3704615,13.7595386 C15.6211126,14.0101897 15.7613352,14.3505284 15.7600095,14.7050001 L15.7600095,14.7050001 C15.7600095,15.058606 15.6191918,15.3976567 15.368686,15.6472243 C15.1181801,15.8967919 14.7786035,16.0363294 14.4250001,16.0350095 L1.74500001,16.0350095 C1.39139656,16.0363294 1.05181992,15.8967919 0.801314087,15.6472243 C0.55080825,15.3976567 0.409990554,15.058606 0.409990554,14.7050001 L0.409990554,14.7050001 C0.408664878,14.3505284 0.548887481,14.0101897 0.79953855,13.7595386 C1.05018962,13.5088875 1.39052838,13.3686649 1.74500001,13.3699906 L3.91500002,13.3699906"/>
      <path fill="#000" d="M14.4250001,16.3200001 L1.74500001,16.3200001 C0.853060159,16.3200001 0.130000069,15.5969399 0.130000069,14.7050001 C0.130000069,13.8130602 0.853060159,13.0900001 1.74500001,13.0900001 L3.91500002,13.0900001 C4.06963975,13.0900001 4.19500002,13.2153603 4.19500002,13.3700001 C4.19500002,13.5246398 4.06963975,13.6500001 3.91500002,13.6500001 L1.74500001,13.6500001 C1.35166294,13.6228734 0.976023943,13.8173357 0.771103888,14.1541705 C0.566183833,14.4910052 0.566183833,14.9139949 0.771103888,15.2508297 C0.976023943,15.5876645 1.35166294,15.7821267 1.74500001,15.7550001 L14.4250001,15.7550001 C14.8183371,15.7821267 15.1939761,15.5876645 15.3988962,15.2508297 C15.6038162,14.9139949 15.6038162,14.4910052 15.3988962,14.1541705 C15.1939761,13.8173357 14.8183371,13.6228734 14.4250001,13.6500001 L12.2250001,13.6500001 C12.0703603,13.6500001 11.945,13.5246398 11.945,13.3700001 C11.945,13.2153603 12.0703603,13.0900001 12.2250001,13.0900001 L14.4250001,13.0900001 C15.3169399,13.0900001 16.0400001,13.8130602 16.0400001,14.7050001 C16.0400001,15.5969399 15.3169399,16.3200001 14.4250001,16.3200001 Z"/>
    </g>
  </g>
</svg>
