<svg xmlns="http://www.w3.org/2000/svg" width="24" height="24" viewBox="0 0 24 24">
  <g fill="none" fill-rule="evenodd">
    <path fill="#000" fill-rule="nonzero" d="M18.0300001,5.84500002 L17.3000001,5.84500002 L17.3000001,5.11500002 C17.3000001,4.61794374 16.8970563,4.21500002 16.4000001,4.21500002 L9.40000004,4.21500002 C9.27170701,3.5442055 8.70648475,3.04475456 8.02500003,3.00000001 C7.28108758,2.95647245 6.62377582,3.48016674 6.50000003,4.21500002 L5.97000002,4.21500002 C5.73130518,4.21500002 5.50238666,4.30982117 5.33360392,4.47860392 C5.16482118,4.64738666 5.06998611,4.87630518 5.06998611,5.11500002 L5.06998611,18.5000001 C5.06866911,18.7395601 5.1629024,18.9697652 5.33182961,19.1396309 C5.50075682,19.3094966 5.73043635,19.4050038 5.97000002,19.4050001 L6.70000003,19.4050001 L6.70000003,20.1300001 C6.7161857,20.6153027 7.11442763,21.0002699 7.60000003,21.0000002 L18.0300001,21.0000002 C18.527864,20.9972494 18.9300001,20.5928717 18.9300001,20.0950001 L18.9300001,6.74500003 C18.9272677,6.24907996 18.5259201,5.84773243 18.0300001,5.84500002 Z M7.27500003,3.75500002 C7.47305208,3.57682107 7.73401436,3.48503434 8.00000003,3.50000001 C8.41397826,3.53637675 8.76231252,3.82499657 8.87500004,4.22500002 L7.00000003,4.22500002 C7.04328656,4.04463207 7.13896879,3.88110244 7.27500003,3.75500002 Z M5.97000002,18.8850001 C5.86304141,18.8850084 5.76053471,18.84218 5.68537476,18.7660806 C5.61021481,18.6899811 5.56866304,18.5869503 5.56996873,18.4800001 L5.56996873,5.11500002 C5.56996873,4.89408612 5.74908612,4.71500002 5.97000002,4.71500002 L8.92500004,4.71500002 L8.92500004,6.87000003 C8.90337442,7.05381885 8.74758658,7.19235322 8.56250004,7.19235322 C8.37741349,7.19235322 8.22162565,7.05381885 8.20000003,6.87000003 L8.20000003,6.09500003 C8.20000003,5.95692884 8.08807122,5.84500002 7.95000003,5.84500002 C7.81192885,5.84500002 7.70000003,5.95692884 7.70000003,6.09500003 L7.70000003,6.87000003 C7.73435798,7.32092806 8.11026497,7.66928283 8.56250004,7.66928283 C9.0147351,7.66928283 9.3906421,7.32092806 9.42500004,6.87000003 L9.42500004,4.71500002 L16.4000001,4.71500002 C16.620914,4.71500002 16.8000314,4.89408612 16.8000314,5.11500002 L16.8000314,18.5000001 C16.8013371,18.6069503 16.7597853,18.7099811 16.6846253,18.7860806 C16.6094654,18.86218 16.5069587,18.9050001 16.4000001,18.9050001 L5.97000002,18.8850001 Z M18.4300314,20.1100001 C18.4313371,20.2169503 18.3897853,20.3199811 18.3146253,20.3960806 C18.2394654,20.47218 18.1369587,20.5150001 18.0300001,20.5150001 L7.60000003,20.5150001 C7.49304142,20.5150001 7.39053472,20.47218 7.31537477,20.3960806 C7.24021482,20.3199811 7.19866305,20.2169503 7.19996874,20.1100001 L7.19996874,19.3850001 L16.4000001,19.3850001 C16.8912569,19.3850683 17.2918125,18.9911887 17.3000001,18.5000001 L17.3000001,6.34500003 L18.0300001,6.34500003 C18.250914,6.34500003 18.4300314,6.52408613 18.4300314,6.74500003 L18.4300314,20.1100001 Z"/>
    <path fill="#000" fill-rule="nonzero" d="M14.1200001 14.9700001L8.25000003 14.9700001C8.11304581 14.9726601 8.00266009 15.0830458 8.00000003 15.2200001 8.00000003 15.3580713 8.11192885 15.4700001 8.25000003 15.4700001L14.1200001 15.4700001C14.2580712 15.4700001 14.3700001 15.3580713 14.3700001 15.2200001 14.36734 15.0830458 14.2569543 14.9726601 14.1200001 14.9700001L14.1200001 14.9700001zM14.1200001 16.6000001L8.25000003 16.6000001C8.11304581 16.6026601 8.00266009 16.7130458 8.00000003 16.8500001 8.00000003 16.9880713 8.11192885 17.1000001 8.25000003 17.1000001L14.1200001 17.1000001C14.2580712 17.1000001 14.3700001 16.9880713 14.3700001 16.8500001 14.36734 16.7130458 14.2569543 16.6026601 14.1200001 16.6000001L14.1200001 16.6000001zM11.555 12.2400001L9.79000004 12.2400001C9.65192885 12.2400001 9.54000004 12.3519289 9.54000004 12.4900001 9.54000004 12.6280712 9.65192885 12.7400001 9.79000004 12.7400001L10.935 12.7400001 10.935 13.3500001C10.935 13.4880712 11.0469289 13.6000001 11.185 13.6000001 11.3230712 13.6000001 11.435 13.4880712 11.435 13.3500001L11.435 12.7400001 11.555 12.7400001C12.2591631 12.7400001 12.8300001 12.1691631 12.8300001 11.465 12.8300001 10.760837 12.2591631 10.19 11.555 10.19L10.815 10.19C10.4097184 10.1574733 10.0974 9.81908483 10.0974 9.41250004 10.0974 9.00591525 10.4097184 8.66752678 10.815 8.63500004L12.5800001 8.63500004C12.7180712 8.63500004 12.8300001 8.52307122 12.8300001 8.38500003 12.8300001 8.24692885 12.7180712 8.13500003 12.5800001 8.13500003L11.435 8.13500003 11.435 7.52500003C11.435 7.38692884 11.3230712 7.27500003 11.185 7.27500003 11.0469289 7.27500003 10.935 7.38692884 10.935 7.52500003L10.935 8.13500003 10.815 8.13500003C10.1404442 8.17722165 9.61496097 8.73662413 9.61496097 9.41250004 9.61496097 10.0883759 10.1404442 10.6477784 10.815 10.69L11.555 10.69C11.9830207 10.69 12.3300001 11.0369794 12.3300001 11.465 12.3300001 11.8930207 11.9830207 12.2400001 11.555 12.2400001L11.555 12.2400001z"/>
    <rect width="24" height="24"/>
  </g>
</svg>
