<svg xmlns="http://www.w3.org/2000/svg" width="24" height="24" viewBox="0 0 24 24">
  <g fill="none" fill-rule="evenodd">
    <g fill="#1A1A1A" fill-rule="nonzero" transform="translate(5 3)">
      <path d="M11.9,15.5 L11.9,2.15000001 C11.9,1.80000001 11.6,1.5 11.25,1.5 L4.25000002,1.5 C4.20000002,0.700000003 3.60000001,0.0500000002 2.85000001,0 C2.45000001,0 2.05000001,0.1 1.75000001,0.400000002 C1.45000001,0.700000003 1.30000001,1.1 1.30000001,1.5 L1.80000001,1.5 C1.80000001,1.25000001 1.90000001,1 2.10000001,0.800000003 C2.30000001,0.600000002 2.55000001,0.5 2.85000001,0.5 C3.35000001,0.550000002 3.75000002,0.950000004 3.75000002,1.5 L0.800000003,1.5 C0.450000002,1.5 0.150000001,1.80000001 0.150000001,2.15000001 L0.150000001,15.5 C0.150000001,15.8500001 0.450000002,16.1500001 0.800000003,16.1500001 L11.25,16.1500001 C11.6,16.1500001 11.9,15.9000001 11.9,15.5 Z M6.40000003,7.70000003 L5.65000002,7.70000003 C4.95000002,7.70000003 4.35000002,7.15000003 4.35000002,6.40000003 C4.35000002,5.70000002 4.90000002,5.10000002 5.65000002,5.10000002 L5.75000002,5.10000002 L5.75000002,4.50000002 C5.75000002,4.35000002 5.85000002,4.25000002 6.00000002,4.25000002 C6.15000003,4.25000002 6.25000003,4.35000002 6.25000003,4.50000002 L6.25000003,5.10000002 L7.40000003,5.10000002 C7.55000003,5.10000002 7.65000003,5.20000002 7.65000003,5.35000002 C7.65000003,5.50000002 7.55000003,5.60000002 7.40000003,5.60000002 L5.65000002,5.60000002 C5.20000002,5.60000002 4.85000002,5.95000002 4.85000002,6.40000003 C4.85000002,6.85000003 5.20000002,7.20000003 5.65000002,7.20000003 L6.40000003,7.20000003 C7.10000003,7.20000003 7.70000003,7.75000002 7.70000003,8.50000004 C7.70000003,9.25000002 7.15000003,9.80000004 6.40000003,9.80000004 L6.30000003,9.80000004 L6.30000003,10.4 C6.30000003,10.55 6.20000003,10.65 6.05000003,10.65 C5.90000002,10.65 5.80000002,10.55 5.80000002,10.4 L5.80000002,9.80000004 L4.65000002,9.80000004 C4.50000002,9.80000004 4.40000002,9.70000004 4.40000002,9.55000004 C4.40000002,9.40000004 4.50000002,9.30000004 4.65000002,9.30000004 L6.40000003,9.30000004 C6.85000002,9.30000004 7.20000003,8.95000004 7.20000003,8.50000004 C7.20000003,8.05000003 6.80000003,7.70000003 6.40000003,7.70000003 Z M2.55000001,3.90000002 L2.55000001,3.15000001 L3.05000001,3.15000001 L3.05000001,3.90000002 C3.05000001,4.10000002 3.20000001,4.25000002 3.40000001,4.25000002 C3.60000001,4.25000002 3.75000002,4.10000002 3.75000002,3.90000002 L3.75000002,1.55000001 L4.25000002,1.55000001 L4.25000002,3.90000002 C4.25000002,4.40000002 3.85000002,4.75000002 3.40000001,4.75000002 C2.95000001,4.75000002 2.55000001,4.40000002 2.55000001,3.90000002 Z M8.95000004,14.1500001 L3.10000001,14.1500001 C2.95000001,14.1500001 2.85000001,14.0500001 2.85000001,13.9000001 C2.85000001,13.7500001 2.95000001,13.6500001 3.10000001,13.6500001 L8.95000004,13.6500001 C9.10000004,13.6500001 9.20000004,13.7500001 9.20000004,13.9000001 C9.20000004,14.0500001 9.10000004,14.1500001 8.95000004,14.1500001 Z M8.95000004,12.5000001 L3.10000001,12.5000001 C2.95000001,12.5000001 2.85000001,12.4000001 2.85000001,12.2500001 C2.85000001,12.1000001 2.95000001,12.0000001 3.10000001,12.0000001 L8.95000004,12.0000001 C9.10000004,12.0000001 9.20000004,12.1000001 9.20000004,12.2500001 C9.20000004,12.4000001 9.10000004,12.5000001 8.95000004,12.5000001 Z"/>
      <path d="M13.3500001,2.05000001 C13.0500001,2.05000001 12.8500001,2.25000001 12.8500001,2.55000001 L12.8500001,16.0000001 C12.8500001,16.55 12.4000001,17.0000001 11.85,17.0000001 L2.70000001,17.0000001 C2.40000001,17.0000001 2.20000001,17.2000001 2.20000001,17.5000001 C2.20000001,17.8000001 2.40000001,18.0000001 2.70000001,18.0000001 L11.85,18.0000001 C12.9500001,18.0000001 13.8500001,17.1000001 13.8500001,16.0000001 L13.8500001,2.55000001 C13.8500001,2.30000001 13.6000001,2.05000001 13.3500001,2.05000001 Z"/>
    </g>
    <rect width="24" height="24"/>
  </g>
</svg>
