<svg xmlns="http://www.w3.org/2000/svg" width="24" height="24" viewBox="0 0 24 24">
  <g fill="none" fill-rule="evenodd">
    <path fill="#000" fill-rule="nonzero" d="M17.5500001,10.3 C17.1500001,9.75000004 17.1500001,8.95000004 17.5500001,8.40000004 C18.0500001,7.70000003 18.1000001,6.80000003 17.7000001,6.10000003 C17.2500001,5.35000001 16.5000001,4.95000002 15.6500001,5.05000002 C14.9500001,5.15000002 14.2500001,4.75000002 14.0000001,4.10000002 C13.6500001,3.30000001 12.9000001,2.85000001 12.0500001,2.85000001 C11.2,2.85000001 10.45,3.35000001 10.1,4.10000002 C9.80000004,4.75000002 9.15000004,5.15000002 8.45000004,5.05000002 C7.60000003,4.95000002 6.80000003,5.35000001 6.40000003,6.10000003 C5.95000002,6.85000001 6.00000003,7.75000003 6.55000003,8.40000004 C6.95000003,8.95000004 6.95000003,9.75000004 6.55000003,10.3 C6.05000003,11 6.00000003,11.9 6.40000003,12.6000001 C6.85000003,13.35 7.60000003,13.7500001 8.45000004,13.6500001 C8.85000004,13.6000001 9.20000004,13.7000001 9.50000004,13.9000001 L9.45000004,21.1500001 L11.4,19.4000001 C11.75,19.1000001 12.2500001,19.1000001 12.6000001,19.4000001 L14.5500001,21.1500001 L14.5000001,13.9500001 C14.8000001,13.7500001 15.2000001,13.6500001 15.5500001,13.7000001 C16.4000001,13.8000001 17.2000001,13.4000001 17.6000001,12.6500001 C18.1000001,11.9 18.0500001,11 17.5500001,10.3 Z M12.4000001,9.60000004 L11.6,9.60000004 C10.85,9.60000004 10.25,9.00000003 10.25,8.25000003 C10.25,7.50000003 10.85,6.90000003 11.6,6.90000003 L11.75,6.90000003 L11.75,6.25000003 C11.75,6.10000003 11.85,6.00000003 12.0000001,6.00000003 C12.1500001,6.00000003 12.25,6.10000003 12.25,6.25000003 L12.25,6.90000003 L13.5000001,6.90000003 C13.6500001,6.90000003 13.75,7.00000003 13.75,7.15000003 C13.75,7.30000003 13.6500001,7.40000003 13.5000001,7.40000003 L11.6,7.40000003 C11.15,7.40000003 10.75,7.80000003 10.75,8.25000003 C10.75,8.70000004 11.15,9.10000004 11.6,9.10000004 L12.4000001,9.10000004 C13.1500001,9.10000004 13.75,9.70000004 13.75,10.45 C13.75,11.2 13.1500001,11.8 12.4000001,11.8 L12.25,11.8 L12.25,12.4500001 C12.25,12.6000001 12.1500001,12.7000001 12.0000001,12.7000001 C11.85,12.7000001 11.75,12.6000001 11.75,12.4500001 L11.75,11.8 L10.5,11.8 C10.35,11.8 10.25,11.7 10.25,11.55 C10.25,11.4 10.35,11.3 10.5,11.3 L12.4000001,11.3 C12.8500001,11.3 13.25,10.9 13.25,10.45 C13.25,10 12.8500001,9.60000004 12.4000001,9.60000004 Z"/>
    <rect width="24" height="24"/>
  </g>
</svg>
