<svg xmlns="http://www.w3.org/2000/svg" width="24" height="24" viewBox="0 0 24 24">
  <g fill="none" fill-rule="evenodd">
    <path fill="#1A1A1A" fill-rule="nonzero" d="M11.605,7.55500003 L13.5000001,7.55500003 C13.6380712,7.55500003 13.7500001,7.44307122 13.7500001,7.30500003 C13.7500001,7.16692884 13.6380712,7.05500003 13.5000001,7.05500003 L12.2500001,7.05500003 L12.2500001,6.38500003 C12.2500001,6.24692884 12.1380712,6.13500003 12,6.13500003 C11.8619289,6.13500003 11.75,6.24692884 11.75,6.38500003 L11.75,7.05500003 L11.605,7.05500003 C11.1058184,7.02452188 10.6309445,7.27352673 10.3721374,7.7014638 C10.1133303,8.12940087 10.1133303,8.6655992 10.3721374,9.09353627 C10.6309445,9.52147334 11.1058184,9.77047819 11.605,9.74000004 L12.3950001,9.74000004 C12.7114899,9.71560049 13.0149559,9.87063153 13.1806679,10.1413725 C13.34638,10.4121135 13.34638,10.7528865 13.1806679,11.0236276 C13.0149559,11.2943686 12.7114899,11.4493996 12.3950001,11.425 L10.5,11.425 C10.3630458,11.4276601 10.2526601,11.5380458 10.25,11.675 C10.25,11.8130712 10.3619289,11.925 10.5,11.925 L11.75,11.925 L11.75,12.5950001 C11.75,12.7330712 11.8619289,12.8450001 12,12.8450001 C12.1380712,12.8450001 12.2500001,12.7330712 12.2500001,12.5950001 L12.2500001,11.925 L12.3950001,11.925 C12.8941817,11.9554782 13.3690556,11.7064734 13.6278627,11.2785363 C13.8866698,10.8505992 13.8866698,10.3144009 13.6278627,9.88646381 C13.3690556,9.45852674 12.8941817,9.20952189 12.3950001,9.24000004 L11.605,9.24000004 C11.2885102,9.26439959 10.9850442,9.10936855 10.8193322,8.83862754 C10.6536201,8.56788653 10.6536201,8.22711354 10.8193322,7.95637253 C10.9850442,7.68563152 11.2885102,7.53060048 11.605,7.55500003 Z"/>
    <path fill="#1A1A1A" fill-rule="nonzero" d="M17.5500001,10.45 C17.1298851,9.87894401 17.1298851,9.10105607 17.5500001,8.53000004 C18.0456752,7.85046464 18.0938939,6.94251555 17.6729803,6.21430267 C17.2520668,5.4860898 16.4412437,5.07467447 15.6050001,5.16500002 C14.9010093,5.24368636 14.2279137,4.85442622 13.9450001,4.20500002 C13.6056119,3.43377201 12.8426013,2.93592057 12.0000001,2.93592057 C11.1573988,2.93592057 10.3943882,3.43377201 10.055,4.20500002 C9.77208643,4.85442622 9.09899078,5.24368636 8.39500003,5.16500002 C7.55875636,5.07467447 6.74793331,5.4860898 6.32701978,6.21430267 C5.90610624,6.94251555 5.95432489,7.85046464 6.45000003,8.53000004 C6.87011497,9.10105607 6.87011497,9.87894401 6.45000003,10.45 C5.94668217,11.1282287 5.89746939,12.0416179 6.32500003,12.7700001 C6.73980767,13.5052835 7.55707022,13.9178629 8.39500003,13.8150001 C8.74433021,13.7830841 9.0947158,13.8636728 9.39500004,14.0450001 C9.39500004,14.0450001 9.39500004,14.0700001 9.39500004,14.0800001 L9.39500004,20.7900001 C9.39363689,20.8978039 9.4565369,20.9960851 9.55500004,21.0400001 C9.6524144,21.0809178 9.76456659,21.0635149 9.84500004,20.9950001 L11.395,19.6150001 C11.7333561,19.3108299 12.246644,19.3108299 12.5850001,19.6150001 L14.1450001,21.0000001 C14.1948086,21.043332 14.2589981,21.0665115 14.3250001,21.0650001 C14.397443,21.0678443 14.4677836,21.0403124 14.519048,20.989048 C14.5703124,20.9377836 14.5978443,20.8674431 14.5950001,20.7950001 L14.5950001,14.0800001 C14.5950001,14.0800001 14.5950001,14.0800001 14.5950001,14.0450001 C14.8952843,13.8636728 15.2456699,13.7830841 15.5950001,13.8150001 C16.4346451,13.9146717 17.2532303,13.5058753 17.6779895,12.7747681 C18.1027487,12.0436608 18.0524507,11.1300601 17.5500001,10.45 L17.5500001,10.45 Z M12.9550001,19.2100001 C12.4107885,18.7247657 11.5892116,18.7247657 11.045,19.2100001 L9.94500004,20.2100001 L9.94500004,14.5700001 C9.98654729,14.6356001 10.0233093,14.7041112 10.055,14.7750001 C10.3877971,15.5519156 11.1548425,16.0527627 12.0000001,16.0450001 L12.0000001,16.0450001 C12.8451576,16.0527627 13.612203,15.5519156 13.945,14.7750001 C13.9766908,14.7041112 14.0134528,14.6356001 14.0550001,14.5700001 L14.0550001,20.1900001 L12.9550001,19.2100001 Z M17.2400001,12.5000001 C16.9243357,13.0624409 16.3001767,13.3784708 15.6600001,13.3000001 C14.7395694,13.2110719 13.8669032,13.7261874 13.5000001,14.5750001 C13.2424756,15.1656733 12.6593708,15.5475628 12.0150001,15.5475628 C11.3706293,15.5475628 10.7875245,15.1656733 10.53,14.5750001 C10.1921744,13.80528 9.43059114,13.3086805 8.59000004,13.3100001 C8.51174586,13.3050198 8.43325421,13.3050198 8.35500003,13.3100001 C7.7126665,13.3855004 7.08671128,13.0729035 6.76116733,12.5140531 C6.43562339,11.9552026 6.47247485,11.2565048 6.85500003,10.735 C7.40022043,9.99084629 7.40022043,8.97915378 6.85500003,8.23500003 C6.47247485,7.71349533 6.43562339,7.01479744 6.76116733,6.455947 C7.08671128,5.89709657 7.7126665,5.58449966 8.35500003,5.66000002 C9.2662949,5.75014612 10.1320891,5.24358586 10.5,4.40500002 C10.7575245,3.81432681 11.3406293,3.43243727 11.985,3.43243727 C12.6293708,3.43243727 13.2124756,3.81432681 13.4700001,4.40500002 C13.8400707,5.2561669 14.7228861,5.76556153 15.6450001,5.66000002 C16.2873336,5.58449966 16.9132888,5.89709657 17.2388328,6.455947 C17.5643767,7.01479744 17.5275252,7.71349533 17.1450001,8.23500003 C16.5997797,8.97915378 16.5997797,9.99084629 17.1450001,10.735 C17.5269539,11.2513341 17.564325,11.945651 17.2400001,12.5000001 Z"/>
    <rect width="24" height="24"/>
  </g>
</svg>
