<svg xmlns="http://www.w3.org/2000/svg" width="24" height="24" viewBox="0 0 24 24">
  <g fill="none" fill-rule="evenodd">
    <rect width="24" height="24"/>
    <path fill="#CCC" fill-rule="nonzero" d="M17.4350001,8.39500003 L17.4350001,8.39500003 C17.8727315,7.79558332 17.9156699,6.99437582 17.5445099,6.35160885 C17.1733498,5.70884188 16.457965,5.34552136 15.7200001,5.42500002 L15.7200001,5.42500002 C14.9066734,5.51208931 14.1303728,5.06329049 13.8000001,4.31500002 L13.8000001,4.31500002 C13.4999097,3.63593867 12.8274141,3.19789183 12.0850001,3.19789183 C11.342586,3.19789183 10.6700904,3.63593867 10.37,4.31500002 L10.37,4.31500002 C10.0396273,5.06329049 9.26332667,5.51208931 8.45000004,5.42500002 L8.45000004,5.42500002 C7.71203506,5.34552136 6.99665028,5.70884188 6.62549023,6.35160885 C6.25433018,6.99437582 6.29726864,7.79558332 6.73500003,8.39500003 L6.73500003,8.39500003 C7.21931204,9.05391188 7.21931204,9.9510882 6.73500003,10.61 L6.73500003,10.61 C6.29726864,11.2094168 6.25433018,12.0106243 6.62549023,12.6533912 C6.99665028,13.2961582 7.71203506,13.6594787 8.45000004,13.5800001 L8.45000004,13.5800001 C9.26243695,13.4904765 10.0392573,13.9375528 10.37,14.6850001 L10.37,14.6850001 C10.6700904,15.3640614 11.342586,15.8021083 12.0850001,15.8021083 C12.8274141,15.8021083 13.4999097,15.3640614 13.8000001,14.6850001 L13.8000001,14.6850001 C14.1307428,13.9375528 14.9075632,13.4904765 15.7200001,13.5800001 L15.7200001,13.5800001 C16.457965,13.6594787 17.1733498,13.2961582 17.5445099,12.6533912 C17.9156699,12.0106243 17.8727315,11.2094168 17.4350001,10.61 L17.4350001,10.61 C16.9506881,9.9510882 16.9506881,9.05391188 17.4350001,8.39500003 L17.4350001,8.39500003 Z"/>
    <path fill="#1A1A1A" fill-rule="nonzero" d="M12.0850001,16.055089 L12.0850001,16.055089 C11.2398425,16.0627627 10.4727971,15.5619156 10.14,14.7850001 C9.85936785,14.1432063 9.19700872,13.7554839 8.50000004,13.8250001 C7.66211943,13.9200519 6.84757114,13.5094897 6.42558312,12.7794178 C6.0035951,12.049346 6.05441242,11.1385948 6.55500003,10.46 C6.97511498,9.88894401 6.97511498,9.11105607 6.55500003,8.54000004 C6.05932489,7.86046464 6.01110624,6.95251555 6.43201978,6.22430267 C6.85293331,5.4960898 7.66375636,5.08467447 8.50000004,5.17500002 C9.20364215,5.25202689 9.87582198,4.86329639 10.16,4.21500002 C10.4925334,3.44764109 11.2486881,2.95073939 12.0850001,2.9499214 L12.0850001,2.9499214 C12.928566,2.94272502 13.6946011,3.44094318 14.0300001,4.21500002 C14.3141781,4.86329639 14.986358,5.25202689 15.6900001,5.17500002 C16.5262437,5.08467447 17.3370668,5.4960898 17.7579803,6.22430267 C18.1788939,6.95251555 18.1306752,7.86046464 17.6350001,8.54000004 L17.6350001,8.54000004 C17.2148851,9.11105607 17.2148851,9.88894401 17.6350001,10.46 C18.1355877,11.1385948 18.186405,12.049346 17.764417,12.7794178 C17.342429,13.5094897 16.5278807,13.9200519 15.6900001,13.8250001 C14.9867053,13.7496175 14.31543,14.1378249 14.0300001,14.7850001 C13.697203,15.5619156 12.9301576,16.0627627 12.0850001,16.055089 Z M8.66000004,13.3200001 C9.50059114,13.3186805 10.2621744,13.81528 10.6,14.5850001 C10.8550692,15.1842538 11.4488548,15.5682351 12.1000001,15.5550001 L12.1000001,15.5550001 C12.7511453,15.5682351 13.3449309,15.1842538 13.6000001,14.5850001 C13.9726095,13.7361037 14.8535813,13.2277728 15.7750001,13.3300001 C16.4173336,13.4055004 17.0432888,13.0929035 17.3688328,12.5340531 C17.6943767,11.9752026 17.6575252,11.2765048 17.2750001,10.755 C16.7297797,10.0108463 16.7297797,8.99915379 17.2750001,8.25500003 C17.6575252,7.73349533 17.6943767,7.03479744 17.3688328,6.475947 C17.0432888,5.91709657 16.4173336,5.60449966 15.7750001,5.68000002 C14.8528861,5.78556153 13.9700707,5.2761669 13.6000001,4.42500002 C13.339215,3.83809889 12.7572319,3.45984848 12.1150001,3.45984848 C11.4727682,3.45984848 10.8907851,3.83809889 10.63,4.42500002 C10.2573906,5.27389643 9.3764188,5.78222726 8.45500004,5.68000002 C7.81266651,5.60449966 7.18671128,5.91709657 6.86116733,6.475947 C6.53562339,7.03479744 6.57247485,7.73349533 6.95500003,8.25500003 C7.50022043,8.99915379 7.50022043,10.0108463 6.95500003,10.755 C6.56867642,11.2735132 6.53122764,11.9732142 6.86000003,12.5300001 C7.17467615,13.0934713 7.7995779,13.4098772 8.44000004,13.3300001 C8.51306972,13.3223009 8.58653319,13.3189617 8.66000004,13.3200001 L8.66000004,13.3200001 Z"/>
    <path fill="#1A1A1A" fill-rule="nonzero" d="M14.4100001,21.0750001 C14.3434216,21.0746579 14.2793172,21.0497284 14.2300001,21.0050001 L12.6800001,19.6250001 C12.341644,19.3208299 11.8283561,19.3208299 11.49,19.6250001 L9.94000004,21.0000001 C9.86013238,21.0714548 9.74556463,21.0889103 9.64804117,21.044483 C9.55051771,21.0000556 9.48850069,20.9021559 9.48997345,20.7950001 L9.48997345,14.0950001 C9.48997345,13.9458832 9.61088316,13.825 9.76000004,13.825 C9.90911692,13.825 10.03,13.9458832 10.03,14.0950001 L10.03,20.2000001 L11.13,19.2000001 C11.6742116,18.7147657 12.4957885,18.7147657 13.0400001,19.2000001 L14.1400001,20.2000001 L14.1400001,14.0950001 C14.1400001,13.9985383 14.1914618,13.909404 14.2750001,13.8611732 C14.3585383,13.8129423 14.4614618,13.8129423 14.5450001,13.8611732 C14.6285384,13.909404 14.6800218,13.9985383 14.6800218,14.0950001 L14.6800218,20.8000001 C14.6813632,20.9078039 14.6184632,21.0060851 14.5200001,21.0500001 C14.4855026,21.0659855 14.448018,21.0745048 14.4100001,21.0750001 Z"/>
    <path fill="#000" fill-rule="nonzero" d="M12.5000001,11.935 L10.595,11.935 C10.4569289,11.935 10.345,11.8230712 10.345,11.685 C10.3476601,11.5480458 10.4580458,11.4376601 10.595,11.435 L12.5000001,11.435 C12.8164899,11.4593996 13.1199559,11.3043686 13.2856679,11.0336276 C13.45138,10.7628865 13.45138,10.4221135 13.2856679,10.1513725 C13.1199559,9.88063153 12.8164899,9.72560049 12.5000001,9.75000004 L11.69,9.75000004 C11.1908184,9.78047819 10.7159445,9.53147334 10.4571374,9.10353627 C10.1983303,8.6755992 10.1983303,8.13940087 10.4571374,7.7114638 C10.7159445,7.28352673 11.1908184,7.03452188 11.69,7.06500003 L13.5750001,7.06500003 C13.7130712,7.06500003 13.8250001,7.17692884 13.8250001,7.31500003 C13.8250001,7.45307122 13.7130712,7.56500003 13.5750001,7.56500003 L11.69,7.56500003 C11.3735102,7.54060048 11.0700442,7.69563152 10.9043322,7.96637253 C10.7386201,8.23711354 10.7386201,8.57788653 10.9043322,8.84862754 C11.0700442,9.11936855 11.3735102,9.27439959 11.69,9.25000004 L12.5000001,9.25000004 C12.9991817,9.21952189 13.4740556,9.46852674 13.7328627,9.89646381 C13.9916698,10.3244009 13.9916698,10.8605992 13.7328627,11.2885363 C13.4740556,11.7164734 12.9991817,11.9654782 12.5000001,11.935 L12.5000001,11.935 Z"/>
    <path fill="#000" fill-rule="nonzero" d="M12.0850001 7.56500003C11.9469289 7.56500003 11.835 7.45307122 11.835 7.31500003L11.835 6.39500003C11.835 6.25692884 11.9469289 6.14500003 12.0850001 6.14500003 12.2230712 6.14500003 12.335 6.25692884 12.335 6.39500003L12.335 7.31500003C12.335 7.45307122 12.2230712 7.56500003 12.0850001 7.56500003L12.0850001 7.56500003zM12.0850001 12.8550001C11.9469289 12.8550001 11.835 12.7430712 11.835 12.6050001L11.835 11.82C11.835 11.6819289 11.9469289 11.57 12.0850001 11.57 12.2230712 11.57 12.335 11.6819289 12.335 11.82L12.335 12.6050001C12.335 12.7430712 12.2230712 12.8550001 12.0850001 12.8550001z"/>
  </g>
</svg>
