<svg xmlns="http://www.w3.org/2000/svg" width="24" height="24" viewBox="0 0 24 24">
  <g fill="none" fill-rule="evenodd">
    <g fill="#000" fill-rule="nonzero" transform="translate(3 2.5)">
      <path d="M7.00000003,2.95000001 C7.00000003,2.95000001 7.00000003,2.9 7.00000003,2.9 L7.00000003,1.4 C7.00000003,0.850000004 6.55000003,0.400000002 6.00000002,0.400000002 C5.45000002,0.400000002 5.00000002,0.850000004 5.00000002,1.4 L5.00000002,2.9 C4.40000002,3.20000001 3.95000002,3.80000002 3.85000002,4.50000002 C2.45000001,4.50000002 1.25,5.65000002 1.25,7.10000003 L1.25,8.50000004 C0.700000003,8.60000004 0.250000001,9.10000004 0.250000001,9.70000004 C0.250000001,10.4 0.800000003,10.95 1.50000001,10.95 C2.20000001,10.95 2.75,10.4 2.75,9.70000004 C2.75,9.10000004 2.30000001,8.60000004 1.75,8.50000004 L1.75,7.15000003 C1.75,6.00000002 2.65000001,5.10000002 3.80000002,5.05000002 L3.80000002,6.80000003 L8.00000003,6.80000003 L8.00000003,4.80000002 C8.00000003,4.00000002 7.60000003,3.35000001 7.00000003,2.95000001 Z M2.25,9.70000004 C2.25,10.1 1.90000001,10.45 1.50000001,10.45 C1.1,10.45 0.750000003,10.1 0.750000003,9.70000004 C0.750000003,9.30000004 1.1,8.95000004 1.50000001,8.95000004 C1.90000001,8.95000004 2.25,9.30000004 2.25,9.70000004 Z M6.50000003,2.75000001 C6.30000003,2.70000001 6.10000003,2.65000001 5.90000002,2.65000001 C5.75000002,2.65000001 5.60000002,2.65000001 5.45000002,2.70000001 L5.45000002,1.4 C5.45000002,1.1 5.70000002,0.900000004 5.95000002,0.900000004 C6.20000003,0.900000004 6.45000002,1.15 6.45000002,1.4 L6.45000002,2.75000001 L6.50000003,2.75000001 Z"/>
      <path d="M5.65000002,17.3000001 L5.65000002,18.4000001 C5.65000002,18.5500001 5.75000002,18.6500001 5.90000002,18.6500001 C6.05000003,18.6500001 6.15000003,18.5500001 6.15000003,18.4000001 L6.15000003,17.3000001 C7.20000003,17.1500001 8.00000003,16.3000001 8.00000003,15.2000001 L8.00000003,7.35000003 L3.75000002,7.35000003 L3.75000002,15.2000001 C3.75000002,16.3000001 4.60000002,17.1500001 5.65000002,17.3000001 Z"/>
      <g transform="translate(11 .5)">
        <rect width="3.755" height="11.31" x=".25" y="3.493"/>
        <path d="M4.01000002,15.052887 L0.250000001,15.052887 C0.111928813,15.052887 -4.4408921e-14,14.9409582 -4.4408921e-14,14.802887 L-4.4408921e-14,3.49288692 C0.0026600529,3.3559327 0.113045774,3.24554697 0.250000001,3.24288692 L4.01000002,3.24288692 C4.14695424,3.24554697 4.25733996,3.3559327 4.26000002,3.49288692 L4.26000002,14.802887 C4.26000002,14.9409582 4.1480712,15.052887 4.01000002,15.052887 Z M0.510000002,14.552887 L3.77000002,14.552887 L3.77000002,3.76288692 L0.500000002,3.76288692 L0.510000002,14.552887 Z"/>
        <path d="M2.13000001 18.167887C.953633487 18.167887-4.4408921e-14 17.2142535-4.4408921e-14 16.037887L-4.4408921e-14 14.802887C.0026600529 14.6659327.113045774 14.555547.250000001 14.552887L4.01000002 14.552887C4.14695424 14.555547 4.25733996 14.6659327 4.26000002 14.802887L4.26000002 16.037887C4.26000002 16.6027981 4.03558995 17.1445719 3.63613746 17.5440244 3.23668497 17.9434769 2.69491113 18.167887 2.13000001 18.167887zM.500000002 15.052887L.500000002 16.052887C.500000002 16.9531111 1.22977586 17.682887 2.13000001 17.682887 3.03022415 17.682887 3.76000002 16.9531111 3.76000002 16.052887L3.76000002 15.052887.500000002 15.052887zM4.00500002 3.76288692L.255000001 3.76288692C.165650575 3.76449733.0828057088 3.71633171.0400000002 3.63788692-.00465819876 3.56053665-.00465819876 3.46523719.0400000002 3.38788692L1.92500001.117886908C1.9718315.0444528484 2.0529038 3.55271368e-15 2.14000001 3.55271368e-15 2.22709622 3.55271368e-15 2.30816852.0444528484 2.35500001.117886908L4.23500002 3.36788692C4.27998308 3.44577942 4.27965432 3.54183244 4.2341391 3.61941519 4.18862389 3.69699793 4.10493958 3.74414903 4.01500002 3.74288692L4.00500002 3.76288692zM.690000003 3.26288691L3.57500001 3.26288691 2.13000001.762886911.690000003 3.26288691z"/>
        <path d="M2.13000001,11.327887 C1.99192882,11.327887 1.88000001,11.2159581 1.88000001,11.077887 L1.88000001,3.49288692 C1.88000001,3.35481573 1.99192882,3.24288692 2.13000001,3.24288692 C2.2680712,3.24288692 2.38000001,3.35481573 2.38000001,3.49288692 L2.38000001,11.077887 C2.38000001,11.2159581 2.2680712,11.327887 2.13000001,11.327887 Z"/>
      </g>
    </g>
    <rect width="24" height="24"/>
  </g>
</svg>
