<svg xmlns="http://www.w3.org/2000/svg" width="24" height="24" viewBox="0 0 24 24">
  <g fill="none" fill-rule="evenodd">
    <path fill="#000" fill-rule="nonzero" d="M19.7150001 6.30500003L19.7150001 6.30500003 17.8350001 3.05000001C17.7881686 2.97656595 17.7070963 2.9321131 17.6200001 2.9321131 17.5329039 2.9321131 17.4518316 2.97656595 17.4050001 3.05000001L15.5300001 6.30000003 15.5300001 6.30000003C15.5079387 6.33620631 15.4958624 6.37761069 15.4950001 6.42000003L15.4950001 18.9700001C15.4950001 20.1463666 16.4486336 21.1000001 17.6250001 21.1000001 18.8013666 21.1000001 19.7550001 20.1463666 19.7550001 18.9700001L19.7550001 6.42500003C19.7526372 6.38214283 19.7388241 6.34070351 19.7150001 6.30500003zM16.0000001 6.67500003L17.3800001 6.67500003 17.3800001 14.0000001C17.3800001 14.1380712 17.4919289 14.2500001 17.6300001 14.2500001 17.7680713 14.2500001 17.8800001 14.1380712 17.8800001 14.0000001L17.8800001 6.67500003 19.2500001 6.67500003 19.2500001 17.5000001 16.0000001 17.5000001 16.0000001 6.67500003zM17.6300001 3.67500002L19.0750001 6.17500002 16.1800001 6.17500002 17.6300001 3.67500002zM19.2500001 18.9700001C19.2500001 19.8702242 18.5202242 20.6000001 17.6200001 20.6000001 16.7197759 20.6000001 15.9900001 19.8702242 15.9900001 18.9700001L15.9900001 18.0000001 19.2500001 18.0000001 19.2500001 18.9700001zM11 5.50000002C11 5.50000002 11 5.46500002 11 5.44500002L11 3.94500002C11 3.38028886 10.5422112 2.92250001 9.97750004 2.92250001 9.41278888 2.92250001 8.95500004 3.38028886 8.95500004 3.94500002L8.95500004 5.44500002C8.3315896 5.76006491 7.90736377 6.36636996 7.82500003 7.06000003 6.39929696 7.06275768 5.24499735 8.2192943 5.24500002 9.64500004L5.24500002 11C4.61907054 11.128302 4.19187575 11.709601 4.25635591 12.3452828 4.32083606 12.9809647 4.85605628 13.4646414 5.49500002 13.4646414 6.13394377 13.4646414 6.66916398 12.9809647 6.73364414 12.3452828 6.7981243 11.709601 6.37092951 11.128302 5.74500002 11L5.74500002 9.61000004C5.74488174 8.47286223 6.6579805 7.54640105 7.79500003 7.53000003L7.79500003 17.6750001C7.80013596 18.742498 8.59997217 19.6388292 9.66000004 19.7650001L9.66000004 20.8500001C9.66000004 20.9880713 9.77192885 21.1000001 9.91000004 21.1000001 10.0480712 21.1000001 10.16 20.9880713 10.16 20.8500001L10.16 19.7650001C11.2101141 19.6272974 11.9964712 18.7340983 12.0000001 17.6750001L12.0000001 7.28000003C11.9959755 6.55390674 11.6180226 5.88115059 11 5.50000002L11 5.50000002zM6.25000003 12.2200001C6.2390324 12.6280165 5.90179294 12.9512414 5.49367848 12.9448913 5.08556403 12.9385411 4.75854393 12.6049806 4.76026888 12.1968204 4.76200754 11.7886603 5.09184638 11.4578868 5.50000002 11.455 5.90560225 11.460436 6.23231404 11.7893703 6.23500003 12.1950001L6.25000003 12.2200001zM9.45000004 3.92500002C9.45000004 3.63643123 9.68393126 3.40250001 9.97250004 3.40250001 10.2610688 3.40250001 10.495 3.63643123 10.495 3.92500002L10.495 5.26500002C10.3038364 5.20550248 10.1051778 5.17351507 9.90500004 5.17000002 9.75205007 5.17152872 9.59963205 5.18827795 9.45000004 5.22000002L9.45000004 3.92500002zM9.90500004 19.2900001C9.01306017 19.2900001 8.29000003 18.5669399 8.29000003 17.6750001L8.29000003 9.80000004 11.5 9.80000004 11.5 17.6750001C11.5000679 18.5591875 10.7891196 19.2790504 9.90500004 19.2900001L9.90500004 19.2900001zM11.5 9.30000004L8.29000003 9.30000004 8.29000003 7.30000003C8.29000003 6.40806016 9.01306017 5.68500002 9.90500004 5.68500002 10.7969399 5.68500002 11.52 6.40806016 11.52 7.30000003L11.5 9.30000004z"/>
    <rect width="24" height="24"/>
  </g>
</svg>
