<svg xmlns="http://www.w3.org/2000/svg" width="24" height="24" viewBox="0 0 24 24">
  <g fill="none" fill-rule="evenodd">
    <rect width="24" height="24"/>
    <rect width="12" height="18.085" x="6.085" y="2.915" fill="#CCC" fill-rule="nonzero"/>
    <path fill="#000" fill-rule="nonzero" d="M18.0850001,21.2250001 L6.08500003,21.2250001 C5.96073596,21.2250001 5.86000002,21.1242642 5.86000002,21.0000001 L5.86000002,2.91500001 C5.86000002,2.79073594 5.96073596,2.69000001 6.08500003,2.69000001 L18.0850001,2.69000001 C18.1446738,2.69000001 18.2019034,2.7137053 18.2440991,2.75590099 C18.2862948,2.79809667 18.3100001,2.8553263 18.3100001,2.91500001 L18.3100001,21.0000001 C18.3100001,21.0596738 18.2862948,21.1169034 18.2440991,21.1590991 C18.2019034,21.2012948 18.1446738,21.2250001 18.0850001,21.2250001 Z M6.31000003,20.7750001 L17.8600001,20.7750001 L17.8600001,3.14000001 L6.31000003,3.14000001 L6.31000003,20.7750001 Z"/>
    <rect width="14.34" height="1.53" x="4.915" y="2.915" fill="#FFF" fill-rule="nonzero" rx=".765"/>
    <path fill="#000" fill-rule="nonzero" d="M18.5750001,4.67000002 L5.57500002,4.67000002 C5.07713605,4.66724935 4.67500002,4.26287159 4.67500002,3.76500002 L4.67500002,3.59500001 C4.67500002,3.09712844 5.07713605,2.69275068 5.57500002,2.69000001 L18.5750001,2.69000001 C18.8184673,2.6846182 19.0538292,2.77758496 19.2279002,2.9478922 C19.4019711,3.11819943 19.5000001,3.35147334 19.5000001,3.59500001 L19.5000001,3.76500002 C19.5000001,4.00852669 19.4019711,4.2418006 19.2279002,4.41210783 C19.0538292,4.58241507 18.8184673,4.67538183 18.5750001,4.67000002 L18.5750001,4.67000002 Z M5.57500002,3.13500001 C5.32290381,3.13774035 5.12000002,3.34288891 5.12000002,3.59500001 L5.12000002,3.76500002 C5.12000002,4.01711112 5.32290381,4.22225968 5.57500002,4.22500002 L18.5750001,4.22500002 C18.8270963,4.22225968 19.0300001,4.01711112 19.0300001,3.76500002 L19.0300001,3.59500001 C19.0300001,3.34288891 18.8270963,3.13774035 18.5750001,3.13500001 L5.57500002,3.13500001 Z"/>
    <rect width="14.34" height="1.53" x="4.915" y="5.795" fill="#FFF" fill-rule="nonzero" rx=".765"/>
    <path fill="#000" fill-rule="nonzero" d="M18.5750001,7.55000003 L5.57500002,7.55000003 C5.07713605,7.54724936 4.67500002,7.1428716 4.67500002,6.64500003 L4.67500002,6.50000003 C4.67773242,6.00407996 5.07907995,5.60273243 5.57500002,5.60000002 L18.5750001,5.60000002 C18.8176025,5.59463395 19.052197,5.68692038 19.2261189,5.85614176 C19.4000409,6.02536314 19.4987187,6.25734165 19.5000001,6.50000003 L19.5000001,6.67000003 C19.4863666,7.16790051 19.0729614,7.5611941 18.5750001,7.55000003 L18.5750001,7.55000003 Z M5.59500002,6.00000003 C5.34371046,6.00000003 5.14000002,6.20371046 5.14000002,6.45500003 L5.14000002,6.62500003 C5.14000002,6.87711113 5.34290381,7.08225969 5.59500002,7.08500003 L18.5950001,7.08500003 C18.8470963,7.08225969 19.0500001,6.87711113 19.0500001,6.62500003 L19.0500001,6.50000003 C19.0500001,6.24871046 18.8462896,6.04500003 18.5950001,6.04500003 L5.59500002,6.00000003 Z"/>
    <rect width="14.34" height="1.53" x="4.915" y="16.675" fill="#FFF" fill-rule="nonzero" rx=".765"/>
    <path fill="#000" fill-rule="nonzero" d="M18.5750001,18.4300001 L5.57500002,18.4300001 C5.07713605,18.4272494 4.67500002,18.0228716 4.67500002,17.5250001 L4.67500002,17.3550001 C4.67500002,16.8571285 5.07713605,16.4527507 5.57500002,16.4500001 L18.5750001,16.4500001 C18.8184673,16.4446183 19.0538292,16.537585 19.2279002,16.7078923 C19.4019711,16.8781995 19.5000001,17.1114734 19.5000001,17.3550001 L19.5000001,17.5250001 C19.5000001,17.7685267 19.4019711,18.0018007 19.2279002,18.1721079 C19.0538292,18.3424151 18.8184673,18.4353819 18.5750001,18.4300001 L18.5750001,18.4300001 Z M5.57500002,16.8950001 C5.32290381,16.8977404 5.12000002,17.102889 5.12000002,17.3550001 L5.12000002,17.5250001 C5.12000002,17.7762896 5.32371046,17.9800001 5.57500002,17.9800001 L18.5750001,17.9800001 C18.8262896,17.9800001 19.0300001,17.7762896 19.0300001,17.5250001 L19.0300001,17.3550001 C19.0300001,17.102889 18.8270963,16.8977404 18.5750001,16.8950001 L5.57500002,16.8950001 Z"/>
    <rect width="14.34" height="1.53" x="4.915" y="19.555" fill="#FFF" fill-rule="nonzero" rx=".765"/>
    <path fill="#000" fill-rule="nonzero" d="M18.5750001,21.3050001 L5.57500002,21.3050001 C5.07907995,21.3022677 4.67773242,20.9009202 4.67500002,20.4050001 L4.67500002,20.2350001 C4.67500002,19.7371285 5.07713605,19.3327508 5.57500002,19.3300001 L18.5750001,19.3300001 C18.8184673,19.3246183 19.0538292,19.417585 19.2279002,19.5878923 C19.4019711,19.7581995 19.5000001,19.9914734 19.5000001,20.2350001 L19.5000001,20.4050001 C19.4987187,20.6476585 19.4000409,20.879637 19.2261189,21.0488584 C19.052197,21.2180797 18.8176025,21.3103662 18.5750001,21.3050001 Z M5.57500002,19.7750001 C5.32290381,19.7777404 5.12000002,19.982889 5.12000002,20.2350001 L5.12000002,20.4050001 C5.12000002,20.6562896 5.32371046,20.8600001 5.57500002,20.8600001 L18.5750001,20.8600001 C18.8262896,20.8600001 19.0300001,20.6562896 19.0300001,20.4050001 L19.0300001,20.2350001 C19.0300001,19.982889 18.8270963,19.7777404 18.5750001,19.7750001 L5.57500002,19.7750001 Z"/>
    <path fill="#FFF" fill-rule="nonzero" d="M13.0650001,13.8150001 L13.0650001,13.8150001 C12.8058666,14.0763748 12.4530583,14.2234034 12.0850001,14.2234034 C11.7169418,14.2234034 11.3641335,14.0763748 11.105,13.8150001 L11.105,13.8150001 C10.6797483,13.390471 10.5767489,12.7401616 10.85,12.2050001 L12.0850001,9.77500004 L13.3200001,12.2050001 C13.5932512,12.7401616 13.4902518,13.390471 13.0650001,13.8150001 L13.0650001,13.8150001 Z"/>
    <path fill="#000" fill-rule="nonzero" d="M12.0850001,14.5000024 C11.5144874,14.4996458 10.9851541,14.2028268 10.6872889,13.7162456 C10.3894238,13.2296645 10.3658341,12.6232498 10.625,12.1150001 L11.86,9.69000004 C11.9064879,9.60971818 11.9922299,9.56028818 12.0850001,9.56028818 C12.1777702,9.56028818 12.2635122,9.60971818 12.3100001,9.69000004 L13.5450001,12.1150001 C13.868356,12.7479212 13.7472268,13.5170919 13.2450001,14.0200001 L13.2450001,14.0200001 C12.9376118,14.3279852 12.5201344,14.5007345 12.0850001,14.5000024 L12.0850001,14.5000024 Z M12.0850001,10.35 L11.085,12.35 C10.8376946,12.8485164 10.9864535,13.4527349 11.4369329,13.7794562 C11.8874123,14.1061775 12.5079514,14.0599114 12.9050001,13.6700001 L12.9050001,13.6700001 C13.255614,13.3230027 13.3406213,12.7886712 13.1150001,12.35 L12.0850001,10.35 Z"/>
  </g>
</svg>
