<svg xmlns="http://www.w3.org/2000/svg" width="24" height="24" viewBox="0 0 24 24">
  <g fill="none" fill-rule="evenodd">
    <path fill="#1A1A1A" fill-rule="nonzero" d="M21.0000001,11.75 L12.2500001,11.75 L12.2500001,3.00000001 C12.2500001,2.86192882 12.1380712,2.75000001 12,2.75000001 C6.89819134,2.75000001 2.76184451,6.88486195 2.76000541,11.9866703 C2.75816753,17.0884787 6.89153322,21.2263177 11.9933406,21.2300001 C17.095148,21.2336776 21.2344787,17.1018058 21.2400002,12.0000001 C21.2400002,11.8657417 21.1341511,11.7553703 21.0000001,11.75 Z M12.0000001,20.7500001 C7.23838993,20.7268345 3.37152859,16.8963057 3.30341443,12.1351265 C3.23530028,7.37394718 6.99100129,3.43436883 11.75,3.27500001 L11.75,12.0000001 C11.75,12.1380712 11.8619289,12.2500001 12.0000001,12.2500001 L20.7350001,12.2500001 C20.5971353,16.9759827 16.7279919,20.736604 12.0000001,20.7400001 L12.0000001,20.7500001 Z"/>
    <path fill="#1A1A1A" fill-rule="nonzero" d="M13.6050001,10.645 L21.0000001,10.645 C21.1380713,10.645 21.2500001,10.5330712 21.2500001,10.395 C21.2444823,6.17668888 17.8233148,2.76000001 13.6050001,2.76000001 C13.4669289,2.76000001 13.3550001,2.87192882 13.3550001,3.01000001 L13.3550001,10.395 C13.3550001,10.5330712 13.4669289,10.645 13.6050001,10.645 Z M13.8550001,3.26500001 C17.5967709,3.40138547 20.5986146,6.40322919 20.7350001,10.145 L13.8550001,10.145 L13.8550001,3.26500001 Z"/>
    <rect width="24" height="24"/>
  </g>
</svg>
