<svg xmlns="http://www.w3.org/2000/svg" width="24" height="24" viewBox="0 0 24 24">
  <g fill="none" fill-rule="evenodd">
    <rect width="24" height="24"/>
    <path fill="#1A1A1A" fill-rule="nonzero" d="M11.925,21.045 C6.81636609,21.045 2.67500001,16.903634 2.67500001,11.795 C2.67500001,6.68636609 6.81636609,2.54500001 11.925,2.54500001 C12.0630712,2.54500001 12.175,2.65692882 12.175,2.79500001 L12.175,11.555 L20.9150001,11.555 C21.0530713,11.555 21.1650001,11.6669289 21.1650001,11.805 C21.1594887,16.9058265 17.0258265,21.0394887 11.925,21.045 L11.925,21.045 Z M11.675,3.04500001 C6.91879943,3.18872446 3.15151622,7.1108897 3.19943085,11.8690201 C3.24734548,16.6271506 7.09284953,20.4726546 11.85098,20.5205693 C16.6091104,20.5684839 20.5312756,16.8012007 20.6750001,12.045 L11.925,12.045 C11.7869289,12.045 11.675,11.9330712 11.675,11.795 L11.675,3.04500001 Z"/>
    <path fill="#CCC" fill-rule="nonzero" d="M20.9150001,10.2 C20.9150001,6.12137715 17.608623,2.81500001 13.5300001,2.81500001 L13.5300001,10.2 L20.9150001,10.2 Z"/>
    <path fill="#1A1A1A" fill-rule="nonzero" d="M20.9150001,10.45 L13.5300001,10.45 C13.3919289,10.45 13.2800001,10.3380712 13.2800001,10.2 L13.2800001,2.81500001 C13.2800001,2.67692882 13.3919289,2.56500001 13.5300001,2.56500001 C17.7444101,2.57050905 21.159491,5.98558999 21.1650001,10.2 C21.1650001,10.3380712 21.0530713,10.45 20.9150001,10.45 Z M13.7800001,9.95000004 L20.6600001,9.95000004 C20.5261719,6.20627723 17.5236247,3.20154792 13.7800001,3.06500001 L13.7800001,9.95000004 Z"/>
  </g>
</svg>
