<svg xmlns="http://www.w3.org/2000/svg" width="24" height="24" viewBox="0 0 24 24">
  <g fill="none" fill-rule="evenodd">
    <rect width="24" height="24"/>
    <circle cx="12" cy="12" r="9" fill="#CCC" fill-rule="nonzero"/>
    <path fill="#000" fill-rule="nonzero" d="M12.0000001,21.25 C6.89136609,21.25 2.75000001,17.108634 2.75000001,12.0000001 C2.75000001,6.89136609 6.89136609,2.75000001 12,2.75000001 C17.108634,2.75000001 21.25,6.89136609 21.25,12 C21.2444886,17.1063493 17.1063493,21.2444886 12.0000001,21.25 L12.0000001,21.25 Z M12.0000001,3.25000001 C7.16750847,3.25000001 3.25000001,7.16750847 3.25000001,12 C3.25000001,16.8324916 7.16750847,20.75 12,20.75 C16.8324916,20.75 20.75,16.8324916 20.75,12.0000001 C20.7444893,7.16979296 16.8302071,3.25551081 12.0000001,3.25000001 Z"/>
    <path fill="#000" fill-rule="nonzero" d="M16.2500001,17.3300001 L9.45500004,17.3300001 C10.3691644,16.7456569 10.9216504,15.7349658 10.92,14.6500001 L10.84,13.0000001 L14.7450001,13.0000001 C14.8830712,13.0000001 14.9950001,12.8880712 14.9950001,12.7500001 C14.99234,12.6130458 14.8819543,12.5026601 14.7450001,12.5000001 L10.815,12.5000001 L10.665,9.34000004 C10.7268536,7.91166437 11.9028257,6.78551518 13.3325001,6.78551518 C14.7621744,6.78551518 15.9381465,7.91166437 16.0000001,9.34000004 C16.0000001,9.47807123 16.1119289,9.59000004 16.2500001,9.59000004 C16.3880713,9.59000004 16.5000001,9.47807123 16.5000001,9.34000004 C16.5461627,8.17834355 15.95274,7.08461653 14.9537058,6.49005169 C13.9546715,5.89548686 12.7103286,5.89548686 11.7112944,6.49005169 C10.7122601,7.08461653 10.1188375,8.17834355 10.165,9.34000004 L10.315,12.4850001 L8.00000003,12.4850001 C7.86192885,12.4850001 7.75000003,12.5969289 7.75000003,12.7350001 C7.75000003,12.8730712 7.86192885,12.9850001 8.00000003,12.9850001 L10.365,12.9850001 L10.445,14.6550001 C10.4422423,16.1276474 9.2476499,17.3200027 7.77500003,17.3200001 C7.63692884,17.3200001 7.52500003,17.4319289 7.52500003,17.5700001 C7.52500003,17.7080713 7.63692884,17.8200001 7.77500003,17.8200001 L16.2750001,17.8200001 C16.4130713,17.8200001 16.525,17.7080713 16.525,17.5700001 C16.5225846,17.5008812 16.4916438,17.4358512 16.4395362,17.3903754 C16.3874285,17.3448996 16.3188102,17.3230418 16.2500001,17.3300001 Z"/>
  </g>
</svg>
