<svg xmlns="http://www.w3.org/2000/svg" width="24" height="24" viewBox="0 0 24 24">
  <g fill="none" fill-rule="evenodd">
    <rect width="24" height="24"/>
    <path fill="#000" fill-rule="nonzero" d="M12,3.00000001 C7.05000003,3.00000001 3.00000001,7.05000003 3.00000001,12 C3.00000001,16.9500001 7.05000003,21 12,21 C16.9500001,21 21,16.9500001 21,12 C21,7.05000003 16.9500001,3.00000001 12,3.00000001 Z M10.8,12.5000001 L14.7500001,12.5000001 C14.9000001,12.5000001 15.0000001,12.6000001 15.0000001,12.7500001 C15.0000001,12.9000001 14.9000001,13.0000001 14.7500001,13.0000001 L10.85,13.0000001 L10.95,14.65 C10.95,15.8000001 10.35,16.7500001 9.50000004,17.3500001 L16.3000001,17.3500001 C16.4500001,17.3500001 16.55,17.4500001 16.55,17.6000001 C16.55,17.7500001 16.4500001,17.8500001 16.3000001,17.8500001 L7.80000003,17.8500001 C7.65000003,17.8500001 7.55000003,17.7500001 7.55000003,17.6000001 C7.55000003,17.4500001 7.65000003,17.3500001 7.80000003,17.3500001 C9.25000004,17.3500001 10.45,16.15 10.45,14.7000001 L10.35,13.0000001 L8.00000003,13.0000001 C7.85000003,13.0000001 7.75000003,12.9000001 7.75000003,12.7500001 C7.75000003,12.6000001 7.85000003,12.5000001 8.00000003,12.5000001 L10.35,12.5000001 L10.2,9.35000004 C10.2,7.60000003 11.6,6.15000003 13.3500001,6.15000003 C15.1000001,6.15000003 16.5000001,7.55000003 16.5000001,9.30000004 C16.5000001,9.45000004 16.4000001,9.55000004 16.2500001,9.55000004 C16.1000001,9.55000004 16.0000001,9.45000004 16.0000001,9.35000004 C16.0000001,7.90000003 14.8000001,6.70000003 13.3500001,6.70000003 C11.9,6.70000003 10.7,7.90000003 10.7,9.35000004 L10.8,12.5000001 Z"/>
  </g>
</svg>
