<svg xmlns="http://www.w3.org/2000/svg" width="24" height="24" viewBox="0 0 24 24">
  <g fill="none" fill-rule="evenodd">
    <path fill="#000" fill-rule="nonzero" d="M12.0000001,2.75000001 C6.89136609,2.75000001 2.75000001,6.89136609 2.75000001,12.0000001 C2.75000001,17.108634 6.89136609,21.25 12,21.25 C17.108634,21.25 21.25,17.108634 21.25,12.0000001 C21.2444886,6.89365075 17.1063493,2.75551146 12.0000001,2.75000001 Z M12.0000001,20.75 C7.16750847,20.75 3.25000001,16.8324916 3.25000001,12.0000001 C3.25000001,7.16750847 7.16750847,3.25000001 12,3.25000001 C16.8324916,3.25000001 20.75,7.16750847 20.75,12 C20.7444893,16.8302071 16.8302071,20.7444893 12.0000001,20.75 Z"/>
    <path fill="#000" fill-rule="nonzero" d="M13.3300001,6.67000003 C14.8026499,6.66999745 15.9972423,7.86235275 16.0000001,9.33500004 C16.0000001,9.47307123 16.1119289,9.58500004 16.2500001,9.58500004 C16.3880713,9.58500004 16.5000001,9.47307123 16.5000001,9.33500004 C16.5461627,8.17334355 15.95274,7.07961653 14.9537058,6.48505169 C13.9546715,5.89048686 12.7103286,5.89048686 11.7112944,6.48505169 C10.7122601,7.07961653 10.1188375,8.17334355 10.165,9.33500004 L10.315,12.4800001 L8.00000003,12.4800001 C7.86192885,12.4800001 7.75000003,12.5919289 7.75000003,12.7300001 C7.75000003,12.8680712 7.86192885,12.9800001 8.00000003,12.9800001 L10.365,12.9800001 L10.445,14.6500001 C10.4422423,16.1226474 9.2476499,17.3150027 7.77500003,17.3150001 C7.63692884,17.3150001 7.52500003,17.4269289 7.52500003,17.5650001 C7.52500003,17.7030713 7.63692884,17.8150001 7.77500003,17.8150001 L16.2750001,17.8150001 C16.4130713,17.8150001 16.525,17.7030713 16.525,17.5650001 C16.525,17.4269289 16.4130713,17.3150001 16.2750001,17.3150001 L9.45500004,17.3150001 C10.3693871,16.7314616 10.9205667,15.7197073 10.915,14.6350001 L10.84,13.0000001 L14.7450001,13.0000001 C14.8830712,13.0000001 14.9950001,12.8880712 14.9950001,12.7500001 C14.99234,12.6130458 14.8819543,12.5026601 14.7450001,12.5000001 L10.815,12.5000001 L10.665,9.34000004 C10.6636723,8.63233218 10.9438621,7.95319378 11.4437905,7.4523274 C11.9437189,6.95146102 12.6223309,6.66999878 13.3300001,6.67000003 L13.3300001,6.67000003 Z"/>
    <rect width="24" height="24"/>
  </g>
</svg>
