<svg xmlns="http://www.w3.org/2000/svg" width="24" height="24" viewBox="0 0 24 24">
  <g fill="none" fill-rule="evenodd">
    <rect width="24" height="24"/>
    <path fill="#CCC" fill-rule="nonzero" d="M19.6000001,5.04500002 L19.6000001,16.0000001 C19.6000001,16.6489347 19.0739347,17.1750001 18.4250001,17.1750001 L5.74000002,17.1750001 C5.09106544,17.1750001 4.56500002,16.6489347 4.56500002,16.0000001 L4.56500002,5.04500002"/>
    <path fill="#1A1A1A" fill-rule="nonzero" d="M18.4250001,17.4250001 L5.74000002,17.4250001 C4.95413325,17.4222571 4.31774303,16.7858668 4.31500002,16.0000001 L4.31500002,5.04500002 C4.31500002,4.90692883 4.42692883,4.79500002 4.56500002,4.79500002 C4.70307121,4.79500002 4.81500002,4.90692883 4.81500002,5.04500002 L4.81500002,16.0000001 C4.81500002,16.5108635 5.22913663,16.9250001 5.74000002,16.9250001 L18.4250001,16.9250001 C18.9358635,16.9250001 19.3500001,16.5108635 19.3500001,16.0000001 L19.3500001,5.04500002 C19.3500001,4.90692883 19.4619289,4.79500002 19.6000001,4.79500002 C19.7380713,4.79500002 19.8500001,4.90692883 19.8500001,5.04500002 L19.8500001,16.0000001 C19.8472571,16.7858668 19.2108669,17.4222571 18.4250001,17.4250001 Z"/>
    <path fill="#1A1A1A" fill-rule="nonzero" d="M15.5350001,21.1400001 C15.4663169,21.1403184 15.4007886,21.1111947 15.3550001,21.0600001 L12.1100001,17.5600001 L8.87000004,21.0600001 C8.82305839,21.1073283 8.75915942,21.1339497 8.69250004,21.1339497 C8.62584065,21.1339497 8.56194169,21.1073283 8.51500004,21.0600001 C8.41971432,20.9627892 8.41971432,20.807211 8.51500004,20.7100001 L11.93,17.0000001 C12.0312204,16.9002477 12.1937797,16.9002477 12.2950001,17.0000001 L15.7200001,20.7200001 C15.7683387,20.7653668 15.7957594,20.8287071 15.7957594,20.8950001 C15.7957594,20.961293 15.7683387,21.0246334 15.7200001,21.0700001 C15.6716344,21.1194135 15.6039618,21.1450193 15.5350001,21.1400001 L15.5350001,21.1400001 Z"/>
    <rect width="18.035" height="1.935" x="3.08" y="3.11" fill="#CCC" fill-rule="nonzero" rx=".968"/>
    <path fill="#1A1A1A" fill-rule="nonzero" d="M20.1500001,5.29500002 L4.04500002,5.29500002 C3.40283899,5.25382657 2.90306249,4.72097965 2.90306249,4.07750002 C2.90306249,3.43402039 3.40283899,2.90117346 4.04500002,2.86000001 L20.1500001,2.86000001 C20.7921611,2.90117346 21.2919376,3.43402039 21.2919376,4.07750002 C21.2919376,4.72097965 20.7921611,5.25382657 20.1500001,5.29500002 Z M4.04500002,3.36000001 C3.671896,3.39117325 3.38494791,3.70309599 3.38494791,4.07750002 C3.38494791,4.45190405 3.671896,4.76382678 4.04500002,4.79500002 L20.1500001,4.79500002 C20.5231041,4.76382678 20.8100522,4.45190405 20.8100522,4.07750002 C20.8100522,3.70309599 20.5231041,3.39117325 20.1500001,3.36000001 L4.04500002,3.36000001 Z"/>
    <path fill="#000" fill-rule="nonzero" d="M18.0450001,7.57500003 L18.0450001,7.57500003 C18.0271725,7.53968496 18.0015214,7.50890363 17.9700001,7.48500003 L17.9700001,7.48500003 C17.9355503,7.46311981 17.8957982,7.45102134 17.8550001,7.45000003 L15.9200001,7.45000003 C15.7929746,7.45000003 15.6900001,7.55297454 15.6900001,7.68000003 C15.6900001,7.80702552 15.7929746,7.91000003 15.9200001,7.91000003 L17.2750001,7.91000003 L13.3700001,11.8 C13.3340575,11.8317048 13.2879246,11.8494483 13.2400001,11.85 C13.1911007,11.8495688 13.1443612,11.8297944 13.1100001,11.795 L11.465,10.035 C11.3471506,9.90879642 11.1826662,9.83649562 11.01,9.83500004 C10.8362106,9.83041297 10.6681403,9.89727965 10.545,10.02 L6.17000003,14.3950001 C6.0803587,14.4847898 6.0803587,14.6302103 6.17000003,14.7200001 C6.21173306,14.7639243 6.26941719,14.7891611 6.33000003,14.7900001 C6.39208785,14.7893809 6.45140737,14.764215 6.49500003,14.7200001 L10.87,10.345 C10.9045485,10.3110638 10.9516151,10.2929613 11,10.295 C11.0480271,10.2992542 11.0935027,10.3184939 11.13,10.35 L12.7750001,12.1100001 C12.8941838,12.2343091 13.0578275,12.3062405 13.2300001,12.3100001 C13.403077,12.3107089 13.5697134,12.2444127 13.6950001,12.1250001 L17.6000001,8.21500003 L17.6000001,9.61500004 C17.6000001,9.74202553 17.7029746,9.84500004 17.8300001,9.84500004 C17.8914127,9.84638063 17.9507197,9.82259215 17.9941559,9.7791559 C18.0375922,9.73571964 18.0613807,9.67641267 18.060057,9.61500004 L18.060057,7.66000003 C18.0602909,7.6309836 18.0552051,7.60216426 18.0450001,7.57500003 L18.0450001,7.57500003 Z"/>
  </g>
</svg>
