<svg xmlns="http://www.w3.org/2000/svg" width="24" height="24" viewBox="0 0 24 24">
  <g fill="none" fill-rule="evenodd">
    <path fill="#1A1A1A" fill-rule="nonzero" d="M10.76,12.2200001 C10.8838145,12.3391866 11.0481662,12.407071 11.22,12.4100001 C11.3947776,12.406824 11.5607811,12.3328442 11.68,12.2050001 L13.3250001,10.45 C13.358672,10.4164248 13.4027421,10.3952711 13.4500001,10.39 C13.4977169,10.3954653 13.5428495,10.4145598 13.5800001,10.445 L17.5000001,14.3550001 L16.1300001,14.3550001 C16.040671,14.3417207 15.9518371,14.3819484 15.9028906,14.4578448 C15.8539441,14.5337411 15.8539441,14.631259 15.9028906,14.7071553 C15.9518371,14.7830517 16.040671,14.8232794 16.1300001,14.8100001 L18.0450001,14.8100001 C18.0853597,14.8107398 18.1251449,14.800361 18.1600001,14.7800001 L18.1600001,14.7800001 C18.1925087,14.7571491 18.218386,14.7260965 18.2350001,14.6900001 L18.2350001,14.6900001 C18.2397556,14.6618663 18.2397556,14.6331339 18.2350001,14.6050001 L18.2350001,12.6250001 C18.2350001,12.4979746 18.1320256,12.3950001 18.0050001,12.3950001 C17.8779746,12.3950001 17.7750001,12.4979746 17.7750001,12.6250001 L17.7750001,14.0250001 L13.8650001,10.12 C13.7435806,9.99719913 13.5776876,9.92867812 13.4050001,9.93000004 C13.2317122,9.93337457 13.067334,10.0074351 12.9500001,10.135 L11.305,11.895 C11.2709624,11.9302684 11.2240143,11.950131 11.175,11.95 C11.1256162,11.9520633 11.0779083,11.9318792 11.045,11.895 L6.71000003,7.50000003 C6.65279425,7.43793966 6.56619176,7.41219817 6.48437528,7.43293593 C6.40255881,7.4536737 6.33867369,7.51755881 6.31793593,7.59937529 C6.29719816,7.68119176 6.32293966,7.76779426 6.38500003,7.82500003 L10.76,12.2200001 Z"/>
    <path fill="#1A1A1A" fill-rule="nonzero" d="M20.0500001,2.60000001 L3.95000002,2.60000001 C3.49640793,2.57091704 3.06425611,2.79640143 2.8286455,3.18509056 C2.59303488,3.57377968 2.59303488,4.06122035 2.8286455,4.44990948 C3.06425611,4.8385986 3.49640793,5.06408299 3.95000002,5.03500002 L4.24000002,5.03500002 C4.23783198,5.04488251 4.23783198,5.05511753 4.24000002,5.06500002 L4.24000002,16.0000001 C4.24000002,16.7897673 4.88023283,17.4300001 5.67000002,17.4300001 L11.47,17.4300001 L8.43000004,20.7250001 C8.36926488,20.7910942 8.34840409,20.8845695 8.37527572,20.9702148 C8.40214734,21.05586 8.47266894,21.1206637 8.56027572,21.1402148 C8.64788249,21.1597659 8.73926489,21.1310942 8.80000004,21.0650001 L12.0400001,17.5650001 L15.2800001,21.0650001 C15.3277087,21.1164453 15.3948396,21.1454749 15.4650001,21.1450001 C15.5280029,21.1464936 15.5890653,21.1231462 15.6350001,21.0800001 C15.6823282,21.0330584 15.7089496,20.9691595 15.7089496,20.9025001 C15.7089496,20.8358407 15.6823282,20.7719417 15.6350001,20.7250001 L12.6000001,17.4500001 L18.5000001,17.4500001 C19.190356,17.4500001 19.7500001,16.890356 19.7500001,16.2000001 L19.7500001,5.06500002 C19.7521681,5.05511753 19.7521681,5.04488251 19.7500001,5.03500002 L20.0400001,5.03500002 C20.4935922,5.06408299 20.925744,4.8385986 21.1613546,4.44990948 C21.3969652,4.06122035 21.3969652,3.57377968 21.1613546,3.18509056 C20.925744,2.79640143 20.4935922,2.57091704 20.0400001,2.60000001 L20.0500001,2.60000001 Z M19.2700001,5.06500002 L19.2700001,16.2000001 C19.2700721,16.4024266 19.1883149,16.5962868 19.0433069,16.7375284 C18.8982988,16.87877 18.7023547,16.9553981 18.5000001,16.9500001 L5.66000002,16.9500001 C5.40984403,16.9500579 5.17021272,16.8493354 4.9952174,16.6705767 C4.82022207,16.4918181 4.72462031,16.2500982 4.73000002,16.0000001 L4.73000002,5.06500002 C4.73000002,5.06500002 4.73000002,5.06500002 4.73000002,5.03500002 L19.2800001,5.03500002 C19.2800001,5.03500002 19.2700001,5.05500002 19.2700001,5.06500002 Z M20.0500001,4.53500002 L3.95000002,4.53500002 C3.67936268,4.55761206 3.41902813,4.42601647 3.27675612,4.19468435 C3.13448412,3.96335223 3.13448412,3.6716478 3.27675612,3.44031568 C3.41902813,3.20898356 3.67936268,3.07738797 3.95000002,3.10000001 L20.0500001,3.10000001 C20.3206374,3.07738797 20.580972,3.20898356 20.723244,3.44031568 C20.865516,3.6716478 20.865516,3.96335223 20.723244,4.19468435 C20.580972,4.42601647 20.3206374,4.55761206 20.0500001,4.53500002 L20.0500001,4.53500002 Z"/>
    <rect width="24" height="24"/>
  </g>
</svg>
