<svg xmlns="http://www.w3.org/2000/svg" width="24" height="24" viewBox="0 0 24 24">
  <g fill="none" fill-rule="evenodd">
    <path fill="#1A1A1A" fill-rule="nonzero" d="M6.25000003,14.8100001 C6.31147761,14.8112609 6.37090019,14.787852 6.41500003,14.7450001 L10.79,10.37 C10.8228243,10.3359587 10.8677263,10.3162018 10.915,10.315 C10.9649067,10.3155471 11.0122053,10.3373772 11.045,10.375 L12.6950001,12.1300001 C12.8139838,12.2556811 12.9794311,12.3268791 13.1525001,12.3268791 C13.325569,12.3268791 13.4910163,12.2556811 13.6100001,12.1300001 L17.5000001,8.24000003 L17.5000001,9.64000004 C17.5000001,9.76702553 17.6029746,9.87000004 17.7300001,9.87000004 C17.8570256,9.87000004 17.9600001,9.76702553 17.9600001,9.64000004 L17.9600001,7.68500003 C17.9652319,7.65522813 17.9652319,7.62477194 17.9600001,7.59500003 L17.9600001,7.59500003 C17.9464534,7.55706129 17.919874,7.52516608 17.8850001,7.50500003 L17.8850001,7.50500003 C17.849957,7.48509763 17.8102997,7.47475224 17.7700001,7.47499568 L15.8350001,7.47499568 C15.7079746,7.47499568 15.6050001,7.57797454 15.6050001,7.70500003 C15.6076517,7.83091083 15.7090893,7.9323484 15.8350001,7.93500003 L17.1950001,7.93500003 L13.2850001,11.84 C13.2528524,11.8749991 13.2075227,11.8949442 13.1600001,11.895 C13.1103701,11.893259 13.0635239,11.8716377 13.0300001,11.835 L11.385,10.08 C11.2657811,9.9521559 11.0997776,9.87817606 10.925,9.87500004 C10.7529589,9.87692156 10.5882504,9.94495334 10.465,10.065 L6.08500003,14.4400001 C6.00049006,14.531852 6.00049006,14.6731481 6.08500003,14.7650001 C6.13217111,14.8006514 6.1912604,14.8167667 6.25000003,14.8100001 L6.25000003,14.8100001 Z"/>
    <path fill="#1A1A1A" fill-rule="nonzero" d="M20.0500001,2.60000001 L3.95000002,2.60000001 C3.49640793,2.57091704 3.06425611,2.79640143 2.8286455,3.18509056 C2.59303488,3.57377968 2.59303488,4.06122035 2.8286455,4.44990948 C3.06425611,4.8385986 3.49640793,5.06408299 3.95000002,5.03500002 L4.24000002,5.03500002 C4.23783198,5.04488251 4.23783198,5.05511753 4.24000002,5.06500002 L4.24000002,16.0000001 C4.24000002,16.7897673 4.88023283,17.4300001 5.67000002,17.4300001 L11.47,17.4300001 L8.43000004,20.7250001 C8.36926488,20.7910942 8.34840409,20.8845695 8.37527572,20.9702148 C8.40214734,21.05586 8.47266894,21.1206637 8.56027572,21.1402148 C8.64788249,21.1597659 8.73926489,21.1310942 8.80000004,21.0650001 L12.0400001,17.5650001 L15.2800001,21.0650001 C15.3277087,21.1164453 15.3948396,21.1454749 15.4650001,21.1450001 C15.5280029,21.1464936 15.5890653,21.1231462 15.6350001,21.0800001 C15.6823282,21.0330584 15.7089496,20.9691595 15.7089496,20.9025001 C15.7089496,20.8358407 15.6823282,20.7719417 15.6350001,20.7250001 L12.6000001,17.4500001 L18.3400001,17.4500001 C18.7227505,17.4500375 19.0895406,17.2966349 19.3583001,17.0241166 C19.6270595,16.7515983 19.7753532,16.382713 19.7700001,16.0000001 L19.7700001,5.06500002 C19.7721681,5.05511753 19.7721681,5.04488251 19.7700001,5.03500002 L20.0600001,5.03500002 C20.5135922,5.06408299 20.945744,4.8385986 21.1813546,4.44990948 C21.4169652,4.06122035 21.4169652,3.57377968 21.1813546,3.18509056 C20.945744,2.79640143 20.5135922,2.57091704 20.0600001,2.60000001 L20.0500001,2.60000001 Z M19.2700001,5.06500002 L19.2700001,16.0000001 C19.2700001,16.5136249 18.8536249,16.9300001 18.3400001,16.9300001 L5.66000002,16.9300001 C5.1463752,16.9300001 4.73000002,16.5136249 4.73000002,16.0000001 L4.73000002,5.06500002 C4.73000002,5.06500002 4.73000002,5.06500002 4.73000002,5.03500002 L19.2800001,5.03500002 C19.2800001,5.03500002 19.2700001,5.05500002 19.2700001,5.06500002 Z M20.0500001,4.53500002 L3.95000002,4.53500002 C3.67936268,4.55761206 3.41902813,4.42601647 3.27675612,4.19468435 C3.13448412,3.96335223 3.13448412,3.6716478 3.27675612,3.44031568 C3.41902813,3.20898356 3.67936268,3.07738797 3.95000002,3.10000001 L20.0500001,3.10000001 C20.3206374,3.07738797 20.580972,3.20898356 20.723244,3.44031568 C20.865516,3.6716478 20.865516,3.96335223 20.723244,4.19468435 C20.580972,4.42601647 20.3206374,4.55761206 20.0500001,4.53500002 L20.0500001,4.53500002 Z"/>
    <rect width="24" height="24"/>
  </g>
</svg>
