<svg xmlns="http://www.w3.org/2000/svg" width="24" height="24" viewBox="0 0 24 24">
  <g fill="none" fill-rule="evenodd">
    <rect width="24" height="24"/>
    <path fill="#CCC" fill-rule="nonzero" d="M12.0850001,12 L12.0850001,9.13500004 L12.2400001,9.13500004 C13.2285897,9.13500002 14.03,8.33358972 14.03,7.34500003 C14.03,6.35641034 13.2285897,5.55500004 12.2400001,5.55500002 C12.1900001,5.55500002 12.1400001,5.55500002 12.0850001,5.55500002 L12.0850001,3.00000001 L4.68000002,3.00000001 C4.25743806,3.00000001 3.85225576,3.16820148 3.55392877,3.46746661 C3.25560178,3.76673173 3.0886712,4.17244015 3.08999214,4.59500002 L3.08999214,12"/>
    <path fill="#000" fill-rule="nonzero" d="M12.0850001,12.25 C11.9469289,12.25 11.835,12.1380712 11.835,12 L11.835,9.13500004 C11.8358032,9.0640668 11.8667029,8.99681443 11.92,8.95000004 C11.972073,8.90376301 12.0405176,8.88034774 12.1100001,8.88500004 L12.1800001,8.88500004 L12.2400001,8.88500004 C13.0905186,8.88500004 13.7800001,8.19551855 13.7800001,7.34500003 C13.7800001,6.49448151 13.0905186,5.80500002 12.2400001,5.80500002 L12.1800001,5.80500002 L12.1100001,5.80500002 C12.039838,5.81052959 11.9705104,5.78681543 11.9184337,5.73947301 C11.866357,5.69213058 11.8361625,5.62537 11.835,5.55500002 L11.835,3.25000001 L4.68000002,3.25000001 C3.9391304,3.25275419 3.34000001,3.85412528 3.34000001,4.59500002 L3.34000001,12 C3.34000001,12.1380712 3.2280712,12.25 3.09000001,12.25 C2.95192882,12.25 2.84000001,12.1380712 2.84000001,12 L2.84000001,4.59500002 C2.84000001,3.57798408 3.66298782,2.75275615 4.68000002,2.75000001 L12.0850001,2.75000001 C12.2230712,2.75000001 12.3350001,2.86192882 12.3350001,3.00000001 L12.3350001,5.32500002 C13.4210825,5.37881859 14.274036,6.27508497 14.274036,7.36250003 C14.274036,8.44991509 13.4210825,9.34618147 12.3350001,9.40000004 L12.3350001,12 C12.3350001,12.1380712 12.2230712,12.25 12.0850001,12.25 Z"/>
    <path fill="#CCC" fill-rule="nonzero" d="M12.0850001,12.0000001 L9.36000004,12.0000001 C9.36000004,11.945 9.36000004,11.895 9.36000004,11.84 C9.3949806,11.1788302 9.06214202,10.5523503 8.49467283,10.2112522 C7.92720364,9.87015412 7.21779642,9.87015412 6.65032723,10.2112522 C6.08285804,10.5523503 5.75001946,11.1788302 5.78500002,11.84 C5.78500002,11.895 5.78500002,11.945 5.78500002,12.0000001 L3.08999214,12.0000001 L3.08999214,19.4050001 C3.0886712,19.8275599 3.25560178,20.2332684 3.55392877,20.5325335 C3.85225576,20.8317986 4.25743806,21.0000001 4.68000002,21.0000001 L12.0850001,21.0000001"/>
    <path fill="#000" fill-rule="nonzero" d="M12.0850001,21.2500001 L4.68000002,21.2500001 C3.66298782,21.2472439 2.84000001,20.422016 2.84000001,19.4050001 L2.84000001,12 C2.84000001,11.8619289 2.95192882,11.75 3.09000001,11.75 L5.55000002,11.75 C5.60381859,10.6639176 6.50008497,9.81096414 7.58750003,9.81096414 C8.67491509,9.81096414 9.57118147,10.6639176 9.62500004,11.75 L12.0850001,11.75 C12.2230712,11.75 12.3350001,11.8619289 12.3350001,12 C12.3350001,12.1380712 12.2230712,12.2500001 12.0850001,12.2500001 L9.36000004,12.2500001 C9.29008516,12.249293 9.22340154,12.2204568 9.17500004,12.1700001 C9.12939586,12.1155909 9.1061622,12.0458899 9.11000004,11.975 L9.11000004,11.91 C9.11248178,11.8867327 9.11248178,11.8632674 9.11000004,11.84 C9.14253088,11.2697815 8.85680724,10.7283903 8.36769416,10.4334736 C7.87858108,10.1385568 7.26641898,10.1385568 6.77730591,10.4334736 C6.28819283,10.7283903 6.00246919,11.2697815 6.03500003,11.84 C6.03251828,11.8632674 6.03251828,11.8867327 6.03500003,11.91 L6.03500003,11.975 C6.03883786,12.0458899 6.0156042,12.1155909 5.97000002,12.1700001 C5.92159852,12.2204568 5.8549149,12.249293 5.78500002,12.2500001 L3.28500001,12.2500001 L3.28500001,19.4050001 C3.28474733,19.7705507 3.43329512,20.120458 3.69645158,20.3741823 C3.95960803,20.6279066 4.31470195,20.7635894 4.68000002,20.7500001 L12.0850001,20.7500001 C12.2230712,20.7500001 12.3350001,20.8619289 12.3350001,21.0000001 C12.3350001,21.1380713 12.2230712,21.2500001 12.0850001,21.2500001 Z"/>
    <path fill="#CCC" fill-rule="nonzero" d="M12.0850001,12.0000001 L14.8100001,12.0000001 C14.8100001,12.0550001 14.8100001,12.1050001 14.8100001,12.1600001 C14.81,12.7995055 15.1511721,13.3904329 15.705,13.7101856 C16.258828,14.0299383 16.9411722,14.0299383 17.4950001,13.7101856 C18.048828,13.3904329 18.3900001,12.7995055 18.3900001,12.1600001 C18.3900001,12.1050001 18.3900001,12.0550001 18.3900001,12.0000001 L21.1150001,12.0000001 L21.1150001,19.4050001 C21.1150001,19.8315085 20.9442468,20.2402636 20.6407866,20.5399658 C20.3373265,20.8396679 19.926475,21.0053482 19.5000001,21.0000001 L12.0850001,21.0000001 L12.0850001,18.2700001 C12.0300001,18.2700001 11.975,18.2700001 11.915,18.2700001 C10.9264104,18.27 10.1250001,17.4685897 10.1250001,16.4800001 C10.1250001,15.4914104 10.9264104,14.6900001 11.915,14.6900001 C11.975,14.6900001 12.0300001,14.6900001 12.0850001,14.6900001 L12.0850001,12.0000001"/>
    <path fill="#000" fill-rule="nonzero" d="M19.5000001,21.2500001 L12.0850001,21.2500001 C11.9480458,21.24734 11.8376601,21.1369543 11.835,21.0000001 L11.835,18.5350001 C10.7489176,18.4811815 9.89596414,17.5849151 9.89596414,16.4975001 C9.89596414,15.410085 10.7489176,14.5138186 11.835,14.4600001 L11.835,12 C11.835,11.8619289 11.9469289,11.7499695 12.0850001,11.7499695 L14.8100001,11.7499695 C14.8802881,11.7488912 14.9476661,11.7780277 14.9950001,11.83 C15.045452,11.8815757 15.0694162,11.9534684 15.0600001,12.0250001 L15.0600001,12.0900001 C15.0575917,12.1132712 15.0575917,12.1367289 15.0600001,12.1600001 C15.0600001,13.0105186 15.7494816,13.7000001 16.6000001,13.7000001 C17.4505186,13.7000001 18.1400001,13.0105186 18.1400001,12.1600001 C18.1400001,12.1350001 18.1400001,12.1150001 18.1400001,12.0900001 L18.1400001,12.0250001 C18.1329119,11.9544826 18.1560874,11.8842704 18.2037616,11.8318287 C18.2514358,11.7793871 18.3191281,11.7496447 18.3900001,11.7499695 L21.1150001,11.7499695 C21.2530713,11.7499695 21.3650001,11.8619289 21.3650001,12 L21.3650001,19.4050001 C21.3650001,19.8978095 21.1679026,20.3701491 20.8175603,20.7167344 C20.467218,21.0633197 19.9927806,21.2553422 19.5000001,21.2500001 L19.5000001,21.2500001 Z M12.3400001,20.7500001 L19.5000001,20.7500001 C20.2408697,20.7472459 20.8400001,20.1458748 20.8400001,19.4050001 L20.8400001,12.2500001 L18.6250001,12.2500001 C18.5711815,13.3360825 17.6749151,14.189036 16.5875001,14.189036 C15.500085,14.189036 14.6038186,13.3360825 14.5500001,12.2500001 L12.3350001,12.2500001 L12.3350001,14.7250001 C12.3348702,14.7950362 12.3059405,14.8619361 12.2550001,14.9100001 C12.2038631,14.9578189 12.1347115,14.981476 12.0650001,14.9750001 L12.0000001,14.9750001 L11.92,14.9750001 C11.0694815,14.9750001 10.38,15.6644816 10.38,16.5150001 C10.38,17.3655186 11.0694815,18.0550001 11.92,18.0550001 L12.0000001,18.0550001 L12.0650001,18.0550001 C12.1355174,18.0469929 12.2061816,18.0687357 12.2600001,18.1150001 C12.3104568,18.1634016 12.339293,18.2300852 12.3400001,18.3000001 L12.3400001,20.7500001 Z"/>
  </g>
</svg>
