<svg xmlns="http://www.w3.org/2000/svg" width="24" height="24" viewBox="0 0 24 24">
  <g fill="none" fill-rule="evenodd">
    <g transform="translate(3 4)">
      <path d="M0.850000004,6.15000003 L0.850000004,12.8000001 C0.850000004,14.1000001 1.95000001,15.2000001 3.25000001,15.2000001 C3.30000001,15.2000001 3.30000001,15.2000001 3.35,15.2000001 C4.65000002,15.1500001 5.65000002,14.1000001 5.65000002,12.8000001 L5.65000002,8.80000004 L5.65000002,8.10000003 L5.65000002,5.00000002 L2.00000001,5.00000002 C1.35,5.00000002 0.850000004,5.50000002 0.850000004,6.15000003 Z"/>
      <path fill="#000" fill-rule="nonzero" d="M16.0000001,0.300000001 L7.30000003,0.300000001 C6.40000003,0.300000001 5.65000002,1.05 5.65000002,1.95000001 L5.65000002,4.45000002 L2.00000001,4.45000002 C1.1,4.45000002 0.350000001,5.20000002 0.350000001,6.10000003 L0.350000001,12.7500001 C0.350000001,14.3500001 1.65000001,15.6500001 3.25000001,15.6500001 L16.0000001,15.6500001 C16.9000001,15.6500001 17.6500001,14.9000001 17.6500001,14.0000001 L17.6500001,1.95000001 C17.6500001,1.05 16.9000001,0.300000001 16.0000001,0.300000001 Z M5.65000002,8.10000003 L5.65000002,8.80000004 L5.65000002,12.8000001 C5.65000002,14.1000001 4.60000002,15.1500001 3.35,15.2000001 C3.30000001,15.2000001 3.30000001,15.2000001 3.25000001,15.2000001 C1.95000001,15.2000001 0.850000004,14.1000001 0.850000004,12.8000001 L0.850000004,6.15000003 C0.850000004,5.50000002 1.35,5.00000002 2.00000001,5.00000002 L5.65000002,5.00000002 L5.65000002,8.10000003 Z M9.60000004,3.70000002 L13.7500001,3.70000002 C14.6500001,3.70000002 15.3500001,4.40000002 15.3500001,5.30000002 C15.3500001,6.20000002 14.6500001,6.90000003 13.7500001,6.90000003 L9.60000004,6.90000003 C8.70000004,6.90000003 8.00000003,6.20000002 8.00000003,5.30000002 C7.95000003,4.45000002 8.70000004,3.70000002 9.60000004,3.70000002 Z M15.3500001,12.5500001 L7.95000003,12.5500001 C7.80000003,12.5500001 7.70000003,12.4500001 7.70000003,12.3000001 C7.70000003,12.1500001 7.80000003,12.0500001 7.95000003,12.0500001 L15.3500001,12.0500001 C15.5000001,12.0500001 15.6000001,12.1500001 15.6000001,12.3000001 C15.6000001,12.4500001 15.5000001,12.5500001 15.3500001,12.5500001 Z M15.3500001,10.1 L7.95000003,10.1 C7.80000003,10.1 7.70000003,10 7.70000003,9.85000004 C7.70000003,9.70000004 7.80000003,9.60000004 7.95000003,9.60000004 L15.3500001,9.60000004 C15.5000001,9.60000004 15.6000001,9.70000004 15.6000001,9.85000004 C15.6000001,10 15.5000001,10.1 15.3500001,10.1 Z"/>
    </g>
    <rect width="24" height="24"/>
  </g>
</svg>
