<svg xmlns="http://www.w3.org/2000/svg" width="24" height="24" viewBox="0 0 24 24">
  <g fill="none" fill-rule="evenodd">
    <path fill="#000" fill-rule="nonzero" d="M18.7500001.500000002C18.7500001.350000001 18.6500001.250000001 18.5000001.250000001 14.1500001.250000001 10.15 2.00000001 7.25000003 4.95000002 4.65000002 4.90000002 2.20000001 5.90000002.350000001 7.75.250000001 7.85000003.250000001 8.00000003.350000001 8.10000003.350000001 8.10000003.350000001 8.10000003.350000001 8.10000003.350000001 8.10000003.350000001 8.10000003.350000001 8.10000003L3.55000001 11.3C3.55000001 11.3 3.55000001 11.3 3.55000001 11.3L3.80000002 11.55 2.60000001 11.9C2.35000001 11.95 2.20000001 12.1500001 2.10000001 12.4000001 2.00000001 12.6500001 2.10000001 12.9000001 2.30000001 13.0500001L5.95000002 16.7000001C6.10000003 16.8500001 6.25000003 16.9000001 6.45000003 16.9000001 6.50000003 16.9000001 6.55000003 16.9000001 6.60000003 16.9000001 6.85000003 16.8500001 7.05000003 16.6500001 7.10000003 16.4000001L7.45000003 15.2000001 10.85 18.6000001C10.9 18.6500001 10.95 18.6500001 11 18.6500001 11 18.6500001 11.05 18.6500001 11.05 18.6500001 11.05 18.6500001 11.1 18.6500001 11.1 18.6500001 11.15 18.6500001 11.2 18.6500001 11.25 18.6000001 13.1000001 16.75 14.1000001 14.25 14.0500001 11.65 17.0000001 8.80000004 18.7500001 4.80000002 18.7500001.500000002zM14.8000001 7.45000003C13.9000001 8.35000003 12.4000001 8.35000003 11.5 7.45000003 10.6 6.55000003 10.6 5.05000002 11.5 4.15000002 12.4000001 3.25000001 13.9000001 3.25000001 14.8000001 4.15000002 15.7000001 5.05000002 15.7000001 6.55000003 14.8000001 7.45000003zM3.60000001 10.65L.850000004 7.90000002C2.45000001 6.35000003 4.55000002 5.50000002 6.75000003 5.40000002 5.40000002 6.95000003 4.30000002 8.70000004 3.60000001 10.65zM11.1 18.2000001L8.30000003 15.4000001C10.3 14.6500001 12.1000001 13.5500001 13.6000001 12.1500001 13.6000001 14.4500001 12.7000001 16.5500001 11.1 18.2000001zM3.70000002 15.2500001C3.60000002 15.1500001 3.45000001 15.1500001 3.35000001 15.2500001L2.05000001 16.5500001C1.95000001 16.6500001 1.95000001 16.8000001 2.05000001 16.9000001 2.10000001 16.9500001 2.15000001 16.9500001 2.20000001 16.9500001 2.25000001 16.9500001 2.30000001 16.9500001 2.35000001 16.9000001L3.65000002 15.6000001C3.80000002 15.5000001 3.80000002 15.3500001 3.70000002 15.2500001zM4.25000002 16.7500001L3.55000001 17.4500001C3.45000001 17.5500001 3.45000001 17.7000001 3.55000001 17.8000001 3.60000001 17.8500001 3.65000002 17.8500001 3.70000002 17.8500001 3.75000002 17.8500001 3.80000002 17.8500001 3.85000002 17.8000001L4.55000002 17.1000001C4.65000002 17.0000001 4.65000002 16.8500001 4.55000002 16.7500001 4.50000002 16.6500001 4.35000002 16.6500001 4.25000002 16.7500001zM2.20000001 14.3500001C2.10000001 14.2500001 1.95000001 14.2500001 1.85000001 14.3500001L1.15 15.0500001C1.05 15.1500001 1.05 15.3000001 1.15 15.4000001 1.20000001 15.4500001 1.25000001 15.4500001 1.30000001 15.4500001 1.35000001 15.4500001 1.40000001 15.4500001 1.45000001 15.4000001L2.15000001 14.7000001C2.30000001 14.6000001 2.30000001 14.4500001 2.20000001 14.3500001z" transform="translate(2.5 2.5)"/>
    <rect width="24" height="24"/>
  </g>
</svg>
