<svg xmlns="http://www.w3.org/2000/svg" width="24" height="24" viewBox="0 0 24 24">
  <g fill="none" fill-rule="evenodd">
    <path fill="#000" fill-rule="nonzero" d="M21.2300161,3.00000001 C21.2273485,2.87408921 21.1259109,2.77265164 21.0000001,2.77000001 C16.7690638,2.77212294 12.7133353,4.45991056 9.73000004,7.46000003 C7.14833373,7.41339365 4.65958258,8.42298138 2.84000001,10.255 C2.79381007,10.2984652 2.76761901,10.359075 2.76761901,10.4225 C2.76761901,10.485925 2.79381007,10.5465349 2.84000001,10.59 L2.84000001,10.59 L6.00000003,13.7650001 L6.00000003,13.7650001 L6.26000003,14.0250001 L5.07500002,14.3800001 C4.83181626,14.446822 4.64182198,14.6368163 4.57500002,14.8800001 C4.51379838,15.1212433 4.58626894,15.3767974 4.76500002,15.5500001 L8.41000004,19.2000001 C8.58631697,19.3733757 8.8397019,19.4433402 9.08000004,19.3850001 C9.31851192,19.3254491 9.50830393,19.1451466 9.58000004,18.9100001 L10,17.7400001 L13.4200001,21.1600001 C13.4659915,21.2036599 13.5266007,21.2286166 13.5900001,21.2300001 L13.6300001,21.2300001 L13.6750001,21.2300001 C13.7370879,21.2293809 13.7964074,21.204215 13.8400001,21.1600001 C15.6880909,19.3203275 16.6987279,16.8018706 16.6350001,14.1950001 C19.5842174,11.2160757 21.2359539,7.19187762 21.2300161,3.00000001 Z M9.16500004,18.7800001 C9.14099478,18.8570316 9.07838016,18.9158514 9.00000004,18.9350001 C8.92122629,18.9543039 8.83806625,18.9316239 8.78000004,18.8750001 L5.13500002,15.2250001 C5.07741973,15.1674391 5.05294793,15.0846115 5.07000002,15.0050001 C5.09096441,14.9258921 5.15157442,14.863388 5.23000002,14.8400001 L6.65500003,14.4100001 L9.59000004,17.4100001 L9.16500004,18.7800001 Z M20.7550001,3.24500001 C20.6550819,9.6952132 16.5492916,15.4010247 10.465,17.5450001 L6.91000003,14.0000001 L6.91000003,14.0000001 L6.91000003,14.0000001 L6.47000003,13.5600001 C8.60371193,7.47094294 14.3038564,3.35494781 20.7550001,3.24500001 Z M6.09000003,13.1650001 L3.35000001,10.43 C4.94239017,8.89042565 7.0511317,7.99915704 9.26500004,7.93000003 C7.87597551,9.45167969 6.79746061,11.2299554 6.09000003,13.1650001 L6.09000003,13.1650001 Z M13.6150001,20.6950001 L10.835,17.9150001 C12.8010792,17.1889436 14.6040437,16.0809956 16.1400001,14.6550001 C16.0863799,16.9139148 15.18503,19.070015 13.6150001,20.6950001 L13.6150001,20.6950001 Z"/>
    <path fill="#000" fill-rule="nonzero" d="M15.6700001 10.885C16.3553313 10.8926861 17.0149057 10.6241708 17.5000001 10.14L17.5000001 10.14C17.9873707 9.65980171 18.2617837 9.00419339 18.2617837 8.32000003 18.2617837 7.63580667 17.9873707 6.98019836 17.5000001 6.50000003 16.8542425 5.85424245 15.9130304 5.6020454 15.0309091 5.83840906 14.1487879 6.07477273 13.4597728 6.76378785 13.2234091 7.64590909 12.9870454 8.52803033 13.2392425 9.46924249 13.8850001 10.115 14.3537137 10.599139 14.9961995 10.8762897 15.6700001 10.885L15.6700001 10.885zM14.2000001 6.85500003C14.7967925 6.26168531 15.6917533 6.0853012 16.4690405 6.40780431 17.2463276 6.73030742 17.7535392 7.48846487 17.755019 8.33000003 17.7573687 8.88204358 17.5375275 9.41182494 17.1450001 9.80000004L17.1450001 9.80000004C16.3317608 10.6132393 15.0132394 10.6132393 14.2000001 9.80000002 13.3867608 8.98676073 13.3867608 7.66823933 14.2000001 6.85500003zM6.21000003 17.7500001C6.11680075 17.6591773 5.9681993 17.6591773 5.87500002 17.7500001L4.59500002 19.0300001C4.50417729 19.1231994 4.50417729 19.2718008 4.59500002 19.3650001 4.64043172 19.4095162 4.70139518 19.4346188 4.76500002 19.4350001 4.82708784 19.4343809 4.88640736 19.409215 4.93000002 19.3650001L6.21000003 18.0850001C6.30082275 17.9918008 6.30082275 17.8431994 6.21000003 17.7500001zM6.76500003 19.2450001L6.08500003 19.9250001C5.9941773 20.0181994 5.9941773 20.1668008 6.08500003 20.2600001 6.13099148 20.3036599 6.19160069 20.3286166 6.25500003 20.3300001 6.31708785 20.3293809 6.37640737 20.304215 6.42000003 20.2600001L7.10000003 19.5800001C7.19250772 19.4874924 7.19250771 19.3375078 7.10000002 19.2450001 7.00749233 19.1524924 6.85750773 19.1524924 6.76500003 19.2450001L6.76500003 19.2450001zM4.72000002 16.8600001C4.67653487 16.8138101 4.61592502 16.7876191 4.55250002 16.7876191 4.48907502 16.7876191 4.42846517 16.8138101 4.38500002 16.8600001L3.70500002 17.5400001C3.65881007 17.5834652 3.63261902 17.6440751 3.63261902 17.7075001 3.63261902 17.7709251 3.65881007 17.8315349 3.70500002 17.8750001 3.74859267 17.919215 3.80791219 17.9443809 3.87000002 17.9450001 3.93339936 17.9436166 3.99400856 17.9186599 4.04000002 17.8750001L4.72000002 17.1950001C4.81082275 17.1018008 4.81082275 16.9531993 4.72000002 16.8600001L4.72000002 16.8600001z"/>
    <rect width="24" height="24"/>
  </g>
</svg>
