<svg xmlns="http://www.w3.org/2000/svg" width="24" height="24" viewBox="0 0 24 24">
  <g fill="none" fill-rule="evenodd">
    <path fill="#000" fill-rule="nonzero" d="M18.6950001,2.55500001 L5.30500002,2.55500001 C3.78735827,2.55775186 2.55775186,3.78735827 2.55500001,5.30500002 L2.55500001,18.6950001 C2.55775186,20.2126418 3.78735827,21.4422482 5.30500002,21.4450001 L18.6950001,21.4450001 C20.2126418,21.4422482 21.4422482,20.2126418 21.4450001,18.6950001 L21.4450001,5.30500002 C21.4422482,3.78735827 20.2126418,2.55775186 18.6950001,2.55500001 Z M20.9450001,18.6950001 C20.9422504,19.9365 19.9365,20.9422504 18.6950001,20.9450001 L5.30500002,20.9450001 C4.06350009,20.9422504 3.05774975,19.9365 3.05500001,18.6950001 L3.05500001,5.30500002 C3.05774975,4.06350009 4.06350009,3.05774975 5.30500002,3.05500001 L18.6950001,3.05500001 C19.9365,3.05774975 20.9422504,4.06350009 20.9450001,5.30500002 L20.9450001,18.6950001 Z"/>
    <path fill="#000" fill-rule="nonzero" d="M17.1150001,4.33000002 L6.88500003,4.33000002 C5.53527068,4.33310943 4.42174596,5.38745075 4.34500002,6.73500003 C3.92078146,6.84209527 3.62264209,7.22247998 3.62000002,7.66000003 L3.62000002,9.45500004 C3.62309286,9.88635307 3.91351655,10.2626767 4.33000002,10.375 L4.33000002,13.3000001 C3.91351655,13.4123234 3.62309286,13.788647 3.62000002,14.2200001 L3.62000002,16.0000001 C3.62309286,16.4313531 3.91351655,16.8076768 4.33000002,16.9200001 L4.33000002,17.1000001 C4.33000002,18.5110876 5.47391249,19.6550001 6.88500003,19.6550001 L17.1150001,19.6550001 C18.5260876,19.6550001 19.6700001,18.5110876 19.6700001,17.1000001 L19.6700001,6.88500003 C19.6700001,5.47391249 18.5260876,4.33000002 17.1150001,4.33000002 Z M4.11500002,9.45500004 L4.11500002,7.66000003 C4.13952021,7.42577031 4.33699035,7.24789314 4.57250002,7.24789314 C4.80800969,7.24789314 5.00547982,7.42577031 5.03000002,7.66000003 L5.03000002,9.45500004 C5.00547982,9.68922977 4.80800969,9.86710693 4.57250002,9.86710693 C4.33699035,9.86710693 4.13952021,9.68922977 4.11500002,9.45500004 L4.11500002,9.45500004 Z M4.12000002,16.0000001 L4.12000002,14.2200001 C4.14452021,13.9857703 4.34199035,13.8078932 4.57750002,13.8078932 C4.81300969,13.8078932 5.01047982,13.9857703 5.03500002,14.2200001 L5.03500002,16.0000001 C5.01047982,16.2342298 4.81300969,16.412107 4.57750002,16.412107 C4.34199035,16.412107 4.14452021,16.2342298 4.12000002,16.0000001 Z M19.1700001,17.1000001 C19.1672515,18.2338048 18.2488048,19.1522515 17.1150001,19.1550001 L6.88500003,19.1550001 C5.75119533,19.1522515 4.83274865,18.2338048 4.83000002,17.1000001 L4.83000002,16.9200001 C5.24550695,16.8072992 5.53423491,16.4305194 5.53500002,16.0000001 L5.53500002,14.2200001 C5.53423491,13.7894807 5.24550695,13.412701 4.83000002,13.3000001 L4.83000002,10.375 C5.24550695,10.2622991 5.53423491,9.88551939 5.53500002,9.45500004 L5.53500002,7.66000003 C5.5355687,7.23499262 5.25378096,6.86131757 4.84500002,6.74500003 C4.91833716,5.67082045 5.80833323,4.83535845 6.88500003,4.83000002 L17.1150001,4.83000002 C18.2488048,4.83274865 19.1672515,5.75119533 19.1700001,6.88500003 L19.1700001,17.1000001 Z"/>
    <path fill="#000" fill-rule="nonzero" d="M15.9550001,10.8 L13.8450001,11.2 C13.6423049,10.7575792 13.2874209,10.4026952 12.8450001,10.2 L13.2400001,8.11000003 C13.325828,7.7385554 13.2374565,7.34824819 13.0000001,7.05000003 C12.7523637,6.77164786 12.3975637,6.61240997 12.0250001,6.61240997 C11.6524364,6.61240997 11.2976364,6.77164786 11.05,7.05000003 C10.8065041,7.33952912 10.7072301,7.72375629 10.78,8.09500003 L11.175,10.185 C10.7325792,10.3876952 10.3776952,10.7425792 10.175,11.185 L8.06500003,10.785 C7.58013178,10.6638101 7.06926514,10.8382658 6.75979864,11.2307129 C6.45033214,11.62316 6.39981057,12.1606235 6.63072224,12.6038662 C6.86163391,13.0471088 7.33104117,13.3137102 7.83000003,13.2850001 C7.90815815,13.2924095 7.98684191,13.2924095 8.06500003,13.2850001 L10.225,12.8750001 C10.4270301,13.2896608 10.7661784,13.6217435 11.185,13.8150001 L10.755,16.0000001 C10.6784264,16.4928044 10.8985427,16.984607 11.3170678,17.2558197 C11.7355928,17.5270325 12.2744073,17.5270325 12.6929323,17.2558197 C13.1114574,16.984607 13.3315737,16.4928044 13.2550001,16.0000001 L12.8450001,13.8250001 C13.2638217,13.6317435 13.60297,13.2996608 13.8050001,12.8850001 L15.9650001,13.2950001 C16.0431582,13.3024095 16.1218419,13.3024095 16.2000001,13.2950001 C16.489719,13.2992768 16.7721251,13.2039647 17.0000001,13.0250001 C17.4446512,12.6553203 17.5834364,12.031938 17.337614,11.5085364 C17.0917917,10.9851348 16.5234319,10.6938723 15.9550001,10.8 L15.9550001,10.8 Z M11.245,8.00000003 C11.1996699,7.77578505 11.2605825,7.54320964 11.41,7.37000003 C11.5543129,7.19226801 11.7710571,7.08906161 12,7.08906161 C12.228943,7.08906161 12.4456872,7.19226801 12.5900001,7.37000003 C12.7394176,7.54320964 12.8003302,7.77578505 12.7550001,8.00000003 L12.3750001,10.025 C12.2838775,10.0114929 12.1920645,10.0031463 12.1000001,10 C12.0350961,9.99500251 11.969904,9.99500251 11.905,10 C11.8112762,10.003148 11.7177991,10.0114941 11.625,10.025 L11.245,8.00000003 Z M7.95500003,12.8050001 C7.72912317,12.8464871 7.49647902,12.7856592 7.31981581,12.6389225 C7.14315261,12.4921858 7.04066658,12.2746543 7.04000003,12.0450001 C7.04186888,11.8166902 7.14431527,11.600821 7.32000003,11.455 C7.46050621,11.3389808 7.63781059,11.2769243 7.82000003,11.28 L7.96500003,11.28 L10.03,11.67 C10.0097319,11.778824 9.99968818,11.8893052 10,12.0000001 C10.0004215,12.13762 10.013814,12.2748938 10.04,12.4100001 L7.95500003,12.8050001 Z M12.7550001,16.0950001 C12.8003302,16.319215 12.7394176,16.5517905 12.5900001,16.7250001 C12.4409535,16.8948266 12.2259556,16.9921922 12,16.9921922 C11.7740445,16.9921922 11.5590466,16.8948266 11.41,16.7250001 C11.2605825,16.5517905 11.1996699,16.319215 11.245,16.0950001 L11.645,13.9750001 L11.76,13.9750001 C11.9043109,13.9949921 12.0506892,13.9949921 12.1950001,13.9750001 C12.2482992,13.9777022 12.3017009,13.9777022 12.3550001,13.9750001 L12.7550001,16.0950001 Z M12.5000001,13.4250001 L12.5000001,13.4250001 C12.4251381,13.4513705 12.3482039,13.4714403 12.2700001,13.4850001 C12.1807547,13.4992652 12.0902764,13.5042917 12.0000001,13.5000001 C11.9160754,13.4993701 11.8323876,13.4910013 11.75,13.4750001 C11.6750732,13.4613837 11.6014653,13.4413088 11.53,13.4150001 L11.53,13.4150001 C11.0909349,13.2717451 10.7423401,12.9342169 10.585,12.5000001 L10.585,12.5000001 C10.5553589,12.4168588 10.5319606,12.3316223 10.515,12.2450001 C10.503468,12.1638647 10.498452,12.0819362 10.5,12.0000001 C10.4948383,11.9234203 10.4948383,11.8465798 10.5,11.77 C10.5142514,11.6989941 10.5326157,11.628876 10.555,11.56 L10.555,11.56 C10.6950828,11.1009651 11.0463607,10.7366768 11.5,10.58 L11.5,10.58 L11.73,10.52 C11.8951329,10.4880228 12.0648672,10.4880228 12.2300001,10.52 L12.4600001,10.58 L12.4600001,10.58 C12.9124848,10.7356646 13.2635482,11.0978728 13.4050001,11.555 L13.4050001,11.555 C13.4273844,11.623876 13.4457487,11.6939941 13.4600001,11.765 C13.4787838,11.8423075 13.4921496,11.9208316 13.5000001,12 C13.4993556,12.0888906 13.4909908,12.1775572 13.4750001,12.2650001 C13.4580395,12.3516223 13.4346412,12.4368588 13.4050001,12.5200001 L13.4050001,12.5200001 C13.2536276,12.941684 12.921684,13.2736276 12.5000001,13.4250001 L12.5000001,13.4250001 Z M16.7050001,12.6400001 C16.5275676,12.7850573 16.2956043,12.8453312 16.0700001,12.8050001 L13.9950001,12.4100001 C14.0094852,12.2737905 14.0111592,12.1365223 14.0000001,12.0000001 C13.9996977,11.8926456 13.9896565,11.78554 13.9700001,11.68 L16.0350001,11.29 C16.2606043,11.2496689 16.4925676,11.3099428 16.6700001,11.455 C16.8478916,11.6002886 16.9510902,11.8178173 16.9510902,12.0475001 C16.9510902,12.2771828 16.8478916,12.4947115 16.6700001,12.6400001 L16.7050001,12.6400001 Z"/>
    <rect width="24" height="24"/>
  </g>
</svg>
