<svg xmlns="http://www.w3.org/2000/svg" width="24" height="24" viewBox="0 0 24 24">
  <g fill="none" fill-rule="evenodd">
    <rect width="24" height="24"/>
    <path d="M17.115,4.33 L6.885,4.33 C5.53527065,4.33310941 4.42174594,5.38745073 4.345,6.735 C3.92078144,6.84209524 3.62264207,7.22247995 3.62,7.66 L3.62,9.455 C3.62309285,9.88635303 3.91351654,10.2626767 4.33,10.375 L4.33,13.3 C3.91351654,13.4123233 3.62309285,13.788647 3.62,14.22 L3.62,16 C3.62309285,16.431353 3.91351654,16.8076767 4.33,16.92 L4.33,17.1 C4.33,18.5110875 5.47391246,19.655 6.885,19.655 L17.115,19.655 C18.5260875,19.655 19.67,18.5110875 19.67,17.1 L19.67,6.885 C19.67,5.47391246 18.5260875,4.33 17.115,4.33 Z M4.115,9.455 L4.115,7.66 C4.115,7.40594902 4.32094902,7.2 4.575,7.2 C4.82905098,7.2 5.035,7.40594902 5.035,7.66 L5.035,9.455 C5.035,9.70905098 4.82905098,9.915 4.575,9.915 C4.32094902,9.915 4.115,9.70905098 4.115,9.455 L4.115,9.455 Z M4.12,16 L4.12,14.22 C4.12,13.965949 4.32594902,13.76 4.58,13.76 C4.83405098,13.76 5.04,13.965949 5.04,14.22 L5.04,16 C5.04,16.254051 4.83405098,16.46 4.58,16.46 C4.32594902,16.46 4.12,16.254051 4.12,16 Z M19.17,17.1 C19.1672514,18.2338047 18.2488047,19.1522514 17.115,19.155 L6.885,19.155 C5.75119531,19.1522514 4.83274863,18.2338047 4.83,17.1 L4.83,16.92 C5.24648346,16.8076767 5.53690715,16.431353 5.54,16 L5.54,14.22 C5.53690715,13.788647 5.24648346,13.4123233 4.83,13.3 L4.83,10.375 C5.24648346,10.2626767 5.53690715,9.88635303 5.54,9.455 L5.54,7.66 C5.53824833,7.2341589 5.25475995,6.86093318 4.845,6.745 C4.91833714,5.67082043 5.80833321,4.83535843 6.885,4.83 L17.115,4.83 C18.2488047,4.83274863 19.1672514,5.75119531 19.17,6.885 L19.17,17.1 Z"/>
    <path fill="#000" fill-rule="nonzero" d="M18.695,2.805 L5.305,2.805 C3.92428813,2.805 2.805,3.92428813 2.805,5.305 L2.805,18.695 C2.805,20.0757119 3.92428813,21.195 5.305,21.195 L18.695,21.195 C20.0757119,21.195 21.195,20.0757119 21.195,18.695 L21.195,5.305 C21.195,3.92428813 20.0757119,2.805 18.695,2.805 Z M19.695,17.115 C19.695,18.5260875 18.5510875,19.67 17.14,19.67 L6.885,19.67 C5.47391246,19.67 4.33,18.5260875 4.33,17.115 L4.33,16.935 C3.90812976,16.8212286 3.6163068,16.4369265 3.61996534,16 L3.61996534,14.22 C3.62309285,13.788647 3.91351654,13.4123233 4.33,13.3 L4.33,10.375 C3.91351654,10.2626767 3.62309285,9.88635303 3.61996534,9.455 L3.61996534,7.66 C3.62264207,7.22247995 3.92078144,6.84209524 4.345,6.735 C4.42174594,5.38745073 5.53527065,4.33310941 6.885,4.33 L17.115,4.33 C18.5260875,4.33 19.67,5.47391246 19.67,6.885 L19.695,17.115 Z"/>
    <path fill="#000" fill-rule="nonzero" d="M5.04 9.455L5.04 7.66C5.04 7.40594902 4.83405098 7.2 4.58 7.2 4.32594902 7.2 4.12 7.40594902 4.12 7.66L4.12 9.455C4.12 9.70905098 4.32594902 9.915 4.58 9.915 4.83405098 9.915 5.04 9.70905098 5.04 9.455L5.04 9.455zM5.04 16L5.04 14.22C5.04 13.965949 4.83405098 13.76 4.58 13.76 4.32594902 13.76 4.12 13.965949 4.12 14.22L4.12 16C4.12 16.254051 4.32594902 16.46 4.58 16.46 4.83405098 16.46 5.04 16.254051 5.04 16zM11.625 10.025C11.7144731 10.0117191 11.8046095 10.0033732 11.895 10 11.9615729 9.99499922 12.0284271 9.99499922 12.095 10 12.1887105 10.0033641 12.2821758 10.0117093 12.375 10.025L12.755 8C12.8233483 7.65496169 12.6476065 7.30778195 12.3290752 7.15858145 12.010544 7.00938096 11.6313222 7.09661487 11.41 7.37 11.2605824 7.54320961 11.1996698 7.77578502 11.245 8L11.625 10.025zM10 11.68L7.935 11.29 7.79 11.29C7.58670096 11.288658 7.39133955 11.368825 7.24758229 11.5125823 7.10382503 11.6563395 7.02365805 11.851701 7.025 12.055 7.02233264 12.2848396 7.12315253 12.5036973 7.29957306 12.6510375 7.47599358 12.7983777 7.70931463 12.8585828 7.935 12.815L10.01 12.42C9.99321488 12.280644 9.98986614 12.139997 10 12 9.99036537 11.8935509 9.99036537 11.7864491 10 11.68L10 11.68z"/>
    <path fill="#000" fill-rule="nonzero" d="M17.115,4.83 L6.885,4.83 C5.80833321,4.83535843 4.91833714,5.67082043 4.845,6.745 C5.25475995,6.86093318 5.53824833,7.2341589 5.54,7.66 L5.54,9.455 C5.53690715,9.88635303 5.24648346,10.2626767 4.83,10.375 L4.83,13.3 C5.24648346,13.4123233 5.53690715,13.788647 5.54,14.22 L5.54,16 C5.53690715,16.431353 5.24648346,16.8076767 4.83,16.92 L4.83,17.1 C4.83274863,18.2338047 5.75119531,19.1522514 6.885,19.155 L17.115,19.155 C18.2488047,19.1522514 19.1672514,18.2338047 19.17,17.1 L19.17,6.885 C19.1672514,5.75119531 18.2488047,4.83274863 17.115,4.83 Z M17,13.025 C16.7721745,13.2133336 16.4855894,13.3159381 16.19,13.315 C16.1118419,13.3224094 16.0331581,13.3224094 15.955,13.315 L13.795,12.905 C13.59297,13.3196607 13.2538216,13.6517435 12.835,13.845 L13.245,16 C13.3215736,16.4928043 13.1014573,16.9846069 12.6829323,17.2558197 C12.2644072,17.5270324 11.7255928,17.5270324 11.3070677,17.2558197 C10.8885427,16.9846069 10.6684264,16.4928043 10.745,16 L11.155,13.825 C10.7361784,13.6317435 10.39703,13.2996607 10.195,12.885 L8.035,13.295 C7.95684188,13.3024094 7.87815812,13.3024094 7.8,13.295 C7.30104114,13.3237102 6.83163388,13.0571087 6.60072221,12.6138661 C6.36981054,12.1706235 6.42033212,11.6331599 6.72979862,11.2407128 C7.03926512,10.8482658 7.55013175,10.6738101 8.035,10.795 L10.145,11.195 C10.3491644,10.7536025 10.7036025,10.3991644 11.145,10.195 L10.75,8.105 C10.67723,7.73375626 10.776504,7.34952909 11.02,7.06 C11.2676363,6.78164783 11.6224363,6.62240994 11.995,6.62240994 C12.3675637,6.62240994 12.7223637,6.78164783 12.97,7.06 C13.213496,7.34952909 13.31277,7.73375626 13.24,8.105 L12.845,10.195 C13.2889937,10.395426 13.644574,10.7510063 13.845,11.195 L15.955,10.795 C16.5260836,10.6846409 17.0991469,10.9763444 17.345958,11.503032 C17.592769,12.0297197 17.4502371,12.6567581 17,13.025 Z"/>
    <path fill="#000" fill-rule="nonzero" d="M16.045 11.29L14 11.68C14.0096346 11.7864491 14.0096346 11.8935509 14 12 13.9995786 12.1376199 13.986186 12.2748937 13.96 12.41L16.035 12.805C16.2608769 12.8464871 16.493521 12.7856591 16.6701842 12.6389224 16.8468474 12.4921858 16.9493334 12.2746543 16.95 12.045 16.9481312 11.8166901 16.8456848 11.600821 16.67 11.455 16.4950302 11.3127951 16.2673616 11.2526906 16.045 11.29zM12.355 14L12.24 14C12.0742336 14.0244981 11.9057664 14.0244981 11.74 14L11.65 14 11.25 16.12C11.2046698 16.344215 11.2655824 16.5767904 11.415 16.75 11.5640466 16.9198265 11.7790444 17.0171921 12.005 17.0171921 12.2309556 17.0171921 12.4459534 16.9198265 12.595 16.75 12.7423996 16.5757359 12.8030544 16.344145 12.76 16.12L12.355 14z"/>
    <path fill="#000" fill-rule="nonzero" d="M7.955,12.805 C7.72931463,12.8485828 7.49599358,12.7883777 7.31957306,12.6410375 C7.14315253,12.4936973 7.04233264,12.2748396 7.045,12.045 C7.04365805,11.841701 7.12382503,11.6463395 7.26758229,11.5025823 C7.41133955,11.358825 7.60670096,11.278658 7.81,11.28 L7.955,11.28 L10.02,11.67 C10.0030814,11.7791382 9.99638573,11.8896173 10,12 C10.0004214,12.1376199 10.013814,12.2748937 10.04,12.41 L7.955,12.805 Z M11.41,7.37 C11.6349313,7.10593278 12.008661,7.02486552 12.3227884,7.17200328 C12.6369159,7.31914105 12.8138794,7.65815386 12.755,8 L12.375,10.025 C12.2821758,10.0117093 12.1887105,10.0033641 12.095,10 C12.0284271,9.99499922 11.9615729,9.99499922 11.895,10 C11.8046095,10.0033732 11.7144731,10.0117191 11.625,10.025 L11.245,8 C11.1996698,7.77578502 11.2605824,7.54320961 11.41,7.37 L11.41,7.37 Z M12.59,16.725 C12.4409534,16.8948265 12.2259556,16.9921921 12,16.9921921 C11.7740444,16.9921921 11.5590466,16.8948265 11.41,16.725 C11.2605824,16.5517904 11.1996698,16.319215 11.245,16.095 L11.645,13.975 L11.735,13.975 C11.9007664,13.9994981 12.0692336,13.9994981 12.235,13.975 L12.35,13.975 L12.75,16.095 C12.7944214,16.3183836 12.7356279,16.5498829 12.59,16.725 L12.59,16.725 Z M16.68,12.64 C16.5025675,12.7850572 16.2706043,12.8453311 16.045,12.805 L13.97,12.41 C13.9928335,12.2745763 14.0028777,12.137305 14,12 C13.9996976,11.8926456 13.9896565,11.78554 13.97,11.68 L16.035,11.29 C16.2606043,11.2496689 16.4925675,11.3099428 16.67,11.455 C16.8478915,11.6002885 16.9510901,11.8178173 16.9510901,12.0475 C16.9510901,12.2771827 16.8478915,12.4947115 16.67,12.64 L16.68,12.64 Z"/>
    <circle cx="12" cy="12" r="1.51" fill="#000" fill-rule="nonzero"/>
  </g>
</svg>
