<svg xmlns="http://www.w3.org/2000/svg" width="24" height="24" viewBox="0 0 24 24">
  <g fill="none" fill-rule="evenodd">
    <g transform="translate(4 2)">
      <path d="M7,0.789473684 C4.65,0.789473684 2.7,2.78947368 2.7,5.31578947 L2.7,7.73684211 C2.7,7.78947368 2.7,7.84210526 2.65,7.89473684 L11.25,7.89473684 L11.25,5.26315789 C11.3,2.78947368 9.35,0.789473684 7,0.789473684 Z"/>
      <path fill="#000" fill-rule="nonzero" d="M7.05,10.1578947 C5.25,10.1578947 3.75,11.7368421 3.75,13.6315789 C3.75,15.5263158 5.25,17.1052632 7.05,17.1052632 C8.85,17.1052632 10.35,15.5263158 10.35,13.6315789 C10.35,11.7368421 8.85,10.1578947 7.05,10.1578947 Z M8.75,14.5263158 C8.75,15.1052632 8.35,15.5789474 7.8,15.6315789 L7.8,16.1052632 C7.8,16.2631579 7.7,16.3684211 7.55,16.3684211 C7.4,16.3684211 7.3,16.2631579 7.3,16.1052632 L7.3,15.6315789 L6.8,15.6315789 L6.8,16.1052632 C6.8,16.2631579 6.7,16.3684211 6.55,16.3684211 C6.4,16.3684211 6.3,16.2631579 6.3,16.1052632 L6.3,15.6315789 L6.3,15.6315789 L6.1,15.6315789 L5.6,15.6315789 C5.45,15.6315789 5.35,15.5263158 5.35,15.3684211 C5.35,15.2105263 5.45,15.1052632 5.6,15.1052632 L5.85,15.1052632 L5.85,13.6842105 L5.85,12.2631579 L5.6,12.2631579 C5.45,12.2631579 5.35,12.1578947 5.35,12 C5.35,11.8421053 5.45,11.7368421 5.6,11.7368421 L6.1,11.7368421 L6.3,11.7368421 L6.3,11.7368421 L6.3,11.2631579 C6.3,11.1052632 6.4,11 6.55,11 C6.7,11 6.8,11.1052632 6.8,11.2631579 L6.8,11.7368421 L7.3,11.7368421 L7.3,11.2631579 C7.3,11.1052632 7.4,11 7.55,11 C7.7,11 7.8,11.1052632 7.8,11.2631579 L7.8,11.7368421 C8.3,11.7894737 8.75,12.2631579 8.75,12.8421053 C8.75,13.1578947 8.6,13.4736842 8.35,13.6842105 C8.6,13.8421053 8.75,14.1578947 8.75,14.5263158 Z"/>
      <path fill="#000" fill-rule="nonzero" d="M7.7 12.2631579L6.35 12.2631579 6.35 13.4210526 7.7 13.4210526C8 13.4210526 8.25 13.1578947 8.25 12.8421053 8.25 12.5263158 8 12.2631579 7.7 12.2631579zM7.7 13.9473684L6.35 13.9473684 6.35 15.1052632 7.7 15.1052632C8 15.1052632 8.25 14.8421053 8.25 14.5263158 8.25 14.2105263 8 13.9473684 7.7 13.9473684z"/>
      <path fill="#000" fill-rule="nonzero" d="M13.3,7.84210526 L11.8,7.84210526 L11.8,5.26315789 C11.8,2.47368421 9.65,0.210526316 7,0.210526316 C4.35,0.210526316 2.2,2.47368421 2.2,5.26315789 L2.2,7.68421053 C2.2,7.73684211 2.2,7.73684211 2.2,7.84210526 L0.7,7.84210526 C0.55,7.84210526 0.45,7.94736842 0.45,8.10526316 L0.45,15.7894737 C0.45,17.9473684 2.15,19.7368421 4.2,19.7368421 L9.75,19.7368421 C11.8,19.7368421 13.5,17.9473684 13.5,15.7894737 L13.5,8.10526316 C13.55,7.94736842 13.4,7.84210526 13.3,7.84210526 Z M7.05,17.6842105 C4.95,17.6842105 3.25,15.8947368 3.25,13.6842105 C3.25,11.4736842 4.95,9.68421053 7.05,9.68421053 C9.15,9.68421053 10.85,11.4736842 10.85,13.6842105 C10.85,15.8947368 9.15,17.6842105 7.05,17.6842105 Z M11.3,7.84210526 L2.7,7.84210526 C2.7,7.78947368 2.7,7.73684211 2.7,7.68421053 L2.7,5.26315789 C2.7,2.78947368 4.6,0.736842105 7,0.736842105 C9.35,0.736842105 11.3,2.73684211 11.3,5.26315789 L11.3,7.84210526 Z"/>
    </g>
    <rect width="24" height="24"/>
  </g>
</svg>
