<svg xmlns="http://www.w3.org/2000/svg" width="24" height="24" viewBox="0 0 24 24">
  <g fill="none" fill-rule="evenodd">
    <rect width="24" height="24"/>
    <rect width="18.385" height="18.385" x="2.7" y="2.805" fill="#CCC" fill-rule="nonzero" rx="3"/>
    <path fill="#000" fill-rule="nonzero" d="M18.5850001,21.4450001 L5.20000002,21.4450001 C3.68121695,21.4450001 2.45000001,20.2137831 2.45000001,18.6950001 L2.45000001,5.30500002 C2.45000001,3.78621695 3.68121695,2.55500001 5.20000002,2.55500001 L18.5850001,2.55500001 C20.1026418,2.55775186 21.3322482,3.78735827 21.3350001,5.30500002 L21.3350001,18.6950001 C21.3322482,20.2126418 20.1026418,21.4422482 18.5850001,21.4450001 Z M5.20000002,3.05500001 C3.95735933,3.05500001 2.95000001,4.06235933 2.95000001,5.30500002 L2.95000001,18.6950001 C2.95000001,19.9376408 3.95735933,20.9450001 5.20000002,20.9450001 L18.5850001,20.9450001 C19.8265,20.9422504 20.8322504,19.9365 20.8350001,18.6950001 L20.8350001,5.30500002 C20.8322504,4.06350009 19.8265,3.05774975 18.5850001,3.05500001 L5.20000002,3.05500001 Z"/>
    <path fill="#000" fill-rule="nonzero" d="M17.0000001,19.6700001 L6.78000003,19.6700001 C5.36810138,19.6700001 4.22275763,18.526896 4.22000002,17.1150001 L4.22000002,16.7200001 C4.22266007,16.5830458 4.33304579,16.4726601 4.47000002,16.4700001 C4.60807121,16.4700001 4.72000002,16.5819289 4.72000002,16.7200001 L4.72000002,17.1150001 C4.72275671,18.2507536 5.6442432,19.1700034 6.78000003,19.1700001 L17.0000001,19.1700001 C18.1338048,19.1672515 19.0522514,18.2488048 19.0550001,17.1150001 L19.0550001,6.88500003 C19.0522514,5.75119533 18.1338048,4.83274865 17.0000001,4.83000002 L6.78000003,4.83000002 C5.6442432,4.83000002 4.72275671,5.74924655 4.72000002,6.88500003 C4.72000002,7.02307122 4.60807121,7.13500003 4.47000002,7.13500003 C4.33192883,7.13500003 4.22000002,7.02307122 4.22000002,6.88500003 C4.22275763,5.47310408 5.36810138,4.33000002 6.78000003,4.33000002 L17.0000001,4.33000002 C18.4110876,4.33000002 19.5550001,5.47391249 19.5550001,6.88500003 L19.5550001,17.1150001 C19.5550001,17.7926282 19.2858134,18.4425025 18.8066579,18.9216579 C18.3275025,19.4008134 17.6776282,19.6700001 17.0000001,19.6700001 Z"/>
    <path fill="#000" fill-rule="nonzero" d="M4.47000002,13.7650005 C4.33304579,13.76234 4.22266007,13.6519543 4.22000002,13.5150001 L4.22000002,10.16 C4.22266007,10.0230458 4.33304579,9.91266009 4.47000002,9.91000004 C4.60807121,9.91000004 4.72000002,10.0219289 4.72000002,10.16 L4.72000002,13.5000001 C4.72413935,13.5688627 4.69963908,13.6363749 4.65229886,13.6865556 C4.60495865,13.7367362 4.5389868,13.7651244 4.47000002,13.7650005 Z"/>
    <rect width="1.415" height="3.21" x="3.765" y="6.955" fill="#FFF" fill-rule="nonzero" rx=".708"/>
    <path fill="#000" fill-rule="nonzero" d="M4.47000002,10.41 C4.21452838,10.4126647 3.96853246,10.3133859 3.78647473,10.1341435 C3.604417,9.95490112 3.50131677,9.71048218 3.50000001,9.45500004 L3.50000001,7.66000003 C3.536301,7.15798172 3.95417096,6.76923694 4.45750002,6.76923694 C4.96082908,6.76923694 5.37869903,7.15798172 5.41500002,7.66000003 L5.41500002,9.45500004 C5.4123426,9.97744298 4.99238605,10.4018435 4.47000002,10.41 L4.47000002,10.41 Z M4.47000002,7.20500003 C4.21871046,7.20500003 4.01500002,7.40871047 4.01500002,7.66000003 L4.01500002,9.45500004 C4.03952021,9.68922977 4.23699035,9.86710693 4.47250002,9.86710693 C4.70800969,9.86710693 4.90547982,9.68922977 4.93000002,9.45500004 L4.93000002,7.66000003 C4.92725968,7.40790382 4.72211112,7.20500003 4.47000002,7.20500003 L4.47000002,7.20500003 Z"/>
    <rect width="1.415" height="3.21" x="3.765" y="13.515" fill="#FFF" fill-rule="nonzero" rx=".708"/>
    <path fill="#000" fill-rule="nonzero" d="M4.47000002,16.9700001 C4.21192099,16.9727027 3.96362431,16.8713746 3.78112487,16.6888752 C3.59862544,16.5063758 3.49729739,16.2580791 3.50000001,16.0000001 L3.50000001,14.2200001 C3.536301,13.7179817 3.95417096,13.329237 4.45750002,13.329237 C4.96082908,13.329237 5.37869903,13.7179817 5.41500002,14.2200001 L5.41500002,16.0000001 C5.42056727,16.5282786 4.9982438,16.9617746 4.47000002,16.9700001 Z M4.47000002,13.7650001 C4.21871046,13.7650001 4.01500002,13.9687105 4.01500002,14.2200001 L4.01500002,16.0000001 C4.03952021,16.2342298 4.23699035,16.412107 4.47250002,16.412107 C4.70800969,16.412107 4.90547982,16.2342298 4.93000002,16.0000001 L4.93000002,14.2200001 C4.92725968,13.9679038 4.72211112,13.7650001 4.47000002,13.7650001 L4.47000002,13.7650001 Z"/>
    <circle cx="11.89" cy="12" r="1.76" fill="#FFF" fill-rule="nonzero"/>
    <path fill="#000" fill-rule="nonzero" d="M11.89,14 C10.7854305,14 9.89000004,13.1045696 9.89000004,12 C9.89000004,10.8954305 10.7854305,10 11.89,10 C12.9945696,10 13.89,10.8954305 13.89,12 C13.89,13.1045696 12.9945696,14 11.89,14 Z M11.89,10.5 C11.2833067,10.5 10.7363522,10.8654633 10.5041807,11.4259749 C10.2720092,11.9864865 10.4003429,12.6316632 10.8293399,13.0606602 C11.2583369,13.4896572 11.9035136,13.6179909 12.4640252,13.3858194 C13.0245368,13.1536479 13.3900001,12.6066934 13.3900001,12 C13.3900001,11.1715729 12.7184272,10.5 11.89,10.5 Z"/>
    <path fill="#FFF" fill-rule="nonzero" d="M12.4600001,10.34 L12.89,8.04500003 C12.89,7.49271528 12.4422848,7.04500003 11.89,7.04500003 C11.3377153,7.04500003 10.89,7.49271528 10.89,8.04500003 L11.325,10.34 C11.5066183,10.2760724 11.697473,10.2422928 11.89,10.24 C12.0841581,10.2422845 12.2766593,10.2760567 12.4600001,10.34 Z"/>
    <path fill="#000" fill-rule="nonzero" d="M12.4600001,10.59 C12.4335475,10.5947788 12.4064526,10.5947788 12.3800001,10.59 C12.0576935,10.4687465 11.7023066,10.4687465 11.38,10.59 C11.3154451,10.6221368 11.2395549,10.6221368 11.175,10.59 C11.1096253,10.5563452 11.0648196,10.4928703 11.055,10.42 L10.62,8.13000003 C10.5501437,7.75884816 10.6490975,7.37586014 10.89,7.08500003 C11.1385501,6.80641729 11.4941564,6.64712029 11.8675,6.64712029 C12.2408437,6.64712029 12.59645,6.80641729 12.8450001,7.08500003 C13.0859026,7.37586014 13.1848564,7.75884816 13.1150001,8.13000003 L12.6800001,10.42 C12.667923,10.4919624 12.6237633,10.554522 12.5600001,10.59 C12.5270887,10.5975012 12.4929114,10.5975012 12.4600001,10.59 L12.4600001,10.59 Z M11.89,10 C12.016142,9.99845674 12.1420217,10.0118839 12.2650001,10.04 L12.6450001,8.00000003 C12.6935648,7.77888152 12.6403426,7.54763988 12.5000001,7.37000003 C12.3500319,7.19995218 12.1342305,7.10253591 11.9075,7.10253591 C11.6807696,7.10253591 11.4649682,7.19995218 11.315,7.37000003 C11.1648149,7.54306342 11.0989141,7.77371634 11.135,8.00000003 L11.5,10.03 C11.6282556,10.0038848 11.7592593,9.99380762 11.89,10 L11.89,10 Z"/>
    <path fill="#FFF" fill-rule="nonzero" d="M11.34,13.6650001 L10.89,16.0500001 C10.89,16.6022848 11.3377153,17.0500001 11.89,17.0500001 C12.4422848,17.0500001 12.89,16.6022848 12.89,16.0500001 L12.4450001,13.6650001 C12.0875442,13.7915946 11.6974559,13.7915946 11.34,13.6650001 L11.34,13.6650001 Z"/>
    <path fill="#000" fill-rule="nonzero" d="M11.89,17.5000001 C11.503619,17.5088231 11.1347224,17.3391306 10.89,17.0400001 C10.6593844,16.7462225 10.5697721,16.3658273 10.645,16.0000001 L11.095,13.6200001 C11.1070771,13.5480377 11.1512368,13.4854781 11.215,13.4500001 C11.2800489,13.4200375 11.3549512,13.4200375 11.42,13.4500001 C11.7244642,13.5652178 12.0605359,13.5652178 12.3650001,13.4500001 C12.4305664,13.422499 12.5044337,13.422499 12.5700001,13.4500001 C12.6328032,13.4865365 12.6766042,13.5485879 12.6900001,13.6200001 L13.1400001,16.0000001 C13.2098564,16.3711519 13.1109026,16.75414 12.8700001,17.0450001 C12.6264913,17.3338638 12.2678077,17.5003955 11.89,17.5000001 Z M11.535,14.0000001 L11.135,16.1200001 C11.0948166,16.3440409 11.1551538,16.5744194 11.3,16.7500001 C11.4499682,16.9200479 11.6657696,17.0174642 11.8925,17.0174642 C12.1192305,17.0174642 12.3350319,16.9200479 12.4850001,16.7500001 C12.630628,16.5748829 12.6894215,16.3433837 12.6450001,16.1200001 L12.2450001,14.0000001 C12.0109713,14.0499725 11.7690288,14.0499725 11.535,14.0000001 L11.535,14.0000001 Z"/>
    <path fill="#FFF" fill-rule="nonzero" d="M10.215,11.5 L7.89000003,11.06 C7.33771528,11.06 6.89000003,11.5077153 6.89000003,12.06 C6.89000003,12.6122848 7.33771528,13.06 7.89000003,13.06 L10.245,12.6150001 C10.1697154,12.4186627 10.1307487,12.2102751 10.13,12 C10.1341149,11.8301105 10.1627437,11.6617056 10.215,11.5 Z"/>
    <path fill="#000" fill-rule="nonzero" d="M7.70000003,13.3150001 C7.20104117,13.3437102 6.7316339,13.0771088 6.50072224,12.6338662 C6.26981057,12.1906235 6.32033214,11.65316 6.62979864,11.2607129 C6.93926514,10.8682658 7.45013178,10.6938101 7.93500003,10.815 L10.26,11.255 C10.3310264,11.2659478 10.3934091,11.3081478 10.43,11.37 C10.4657127,11.432141 10.4747318,11.5060976 10.455,11.575 C10.4081965,11.7171056 10.3829167,11.8654138 10.38,12.0150001 C10.3826699,12.186359 10.4165572,12.3557957 10.48,12.5150001 C10.5095267,12.5818864 10.5095267,12.6581137 10.48,12.7250001 C10.4420652,12.7865058 10.380658,12.829852 10.31,12.8450001 L7.95500003,13.2900001 C7.87112438,13.3073348 7.78564527,13.3157151 7.70000003,13.3150001 L7.70000003,13.3150001 Z M7.70000003,11.28 C7.37529212,11.2777866 7.08409403,11.4795107 6.97204589,11.7842816 C6.85999774,12.0890526 6.95118454,12.4313593 7.20000003,12.6400001 C7.37774092,12.7844487 7.60942262,12.8446495 7.83500003,12.8050001 L9.91500004,12.4100001 C9.88547308,12.2753208 9.87038784,12.1378775 9.87000004,12 C9.87030241,11.8926456 9.88034356,11.78554 9.90000004,11.68 L7.83500003,11.29 L7.70000003,11.28 Z"/>
    <path fill="#FFF" fill-rule="nonzero" d="M15.8900001,11.045 L13.5650001,11.5 C13.6211908,11.6608748 13.6515665,11.829629 13.6550001,12 C13.6530502,12.2069108 13.6141035,12.4118044 13.5400001,12.6050001 L15.8900001,13.0500001 C16.4422848,13.0500001 16.8900001,12.6022848 16.8900001,12.0500001 C16.8900001,11.4977153 16.4422848,11.05 15.8900001,11.05 L15.8900001,11.045 Z"/>
    <path fill="#000" fill-rule="nonzero" d="M16.0800001,13.3150001 C16.0018325,13.322206 15.9231677,13.322206 15.8450001,13.3150001 L13.5000001,12.8500001 C13.4279622,12.8350221 13.3649309,12.7918007 13.3250001,12.7300001 C13.2954734,12.6631137 13.2954734,12.5868864 13.3250001,12.5200001 C13.3866246,12.3602619 13.4204465,12.1911524 13.4250001,12.0200001 C13.4220834,11.8704138 13.3968036,11.7221056 13.3500001,11.58 C13.327719,11.5113212 13.3368666,11.4363112 13.3750001,11.375 C13.4094374,11.3133766 13.4702662,11.2709807 13.5400001,11.26 L15.8650001,10.82 C16.3498683,10.6988101 16.860735,10.8732658 17.1702015,11.2657129 C17.479668,11.65816 17.5301895,12.1956235 17.2992779,12.6388662 C17.0683662,13.0821088 16.5989589,13.3487102 16.1000001,13.3200001 L16.0800001,13.3150001 Z M13.8550001,12.4100001 L15.9400001,12.8050001 C16.1640409,12.8451835 16.3944194,12.7848463 16.5700001,12.6400001 C16.7487477,12.4944009 16.8517429,12.2755359 16.8500218,12.0450001 C16.849358,11.8166546 16.7473996,11.6003723 16.5716629,11.4545687 C16.3959262,11.3087652 16.1645402,11.2484816 15.9400001,11.29 L15.9400001,11.29 L13.8750001,11.68 C13.8946565,11.78554 13.9046977,11.8926456 13.9050001,12 C13.9053635,12.1382092 13.8885684,12.2759289 13.8550001,12.4100001 L13.8550001,12.4100001 Z"/>
  </g>
</svg>
