<svg xmlns="http://www.w3.org/2000/svg" width="24" height="24" viewBox="0 0 24 24">
  <g fill="none" fill-rule="evenodd">
    <path fill="#000" fill-rule="nonzero" d="M11.47,8.26000003 L14.0000001,8.26000003 C14.1380712,8.26000003 14.25,8.14807122 14.25,8.01000003 C14.25,7.87192885 14.1380712,7.76000003 14.0000001,7.76000003 L12.25,7.76000003 L12.25,6.76000003 C12.25,6.62192884 12.1380712,6.51000003 12.0000001,6.51000003 C11.8619289,6.51000003 11.75,6.62192884 11.75,6.76000003 L11.75,7.76000003 L11.47,7.76000003 C10.5200703,7.76000003 9.75000004,8.53007027 9.75000004,9.48000004 C9.75000004,10.4299298 10.5200703,11.2 11.47,11.2 L12.5300001,11.2 C13.2037874,11.2 13.75,11.7462127 13.75,12.4200001 C13.75,13.0937874 13.2037874,13.6400001 12.5300001,13.6400001 L10,13.6400001 C9.86192885,13.6400001 9.75000004,13.7519289 9.75000004,13.8900001 C9.75000004,14.0280712 9.86192885,14.1400001 10,14.1400001 L11.75,14.1400001 L11.75,15.1400001 C11.75,15.2780713 11.8619289,15.3900001 12.0000001,15.3900001 C12.1380712,15.3900001 12.25,15.2780713 12.25,15.1400001 L12.25,14.1400001 L12.5300001,14.1400001 C13.4799298,14.1400001 14.25,13.3699298 14.25,12.4200001 C14.25,11.4700703 13.4799298,10.7 12.5300001,10.7 L11.47,10.7 C10.7962127,10.7 10.25,10.1537874 10.25,9.48000004 C10.25,8.80621266 10.7962127,8.26000005 11.47,8.26000003 Z"/>
    <path fill="#000" fill-rule="nonzero" d="M18.8350001,4.11500002 C14.5296338,1.97482061 9.47036635,1.97482061 5.16500002,4.11500002 C4.21502275,4.5865776 3.61302568,5.55441854 3.61000002,6.61500003 L3.61000002,11.36 C3.60980118,14.9376972 5.59302668,18.2206093 8.76000004,19.8850001 L11.565,21.3600001 C11.6954428,21.4435216 11.8453285,21.4917607 12,21.5000024 C12.1513153,21.5003315 12.3004977,21.4643219 12.4350001,21.3950001 L15.2000001,19.9450001 C17.2166982,18.8909348 18.7949805,17.1567728 19.6550001,15.0500001 L19.6550001,15.0000001 C20.1282347,13.8430976 20.3711087,12.6049493 20.370087,11.355 L20.370087,6.63500003 C20.3783558,5.57167232 19.7836688,4.59537829 18.8350001,4.11500002 Z M19.8900298,11.345 C19.8906986,12.5299805 19.6596985,13.703665 19.2100001,14.8000001 L19.2100001,14.8500001 C18.3893995,16.8516047 16.8875778,18.4986498 14.9700001,19.5000001 L12.2000001,20.9400001 C12.0745735,21.0049381 11.9254266,21.0049381 11.8,20.9400001 L8.99500004,19.4400001 C5.99942867,17.8655741 4.11969253,14.7641057 4.10997035,11.38 L4.10997035,6.63500003 C4.10554789,5.75695198 4.60247706,4.95332434 5.39000002,4.56500002 C9.55273956,2.49144688 14.4472605,2.49144688 18.6100001,4.56500002 C19.397523,4.95332434 19.8944522,5.75695198 19.8900298,6.63500003 L19.8900298,11.345 Z"/>
    <rect width="24" height="24"/>
  </g>
</svg>
