<svg xmlns="http://www.w3.org/2000/svg" width="24" height="24" viewBox="0 0 24 24">
  <g fill="none" fill-rule="evenodd">
    <rect width="24" height="24"/>
    <g fill-rule="nonzero" transform="translate(3.5 2.5)">
      <path fill="#CCC" d="M0.359964207,4.21000002 L0.359964207,8.96000004 C0.359349481,10.1585994 0.586724762,11.3463807 1.03,12.4600001 L1.03,12.4600001 C1.86062101,14.5312743 3.40069086,16.2397062 5.37500002,17.2800001 L8.18500003,18.7550001 C8.38367039,18.8598979 8.62132968,18.8598979 8.82000004,18.7550001 L11.585,17.3100001 C13.5478094,16.2816275 15.0834345,14.5919086 15.9200001,12.5400001 L15.9200001,12.4850001 C16.3794184,11.3596007 16.6154712,10.1555611 16.6150008,8.94000004 L16.6150008,4.21000002 C16.615357,3.2388275 16.0650875,2.35142103 15.1950001,1.92000001 L15.1950001,1.92000001 C10.9656448,-0.199328872 5.98435522,-0.199328872 1.75500001,1.92000001 L1.75500001,1.92000001 C0.894623455,2.35839265 0.354902456,3.24438626 0.359964207,4.21000002 Z"/>
      <path fill="#000" d="M8.50000004,19.0700001 C8.34829687,19.0685929 8.19913681,19.0308743 8.06500003,18.9600001 L5.26000002,17.4600001 C2.10096258,15.7997947 0.119072325,12.5287137 0.11,8.96000004 L0.11,4.21000002 C0.113025667,3.14941853 0.715022731,2.18157759 1.66500001,1.71000001 C5.97036633,-0.430179397 11.0296337,-0.430179397 15.3350001,1.71000001 C16.2849773,2.18157759 16.8869744,3.14941853 16.8900081,4.21000002 L16.8900081,8.92500004 C16.8916151,10.173379 16.6487097,11.4099884 16.1750001,12.5650001 L16.1750001,12.6200001 C15.3055319,14.7235168 13.7205048,16.4519933 11.7,17.5000001 L8.93500004,18.9450001 C8.80310429,19.0232475 8.65331472,19.0662905 8.50000004,19.0700001 L8.50000004,19.0700001 Z M8.50000004,0.569986804 C6.20626315,0.566935457 3.94327052,1.09759182 1.89000001,2.12000001 C1.10414262,2.51015495 0.607929789,3.31262414 0.60999355,4.19000002 L0.60999355,8.94000004 C0.607337089,12.3404208 2.4905953,15.4618539 5.50000002,17.0450001 L8.30000003,18.5000001 C8.4254266,18.5649381 8.57457347,18.5649381 8.70000004,18.5000001 L11.47,17.0500001 C13.379919,16.0494922 14.8746485,14.4059981 15.6900001,12.4100001 L15.6900001,12.3550001 C16.1356322,11.2593658 16.3650065,10.0877944 16.3650065,8.90500004 L16.3650065,4.21000002 C16.3670703,3.33262414 15.8708575,2.53015495 15.0850001,2.14000001 C13.0392888,1.12136066 10.7852921,0.590807139 8.50000004,0.590000002 L8.50000004,0.569986804 Z"/>
    </g>
    <path fill="#000" fill-rule="nonzero" d="M12.5300001,10.78 L11.47,10.78 C10.7962127,10.78 10.25,10.2337874 10.25,9.56000004 C10.25,8.88621264 10.7962127,8.34000003 11.47,8.34000003 L14.0000001,8.34000003 C14.1380712,8.34000003 14.25,8.22807122 14.25,8.09000003 C14.25,7.95192885 14.1380712,7.84000003 14.0000001,7.84000003 L12.25,7.84000003 L12.25,6.84000003 C12.25,6.70192884 12.1380712,6.59000003 12.0000001,6.59000003 C11.8619289,6.59000003 11.75,6.70192884 11.75,6.84000003 L11.75,7.84000003 L11.47,7.84000003 C10.5200703,7.84000003 9.75000004,8.61007027 9.75000004,9.56000004 C9.75000004,10.5099298 10.5200703,11.28 11.47,11.28 L12.5300001,11.28 C12.9658641,11.28 13.3686191,11.5125307 13.5865511,11.89 C13.8044831,12.2674694 13.8044831,12.7325307 13.5865511,13.1100001 C13.3686191,13.4874694 12.9658641,13.7200001 12.5300001,13.7200001 L10,13.7200001 C9.86192885,13.7200001 9.75000004,13.8319289 9.75000004,13.9700001 C9.75000004,14.1080712 9.86192885,14.2200001 10,14.2200001 L11.75,14.2200001 L11.75,15.2200001 C11.75,15.3580713 11.8619289,15.4700001 12.0000001,15.4700001 C12.1380712,15.4700001 12.25,15.3580713 12.25,15.2200001 L12.25,14.2200001 L12.5300001,14.2200001 C13.4799298,14.2200001 14.25,13.4499298 14.25,12.5000001 C14.25,11.5500703 13.4799298,10.78 12.5300001,10.78 Z"/>
  </g>
</svg>
