<svg xmlns="http://www.w3.org/2000/svg" width="24" height="24" viewBox="0 0 24 24">
  <g fill="none" fill-rule="evenodd">
    <rect width="24" height="24"/>
    <g fill-rule="nonzero" transform="translate(3 2.5)">
      <path fill="#CCC" d="M4.55500002,14.9050001 L2.32500001,15.1450001 C2.08902205,15.1698972 1.86027569,15.0545464 1.74000001,14.8500001 L0.665000003,13.0000001 C0.550427167,12.7946936 0.564043631,12.5418164 0.700000003,12.3500001 L2.03000001,10.535 C2.10502757,10.4337635 2.14536174,10.3110073 2.14500001,10.185 L2.14500001,8.68500004 C2.14536174,8.55899274 2.10502757,8.43623656 2.03000001,8.33500003 L0.700000003,6.50000003 C0.564043631,6.30818363 0.550427167,6.05530645 0.665000003,5.85000002 L1.74000001,4.00000002 C1.86027569,3.79545363 2.08902205,3.6801029 2.32500001,3.70500002 L4.55500002,3.94500002 C4.68158925,3.96045298 4.80976065,3.93411639 4.92000002,3.87000002 L6.21500003,3.12000001 C6.32512214,3.05683356 6.41258349,2.96062608 6.46500003,2.84500001 L7.37000003,0.790000003 C7.46620653,0.574923091 7.67938882,0.436061228 7.91500003,0.435000002 L10.065,0.435000002 C10.3020491,0.435364923 10.5170461,0.574135689 10.615,0.790000003 L11.5,2.84500001 C11.5505263,2.96027169 11.6363038,3.05655258 11.745,3.12000001 L13.0450001,3.87000002 C13.1549686,3.93482259 13.2833812,3.96120875 13.4100001,3.94500002 L15.6400001,3.70500002 C15.8747409,3.67954035 16.1023259,3.79529478 16.2200001,4.00000002 L17.2950001,5.86000002 C17.4147248,6.06408387 17.4009472,6.31995236 17.2600001,6.51000003 L15.9350001,8.32500003 C15.8599725,8.42623656 15.8196383,8.54899274 15.8200001,8.67500004 L15.8200001,10.175 C15.8196383,10.3010073 15.8599725,10.4237635 15.9350001,10.525 L17.2600001,12.3400001 C17.4009472,12.5300477 17.4147248,12.7859162 17.2950001,12.9900001 L16.2400001,14.8500001 C16.1223259,15.0547053 15.8947409,15.1704597 15.6600001,15.1450001 L13.4300001,14.9050001 C13.3033812,14.8887913 13.1749686,14.9151775 13.0650001,14.9800001 L11.765,15.7300001 C11.6496448,15.7887729 11.5566066,15.8835665 11.5,16.0000001 L10.595,18.0550001 C10.4970461,18.2708644 10.2820491,18.4096352 10.045,18.4100001 L7.89500003,18.4100001 C7.65938882,18.4089389 7.44620653,18.270077 7.35000003,18.0550001 L6.46500003,16.0000001 C6.41258349,15.884374 6.32512214,15.7881665 6.21500003,15.7250001 L4.92000002,15.0000001 C4.81215784,14.9289059 4.68381817,14.8955024 4.55500002,14.9050001 Z"/>
      <path fill="#000" d="M10.065,18.665153 L7.91500003,18.665153 C7.58084296,18.665153 7.2775941,18.4695142 7.14000003,18.1650001 L6.23500003,16.1150001 C6.20503618,16.0462374 6.15434234,15.9885513 6.09000003,15.9500001 L4.79500002,15.2000001 C4.72932806,15.1643747 4.6540903,15.150377 4.58000002,15.1600001 L2.35000001,15.4000001 C2.02049849,15.4391244 1.69835274,15.2829326 1.52500001,15.0000001 L0.450000002,13.1150001 C0.284994237,12.8232664 0.30450878,12.4622474 0.500000002,12.1900001 L1.82500001,10.38 C1.87005985,10.3211262 1.89464131,10.2491377 1.89500001,10.175 L1.89500001,8.67500004 C1.89464131,8.60086241 1.87005985,8.52887385 1.82500001,8.47000004 L0.500000002,6.66000003 C0.30450878,6.38775271 0.284994237,6.02673367 0.450000002,5.73500002 L1.52500001,3.87500002 C1.69295301,3.58438968 2.0161952,3.41983002 2.35000001,3.45500001 L4.58000002,3.69500002 C4.6540903,3.70462312 4.72932806,3.6906254 4.79500002,3.65500002 L6.09500003,2.90500001 C6.15541236,2.86546381 6.20383304,2.81012589 6.23500003,2.74500001 L7.14000003,0.690000003 C7.2755528,0.383734239 7.58008846,0.187259623 7.91500003,0.189938268 L10.065,0.189938268 C10.4002943,0.185935931 10.7054956,0.382839986 10.84,0.690000003 L11.745,2.74500001 C11.7763497,2.81156415 11.8268333,2.86727013 11.89,2.90500001 L13.1900001,3.65500002 C13.2539993,3.69023144 13.3275305,3.70423738 13.4000001,3.69500002 L15.6350001,3.45500001 C15.9678257,3.41789731 16.2906208,3.58323137 16.4550001,3.87500002 L17.5350001,5.73500002 C17.7000058,6.02673367 17.6804913,6.38775271 17.4850001,6.66000003 L16.1550001,8.47000004 C16.1135143,8.53039054 16.0908918,8.60173827 16.0900001,8.67500004 L16.0900001,10.175 C16.0908918,10.2482618 16.1135143,10.3196095 16.1550001,10.38 L17.5000001,12.1900001 C17.6954913,12.4622474 17.7150058,12.8232664 17.5500001,13.1150001 L16.4550001,15.0000001 C16.2915895,15.2927747 15.9680759,15.4584767 15.6350001,15.4200001 L13.4000001,15.1800001 C13.3275305,15.1707627 13.2539993,15.1847686 13.1900001,15.2200001 L11.89,15.9700001 C11.8256577,16.0085513 11.7749639,16.0662374 11.745,16.1350001 L10.84,18.1850001 C10.6985044,18.4834536 10.3952364,18.6712841 10.065,18.665153 Z M4.62000002,14.6650001 C4.76933985,14.665104 4.91598455,14.7047843 5.04500002,14.7800001 L6.34500003,15.5300001 C6.49856404,15.6214414 6.62064467,15.7574741 6.69500003,15.9200001 L7.60000003,17.9750001 C7.65529868,18.0995475 7.77872827,18.1800319 7.91500003,18.1800319 L10.065,18.1800319 C10.2030816,18.1818688 10.3289745,18.1012187 10.385,17.9750001 L11.29,15.9200001 C11.362971,15.7565711 11.4853891,15.6201624 11.64,15.5300001 L12.9400001,14.7800001 C13.0911607,14.6922 13.2659477,14.6537468 13.4400001,14.6700001 L15.6700001,14.9150001 C15.808,14.9292045 15.9413646,14.860561 16.0100001,14.7400001 L17.0850001,12.8800001 C17.1601653,12.7662997 17.1601653,12.6187004 17.0850001,12.5050001 L15.7600001,10.69 C15.6537738,10.5448393 15.5960352,10.3698738 15.5950001,10.19 L15.5950001,8.69000004 C15.5935416,8.50972696 15.6515323,8.33399746 15.7600001,8.19000003 L17.0850001,6.38000003 C17.1597484,6.26436094 17.1597484,6.11563911 17.0850001,6.00000002 L16.0100001,4.14000002 C15.9413646,4.01943911 15.808,3.95079555 15.6700001,3.96500002 L13.4400001,4.21000002 C13.2659477,4.22625325 13.0911607,4.18780012 12.9400001,4.10000002 L11.64,3.35000001 C11.4853891,3.25983768 11.362971,3.12342895 11.29,2.96000001 L10.385,0.890000004 C10.3289745,0.763781387 10.2030816,0.683131258 10.065,0.684968209 L7.91500003,0.684968209 C7.77872827,0.684968209 7.65529868,0.765452554 7.60000003,0.890000004 L6.69500003,2.94500001 C6.62037845,3.10735133 6.49836168,3.24331287 6.34500003,3.33500001 L5.04500002,4.08500002 C4.89348082,4.17187562 4.71898984,4.21026363 4.54500002,4.19500002 L2.31000001,3.95000002 C2.1737277,3.93784466 2.04286564,4.00620544 1.97500001,4.12500002 L0.885000004,6.00000002 C0.810251696,6.11563911 0.810251696,6.26436094 0.885000004,6.38000003 L2.21000001,8.19000003 C2.31622623,8.33516074 2.37396486,8.51012628 2.37500001,8.69000004 L2.37500001,10.19 C2.37396486,10.3698738 2.31622623,10.5448393 2.21000001,10.69 L0.905000004,12.5000001 C0.830251696,12.6156391 0.830251696,12.764361 0.905000004,12.8800001 L1.98000001,14.7400001 C2.04693929,14.859752 2.17847102,14.9284627 2.31500001,14.9150001 L4.55000002,14.6700001 L4.64000002,14.6700001 L4.62000002,14.6650001 Z"/>
      <circle cx="8.99" cy="9.425" r="2.83" fill="#FFF"/>
      <path fill="#000" d="M9.00000004,12.5000001 C7.298963,12.5000001 5.92000002,11.1210371 5.92000002,9.42000004 C5.92000002,7.718963 7.298963,6.34000003 9.00000004,6.34000003 C10.7010371,6.34000003 12.0800001,7.718963 12.0800001,9.42000004 C12.0772472,11.1198955 10.6998955,12.4972472 9.00000004,12.5000001 Z M9.00000004,6.84000003 C7.57510538,6.84000003 6.42000003,7.99510538 6.42000003,9.42000004 C6.42000003,10.8448947 7.57510538,12 9.00000004,12 C10.4248947,12 11.58,10.8448947 11.58,9.42000004 C11.5745025,7.99819954 10.4218085,6.84773952 9.00000004,6.84500003 L9.00000004,6.84000003 Z"/>
    </g>
  </g>
</svg>
