<svg xmlns="http://www.w3.org/2000/svg" width="24" height="24" viewBox="0 0 24 24">
  <g fill="none" fill-rule="evenodd">
    <path fill="#000" fill-rule="nonzero" d="M20.5000001,14.7650001 L19.1750001,12.9550001 C19.1313924,12.8956674 19.1085481,12.8236199 19.1100001,12.7500001 L19.1100001,11.25 C19.1085481,11.1763802 19.1313924,11.1043327 19.1750001,11.045 L20.5000001,9.23500004 C20.7005393,8.96455091 20.7202183,8.6004901 20.5500001,8.31000003 L19.4650001,6.45000003 C19.2979754,6.1584126 18.9740488,5.99350454 18.6400001,6.03000003 L16.4100001,6.27000003 C16.3375101,6.27995862 16.2637532,6.26590968 16.2000001,6.23000003 L14.9000001,5.50000002 C14.8368333,5.46227014 14.7863497,5.40656416 14.7550001,5.34000002 L13.8500001,3.26500001 C13.7144473,2.95873425 13.4099116,2.76225963 13.0750001,2.76497171 L10.925,2.76497171 C10.5900885,2.76225963 10.2855528,2.95873425 10.15,3.26500001 L9.24500004,5.32000002 C9.21365037,5.38656416 9.16316682,5.44227014 9.10000004,5.48000002 L7.80000003,6.23000003 C7.73624692,6.26590968 7.66248996,6.27995862 7.59000003,6.27000003 L5.36000002,6.03000003 C5.02570599,5.99215706 4.70107946,6.15742148 4.53500002,6.45000003 L3.46000001,8.31000003 C3.28686774,8.59851599 3.30260789,8.96250676 3.50000001,9.23500004 L4.82500002,11.045 C4.86860774,11.1043327 4.89145205,11.1763802 4.89000002,11.25 L4.89000002,12.7500001 C4.89145205,12.8236199 4.86860774,12.8956674 4.82500002,12.9550001 L3.50000001,14.7650001 C3.29946076,15.0354492 3.27978179,15.39951 3.45000001,15.6900001 L4.53500002,17.5500001 C4.70107946,17.8425786 5.02570599,18.007843 5.36000002,17.9700001 L7.59000003,17.7300001 C7.66248003,17.7204079 7.73612144,17.7344348 7.80000003,17.7700001 L9.10000004,18.5000001 C9.16434235,18.5385513 9.21503619,18.5962374 9.24500004,18.6650001 L10.15,20.7150001 C10.2855528,21.0212659 10.5900885,21.2177405 10.925,21.2150284 L13.0750001,21.2150284 C13.4099116,21.2177405 13.7144473,21.0212659 13.8500001,20.7150001 L14.7550001,18.6650001 C14.7849639,18.5962374 14.8356577,18.5385513 14.9000001,18.5000001 L16.2000001,17.7500001 C16.2638787,17.7144348 16.3375201,17.7004079 16.4100001,17.7100001 L18.6400001,17.9500001 C18.9742941,17.987843 19.2989206,17.8225786 19.4650001,17.5300001 L20.5400001,15.6700001 C20.7044094,15.386374 20.6887913,15.0330151 20.5000001,14.7650001 Z M20.1200001,15.4400001 L19.0350001,17.3000001 C18.9663647,17.420561 18.833,17.4892045 18.6950001,17.4750001 L16.4650001,17.2300001 C16.2909477,17.2137468 16.1161607,17.2522 15.9650001,17.3400001 L14.6650001,18.0900001 C14.508102,18.1773263 14.3849049,18.314603 14.3150001,18.4800001 L13.4050001,20.5350001 C13.3497014,20.6595475 13.2262718,20.7400129 13.0900001,20.7400129 L10.94,20.7400129 C10.8033426,20.7411837 10.679258,20.6604303 10.625,20.5350001 L9.70000004,18.5000001 C9.62850906,18.3356157 9.50572035,18.198794 9.35000004,18.1100001 L8.05000003,17.3600001 C7.9224512,17.285632 7.77764269,17.245982 7.63000003,17.2450001 L7.53500003,17.2450001 L5.30500002,17.5000001 C5.16724817,17.5129052 5.03454869,17.444604 4.96500002,17.3250001 L3.89000002,15.4400001 C3.81770361,15.3236494 3.81770361,15.1763507 3.89000002,15.0600001 L5.22000002,13.2500001 C5.32475489,13.1043908 5.38076025,12.9293741 5.38000002,12.7500001 L5.38000002,11.25 C5.38076025,11.070626 5.32475489,10.8956093 5.22000002,10.75 L3.91000002,8.94000004 C3.83770361,8.82364936 3.83770361,8.67635071 3.91000002,8.56000004 L4.96500002,6.70000003 C5.03168372,6.57742285 5.1664934,6.50803552 5.30500002,6.52500003 L7.53500003,6.77000003 C7.7090524,6.78625326 7.88383939,6.74780013 8.03500003,6.66000003 L9.33500004,5.91000002 C9.49072035,5.82120609 9.61350906,5.68438438 9.68500004,5.52000002 L10.595,3.46500001 C10.649258,3.33956982 10.7733426,3.25881635 10.91,3.25998718 L13.0600001,3.25998718 C13.1962718,3.25998718 13.3197014,3.34045256 13.3750001,3.46500001 L14.3000001,5.50000002 C14.371491,5.66438438 14.4942798,5.80120609 14.6500001,5.89000002 L15.9500001,6.64000003 C16.1011607,6.72780013 16.2759477,6.76625326 16.4500001,6.75000003 L18.6800001,6.50500003 C18.8177519,6.4920949 18.9504514,6.56039611 19.0200001,6.68000003 L20.0950001,8.54000004 C20.1672965,8.65635071 20.1672965,8.80364936 20.0950001,8.92000004 L18.7600001,10.75 C18.6552452,10.8956093 18.5992399,11.070626 18.6000001,11.25 L18.6000001,12.7500001 C18.5992399,12.9293741 18.6552452,13.1043908 18.7600001,13.2500001 L20.0900001,15.0650001 C20.1688383,15.1755398 20.1766337,15.3217018 20.1100001,15.4400001 L20.1200001,15.4400001 Z"/>
    <path fill="#000" fill-rule="nonzero" d="M12,8.92000004 C10.298963,8.92000004 8.92000004,10.298963 8.92000004,12.0000001 C8.92000004,13.7010371 10.298963,15.0800001 12,15.0800001 C13.7010371,15.0800001 15.0800001,13.7010371 15.0800001,12.0000001 C15.0800001,11.1831333 14.755501,10.3997232 14.1778889,9.82211115 C13.6002769,9.24449911 12.8168668,8.92000004 12,8.92000004 Z M12,14.5800001 C10.5751054,14.5800001 9.42000004,13.4248947 9.42000004,12 C9.42000004,10.5751054 10.5751054,9.42000004 12,9.42000004 C13.4248947,9.42000004 14.5800001,10.5751054 14.5800001,12 C14.5772488,13.4237536 13.4237536,14.5772488 12.0000001,14.5800001 L12,14.5800001 Z"/>
    <rect width="24" height="24"/>
  </g>
</svg>
