<svg xmlns="http://www.w3.org/2000/svg" width="24" height="24" viewBox="0 0 24 24">
  <g fill="none" fill-rule="evenodd">
    <path fill="#000" fill-rule="nonzero" d="M17.0850001,18.6200001 L16.5000001,17.8300001 C15.9754537,17.1269736 15.8296695,16.2111498 16.1100001,15.3800001 L17.9650001,9.82500004 C17.9805228,9.80198745 17.9923335,9.77667885 18.0000001,9.75000004 L18.2750001,8.92500004 L18.3150001,8.67500004 C18.3832838,7.12646634 17.814066,5.61758745 16.7400001,4.50000002 C16.6000001,4.36000002 16.4550001,4.22500002 16.3100001,4.10000002 C14.0609797,2.18694693 10.7244052,2.30401971 8.61500004,4.37000002 C8.55930784,4.41547342 8.52640123,4.48311478 8.52500004,4.55500002 C8.52180542,4.62612344 8.54908636,4.69523514 8.60000004,4.74500002 L10.18,6.24500003 L7.50000003,8.93000004 C7.03257109,9.3937832 6.98946706,10.1351726 7.40000003,10.65 L7.77500003,11.115 C8.09827253,11.519025 8.63913655,11.6786896 9.13000004,11.515 L11.69,10.665 C11.7864349,10.7403705 11.8903058,10.8057086 12.0000001,10.86 L8.54000004,14.9200001 C7.74822384,15.8562456 7.31572356,17.0438488 7.32000003,18.2700001 L7.32000003,18.6100001 L7.00000003,18.6100001 C6.27098416,18.6100001 5.68000002,19.2009842 5.68000002,19.9300001 C5.68000002,20.659016 6.27098416,21.2500001 7.00000003,21.2500001 L17.0000001,21.2500001 C17.7262545,21.2679493 18.3295508,20.6937545 18.3475001,19.9675001 C18.3654493,19.2412456 17.7912545,18.6379493 17.0650001,18.6200001 L17.0850001,18.6200001 Z M16.2500001,5.82000002 L16.1400001,5.73500002 C14.4596083,4.49113273 12.1466304,4.55721781 10.54,5.89500002 L9.16500004,4.59500002 C11.1003855,2.86209016 14.0171999,2.82154921 16.0000001,4.50000002 C16.1288982,4.60710008 16.2508137,4.72233534 16.3650001,4.84500002 C17.192109,5.7002228 17.6989404,6.81454567 17.8000001,8.00000003 C17.5721017,7.32643507 17.1903342,6.71526478 16.6850001,6.21500003 L16.6450001,6.17500003 C16.5700001,6.10500003 16.4950001,6.03000003 16.4150001,5.96500002 L16.2500001,5.82000002 Z M7.81500003,18.2700001 C7.80985499,17.1628678 8.19990607,16.0902273 8.91500004,15.2450001 L12.5000001,11.06 C13.2156276,11.2552088 13.9813641,11.1048506 14.570041,10.6535317 C15.1587179,10.2022127 15.5027225,9.50176947 15.5000001,8.76000004 C15.5039199,8.12535779 15.2515222,7.51599767 14.8000001,7.07000003 C14.7374786,7.00747854 14.6463515,6.98306112 14.5609456,7.00594557 C14.4755397,7.02883002 14.4088301,7.09553965 14.3859456,7.18094558 C14.3630612,7.26635151 14.3874786,7.35747855 14.4500001,7.42000003 C14.9929383,7.95732016 15.1590574,8.76863681 14.8709931,9.47610679 C14.5829287,10.1835768 13.8973224,10.6480918 13.1334719,10.6533198 C12.3696215,10.6585478 11.6777212,10.2034608 11.38,9.50000004 C11.3228324,9.37847049 11.1798583,9.32382401 11.0562058,9.37624189 C10.9325534,9.42865978 10.8724105,9.56941022 10.92,9.69500004 C11.0089558,9.9022188 11.1267909,10.0958051 11.27,10.27 L8.97000004,11.035 C8.67895268,11.1339821 8.35708397,11.0400204 8.16500003,10.8 L7.79000003,10.33 C7.53660938,10.0176014 7.56035814,9.56421603 7.84500003,9.28000004 L10.64,6.50000003 C10.6709382,6.48822074 10.6996729,6.47131795 10.725,6.45000003 C11.9103705,5.3572664 13.6309624,5.07165448 15.1058106,5.72280161 C16.5806589,6.37394873 17.5288475,7.83783019 17.5200615,9.45000004 C17.5200615,9.50500004 17.5200615,9.56500004 17.5200615,9.62500004 L15.6350001,15.2200001 C15.3031913,16.2075439 15.4769655,17.2950343 16.1000001,18.1300001 L16.4600001,18.6300001 L7.81500003,18.6300001 L7.81500003,18.2700001 Z M17.0000001,20.7500001 L7.00000003,20.7500001 C6.54712653,20.7500001 6.18000003,20.3828736 6.18000003,19.9300001 C6.18000003,19.4771266 6.54712653,19.1100001 7.00000003,19.1100001 L17.0000001,19.1100001 C17.4528736,19.1100001 17.8200001,19.4771266 17.8200001,19.9300001 C17.8200001,20.3828736 17.4528736,20.7500001 17.0000001,20.7500001 Z"/>
    <rect width="24" height="24"/>
  </g>
</svg>
