<svg xmlns="http://www.w3.org/2000/svg" width="24" height="24" viewBox="0 0 24 24">
  <g fill="none" fill-rule="evenodd">
    <path fill="#000" fill-rule="nonzero" d="M17.85,9.95000004 C17.85,9.95000004 17.9000001,9.90000001 17.9000001,9.85000004 L18.1500001,9.05000004 L18.2000001,8.80000004 C18.2500001,7.25000003 17.7000001,5.75000002 16.6000001,4.65000002 C16.5000001,4.50000002 16.35,4.35000002 16.2000001,4.25000002 C15.1500001,3.35000001 13.9000001,2.90000001 12.5000001,2.90000001 C11,2.90000001 9.60000004,3.45000001 8.50000004,4.55000002 C8.45000004,4.60000002 8.40000003,4.65000002 8.40000003,4.75000002 C8.40000003,4.80000002 8.45000004,4.90000001 8.50000004,4.95000002 L10.1,6.45000003 L7.40000003,9.15000004 C6.95000003,9.60000004 6.90000003,10.35 7.30000003,10.85 L7.70000003,11.3 C8.00000003,11.7 8.55000004,11.85 9.05000004,11.7 L11.6,10.85 C11.7,10.9 11.8,11 11.9,11.05 L8.45000004,15.1000001 C7.65000003,16.0000001 7.25000003,17.2000001 7.25000003,18.4500001 L7.25000003,19.0000001 L6.90000003,19.0000001 C6.30000003,19.0000001 5.85000002,19.5000001 5.85000002,20.0500001 C5.85000002,20.6500001 6.35000002,21.1000001 6.90000003,21.1000001 L16.9500001,21.1000001 C17.5500001,21.1000001 18.0000001,20.6000001 18.0000001,20.0500001 C18.0000001,19.5000001 17.6000001,19.1000001 17.1000001,19.0000001 L16.4000001,17.9500001 C15.9000001,17.2500001 15.7500001,16.3500001 16.0000001,15.5000001 L17.85,9.95000004 Z"/>
    <rect width="24" height="24"/>
  </g>
</svg>
