<svg xmlns="http://www.w3.org/2000/svg" width="24" height="24" viewBox="0 0 24 24">
  <g fill="none" fill-rule="evenodd">
    <path fill="#000" fill-rule="nonzero" d="M20.7350001,19.1650001 L13.1000001,7.66500003 C12.9024139,7.36583676 12.5888298,7.16282273 12.2350001,7.10500003 L12.2350001,6.10500003 L16.0700001,6.13000003 C16.1513563,6.13655816 16.2285349,6.09302147 16.2650001,6.02000003 C16.3051924,5.95038478 16.3051924,5.86461527 16.2650001,5.79500002 L15.6000001,4.46500002 L16.2800001,3.12500001 C16.3173604,3.05288486 16.3173604,2.96711517 16.2800001,2.89500001 C16.2368127,2.82624493 16.161193,2.7846541 16.0800001,2.78499787 L12.0000001,2.78499787 C11.8702131,2.78499787 11.765,2.8902131 11.765,3.02000001 L11.765,7.11000003 C11.4111703,7.16782273 11.0975862,7.37083676 10.9,7.67000003 L3.26500001,19.1700001 C2.99601952,19.5752294 2.97167412,20.0955446 3.20164115,20.5241195 C3.43160818,20.9526944 3.87862435,21.2200001 4.36500002,21.2200001 L19.6350001,21.2200001 C20.1213758,21.2200001 20.5683919,20.9526944 20.7983589,20.5241195 C21.028326,20.0955446 21.0039806,19.5752294 20.7350001,19.1700001 L20.7350001,19.1650001 Z M12.2350001,3.25000001 L15.6900001,3.25000001 L15.1350001,4.36000002 C15.1028633,4.42455492 15.1028633,4.50044512 15.1350001,4.56500002 L15.6950001,5.69000002 L12.2400001,5.69000002 L12.2350001,3.25000001 Z M11.315,7.94500003 C11.468218,7.71673061 11.725077,7.57978259 12.0000001,7.57978259 C12.2749231,7.57978259 12.5317821,7.71673061 12.6850001,7.94500003 L15.0800001,11.555 L14.3100001,12.7950001 C14.263926,12.8685329 14.1863625,12.9165484 14.1000001,12.9250001 C14.0133249,12.9380598 13.9257038,12.9082313 13.8650001,12.8450001 L12.555,11.535 C12.2473308,11.231274 11.7526693,11.231274 11.445,11.535 L10.185,12.7950001 C10.1211896,12.8599014 10.0298151,12.8897379 9.94000004,12.8750001 C9.84906454,12.8603065 9.77083793,12.8025678 9.73000004,12.7200001 L9.05500004,11.35 L11.315,7.94500003 Z M20.3600001,20.2850001 C20.2178231,20.5526933 19.9380857,20.7186065 19.6350001,20.7150577 L4.36500002,20.7150577 C4.06205124,20.7160417 3.78321006,20.5499644 3.63983095,20.2830909 C3.49645184,20.0162174 3.5118976,19.6920331 3.68000002,19.4400001 L8.73500004,11.83 L9.28000004,12.9400001 C9.39242636,13.1668882 9.60739338,13.3256128 9.85732223,13.3662758 C10.1072511,13.4069389 10.3614475,13.3245464 10.54,13.1450001 L11.8,11.885 C11.9109416,11.7757193 12.0890585,11.7757193 12.2000001,11.885 L13.5000001,13.1950001 C13.6471839,13.3422257 13.8468211,13.4249582 14.0550001,13.4250001 L14.1450001,13.4250001 C14.3842895,13.3993257 14.5983285,13.2646288 14.7250001,13.0600001 L15.3850001,12.0000001 L20.3200001,19.4300001 C20.4939619,19.6844988 20.5094413,20.0153714 20.3600001,20.2850001 Z"/>
    <rect width="24" height="24"/>
  </g>
</svg>
