<svg xmlns="http://www.w3.org/2000/svg" width="24" height="24" viewBox="0 0 24 24">
  <g fill="none" fill-rule="evenodd">
    <g fill="#000" fill-rule="nonzero" transform="translate(3 2.5)">
      <g transform="translate(0 4.5)">
        <path d="M6.65000003,6.15000003 C6.75000003,6.15000003 6.90000003,6.15000003 6.95000003,6.05000003 L8.40000003,4.60000002 C8.55000004,4.45000002 8.80000004,4.35000002 9.00000004,4.35000002 C9.00000004,4.35000002 9.00000004,4.35000002 9.00000004,4.35000002 C9.25000004,4.35000002 9.45000004,4.45000002 9.60000004,4.60000002 L11.1,6.10000003 C11.2,6.20000003 11.3,6.20000003 11.4,6.20000003 C11.5,6.20000003 11.6,6.15000003 11.65,6.05000003 L12.4500001,4.80000002 L9.90000004,0.950000004 C9.50000004,0.300000001 8.55000004,0.300000001 8.10000003,0.950000004 L5.70000002,4.60000002 L6.35000003,5.95000002 C6.40000003,6.05000003 6.50000003,6.10000003 6.65000003,6.15000003 Z"/>
        <path d="M17.5500001,12.4500001 L13.8500001,6.85000002 L12.7500001,5.25000002 L12.1000001,6.30000003 C11.95,6.50000003 11.75,6.65000003 11.45,6.70000003 C11.4,6.70000003 11.4,6.70000003 11.35,6.70000003 C11.1,6.70000003 10.9,6.60000003 10.75,6.45000003 L9.25000004,4.95000002 C9.20000004,4.90000002 9.10000004,4.85000002 9.00000004,4.85000002 L9.00000004,4.85000002 C8.90000004,4.85000002 8.80000004,4.90000002 8.75000004,4.95000002 L7.30000003,6.40000003 C7.10000003,6.60000003 6.85000003,6.70000003 6.55000003,6.65000003 C6.25000003,6.60000003 6.05000003,6.45000003 5.90000002,6.20000003 L5.35000002,5.10000002 L4.15000002,6.90000003 L0.450000002,12.4500001 C0,13.1500001 0.500000002,14.1000001 1.35000001,14.1000001 L9.00000004,14.1000001 L16.6500001,14.1000001 C17.5000001,14.1000001 18.0000001,13.1500001 17.5500001,12.4500001 Z"/>
      </g>
      <g transform="translate(8.5)">
        <polyline points=".5 4.95 .5 .65 4.55 .65 3.85 2.1 4.55 3.55 .5 3.55"/>
        <path d="M0.500000002,5.20000002 C0.350000001,5.20000002 0.250000001,5.10000002 0.250000001,4.95000002 L0.250000001,3.50000001 L0.250000001,3.50000001 L0.250000001,0.650000003 C0.250000001,0.500000002 0.350000001,0.400000002 0.500000002,0.400000002 L4.55000002,0.400000002 C4.65000002,0.400000002 4.70000002,0.450000002 4.75,0.500000002 C4.80000002,0.550000002 4.80000002,0.650000003 4.75,0.750000003 L4.10000002,2.10000001 L4.75,3.45000001 C4.80000002,3.55000001 4.80000002,3.60000001 4.75,3.70000002 C4.70000002,3.75000002 4.60000002,3.80000002 4.55000002,3.80000002 C4.55000002,3.80000002 4.55000002,3.80000002 4.55000002,3.80000002 L0.750000001,3.80000002 L0.750000001,5.00000002 C0.750000001,5.10000002 0.650000003,5.20000002 0.500000002,5.20000002 Z M0.750000003,3.30000001 L4.15000002,3.30000001 L3.60000001,2.20000001 C3.55000001,2.15000001 3.55000001,2.05000001 3.60000001,2.00000001 L4.15000002,0.900000004 L0.750000003,0.900000004 L0.750000003,3.30000001 Z"/>
      </g>
    </g>
    <rect width="24" height="24"/>
  </g>
</svg>
