<svg xmlns="http://www.w3.org/2000/svg" width="24" height="24" viewBox="0 0 24 24">
  <g fill="none" fill-rule="evenodd">
    <g transform="translate(3 3.5)">
      <path d="M10.1,0.550000002 L7.95000003,0.550000002 C6.45000003,0.550000002 5.20000002,1.70000001 5.05000002,3.20000001 L12.9500001,3.20000001 C12.8500001,1.70000001 11.6,0.550000002 10.1,0.550000002 Z"/>
      <path fill="#000" fill-rule="nonzero" d="M4.65000002,10.1 L7.25000003,10.1 L7.25000003,9.65000004 C7.25000003,9.05 7.70000003,8.60000004 8.30000003,8.60000004 L9.70000004,8.60000004 C10.3,8.60000004 10.75,9.05 10.75,9.65000004 L10.75,10.1 L13.3500001,10.1 C14,10.1 14.6000001,9.75000004 14.9500001,9.20000004 L18.0500001,4.30000002 L18.0500001,4.20000002 C18.0500001,3.65000002 17.6000001,3.20000001 17.0500001,3.20000001 L13.5,3.20000001 C13.3500001,1.45000001 11.9,0.0500000002 10.1,0.0500000002 L7.95000003,0.0500000002 C6.15000003,0.0500000002 4.70000002,1.45000001 4.55000002,3.20000001 L1,3.20000001 C0.450000002,3.20000001 0,3.65000002 0,4.20000002 L0,4.30000002 L3.10000001,9.20000004 C3.40000001,9.80000004 4,10.1 4.65000002,10.1 Z M7.90000003,0.550000002 L10.05,0.550000002 C11.55,0.550000002 12.8000001,1.70000001 12.9500001,3.20000001 L5.05000002,3.20000001 C5.15000002,1.70000001 6.40000003,0.550000002 7.90000003,0.550000002 Z"/>
      <path fill="#000" fill-rule="nonzero" d="M13.3500001,10.65 L10.75,10.65 L10.75,11.1 C10.75,11.7 10.3,12.1500001 9.70000004,12.1500001 L8.30000003,12.1500001 C7.70000003,12.1500001 7.25000003,11.7 7.25000003,11.1 L7.25000003,10.65 L4.65000002,10.65 C3.80000002,10.65 3.05000001,10.25 2.60000001,9.55000004 L0,5.30000002 L0,15.9000001 C0,16.4500001 0.450000002,16.9000001 1,16.9000001 L17,16.9000001 C17.5500001,16.9000001 18,16.4500001 18,15.9000001 L18,5.30000002 L15.3500001,9.50000004 C14.9500001,10.25 14.1500001,10.65 13.3500001,10.65 Z"/>
    </g>
    <rect width="24" height="24"/>
  </g>
</svg>
