<svg xmlns="http://www.w3.org/2000/svg" width="24" height="24" viewBox="0 0 24 24">
  <g fill="none" fill-rule="evenodd">
    <rect width="24" height="24"/>
    <rect width="24" height="24"/>
    <path fill="#000" fill-rule="nonzero" d="M20,6.585 L16.455,6.585 C16.4522464,4.72218075 14.9428193,3.21275362 13.08,3.21 L10.92,3.21 C9.05718075,3.21275362 7.54775362,4.72218075 7.545,6.585 L4,6.585 C3.30883057,6.58499451 2.74775366,7.14383606 2.745,7.835 L2.745,19.54 C2.745,19.8728467 2.87722283,20.1920609 3.11258099,20.427419 C3.34793914,20.6627772 3.66715331,20.795 4,20.795 L20,20.795 C20.6931174,20.795 21.255,20.2331174 21.255,19.54 L21.255,7.835 C21.2522463,7.14383606 20.6911694,6.58499451 20,6.585 Z M8,6.585 C8,4.9806128 9.3006128,3.68 10.905,3.68 L13.065,3.68 C13.8397727,3.6719974 14.5856385,3.97383555 15.1367912,4.51841567 C15.6879438,5.0629958 15.9987077,5.80518707 16,6.58 L8,6.58 L8,6.585 Z M4,7.05 L20,7.05 C20.4335435,7.05 20.785,7.40145647 20.785,7.835 L20.785,8 C20.7674695,8.01420233 20.7522836,8.03107547 20.74,8.05 L17.67,12.94 C17.3387998,13.4655613 16.761215,13.7845542 16.14,13.785 L14,13.785 L14,13.32 C13.9972462,12.6122675 13.4227379,12.0399946 12.715,12.04 L11.305,12.04 C10.9641848,12.0346542 10.6352091,12.164937 10.390465,12.4021794 C10.145721,12.6394217 10.0052632,12.9641835 10,13.305 L10,13.77 L7.865,13.77 C7.24378505,13.7695542 6.66620016,13.4505613 6.335,12.925 L3.265,8.035 C3.25271635,8.01607547 3.23753053,7.99920233 3.22,7.985 L3.22,7.835 C3.22,7.40340161 3.56841037,7.05274903 4,7.05 Z M10.5,13.305 C10.5053949,12.8626647 10.8626647,12.5053949 11.305,12.5 L12.695,12.5 C13.1373353,12.5053949 13.4946051,12.8626647 13.5,13.305 L13.5,14.7 C13.4919257,15.1403816 13.1354233,15.4946697 12.695,15.5 L11.305,15.5 C10.8645767,15.4946697 10.5080743,15.1403816 10.5,14.7 L10.5,13.305 Z M20,20.305 L4,20.305 C3.56645647,20.305 3.215,19.9535435 3.215,19.52 L3.215,8.84 L5.935,13.175 C6.35080309,13.8367958 7.07842481,14.2374602 7.86,14.235 L10,14.235 L10,14.7 C9.99590802,15.0468903 10.1322482,15.3806973 10.3780241,15.6255316 C10.6238,15.8703658 10.958128,16.0054236 11.305,16 L12.695,16 C13.041872,16.0054236 13.3762,15.8703658 13.6219759,15.6255316 C13.8677518,15.3806973 14.004092,15.0468903 14,14.7 L14,14.235 L16.155,14.235 C16.9365752,14.2374602 17.6641969,13.8367958 18.08,13.175 L20.8,8.84 L20.8,19.54 C20.8,19.7508201 20.7152775,19.9527952 20.5648011,20.1004502 C20.4143247,20.2481051 20.2107816,20.3290284 20,20.325 L20,20.305 Z"/>
  </g>
</svg>
