<svg xmlns="http://www.w3.org/2000/svg" width="24" height="24" viewBox="0 0 24 24">
  <g fill="none" fill-rule="evenodd">
    <path fill="#000" fill-rule="nonzero" d="M.1 15.2500001C.1 16.0000001.700000003 16.5500001 1.40000001 16.5500001L16.6 16.5500001C17.3500001 16.5500001 17.9000001 15.95 17.9000001 15.2500001L17.9000001 6.45000003.1 6.45000003.1 15.2500001zM9.30000004 11.65L8.50000004 11.65C7.75000003 11.65 7.15000003 11.05 7.15000003 10.3 7.15000003 9.55000004 7.75000003 8.95000004 8.50000004 8.95000004L8.65000003 8.95000004 8.65000003 8.25000003C8.65000003 8.10000003 8.75000004 8.00000003 8.90000004 8.00000003 9.05000004 8.00000003 9.15000003 8.10000003 9.15000003 8.25000003L9.15000003 8.95000004 10.4 8.95000004C10.55 8.95000004 10.65 9.05000004 10.65 9.20000004 10.65 9.35000004 10.55 9.45000004 10.4 9.45000004L8.90000004 9.45000004 8.50000004 9.45000004C8.05000003 9.45000004 7.65000003 9.85000004 7.65000003 10.3 7.65000003 10.75 8.05000003 11.15 8.50000004 11.15L9.30000004 11.15C10.05 11.15 10.65 11.75 10.65 12.5 10.65 13.2500001 10.05 13.8500001 9.30000004 13.8500001L9.15000003 13.8500001 9.15000003 14.5C9.15000003 14.6500001 9.05000004 14.7500001 8.90000004 14.7500001 8.75000004 14.7500001 8.65000003 14.6500001 8.65000003 14.5L8.65000003 13.8000001 7.40000003 13.8000001C7.25000003 13.8000001 7.15000003 13.7000001 7.15000003 13.5500001 7.15000003 13.4000001 7.25000003 13.3000001 7.40000003 13.3000001L9.30000004 13.3000001C9.75000004 13.3000001 10.15 12.9000001 10.15 12.4500001 10.15 12 9.80000004 11.65 9.30000004 11.65zM16.6 3.25000001L15.9500001 3.25000001 15.9500001 2.75000001C15.9500001 2.40000001 15.6500001 2.10000001 15.3000001 2.10000001 14.9500001 2.10000001 14.6500001 2.40000001 14.6500001 2.75000001L14.6500001 3.25000001 12.6 3.25000001C12.5500001 1.70000001 11.3.450000002 9.70000004.450000002L8.40000004.450000002C6.85000003.450000002 5.55000002 1.70000001 5.50000002 3.25000001L3.45000001 3.25000001 3.45000001 2.75000001C3.45000001 2.40000001 3.15000001 2.10000001 2.80000001 2.10000001 2.45000001 2.10000001 2.15000001 2.40000001 2.15000001 2.75000001L2.15000001 3.25000001 1.40000001 3.25000001C.650000003 3.25000001.1 3.85000002.1 4.55000002L.1 5.95 17.9500001 5.95 17.9500001 4.55000002C17.9000001 3.85000002 17.3000001 3.25000001 16.6 3.25000001z" transform="translate(3 3.5)"/>
    <rect width="24" height="24"/>
  </g>
</svg>
