<svg xmlns="http://www.w3.org/2000/svg" width="24" height="24" viewBox="0 0 24 24">
  <g fill="none" fill-rule="evenodd">
    <rect width="24" height="24"/>
    <g fill-rule="nonzero" transform="translate(2.5 3)">
      <rect width="17.83" height="13.33" x=".585" y="3.535" fill="#CCC" rx="2"/>
      <path fill="#1A1A1A" d="M17.0950001,17.1150001 L1.90500001,17.1150001 C1.03905239,17.1122554 0.337744705,16.4109477 0.335000001,15.5450001 L0.335000001,4.85500002 C0.337744705,3.9890524 1.03905239,3.28774472 1.90500001,3.28500001 L17.0950001,3.28500001 C17.9609477,3.28774472 18.6622554,3.9890524 18.6650001,4.85500002 L18.6650001,15.5450001 C18.6622554,16.4109477 17.9609477,17.1122554 17.0950001,17.1150001 L17.0950001,17.1150001 Z M1.90500001,3.78500002 C1.31405532,3.78500002 0.835000003,4.26405534 0.835000003,4.85500002 L0.835000003,15.5450001 C0.835000003,16.1359447 1.31405532,16.6150001 1.90500001,16.6150001 L17.0950001,16.6150001 C17.6859448,16.6150001 18.1650001,16.1359447 18.1650001,15.5450001 L18.1650001,4.85500002 C18.1650001,4.26405534 17.6859448,3.78500002 17.0950001,3.78500002 L1.90500001,3.78500002 Z"/>
      <path fill="#1A1A1A" d="M6.20000003 3.78000002C6.06192884 3.78000002 5.95000002 3.6680712 5.95000002 3.53000001L5.95000002 3.33000001C5.95000002 1.73389708 7.2438971.440000002 8.84000004.440000002L10.16.440000002C11.756103.440000002 13.0500001 1.73389708 13.0500001 3.33000001 13.0500001 3.4680712 12.9380712 3.58000001 12.8000001 3.58000001 12.6630458 3.57733996 12.5526601 3.46695424 12.5500001 3.33000001 12.5500001 2.6961326 12.2981972 2.08822675 11.8499853 1.6400148 11.4017733 1.19180285 10.7938675.940000002 10.16.940000002L8.84000004.940000002C7.52003948.940000002 6.45000002 2.01003946 6.45000002 3.33000001L6.45000002 3.53000001C6.45000002 3.6680712 6.33807121 3.78000002 6.20000003 3.78000002zM3.88500002 3.68000002C3.74692883 3.68000002 3.63500002 3.5680712 3.63500002 3.43000001L3.63500002 2.77000001C3.63500002 2.54356326 3.45143676 2.36000001 3.22500001 2.36000001 2.99856327 2.36000001 2.81500001 2.54356326 2.81500001 2.77000001L2.81500001 3.43000001C2.81500001 3.5680712 2.7030712 3.68000002 2.56500001 3.68000002 2.42692882 3.68000002 2.31500001 3.5680712 2.31500001 3.43000001L2.31500001 2.77000001C2.31500001 2.26742089 2.72242089 1.86000001 3.22500001 1.86000001 3.72757914 1.86000001 4.13500002 2.26742089 4.13500002 2.77000001L4.13500002 3.43000001C4.13500002 3.49630414 4.10866081 3.55989262 4.06177671 3.60677671 4.01489262 3.65366081 3.95130414 3.68000002 3.88500002 3.68000002zM16.4350001 3.68000002C16.2969289 3.68000002 16.1850001 3.5680712 16.1850001 3.43000001L16.1850001 2.77000001C16.1850001 2.54356326 16.0014368 2.36000001 15.7750001 2.36000001 15.5485633 2.36000001 15.3650001 2.54356326 15.3650001 2.77000001L15.3650001 3.43000001C15.3650001 3.5680712 15.2530713 3.68000002 15.1150001 3.68000002 14.9769289 3.68000002 14.8650001 3.5680712 14.8650001 3.43000001L14.8650001 2.77000001C14.8650001 2.26742089 15.2724209 1.86000001 15.7750001 1.86000001 16.2775792 1.86000001 16.6850001 2.26742089 16.6850001 2.77000001L16.6850001 3.43000001C16.6850001 3.5680712 16.5730713 3.68000002 16.4350001 3.68000002zM18.4150001 6.74000003L.585000002 6.74000003C.446928814 6.74000003.335000001 6.62807122.335000001 6.49000003.335000001 6.35192884.446928814 6.24000003.585000002 6.24000003L18.4150001 6.24000003C18.5530713 6.24000003 18.6650001 6.35192884 18.6650001 6.49000003 18.6650001 6.62807122 18.5530713 6.74000003 18.4150001 6.74000003z"/>
    </g>
    <path fill="#000" fill-rule="nonzero" d="M12.3150001,14.4200001 L11.5,14.4200001 C11.0544456,14.3858527 10.7103357,14.0143611 10.7103357,13.5675001 C10.7103357,13.120639 11.0544456,12.7491474 11.5,12.7150001 L13.4000001,12.7150001 C13.5380712,12.7150001 13.65,12.6030712 13.65,12.4650001 C13.65,12.3269289 13.5380712,12.2150001 13.4000001,12.2150001 L12.15,12.2150001 L12.15,11.535 C12.15,11.3969289 12.0380712,11.285 11.9,11.285 C11.7619289,11.285 11.65,11.3969289 11.65,11.535 L11.65,12.2150001 L11.5,12.2150001 C10.7849266,12.2584979 10.2272725,12.8511048 10.2272725,13.5675001 C10.2272725,14.2838953 10.7849266,14.8765022 11.5,14.9200001 L12.3000001,14.9200001 C12.7455545,14.9541474 13.0896644,15.325639 13.0896644,15.7725001 C13.0896644,16.2193611 12.7455545,16.5908527 12.3000001,16.6250001 L10.4,16.6250001 C10.2619289,16.6250001 10.15,16.7369289 10.15,16.8750001 C10.15,17.0130713 10.2619289,17.1250001 10.4,17.1250001 L11.65,17.1250001 L11.65,17.8050001 C11.65,17.9430713 11.7619289,18.0550001 11.9,18.0550001 C12.0380712,18.0550001 12.15,17.9430713 12.15,17.8050001 L12.15,17.1250001 L12.3000001,17.1250001 C13.0150735,17.0815022 13.5727276,16.4888953 13.5727276,15.7725001 C13.5727276,15.0561048 13.0150735,14.4634979 12.3000001,14.4200001 L12.3150001,14.4200001 Z"/>
  </g>
</svg>
