<svg xmlns="http://www.w3.org/2000/svg" width="24" height="24" viewBox="0 0 24 24">
  <g fill="none" fill-rule="evenodd">
    <g fill="#000" fill-rule="nonzero" transform="translate(2.5 2.5)">
      <path d="M9.25000004 5.95L9.25000004.450000002C4.45.600000002.550000002 4.45.450000002 9.25000004L6.00000002 9.10000004C6.15000003 7.40000003 7.55000003 6.10000003 9.25000004 5.95zM13.0000001 9.10000004L18.4000001 9.10000004C18.4500001 9.10000004 18.5000001 9.10000004 18.5500001 9.15000004 18.3500001 4.35000002 14.5000001.550000002 9.75000004.450000002L9.75000004 6.00000002C11.45 6.10000003 12.8000001 7.40000003 13.0000001 9.10000004zM13.0500001 9.60000004C13.0000001 11.45 11.55 12.9000001 9.75000004 13.05L9.75000004 18.6000001C14.6500001 18.4500001 18.5500001 14.5000001 18.6000001 9.55000004 18.5500001 9.60000004 18.5000001 9.60000004 18.4500001 9.60000004L13.0500001 9.60000004zM5.95000002 9.60000004L.400000002 9.75000004C.550000002 14.5500001 4.4 18.4500001 9.20000004 18.5500001L9.20000004 13.0500001C7.45000003 12.9000001 6.00000002 11.4 5.95000002 9.60000004z"/>
      <circle cx="9.5" cy="9.5" r="3.05"/>
      <path d="M9.50000004,12.5500001 C7.80000003,12.5500001 6.45000003,11.2 6.45000003,9.50000004 C6.45000003,7.80000003 7.80000003,6.45000003 9.50000004,6.45000003 C11.2,6.45000003 12.5500001,7.80000003 12.5500001,9.50000004 C12.5500001,11.2 11.15,12.5500001 9.50000004,12.5500001 Z"/>
    </g>
    <rect width="24" height="24"/>
  </g>
</svg>
