<svg xmlns="http://www.w3.org/2000/svg" width="24" height="24" viewBox="0 0 24 24">
  <g fill="none" fill-rule="evenodd">
    <rect width="24" height="24"/>
    <circle cx="12.1" cy="12.07" r="8.065" fill="#CCC" fill-rule="nonzero"/>
    <path fill="#000" fill-rule="nonzero" d="M12.1000001,20.3850001 C7.50775234,20.3850001 3.78500002,16.6622478 3.78500002,12.0700001 C3.78500002,7.47775234 7.50775234,3.75500002 12.1000001,3.75500002 C16.6922478,3.75500002 20.4150001,7.47775234 20.4150001,12.0700001 C20.4094899,16.6599634 16.6899634,20.3794899 12.1000001,20.3850001 Z M12.1000001,4.25500002 C7.78389471,4.25500002 4.28500002,7.75389471 4.28500002,12.0700001 C4.28500002,16.3861054 7.78389471,19.8850001 12.1000001,19.8850001 C16.4161054,19.8850001 19.9150001,16.3861054 19.9150001,12.0700001 C19.9094907,7.75617882 16.4138213,4.26050937 12.1000001,4.25500002 Z"/>
    <path fill="#000" fill-rule="nonzero" d="M6.08500003 12.41L3.08500001 12.41C2.94692882 12.41 2.83500001 12.2980712 2.83500001 12.1600001 2.83500001 12.0219289 2.94692882 11.91 3.08500001 11.91L6.08500003 11.91C6.22307121 11.91 6.33500001 12.0219289 6.33500001 12.1600001 6.33500001 12.2980712 6.22307121 12.41 6.08500003 12.41zM21.1000001 12.41L18.1000001 12.41C17.9619289 12.41 17.8500001 12.2980712 17.8500001 12.1600001 17.8500001 12.0219289 17.9619289 11.91 18.1000001 11.91L21.1000001 11.91C21.2380713 11.91 21.3500001 12.0219289 21.3500001 12.1600001 21.3500001 12.2980712 21.2380713 12.41 21.1000001 12.41zM12.0850001 6.32000003C11.9469289 6.32000003 11.835 6.20807121 11.835 6.07000003L11.835 3.16000001C11.835 3.02192883 11.9469289 2.91000001 12.0850001 2.91000001 12.2230712 2.91000001 12.335 3.02192883 12.335 3.16000001L12.335 6.07000003C12.335 6.20807121 12.2230712 6.32000003 12.0850001 6.32000003zM12.0850001 21.4100001C11.9469289 21.4100001 11.835 21.2980713 11.835 21.1600001L11.835 18.1600001C11.835 18.0219289 11.9469289 17.9100001 12.0850001 17.9100001 12.2230712 17.9100001 12.335 18.0219289 12.335 18.1600001L12.335 21.1600001C12.335 21.2980713 12.2230712 21.4100001 12.0850001 21.4100001z"/>
    <circle cx="12.1" cy="12.07" r="6" fill="#FFF" fill-rule="nonzero"/>
    <path fill="#000" fill-rule="nonzero" d="M12.1000001,18.32 C8.64822035,18.32 5.85000002,15.5217798 5.85000002,12.0700001 C5.85000002,8.61822035 8.64822035,5.82000002 12.1000001,5.82000002 C15.5517798,5.82000002 18.35,8.61822035 18.35,12.0700001 C18.3444941,15.5194965 15.5494965,18.3144941 12.1000001,18.32 L12.1000001,18.32 Z M12.1000001,6.32000003 C8.92436273,6.32000003 6.35000003,8.89436273 6.35000003,12.0700001 C6.35000003,15.2456374 8.92436273,17.82 12.1000001,17.82 C15.2756374,17.82 17.85,15.2456374 17.85,12.0700001 C17.8472432,8.89550535 15.2744948,6.32275686 12.1000001,6.32000003 Z"/>
    <circle cx="12.1" cy="12.175" r="1.25" fill="#CCC" fill-rule="nonzero"/>
    <path fill="#000" fill-rule="nonzero" d="M12.1,13.675 C11.2715729,13.675 10.6,13.0034272 10.6,12.175 C10.6,11.3465729 11.2715729,10.675 12.1,10.675 C12.9284272,10.675 13.6,11.3465729 13.6,12.175 C13.6,13.0034272 12.9284272,13.675 12.1,13.675 Z M12.1,11.175 C11.5477153,11.175 11.1,11.6227153 11.1,12.175 C11.1,12.7272848 11.5477153,13.175 12.1,13.175 C12.6522848,13.175 13.1,12.7272848 13.1,12.175 C13.1,11.6227153 12.6522848,11.175 12.1,11.175 Z"/>
  </g>
</svg>
