<svg xmlns="http://www.w3.org/2000/svg" width="24" height="24" viewBox="0 0 24 24">
  <g fill="none" fill-rule="evenodd">
    <path fill="#000" fill-rule="nonzero" d="M12,10.5 C11.1715729,10.5 10.5,11.1715729 10.5,12 C10.5,12.8284272 11.1715729,13.5 12,13.5 C12.8284272,13.5 13.5,12.8284272 13.5,12 C13.5,11.1715729 12.8284272,10.5 12,10.5 Z M12,13 C11.4477153,13 11,12.5522848 11,12 C11,11.4477153 11.4477153,11 12,11 C12.5522848,11 13,11.4477153 13,12 C13,12.5522848 12.5522848,13 12,13 Z"/>
    <path fill="#000" fill-rule="nonzero" d="M21.0000001,11.75 L20.3150001,11.75 C20.2260405,7.31688458 16.6722598,3.73449764 12.2400001,3.61000002 L12.2400001,3.00000001 C12.2400001,2.86192882 12.1280712,2.75000001 11.99,2.75000001 C11.8519289,2.75000001 11.74,2.86192882 11.74,3.00000001 L11.74,3.61000002 C7.32252016,3.75524784 3.79063463,7.33106229 3.70000002,11.75 L3.00000001,11.75 C2.86192882,11.75 2.75000001,11.8619289 2.75000001,12.0000001 C2.75000001,12.1380712 2.86192882,12.25 3.00000001,12.25 L3.71000002,12.25 C3.89070175,16.5969138 7.39176124,20.0696334 11.74,20.2150001 L11.74,21.0000001 C11.74,21.1380713 11.8519289,21.25 11.99,21.25 C12.1280712,21.25 12.2400001,21.1380713 12.2400001,21.0000001 L12.2400001,20.2150001 C16.6029115,20.0900067 20.1255842,16.6110125 20.3050001,12.25 L21.0000001,12.25 C21.1380713,12.25 21.25,12.1380712 21.25,12.0000001 C21.25,11.8619289 21.1380713,11.75 21.0000001,11.75 Z M19.8050001,11.75 L18.2500001,11.75 C18.1629103,8.46047744 15.538187,5.80294513 12.2500001,5.67500002 L12.2500001,4.11000002 C16.4022658,4.23937908 19.7265891,7.59666007 19.8150001,11.75 L19.8050001,11.75 Z M12.0000001,17.66 C8.82436273,17.66 6.25000003,15.0856374 6.25000003,11.91 C6.25000003,8.73436272 8.82436273,6.16000003 12.0000001,6.16000003 C15.1756374,6.16000003 17.75,8.73436272 17.75,11.91 C17.7472432,15.0844948 15.1744948,17.6572432 12.0000001,17.66 Z M11.73,4.11000002 L11.73,5.67500002 C8.44395001,5.80778713 5.82195796,8.46255407 5.73000002,11.75 L4.20000002,11.75 C4.29026248,7.60705188 7.59860062,4.25483658 11.74,4.11000002 L11.73,4.11000002 Z M4.21000002,12.2500001 L5.77500002,12.2500001 C5.95402968,15.4562867 8.53194433,18.0061101 11.74,18.1500001 L11.74,19.7150001 C7.66765413,19.5703692 4.38993024,16.3209391 4.21000002,12.2500001 Z M12.2400001,19.7150001 L12.2400001,18.1500001 C15.4636816,18.0282405 18.064082,15.4711801 18.2400001,12.2500001 L19.8050001,12.2500001 C19.626268,16.3349934 16.32701,19.5906393 12.2400001,19.7150001 L12.2400001,19.7150001 Z"/>
    <rect width="24" height="24"/>
  </g>
</svg>
