<svg xmlns="http://www.w3.org/2000/svg" width="24" height="24" viewBox="0 0 24 24">
  <g fill="none" fill-rule="evenodd">
    <rect width="24" height="24"/>
    <path fill="#CCC" fill-rule="nonzero" d="M19.7450001,7.32500003 C22.1446736,11.244872 21.2330086,16.3400836 17.6229991,19.184668 C14.0129896,22.0292524 8.84587211,21.7239479 5.59596215,18.4740379 C2.3460522,15.224128 2.04074766,10.0570105 4.8853321,6.44700101 C7.72991654,2.83699148 12.8251281,1.9253265 16.7450001,4.32500002"/>
    <path fill="#000" fill-rule="nonzero" d="M12.0000001,21.4100001 C8.04627203,21.4085334 4.52227684,18.9164953 3.20326289,15.1892752 C1.88424893,11.4620551 3.05632842,7.3081382 6.12905438,4.82010232 C9.20178034,2.33206643 13.5086364,2.04960066 16.8800001,4.11500002 C16.9364477,4.15006363 16.976613,4.20615781 16.9916238,4.27089163 C17.0066345,4.33562545 16.9952554,4.40367195 16.9600001,4.46000002 C16.8852922,4.57519947 16.7327835,4.6105638 16.6150001,4.54000002 C12.798897,2.20358514 7.83836177,3.0909578 5.06890511,6.60544024 C2.29944845,10.1199227 2.59661721,15.1504327 5.76059232,18.3144078 C8.92456743,21.4783829 13.9550774,21.7755517 17.4695599,19.006095 C20.9840423,16.2366383 21.871415,11.2761031 19.5350001,7.46000003 C19.4997447,7.40367197 19.4883657,7.33562546 19.5033764,7.27089164 C19.5183871,7.20615782 19.5585525,7.15006364 19.6150001,7.11500003 C19.7327835,7.04443625 19.8852922,7.07980058 19.9600001,7.19500003 C21.7232916,10.0765977 21.7930787,13.685775 20.142501,16.6333834 C18.4919232,19.5809918 15.3782831,21.4075394 12.0000001,21.4100001 Z"/>
    <path fill="#FFF" fill-rule="nonzero" d="M16.6500001,8.25500003 C18.6876052,10.7227503 18.4425158,14.3524312 16.0916565,16.5238562 C13.7407972,18.6952812 10.1031083,18.6520174 7.80455714,16.425296 C5.50600598,14.1985745 5.34731085,10.5640913 7.44303027,8.14549956 C9.5387497,5.72690784 13.1588234,5.36674297 15.6900001,7.32500003"/>
    <path fill="#000" fill-rule="nonzero" d="M12,18.3150455 C9.26928137,18.3122432 6.85649111,16.5369938 6.04130033,13.9307904 C5.22610956,11.324587 6.19726954,8.49087636 8.43970636,6.93257304 C10.6821432,5.37426972 13.6766375,5.45218705 15.8350001,7.12500003 C15.9403895,7.21398904 15.9579445,7.3697903 15.8750001,7.48000003 C15.7891366,7.58722708 15.6328425,7.60508925 15.5250001,7.52000003 C14.5254312,6.73912433 13.2934261,6.31496257 12.0250001,6.31499772 C9.33747342,6.31705394 7.0105095,8.18202709 6.42323238,10.8046039 C5.83595527,13.4271807 7.14532266,16.1064424 9.57531042,17.2544681 C12.0052982,18.4024938 14.9064595,17.7124583 16.5593601,15.5933257 C18.2122607,13.474193 18.1751407,10.4923298 16.4700001,8.41500004 C16.4024635,8.34766565 16.379119,8.24777308 16.409819,8.15748122 C16.4405189,8.06718937 16.5199146,8.00222927 16.6144977,7.99001682 C16.7090808,7.97780438 16.8023726,8.0204673 16.8550001,8.10000003 C18.3908588,9.97138055 18.7078456,12.5614088 17.6686248,14.7479465 C16.6294039,16.9344842 14.4209178,18.324202 12,18.3150455 Z"/>
    <path fill="#000" fill-rule="nonzero" d="M12,13.575 C11.1715729,13.575 10.5,12.9034272 10.5,12.075 C10.5,11.2465729 11.1715729,10.575 12,10.575 C12.8284272,10.575 13.5,11.2465729 13.5,12.075 C13.5,12.9034272 12.8284272,13.575 12,13.575 Z M12,11.075 C11.4477153,11.075 11,11.5227153 11,12.075 C11,12.6272848 11.4477153,13.075 12,13.075 C12.5522848,13.075 13,12.6272848 13,12.075 C13,11.5227153 12.5522848,11.075 12,11.075 Z"/>
    <polygon fill="#000" fill-rule="nonzero" points="12.289 9.491 16.379 9.491 16.379 9.991 12.289 9.991" transform="rotate(-45 14.334 9.74)"/>
    <polygon fill="#FFF" fill-rule="nonzero" points="21.69 5.385 18.69 5.385 18.69 2.385 15.78 5.295 15.78 8.295 18.78 8.295"/>
    <path fill="#000" fill-rule="nonzero" d="M18.7800001,8.54500004 L15.7800001,8.54500004 C15.6430458,8.54233998 15.5326601,8.43195426 15.5299743,8.29500003 L15.5299743,5.29500002 C15.529017,5.22720711 15.5561709,5.16203782 15.6050001,5.11500002 L18.5000001,2.20500001 C18.5714949,2.1354335 18.6769895,2.11394385 18.7700001,2.15000001 C18.8650519,2.18903544 18.9265381,2.28225641 18.9250001,2.38500001 L18.9250001,5.13500002 L21.6750001,5.13500002 C21.7751156,5.13330256 21.8661886,5.19269801 21.9050001,5.28500002 C21.9459195,5.37829215 21.9261394,5.48708221 21.8550001,5.56000002 L18.9450001,8.47000004 C18.9000554,8.51292707 18.841895,8.53936363 18.7800001,8.54500004 L18.7800001,8.54500004 Z M16.0300001,8.04500003 L18.6800001,8.04500003 L21.0900001,5.63500002 L18.6900001,5.63500002 C18.5530459,5.63233997 18.4426601,5.52195425 18.4400001,5.38500002 L18.4400001,3.00000001 L16.0300001,5.41000002 L16.0300001,8.04500003 Z"/>
  </g>
</svg>
