<svg xmlns="http://www.w3.org/2000/svg" width="24" height="24" viewBox="0 0 24 24">
  <g fill="none" fill-rule="evenodd">
    <path fill="#000" fill-rule="nonzero" d="M18.2400001,8.70000004 L19.2400001,7.70000003 C19.6265994,7.30235501 19.6176451,6.66659935 19.2200001,6.28000003 C18.8223551,5.8934007 18.1865994,5.902355 17.8000001,6.30000003 L16.8300001,7.27000003 C15.7080329,6.38485482 14.3638131,5.82606077 12.9450001,5.65500002 L12.9450001,4.42500002 L13.0000001,4.42500002 C13.3219861,4.4496049 13.6306183,4.29175963 13.7991374,4.01629331 C13.9676566,3.740827 13.9676566,3.39417303 13.7991374,3.11870672 C13.6306183,2.8432404 13.3219861,2.68539513 13.0000001,2.71000001 L11.07,2.71000001 C10.748014,2.68539513 10.4393818,2.8432404 10.2708627,3.11870672 C10.1023435,3.39417303 10.1023435,3.740827 10.2708627,4.01629331 C10.4393818,4.29175963 10.748014,4.4496049 11.07,4.42500002 L11.105,4.42500002 L11.105,5.65000002 C9.66766891,5.81147505 8.30440624,6.37271661 7.17000003,7.27000003 L6.17000003,6.27000003 C5.77787785,5.87787786 5.1421222,5.87787787 4.75000003,6.27000004 C4.35787786,6.66212221 4.35787786,7.29787786 4.75000002,7.69000003 L5.75000002,8.69000004 C3.29289214,11.9232159 3.70732644,16.4967172 6.70560319,19.2355856 C9.70387994,21.974454 14.2961202,21.974454 17.2943969,19.2355856 C20.2926737,16.4967172 20.707108,11.9232159 18.2500001,8.69000004 L18.2400001,8.70000004 Z M18.1550001,6.65500003 C18.3510612,6.45893895 18.668939,6.45893896 18.8650001,6.65500004 C19.0610611,6.85106112 19.0610612,7.16893894 18.8650001,7.36500003 L17.9700001,8.25500003 L17.2600001,7.54500003 L18.1550001,6.65500003 Z M10.71,3.56500001 C10.71,3.46997542 10.7480779,3.3789137 10.8157386,3.31219267 C10.8833994,3.24547164 10.9749849,3.20866164 11.07,3.21000001 L13.0000001,3.21000001 C13.1378176,3.1936729 13.2727477,3.25801915 13.3468077,3.37538765 C13.4208677,3.49275616 13.4208677,3.64224387 13.3468077,3.75961238 C13.2727477,3.87698088 13.1378176,3.94132713 13.0000001,3.92500002 L11.07,3.92500002 C10.9745221,3.92500002 10.8829547,3.88707155 10.8154416,3.81955846 C10.7479285,3.75204536 10.71,3.66047795 10.71,3.56500001 L10.71,3.56500001 Z M11.605,5.59500002 L11.605,4.42500002 L12.4450001,4.42500002 L12.4450001,5.59500002 L11.605,5.59500002 Z M5.10500002,6.64500003 C5.2089303,6.54092084 5.35341511,6.48788211 5.50000002,6.50000003 C5.63362297,6.50055474 5.76146431,6.5545722 5.85500002,6.65000003 L6.75000003,7.54000003 L6.00000003,8.24500003 L5.11000002,7.35500003 C5.01729914,7.25913115 4.9667372,7.13020243 4.96955399,6.99687441 C4.97237077,6.86354639 5.02833287,6.73686817 5.12500002,6.64500003 L5.10500002,6.64500003 Z M12.0000001,20.7900001 C9.02674768,20.7900001 6.34635518,18.9986879 5.20900841,16.2515672 C4.07166165,13.5044466 4.70141342,10.3426886 6.80453556,8.24099713 C8.9076577,6.13930568 12.0698435,5.51170565 14.8161896,6.65092157 C17.5625356,7.7901375 19.3520227,10.4717484 19.3500018,13.4450001 C19.3417394,17.5000563 16.055061,20.7844989 12.0000001,20.7900001 Z"/>
    <path fill="#000" fill-rule="nonzero" d="M12.0000001,7.02499807 C9.40289838,7.02297736 7.06039931,8.58587709 6.06512969,10.9847059 C5.06986007,13.3835347 5.61789316,16.1457108 7.45360638,17.9828549 C9.28931961,19.8199989 12.051068,20.3701839 14.4506715,19.3767835 C16.8502749,18.3833832 18.4150001,16.0421025 18.4150001,13.4450001 C18.4122475,9.90242425 15.5425726,7.0305127 12.0000001,7.02499807 Z M12,19.3600022 C9.60467474,19.3620223 7.4441778,17.9204023 6.5265921,15.7077966 C5.60900639,13.4951909 6.11517863,10.9476814 7.80893,9.25393 C9.50268137,7.56017863 12.0501909,7.0540064 14.2627966,7.9715921 C16.4754023,8.8891778 17.9170223,11.0496747 17.9150022,13.4450001 C17.909495,16.7094814 15.2644814,19.354495 12,19.3600022 Z"/>
    <path fill="#000" fill-rule="nonzero" d="M15.76,13.5750001 L12.26,13.5750001 L12.26,10 C12.26,9.86192885 12.1480712,9.75000004 12.0100001,9.75000004 C11.8719289,9.75000004 11.76,9.86192885 11.76,10 L11.76,13.8100001 C11.76,13.9480712 11.8719289,14.0600001 12.0100001,14.0600001 L15.7700001,14.0600001 C15.9080713,14.0600001 16.0200001,13.9480712 16.0200001,13.8100001 C16.0119364,13.6738633 15.8962565,13.5693064 15.76,13.5750001 L15.76,13.5750001 Z"/>
    <rect width="24" height="24"/>
  </g>
</svg>
