<svg xmlns="http://www.w3.org/2000/svg" width="24" height="24" viewBox="0 0 24 24">
  <g fill="none" fill-rule="evenodd">
    <g fill="#000" fill-rule="nonzero" transform="translate(4 2.5)">
      <path d="M14.2500001,6.2 L15.2500001,5.2 C15.6500001,4.80000002 15.6500001,4.15000002 15.2500001,3.80000002 C14.8500001,3.45000001 14.2,3.40000001 13.8500001,3.80000002 L12.9000001,4.75000002 C11.8,3.90000002 10.45,3.30000001 9.00000004,3.15000001 L9.00000004,1.95000001 L9.00000004,1.95000001 C9.45000004,1.95000001 9.85000004,1.55000001 9.85000004,1.1 C9.85000004,0.650000003 9.45000004,0.200000001 9.00000004,0.200000001 L7.10000003,0.200000001 C6.65000003,0.200000001 6.25000003,0.600000002 6.25000003,1.05 C6.25000003,1.50000001 6.65000003,1.90000001 7.10000003,1.90000001 L7.15000003,1.90000001 L7.15000003,3.10000001 C5.7,3.25000001 4.35000002,3.85000002 3.2,4.7 L2.2,3.7 C1.80000001,3.30000001 1.15,3.30000001 0.800000003,3.7 C0.400000002,4.10000002 0.400000002,4.75000002 0.800000003,5.10000002 L1.80000001,6.10000003 C0.800000003,7.40000003 0.200000001,9.05000004 0.200000001,10.85 C0.200000001,15.2 3.7,18.7 8.05000003,18.7 C12.4000001,18.7 15.9000001,15.2 15.9000001,10.85 C15.8500001,9.15000004 15.2500001,7.50000003 14.2500001,6.2 Z M8.00000003,17.3500001 C4.45000002,17.3500001 1.60000001,14.4500001 1.60000001,10.95 C1.60000001,7.45000003 4.45000002,4.55000002 8.00000003,4.55000002 C11.55,4.55000002 14.4000001,7.45000003 14.4000001,10.95 C14.4000001,14.4500001 11.55,17.3500001 8.00000003,17.3500001 Z"/>
      <path d="M11.75,11.8 L8.00000003,11.8 C7.70000003,11.8 7.50000003,11.6 7.50000003,11.3 L7.50000003,7.50000003 C7.50000003,7.20000003 7.70000003,7.00000003 8.00000003,7.00000003 C8.30000003,7.00000003 8.50000003,7.20000003 8.50000003,7.50000003 L8.50000003,10.8 L11.75,10.8 C12.0500001,10.8 12.2500001,11 12.2500001,11.3 C12.2500001,11.6 12.0500001,11.8 11.75,11.8 Z"/>
    </g>
    <rect width="24" height="24"/>
  </g>
</svg>
