<svg xmlns="http://www.w3.org/2000/svg" width="24" height="24" viewBox="0 0 24 24">
  <g fill="none" fill-rule="evenodd">
    <rect width="24" height="24"/>
    <path fill="#CCC" fill-rule="nonzero" d="M16.675,21 L7.585,21 C6.75657288,21 6.085,20.3284271 6.085,19.5 L6.085,7.605 L18.175,7.605 L18.175,19.5 C18.175,20.3284271 17.5034271,21 16.675,21 Z"/>
    <path fill="#000" fill-rule="nonzero" d="M16.675,21.25 L7.585,21.25 C6.62189807,21.2418492 5.84315081,20.4631019 5.835,19.5 L5.835,7.605 C5.835,7.46692881 5.94692881,7.355 6.085,7.355 L18.175,7.355 C18.3130712,7.355 18.425,7.46692881 18.425,7.605 L18.425,19.5 C18.4168492,20.4631019 17.6381019,21.2418492 16.675,21.25 Z M6.33495995,7.855 L6.33495995,19.5 C6.33233728,19.8341759 6.46253994,20.1557215 6.69696267,20.393895 C6.93138541,20.6320685 7.25082391,20.7673583 7.585,20.77 L16.675,20.77 C17.0091761,20.7673583 17.3286146,20.6320685 17.5630373,20.393895 C17.7974601,20.1557215 17.9276627,19.8341759 17.9250401,19.5 L17.9250401,7.855 L6.33495995,7.855 Z"/>
    <path fill="#000" fill-rule="nonzero" d="M19.61,7.85500041 L4.61,7.85500041 C4.47192881,7.85500041 4.35998381,7.74307119 4.35998381,7.605 C4.35734396,6.78328942 4.68156417,5.99425125 5.26119575,5.41180592 C5.84082734,4.82936059 6.62828619,4.5013232 7.45,4.5 L16.765,4.5 C18.4712334,4.50274312 19.8544982,5.88377324 19.86,7.59 C19.8641393,7.6588626 19.8396391,7.72637489 19.7922988,7.77655551 C19.7449586,7.82673614 19.6789868,7.8551243 19.61,7.85500041 Z M4.87,7.355 L19.345,7.355 C19.2211903,6.02202872 18.1037073,5.00200067 16.765,5 L7.45,5 C6.11129268,5.00200067 4.99380972,6.02202872 4.87,7.355 Z"/>
    <path fill="#000" fill-rule="nonzero" d="M14.525 5L9.69 5C9.55192881 5 9.44 4.88807119 9.44 4.75 9.44527841 4.20895013 9.66528524 3.6921601 10.0516159 3.31333103 10.4379465 2.93450197 10.9589506 2.72466959 11.5 2.73L12.76 2.73C13.8838995 2.73 14.795 3.64110053 14.795 4.765 14.7911815 4.83227952 14.7603637 4.89516829 14.7095328 4.93941003 14.6587019 4.98365176 14.592163 5.0054993 14.525 5zM9.96 4.5L14.255 4.5C14.1335659 3.7641423 13.5007768 3.22205298 12.755 3.215L11.5 3.215C10.7398654 3.20451795 10.0858061 3.75027519 9.96 4.5zM9.085 17.85C8.94692881 17.85 8.835 17.7380712 8.835 17.6L8.835 10.18C8.835 10.0419288 8.94692881 9.93 9.085 9.93 9.22307119 9.93 9.335 10.0419288 9.335 10.18L9.335 17.6C9.335 17.7380712 9.22307119 17.85 9.085 17.85zM12.085 17.85C11.9469288 17.85 11.835 17.7380712 11.835 17.6L11.835 10.18C11.835 10.0419288 11.9469288 9.93 12.085 9.93 12.2230712 9.93 12.335 10.0419288 12.335 10.18L12.335 17.6C12.335 17.7380712 12.2230712 17.85 12.085 17.85zM15.085 17.85C14.9469288 17.85 14.835 17.7380712 14.835 17.6L14.835 10.18C14.835 10.0419288 14.9469288 9.93 15.085 9.93 15.2230712 9.93 15.335 10.0419288 15.335 10.18L15.335 17.6C15.335 17.7380712 15.2230712 17.85 15.085 17.85z"/>
  </g>
</svg>
