<svg xmlns="http://www.w3.org/2000/svg" width="24" height="24" viewBox="0 0 24 24">
  <g fill="none" fill-rule="evenodd">
    <path fill="#000" fill-rule="nonzero" d="M16.8000001,10.35 L16.8000001,7.65000003 C16.8000001,5.00000002 14.6500001,2.85000001 12.0000001,2.85000001 C9.35000004,2.85000001 7.20000002,5.00000002 7.20000002,7.65000003 C7.20000002,7.80000003 7.30000003,7.90000003 7.45000003,7.90000003 C7.60000003,7.90000003 7.70000002,7.80000003 7.70000002,7.65000003 C7.70000002,5.30000002 9.60000004,3.35000001 12.0000001,3.35000001 C14.3500001,3.35000001 16.3000001,5.25000002 16.3000001,7.65000003 L16.3000001,10.35 L5.70000002,10.35 L5.70000002,17.6500001 C5.70000002,19.6000001 7.25000003,21.1500001 9.20000002,21.1500001 L14.7500001,21.1500001 C16.7,21.1500001 18.2500001,19.6000001 18.2500001,17.6500001 L18.2500001,10.35 L16.8000001,10.35 Z M12.2500001,15.9500001 C12.2500001,15.9500001 12.2500001,15.9500001 12.2500001,15.9500001 L12.2500001,18.1500001 C12.2500001,18.3000001 12.1500001,18.4000001 12.0000001,18.4000001 C11.85,18.4000001 11.75,18.3000001 11.75,18.1500001 L11.75,16.0000001 C11.75,16.0000001 11.75,16.0000001 11.75,16.0000001 C11.15,15.9000001 10.7,15.3500001 10.7,14.7500001 C10.7,14.0500001 11.3,13.4500001 12.0000001,13.4500001 C12.7,13.4500001 13.3000001,14.0500001 13.3000001,14.7500001 C13.3000001,15.3000001 12.8500001,15.8000001 12.2500001,15.9500001 Z"/>
    <rect width="24" height="24"/>
  </g>
</svg>
