<svg xmlns="http://www.w3.org/2000/svg" width="24" height="24" viewBox="0 0 24 24">
  <g fill="none" fill-rule="evenodd">
    <rect width="24" height="24"/>
    <g transform="translate(3 4)">
      <path d="M15.8 5.00000002L15.8 3.00000001C15.8 1.80000001 14.8500001.850000004 13.6500001.850000004L2.20000001.850000004C1.45000001.850000004.800000003 1.45000001.800000003 2.25000001.800000003 3.05000001 1.40000001 3.65000002 2.20000001 3.65000002L13.2500001 3.65000002C14.3 3.60000001 15.2500001 4.15000002 15.8 5.00000002zM16.6000001 11.5C16.9000001 11.5 17.1500001 11.25 17.1500001 10.95L17.1500001 8.55000004C17.1500001 8.25000003 16.9000001 8.00000003 16.6000001 8.00000003L16.3000001 8.00000003 16.3000001 11.5 16.6000001 11.5z"/>
      <path fill="#000" fill-rule="nonzero" d="M11.95 9.75000004C11.95 8.50000004 12.9500001 7.50000003 14.2000001 7.50000003L16.3 7.50000003 16.3 6.95000003 16.3 6.70000003 16.3 3.00000001C16.3 1.55000001 15.1000001.350000001 13.6500001.350000001L2.20000001.350000001C1.15.350000001.300000001 1.2.300000001 2.25000001L.300000001 12.6000001C.300000001 14.3000001 1.70000001 15.7000001 3.40000001 15.7000001L13.2500001 15.7000001C14.9500001 15.7000001 16.3 14.35 16.3 12.6500001L16.3 12 14.2000001 12C12.9500001 12 11.95 11 11.95 9.75000004zM.800000003 2.20000001C.800000003 1.40000001 1.40000001.800000003 2.20000001.800000003L13.6500001.800000003C14.8500001.800000003 15.8 1.75000001 15.8 2.95000001L15.8 4.95000002C15.2500001 4.10000002 14.3 3.55000001 13.2500001 3.55000001L2.20000001 3.55000001C1.45000001 3.55000001.800000003 3.00000001.800000003 2.20000001zM16.6000001 7.50000003L16.3000001 7.50000003 16.3000001 8.00000003 16.6000001 8.00000003C16.9000001 8.00000003 17.1500001 8.25000003 17.1500001 8.55000004L17.1500001 10.95C17.1500001 11.25 16.9000001 11.5 16.6000001 11.5L16.3000001 11.5 16.3000001 12 16.6000001 12C17.2000001 12 17.6500001 11.5 17.6500001 10.95L17.6500001 8.55000004C17.7000001 7.95000003 17.2000001 7.50000003 16.6000001 7.50000003z"/>
      <path fill="#000" fill-rule="nonzero" d="M14.2000001,11.5 C13.2000001,11.5 12.45,10.7 12.45,9.75000004 C12.45,8.80000004 13.2500001,8.00000003 14.2000001,8.00000003 L16.3000001,8.00000003 L16.3000001,7.50000003 L14.2000001,7.50000003 C12.95,7.50000003 11.95,8.50000003 11.95,9.75000004 C11.95,11 12.95,12 14.2000001,12 L16.3000001,12 L16.3000001,11.5 L14.2000001,11.5 Z"/>
      <path fill="#000" fill-rule="nonzero" d="M14.6000001,10.6 C14.1000001,10.6 13.7500001,10.2 13.7500001,9.75000004 C13.7500001,9.30000004 14.1500001,8.90000004 14.6000001,8.90000004 C15.0500001,8.90000004 15.4500001,9.30000004 15.4500001,9.75000004 C15.4500001,10.2 15.1000001,10.6 14.6000001,10.6 Z"/>
    </g>
  </g>
</svg>
