<svg xmlns="http://www.w3.org/2000/svg" width="24" height="24" viewBox="0 0 24 24">
  <g fill="none" fill-rule="evenodd">
    <path fill="#000" fill-rule="nonzero" d="M19.6200001,11.5 L19.3000001,11.5 L19.3000001,7.00000003 C19.3000001,5.53644544 18.1135547,4.35000002 16.6500001,4.35000002 L5.18000002,4.35000002 C4.2086901,4.35185196 3.40050804,5.09703058 3.32000001,6.06500003 C3.31474627,6.09140793 3.31474627,6.11859213 3.32000001,6.14500003 L3.32000001,16.5800001 C3.32275287,18.2771341 4.69786599,19.6522472 6.39500003,19.6550001 L16.2500001,19.6550001 C17.933327,19.6522473 19.2972473,18.288327 19.3000001,16.6050001 L19.3000001,16.0000001 L19.6200001,16.0000001 C20.2137062,16.0000001 20.6950001,15.5187062 20.6950001,14.9250001 L20.6950001,12.5500001 C20.6814169,11.9660795 20.2040785,11.4998421 19.6200001,11.5 L19.6200001,11.5 Z M16.6500001,4.84500002 C17.8382206,4.84775692 18.8000001,5.81177628 18.8000001,7.00000003 L18.8000001,9.00000004 C18.2369737,8.13955506 17.278282,7.62073367 16.2500001,7.62000003 L5.18000002,7.62000003 C4.42060849,7.62000003 3.80500002,7.00439156 3.80500002,6.24500003 C3.80500002,5.48560849 4.42060849,4.84500002 5.18000002,4.84500002 L16.6500001,4.84500002 Z M18.8000001,16.6050001 C18.8000001,17.2813021 18.5313401,17.9299046 18.0531224,18.4081224 C17.5749046,18.8863401 16.9263021,19.1550001 16.2500001,19.1550001 L6.38000003,19.1550001 C4.95900794,19.1522489 3.80775122,18.0009922 3.80500002,16.5800001 L3.80500002,7.50000003 C4.15774076,7.88683875 4.6564863,8.10810041 5.18000002,8.11000003 L16.2500001,8.11000003 C17.6571851,8.11275114 18.797249,9.25281505 18.8000001,10.66 L18.8000001,11.5 L17.2000001,11.5 C15.9890583,11.5568794 15.0365071,12.5552232 15.0365071,13.7675001 C15.0365071,14.9797769 15.9890583,15.9781208 17.2000001,16.0350001 L18.8000001,16.0350001 L18.8000001,16.6050001 Z M20.1950001,14.9350001 C20.1936798,15.0861753 20.1323565,15.2306336 20.0245218,15.3365929 C19.9166871,15.4425522 19.7711752,15.501332 19.6200001,15.5000222 L17.2000001,15.5000222 C16.2603288,15.4500041 15.5240413,14.6735004 15.5240413,13.7325001 C15.5240413,12.7914997 16.2603288,12.014996 17.2000001,11.965 L19.6200001,11.965 C19.9375638,11.965 20.1950001,12.2224363 20.1950001,12.5400001 L20.1950001,14.9350001 Z"/>
    <path fill="#000" fill-rule="nonzero" d="M17.6300001,12.8549857 C17.2751937,12.8529783 16.954291,13.0654206 16.817577,13.3928361 C16.6808629,13.7202515 16.7554058,14.0978142 17.0062958,14.3487043 C17.2571859,14.5995943 17.6347486,14.6741373 17.9621641,14.5374232 C18.2895795,14.4007091 18.5020218,14.0798064 18.5000144,13.7250001 C18.4972687,13.2456483 18.1093519,12.8577315 17.6300001,12.8549857 L17.6300001,12.8549857 Z M17.6300001,14.1000001 C17.424019,14.0973072 17.257693,13.9309811 17.2550001,13.7250001 C17.2550001,13.5178933 17.4228933,13.3500001 17.6300001,13.3500001 C17.8371069,13.3500001 18.0050001,13.5178933 18.0050001,13.7250001 C18.0023072,13.9309811 17.8359811,14.0973072 17.6300001,14.1000001 L17.6300001,14.1000001 Z"/>
    <rect width="24" height="24"/>
  </g>
</svg>
