<svg xmlns="http://www.w3.org/2000/svg" width="24" height="24" viewBox="0 0 24 24">
  <g fill="none" fill-rule="evenodd">
    <g fill="#000" fill-rule="nonzero" transform="translate(5 2.5)">
      <path d="M13.1000001,9.55000004 C13.6000001,9.55000004 14,9.15000004 14,8.65000004 L14,7.15000003 C14,6.65000003 13.6000001,6.25 13.1000001,6.25 L12.4500001,6.25 L12.4500001,5.85000002 C12.4500001,5.65000002 12.4000001,5.45000002 12.2500001,5.30000002 C12.2500001,5.30000002 12.2500001,5.30000002 12.2500001,5.30000002 L12.2500001,5.30000002 C12.2000001,5.25 12.1500001,5.20000002 12.1000001,5.15000002 L11,3.95000002 C10.1,3.05000001 9.65000004,1.90000001 9.65000004,0.650000003 L9.65000004,0.500000002 C9.65000004,0.350000001 9.55000004,0.250000001 9.40000004,0.250000001 L3.30000001,0.250000001 C3.15000001,0.250000001 3.05000001,0.350000001 3.05000001,0.500000002 C3.05000001,1.80000001 2.5,3.05000001 1.55000001,3.95000002 L0.400000002,5.00000002 C0.150000001,5.15000002 0,5.45000002 0,5.75 L0,13.1500001 C0,13.4500001 0.150000001,13.75 0.400000002,13.9000001 L1.55000001,15.0000001 C2.5,15.9000001 3.05000001,17.1500001 3.05000001,18.4500001 C3.05000001,18.6000001 3.15000001,18.7000001 3.30000001,18.7000001 L9.40000004,18.7000001 C9.55000004,18.7000001 9.65000004,18.6000001 9.65000004,18.4500001 L9.65000004,18.3500001 C9.65000004,17.1000001 10.15,15.9000001 11,15.0500001 L12.1500001,13.9000001 C12.2000001,13.8500001 12.2500001,13.8000001 12.3000001,13.75 L12.3000001,13.75 C12.3000001,13.75 12.3000001,13.75 12.3000001,13.75 C12.4000001,13.6000001 12.5,13.4000001 12.5,13.2000001 L12.5,13.1000001 L13.1500001,13.1000001 C13.6500001,13.1000001 14.0500001,12.7000001 14.0500001,12.2000001 L14.0500001,11.65 C14.0500001,11.15 13.6500001,10.75 13.1500001,10.75 L12.5,10.75 L12.5,9.55000004 L13.1000001,9.55000004 Z M8.10000002,16.4500001 L4.35000002,16.4500001 C4.20000002,16.4500001 4.10000002,16.3500001 4.10000002,16.2000001 C4.10000002,16.0500001 4.20000002,15.9500001 4.35000002,15.9500001 L8.10000002,15.9500001 C8.25000003,15.9500001 8.35000003,16.0500001 8.35000003,16.2000001 C8.35000003,16.3500001 8.25000003,16.4500001 8.10000002,16.4500001 Z M4.45000002,7.80000003 C4.30000002,7.80000003 4.20000002,7.70000003 4.20000002,7.55000003 C4.20000002,7.40000003 4.30000002,7.30000003 4.45000002,7.30000003 L5.05000002,7.30000003 L5.30000002,7.30000003 L5.40000002,7.30000003 L5.40000002,6.70000003 C5.40000002,6.55000003 5.50000002,6.45000003 5.65000002,6.45000003 C5.80000002,6.45000003 5.90000002,6.55000003 5.90000002,6.70000003 L5.90000002,7.30000003 L6.65000003,7.30000003 L6.65000003,6.70000003 C6.65000003,6.55000003 6.75000003,6.45000003 6.90000003,6.45000003 C7.05000003,6.45000003 7.15000003,6.55000003 7.15000003,6.70000003 L7.15000003,7.30000003 C7.80000003,7.35000003 8.25000003,7.85000003 8.25000003,8.50000004 C8.25000003,8.90000004 8.05000003,9.25000004 7.75000003,9.45000003 C8.05000003,9.65000004 8.25000003,10 8.25000003,10.4 C8.25000003,11.05 7.75000003,11.55 7.15000003,11.6 L7.15000003,12.2000001 C7.15000003,12.3500001 7.05000003,12.45 6.90000003,12.45 C6.75000003,12.45 6.65000003,12.3500001 6.65000003,12.2000001 L6.65000003,11.6 L5.90000002,11.6 L5.90000002,12.2000001 C5.90000002,12.3500001 5.80000002,12.45 5.65000002,12.45 C5.50000002,12.45 5.40000002,12.3500001 5.40000002,12.2000001 L5.40000002,11.6 L5.30000002,11.6 L5.05000002,11.6 L4.45000002,11.6 C4.30000002,11.6 4.20000002,11.5 4.20000002,11.35 C4.20000002,11.2 4.30000002,11.1 4.45000002,11.1 L4.80000002,11.1 L4.80000002,9.50000004 L4.80000002,7.80000003 L4.45000002,7.80000003 Z M8.10000002,3.05000001 L4.35000002,3.05000001 C4.20000002,3.05000001 4.10000002,2.95000001 4.10000002,2.80000001 C4.10000002,2.65000001 4.20000002,2.55000001 4.35000002,2.55000001 L8.10000002,2.55000001 C8.25000003,2.55000001 8.35000003,2.65000001 8.35000003,2.80000001 C8.35000003,2.95000001 8.25000003,3.05000001 8.10000002,3.05000001 Z"/>
      <path d="M7.75000003 8.55000004C7.75000003 8.15000003 7.45000003 7.85000003 7.05000003 7.85000003L5.35000002 7.85000003 5.35000002 9.30000004 7.00000003 9.30000004C7.40000003 9.25000004 7.75000003 8.95000004 7.75000003 8.55000004zM7.75000003 10.45C7.75000003 10.05 7.45000003 9.75000004 7.05000003 9.75000004L5.35000002 9.75000004 5.35000002 11.2 7.00000003 11.2C7.40000003 11.2 7.75000003 10.85 7.75000003 10.45z"/>
    </g>
    <rect width="24" height="24"/>
  </g>
</svg>
