<svg xmlns="http://www.w3.org/2000/svg" width="24" height="24" viewBox="0 0 24 24">
  <g fill="none" fill-rule="evenodd">
    <path fill="#000" fill-rule="nonzero" d="M18.1200001,12.0550001 C18.6253406,12.0550001 19.0350001,11.6453406 19.0350001,11.14 L19.0350001,9.64000004 C19.0350001,9.13465949 18.6253406,8.72500004 18.1200001,8.72500004 L17.4650001,8.72500004 L17.4650001,8.31000003 C17.4639653,8.10686263 17.395361,7.9098453 17.2700001,7.75000001 L17.2700001,7.75000001 C17.2251167,7.6951326 17.1748675,7.6448834 17.1200001,7.60000003 L16.0000001,6.44000003 C15.1180809,5.56083618 14.6247274,4.36526409 14.6300001,3.12000001 L14.6300001,3.00000001 C14.6300001,2.86192882 14.5180712,2.75000001 14.3800001,2.75000001 L8.27500003,2.75000001 C8.13692885,2.75000001 8.02500003,2.86192882 8.02500003,3.00000001 C8.02174857,4.30321015 7.47868477,5.54682625 6.52500003,6.43500003 L5.36500002,7.52500003 C5.10839083,7.69483411 4.95433472,7.98228027 4.95500002,8.29000003 L4.95500002,15.7100001 C4.94792889,16.0284925 5.10702085,16.3277369 5.37500002,16.5000001 L6.53500003,17.5900001 C7.48868477,18.4781738 8.03174857,19.7217899 8.03500003,21.0250001 C8.03500003,21.1630713 8.14692885,21.2750001 8.28500003,21.2750001 L14.3700001,21.2750001 C14.5080712,21.2750001 14.6200001,21.1630713 14.6200001,21.0250001 L14.6200001,20.9050001 C14.6106503,19.6496332 15.1082085,18.4435956 16.0000001,17.5600001 L17.1250001,16.4250001 C17.1798675,16.3801167 17.2301167,16.3298675 17.2750001,16.2750001 L17.2750001,16.2750001 C17.400332,16.1170651 17.4690019,15.9216199 17.4700001,15.7200001 L17.4700001,15.6400001 L18.1250001,15.6400001 C18.6311483,15.6372492 19.0400001,15.2261558 19.0400001,14.7200001 L19.0400001,14.1500001 C19.0400001,13.907327 18.9435986,13.6745931 18.7720028,13.5029974 C18.600407,13.3314016 18.3676732,13.2350001 18.1250001,13.2350001 L17.4650001,13.2350001 L17.4650001,12.0550001 L18.1200001,12.0550001 Z M18.1200001,9.20500004 C18.3491982,9.20500004 18.5350001,9.39080187 18.5350001,9.62000004 L18.5350001,11.12 C18.5350001,11.3491982 18.3491982,11.535 18.1200001,11.535 L17.4650001,11.535 L17.4650001,9.18500004 L18.1200001,9.20500004 Z M16.8000001,16.0350001 C16.7273471,16.0931226 16.6379724,16.126419 16.5450001,16.1300001 L5.88000002,16.1300001 C5.79959625,16.1258147 5.72183426,16.0998941 5.65500002,16.0550001 L5.55000002,15.9550001 C5.496223,15.8845099 5.46643481,15.7986498 5.46500002,15.7100001 L5.46500002,8.29000003 C5.46643481,8.20135031 5.496223,8.11549021 5.55000002,8.04500003 L5.65500002,7.94500003 C5.72183426,7.90010605 5.79959625,7.87418538 5.88000002,7.87000003 L16.5450001,7.87000003 C16.6379724,7.87358109 16.7273471,7.90687753 16.8000001,7.96500003 L16.8700001,8.04000003 C16.9290615,8.11017211 16.9625553,8.19831362 16.965,8.29000003 L16.965,15.7100001 C16.9625553,15.8016865 16.9290615,15.889828 16.8700001,15.9600001 L16.8000001,16.0350001 Z M6.88000003,6.80000003 C7.85775922,5.86997332 8.43820228,4.59801476 8.50000004,3.25000001 L14.1000001,3.25000001 C14.1245467,4.58080078 14.6619023,5.85075118 15.6000001,6.79500003 L16.1750001,7.37000003 L6.27000003,7.37000003 L6.88000003,6.80000003 Z M15.6350001,17.2050001 C14.6960255,18.14866 14.1585135,19.41898 14.1350001,20.7500001 L8.50000004,20.7500001 C8.43293572,19.3991219 7.84513768,18.1267542 6.86000003,17.2000001 L6.25000003,16.6300001 L16.2100001,16.6300001 L15.6350001,17.2050001 Z M18.1350001,13.7350001 C18.3641982,13.7350001 18.5500001,13.9208019 18.5500001,14.1500001 L18.5500001,14.7100001 C18.5500164,14.940021 18.3650047,15.1272617 18.1350001,15.1300001 L17.4650001,15.1300001 L17.4650001,13.7350001 L18.1350001,13.7350001 Z"/>
    <path fill="#000" fill-rule="nonzero" d="M9.33500004 5.56000002L13.0900001 5.56000002C13.2280712 5.56000002 13.3400001 5.44807121 13.3400001 5.31000002 13.3400001 5.17192883 13.2280712 5.06000002 13.0900001 5.06000002L9.33500004 5.06000002C9.19692885 5.06000002 9.08500004 5.17192883 9.08500004 5.31000002 9.08500004 5.44807121 9.19692885 5.56000002 9.33500004 5.56000002zM13.0900001 18.4400001L9.33500004 18.4400001C9.19692885 18.4400001 9.08500004 18.5519289 9.08500004 18.6900001 9.08766009 18.8269543 9.19804581 18.93734 9.33500004 18.9400001L13.0900001 18.9400001C13.2269543 18.93734 13.33734 18.8269543 13.3400001 18.6900001 13.3400001 18.5519289 13.2280712 18.4400001 13.0900001 18.4400001zM13.2250047 11.03C13.226751 10.3926056 12.7356459 9.86221221 12.1000001 9.81500004L12.1000001 9.22000004C12.1000001 9.08192885 11.9880712 8.97000004 11.85 8.97000004 11.7119289 8.97000004 11.6 9.08192885 11.6 9.22000004L11.6 9.80500004 10.87 9.80500004 10.87 9.22000004C10.86734 9.08304581 10.7569543 8.97266009 10.62 8.97000004 10.4819289 8.97000004 10.37 9.08192885 10.37 9.22000004L10.37 9.80500004 9.45000004 9.80500004C9.31192885 9.80500004 9.20000004 9.91692885 9.20000004 10.055 9.20000004 10.1930712 9.31192885 10.305 9.45000004 10.305L9.79500004 10.305 9.79500004 13.6950001 9.45000004 13.6950001C9.31192885 13.6950001 9.20000004 13.8069289 9.20000004 13.9450001 9.20000004 14.0830712 9.31192885 14.1950001 9.45000004 14.1950001L10.37 14.1950001 10.37 14.7800001C10.37 14.9180712 10.4819289 15.0300001 10.62 15.0300001 10.7569543 15.02734 10.86734 14.9169543 10.87 14.7800001L10.87 14.1950001 11.6 14.1950001 11.6 14.7800001C11.6 14.9180712 11.7119289 15.0300001 11.85 15.0300001 11.9880712 15.0300001 12.1000001 14.9180712 12.1000001 14.7800001L12.1000001 14.1850001C12.6050748 14.1466412 13.0333599 13.7989661 13.1747179 13.3125611 13.3160759 12.8261561 13.1408442 12.3030882 12.7350001 12.0000001 13.0412739 11.7712844 13.2226457 11.4122421 13.2250047 11.03zM12.7250001 12.9700001C12.7250001 13.162282 12.6486163 13.3466886 12.5126525 13.4826525 12.3766886 13.6186163 12.192282 13.6950001 12.0000001 13.6950001L10.295 13.6950001 10.295 12.2500001 12.0000001 12.2500001C12.398462 12.2500001 12.722252 12.5715476 12.7250001 12.9700001L12.7250001 12.9700001zM10.295 11.75L10.295 10.305 12.0000001 10.305C12.375784 10.3362882 12.664844 10.6504158 12.664844 11.0275 12.664844 11.4045843 12.375784 11.7187119 12.0000001 11.75L10.295 11.75z"/>
    <rect width="24" height="24"/>
  </g>
</svg>
