<svg xmlns="http://www.w3.org/2000/svg" width="24" height="24" viewBox="0 0 24 24">
  <g fill="none" fill-rule="evenodd">
    <rect width="24" height="24"/>
    <g fill-rule="nonzero" transform="translate(4.5 2.5)">
      <rect width="12" height="8.755" x=".63" y="5.12" fill="#CCC" rx="1"/>
      <path fill="#1A1A1A" d="M11.96,14.1300001 L1.29500001,14.1300001 C0.788851742,14.1272492 0.380000002,13.7161558 0.380000002,13.2100001 L0.380000002,5.79000002 C0.380000002,5.28384429 0.788851742,4.87275087 1.29500001,4.87000002 L11.96,4.87000002 C12.4669656,4.87273305 12.877267,5.28303442 12.88,5.79000002 L12.88,13.2100001 C12.877267,13.7169657 12.4669656,14.127267 11.96,14.1300001 L11.96,14.1300001 Z M1.29500001,5.37000002 C1.06499538,5.37273837 0.880000004,5.5599791 0.880000004,5.79000002 L0.880000004,13.2100001 C0.880000004,13.440021 1.06499538,13.6272617 1.29500001,13.6300001 L11.96,13.6300001 C12.190832,13.6273 12.3773,13.440832 12.38,13.2100001 L12.38,5.79000002 C12.3773,5.55916808 12.190832,5.37270009 11.96,5.37000002 L1.29500001,5.37000002 Z"/>
      <path fill="#1A1A1A" d="M12.5000001 5.65500002C12.433941 5.65461531 12.3708366 5.62757057 12.3250001 5.58000002L11.05 4.29500002C10.1127756 3.3501652 9.57557535 2.080582 9.55000004.750000001L3.93500002.750000001C3.8679357 2.10087817 3.28013766 3.37324587 2.29500001 4.30000002L.920000004 5.58500002C.818362765 5.65722627.679043973 5.6435194.593431189 5.55287057.507818405 5.46222174.502088474 5.32234761.580000002 5.22500002L1.95000001 3.93500002C2.90368475 3.04682624 3.44674855 1.80321014 3.45000001.500000002 3.45000001.361928814 3.56192883.250000001 3.70000002.250000001L9.78500004.250000001C9.92307123.250000001 10.035.361928814 10.035.500000002L10.035.620000003C10.0297274 1.86526408 10.5230809 3.06083617 11.405 3.94000002L12.6850001 5.23000002C12.7320321 5.27608182 12.7585358 5.33915518 12.7585358 5.40500002 12.7585358 5.47084487 12.7320321 5.53391823 12.6850001 5.58000002 12.6375438 5.63125114 12.5697483 5.6587358 12.5000001 5.65500002L12.5000001 5.65500002zM9.78500004 18.7500001L3.69000002 18.7500001C3.55192883 18.7500001 3.44000001 18.6380713 3.44000001 18.5000001 3.43674855 17.1967899 2.89368475 15.9531738 1.94000001 15.0650001L.570000002 13.7750001C.492088474 13.6776525.497818405 13.5377783.583431189 13.4471295.669043973 13.3564807.808362765 13.3427738.910000004 13.4150001L2.28500001 14.7000001C3.27013766 15.6267542 3.8579357 16.8991219 3.92500002 18.2500001L9.52500004 18.2500001C9.55057535 16.9194181 10.0877756 15.6498349 11.025 14.7050001L12.3302185 13.4192347C12.3755852 13.3708961 12.4389256 13.3434754 12.5052185 13.3434754 12.5715115 13.3434754 12.6348519 13.3708961 12.6802185 13.4192347 12.7272506 13.4653165 12.7537543 13.5283899 12.7537543 13.5942347 12.7537543 13.6600796 12.7272506 13.7231529 12.6802185 13.7692347 12.3789618 14.0564116 12.1572223 14.2716667 12.0150001 14.4150001 11.8727778 14.5583334 11.6594445 14.7733334 11.375 15.0600001 10.4930809 15.9391639 9.99972737 17.134736 10.005 18.3800001L10.005 18.5000001C10.0059185 18.6271565 9.91124131 18.7347442 9.78500004 18.7500001zM13.5350001 9.55500007L12.6300001 9.55500007C12.4919289 9.55500007 12.3800001 9.44307123 12.3800001 9.30500004L12.3800001 6.45500003C12.3800001 6.31692884 12.4919289 6.20500003 12.6300001 6.20500003L13.5350001 6.20500003C13.7776731 6.20500003 14.010407 6.30140154 14.1820028 6.47299732 14.3535986 6.64459311 14.4500001 6.87732694 14.4500001 7.12000003L14.4500001 8.62000004C14.455381 8.86611962 14.3613602 9.10402473 14.1891778 9.27997075 14.0169953 9.45591677 13.7811785 9.55505886 13.5350001 9.55500007zM12.8800001 9.05500004L13.5350001 9.05500004C13.7641982 9.05500004 13.9500001 8.86919821 13.9500001 8.64000004L13.9500001 7.14000003C13.9500001 6.91080186 13.7641982 6.72500003 13.5350001 6.72500003L12.8800001 6.72500003 12.8800001 9.05500004zM13.5350001 13.1300001L12.6300001 13.1300001C12.4919289 13.1300001 12.3800001 13.0180712 12.3800001 12.8800001L12.3800001 11C12.3800001 10.8619289 12.4919289 10.75 12.6300001 10.75L13.5350001 10.75C14.0345402 10.7499329 14.4418109 11.150527 14.4500001 11.65L14.4500001 12.2100001C14.4500001 12.7161558 14.0411483 13.1272492 13.5350001 13.1300001zM12.8800001 12.6300001L13.5350001 12.6300001C13.7650047 12.6272617 13.9500164 12.440021 13.9500001 12.2100001L13.9500001 11.65C13.9500001 11.4208019 13.7641982 11.235 13.5350001 11.235L12.8800001 11.235 12.8800001 12.6300001z"/>
      <path fill="#1A1A1A" d="M8.50000002 3.06000001L4.75000002 3.06000001C4.61192883 3.06000001 4.50000002 2.9480712 4.50000002 2.81000001 4.50000002 2.67192882 4.61192883 2.56000001 4.75000002 2.56000001L8.50000002 2.56000001C8.63807122 2.56000001 8.75000004 2.67192882 8.75000004 2.81000001 8.75000004 2.9480712 8.63807122 3.06000001 8.50000002 3.06000001zM8.50000002 16.4400001L4.75000002 16.4400001C4.61304579 16.43734 4.50266007 16.3269543 4.50000002 16.1900001 4.50000002 16.0519289 4.61192883 15.9400001 4.75000002 15.9400001L8.50000002 15.9400001C8.63807122 15.9400001 8.75000004 16.0519289 8.75000004 16.1900001 8.74733998 16.3269543 8.63695426 16.43734 8.50000002 16.4400001z"/>
      <path fill="#000" d="M7.26500003 7.80500003C7.12692884 7.80500003 7.01500003 7.69307122 7.01500003 7.55500003L7.01500003 6.72000003C7.01500003 6.58192884 7.12692884 6.47000003 7.26500003 6.47000003 7.40307122 6.47000003 7.51500003 6.58192884 7.51500003 6.72000003L7.51500003 7.55500003C7.51500003 7.69307122 7.40307122 7.80500003 7.26500003 7.80500003zM6.03500003 7.80500003C5.89692884 7.80500003 5.78500002 7.69307122 5.78500002 7.55500003L5.78500002 6.72000003C5.78500002 6.58192884 5.89692884 6.47000003 6.03500003 6.47000003 6.17195425 6.47266008 6.28233997 6.5830458 6.28500002 6.72000003L6.28500002 7.55500003C6.28500002 7.69307122 6.17307121 7.80500003 6.03500003 7.80500003z"/>
      <path fill="#000" d="M5.70000002 7.80500003L4.86500002 7.80500003C4.72692883 7.80500003 4.61500002 7.69307122 4.61500002 7.55500003 4.61766007 7.4180458 4.72804579 7.30766008 4.86500002 7.30500003L5.70000002 7.30500003C5.83807121 7.30500003 5.95000002 7.41692884 5.95000002 7.55500003 5.95000002 7.69307122 5.83807121 7.80500003 5.70000002 7.80500003zM5.70000002 11.695L4.86500002 11.695C4.72804579 11.69234 4.61766007 11.5819543 4.61500002 11.445 4.61500002 11.3069289 4.72692883 11.195 4.86500002 11.195L5.70000002 11.195C5.83807121 11.195 5.95000002 11.3069289 5.95000002 11.445 5.95000002 11.5830712 5.83807121 11.695 5.70000002 11.695zM7.26500003 12.5300001C7.12692884 12.5300001 7.01500003 12.4180712 7.01500003 12.2800001L7.01500003 11.445C7.01500003 11.3069289 7.12692884 11.195 7.26500003 11.195 7.40307122 11.195 7.51500003 11.3069289 7.51500003 11.445L7.51500003 12.2800001C7.51500003 12.4180712 7.40307122 12.5300001 7.26500003 12.5300001L7.26500003 12.5300001z"/>
      <path fill="#000" d="M6.03500003,12.5300001 C5.89692884,12.5300001 5.78500002,12.4180712 5.78500002,12.2800001 L5.78500002,11.445 C5.78500002,11.3069289 5.89692884,11.195 6.03500003,11.195 C6.17307121,11.195 6.28500002,11.3069289 6.28500002,11.445 L6.28500002,12.2800001 C6.28233997,12.4169543 6.17195425,12.52734 6.03500003,12.5300001 L6.03500003,12.5300001 Z"/>
      <path fill="#000" d="M7.42000003,11.695 L5.46000002,11.695 C5.3230458,11.69234 5.21266007,11.5819543 5.21000002,11.445 L5.21000002,9.50000004 C5.21000002,9.36192885 5.32192883,9.25000004 5.46000002,9.25000004 L7.42000003,9.25000004 C8.06485993,9.29126181 8.5667776,9.82632141 8.5667776,10.4725 C8.5667776,11.1186787 8.06485993,11.6537383 7.42000003,11.695 L7.42000003,11.695 Z M5.71000002,11.195 L7.42000003,11.195 C7.79578401,11.1637119 8.08484399,10.8495843 8.08484399,10.4725 C8.08484399,10.0954158 7.79578401,9.78128818 7.42000003,9.75000004 L5.71000002,9.75000004 L5.71000002,11.195 Z"/>
      <path fill="#000" d="M7.42000003,9.75000004 L5.46000002,9.75000004 C5.32192883,9.75000004 5.21000002,9.63807123 5.21000002,9.50000004 L5.21000002,7.55500003 C5.21266007,7.4180458 5.3230458,7.30766008 5.46000002,7.30500003 L7.42000003,7.30500003 C8.06485993,7.3462618 8.5667776,7.8813214 8.5667776,8.52750004 C8.5667776,9.17367867 8.06485993,9.70873827 7.42000003,9.75000004 L7.42000003,9.75000004 Z M5.71000002,9.25000004 L7.42000003,9.25000004 C7.79578401,9.2187119 8.08484399,8.90458431 8.08484399,8.52750004 C8.08484399,8.15041576 7.79578401,7.83628817 7.42000003,7.80500003 L5.71000002,7.80500003 L5.71000002,9.25000004 Z"/>
    </g>
  </g>
</svg>
