<svg xmlns="http://www.w3.org/2000/svg" width="24" height="24" viewBox="0 0 24 24">
  <g fill="none" fill-rule="evenodd">
    <g fill="#000" fill-rule="nonzero" transform="translate(2.5 4.5)">
      <circle cx="9.5" cy="12.75" r="2.05"/>
      <path d="M9.55000004,7.30000003 C7.50000003,7.30000003 5.55000002,8.10000003 4.15000002,9.60000004 C4.05000002,9.70000004 4.05000002,9.85000004 4.15000002,9.95000004 C4.20000002,10 4.25000002,10 4.30000002,10 C4.35000002,10 4.45000002,9.95000004 4.50000002,9.90000004 C5.85000002,8.50000004 7.65000003,7.75000003 9.55000004,7.75000003 C11.4,7.75000003 13.2000001,8.50000004 14.5000001,9.80000003 C14.6000001,9.90000004 14.7500001,9.90000004 14.8500001,9.80000003 C14.9500001,9.70000004 14.9500001,9.55000004 14.8500001,9.45000004 C13.4500001,8.10000003 11.55,7.30000003 9.55000004,7.30000003 Z"/>
      <path d="M9.50000004,3.75000002 C6.75000003,3.75000002 4.10000002,4.95000002 2.30000001,7.05000003 C2.20000001,7.15000003 2.20000001,7.30000003 2.35000001,7.40000003 C2.45000001,7.50000003 2.60000001,7.50000003 2.70000001,7.35000003 C4.40000002,5.35000002 6.90000003,4.20000002 9.50000004,4.20000002 C12.1500001,4.20000002 14.6000001,5.35000002 16.3500001,7.35000003 C16.4000001,7.40000003 16.4500001,7.45000003 16.5500001,7.45000003 C16.6000001,7.45000003 16.6500001,7.45000003 16.7000001,7.40000003 C16.8000001,7.30000003 16.8000001,7.15000003 16.7500001,7.05000003 C14.9000001,4.95000002 12.2500001,3.75000002 9.50000004,3.75000002 Z"/>
      <path d="M18.7000001,4.45000002 C16.3500001,1.75000001 13.0000001,0.200000001 9.50000004,0.200000001 C6.00000002,0.200000001 2.65000001,1.75000001 0.350000001,4.40000002 C0.250000001,4.50000002 0.250000001,4.65000002 0.400000002,4.75000002 C0.500000002,4.85000002 0.650000003,4.85000002 0.750000003,4.7 C2.95000001,2.15000001 6.15000003,0.700000001 9.55000004,0.700000001 C12.9500001,0.700000001 16.1500001,2.15000001 18.3500001,4.75000002 C18.4000001,4.80000002 18.4500001,4.85000002 18.5500001,4.85000002 C18.6000001,4.85000002 18.6500001,4.85000002 18.7000001,4.80000002 C18.7500001,4.7 18.7500001,4.55000002 18.7000001,4.45000002 Z"/>
    </g>
    <rect width="24" height="24"/>
  </g>
</svg>
