<svg xmlns="http://www.w3.org/2000/svg" width="24" height="24" viewBox="0 0 24 24">
  <g fill="none" fill-rule="evenodd">
    <rect width="24" height="24"/>
    <circle cx="12.085" cy="12" r="9" fill="#CCC" fill-rule="nonzero"/>
    <path fill="#000" fill-rule="nonzero" d="M12.085,21.25 C6.97636606,21.25 2.835,17.1086339 2.835,12 C2.835,6.89136606 6.97636606,2.75 12.085,2.75 C17.1936339,2.75 21.335,6.89136606 21.335,12 C21.3294886,17.1063493 17.1913493,21.2444886 12.085,21.25 L12.085,21.25 Z M12.085,3.25 C7.25250844,3.25 3.335,7.16750844 3.335,12 C3.335,16.8324916 7.25250844,20.75 12.085,20.75 C16.9174916,20.75 20.835,16.8324916 20.835,12 C20.8294892,7.16979293 16.9152071,3.25551079 12.085,3.25 Z"/>
    <path fill="#000" fill-rule="nonzero" d="M20.9705841,11.7463647 L16.76,11.75 C16.7431755,10.2420457 16.5297077,8.74272879 16.125,7.29 C17.1064693,7.06963503 18.068069,6.76861251 19,6.39 C19.0830643,6.35695294 19.1421884,6.28210194 19.1551009,6.19364265 C19.1680134,6.10518336 19.1327526,6.01655486 19.0626009,5.96114264 C18.9924492,5.90573043 18.8980643,5.89195293 18.815,5.925 C17.902747,6.29731626 16.9611864,6.59333088 16,6.81 C15.6126942,5.55515494 15.0860791,4.34763004 14.43,3.21 C14.3871186,3.07890036 14.2461595,3.00730214 14.115,3.05 C13.9850898,3.09718409 13.9148012,3.2377614 13.955,3.37 L13.955,3.415 C14.591877,4.52265019 15.1065619,5.69619878 15.49,6.915 C14.4512887,7.11433634 13.3974712,7.22473627 12.34,7.245 L12.34,3 C12.34,2.86192881 12.2280712,2.75 12.09,2.75 C11.9519288,2.75 11.84,2.86192881 11.84,3 L11.84,7.25 C10.8069746,7.24070544 9.776605,7.14369012 8.76,6.96 C9.14040291,5.72492501 9.65690732,4.5359587 10.3,3.415 C10.3690356,3.29487807 10.3276219,3.14153559 10.2075,3.0725 C10.0873781,3.00346441 9.93403559,3.04487807 9.865,3.165 C9.19454602,4.33264639 8.65782541,5.57213555 8.265,6.86 C7.28805934,6.65227895 6.32983616,6.36464477 5.4,6 C5.33834225,5.9754052 5.26943429,5.97634227 5.20846814,6.00260461 C5.14750199,6.02886695 5.09948378,6.07829808 5.075,6.14 C5.02667283,6.26835466 5.0885267,6.411944 5.215,6.465 C6.15708915,6.82882757 7.12687237,7.11641846 8.115,7.325 C7.72130706,8.76756826 7.51461452,10.2547463 7.5,11.75 L3.085,11.75 C2.94692881,11.75 2.835,11.8619288 2.835,12 C2.835,12.1380712 2.94692881,12.25 3.085,12.25 L7.5,12.25 C7.52443616,13.7403316 7.74294187,15.221128 8.15,16.655 C7.15222476,16.8575207 6.17238816,17.1401016 5.22,17.5 C5.09223317,17.5490055 5.0276083,17.6916258 5.075,17.82 C5.09850533,17.8826092 5.14611549,17.9331907 5.20718883,17.9604388 C5.26826216,17.9876869 5.33770654,17.9893297 5.4,17.965 C6.33721518,17.6044602 7.30201827,17.3202028 8.285,17.115 C8.67430608,18.3579359 9.19736912,19.5549455 9.845,20.685 C9.87968108,20.7877078 9.97660347,20.8563611 10.085,20.855 L10.165,20.855 C10.2278618,20.8345311 10.2797836,20.7895264 10.3089718,20.7302084 C10.3381601,20.6708903 10.3421373,20.6022939 10.32,20.54 C10.3218824,20.5250591 10.3218824,20.5099409 10.32,20.495 C9.6956516,19.3979 9.19268432,18.2360455 8.82,17.03 C9.82829935,16.8477372 10.8503866,16.752387 11.875,16.745 L11.875,21 C11.875,21.1380712 11.9869288,21.25 12.125,21.25 C12.2630712,21.25 12.375,21.1380712 12.375,21 L12.375,16.75 C13.4240559,16.7685725 14.4695727,16.8773063 15.5,17.075 C15.1240019,18.2670538 14.6211208,19.4152992 14,20.5 C13.9662181,20.5573937 13.9572564,20.6260666 13.9751781,20.6902076 C13.9930999,20.7543485 14.0363606,20.8084299 14.095,20.84 C14.1320655,20.8642667 14.1757225,20.8764906 14.22,20.875 C14.3087778,20.8744641 14.3906119,20.8268861 14.435,20.75 C15.0843579,19.6201594 15.6091006,18.4231425 16,17.18 C16.9840712,17.4006357 17.834206,17.6798624 18.770368,18.0549316 C18.8018194,18.0601537 18.8289533,18.0945592 18.8604047,18.0893372 C18.9984758,18.11419 19.1355152,17.9880028 19.160368,17.8499316 C19.1852208,17.7118605 19.0934392,17.5797845 18.955368,17.5549316 C18.0068431,17.1735419 17.1431738,16.8909222 16.145,16.67 C16.5586987,15.2200732 16.7822369,13.7225356 16.81,12.215 L21.0205841,12.2113647 C21.1586553,12.2113647 21.2705841,12.0994359 21.2705841,11.9613647 C21.2705841,11.8232936 21.1586553,11.7463647 21.0205841,11.7463647 L20.9705841,11.7463647 Z M15.63,7.4 C16.0280213,8.81648719 16.2398035,10.2787934 16.26,11.75 L12.335,11.75 L12.335,7.75 C13.4415068,7.73074965 14.5441401,7.61362624 15.63,7.4 Z M8.63,7.445 C9.69427677,7.63887234 10.7732473,7.74091451 11.855,7.75 L11.855,11.75 L8,11.75 C8.01347604,10.2944445 8.21857252,8.84700138 8.61,7.445 L8.63,7.445 Z M8.655,16.55 C8.25147797,15.1510571 8.03130416,13.7056412 8,12.25 L11.84,12.25 L11.84,16.25 C10.7651404,16.2598732 9.69302036,16.3602276 8.635,16.55 L8.655,16.55 Z M15.625,16.595 C14.547055,16.3854718 13.4529372,16.2700373 12.355,16.25 L12.355,12.25 L16.275,12.25 C16.2435914,13.7214845 16.018317,15.1824059 15.605,16.595 L15.625,16.595 Z"/>
  </g>
</svg>
