<svg xmlns="http://www.w3.org/2000/svg" width="24" height="24" viewBox="0 0 24 24">
  <g fill="none" fill-rule="evenodd">
    <path fill="#000" fill-rule="nonzero" d="M12.0950001 18.2150001C12.1610158 18.2099609 12.2221818 18.1784182 12.2645671 18.1275559 12.3069523 18.0766936 12.326948 18.0108423 12.3200001 17.9450001 12.3042715 17.8079686 12.1824325 17.7082822 12.0450001 17.7200001 11.3065266 17.793623 10.5609115 17.7412102 9.84000004 17.5650001 9.77631479 17.5484148 9.70863486 17.5581475 9.65220372 17.5920062 9.59577259 17.6258649 9.5553355 17.6810024 9.54000004 17.7450001 9.52330599 17.8093204 9.53290639 17.8776405 9.56668055 17.934869 9.60045472 17.9920974 9.65562337 18.0335248 9.72000004 18.0500001 10.2662926 18.1858094 10.8270795 18.2546486 11.39 18.2550001 11.625546 18.2542758 11.8608838 18.2409233 12.0950001 18.2150001zM17.5000001 9.65000004C17.5326571 9.75844596 17.6317569 9.83327643 17.7450001 9.83500004L17.8100001 9.83500004C17.8824242 9.82039599 17.9449543 9.77509832 17.9814032 9.71083314 18.0178521 9.64656796 18.0246365 9.56965335 18.0000001 9.50000004 17.7797396 8.73033166 17.4278758 8.00461254 16.9600001 7.35500003 16.877196 7.2453799 16.7224349 7.2210603 16.6100001 7.30000003 16.5550263 7.33815436 16.5180511 7.3971343 16.5076631 7.46323993 16.4972751 7.52934557 16.5143783 7.59682355 16.5550001 7.65000003 16.98558 8.25566264 17.3055184 8.93278101 17.5000001 9.65000004zM5.03000002 11.39C5.03000002 11.24 5.03000002 11.09 5.03000002 10.94 5.03409987 10.8736666 5.01161849 10.8084306 4.96752308 10.758706 4.92342768 10.7089814 4.86134784 10.6788611 4.79500002 10.675 4.72884666 10.6680274 4.6627666 10.6888235 4.6125296 10.7324254 4.56229259 10.7760274 4.53240523 10.8385237 4.53000002 10.905 4.53000002 11.065 4.53000002 11.23 4.53000002 11.405 4.52835172 12.0423827 4.61586626 12.6768632 4.79000002 13.2900001 4.81925293 13.3986489 4.91748377 13.4743685 5.03000002 13.4750001L5.10000002 13.4750001C5.23073126 13.4340992 5.30579355 13.2972209 5.27000002 13.1650001 5.10751592 12.5874414 5.02673111 11.9899704 5.03000002 11.39L5.03000002 11.39zM17.7400001 11.85C17.6883879 12.592934 17.5055627 13.320849 17.2000001 14.0000001 17.143674 14.1256534 17.1995617 14.2731969 17.3250001 14.3300001 17.3579607 14.3453156 17.3936742 14.3538188 17.4300001 14.3550001 17.5283007 14.3546661 17.6168838 14.2956107 17.6550001 14.2050001 17.984433 13.4757113 18.1808553 12.6934088 18.2350001 11.895 18.2446651 11.7569289 18.1405713 11.637165 18.0025001 11.6275 17.8644289 11.6178351 17.7446651 11.7219289 17.7350001 11.86L17.7400001 11.85zM14.1700001 17.1150001C14.0319289 17.1453757 13.9446244 17.2819289 13.9750001 17.4200001 14.0053757 17.5580713 14.1419289 17.6453757 14.2800001 17.6150001 14.3160752 17.6243146 14.3539249 17.6243146 14.3900001 17.6150001 14.6812549 17.4680122 14.9619324 17.3009423 15.2300001 17.1150001 15.6244261 16.8490825 15.9897716 16.5423934 16.3200001 16.2000001 16.4032985 16.0990518 16.3946409 15.9509446 16.3001481 15.860389 16.2056554 15.7698335 16.057314 15.7674833 15.9600001 15.8550001 15.6569922 16.1707111 15.321841 16.4539139 14.9600001 16.7000001 14.7072146 16.8575447 14.4431667 16.9962534 14.1700001 17.1150001zM10.95 4.79000002C10.9436915 4.72356146 10.9110808 4.66240314 10.8594289 4.6201425 10.807777 4.57788186 10.7413722 4.55802745 10.675 4.56500002 9.87941093 4.64863695 9.10448422 4.8702863 8.38500003 5.22000002 8.3252409 5.24908244 8.27952118 5.30076268 8.25794258 5.36362209 8.23636398 5.4264815 8.24070267 5.49534597 8.27000003 5.55500002 8.3101031 5.64259615 8.39869881 5.69772236 8.49500004 5.69500002 8.53293347 5.69382003 8.57028286 5.68533153 8.60500004 5.67000002 9.27027305 5.34440584 9.98808698 5.139558 10.725 5.06500002 10.7914386 5.05869152 10.8525969 5.02608079 10.8948576 4.9744289 10.9371182 4.92277701 10.9569726 4.85637217 10.95 4.79000002zM6.81000003 6.61500003C6.76305838 6.56767186 6.69915941 6.54105045 6.63250003 6.54105045 6.56584064 6.54105045 6.50194168 6.56767186 6.45500003 6.61500003 5.89871641 7.1992365 5.44863427 7.87605174 5.12500002 8.61500004 5.09653098 8.67516683 5.09376773 8.74432729 5.11734587 8.80657358 5.14092401 8.86881987 5.18881383 8.91879356 5.25000002 8.94500004 5.28291135 8.95250122 5.3170887 8.95250122 5.35000002 8.94500004 5.44784391 8.94379791 5.53672704 8.8877629 5.58000002 8.80000004 5.88101695 8.12221416 6.29907093 7.50274955 6.81500003 6.97000003 6.86167324 6.92239498 6.88739892 6.85811978 6.88646003 6.79145834 6.88552113 6.7247969 6.85799545 6.66127171 6.81000003 6.61500003L6.81000003 6.61500003zM6.24000003 15.1250001C6.20096831 15.071177 6.14210481 15.0351185 6.07642474 15.0247973 6.01074468 15.0144762 5.94365868 15.0307426 5.89000002 15.0700001 5.7803799 15.1528041 5.75606029 15.3075652 5.83500002 15.4200001 6.30484854 16.0665385 6.88345201 16.6265319 7.54500003 17.0750001 7.5862352 17.1034225 7.63492692 17.1190734 7.68500003 17.1200001 7.76861601 17.1192362 7.84676152 17.0783028 7.89500003 17.0100001 7.97081583 16.8937267 7.93970437 16.7381694 7.82500003 16.6600001 7.21094257 16.2449894 6.67447387 15.725444 6.24000003 15.1250001L6.24000003 15.1250001z"/>
    <path fill="#000" fill-rule="nonzero" d="M18.0600001,5.91000002 C15.9729114,3.35927781 12.6152852,2.21997928 9.40689099,2.97385588 C6.19849681,3.72773248 3.69961595,6.24313487 2.96689812,9.45642722 C2.23418029,12.6697196 3.39557988,16.0197652 5.96000002,18.0900001 L5.96000002,18.0900001 C8.04146325,20.6623839 11.4099131,21.819048 14.6325801,21.0680055 C17.8552472,20.3169631 20.365301,17.7903139 21.0950907,14.5627676 C21.8248804,11.3352214 20.6460443,7.97446679 18.0600001,5.91000002 L18.0600001,5.91000002 Z M3.25997526,11.41 C3.2519058,8.11743682 5.22933608,5.14467095 8.26914221,3.8795161 C11.3089483,2.61436125 14.8116256,3.30632881 17.1419752,5.63237887 C19.4723248,7.95842893 20.1707597,11.4598224 18.9112207,14.5019597 C17.6516816,17.5440971 14.6825726,19.5270138 11.39,19.5250016 C6.89911633,19.5222399 3.25997526,15.8808846 3.25997526,11.39 L3.25997526,11.41 Z M12.61,20.7600001 C11.0075497,20.7582254 9.44158566,20.2814763 8.11000003,19.3900001 C11.3355641,20.7246383 15.0475618,19.9834037 17.513175,17.5123162 C19.9787883,15.0412287 20.7117886,11.3275962 19.3700001,8.10500003 C21.0375113,10.5975865 21.1954082,13.8063337 19.7806724,16.4505922 C18.3659365,19.0948508 15.6089273,20.7440598 12.61,20.7400001 L12.61,20.7600001 Z"/>
    <path fill="#000" fill-rule="nonzero" d="M13.8550001,8.17000003 L11.5,10.55 L9.17000004,8.22000003 C9.13155158,8.1815287 9.07939055,8.1599138 9.02500004,8.1599138 C8.97060953,8.1599138 8.91844849,8.1815287 8.88000004,8.22000003 C8.83997504,8.25863253 8.8173684,8.31187208 8.8173684,8.36750003 C8.8173684,8.42312799 8.83997504,8.47636754 8.88000004,8.51500004 L11.315,10.955 L11.315,11.905 L9.86500004,11.905 C9.75178167,11.905 9.66000004,11.9967817 9.66000004,12.1100001 C9.65865255,12.1652305 9.67965437,12.2186668 9.71824634,12.2582001 C9.75683832,12.2977333 9.80975316,12.3200165 9.86500004,12.3200001 L11.315,12.3200001 L11.315,13.2500001 L9.86500004,13.2500001 C9.80975316,13.2499836 9.75683832,13.2722668 9.71824634,13.3118 C9.67965437,13.3513333 9.65865255,13.4047696 9.66000004,13.4600001 C9.66000004,13.5732184 9.75178167,13.6650001 9.86500004,13.6650001 L11.315,13.6650001 L11.315,14.4650001 C11.315,14.5809799 11.4090203,14.6750001 11.525,14.6750001 C11.6409798,14.6750001 11.735,14.5809799 11.735,14.4650001 L11.735,13.6650001 L13.1350001,13.6650001 C13.2482184,13.6650001 13.3400001,13.5732184 13.3400001,13.4600001 C13.3413475,13.4047696 13.3203457,13.3513333 13.2817538,13.3118 C13.2431618,13.2722668 13.1902469,13.2499836 13.1350001,13.2500001 L11.735,13.2500001 L11.735,12.3200001 L13.1350001,12.3200001 C13.1902469,12.3200165 13.2431618,12.2977333 13.2817538,12.2582001 C13.3203457,12.2186668 13.3413475,12.1652305 13.3400001,12.1100001 C13.3400001,11.9967817 13.2482184,11.905 13.1350001,11.905 L11.735,11.905 L11.735,10.905 L14.1700001,8.46500004 C14.2100251,8.42636754 14.2326317,8.37312799 14.2326317,8.31750003 C14.2326317,8.26187208 14.2100251,8.20863253 14.1700001,8.17000003 C14.1310514,8.12325106 14.0733479,8.09622027 14.0125001,8.09622027 C13.9516522,8.09622027 13.8939487,8.12325106 13.8550001,8.17000003 Z"/>
    <rect width="24" height="24"/>
    <path fill="#000" fill-rule="nonzero" d="M14.93,6.11499998 L14.955,6.11499998 C14.9925542,6.13817125 15.0358737,6.1503007 15.08,6.1500107 C15.1647634,6.14895476 15.2434661,6.10585567 15.29,6.03499998 C15.3620702,5.91695509 15.3291117,5.76314873 15.215,5.68499997 C14.5538543,5.24410966 13.821372,4.92100545 13.05,4.72999997 C12.9119288,4.69686288 12.7731371,4.78192878 12.74,4.91999997 C12.7068629,5.05807116 12.7919288,5.18186289 12.93,5.21499997 C13.6437865,5.39682714 14.3205288,5.70136117 14.93,6.11499998 Z"/>
  </g>
</svg>
