<svg xmlns="http://www.w3.org/2000/svg" width="24" height="24" viewBox="0 0 24 24">
  <g fill="none" fill-rule="evenodd">
    <path fill="#000" fill-rule="nonzero" d="M12.0000001,2.75000001 C6.89136609,2.75000001 2.75000001,6.89136609 2.75000001,12.0000001 C2.75000001,17.108634 6.89136609,21.25 12,21.25 C17.108634,21.25 21.25,17.108634 21.25,12.0000001 C21.2444886,6.89365075 17.1063493,2.75551146 12.0000001,2.75000001 Z M12.0000001,20.75 C7.16750847,20.75 3.25000001,16.8324916 3.25000001,12.0000001 C3.25000001,7.16750847 7.16750847,3.25000001 12,3.25000001 C16.8324916,3.25000001 20.75,7.16750847 20.75,12 C20.7444893,16.8302071 16.8302071,20.7444893 12.0000001,20.75 Z"/>
    <path fill="#000" fill-rule="nonzero" d="M16.0250001,6.66000003 L11.96,10.725 L7.96000003,6.72500003 C7.91463337,6.67666141 7.85129299,6.6492407 7.78500003,6.6492407 C7.71870708,6.6492407 7.6553667,6.67666141 7.61000003,6.72500003 C7.56267187,6.77194168 7.53605045,6.83584064 7.53605045,6.90250003 C7.53605045,6.96915941 7.56267187,7.03305838 7.61000003,7.08000003 L11.735,11.205 L11.735,12.9400001 L9.21500004,12.9400001 C9.07692885,12.9400001 8.96500004,13.0519289 8.96500004,13.1900001 C8.96500004,13.3280712 9.07692885,13.4400001 9.21500004,13.4400001 L11.75,13.4400001 L11.75,15.2050001 L9.21500004,15.2050001 C9.07692885,15.2050001 8.96500004,15.3169289 8.96500004,15.4550001 C8.96500004,15.5930713 9.07692885,15.7050001 9.21500004,15.7050001 L11.75,15.7050001 L11.75,17.1450001 C11.75,17.2830713 11.8619289,17.3950001 12.0000001,17.3950001 C12.1380712,17.3950001 12.2500001,17.2830713 12.2500001,17.1450001 L12.2500001,15.7250001 L14.7000001,15.7250001 C14.8380712,15.7250001 14.9500001,15.6130713 14.9500001,15.4750001 C14.9500001,15.3369289 14.8380712,15.2250001 14.7000001,15.2250001 L12.2500001,15.2250001 L12.2500001,13.4600001 L14.7000001,13.4600001 C14.8380712,13.4600001 14.9500001,13.3480712 14.9500001,13.2100001 C14.9500001,13.0719289 14.8380712,12.9600001 14.7000001,12.9600001 L12.2500001,12.9600001 L12.2500001,11.14 L16.3750001,7.00000003 C16.4223282,6.95305838 16.4489496,6.88915941 16.4489496,6.82250003 C16.4489496,6.75584064 16.4223282,6.69194168 16.3750001,6.64500003 C16.3275923,6.59854474 16.2630626,6.57379699 16.1967489,6.57663901 C16.1304351,6.57948103 16.0682594,6.60965901 16.0250001,6.66000003 Z"/>
    <rect width="24" height="24"/>
  </g>
</svg>
