<?xml version="1.0" encoding="UTF-8"?>
<svg id="_07-Sports_Fitness" data-name="07-Sports &amp;amp; Fitness" xmlns="http://www.w3.org/2000/svg" viewBox="0 0 24 24">
  <defs>
    <style>
      .cls-1 {
        fill: #25314c;
      }
    </style>
  </defs>
  <g id="dumbbell">
    <path id="dumbbell-2" data-name="dumbbell" class="cls-1" d="m21.5,9.5v-2c0-1.271-.729-2-2-2h-2c-1.271,0-2,.729-2,2v2h-7v-2c0-1.271-.729-2-2-2h-2c-1.271,0-2,.729-2,2v2c-.561,0-1,.471-1,1.071v2.857c0,.601.439,1.071,1,1.071v2c0,1.271.729,2,2,2h2c1.271,0,2-.729,2-2v-2h7v2c0,1.271.729,2,2,2h2c1.271,0,2-.729,2-2v-2c.561,0,1-.471,1-1.071v-2.857c0-.601-.439-1.071-1-1.071Zm-14,7c0,.72-.28,1-1,1h-2c-.72,0-1-.28-1-1V7.5c0-.72.28-1,1-1h2c.72,0,1,.28,1,1v9Zm1-3v-3h7v3h-7Zm12,3c0,.72-.28,1-1,1h-2c-.72,0-1-.28-1-1V7.5c0-.72.28-1,1-1h2c.72,0,1,.28,1,1v9Z"/>
  </g>
</svg>