<?xml version="1.0" encoding="UTF-8"?>
<svg id="_29-Emoji" data-name="29-Emoji" xmlns="http://www.w3.org/2000/svg" viewBox="0 0 24 24">
  <defs>
    <style>
      .cls-1 {
        fill: #25314c;
      }
    </style>
  </defs>
  <g id="face-diagonal-mouth">
    <path id="face-diagonal-mouth-2" data-name="face-diagonal-mouth" class="cls-1" d="m12,22.5c-5.79,0-10.5-4.71-10.5-10.5S6.21,1.5,12,1.5s10.5,4.71,10.5,10.5-4.71,10.5-10.5,10.5Zm0-20C6.762,2.5,2.5,6.762,2.5,12s4.262,9.5,9.5,9.5,9.5-4.262,9.5-9.5S17.238,2.5,12,2.5Zm4,7.5c0-.869-.421-1.5-1-1.5s-1,.631-1,1.5.421,1.5,1,1.5,1-.631,1-1.5Zm-6,0c0-.869-.421-1.5-1-1.5s-1,.631-1,1.5.421,1.5,1,1.5,1-.631,1-1.5Zm-.918,6.493l6-1c.272-.045.457-.303.411-.575s-.306-.457-.575-.411l-6,1c-.272.045-.457.303-.411.575.041.245.253.418.492.418.027,0,.056-.002.083-.007Z"/>
  </g>
</svg>