<?xml version="1.0" encoding="UTF-8"?>
<svg id="Layer_6" data-name="Layer 6" xmlns="http://www.w3.org/2000/svg" viewBox="0 0 24 24">
  <defs>
    <style>
      .cls-1 {
        fill: #25314c;
      }
    </style>
  </defs>
  <path id="dumbbell" class="cls-1" d="m8,7.5v9c0,1-.5,1.5-1.5,1.5h-2c-1,0-1.5-.5-1.5-1.5v-2h-.5c-.561,0-1-.471-1-1.071v-2.857c0-.601.439-1.071,1-1.071h.5v-2c0-1,.5-1.5,1.5-1.5h2c1,0,1.5.5,1.5,1.5Zm13.5,2h-.5v-2c0-1-.5-1.5-1.5-1.5h-2c-1,0-1.5.5-1.5,1.5v9c0,1,.5,1.5,1.5,1.5h2c1,0,1.5-.5,1.5-1.5v-2h.5c.561,0,1-.471,1-1.071v-2.857c0-.601-.439-1.071-1-1.071Zm-12.5,4.5h6v-4h-6v4Z"/>
</svg>