<?xml version="1.0" encoding="UTF-8"?>
<svg id="_29-Emoji" data-name="29-Emoji" xmlns="http://www.w3.org/2000/svg" viewBox="0 0 24 24">
  <defs>
    <style>
      .cls-1 {
        fill: #25314c;
      }
    </style>
  </defs>
  <g id="face-meh">
    <path id="face-meh-2" data-name="face-meh" class="cls-1" d="m12,22.5c-5.79,0-10.5-4.71-10.5-10.5S6.21,1.5,12,1.5s10.5,4.71,10.5,10.5-4.71,10.5-10.5,10.5Zm0-20C6.762,2.5,2.5,6.762,2.5,12s4.262,9.5,9.5,9.5,9.5-4.262,9.5-9.5S17.238,2.5,12,2.5Zm4,7.5c0-.869-.421-1.5-1-1.5s-1,.631-1,1.5.421,1.5,1,1.5,1-.631,1-1.5Zm-6,0c0-.869-.421-1.5-1-1.5s-1,.631-1,1.5.421,1.5,1,1.5,1-.631,1-1.5Zm5.5,6c0-.276-.224-.5-.5-.5h-6c-.276,0-.5.224-.5.5s.224.5.5.5h6c.276,0,.5-.224.5-.5Z"/>
  </g>
</svg>