<?xml version="1.0" encoding="UTF-8"?>
<svg id="_23-Food_Cooking" data-name="23-Food &amp;amp; Cooking" xmlns="http://www.w3.org/2000/svg" viewBox="0 0 24 24">
  <defs>
    <style>
      .cls-1 {
        fill: #25314c;
      }
    </style>
  </defs>
  <g id="Plate">
    <path id="Plate-2" data-name="Plate" class="cls-1" d="m12,1.5C6.21,1.5,1.5,6.21,1.5,12s4.71,10.5,10.5,10.5,10.5-4.71,10.5-10.5S17.79,1.5,12,1.5Zm0,20c-5.238,0-9.5-4.262-9.5-9.5S6.762,2.5,12,2.5s9.5,4.262,9.5,9.5-4.262,9.5-9.5,9.5Zm0-15c-3.032,0-5.5,2.467-5.5,5.5s2.468,5.5,5.5,5.5,5.5-2.467,5.5-5.5-2.468-5.5-5.5-5.5Zm0,10c-2.481,0-4.5-2.019-4.5-4.5s2.019-4.5,4.5-4.5,4.5,2.019,4.5,4.5-2.019,4.5-4.5,4.5Z"/>
  </g>
</svg>