<?xml version="1.0" encoding="UTF-8"?>
<svg id="_23-Food_Cooking" data-name="23-Food &amp;amp; Cooking" xmlns="http://www.w3.org/2000/svg" viewBox="0 0 24 24">
  <defs>
    <style>
      .cls-1 {
        fill: #25314c;
      }
    </style>
  </defs>
  <g id="popsicle">
    <path id="popsicle-2" data-name="popsicle" class="cls-1" d="m12,2.5c-3.032,0-5.5,2.467-5.5,5.5v6.5c0,1.103.897,2,2,2h3v4.5c0,.276.224.5.5.5s.5-.224.5-.5v-4.5h3c1.103,0,2-.897,2-2v-6.5c0-3.033-2.468-5.5-5.5-5.5Zm4.5,12c0,.551-.448,1-1,1h-7c-.552,0-1-.449-1-1v-6.5c0-2.481,2.019-4.5,4.5-4.5s4.5,2.019,4.5,4.5v6.5Zm-2.5-7.5v6c0,.276-.224.5-.5.5s-.5-.224-.5-.5v-6c0-.276.224-.5.5-.5s.5.224.5.5Zm-3,0v6c0,.276-.224.5-.5.5s-.5-.224-.5-.5v-6c0-.276.224-.5.5-.5s.5.224.5.5Z"/>
  </g>
</svg>